<svg xmlns="http://www.w3.org/2000/svg" viewBox="0 0 200 200" width="200" height="200">
  <rect width="200" height="200" fill="#000000"/>

  <!-- The Cemí Eye - icon version (no wordmark) -->
  <!-- Centered larger in the frame for avatar/favicon use -->
  <path d="
    M 25 125
    Q 34 88, 50 82
    Q 58 78, 62 94
    Q 66 108, 74 108
    Q 82 108, 92 72
    Q 97 44, 100 35
    Q 103 44, 108 72
    Q 118 108, 126 108
    Q 134 108, 138 94
    Q 142 78, 150 82
    Q 166 88, 175 125
    Q 175 138, 157 142
    Q 135 147, 100 147
    Q 65 147, 43 142
    Q 25 138, 25 125
    Z
  " fill="none" stroke="#FFFFFF" stroke-width="2.5"/>

  <!-- The Oracle's Eye -->
  <circle cx="100" cy="105" r="10" fill="#C9A84C"/>
</svg>