<svg xmlns="http://www.w3.org/2000/svg" viewBox="0 0 200 260" width="200" height="260">
  <defs>
    <symbol id="cemi-sm" viewBox="0 0 16 18">
      <path d="M8 0 C8.8 0, 10 2, 11.5 5 C13 8, 14.5 9.5, 15.5 10.5 C16 11, 16 12, 15 13 C14 14, 12 14.5, 10.5 14 C9.5 13.7, 8.8 13, 8 14.5 C7.2 13, 6.5 13.7, 5.5 14 C4 14.5, 2 14, 1 13 C0 12, 0 11, 0.5 10.5 C1.5 9.5, 3 8, 4.5 5 C6 2, 7.2 0, 8 0Z" fill="currentColor"/>
    </symbol>
    <symbol id="cemi-lg" viewBox="0 0 16 18">
      <path d="M8 0 C8.8 0, 10 2, 11.5 5 C13 8, 14.5 9.5, 15.5 10.5 C16 11, 16 12, 15 13 C14 14, 12 14.5, 10.5 14 C9.5 13.7, 8.8 13, 8 14.5 C7.2 13, 6.5 13.7, 5.5 14 C4 14.5, 2 14, 1 13 C0 12, 0 11, 0.5 10.5 C1.5 9.5, 3 8, 4.5 5 C6 2, 7.2 0, 8 0Z" fill="currentColor"/>
    </symbol>
  </defs>

  <!-- Black background -->
  <rect width="200" height="260" fill="#000000"/>

  <!-- Vertical axis line -->
  <path d="M100 42 C99.5 65, 100.5 100, 100 125 C99.6 140, 100.3 150, 100 158"
        stroke="#FFFFFF" stroke-width="1.2" fill="none" opacity="0.55" stroke-linecap="round"/>

  <!-- Top node -->
  <g transform="translate(92, 30)" color="#FFFFFF">
    <use href="#cemi-sm" width="16" height="18"/>
  </g>

  <!-- Middle node — gold -->
  <g transform="translate(87.5, 88)" color="#C9A84C">
    <use href="#cemi-lg" width="25" height="28"/>
  </g>

  <!-- Bottom node -->
  <g transform="translate(92, 152)" color="#FFFFFF">
    <use href="#cemi-sm" width="16" height="18"/>
  </g>

  <!-- BEHIKE wordmark -->
  <text x="100" y="232" text-anchor="middle"
        font-family="'Helvetica Neue', Helvetica, Arial, sans-serif"
        font-weight="100" font-size="18" letter-spacing="12"
        fill="#FFFFFF">BEHIKE</text>
</svg>