<svg xmlns="http://www.w3.org/2000/svg" viewBox="0 0 2550 3300" font-family="'Helvetica Neue', Helvetica, Arial, sans-serif">
  <defs>
    <style>
      .title { font-size: 56px; fill: #ffffff; font-weight: 700; letter-spacing: 2px; }
      .subtitle { font-size: 24px; fill: #999999; font-weight: 400; }
      .section-header { font-size: 32px; fill: #FF69B4; font-weight: 700; letter-spacing: 1px; }
      .section-num { font-size: 28px; fill: #000000; font-weight: 800; }
      .body { font-size: 18px; fill: #ffffff; font-weight: 400; }
      .body-dim { font-size: 18px; fill: #999999; font-weight: 400; }
      .body-bold { font-size: 18px; fill: #ffffff; font-weight: 700; }
      .body-pink { font-size: 18px; fill: #FF69B4; font-weight: 600; }
      .small { font-size: 15px; fill: #999999; font-weight: 400; }
      .small-white { font-size: 15px; fill: #ffffff; font-weight: 400; }
      .tiny { font-size: 13px; fill: #666666; font-weight: 400; }
      .label { font-size: 14px; fill: #FF69B4; font-weight: 600; letter-spacing: 1px; }
      .field-line { stroke: #333333; stroke-width: 1; stroke-dasharray: 4,3; }
      .connector { stroke: #FF69B4; stroke-width: 1; fill: none; opacity: 0.4; }
      .box { fill: none; stroke: #333333; stroke-width: 1; rx: 8; }
      .box-pink { fill: none; stroke: #FF69B4; stroke-width: 1; rx: 8; opacity: 0.6; }
      .box-fill { fill: #111111; stroke: #333333; stroke-width: 1; rx: 6; }
      .box-highlight { fill: #1a0a12; stroke: #FF69B4; stroke-width: 1; rx: 6; }
      .checkbox { fill: none; stroke: #555555; stroke-width: 1.5; rx: 3; }
      .divider { stroke: #222222; stroke-width: 1; }
      .table-header { fill: #FF69B4; opacity: 0.15; }
      .table-border { stroke: #333333; stroke-width: 1; fill: none; }
      .circle-num { fill: #FF69B4; }
      .footer { font-size: 20px; fill: #555555; font-weight: 400; letter-spacing: 1px; }
    </style>
  </defs>

  <!-- BACKGROUND -->
  <rect width="2550" height="3300" fill="#000000"/>

  <!-- BORDER FRAME -->
  <rect x="40" y="40" width="2470" height="3220" fill="none" stroke="#222222" stroke-width="1" rx="12"/>

  <!-- ============================================ -->
  <!-- HEADER -->
  <!-- ============================================ -->
  <text x="1275" y="120" text-anchor="middle" class="title">KAWAII VENDOR BUSINESS BLUEPRINT</text>
  <text x="1275" y="158" text-anchor="middle" class="subtitle">The complete playbook for building a kawaii/collectible vendor business from zero.</text>
  <line x1="200" y1="180" x2="2350" y2="180" class="divider"/>

  <!-- ============================================ -->
  <!-- SECTION 1: STORE SETUP (top-left) -->
  <!-- ============================================ -->
  <circle cx="120" cy="230" r="18" class="circle-num"/>
  <text x="120" y="237" text-anchor="middle" class="section-num">1</text>
  <text x="150" y="237" class="section-header">STORE SETUP</text>

  <!-- Comparison table -->
  <rect x="100" y="260" width="1100" height="36" class="table-header" rx="6"/>
  <rect x="100" y="260" width="1100" height="36" class="table-border" rx="6"/>
  <text x="120" y="284" class="body-bold">Feature</text>
  <text x="400" y="284" class="body-pink">Shopify</text>
  <text x="640" y="284" class="body-pink">Etsy</text>
  <text x="880" y="284" class="body-pink">Big Cartel</text>

  <line x1="100" y1="296" x2="1200" y2="296" class="divider"/>
  <text x="120" y="316" class="body">Monthly Cost</text>
  <text x="400" y="316" class="body-dim">$39/mo</text>
  <text x="640" y="316" class="body-dim">$0 + fees</text>
  <text x="880" y="316" class="body-dim">$0-$12/mo</text>

  <line x1="100" y1="330" x2="1200" y2="330" class="divider"/>
  <text x="120" y="350" class="body">Transaction Fee</text>
  <text x="400" y="350" class="body-dim">2.9% + 30c</text>
  <text x="640" y="350" class="body-dim">6.5% + 20c</text>
  <text x="880" y="350" class="body-dim">0% (own pay)</text>

  <line x1="100" y1="364" x2="1200" y2="364" class="divider"/>
  <text x="120" y="384" class="body">Custom Domain</text>
  <text x="400" y="384" class="body-dim">Yes</text>
  <text x="640" y="384" class="body-dim">No (pattern.me)</text>
  <text x="880" y="384" class="body-dim">Yes</text>

  <line x1="100" y1="398" x2="1200" y2="398" class="divider"/>
  <text x="120" y="418" class="body">Best For</text>
  <text x="400" y="418" class="body-dim">Scaling brand</text>
  <text x="640" y="418" class="body-dim">Built-in traffic</text>
  <text x="880" y="418" class="body-dim">Simple start</text>

  <!-- Setup checklist -->
  <text x="1300" y="284" class="label">LAUNCH CHECKLIST</text>
  <rect x="1300" y="298" width="16" height="16" class="checkbox"/>
  <text x="1326" y="312" class="body">Register domain name</text>
  <rect x="1300" y="326" width="16" height="16" class="checkbox"/>
  <text x="1326" y="340" class="body">Choose platform + plan</text>
  <rect x="1300" y="354" width="16" height="16" class="checkbox"/>
  <text x="1326" y="368" class="body">Set up payment processor (Stripe/PayPal)</text>
  <rect x="1300" y="382" width="16" height="16" class="checkbox"/>
  <text x="1326" y="396" class="body">Install kawaii-friendly theme</text>
  <rect x="1300" y="410" width="16" height="16" class="checkbox"/>
  <text x="1326" y="424" class="body">Create About page + brand story</text>
  <rect x="1300" y="438" width="16" height="16" class="checkbox"/>
  <text x="1326" y="452" class="body">Upload first 10 products with photos</text>
  <rect x="1300" y="466" width="16" height="16" class="checkbox"/>
  <text x="1326" y="480" class="body">Set shipping rates (flat rate recommended)</text>
  <rect x="1300" y="494" width="16" height="16" class="checkbox"/>
  <text x="1326" y="508" class="body">Test checkout flow end-to-end</text>

  <!-- ============================================ -->
  <!-- CONNECTOR 1>2 -->
  <!-- ============================================ -->
  <path d="M 700 530 C 700 560, 700 560, 700 580" class="connector"/>

  <!-- ============================================ -->
  <!-- SECTION 2: PRODUCT SOURCING (hub-spoke) -->
  <!-- ============================================ -->
  <circle cx="120" cy="610" r="18" class="circle-num"/>
  <text x="120" y="617" text-anchor="middle" class="section-num">2</text>
  <text x="150" y="617" class="section-header">PRODUCT SOURCING</text>

  <!-- Hub -->
  <rect x="520" y="660" width="220" height="50" class="box-highlight"/>
  <text x="630" y="692" text-anchor="middle" class="body-pink">YOUR INVENTORY</text>

  <!-- Spokes -->
  <line x1="520" y1="685" x2="120" y2="685" stroke="#333333" stroke-width="1"/>
  <line x1="740" y1="685" x2="1200" y2="685" stroke="#333333" stroke-width="1"/>
  <line x1="630" y1="710" x2="300" y2="790" stroke="#333333" stroke-width="1"/>
  <line x1="630" y1="710" x2="960" y2="790" stroke="#333333" stroke-width="1"/>

  <!-- Spoke 1: Wholesale -->
  <rect x="80" y="660" width="200" height="50" class="box-fill"/>
  <text x="180" y="680" text-anchor="middle" class="body-bold">Wholesale</text>
  <text x="180" y="700" text-anchor="middle" class="small">AliExpress, 1688, Japan direct</text>

  <!-- Spoke 2: Local Thrift -->
  <rect x="160" y="770" width="200" height="50" class="box-fill"/>
  <text x="260" y="790" text-anchor="middle" class="body-bold">Local Thrift</text>
  <text x="260" y="810" text-anchor="middle" class="small">Garage sales, flea markets, lots</text>

  <!-- Spoke 3: Handmade -->
  <rect x="830" y="770" width="220" height="50" class="box-fill"/>
  <text x="940" y="790" text-anchor="middle" class="body-bold">Handmade / Custom</text>
  <text x="940" y="810" text-anchor="middle" class="small">Resin, stickers, prints, charms</text>

  <!-- Spoke 4: Blind Box -->
  <rect x="1060" y="660" width="250" height="50" class="box-fill"/>
  <text x="1185" y="680" text-anchor="middle" class="body-bold">Blind Box Distributors</text>
  <text x="1185" y="700" text-anchor="middle" class="small">Sonny Angel, Pop Mart, Tokidoki</text>

  <!-- Sourcing fill-in -->
  <text x="1400" y="660" class="label">MY TOP SOURCES</text>
  <text x="1400" y="690" class="body-dim">1. ___________________________________</text>
  <text x="1400" y="720" class="body-dim">2. ___________________________________</text>
  <text x="1400" y="750" class="body-dim">3. ___________________________________</text>
  <text x="1400" y="780" class="body-dim">4. ___________________________________</text>
  <text x="1400" y="810" class="body-dim">Lead time: _______ days  MOQ: _______</text>

  <!-- ============================================ -->
  <!-- CONNECTOR 2>3 -->
  <!-- ============================================ -->
  <path d="M 1275 840 C 1275 860, 1275 860, 1275 880" class="connector"/>

  <!-- ============================================ -->
  <!-- SECTION 3: PRICING STRATEGY -->
  <!-- ============================================ -->
  <circle cx="120" cy="910" r="18" class="circle-num"/>
  <text x="120" y="917" text-anchor="middle" class="section-num">3</text>
  <text x="150" y="917" class="section-header">PRICING STRATEGY</text>

  <!-- Resale formula -->
  <rect x="100" y="940" width="500" height="140" class="box-fill"/>
  <text x="120" y="968" class="label">RESALE MARKUP</text>
  <text x="120" y="998" class="body">Cost x 2.5 = Retail Price (minimum)</text>
  <text x="120" y="1024" class="body">Cost x 3.5 = Retail Price (target)</text>
  <text x="120" y="1058" class="body-dim">Example: $4 cost  x  3.0  =  $12 retail</text>

  <!-- Custom formula -->
  <rect x="640" y="940" width="500" height="140" class="box-fill"/>
  <text x="660" y="968" class="label">CUSTOM / HANDMADE</text>
  <text x="660" y="998" class="body">Materials + (Hours x $20/hr) + 40% margin</text>
  <text x="660" y="1024" class="body">Minimum price floor: $8 per item</text>
  <text x="660" y="1058" class="body-dim">Example: $3 mat + 0.5hr + 40% = $18</text>

  <!-- Bundle pricing -->
  <rect x="1180" y="940" width="500" height="140" class="box-fill"/>
  <text x="1200" y="968" class="label">BUNDLE PRICING</text>
  <text x="1200" y="998" class="body">3-pack: 15% discount off individual</text>
  <text x="1200" y="1024" class="body">5-pack: 25% discount off individual</text>
  <text x="1200" y="1058" class="body-dim">Mystery box: cost x 2.0 (perceived value)</text>

  <!-- Event vs Online -->
  <rect x="1720" y="940" width="720" height="140" class="box-fill"/>
  <text x="1740" y="968" class="label">EVENT vs ONLINE PRICING</text>
  <text x="1740" y="998" class="body">Events: round numbers ($5, $10, $15, $20)</text>
  <text x="1740" y="1024" class="body">Online: .99 pricing ($9.99, $14.99)</text>
  <text x="1740" y="1058" class="body-dim">Events allow 10-20% premium (impulse buys)</text>

  <!-- ============================================ -->
  <!-- CONNECTOR 3>4 -->
  <!-- ============================================ -->
  <path d="M 1275 1100 C 1275 1120, 1275 1120, 1275 1140" class="connector"/>

  <!-- ============================================ -->
  <!-- SECTION 4: CONTENT ENGINE -->
  <!-- ============================================ -->
  <circle cx="120" cy="1150" r="18" class="circle-num"/>
  <text x="120" y="1157" text-anchor="middle" class="section-num">4</text>
  <text x="150" y="1157" class="section-header">CONTENT ENGINE</text>

  <!-- Platform columns -->
  <rect x="100" y="1180" width="540" height="240" class="box-pink"/>
  <text x="120" y="1210" class="body-pink">TikTok (PRIMARY)</text>
  <text x="120" y="1238" class="body">Post 1-2x daily, 15-60 sec videos</text>
  <text x="120" y="1262" class="body">Formats: unboxing, packing orders,</text>
  <text x="120" y="1286" class="body">"what sold today", hauls, ASMR</text>
  <text x="120" y="1314" class="body-dim">Best times: 7am, 12pm, 7pm</text>
  <text x="120" y="1342" class="body-dim">Use trending sounds + kawaii hashtags</text>
  <text x="120" y="1370" class="body-dim">Link in bio to store or Linktree</text>
  <text x="120" y="1398" class="body-dim">TikTok Shop when eligible</text>

  <rect x="680" y="1180" width="540" height="240" class="box-fill"/>
  <text x="700" y="1210" class="body-pink">Instagram (SECONDARY)</text>
  <text x="700" y="1238" class="body">Reels: repurpose TikToks</text>
  <text x="700" y="1262" class="body">Stories: behind-the-scenes, polls</text>
  <text x="700" y="1286" class="body">Feed: flat lay product photos</text>
  <text x="700" y="1314" class="body-dim">Carousel posts for collections</text>
  <text x="700" y="1342" class="body-dim">Highlight reels: "Shop", "Reviews", "Events"</text>
  <text x="700" y="1370" class="body-dim">IG Shopping integration</text>

  <rect x="1260" y="1180" width="540" height="240" class="box-fill"/>
  <text x="1280" y="1210" class="body-pink">Pinterest (COMMUNITY)</text>
  <text x="1280" y="1238" class="body">Pin every product photo</text>
  <text x="1280" y="1262" class="body">Create boards: "Kawaii Room Decor",</text>
  <text x="1280" y="1286" class="body">"Anime Collectibles", "Gift Ideas"</text>
  <text x="1280" y="1314" class="body-dim">Rich pins link to store</text>
  <text x="1280" y="1342" class="body-dim">Long-tail SEO traffic (evergreen)</text>
  <text x="1280" y="1370" class="body-dim">10-15 pins/day via scheduler</text>

  <!-- Unboxing formula -->
  <rect x="1860" y="1180" width="580" height="240" class="box-fill"/>
  <text x="1880" y="1210" class="label">UNBOXING VIDEO FORMULA</text>
  <text x="1880" y="1240" class="body">1. Hook (0-3s): "Look what just arrived"</text>
  <text x="1880" y="1266" class="body">2. Reveal (3-10s): Slow open, ASMR sounds</text>
  <text x="1880" y="1292" class="body">3. Reaction (10-15s): Genuine response</text>
  <text x="1880" y="1318" class="body">4. Detail (15-25s): Close-up, features</text>
  <text x="1880" y="1344" class="body">5. CTA (25-30s): "Link in bio" or price</text>
  <text x="1880" y="1378" class="small">Flat lay tips: natural light, pastel background,</text>
  <text x="1880" y="1398" class="small">45-degree angle, props (flowers, stickers)</text>

  <!-- ============================================ -->
  <!-- CONNECTOR 4>5 -->
  <!-- ============================================ -->
  <path d="M 700 1440 C 700 1465, 700 1465, 700 1490" class="connector"/>

  <!-- ============================================ -->
  <!-- SECTION 5: EVENT SELLING -->
  <!-- ============================================ -->
  <circle cx="120" cy="1500" r="18" class="circle-num"/>
  <text x="120" y="1507" text-anchor="middle" class="section-num">5</text>
  <text x="150" y="1507" class="section-header">EVENT SELLING</text>

  <!-- Flea market checklist -->
  <rect x="100" y="1530" width="540" height="320" class="box-fill"/>
  <text x="120" y="1558" class="label">FLEA MARKET / POP-UP CHECKLIST</text>
  <rect x="120" y="1572" width="14" height="14" class="checkbox"/>
  <text x="144" y="1585" class="body">Table cloth (pastel or black)</text>
  <rect x="120" y="1596" width="14" height="14" class="checkbox"/>
  <text x="144" y="1609" class="body">Risers / tiered display shelves</text>
  <rect x="120" y="1620" width="14" height="14" class="checkbox"/>
  <text x="144" y="1633" class="body">Price tags on everything</text>
  <rect x="120" y="1644" width="14" height="14" class="checkbox"/>
  <text x="144" y="1657" class="body">Cash box + change ($50 in small bills)</text>
  <rect x="120" y="1668" width="14" height="14" class="checkbox"/>
  <text x="144" y="1681" class="body">Card reader (Square/SumUp)</text>
  <rect x="120" y="1692" width="14" height="14" class="checkbox"/>
  <text x="144" y="1705" class="body">Business cards with QR code</text>
  <rect x="120" y="1716" width="14" height="14" class="checkbox"/>
  <text x="144" y="1729" class="body">Bags (branded if possible)</text>
  <rect x="120" y="1740" width="14" height="14" class="checkbox"/>
  <text x="144" y="1753" class="body">Banner / signage with brand name</text>
  <rect x="120" y="1764" width="14" height="14" class="checkbox"/>
  <text x="144" y="1777" class="body">Email signup clipboard or tablet</text>
  <rect x="120" y="1788" width="14" height="14" class="checkbox"/>
  <text x="144" y="1801" class="body">Free sticker for email signup</text>
  <rect x="120" y="1812" width="14" height="14" class="checkbox"/>
  <text x="144" y="1825" class="body">Phone charger + backup battery</text>

  <!-- Table display diagram -->
  <rect x="680" y="1530" width="540" height="320" class="box-fill"/>
  <text x="700" y="1558" class="label">TABLE DISPLAY LAYOUT (TOP VIEW)</text>
  <!-- Table outline -->
  <rect x="720" y="1580" width="460" height="200" fill="none" stroke="#555555" stroke-width="1" rx="4"/>
  <!-- Zones -->
  <rect x="730" y="1590" width="140" height="80" fill="#1a0a12" stroke="#FF69B4" stroke-width="0.5" rx="3"/>
  <text x="800" y="1625" text-anchor="middle" class="small-white">HIGH VALUE</text>
  <text x="800" y="1645" text-anchor="middle" class="tiny">Eye level risers</text>

  <rect x="880" y="1590" width="140" height="80" fill="#111111" stroke="#444444" stroke-width="0.5" rx="3"/>
  <text x="950" y="1625" text-anchor="middle" class="small-white">BESTSELLERS</text>
  <text x="950" y="1645" text-anchor="middle" class="tiny">Center front</text>

  <rect x="1030" y="1590" width="140" height="80" fill="#111111" stroke="#444444" stroke-width="0.5" rx="3"/>
  <text x="1100" y="1625" text-anchor="middle" class="small-white">NEW ARRIVALS</text>
  <text x="1100" y="1645" text-anchor="middle" class="tiny">Eye-catching</text>

  <rect x="730" y="1680" width="220" height="60" fill="#111111" stroke="#444444" stroke-width="0.5" rx="3"/>
  <text x="840" y="1710" text-anchor="middle" class="small-white">BUNDLES / GRAB BAGS</text>
  <text x="840" y="1728" text-anchor="middle" class="tiny">$5 - $10 range impulse</text>

  <rect x="960" y="1680" width="210" height="60" fill="#111111" stroke="#444444" stroke-width="0.5" rx="3"/>
  <text x="1065" y="1710" text-anchor="middle" class="small-white">STICKERS / SMALL</text>
  <text x="1065" y="1728" text-anchor="middle" class="tiny">$1 - $3 add-ons</text>

  <text x="700" y="1810" class="small">Front: customer-facing. Risers in back row.</text>
  <text x="700" y="1830" class="small">QR code sign at eye level on left or right edge.</text>

  <!-- Comic Con prep -->
  <rect x="1260" y="1530" width="560" height="320" class="box-fill"/>
  <text x="1280" y="1558" class="label">COMIC CON / CONVENTION PREP</text>
  <rect x="1280" y="1572" width="14" height="14" class="checkbox"/>
  <text x="1304" y="1585" class="body">Apply for vendor table 3-6 months ahead</text>
  <rect x="1280" y="1596" width="14" height="14" class="checkbox"/>
  <text x="1304" y="1609" class="body">Research event demographic + rules</text>
  <rect x="1280" y="1620" width="14" height="14" class="checkbox"/>
  <text x="1304" y="1633" class="body">Stock 3x normal inventory</text>
  <rect x="1280" y="1644" width="14" height="14" class="checkbox"/>
  <text x="1304" y="1657" class="body">Exclusive con-only items or bundles</text>
  <rect x="1280" y="1668" width="14" height="14" class="checkbox"/>
  <text x="1304" y="1681" class="body">Pre-announce on socials 2 weeks out</text>
  <rect x="1280" y="1692" width="14" height="14" class="checkbox"/>
  <text x="1304" y="1705" class="body">Prepare event-only discount codes</text>
  <rect x="1280" y="1716" width="14" height="14" class="checkbox"/>
  <text x="1304" y="1729" class="body">Bring vertical banner + lighting</text>
  <rect x="1280" y="1740" width="14" height="14" class="checkbox"/>
  <text x="1304" y="1753" class="body">Plan cosplay-friendly display</text>

  <!-- QR code flow -->
  <text x="1280" y="1790" class="label">QR CODE EMAIL CAPTURE FLOW</text>
  <text x="1280" y="1815" class="body">QR Code on table sign</text>
  <text x="1510" y="1815" class="body-pink">--></text>
  <text x="1540" y="1815" class="body">Landing page</text>
  <text x="1280" y="1840" class="body-pink">--></text>
  <text x="1310" y="1840" class="body">Email + name form</text>
  <text x="1510" y="1840" class="body-pink">--></text>
  <text x="1540" y="1840" class="body">Free sticker code</text>

  <!-- ============================================ -->
  <!-- CONNECTOR 5>6 -->
  <!-- ============================================ -->
  <path d="M 1275 1870 C 1275 1895, 1275 1895, 1275 1920" class="connector"/>

  <!-- ============================================ -->
  <!-- SECTION 6: ONLINE FUNNEL -->
  <!-- ============================================ -->
  <circle cx="120" cy="1930" r="18" class="circle-num"/>
  <text x="120" y="1937" text-anchor="middle" class="section-num">6</text>
  <text x="150" y="1937" class="section-header">ONLINE FUNNEL</text>

  <!-- Funnel steps as connected boxes -->
  <rect x="100" y="1960" width="220" height="50" class="box-highlight"/>
  <text x="210" y="1992" text-anchor="middle" class="body-bold">TRAFFIC</text>
  <text x="210" y="2020" text-anchor="middle" class="small">TikTok, IG, Pinterest</text>

  <path d="M 320 1985 L 360 1985" stroke="#FF69B4" stroke-width="2" marker-end="none"/>
  <text x="340" y="1978" class="body-pink">></text>

  <rect x="370" y="1960" width="220" height="50" class="box-fill"/>
  <text x="480" y="1992" text-anchor="middle" class="body-bold">FREE STICKER</text>
  <text x="480" y="2020" text-anchor="middle" class="small">Lead magnet offer</text>

  <text x="610" y="1978" class="body-pink">></text>

  <rect x="640" y="1960" width="220" height="50" class="box-fill"/>
  <text x="750" y="1992" text-anchor="middle" class="body-bold">EMAIL CAPTURE</text>
  <text x="750" y="2020" text-anchor="middle" class="small">Name + email form</text>

  <text x="880" y="1978" class="body-pink">></text>

  <rect x="910" y="1960" width="240" height="50" class="box-fill"/>
  <text x="1030" y="1992" text-anchor="middle" class="body-bold">WELCOME SEQ</text>
  <text x="1030" y="2020" text-anchor="middle" class="small">3-email nurture series</text>

  <text x="1170" y="1978" class="body-pink">></text>

  <rect x="1200" y="1960" width="240" height="50" class="box-fill"/>
  <text x="1320" y="1992" text-anchor="middle" class="body-bold">FIRST PURCHASE</text>
  <text x="1320" y="2020" text-anchor="middle" class="small">10% off first order</text>

  <text x="1460" y="1978" class="body-pink">></text>

  <rect x="1490" y="1960" width="220" height="50" class="box-fill"/>
  <text x="1600" y="1992" text-anchor="middle" class="body-bold">UPSELL BUNDLE</text>
  <text x="1600" y="2020" text-anchor="middle" class="small">Post-purchase offer</text>

  <!-- Welcome sequence details -->
  <rect x="100" y="2045" width="750" height="90" class="box-fill"/>
  <text x="120" y="2070" class="label">WELCOME EMAIL SEQUENCE</text>
  <text x="120" y="2095" class="body">Email 1 (Day 0): Welcome + sticker code + brand story</text>
  <text x="120" y="2118" class="body">Email 2 (Day 3): Bestsellers showcase + 10% off code</text>
  <text x="500" y="2070" class="body">Email 3 (Day 7): Social proof + new arrivals</text>

  <!-- Funnel fill-in -->
  <rect x="880" y="2045" width="730" height="90" class="box-fill"/>
  <text x="900" y="2070" class="label">MY FUNNEL METRICS</text>
  <text x="900" y="2095" class="body-dim">Monthly visitors: _______    Email signups: _______</text>
  <text x="900" y="2118" class="body-dim">Conversion rate: _______%    Avg order value: $_______</text>

  <!-- ============================================ -->
  <!-- CONNECTOR 6>7 -->
  <!-- ============================================ -->
  <path d="M 400 2150 C 400 2170, 400 2170, 400 2190" class="connector"/>

  <!-- ============================================ -->
  <!-- SECTION 7: INVENTORY MANAGEMENT -->
  <!-- ============================================ -->
  <circle cx="120" cy="2200" r="18" class="circle-num"/>
  <text x="120" y="2207" text-anchor="middle" class="section-num">7</text>
  <text x="150" y="2207" class="section-header">INVENTORY MANAGEMENT</text>

  <!-- Stock tracking -->
  <rect x="100" y="2230" width="800" height="180" class="box-fill"/>
  <text x="120" y="2258" class="label">STOCK TRACKING TABLE</text>
  <!-- Table header -->
  <rect x="120" y="2270" width="760" height="28" class="table-header" rx="4"/>
  <text x="140" y="2290" class="small-white">Product</text>
  <text x="320" y="2290" class="small-white">In Stock</text>
  <text x="430" y="2290" class="small-white">Reorder At</text>
  <text x="560" y="2290" class="small-white">Reorder Qty</text>
  <text x="700" y="2290" class="small-white">Supplier</text>
  <!-- Empty rows -->
  <line x1="120" y1="2298" x2="880" y2="2298" class="divider"/>
  <text x="140" y="2318" class="body-dim">________________</text>
  <text x="320" y="2318" class="body-dim">______</text>
  <text x="430" y="2318" class="body-dim">______</text>
  <text x="560" y="2318" class="body-dim">______</text>
  <text x="700" y="2318" class="body-dim">____________</text>
  <line x1="120" y1="2328" x2="880" y2="2328" class="divider"/>
  <text x="140" y="2348" class="body-dim">________________</text>
  <text x="320" y="2348" class="body-dim">______</text>
  <text x="430" y="2348" class="body-dim">______</text>
  <text x="560" y="2348" class="body-dim">______</text>
  <text x="700" y="2348" class="body-dim">____________</text>
  <line x1="120" y1="2358" x2="880" y2="2358" class="divider"/>
  <text x="140" y="2378" class="body-dim">________________</text>
  <text x="320" y="2378" class="body-dim">______</text>
  <text x="430" y="2378" class="body-dim">______</text>
  <text x="560" y="2378" class="body-dim">______</text>
  <text x="700" y="2378" class="body-dim">____________</text>

  <!-- Reorder points -->
  <rect x="940" y="2230" width="460" height="180" class="box-fill"/>
  <text x="960" y="2258" class="label">REORDER RULES</text>
  <text x="960" y="2288" class="body">Bestsellers: reorder at 20% stock left</text>
  <text x="960" y="2314" class="body">Standard: reorder at 10 units</text>
  <text x="960" y="2340" class="body">Slow movers: do not reorder, bundle out</text>
  <text x="960" y="2370" class="body-dim">Lead time buffer: order 2-4 weeks early</text>
  <text x="960" y="2396" class="body-dim">Track dead stock monthly, clear at events</text>

  <!-- Seasonal planning -->
  <rect x="1440" y="2230" width="1000" height="180" class="box-fill"/>
  <text x="1460" y="2258" class="label">SEASONAL PLANNING</text>
  <text x="1460" y="2288" class="body-pink">Q1 (Jan-Mar):</text>
  <text x="1620" y="2288" class="body">Valentine's Day, clear holiday stock</text>
  <text x="1460" y="2314" class="body-pink">Q2 (Apr-Jun):</text>
  <text x="1620" y="2314" class="body">Con season begins, summer collections</text>
  <text x="1460" y="2340" class="body-pink">Q3 (Jul-Sep):</text>
  <text x="1620" y="2340" class="body">Back to school, Comic Con peak, restock</text>
  <text x="1460" y="2366" class="body-pink">Q4 (Oct-Dec):</text>
  <text x="1620" y="2366" class="body">Halloween, Black Friday, Christmas (biggest Q)</text>
  <text x="1460" y="2396" class="body-dim">Order Q4 stock by August. No exceptions.</text>

  <!-- ============================================ -->
  <!-- CONNECTOR 7>8 -->
  <!-- ============================================ -->
  <path d="M 1275 2420 C 1275 2445, 1275 2445, 1275 2470" class="connector"/>

  <!-- ============================================ -->
  <!-- SECTION 8: BUNDLES & UPSELLS -->
  <!-- ============================================ -->
  <circle cx="120" cy="2480" r="18" class="circle-num"/>
  <text x="120" y="2487" text-anchor="middle" class="section-num">8</text>
  <text x="150" y="2487" class="section-header">BUNDLES &amp; UPSELLS</text>

  <!-- Mix and match tiers -->
  <rect x="100" y="2510" width="520" height="160" class="box-fill"/>
  <text x="120" y="2538" class="label">MIX-AND-MATCH TIERS</text>
  <text x="120" y="2566" class="body-pink">Tier 1 - Starter:</text>
  <text x="300" y="2566" class="body">Pick any 3 items for $25</text>
  <text x="120" y="2592" class="body-pink">Tier 2 - Collector:</text>
  <text x="300" y="2592" class="body">Pick any 5 items for $40</text>
  <text x="120" y="2618" class="body-pink">Tier 3 - Super Fan:</text>
  <text x="300" y="2618" class="body">Pick any 10 items for $70</text>
  <text x="120" y="2650" class="body-dim">Display tiered pricing on a visible sign at events</text>

  <!-- Gift wrapping upsell -->
  <rect x="660" y="2510" width="460" height="160" class="box-fill"/>
  <text x="680" y="2538" class="label">GIFT WRAPPING UPSELL</text>
  <text x="680" y="2566" class="body">Add kawaii gift wrap: +$3</text>
  <text x="680" y="2592" class="body">Add gift box + ribbon: +$5</text>
  <text x="680" y="2618" class="body">Add handwritten note: +$2</text>
  <text x="680" y="2650" class="body-dim">Cost of materials: $0.50-$1.50 each</text>

  <!-- Mystery box -->
  <rect x="1160" y="2510" width="520" height="160" class="box-highlight"/>
  <text x="1180" y="2538" class="label">MYSTERY BOX CREATION</text>
  <text x="1180" y="2566" class="body">Small ($15): 3-4 items, $25+ retail value</text>
  <text x="1180" y="2592" class="body">Medium ($25): 5-7 items, $45+ retail value</text>
  <text x="1180" y="2618" class="body">Large ($40): 8-12 items, $75+ retail value</text>
  <text x="1180" y="2650" class="body-dim">Use slow movers + 1 guaranteed popular item</text>

  <!-- Revenue tracker -->
  <rect x="1720" y="2510" width="720" height="160" class="box-fill"/>
  <text x="1740" y="2538" class="label">REVENUE TRACKER</text>
  <rect x="1740" y="2552" width="680" height="24" class="table-header" rx="4"/>
  <text x="1760" y="2570" class="small-white">Month</text>
  <text x="1870" y="2570" class="small-white">Events $</text>
  <text x="1990" y="2570" class="small-white">Online $</text>
  <text x="2110" y="2570" class="small-white">Bundles $</text>
  <text x="2240" y="2570" class="small-white">Total</text>
  <line x1="1740" y1="2580" x2="2420" y2="2580" class="divider"/>
  <text x="1760" y="2600" class="body-dim">_______</text>
  <text x="1870" y="2600" class="body-dim">$_______</text>
  <text x="1990" y="2600" class="body-dim">$_______</text>
  <text x="2110" y="2600" class="body-dim">$_______</text>
  <text x="2240" y="2600" class="body-dim">$_______</text>
  <line x1="1740" y1="2612" x2="2420" y2="2612" class="divider"/>
  <text x="1760" y="2632" class="body-dim">_______</text>
  <text x="1870" y="2632" class="body-dim">$_______</text>
  <text x="1990" y="2632" class="body-dim">$_______</text>
  <text x="2110" y="2632" class="body-dim">$_______</text>
  <text x="2240" y="2632" class="body-dim">$_______</text>
  <line x1="1740" y1="2644" x2="2420" y2="2644" class="divider"/>
  <text x="1760" y="2660" class="body-dim">_______</text>
  <text x="1870" y="2660" class="body-dim">$_______</text>
  <text x="1990" y="2660" class="body-dim">$_______</text>
  <text x="2110" y="2660" class="body-dim">$_______</text>
  <text x="2240" y="2660" class="body-dim">$_______</text>

  <!-- ============================================ -->
  <!-- CONNECTOR 8>9 -->
  <!-- ============================================ -->
  <path d="M 1275 2690 C 1275 2710, 1275 2710, 1275 2730" class="connector"/>

  <!-- ============================================ -->
  <!-- SECTION 9: GROWTH PATH -->
  <!-- ============================================ -->
  <circle cx="120" cy="2740" r="18" class="circle-num"/>
  <text x="120" y="2747" text-anchor="middle" class="section-num">9</text>
  <text x="150" y="2747" class="section-header">GROWTH PATH</text>

  <!-- Phase 1 -->
  <rect x="100" y="2770" width="700" height="150" class="box-fill"/>
  <rect x="100" y="2770" width="700" height="30" fill="#FF69B4" opacity="0.12" rx="6"/>
  <text x="120" y="2792" class="body-pink">PHASE 1: $0 - $1,000/mo (Solo Vendor)</text>
  <text x="120" y="2820" class="body">Start with 1-2 local flea markets per month</text>
  <text x="120" y="2844" class="body">Open Etsy or Big Cartel store (low cost)</text>
  <text x="120" y="2868" class="body">Build TikTok to 1,000 followers</text>
  <text x="120" y="2892" class="body">Collect first 100 emails via events</text>
  <text x="120" y="2912" class="body-dim">Timeline: Month 1-3</text>

  <!-- Phase 2 -->
  <rect x="840" y="2770" width="730" height="150" class="box-fill"/>
  <rect x="840" y="2770" width="730" height="30" fill="#FF69B4" opacity="0.12" rx="6"/>
  <text x="860" y="2792" class="body-pink">PHASE 2: $1,000 - $5,000/mo (Online + Events)</text>
  <text x="860" y="2820" class="body">Upgrade to Shopify, custom domain</text>
  <text x="860" y="2844" class="body">Apply to 2-3 conventions per quarter</text>
  <text x="860" y="2868" class="body">Launch email funnel + welcome sequence</text>
  <text x="860" y="2892" class="body">Expand product line, test bundles</text>
  <text x="860" y="2912" class="body-dim">Timeline: Month 4-9</text>

  <!-- Phase 3 -->
  <rect x="1610" y="2770" width="830" height="150" class="box-highlight"/>
  <rect x="1610" y="2770" width="830" height="30" fill="#FF69B4" opacity="0.12" rx="6"/>
  <text x="1630" y="2792" class="body-pink">PHASE 3: $5,000 - $15,000/mo (Wholesale + Dropship)</text>
  <text x="1630" y="2820" class="body">Wholesale accounts with 3-5 brands</text>
  <text x="1630" y="2844" class="body">Dropship integration for low-risk expansion</text>
  <text x="1630" y="2868" class="body">Hire part-time help for packing/events</text>
  <text x="1630" y="2892" class="body">TikTok Shop + IG Shopping fully active</text>
  <text x="1630" y="2912" class="body-dim">Timeline: Month 10-18</text>

  <!-- ============================================ -->
  <!-- CONNECTOR 9>10 -->
  <!-- ============================================ -->
  <path d="M 1275 2940 C 1275 2960, 1275 2960, 1275 2980" class="connector"/>

  <!-- ============================================ -->
  <!-- SECTION 10: TOOLS & APPS -->
  <!-- ============================================ -->
  <circle cx="120" cy="2990" r="18" class="circle-num"/>
  <text x="120" y="2997" text-anchor="middle" class="section-num">10</text>
  <text x="152" y="2997" class="section-header">TOOLS &amp; APPS</text>

  <!-- Tool grid -->
  <!-- Row 1 -->
  <rect x="100" y="3020" width="360" height="70" class="box-fill"/>
  <text x="120" y="3048" class="body-pink">STORE</text>
  <text x="120" y="3072" class="body">Shopify / Etsy / Big Cartel / WooCommerce</text>

  <rect x="490" y="3020" width="360" height="70" class="box-fill"/>
  <text x="510" y="3048" class="body-pink">SOCIAL</text>
  <text x="510" y="3072" class="body">CapCut / Canva / Later / Linktree</text>

  <rect x="880" y="3020" width="360" height="70" class="box-fill"/>
  <text x="900" y="3048" class="body-pink">EMAIL</text>
  <text x="900" y="3072" class="body">Mailchimp / ConvertKit / Beehiiv</text>

  <rect x="1270" y="3020" width="360" height="70" class="box-fill"/>
  <text x="1290" y="3048" class="body-pink">INVENTORY</text>
  <text x="1290" y="3072" class="body">Stocky / Google Sheets / Sortly</text>

  <rect x="1660" y="3020" width="360" height="70" class="box-fill"/>
  <text x="1680" y="3048" class="body-pink">DESIGN</text>
  <text x="1680" y="3072" class="body">Canva / Procreate / Photopea</text>

  <rect x="2050" y="3020" width="390" height="70" class="box-fill"/>
  <text x="2070" y="3048" class="body-pink">SHIPPING</text>
  <text x="2070" y="3072" class="body">Pirate Ship / ShipStation / USPS</text>

  <!-- ============================================ -->
  <!-- BOTTOM DIVIDER -->
  <!-- ============================================ -->
  <line x1="200" y1="3120" x2="2350" y2="3120" class="divider"/>

  <!-- ============================================ -->
  <!-- FILL-IN FIELDS -->
  <!-- ============================================ -->
  <text x="120" y="3155" class="label">MY BUSINESS DETAILS</text>
  <text x="120" y="3185" class="body-dim">Store Name: ________________________________________</text>
  <text x="700" y="3185" class="body-dim">Domain: ________________________________________</text>
  <text x="120" y="3215" class="body-dim">Niche Focus: ________________________________________</text>
  <text x="700" y="3215" class="body-dim">Launch Date: ________________________________________</text>
  <text x="1300" y="3185" class="body-dim">Monthly Revenue Goal: $____________</text>
  <text x="1300" y="3215" class="body-dim">Monthly Expense Budget: $____________</text>

  <!-- ============================================ -->
  <!-- FOOTER -->
  <!-- ============================================ -->
  <line x1="200" y1="3240" x2="2350" y2="3240" class="divider"/>
  <text x="1275" y="3272" text-anchor="middle" class="footer">behike.co x onipuni.com  |  Made for Kawaii Vendors</text>

</svg>