<svg xmlns="http://www.w3.org/2000/svg" viewBox="0 0 2550 3300" width="2550" height="3300">
  <defs>
    <style>
      @import url('https://fonts.googleapis.com/css2?family=Inter:wght@300;400;500;600;700&amp;display=swap');
      text { font-family: 'Helvetica Neue', Helvetica, Arial, sans-serif; }
      .title { font-size: 56px; fill: #ffffff; font-weight: 700; }
      .subtitle { font-size: 28px; fill: #999999; font-weight: 400; }
      .section-header { font-size: 32px; fill: #FF69B4; font-weight: 700; letter-spacing: 2px; }
      .section-num { font-size: 42px; fill: #FF69B4; font-weight: 700; opacity: 0.3; }
      .body { font-size: 18px; fill: #ffffff; font-weight: 400; }
      .body-dim { font-size: 18px; fill: #999999; font-weight: 400; }
      .body-accent { font-size: 18px; fill: #FF69B4; font-weight: 500; }
      .body-bold { font-size: 18px; fill: #ffffff; font-weight: 600; }
      .small { font-size: 15px; fill: #999999; font-weight: 400; }
      .phase-label { font-size: 16px; fill: #FF69B4; font-weight: 600; }
      .phase-range { font-size: 20px; fill: #ffffff; font-weight: 700; }
      .footer { font-size: 18px; fill: #999999; font-weight: 400; letter-spacing: 1px; }
      .checkbox { fill: none; stroke: #FF69B4; stroke-width: 1.5; }
      .checkbox-done { fill: #FF69B4; stroke: #FF69B4; stroke-width: 1.5; opacity: 0.15; }
      .connector { fill: none; stroke: #FF69B4; stroke-width: 1.5; opacity: 0.25; }
      .section-border { fill: none; stroke: #FF69B4; stroke-width: 1; opacity: 0.15; rx: 12; }
      .divider { stroke: #333333; stroke-width: 1; }
      .tag { font-size: 14px; fill: #FF69B4; font-weight: 600; letter-spacing: 1px; }
    </style>
  </defs>

  <!-- Background -->
  <rect width="2550" height="3300" fill="#000000"/>

  <!-- Subtle grid pattern -->
  <pattern id="grid" width="50" height="50" patternUnits="userSpaceOnUse">
    <path d="M 50 0 L 0 0 0 50" fill="none" stroke="#111111" stroke-width="0.5"/>
  </pattern>
  <rect width="2550" height="3300" fill="url(#grid)" opacity="0.5"/>

  <!-- Top accent line -->
  <rect x="120" y="60" width="200" height="3" fill="#FF69B4" rx="1.5"/>

  <!-- Header -->
  <text x="120" y="130" class="title">FACEBOOK MARKETPLACE</text>
  <text x="120" y="190" class="title" fill="#FF69B4">KAWAII VENDOR BLUEPRINT</text>
  <text x="120" y="240" class="subtitle">Strategy guide for blind boxes, plushies, Pokemon TCG, and collectibles</text>
  <text x="120" y="275" class="body-dim">Optimized for Milwaukee local pickup + shipping | Post-eBay recovery plan</text>

  <!-- Top right badge -->
  <rect x="2050" y="80" width="380" height="80" rx="8" fill="none" stroke="#FF69B4" stroke-width="1" opacity="0.4"/>
  <text x="2240" y="115" class="tag" text-anchor="middle">ONIPUNI PLAYBOOK</text>
  <text x="2240" y="142" class="body-dim" text-anchor="middle" font-size="15">behike.co x onipuni.com</text>

  <!-- Divider -->
  <line x1="120" y1="310" x2="2430" y2="310" class="divider"/>

  <!-- ==================== SECTION 1: ACCOUNT SETUP ==================== -->
  <rect x="100" y="340" width="1120" height="520" class="section-border"/>
  <text x="130" y="385" class="section-num">01</text>
  <text x="200" y="385" class="section-header">ACCOUNT SETUP &amp; SAFETY</text>

  <!-- Checkbox items -->
  <rect x="140" y="415" width="14" height="14" class="checkbox" rx="2"/>
  <text x="166" y="428" class="body-bold">Use a Facebook Business Page, NOT personal profile</text>
  <text x="166" y="452" class="body-dim">Separates sales from personal account. If page gets flagged, personal stays safe.</text>

  <rect x="140" y="478" width="14" height="14" class="checkbox" rx="2"/>
  <text x="166" y="491" class="body">Optimize profile for kawaii niche: cover photo with product spread</text>

  <rect x="140" y="508" width="14" height="14" class="checkbox" rx="2"/>
  <text x="166" y="521" class="body">Set business hours + enable instant replies (FB rewards &lt;1hr response)</text>

  <rect x="140" y="538" width="14" height="14" class="checkbox" rx="2"/>
  <text x="166" y="551" class="body">Complete About section with niche keywords</text>

  <!-- Ban prevention callout -->
  <rect x="140" y="580" width="1050" height="120" rx="8" fill="#FF69B4" fill-opacity="0.05" stroke="#FF69B4" stroke-width="1" opacity="0.3"/>
  <text x="160" y="608" class="body-accent">BAN PREVENTION (Critical for eBay refugees)</text>
  <text x="160" y="635" class="body-dim">- Never claim items are "authentic" without proof of purchase</text>
  <text x="160" y="658" class="body-dim">- No prohibited items: no weapons, no replicas, no bootlegs</text>
  <text x="160" y="681" class="body-dim">- Ship on time or mark as local pickup only. Late shipments = strikes</text>

  <rect x="140" y="718" width="14" height="14" class="checkbox" rx="2"/>
  <text x="166" y="731" class="body">Profile photo set</text>
  <rect x="420" y="718" width="14" height="14" class="checkbox" rx="2"/>
  <text x="446" y="731" class="body">Cover photo set</text>
  <rect x="700" y="718" width="14" height="14" class="checkbox" rx="2"/>
  <text x="726" y="731" class="body">About section done</text>
  <rect x="980" y="718" width="14" height="14" class="checkbox" rx="2"/>
  <text x="1006" y="731" class="body">Hours set</text>

  <!-- Bezier connector 1->2 -->
  <path d="M 1220 600 C 1270 600, 1280 600, 1330 600" class="connector"/>
  <circle cx="1330" cy="600" r="3" fill="#FF69B4" opacity="0.25"/>

  <!-- ==================== SECTION 2: LISTING STRATEGY ==================== -->
  <rect x="1330" y="340" width="1120" height="520" class="section-border"/>
  <text x="1360" y="385" class="section-num">02</text>
  <text x="1430" y="385" class="section-header">LISTING STRATEGY FOR KAWAII</text>

  <text x="1370" y="420" class="body-accent">TITLE FORMULA</text>
  <rect x="1370" y="430" width="1050" height="36" rx="6" fill="#ffffff" fill-opacity="0.03"/>
  <text x="1385" y="455" class="body" font-family="monospace" font-size="16">[Brand] + [Character] + [Type] + [Condition] + [Size]</text>
  <text x="1385" y="480" class="small">Ex: "Sonny Angel Hippers Series Blind Box - NEW SEALED - 3 inch"</text>

  <text x="1370" y="515" class="body-accent">PHOTO RULES</text>
  <rect x="1370" y="525" width="14" height="14" class="checkbox" rx="2"/>
  <text x="1396" y="538" class="body">Bright, natural lighting (near window or ring light)</text>
  <rect x="1370" y="555" width="14" height="14" class="checkbox" rx="2"/>
  <text x="1396" y="568" class="body">White or pastel background (brand consistency)</text>
  <rect x="1370" y="585" width="14" height="14" class="checkbox" rx="2"/>
  <text x="1396" y="598" class="body">4+ photos: front, back, detail, size reference</text>
  <rect x="1370" y="615" width="14" height="14" class="checkbox" rx="2"/>
  <text x="1396" y="628" class="body">First photo = hero shot (this is your thumbnail)</text>

  <text x="1370" y="665" class="body-accent">PRICING</text>
  <text x="1370" y="690" class="body">10-20% below retail, above wholesale. Check sold comps on eBay/Mercari.</text>

  <text x="1370" y="725" class="body-accent">POSTING CADENCE</text>
  <text x="1370" y="750" class="body-bold">3-5 new listings daily</text>
  <text x="1630" y="750" class="body-dim">for algorithm boost. Renew every 7 days.</text>

  <text x="1370" y="780" class="body-dim">Categories: Toys &amp; Games, Collectibles, Trading Cards</text>

  <!-- Bezier connector 2->4 (down right) -->
  <path d="M 1890 860 C 1890 900, 1890 920, 1890 960" class="connector"/>
  <circle cx="1890" cy="960" r="3" fill="#FF69B4" opacity="0.25"/>

  <!-- ==================== SECTION 3: LOCAL PICKUP ==================== -->
  <rect x="100" y="890" width="1120" height="480" class="section-border"/>
  <text x="130" y="935" class="section-num">03</text>
  <text x="200" y="935" class="section-header">LOCAL PICKUP ADVANTAGE</text>

  <text x="140" y="975" class="body-bold">Milwaukee is your moat. Most online sellers can't offer this.</text>

  <rect x="140" y="1000" width="14" height="14" class="checkbox" rx="2"/>
  <text x="166" y="1013" class="body">Meet at public locations only: police stations, Mayfair Mall, libraries</text>

  <rect x="140" y="1030" width="14" height="14" class="checkbox" rx="2"/>
  <text x="166" y="1043" class="body">Bundle deals: "Buy 3+ items, I'll meet you anywhere in MKE"</text>

  <rect x="140" y="1060" width="14" height="14" class="checkbox" rx="2"/>
  <text x="166" y="1073" class="body">Cross-promote events: "See my full collection at [next flea market]"</text>

  <rect x="140" y="1090" width="14" height="14" class="checkbox" rx="2"/>
  <text x="166" y="1103" class="body">Hand out business cards with Shopify URL at every pickup</text>

  <rect x="140" y="1120" width="14" height="14" class="checkbox" rx="2"/>
  <text x="166" y="1133" class="body">Offer "first look" to repeat buyers before posting publicly</text>

  <!-- Coverage area concept -->
  <rect x="140" y="1160" width="1050" height="100" rx="8" fill="#ffffff" fill-opacity="0.02" stroke="#333333" stroke-width="1"/>
  <text x="160" y="1190" class="body-accent">COVERAGE ZONES</text>
  <text x="160" y="1215" class="body-dim">Primary: Milwaukee metro (15 min)  |  Secondary: Waukesha, Racine, Kenosha (30 min)</text>
  <text x="160" y="1240" class="body-dim">Events: Madison, Chicago suburbs (special trips, $50+ orders only)</text>

  <!-- Event schedule tie-in -->
  <rect x="140" y="1280" width="14" height="14" class="checkbox" rx="2"/>
  <text x="166" y="1293" class="body">Sync FBMP listings with flea market and comic con schedule</text>

  <rect x="140" y="1310" width="14" height="14" class="checkbox" rx="2"/>
  <text x="166" y="1323" class="body">Post "available at [event name] this weekend" on active listings</text>

  <!-- Bezier connector 1->3 (down) -->
  <path d="M 660 860 C 660 870, 660 880, 660 890" class="connector"/>
  <circle cx="660" cy="890" r="3" fill="#FF69B4" opacity="0.25"/>

  <!-- ==================== SECTION 4: SHIPPING STRATEGY ==================== -->
  <rect x="1330" y="890" width="1120" height="480" class="section-border"/>
  <text x="1360" y="935" class="section-num">04</text>
  <text x="1430" y="935" class="section-header">SHIPPING STRATEGY</text>

  <text x="1370" y="975" class="body-bold">Offer BOTH local pickup AND shipping on every listing.</text>
  <text x="1370" y="1000" class="body-dim">This doubles your buyer pool instantly.</text>

  <rect x="1370" y="1030" width="14" height="14" class="checkbox" rx="2"/>
  <text x="1396" y="1043" class="body">Flat rate shipping: $5.99 (built into listing price)</text>

  <rect x="1370" y="1060" width="14" height="14" class="checkbox" rx="2"/>
  <text x="1396" y="1073" class="body">Use USPS Priority Mail for items under 1 lb (includes tracking)</text>

  <rect x="1370" y="1090" width="14" height="14" class="checkbox" rx="2"/>
  <text x="1396" y="1103" class="body">Poly mailers for plushies, small boxes for blind boxes and figures</text>

  <rect x="1370" y="1120" width="14" height="14" class="checkbox" rx="2"/>
  <text x="1396" y="1133" class="body">Upload tracking number SAME DAY as sale</text>

  <!-- Packaging callout -->
  <rect x="1370" y="1165" width="1050" height="110" rx="8" fill="#FF69B4" fill-opacity="0.05" stroke="#FF69B4" stroke-width="1" opacity="0.3"/>
  <text x="1390" y="1193" class="body-accent">KAWAII UNBOXING EXPERIENCE</text>
  <text x="1390" y="1220" class="body-dim">- Tissue paper wrap (pastel colors match brand)</text>
  <text x="1390" y="1243" class="body-dim">- Thank you card with Shopify URL + socials</text>
  <text x="1390" y="1266" class="body-dim">- Sticker or small freebie (builds repeat buyers)</text>

  <rect x="1370" y="1295" width="14" height="14" class="checkbox" rx="2"/>
  <text x="1396" y="1308" class="body">Ship within 2 business days (faster = better seller rating)</text>

  <rect x="1370" y="1325" width="14" height="14" class="checkbox" rx="2"/>
  <text x="1396" y="1338" class="body">Photo items before shipping (proof against disputes)</text>

  <!-- Bezier connector 3->5 (down) -->
  <path d="M 660 1370 C 660 1390, 660 1410, 660 1430" class="connector"/>
  <circle cx="660" cy="1430" r="3" fill="#FF69B4" opacity="0.25"/>

  <!-- Bezier connector 4->6 (down) -->
  <path d="M 1890 1370 C 1890 1390, 1890 1410, 1890 1430" class="connector"/>
  <circle cx="1890" cy="1430" r="3" fill="#FF69B4" opacity="0.25"/>

  <!-- ==================== SECTION 5: BUNDLE & UPSELL ==================== -->
  <rect x="100" y="1400" width="1120" height="480" class="section-border"/>
  <text x="130" y="1445" class="section-num">05</text>
  <text x="200" y="1445" class="section-header">BUNDLE &amp; UPSELL TACTICS</text>

  <text x="140" y="1485" class="body-accent">MYSTERY BUNDLES (highest margin play)</text>
  <rect x="140" y="1500" width="14" height="14" class="checkbox" rx="2"/>
  <text x="166" y="1513" class="body">"Kawaii Mystery Box - $25" (include items worth $40+)</text>
  <rect x="140" y="1530" width="14" height="14" class="checkbox" rx="2"/>
  <text x="166" y="1543" class="body">"Pokemon TCG Mystery Pack - $15" (bulk commons + 1 holo guaranteed)</text>
  <rect x="140" y="1560" width="14" height="14" class="checkbox" rx="2"/>
  <text x="166" y="1573" class="body">Great for moving slow inventory at a profit</text>

  <text x="140" y="1610" class="body-accent">THEME BUNDLES</text>
  <rect x="140" y="1625" width="14" height="14" class="checkbox" rx="2"/>
  <text x="166" y="1638" class="body">"Rilakkuma Starter Pack" - plush + keychain + sticker set</text>
  <rect x="140" y="1655" width="14" height="14" class="checkbox" rx="2"/>
  <text x="166" y="1668" class="body">"Pokemon TCG Essentials" - binder + sleeves + booster pack</text>

  <text x="140" y="1705" class="body-accent">IMPULSE ADD-ONS ($3-$5 items)</text>
  <rect x="140" y="1720" width="14" height="14" class="checkbox" rx="2"/>
  <text x="166" y="1733" class="body">Stickers, keychains, charms listed separately at $3</text>
  <rect x="140" y="1750" width="14" height="14" class="checkbox" rx="2"/>
  <text x="166" y="1763" class="body">"Add any $3 item free with $25+ purchase"</text>

  <text x="140" y="1800" class="body-accent">VOLUME PRICING</text>
  <text x="140" y="1825" class="body-bold">2 for $20  |  3 for $25  |  5 for $35</text>
  <text x="140" y="1850" class="body-dim">Put this in every listing description. Creates urgency to buy more.</text>

  <!-- ==================== SECTION 6: CONTENT & ENGAGEMENT ==================== -->
  <rect x="1330" y="1400" width="1120" height="480" class="section-border"/>
  <text x="1360" y="1445" class="section-num">06</text>
  <text x="1430" y="1445" class="section-header">CONTENT &amp; ENGAGEMENT</text>

  <text x="1370" y="1485" class="body-accent">FACEBOOK GROUPS (free traffic engine)</text>
  <rect x="1370" y="1500" width="14" height="14" class="checkbox" rx="2"/>
  <text x="1396" y="1513" class="body">Join: Milwaukee Buy/Sell/Trade</text>
  <rect x="1370" y="1530" width="14" height="14" class="checkbox" rx="2"/>
  <text x="1396" y="1543" class="body">Join: Wisconsin Collectibles, WI Anime &amp; Manga</text>
  <rect x="1370" y="1560" width="14" height="14" class="checkbox" rx="2"/>
  <text x="1396" y="1573" class="body">Join: Pokemon TCG Trading (national groups)</text>
  <rect x="1370" y="1590" width="14" height="14" class="checkbox" rx="2"/>
  <text x="1396" y="1603" class="body">Join: Sonny Angel, Blind Box, Kawaii collector groups</text>

  <text x="1370" y="1643" class="body-accent">ENGAGEMENT STRATEGY</text>
  <text x="1370" y="1668" class="body-dim">Don't just sell. Show your collection. Ask questions. Be part of the community.</text>
  <rect x="1370" y="1688" width="14" height="14" class="checkbox" rx="2"/>
  <text x="1396" y="1701" class="body">Post collection photos in groups (not selling, just sharing)</text>
  <rect x="1370" y="1718" width="14" height="14" class="checkbox" rx="2"/>
  <text x="1396" y="1731" class="body">Comment on other people's posts genuinely</text>

  <text x="1370" y="1770" class="body-accent">FB LIVE (algorithm priority)</text>
  <rect x="1370" y="1785" width="14" height="14" class="checkbox" rx="2"/>
  <text x="1396" y="1798" class="body">Go Live during blind box unboxings (weekly)</text>
  <rect x="1370" y="1815" width="14" height="14" class="checkbox" rx="2"/>
  <text x="1396" y="1828" class="body">Share event photos and hauls from flea markets</text>
  <rect x="1370" y="1845" width="14" height="14" class="checkbox" rx="2"/>
  <text x="1396" y="1858" class="body">"Live from [Comic Con]" streams build massive local following</text>

  <!-- Bezier connector 5->7 (down) -->
  <path d="M 660 1880 C 660 1900, 660 1920, 660 1940" class="connector"/>
  <circle cx="660" cy="1940" r="3" fill="#FF69B4" opacity="0.25"/>

  <!-- Bezier connector 6->8 (down) -->
  <path d="M 1890 1880 C 1890 1900, 1890 1920, 1890 1940" class="connector"/>
  <circle cx="1890" cy="1940" r="3" fill="#FF69B4" opacity="0.25"/>

  <!-- Bezier connector 5->6 (horizontal) -->
  <path d="M 1220 1640 C 1270 1640, 1280 1640, 1330 1640" class="connector"/>
  <circle cx="1330" cy="1640" r="3" fill="#FF69B4" opacity="0.25"/>

  <!-- ==================== SECTION 7: SCALING ==================== -->
  <rect x="100" y="1910" width="1120" height="560" class="section-border"/>
  <text x="130" y="1955" class="section-num">07</text>
  <text x="200" y="1955" class="section-header">SCALING: FBMP TO FULL BUSINESS</text>

  <!-- Phase 1 -->
  <rect x="140" y="1985" width="1050" height="130" rx="8" fill="#ffffff" fill-opacity="0.02" stroke="#333333" stroke-width="1"/>
  <text x="160" y="2010" class="phase-label">PHASE 1</text>
  <text x="270" y="2010" class="phase-range">$0 - $500/mo</text>
  <text x="160" y="2038" class="body-dim">Solo operation. Local pickup only. Build reputation and reviews.</text>
  <rect x="160" y="2055" width="14" height="14" class="checkbox" rx="2"/>
  <text x="186" y="2068" class="small">50+ listings live</text>
  <rect x="360" y="2055" width="14" height="14" class="checkbox" rx="2"/>
  <text x="386" y="2068" class="small">4.8+ star rating</text>
  <rect x="560" y="2055" width="14" height="14" class="checkbox" rx="2"/>
  <text x="586" y="2068" class="small">10+ completed sales</text>
  <rect x="810" y="2055" width="14" height="14" class="checkbox" rx="2"/>
  <text x="836" y="2068" class="small">&lt;1hr avg response</text>
  <rect x="160" y="2085" width="14" height="14" class="checkbox" rx="2"/>
  <text x="186" y="2098" class="small">Pricing dialed in from sold data</text>

  <!-- Phase 2 -->
  <rect x="140" y="2130" width="1050" height="130" rx="8" fill="#ffffff" fill-opacity="0.02" stroke="#333333" stroke-width="1"/>
  <text x="160" y="2155" class="phase-label">PHASE 2</text>
  <text x="270" y="2155" class="phase-range">$500 - $2,000/mo</text>
  <text x="160" y="2183" class="body-dim">Add shipping. Active in 5+ buy/sell groups. Weekly FB Lives.</text>
  <rect x="160" y="2200" width="14" height="14" class="checkbox" rx="2"/>
  <text x="186" y="2213" class="small">Shipping enabled</text>
  <rect x="360" y="2200" width="14" height="14" class="checkbox" rx="2"/>
  <text x="386" y="2213" class="small">5+ groups active</text>
  <rect x="560" y="2200" width="14" height="14" class="checkbox" rx="2"/>
  <text x="586" y="2213" class="small">50+ completed sales</text>
  <rect x="810" y="2200" width="14" height="14" class="checkbox" rx="2"/>
  <text x="836" y="2213" class="small">Weekly Lives</text>
  <rect x="160" y="2230" width="14" height="14" class="checkbox" rx="2"/>
  <text x="186" y="2243" class="small">Mystery bundles launched</text>

  <!-- Phase 3 -->
  <rect x="140" y="2275" width="1050" height="130" rx="8" fill="#FF69B4" fill-opacity="0.03" stroke="#FF69B4" stroke-width="1" opacity="0.4"/>
  <text x="160" y="2300" class="phase-label">PHASE 3</text>
  <text x="270" y="2300" class="phase-range">$2,000 - $5,000/mo</text>
  <text x="160" y="2328" class="body-dim">Funnel buyers to Shopify. Wholesale sourcing. Repeat customer base.</text>
  <rect x="160" y="2345" width="14" height="14" class="checkbox" rx="2"/>
  <text x="186" y="2358" class="small">Shopify store live</text>
  <rect x="360" y="2345" width="14" height="14" class="checkbox" rx="2"/>
  <text x="386" y="2358" class="small">Wholesale supplier</text>
  <rect x="560" y="2345" width="14" height="14" class="checkbox" rx="2"/>
  <text x="586" y="2358" class="small">Email/SMS list</text>
  <rect x="810" y="2345" width="14" height="14" class="checkbox" rx="2"/>
  <text x="836" y="2358" class="small">200+ lifetime sales</text>
  <rect x="160" y="2375" width="14" height="14" class="checkbox" rx="2"/>
  <text x="186" y="2388" class="small">FBMP is acquisition channel, Shopify is the store</text>

  <!-- Bezier connector 7->8 (horizontal) -->
  <path d="M 1220 2180 C 1270 2180, 1280 2180, 1330 2180" class="connector"/>
  <circle cx="1330" cy="2180" r="3" fill="#FF69B4" opacity="0.25"/>

  <!-- ==================== SECTION 8: ANALYTICS ==================== -->
  <rect x="1330" y="1910" width="1120" height="560" class="section-border"/>
  <text x="1360" y="1955" class="section-num">08</text>
  <text x="1430" y="1955" class="section-header">ANALYTICS &amp; OPTIMIZATION</text>

  <text x="1370" y="1995" class="body-accent">KEY METRICS TO TRACK</text>
  <rect x="1370" y="2010" width="14" height="14" class="checkbox" rx="2"/>
  <text x="1396" y="2023" class="body">Views per listing (low views = bad title/photo/category)</text>
  <rect x="1370" y="2040" width="14" height="14" class="checkbox" rx="2"/>
  <text x="1396" y="2053" class="body">Message response rate (keep above 90%)</text>
  <rect x="1370" y="2070" width="14" height="14" class="checkbox" rx="2"/>
  <text x="1396" y="2083" class="body">Sell-through rate: items sold / items listed</text>
  <rect x="1370" y="2100" width="14" height="14" class="checkbox" rx="2"/>
  <text x="1396" y="2113" class="body">Average sale price and profit margin per category</text>

  <text x="1370" y="2150" class="body-accent">BEST POSTING TIMES</text>
  <text x="1370" y="2175" class="body">Evenings: 6-9 PM CT (collectors browse after work)</text>
  <text x="1370" y="2200" class="body">Weekends: 10 AM - 2 PM CT (Saturday morning browsing)</text>
  <text x="1370" y="2225" class="body-dim">Kawaii buyers skew female 18-35. Post when they're scrolling.</text>

  <text x="1370" y="2262" class="body-accent">SEASONAL CALENDAR</text>
  <!-- Calendar grid -->
  <rect x="1370" y="2275" width="1050" height="130" rx="6" fill="#ffffff" fill-opacity="0.02" stroke="#333333" stroke-width="1"/>

  <text x="1390" y="2300" class="small">JAN-FEB</text>
  <text x="1390" y="2318" class="body-dim" font-size="14">Post-holiday deals</text>
  <text x="1390" y="2334" class="body-dim" font-size="14">Valentine's bundles</text>

  <text x="1570" y="2300" class="small">MAR-MAY</text>
  <text x="1570" y="2318" class="body-dim" font-size="14">Spring con season</text>
  <text x="1570" y="2334" class="body-dim" font-size="14">New releases push</text>

  <text x="1750" y="2300" class="small">JUN-AUG</text>
  <text x="1750" y="2318" class="body-dim" font-size="14">Summer cons peak</text>
  <text x="1750" y="2334" class="body-dim" font-size="14">Back to school</text>

  <text x="1930" y="2300" class="small">SEP-DEC</text>
  <text x="1930" y="2318" class="body-dim" font-size="14">Holiday season PEAK</text>
  <text x="1930" y="2334" class="body-dim" font-size="14">Gift bundles, bulk</text>

  <!-- Vertical dividers in calendar -->
  <line x1="1555" y1="2285" x2="1555" y2="2395" stroke="#333333" stroke-width="0.5"/>
  <line x1="1735" y1="2285" x2="1735" y2="2395" stroke="#333333" stroke-width="0.5"/>
  <line x1="1915" y1="2285" x2="1915" y2="2395" stroke="#333333" stroke-width="0.5"/>

  <!-- Revenue tracker row labels -->
  <text x="1390" y="2365" class="small">Revenue</text>
  <text x="1390" y="2390" class="small">Target</text>
  <text x="1570" y="2365" class="body-dim" font-size="14">$___</text>
  <text x="1570" y="2390" class="body-dim" font-size="14">$___</text>
  <text x="1750" y="2365" class="body-dim" font-size="14">$___</text>
  <text x="1750" y="2390" class="body-dim" font-size="14">$___</text>
  <text x="1930" y="2365" class="body-dim" font-size="14">$___</text>
  <text x="1930" y="2390" class="body-dim" font-size="14">$___</text>

  <!-- ==================== REVENUE TRACKER TABLE ==================== -->
  <text x="120" y="2530" class="section-header">12-MONTH REVENUE TRACKER</text>

  <!-- Table header -->
  <rect x="100" y="2545" width="2350" height="36" rx="4" fill="#FF69B4" fill-opacity="0.08"/>
  <text x="140" y="2570" class="body-bold" font-size="15">MONTH</text>
  <text x="340" y="2570" class="body-bold" font-size="15">LISTINGS</text>
  <text x="540" y="2570" class="body-bold" font-size="15">VIEWS</text>
  <text x="740" y="2570" class="body-bold" font-size="15">MESSAGES</text>
  <text x="960" y="2570" class="body-bold" font-size="15">SALES</text>
  <text x="1140" y="2570" class="body-bold" font-size="15">REVENUE</text>
  <text x="1340" y="2570" class="body-bold" font-size="15">COGS</text>
  <text x="1540" y="2570" class="body-bold" font-size="15">PROFIT</text>
  <text x="1740" y="2570" class="body-bold" font-size="15">LOCAL</text>
  <text x="1920" y="2570" class="body-bold" font-size="15">SHIPPED</text>
  <text x="2120" y="2570" class="body-bold" font-size="15">NOTES</text>

  <!-- Table rows -->
  <g>
    <line x1="100" y1="2585" x2="2450" y2="2585" stroke="#222222" stroke-width="0.5"/>
    <text x="140" y="2608" class="body-dim" font-size="14">Month 1</text>
    <text x="340" y="2608" class="body-dim" font-size="14">___</text>
    <text x="540" y="2608" class="body-dim" font-size="14">___</text>
    <text x="740" y="2608" class="body-dim" font-size="14">___</text>
    <text x="960" y="2608" class="body-dim" font-size="14">___</text>
    <text x="1140" y="2608" class="body-dim" font-size="14">$___</text>
    <text x="1340" y="2608" class="body-dim" font-size="14">$___</text>
    <text x="1540" y="2608" class="body-dim" font-size="14">$___</text>
    <text x="1740" y="2608" class="body-dim" font-size="14">___</text>
    <text x="1920" y="2608" class="body-dim" font-size="14">___</text>
    <text x="2120" y="2608" class="body-dim" font-size="14">____________</text>

    <line x1="100" y1="2620" x2="2450" y2="2620" stroke="#222222" stroke-width="0.5"/>
    <text x="140" y="2643" class="body-dim" font-size="14">Month 2</text>
    <text x="340" y="2643" class="body-dim" font-size="14">___</text>
    <text x="540" y="2643" class="body-dim" font-size="14">___</text>
    <text x="740" y="2643" class="body-dim" font-size="14">___</text>
    <text x="960" y="2643" class="body-dim" font-size="14">___</text>
    <text x="1140" y="2643" class="body-dim" font-size="14">$___</text>
    <text x="1340" y="2643" class="body-dim" font-size="14">$___</text>
    <text x="1540" y="2643" class="body-dim" font-size="14">$___</text>
    <text x="1740" y="2643" class="body-dim" font-size="14">___</text>
    <text x="1920" y="2643" class="body-dim" font-size="14">___</text>
    <text x="2120" y="2643" class="body-dim" font-size="14">____________</text>

    <line x1="100" y1="2655" x2="2450" y2="2655" stroke="#222222" stroke-width="0.5"/>
    <text x="140" y="2678" class="body-dim" font-size="14">Month 3</text>
    <text x="340" y="2678" class="body-dim" font-size="14">___</text>
    <text x="540" y="2678" class="body-dim" font-size="14">___</text>
    <text x="740" y="2678" class="body-dim" font-size="14">___</text>
    <text x="960" y="2678" class="body-dim" font-size="14">___</text>
    <text x="1140" y="2678" class="body-dim" font-size="14">$___</text>
    <text x="1340" y="2678" class="body-dim" font-size="14">$___</text>
    <text x="1540" y="2678" class="body-dim" font-size="14">$___</text>
    <text x="1740" y="2678" class="body-dim" font-size="14">___</text>
    <text x="1920" y="2678" class="body-dim" font-size="14">___</text>
    <text x="2120" y="2678" class="body-dim" font-size="14">____________</text>

    <line x1="100" y1="2690" x2="2450" y2="2690" stroke="#222222" stroke-width="0.5"/>
    <text x="140" y="2713" class="body-dim" font-size="14">Month 4</text>
    <text x="340" y="2713" class="body-dim" font-size="14">___</text>
    <text x="540" y="2713" class="body-dim" font-size="14">___</text>
    <text x="740" y="2713" class="body-dim" font-size="14">___</text>
    <text x="960" y="2713" class="body-dim" font-size="14">___</text>
    <text x="1140" y="2713" class="body-dim" font-size="14">$___</text>
    <text x="1340" y="2713" class="body-dim" font-size="14">$___</text>
    <text x="1540" y="2713" class="body-dim" font-size="14">$___</text>
    <text x="1740" y="2713" class="body-dim" font-size="14">___</text>
    <text x="1920" y="2713" class="body-dim" font-size="14">___</text>
    <text x="2120" y="2713" class="body-dim" font-size="14">____________</text>

    <line x1="100" y1="2725" x2="2450" y2="2725" stroke="#222222" stroke-width="0.5"/>
    <text x="140" y="2748" class="body-dim" font-size="14">Month 5</text>
    <text x="340" y="2748" class="body-dim" font-size="14">___</text>
    <text x="540" y="2748" class="body-dim" font-size="14">___</text>
    <text x="740" y="2748" class="body-dim" font-size="14">___</text>
    <text x="960" y="2748" class="body-dim" font-size="14">___</text>
    <text x="1140" y="2748" class="body-dim" font-size="14">$___</text>
    <text x="1340" y="2748" class="body-dim" font-size="14">$___</text>
    <text x="1540" y="2748" class="body-dim" font-size="14">$___</text>
    <text x="1740" y="2748" class="body-dim" font-size="14">___</text>
    <text x="1920" y="2748" class="body-dim" font-size="14">___</text>
    <text x="2120" y="2748" class="body-dim" font-size="14">____________</text>

    <line x1="100" y1="2760" x2="2450" y2="2760" stroke="#222222" stroke-width="0.5"/>
    <text x="140" y="2783" class="body-dim" font-size="14">Month 6</text>
    <text x="340" y="2783" class="body-dim" font-size="14">___</text>
    <text x="540" y="2783" class="body-dim" font-size="14">___</text>
    <text x="740" y="2783" class="body-dim" font-size="14">___</text>
    <text x="960" y="2783" class="body-dim" font-size="14">___</text>
    <text x="1140" y="2783" class="body-dim" font-size="14">$___</text>
    <text x="1340" y="2783" class="body-dim" font-size="14">$___</text>
    <text x="1540" y="2783" class="body-dim" font-size="14">$___</text>
    <text x="1740" y="2783" class="body-dim" font-size="14">___</text>
    <text x="1920" y="2783" class="body-dim" font-size="14">___</text>
    <text x="2120" y="2783" class="body-dim" font-size="14">____________</text>

    <line x1="100" y1="2795" x2="2450" y2="2795" stroke="#222222" stroke-width="0.5"/>
    <text x="140" y="2818" class="body-dim" font-size="14">Month 7</text>
    <text x="340" y="2818" class="body-dim" font-size="14">___</text>
    <text x="540" y="2818" class="body-dim" font-size="14">___</text>
    <text x="740" y="2818" class="body-dim" font-size="14">___</text>
    <text x="960" y="2818" class="body-dim" font-size="14">___</text>
    <text x="1140" y="2818" class="body-dim" font-size="14">$___</text>
    <text x="1340" y="2818" class="body-dim" font-size="14">$___</text>
    <text x="1540" y="2818" class="body-dim" font-size="14">$___</text>
    <text x="1740" y="2818" class="body-dim" font-size="14">___</text>
    <text x="1920" y="2818" class="body-dim" font-size="14">___</text>
    <text x="2120" y="2818" class="body-dim" font-size="14">____________</text>

    <line x1="100" y1="2830" x2="2450" y2="2830" stroke="#222222" stroke-width="0.5"/>
    <text x="140" y="2853" class="body-dim" font-size="14">Month 8</text>
    <text x="340" y="2853" class="body-dim" font-size="14">___</text>
    <text x="540" y="2853" class="body-dim" font-size="14">___</text>
    <text x="740" y="2853" class="body-dim" font-size="14">___</text>
    <text x="960" y="2853" class="body-dim" font-size="14">___</text>
    <text x="1140" y="2853" class="body-dim" font-size="14">$___</text>
    <text x="1340" y="2853" class="body-dim" font-size="14">$___</text>
    <text x="1540" y="2853" class="body-dim" font-size="14">$___</text>
    <text x="1740" y="2853" class="body-dim" font-size="14">___</text>
    <text x="1920" y="2853" class="body-dim" font-size="14">___</text>
    <text x="2120" y="2853" class="body-dim" font-size="14">____________</text>

    <line x1="100" y1="2865" x2="2450" y2="2865" stroke="#222222" stroke-width="0.5"/>
    <text x="140" y="2888" class="body-dim" font-size="14">Month 9</text>
    <text x="340" y="2888" class="body-dim" font-size="14">___</text>
    <text x="540" y="2888" class="body-dim" font-size="14">___</text>
    <text x="740" y="2888" class="body-dim" font-size="14">___</text>
    <text x="960" y="2888" class="body-dim" font-size="14">___</text>
    <text x="1140" y="2888" class="body-dim" font-size="14">$___</text>
    <text x="1340" y="2888" class="body-dim" font-size="14">$___</text>
    <text x="1540" y="2888" class="body-dim" font-size="14">$___</text>
    <text x="1740" y="2888" class="body-dim" font-size="14">___</text>
    <text x="1920" y="2888" class="body-dim" font-size="14">___</text>
    <text x="2120" y="2888" class="body-dim" font-size="14">____________</text>

    <line x1="100" y1="2900" x2="2450" y2="2900" stroke="#222222" stroke-width="0.5"/>
    <text x="140" y="2923" class="body-dim" font-size="14">Month 10</text>
    <text x="340" y="2923" class="body-dim" font-size="14">___</text>
    <text x="540" y="2923" class="body-dim" font-size="14">___</text>
    <text x="740" y="2923" class="body-dim" font-size="14">___</text>
    <text x="960" y="2923" class="body-dim" font-size="14">___</text>
    <text x="1140" y="2923" class="body-dim" font-size="14">$___</text>
    <text x="1340" y="2923" class="body-dim" font-size="14">$___</text>
    <text x="1540" y="2923" class="body-dim" font-size="14">$___</text>
    <text x="1740" y="2923" class="body-dim" font-size="14">___</text>
    <text x="1920" y="2923" class="body-dim" font-size="14">___</text>
    <text x="2120" y="2923" class="body-dim" font-size="14">____________</text>

    <line x1="100" y1="2935" x2="2450" y2="2935" stroke="#222222" stroke-width="0.5"/>
    <text x="140" y="2958" class="body-dim" font-size="14">Month 11</text>
    <text x="340" y="2958" class="body-dim" font-size="14">___</text>
    <text x="540" y="2958" class="body-dim" font-size="14">___</text>
    <text x="740" y="2958" class="body-dim" font-size="14">___</text>
    <text x="960" y="2958" class="body-dim" font-size="14">___</text>
    <text x="1140" y="2958" class="body-dim" font-size="14">$___</text>
    <text x="1340" y="2958" class="body-dim" font-size="14">$___</text>
    <text x="1540" y="2958" class="body-dim" font-size="14">$___</text>
    <text x="1740" y="2958" class="body-dim" font-size="14">___</text>
    <text x="1920" y="2958" class="body-dim" font-size="14">___</text>
    <text x="2120" y="2958" class="body-dim" font-size="14">____________</text>

    <line x1="100" y1="2970" x2="2450" y2="2970" stroke="#222222" stroke-width="0.5"/>
    <text x="140" y="2993" class="body-dim" font-size="14">Month 12</text>
    <text x="340" y="2993" class="body-dim" font-size="14">___</text>
    <text x="540" y="2993" class="body-dim" font-size="14">___</text>
    <text x="740" y="2993" class="body-dim" font-size="14">___</text>
    <text x="960" y="2993" class="body-dim" font-size="14">___</text>
    <text x="1140" y="2993" class="body-dim" font-size="14">$___</text>
    <text x="1340" y="2993" class="body-dim" font-size="14">$___</text>
    <text x="1540" y="2993" class="body-dim" font-size="14">$___</text>
    <text x="1740" y="2993" class="body-dim" font-size="14">___</text>
    <text x="1920" y="2993" class="body-dim" font-size="14">___</text>
    <text x="2120" y="2993" class="body-dim" font-size="14">____________</text>
  </g>

  <!-- Bottom totals row -->
  <rect x="100" y="3010" width="2350" height="36" rx="4" fill="#FF69B4" fill-opacity="0.08"/>
  <text x="140" y="3035" class="body-bold" font-size="15">TOTAL</text>
  <text x="960" y="3035" class="body-bold" font-size="15">___</text>
  <text x="1140" y="3035" class="body-bold" font-size="15">$___</text>
  <text x="1340" y="3035" class="body-bold" font-size="15">$___</text>
  <text x="1540" y="3035" class="body-bold" font-size="15">$___</text>

  <!-- Quick reference row -->
  <text x="120" y="3100" class="body-accent">DAILY CHECKLIST:</text>
  <rect x="400" y="3086" width="14" height="14" class="checkbox" rx="2"/>
  <text x="426" y="3100" class="body-dim">3-5 new listings</text>
  <rect x="640" y="3086" width="14" height="14" class="checkbox" rx="2"/>
  <text x="666" y="3100" class="body-dim">Reply to all messages</text>
  <rect x="940" y="3086" width="14" height="14" class="checkbox" rx="2"/>
  <text x="966" y="3100" class="body-dim">Renew old listings</text>
  <rect x="1220" y="3086" width="14" height="14" class="checkbox" rx="2"/>
  <text x="1246" y="3100" class="body-dim">Engage in 2+ groups</text>
  <rect x="1520" y="3086" width="14" height="14" class="checkbox" rx="2"/>
  <text x="1546" y="3100" class="body-dim">Ship sold items</text>
  <rect x="1770" y="3086" width="14" height="14" class="checkbox" rx="2"/>
  <text x="1796" y="3100" class="body-dim">Check analytics</text>

  <!-- Footer divider -->
  <line x1="120" y1="3140" x2="2430" y2="3140" class="divider"/>

  <!-- Footer -->
  <text x="1275" y="3180" class="footer" text-anchor="middle">behike.co x onipuni.com  |  Facebook Marketplace for Kawaii Vendors</text>
  <text x="1275" y="3210" class="small" text-anchor="middle">Built for Randy. Milwaukee, WI. Local pickup + shipping strategy.</text>

  <!-- Bottom accent line -->
  <rect x="1175" y="3240" width="200" height="3" fill="#FF69B4" rx="1.5"/>
</svg>