<?xml version="1.0" encoding="UTF-8"?>
<svg xmlns="http://www.w3.org/2000/svg" viewBox="0 0 2550 3300" width="2550" height="3300">
  <defs>
    <style>
      text { font-family: 'Helvetica Neue', Helvetica, Arial, sans-serif; fill: #ffffff; }
      .title { font-size: 56px; font-weight: 700; letter-spacing: 3px; }
      .subtitle { font-size: 24px; fill: #999999; letter-spacing: 2px; font-weight: 300; }
      .section-title { font-size: 32px; font-weight: 700; fill: #007AFF; letter-spacing: 1px; }
      .section-num { font-size: 28px; font-weight: 300; fill: #007AFF; letter-spacing: 2px; }
      .body { font-size: 18px; fill: #999999; }
      .body-white { font-size: 18px; fill: #ffffff; }
      .body-bold { font-size: 18px; fill: #ffffff; font-weight: 600; }
      .small { font-size: 15px; fill: #999999; }
      .small-white { font-size: 15px; fill: #ffffff; }
      .checkbox { font-size: 16px; fill: #999999; }
      .metric-value { font-size: 36px; font-weight: 700; fill: #ffffff; }
      .metric-label { font-size: 14px; fill: #999999; letter-spacing: 1px; text-transform: uppercase; }
      .hub-label { font-size: 20px; font-weight: 600; fill: #ffffff; }
      .tier-title { font-size: 22px; font-weight: 700; fill: #007AFF; }
      .price { font-size: 28px; font-weight: 700; fill: #ffffff; }
      .footer { font-size: 16px; fill: #999999; letter-spacing: 3px; }
    </style>
  </defs>

  <rect width="2550" height="3300" fill="#000000"/>
  <rect x="40" y="40" width="2470" height="3220" fill="none" stroke="#333333" stroke-width="1"/>

  <!-- Header -->
  <text x="1275" y="130" text-anchor="middle" class="title">SOCIAL MEDIA MANAGER</text>
  <text x="1275" y="185" text-anchor="middle" class="title">BLUEPRINT</text>
  <line x1="400" y1="210" x2="2150" y2="210" stroke="#007AFF" stroke-width="2"/>
  <text x="1275" y="250" text-anchor="middle" class="subtitle">BUILD A PROFITABLE SOCIAL MEDIA MANAGEMENT BUSINESS</text>

  <!-- SECTION 1: SERVICE PACKAGES -->
  <text x="100" y="330" class="section-num">01</text>
  <text x="160" y="330" class="section-title">SERVICE PACKAGES</text>
  <line x1="100" y1="345" x2="2450" y2="345" stroke="#007AFF" stroke-width="1"/>

  <!-- Basic Package -->
  <rect x="100" y="370" width="700" height="300" rx="6" fill="none" stroke="#ffffff" stroke-width="1"/>
  <text x="450" y="410" text-anchor="middle" class="tier-title">BASIC</text>
  <text x="450" y="450" text-anchor="middle" class="price">$500/mo</text>
  <line x1="130" y1="465" x2="770" y2="465" stroke="#333333" stroke-width="0.5"/>
  <text x="150" y="498" class="small">3 platforms managed</text>
  <text x="150" y="523" class="small">12 posts per month (3/week)</text>
  <text x="150" y="548" class="small">Basic graphics (Canva)</text>
  <text x="150" y="573" class="small">Monthly analytics report</text>
  <text x="150" y="598" class="small">Community management (weekdays)</text>
  <text x="150" y="623" class="small">Content calendar</text>
  <rect x="150" y="635" width="200" height="25" rx="4" fill="#007AFF" opacity="0.15"/>
  <text x="250" y="653" text-anchor="middle" class="small-white">SOLO / STARTUP</text>

  <!-- Pro Package -->
  <rect x="830" y="370" width="700" height="300" rx="6" fill="none" stroke="#007AFF" stroke-width="2"/>
  <text x="1180" y="410" text-anchor="middle" class="tier-title">PROFESSIONAL</text>
  <text x="1180" y="450" text-anchor="middle" class="price">$1,500/mo</text>
  <line x1="860" y1="465" x2="1500" y2="465" stroke="#333333" stroke-width="0.5"/>
  <text x="880" y="498" class="small">5 platforms managed</text>
  <text x="880" y="523" class="small">20 posts per month (5/week)</text>
  <text x="880" y="548" class="small">Custom graphics + short-form video</text>
  <text x="880" y="573" class="small">Weekly analytics + strategy calls</text>
  <text x="880" y="598" class="small">Community management (7 days)</text>
  <text x="880" y="623" class="small">Paid ad management (up to $1K/mo)</text>
  <rect x="880" y="635" width="200" height="25" rx="4" fill="#007AFF" opacity="0.3"/>
  <text x="980" y="653" text-anchor="middle" class="small-white">MOST POPULAR</text>

  <!-- Premium Package -->
  <rect x="1560" y="370" width="890" height="300" rx="6" fill="none" stroke="#ffffff" stroke-width="1"/>
  <text x="2005" y="410" text-anchor="middle" class="tier-title">PREMIUM</text>
  <text x="2005" y="450" text-anchor="middle" class="price">$3,000+/mo</text>
  <line x1="1590" y1="465" x2="2420" y2="465" stroke="#333333" stroke-width="0.5"/>
  <text x="1610" y="498" class="small">All platforms + emerging</text>
  <text x="1610" y="523" class="small">Daily posting + Stories/Reels</text>
  <text x="1610" y="548" class="small">Professional video production</text>
  <text x="1610" y="573" class="small">Influencer outreach management</text>
  <text x="1610" y="598" class="small">Full paid ad management</text>
  <text x="1610" y="623" class="small">Brand strategy + competitor analysis</text>
  <rect x="1610" y="635" width="200" height="25" rx="4" fill="#007AFF" opacity="0.15"/>
  <text x="1710" y="653" text-anchor="middle" class="small-white">ENTERPRISE</text>

  <!-- SECTION 2: CLIENT ONBOARDING -->
  <text x="100" y="740" class="section-num">02</text>
  <text x="160" y="740" class="section-title">CLIENT ONBOARDING</text>
  <line x1="100" y1="755" x2="2450" y2="755" stroke="#007AFF" stroke-width="1"/>

  <rect x="100" y="790" width="300" height="80" rx="4" fill="none" stroke="#007AFF" stroke-width="1.5"/>
  <text x="250" y="825" text-anchor="middle" class="body-bold">Discovery Call</text>
  <text x="250" y="850" text-anchor="middle" class="small">Goals + audience</text>

  <line x1="400" y1="830" x2="460" y2="830" stroke="#333333" stroke-width="1"/>
  <polygon points="455,826 455,834 463,830" fill="#333333"/>

  <rect x="465" y="790" width="300" height="80" rx="4" fill="none" stroke="#ffffff" stroke-width="1"/>
  <text x="615" y="825" text-anchor="middle" class="body-bold">Brand Audit</text>
  <text x="615" y="850" text-anchor="middle" class="small">Current presence review</text>

  <line x1="765" y1="830" x2="825" y2="830" stroke="#333333" stroke-width="1"/>
  <polygon points="820,826 820,834 828,830" fill="#333333"/>

  <rect x="830" y="790" width="300" height="80" rx="4" fill="none" stroke="#ffffff" stroke-width="1"/>
  <text x="980" y="825" text-anchor="middle" class="body-bold">Strategy Doc</text>
  <text x="980" y="850" text-anchor="middle" class="small">Content pillars + voice</text>

  <line x1="1130" y1="830" x2="1190" y2="830" stroke="#333333" stroke-width="1"/>
  <polygon points="1185,826 1185,834 1193,830" fill="#333333"/>

  <rect x="1195" y="790" width="300" height="80" rx="4" fill="none" stroke="#ffffff" stroke-width="1"/>
  <text x="1345" y="825" text-anchor="middle" class="body-bold">Asset Collection</text>
  <text x="1345" y="850" text-anchor="middle" class="small">Photos, logos, access</text>

  <line x1="1495" y1="830" x2="1555" y2="830" stroke="#333333" stroke-width="1"/>
  <polygon points="1550,826 1550,834 1558,830" fill="#333333"/>

  <rect x="1560" y="790" width="300" height="80" rx="4" fill="none" stroke="#ffffff" stroke-width="1"/>
  <text x="1710" y="825" text-anchor="middle" class="body-bold">Content Approval</text>
  <text x="1710" y="850" text-anchor="middle" class="small">Review workflow</text>

  <line x1="1860" y1="830" x2="1920" y2="830" stroke="#333333" stroke-width="1"/>
  <polygon points="1915,826 1915,834 1923,830" fill="#333333"/>

  <rect x="1925" y="790" width="300" height="80" rx="4" fill="none" stroke="#007AFF" stroke-width="1.5"/>
  <text x="2075" y="825" text-anchor="middle" class="body-bold">Launch</text>
  <text x="2075" y="850" text-anchor="middle" class="small">First week of content</text>

  <!-- SECTION 3: CONTENT CALENDAR -->
  <text x="100" y="940" class="section-num">03</text>
  <text x="160" y="940" class="section-title">CONTENT CALENDAR SYSTEM</text>
  <line x1="100" y1="955" x2="1200" y2="955" stroke="#007AFF" stroke-width="1"/>

  <!-- Weekly grid -->
  <rect x="100" y="980" width="1100" height="40" rx="0" fill="#111111"/>
  <text x="180" y="1006" text-anchor="middle" class="body-bold">MON</text>
  <text x="340" y="1006" text-anchor="middle" class="body-bold">TUE</text>
  <text x="500" y="1006" text-anchor="middle" class="body-bold">WED</text>
  <text x="660" y="1006" text-anchor="middle" class="body-bold">THU</text>
  <text x="820" y="1006" text-anchor="middle" class="body-bold">FRI</text>
  <text x="980" y="1006" text-anchor="middle" class="body-bold">SAT</text>
  <text x="1140" y="1006" text-anchor="middle" class="body-bold">SUN</text>

  <rect x="110" y="1030" width="140" height="70" rx="3" fill="none" stroke="#333333" stroke-width="0.5"/>
  <text x="180" y="1060" text-anchor="middle" class="small">Educational</text>
  <text x="180" y="1080" text-anchor="middle" class="small">carousel</text>

  <rect x="270" y="1030" width="140" height="70" rx="3" fill="none" stroke="#333333" stroke-width="0.5"/>
  <text x="340" y="1060" text-anchor="middle" class="small">Behind the</text>
  <text x="340" y="1080" text-anchor="middle" class="small">scenes</text>

  <rect x="430" y="1030" width="140" height="70" rx="3" fill="none" stroke="#333333" stroke-width="0.5"/>
  <text x="500" y="1060" text-anchor="middle" class="small">Short-form</text>
  <text x="500" y="1080" text-anchor="middle" class="small">video/Reel</text>

  <rect x="590" y="1030" width="140" height="70" rx="3" fill="none" stroke="#333333" stroke-width="0.5"/>
  <text x="660" y="1060" text-anchor="middle" class="small">Testimonial /</text>
  <text x="660" y="1080" text-anchor="middle" class="small">social proof</text>

  <rect x="750" y="1030" width="140" height="70" rx="3" fill="none" stroke="#333333" stroke-width="0.5"/>
  <text x="820" y="1060" text-anchor="middle" class="small">Trending /</text>
  <text x="820" y="1080" text-anchor="middle" class="small">engagement</text>

  <rect x="910" y="1030" width="140" height="70" rx="3" fill="none" stroke="#333333" stroke-width="0.5"/>
  <text x="980" y="1060" text-anchor="middle" class="small">Personal /</text>
  <text x="980" y="1080" text-anchor="middle" class="small">lifestyle</text>

  <rect x="1070" y="1030" width="140" height="70" rx="3" fill="none" stroke="#333333" stroke-width="0.5"/>
  <text x="1140" y="1060" text-anchor="middle" class="small">Week recap /</text>
  <text x="1140" y="1080" text-anchor="middle" class="small">batch prep</text>

  <!-- SECTION 4: ANALYTICS -->
  <text x="1350" y="940" class="section-num">04</text>
  <text x="1410" y="940" class="section-title">ANALYTICS DASHBOARD</text>
  <line x1="1350" y1="955" x2="2450" y2="955" stroke="#007AFF" stroke-width="1"/>

  <rect x="1350" y="980" width="340" height="100" rx="4" fill="#111111"/>
  <text x="1520" y="1030" text-anchor="middle" class="metric-value">____</text>
  <text x="1520" y="1060" text-anchor="middle" class="metric-label">FOLLOWERS GAINED</text>

  <rect x="1720" y="980" width="340" height="100" rx="4" fill="#111111"/>
  <text x="1890" y="1030" text-anchor="middle" class="metric-value">____%</text>
  <text x="1890" y="1060" text-anchor="middle" class="metric-label">ENGAGEMENT RATE</text>

  <rect x="2090" y="980" width="340" height="100" rx="4" fill="#111111"/>
  <text x="2260" y="1030" text-anchor="middle" class="metric-value">____</text>
  <text x="2260" y="1060" text-anchor="middle" class="metric-label">REACH / IMPRESSIONS</text>

  <!-- Progress bars -->
  <text x="1350" y="1140" class="small">Instagram</text>
  <rect x="1500" y="1128" width="700" height="14" rx="7" fill="#222222"/>
  <rect x="1500" y="1128" width="0" height="14" rx="7" fill="#007AFF"/>
  <text x="2220" y="1141" class="small-white">____ followers</text>

  <text x="1350" y="1175" class="small">TikTok</text>
  <rect x="1500" y="1163" width="700" height="14" rx="7" fill="#222222"/>
  <rect x="1500" y="1163" width="0" height="14" rx="7" fill="#007AFF"/>
  <text x="2220" y="1176" class="small-white">____ followers</text>

  <text x="1350" y="1210" class="small">LinkedIn</text>
  <rect x="1500" y="1198" width="700" height="14" rx="7" fill="#222222"/>
  <rect x="1500" y="1198" width="0" height="14" rx="7" fill="#007AFF"/>
  <text x="2220" y="1211" class="small-white">____ followers</text>

  <text x="1350" y="1245" class="small">YouTube</text>
  <rect x="1500" y="1233" width="700" height="14" rx="7" fill="#222222"/>
  <rect x="1500" y="1233" width="0" height="14" rx="7" fill="#007AFF"/>
  <text x="2220" y="1246" class="small-white">____ subscribers</text>

  <!-- SECTION 5: TOOLS -->
  <text x="100" y="1180" class="section-num">05</text>
  <text x="160" y="1180" class="section-title">TOOL STACK</text>
  <line x1="100" y1="1195" x2="1200" y2="1195" stroke="#007AFF" stroke-width="1"/>

  <rect x="100" y="1220" width="350" height="50" rx="4" fill="#111111"/>
  <text x="275" y="1252" text-anchor="middle" class="body-bold">Canva Pro</text>

  <rect x="480" y="1220" width="350" height="50" rx="4" fill="#111111"/>
  <text x="655" y="1252" text-anchor="middle" class="body-bold">Later / Buffer</text>

  <rect x="860" y="1220" width="350" height="50" rx="4" fill="#111111"/>
  <text x="1035" y="1252" text-anchor="middle" class="body-bold">CapCut</text>

  <rect x="100" y="1290" width="350" height="50" rx="4" fill="#111111"/>
  <text x="275" y="1322" text-anchor="middle" class="body-bold">ChatGPT / Claude</text>

  <rect x="480" y="1290" width="350" height="50" rx="4" fill="#111111"/>
  <text x="655" y="1322" text-anchor="middle" class="body-bold">Notion</text>

  <rect x="860" y="1290" width="350" height="50" rx="4" fill="#111111"/>
  <text x="1035" y="1322" text-anchor="middle" class="body-bold">Google Analytics</text>

  <!-- SECTION 6: PRICING STRATEGY -->
  <text x="100" y="1420" class="section-num">06</text>
  <text x="160" y="1420" class="section-title">PRICING STRATEGY</text>
  <line x1="100" y1="1435" x2="1200" y2="1435" stroke="#007AFF" stroke-width="1"/>

  <rect x="100" y="1460" width="16" height="16" rx="2" fill="none" stroke="#999999" stroke-width="1"/>
  <text x="130" y="1474" class="checkbox">Price based on value, not hours</text>
  <rect x="100" y="1490" width="16" height="16" rx="2" fill="none" stroke="#999999" stroke-width="1"/>
  <text x="130" y="1504" class="checkbox">Offer 3 tiers (anchor effect)</text>
  <rect x="100" y="1520" width="16" height="16" rx="2" fill="none" stroke="#999999" stroke-width="1"/>
  <text x="130" y="1534" class="checkbox">Annual contract = 2 months free</text>
  <rect x="100" y="1550" width="16" height="16" rx="2" fill="none" stroke="#999999" stroke-width="1"/>
  <text x="130" y="1564" class="checkbox">Add-ons: ad management, video, influencer</text>
  <rect x="100" y="1580" width="16" height="16" rx="2" fill="none" stroke="#999999" stroke-width="1"/>
  <text x="130" y="1594" class="checkbox">Raise prices 10% every 6 months</text>
  <rect x="100" y="1610" width="16" height="16" rx="2" fill="none" stroke="#999999" stroke-width="1"/>
  <text x="130" y="1624" class="checkbox">Never compete on price, compete on results</text>

  <!-- SECTION 7: GROWTH -->
  <text x="1350" y="1420" class="section-num">07</text>
  <text x="1410" y="1420" class="section-title">GROWTH STRATEGY</text>
  <line x1="1350" y1="1435" x2="2450" y2="1435" stroke="#007AFF" stroke-width="1"/>

  <!-- Growth phases timeline -->
  <line x1="1500" y1="1470" x2="1500" y2="1820" stroke="#333333" stroke-width="2"/>

  <circle cx="1500" cy="1490" r="8" fill="#007AFF"/>
  <text x="1530" y="1485" class="body-bold">Phase 1: First 3 Clients</text>
  <text x="1530" y="1510" class="small">Free work or discounted. Build portfolio.</text>

  <circle cx="1500" cy="1560" r="8" fill="#007AFF"/>
  <text x="1530" y="1555" class="body-bold">Phase 2: Referral Engine</text>
  <text x="1530" y="1580" class="small">Case studies. Ask for referrals.</text>

  <circle cx="1500" cy="1630" r="8" fill="#007AFF"/>
  <text x="1530" y="1625" class="body-bold">Phase 3: Content Marketing</text>
  <text x="1530" y="1650" class="small">Your own social proof. Practice what you preach.</text>

  <circle cx="1500" cy="1700" r="8" fill="#007AFF"/>
  <text x="1530" y="1695" class="body-bold">Phase 4: Hire + Scale</text>
  <text x="1530" y="1720" class="small">VA for scheduling. Junior manager.</text>

  <circle cx="1500" cy="1770" r="8" fill="#007AFF"/>
  <text x="1530" y="1765" class="body-bold">Phase 5: Agency</text>
  <text x="1530" y="1790" class="small">Productized service. SOPs. 10+ clients.</text>

  <!-- Revenue Tracker -->
  <text x="100" y="1730" class="section-num">REVENUE TRACKER</text>
  <line x1="100" y1="1745" x2="1200" y2="1745" stroke="#007AFF" stroke-width="1"/>

  <rect x="100" y="1770" width="340" height="100" rx="4" fill="#111111"/>
  <text x="270" y="1820" text-anchor="middle" class="metric-value">$____</text>
  <text x="270" y="1850" text-anchor="middle" class="metric-label">MONTHLY REVENUE</text>

  <rect x="470" y="1770" width="340" height="100" rx="4" fill="#111111"/>
  <text x="640" y="1820" text-anchor="middle" class="metric-value">____</text>
  <text x="640" y="1850" text-anchor="middle" class="metric-label">ACTIVE CLIENTS</text>

  <rect x="840" y="1770" width="340" height="100" rx="4" fill="#111111"/>
  <text x="1010" y="1820" text-anchor="middle" class="metric-value">$____</text>
  <text x="1010" y="1850" text-anchor="middle" class="metric-label">AVG CLIENT VALUE</text>

  <!-- Monthly tracker -->
  <rect x="100" y="1910" width="2350" height="40" rx="0" fill="#111111"/>
  <text x="250" y="1936" text-anchor="middle" class="body-bold">MONTH</text>
  <text x="550" y="1936" text-anchor="middle" class="body-bold">CLIENTS</text>
  <text x="850" y="1936" text-anchor="middle" class="body-bold">REVENUE</text>
  <text x="1150" y="1936" text-anchor="middle" class="body-bold">EXPENSES</text>
  <text x="1450" y="1936" text-anchor="middle" class="body-bold">PROFIT</text>
  <text x="1750" y="1936" text-anchor="middle" class="body-bold">CHURN</text>
  <text x="2100" y="1936" text-anchor="middle" class="body-bold">NOTES</text>

  <line x1="100" y1="1950" x2="2450" y2="1950" stroke="#333333" stroke-width="0.5"/>
  <text x="250" y="1978" text-anchor="middle" class="body">Month 1</text>
  <text x="550" y="1978" text-anchor="middle" class="body">____</text>
  <text x="850" y="1978" text-anchor="middle" class="body">$____</text>
  <text x="1150" y="1978" text-anchor="middle" class="body">$____</text>
  <text x="1450" y="1978" text-anchor="middle" class="body">$____</text>
  <text x="1750" y="1978" text-anchor="middle" class="body">____</text>

  <line x1="100" y1="1995" x2="2450" y2="1995" stroke="#222222" stroke-width="0.5"/>
  <text x="250" y="2023" text-anchor="middle" class="body">Month 2</text>
  <text x="550" y="2023" text-anchor="middle" class="body">____</text>
  <text x="850" y="2023" text-anchor="middle" class="body">$____</text>
  <text x="1150" y="2023" text-anchor="middle" class="body">$____</text>
  <text x="1450" y="2023" text-anchor="middle" class="body">$____</text>
  <text x="1750" y="2023" text-anchor="middle" class="body">____</text>

  <line x1="100" y1="2040" x2="2450" y2="2040" stroke="#222222" stroke-width="0.5"/>
  <text x="250" y="2068" text-anchor="middle" class="body">Month 3</text>
  <text x="550" y="2068" text-anchor="middle" class="body">____</text>
  <text x="850" y="2068" text-anchor="middle" class="body">$____</text>
  <text x="1150" y="2068" text-anchor="middle" class="body">$____</text>
  <text x="1450" y="2068" text-anchor="middle" class="body">$____</text>
  <text x="1750" y="2068" text-anchor="middle" class="body">____</text>

  <!-- Footer -->
  <line x1="100" y1="3200" x2="2450" y2="3200" stroke="#333333" stroke-width="0.5"/>
  <text x="1275" y="3240" text-anchor="middle" class="footer">behike.co</text>
</svg>