<?xml version="1.0" encoding="UTF-8"?>
<svg xmlns="http://www.w3.org/2000/svg" viewBox="0 0 2550 3300" width="2550" height="3300">
  <defs>
    <style>
      text { font-family: 'Helvetica Neue', Helvetica, Arial, sans-serif; fill: #fff; }
      .title { font-size: 56px; font-weight: bold; letter-spacing: 6px; }
      .subtitle { font-size: 24px; fill: #999; letter-spacing: 3px; }
      .section-title { font-size: 32px; font-weight: bold; letter-spacing: 2px; fill: #007AFF; }
      .body { font-size: 18px; fill: #999; }
      .body-white { font-size: 18px; fill: #fff; }
      .small { font-size: 15px; fill: #999; }
      .checkbox { font-size: 17px; fill: #999; }
      .table-head { font-size: 16px; font-weight: bold; fill: #fff; }
      .table-cell { font-size: 15px; fill: #999; }
      .hub-label { font-size: 28px; font-weight: bold; letter-spacing: 3px; }
      .price { font-size: 18px; fill: #999; letter-spacing: 2px; }
      .ladder-label { font-size: 17px; font-weight: bold; }
      .accent { font-size: 22px; font-weight: bold; fill: #007AFF; }
      .funnel-text { font-size: 16px; fill: #fff; }
    </style>
  </defs>

  <!-- Background -->
  <rect width="2550" height="3300" fill="#000"/>

  <!-- Border -->
  <rect x="40" y="40" width="2470" height="3220" fill="none" stroke="#333" stroke-width="1"/>
  <rect x="45" y="45" width="2460" height="3210" fill="none" stroke="#222" stroke-width="0.5"/>

  <!-- Header -->
  <text x="1275" y="120" text-anchor="middle" class="title">BLUEPRINT DE CREADOR DE CONTENIDO</text>
  <line x1="200" y1="145" x2="2350" y2="145" stroke="#007AFF" stroke-width="2"/>
  <text x="1275" y="185" text-anchor="middle" class="subtitle">CONSTRUYE TU AUDIENCIA. MONETIZA TU CONOCIMIENTO. CONTROLA TUS INGRESOS.</text>

  <!-- ============================================ -->
  <!-- Central Hub: TU MARCA -->
  <!-- ============================================ -->

  <circle cx="1275" cy="520" r="110" fill="none" stroke="#007AFF" stroke-width="2"/>
  <circle cx="1275" cy="520" r="104" fill="none" stroke="#333" stroke-width="0.5"/>
  <text x="1275" y="510" text-anchor="middle" class="hub-label">TU</text>
  <text x="1275" y="542" text-anchor="middle" class="hub-label">MARCA</text>
  <text x="1275" y="572" text-anchor="middle" class="small">( centro )</text>

  <!-- ============================================ -->
  <!-- SECTION 1: Selecci&#243;n de Nicho (top-left) -->
  <!-- ============================================ -->

  <path d="M 1170,440 C 950,350 700,290 530,260" fill="none" stroke="#999" stroke-width="1" stroke-dasharray="5,5"/>
  <circle cx="530" cy="260" r="4" fill="#007AFF"/>

  <rect x="80" y="220" width="600" height="340" rx="4" fill="none" stroke="#fff" stroke-width="1"/>
  <text x="380" y="265" text-anchor="middle" class="section-title">01 / SELECCI&#211;N DE NICHO</text>
  <line x1="110" y1="282" x2="650" y2="282" stroke="#333" stroke-width="0.5"/>

  <text x="110" y="318" class="body">Nicho Principal:</text>
  <rect x="310" y="301" width="330" height="24" rx="3" fill="none" stroke="#333" stroke-width="0.5"/>

  <text x="110" y="358" class="body">Sub-Nicho:</text>
  <rect x="270" y="341" width="370" height="24" rx="3" fill="none" stroke="#333" stroke-width="0.5"/>

  <text x="110" y="398" class="body">Audiencia Objetivo:</text>
  <rect x="110" y="413" width="540" height="40" rx="3" fill="none" stroke="#333" stroke-width="0.5"/>

  <text x="110" y="480" class="body">Validacion:</text>
  <text x="110" y="510" class="checkbox">[ ] Hay demanda (volumen de busqueda)    [ ] Competencia es ganable</text>
  <text x="110" y="540" class="checkbox">[ ] Tienes experiencia/pasion            [ ] Se puede monetizar</text>

  <!-- ============================================ -->
  <!-- SECTION 2: Estrategia de Plataformas (top-right) -->
  <!-- ============================================ -->

  <path d="M 1380,440 C 1600,350 1850,290 2020,260" fill="none" stroke="#999" stroke-width="1" stroke-dasharray="5,5"/>
  <circle cx="2020" cy="260" r="4" fill="#007AFF"/>

  <rect x="1870" y="220" width="600" height="340" rx="4" fill="none" stroke="#fff" stroke-width="1"/>
  <text x="2170" y="265" text-anchor="middle" class="section-title">02 / ESTRATEGIA DE PLATAFORMAS</text>
  <line x1="1900" y1="282" x2="2440" y2="282" stroke="#333" stroke-width="0.5"/>

  <!-- Three platform tiers -->
  <rect x="1900" y="305" width="160" height="90" rx="4" fill="none" stroke="#007AFF" stroke-width="1.5"/>
  <text x="1980" y="335" text-anchor="middle" class="body-white">PRINCIPAL</text>
  <text x="1980" y="358" text-anchor="middle" class="small">Tu casa de contenido</text>
  <rect x="1910" y="368" width="140" height="18" rx="3" fill="none" stroke="#333" stroke-width="0.5"/>

  <rect x="2080" y="305" width="160" height="90" rx="4" fill="none" stroke="#999" stroke-width="1"/>
  <text x="2160" y="335" text-anchor="middle" class="body-white">SECUNDARIA</text>
  <text x="2160" y="358" text-anchor="middle" class="small">Reutilizar + alcance</text>
  <rect x="2090" y="368" width="140" height="18" rx="3" fill="none" stroke="#333" stroke-width="0.5"/>

  <rect x="2260" y="305" width="160" height="90" rx="4" fill="none" stroke="#999" stroke-width="1"/>
  <text x="2340" y="335" text-anchor="middle" class="body-white">COMUNIDAD</text>
  <text x="2340" y="358" text-anchor="middle" class="small">Engagement profundo</text>
  <rect x="2270" y="368" width="140" height="18" rx="3" fill="none" stroke="#333" stroke-width="0.5"/>

  <!-- Flow arrows -->
  <path d="M 2060,350 L 2080,350" fill="none" stroke="#999" stroke-width="0.5"/>
  <path d="M 2240,350 L 2260,350" fill="none" stroke="#999" stroke-width="0.5"/>

  <text x="1900" y="425" class="body">Opciones de Plataforma:</text>
  <text x="1900" y="455" class="checkbox">[ ] YouTube   [ ] Twitter/X   [ ] Instagram   [ ] TikTok</text>
  <text x="1900" y="485" class="checkbox">[ ] Podcast   [ ] Newsletter  [ ] Blog        [ ] Discord</text>
  <text x="1900" y="515" class="checkbox">[ ] Telegram  [ ] Substack    [ ] LinkedIn     [ ] Threads</text>

  <!-- ============================================ -->
  <!-- SECTION 3: Formula de Contenido (left) -->
  <!-- ============================================ -->

  <path d="M 1165,520 C 900,520 700,540 560,555" fill="none" stroke="#999" stroke-width="1" stroke-dasharray="5,5"/>
  <circle cx="560" cy="555" r="4" fill="#007AFF"/>

  <rect x="80" y="610" width="600" height="420" rx="4" fill="none" stroke="#fff" stroke-width="1"/>
  <text x="380" y="655" text-anchor="middle" class="section-title">03 / FORMULA DE CONTENIDO</text>
  <line x1="110" y1="672" x2="650" y2="672" stroke="#333" stroke-width="0.5"/>

  <text x="110" y="705" class="body">Frecuencia de Publicaci&#243;n:</text>
  <text x="110" y="735" class="checkbox">[ ] Diario    [ ] 3x/semana    [ ] Semanal    [ ] Quincenal</text>

  <text x="110" y="775" class="body-white">MAPA DE CONTENIDO SEMANAL</text>
  <text x="110" y="805" class="body">LUN:</text>
  <rect x="180" y="788" width="480" height="22" rx="3" fill="none" stroke="#333" stroke-width="0.5"/>
  <text x="110" y="835" class="body">MAR:</text>
  <rect x="180" y="818" width="480" height="22" rx="3" fill="none" stroke="#333" stroke-width="0.5"/>
  <text x="110" y="865" class="body">MIE:</text>
  <rect x="180" y="848" width="480" height="22" rx="3" fill="none" stroke="#333" stroke-width="0.5"/>
  <text x="110" y="895" class="body">JUE:</text>
  <rect x="180" y="878" width="480" height="22" rx="3" fill="none" stroke="#333" stroke-width="0.5"/>
  <text x="110" y="925" class="body">VIE:</text>
  <rect x="180" y="908" width="480" height="22" rx="3" fill="none" stroke="#333" stroke-width="0.5"/>

  <line x1="110" y1="940" x2="650" y2="940" stroke="#333" stroke-width="0.5"/>

  <text x="110" y="970" class="body">Pilares de Contenido (3-5 temas):</text>
  <text x="110" y="1000" class="checkbox">[ ] ________________    [ ] ________________    [ ] ________________</text>

  <!-- ============================================ -->
  <!-- SECTION 4: Escalera de Monetizaci&#243;n (right) -->
  <!-- ============================================ -->

  <path d="M 1385,520 C 1600,520 1800,540 1960,555" fill="none" stroke="#999" stroke-width="1" stroke-dasharray="5,5"/>
  <circle cx="1960" cy="555" r="4" fill="#007AFF"/>

  <rect x="1870" y="610" width="600" height="420" rx="4" fill="none" stroke="#fff" stroke-width="1"/>
  <text x="2170" y="655" text-anchor="middle" class="section-title">04 / ESCALERA DE MONETIZACI&#211;N</text>
  <line x1="1900" y1="672" x2="2440" y2="672" stroke="#333" stroke-width="0.5"/>

  <!-- Ladder visualization (bottom to top) -->
  <rect x="1940" y="935" width="480" height="55" rx="4" fill="none" stroke="#999" stroke-width="1"/>
  <text x="1965" y="968" class="ladder-label">NIVEL 1: INGRESOS POR ADS</text>
  <text x="2300" y="968" class="small">$_______/mes</text>

  <path d="M 2180,935 C 2180,920 2180,915 2180,908" fill="none" stroke="#999" stroke-width="0.5"/>

  <rect x="1960" y="865" width="460" height="55" rx="4" fill="none" stroke="#999" stroke-width="1"/>
  <text x="1985" y="898" class="ladder-label">NIVEL 2: PATROCINIOS</text>
  <text x="2300" y="898" class="small">$_______/mes</text>

  <path d="M 2180,865 C 2180,850 2180,845 2180,838" fill="none" stroke="#999" stroke-width="0.5"/>

  <rect x="1980" y="795" width="440" height="55" rx="4" fill="none" stroke="#fff" stroke-width="1"/>
  <text x="2005" y="828" class="ladder-label">NIVEL 3: PRODUCTOS DIGITALES</text>
  <text x="2300" y="828" class="small">$_______/mes</text>

  <path d="M 2180,795 C 2180,780 2180,775 2180,768" fill="none" stroke="#999" stroke-width="0.5"/>

  <rect x="2000" y="700" width="420" height="55" rx="4" fill="none" stroke="#007AFF" stroke-width="1.5"/>
  <text x="2025" y="733" class="ladder-label">NIVEL 4: COACHING / SERVICIOS</text>
  <text x="2300" y="733" class="small">$_______/mes</text>

  <!-- Arrow showing progression -->
  <line x1="1920" y1="1000" x2="1920" y2="700" stroke="#333" stroke-width="0.5"/>
  <polygon points="1916,705 1920,695 1924,705" fill="#333"/>
  <text x="1908" y="1010" class="small" transform="rotate(-90, 1908, 860)">MAYOR VALOR</text>

  <!-- ============================================ -->
  <!-- SECTION 5: Crecimiento de Audiencia (bottom-left) -->
  <!-- ============================================ -->

  <path d="M 1210,630 C 1100,750 850,850 680,900" fill="none" stroke="#999" stroke-width="1" stroke-dasharray="5,5"/>
  <circle cx="680" cy="900" r="4" fill="#007AFF"/>

  <rect x="80" y="1080" width="620" height="400" rx="4" fill="none" stroke="#fff" stroke-width="1"/>
  <text x="390" y="1125" text-anchor="middle" class="section-title">05 / CRECIMIENTO DE AUDIENCIA</text>
  <line x1="110" y1="1142" x2="670" y2="1142" stroke="#333" stroke-width="0.5"/>

  <!-- Growth funnel -->
  <polygon points="200,1170 520,1170 475,1210 245,1210" fill="none" stroke="#007AFF" stroke-width="1"/>
  <text x="360" y="1196" text-anchor="middle" class="funnel-text">DESCUBRIR (SEO, Algoritmo, Collabs)</text>

  <polygon points="245,1218 475,1218 445,1258 275,1258" fill="none" stroke="#007AFF" stroke-width="1"/>
  <text x="360" y="1244" text-anchor="middle" class="funnel-text">SEGUIR (Hook, Valor, Constancia)</text>

  <polygon points="275,1266 445,1266 420,1306 300,1306" fill="none" stroke="#007AFF" stroke-width="1"/>
  <text x="360" y="1292" text-anchor="middle" class="funnel-text">INTERACTUAR (Comentar, Compartir)</text>

  <polygon points="300,1314 420,1314 405,1354 315,1354" fill="none" stroke="#007AFF" stroke-width="1"/>
  <text x="360" y="1340" text-anchor="middle" class="funnel-text">CONVERTIR (Comprar, Suscribir)</text>

  <text x="110" y="1400" class="body">Metas de Seguidores:</text>
  <text x="110" y="1430" class="checkbox">[ ] 100      [ ] 1,000     [ ] 10,000     [ ] 100,000</text>

  <text x="110" y="1460" class="body">Estrategia de Crecimiento:</text>
  <text x="110" y="1465" class="checkbox">  </text>
  <text x="380" y="1460" class="checkbox">[ ] Collabs    [ ] SEO    [ ] Ads    [ ] Virales</text>

  <!-- ============================================ -->
  <!-- SECTION 6: Flujos de Ingreso (bottom-right) -->
  <!-- ============================================ -->

  <path d="M 1340,630 C 1450,750 1700,850 1870,900" fill="none" stroke="#999" stroke-width="1" stroke-dasharray="5,5"/>
  <circle cx="1870" cy="900" r="4" fill="#007AFF"/>

  <rect x="1870" y="1080" width="600" height="400" rx="4" fill="none" stroke="#fff" stroke-width="1"/>
  <text x="2170" y="1125" text-anchor="middle" class="section-title">06 / FLUJOS DE INGRESO</text>
  <line x1="1900" y1="1142" x2="2440" y2="1142" stroke="#333" stroke-width="0.5"/>

  <text x="1900" y="1180" class="body-white">PASIVOS</text>
  <text x="1900" y="1210" class="checkbox">[ ] Ads (YouTube, blog)         Est: $______/mes</text>
  <text x="1900" y="1240" class="checkbox">[ ] Afiliados                   Est: $______/mes</text>
  <text x="1900" y="1270" class="checkbox">[ ] Productos digitales         Est: $______/mes</text>

  <line x1="1900" y1="1290" x2="2440" y2="1290" stroke="#333" stroke-width="0.5"/>

  <text x="1900" y="1320" class="body-white">ACTIVOS</text>
  <text x="1900" y="1350" class="checkbox">[ ] Patrocinios                 Est: $______/mes</text>
  <text x="1900" y="1380" class="checkbox">[ ] Coaching/Consultoria        Est: $______/mes</text>
  <text x="1900" y="1410" class="checkbox">[ ] Freelance/Servicios         Est: $______/mes</text>
  <text x="1900" y="1440" class="checkbox">[ ] Comunidad de pago           Est: $______/mes</text>

  <!-- ============================================ -->
  <!-- SECTION 7: Horario del Creador -->
  <!-- ============================================ -->

  <rect x="80" y="1540" width="2390" height="340" rx="4" fill="none" stroke="#fff" stroke-width="1"/>
  <text x="1275" y="1585" text-anchor="middle" class="section-title">07 / HORARIO DEL CREADOR</text>
  <line x1="110" y1="1602" x2="2440" y2="1602" stroke="#007AFF" stroke-width="1"/>

  <!-- Weekly schedule grid -->
  <text x="130" y="1640" class="body-white">LUNES - Investigaci&#243;n + Guiones</text>
  <text x="130" y="1668" class="checkbox">[ ] Investigar tendencias    [ ] Escribir guiones    [ ] Planificar semana</text>

  <text x="130" y="1705" class="body-white">MARTES/MI&#201;RCOLES - Producci&#243;n</text>
  <text x="130" y="1733" class="checkbox">[ ] Grabar contenido    [ ] Editar video    [ ] Crear graficos</text>

  <text x="130" y="1770" class="body-white">JUEVES - Publicar + Engagement</text>
  <text x="130" y="1798" class="checkbox">[ ] Publicar contenido    [ ] Responder comentarios    [ ] Stories/Reels</text>

  <text x="130" y="1835" class="body-white">VIERNES - Monetizaci&#243;n + Admin</text>
  <text x="130" y="1863" class="checkbox">[ ] Revisar metricas    [ ] Contactar marcas    [ ] Crear productos    [ ] Email list</text>

  <!-- Right side: daily blocks -->
  <line x1="1350" y1="1610" x2="1350" y2="1870" stroke="#333" stroke-width="0.5"/>

  <text x="1400" y="1640" class="body-white">BLOQUES DIARIOS</text>
  <text x="1400" y="1670" class="checkbox">[ ] Bloque creativo profundo            (2-3 hrs)</text>
  <text x="1400" y="1700" class="checkbox">[ ] Engagement + comunidad              (30 min)</text>
  <text x="1400" y="1730" class="checkbox">[ ] Aprender + consumir contenido       (30 min)</text>
  <text x="1400" y="1760" class="checkbox">[ ] Admin / emails / negocios           (30 min)</text>

  <text x="1400" y="1800" class="body-white">BATCH DAYS (1x por semana)</text>
  <text x="1400" y="1830" class="checkbox">[ ] Grabar todo el contenido de la semana en 1 dia</text>
  <text x="1400" y="1860" class="checkbox">[ ] Editar + programar publicaciones por adelantado</text>

  <!-- ============================================ -->
  <!-- REVENUE TRACKER TABLE -->
  <!-- ============================================ -->

  <rect x="80" y="1940" width="2390" height="300" rx="4" fill="none" stroke="#fff" stroke-width="1"/>
  <text x="1275" y="1985" text-anchor="middle" class="section-title">SEGUIMIENTO DE CRECIMIENTO</text>
  <line x1="110" y1="2005" x2="2440" y2="2005" stroke="#007AFF" stroke-width="1"/>

  <!-- Table headers -->
  <text x="140" y="2035" class="table-head">M&#201;TRICA</text>
  <text x="420" y="2035" text-anchor="middle" class="table-head">MES 1</text>
  <text x="600" y="2035" text-anchor="middle" class="table-head">MES 2</text>
  <text x="780" y="2035" text-anchor="middle" class="table-head">MES 3</text>
  <text x="960" y="2035" text-anchor="middle" class="table-head">MES 4</text>
  <text x="1140" y="2035" text-anchor="middle" class="table-head">MES 5</text>
  <text x="1320" y="2035" text-anchor="middle" class="table-head">MES 6</text>
  <text x="1500" y="2035" text-anchor="middle" class="table-head">MES 7</text>
  <text x="1680" y="2035" text-anchor="middle" class="table-head">MES 8</text>
  <text x="1860" y="2035" text-anchor="middle" class="table-head">MES 9</text>
  <text x="2040" y="2035" text-anchor="middle" class="table-head">MES 10</text>
  <text x="2220" y="2035" text-anchor="middle" class="table-head">MES 11</text>
  <text x="2380" y="2035" text-anchor="middle" class="table-head">MES 12</text>
  <line x1="110" y1="2048" x2="2440" y2="2048" stroke="#333" stroke-width="0.5"/>

  <!-- Row 1: Seguidores -->
  <text x="140" y="2075" class="table-cell">Seguidores</text>
  <text x="420" y="2075" text-anchor="middle" class="table-cell">________</text>
  <text x="600" y="2075" text-anchor="middle" class="table-cell">________</text>
  <text x="780" y="2075" text-anchor="middle" class="table-cell">________</text>
  <text x="960" y="2075" text-anchor="middle" class="table-cell">________</text>
  <text x="1140" y="2075" text-anchor="middle" class="table-cell">________</text>
  <text x="1320" y="2075" text-anchor="middle" class="table-cell">________</text>
  <text x="1500" y="2075" text-anchor="middle" class="table-cell">________</text>
  <text x="1680" y="2075" text-anchor="middle" class="table-cell">________</text>
  <text x="1860" y="2075" text-anchor="middle" class="table-cell">________</text>
  <text x="2040" y="2075" text-anchor="middle" class="table-cell">________</text>
  <text x="2220" y="2075" text-anchor="middle" class="table-cell">________</text>
  <text x="2380" y="2075" text-anchor="middle" class="table-cell">________</text>
  <line x1="110" y1="2085" x2="2440" y2="2085" stroke="#222" stroke-width="0.5"/>

  <!-- Row 2: Email List -->
  <text x="140" y="2112" class="table-cell">Email List</text>
  <text x="420" y="2112" text-anchor="middle" class="table-cell">________</text>
  <text x="600" y="2112" text-anchor="middle" class="table-cell">________</text>
  <text x="780" y="2112" text-anchor="middle" class="table-cell">________</text>
  <text x="960" y="2112" text-anchor="middle" class="table-cell">________</text>
  <text x="1140" y="2112" text-anchor="middle" class="table-cell">________</text>
  <text x="1320" y="2112" text-anchor="middle" class="table-cell">________</text>
  <text x="1500" y="2112" text-anchor="middle" class="table-cell">________</text>
  <text x="1680" y="2112" text-anchor="middle" class="table-cell">________</text>
  <text x="1860" y="2112" text-anchor="middle" class="table-cell">________</text>
  <text x="2040" y="2112" text-anchor="middle" class="table-cell">________</text>
  <text x="2220" y="2112" text-anchor="middle" class="table-cell">________</text>
  <text x="2380" y="2112" text-anchor="middle" class="table-cell">________</text>
  <line x1="110" y1="2122" x2="2440" y2="2122" stroke="#222" stroke-width="0.5"/>

  <!-- Row 3: Ingresos -->
  <text x="140" y="2149" class="body-white">INGRESOS</text>
  <text x="420" y="2149" text-anchor="middle" class="table-cell">$_______</text>
  <text x="600" y="2149" text-anchor="middle" class="table-cell">$_______</text>
  <text x="780" y="2149" text-anchor="middle" class="table-cell">$_______</text>
  <text x="960" y="2149" text-anchor="middle" class="table-cell">$_______</text>
  <text x="1140" y="2149" text-anchor="middle" class="table-cell">$_______</text>
  <text x="1320" y="2149" text-anchor="middle" class="table-cell">$_______</text>
  <text x="1500" y="2149" text-anchor="middle" class="table-cell">$_______</text>
  <text x="1680" y="2149" text-anchor="middle" class="table-cell">$_______</text>
  <text x="1860" y="2149" text-anchor="middle" class="table-cell">$_______</text>
  <text x="2040" y="2149" text-anchor="middle" class="table-cell">$_______</text>
  <text x="2220" y="2149" text-anchor="middle" class="table-cell">$_______</text>
  <text x="2380" y="2149" text-anchor="middle" class="table-cell">$_______</text>
  <line x1="110" y1="2159" x2="2440" y2="2159" stroke="#fff" stroke-width="0.5"/>

  <!-- Row 4: Engagement Rate -->
  <text x="140" y="2186" class="table-cell">Engagement %</text>
  <text x="420" y="2186" text-anchor="middle" class="table-cell">_______%</text>
  <text x="600" y="2186" text-anchor="middle" class="table-cell">_______%</text>
  <text x="780" y="2186" text-anchor="middle" class="table-cell">_______%</text>
  <text x="960" y="2186" text-anchor="middle" class="table-cell">_______%</text>
  <text x="1140" y="2186" text-anchor="middle" class="table-cell">_______%</text>
  <text x="1320" y="2186" text-anchor="middle" class="table-cell">_______%</text>
  <text x="1500" y="2186" text-anchor="middle" class="table-cell">_______%</text>
  <text x="1680" y="2186" text-anchor="middle" class="table-cell">_______%</text>
  <text x="1860" y="2186" text-anchor="middle" class="table-cell">_______%</text>
  <text x="2040" y="2186" text-anchor="middle" class="table-cell">_______%</text>
  <text x="2220" y="2186" text-anchor="middle" class="table-cell">_______%</text>
  <text x="2380" y="2186" text-anchor="middle" class="table-cell">_______%</text>

  <!-- ============================================ -->
  <!-- KPI BOXES -->
  <!-- ============================================ -->

  <line x1="80" y1="2300" x2="2470" y2="2300" stroke="#333" stroke-width="0.5"/>

  <rect x="80" y="2330" width="380" height="120" rx="4" fill="none" stroke="#333" stroke-width="1"/>
  <text x="270" y="2375" text-anchor="middle" class="body-white">META DE SEGUIDORES</text>
  <text x="270" y="2415" text-anchor="middle" class="subtitle">_______________</text>

  <rect x="510" y="2330" width="380" height="120" rx="4" fill="none" stroke="#333" stroke-width="1"/>
  <text x="700" y="2375" text-anchor="middle" class="body-white">META DE EMAIL LIST</text>
  <text x="700" y="2415" text-anchor="middle" class="subtitle">_______________</text>

  <rect x="940" y="2330" width="380" height="120" rx="4" fill="none" stroke="#333" stroke-width="1"/>
  <text x="1130" y="2375" text-anchor="middle" class="body-white">META MENSUAL</text>
  <text x="1130" y="2415" text-anchor="middle" class="subtitle">$_______________</text>

  <rect x="1370" y="2330" width="380" height="120" rx="4" fill="none" stroke="#333" stroke-width="1"/>
  <text x="1560" y="2375" text-anchor="middle" class="body-white">CONTENIDOS/SEMANA</text>
  <text x="1560" y="2415" text-anchor="middle" class="subtitle">_______________</text>

  <rect x="1800" y="2330" width="380" height="120" rx="4" fill="none" stroke="#333" stroke-width="1"/>
  <text x="1990" y="2375" text-anchor="middle" class="body-white">META 12 MESES</text>
  <text x="1990" y="2415" text-anchor="middle" class="subtitle">$_______________</text>

  <!-- ============================================ -->
  <!-- FOOTER -->
  <!-- ============================================ -->

  <line x1="80" y1="3200" x2="2470" y2="3200" stroke="#007AFF" stroke-width="1"/>
  <text x="1275" y="3240" text-anchor="middle" class="small">BLUEPRINT DE NEGOCIO</text>
  <text x="1275" y="3265" text-anchor="middle" class="price">behike.co | Hecho en Puerto Rico</text>

  <!-- Corner marks -->
  <line x1="60" y1="60" x2="90" y2="60" stroke="#007AFF" stroke-width="0.5"/>
  <line x1="60" y1="60" x2="60" y2="90" stroke="#007AFF" stroke-width="0.5"/>
  <line x1="2490" y1="60" x2="2460" y2="60" stroke="#007AFF" stroke-width="0.5"/>
  <line x1="2490" y1="60" x2="2490" y2="90" stroke="#007AFF" stroke-width="0.5"/>
  <line x1="60" y1="3240" x2="90" y2="3240" stroke="#007AFF" stroke-width="0.5"/>
  <line x1="60" y1="3240" x2="60" y2="3210" stroke="#007AFF" stroke-width="0.5"/>
  <line x1="2490" y1="3240" x2="2460" y2="3240" stroke="#007AFF" stroke-width="0.5"/>
  <line x1="2490" y1="3240" x2="2490" y2="3210" stroke="#007AFF" stroke-width="0.5"/>

</svg>