<?xml version="1.0" encoding="UTF-8"?>
<svg xmlns="http://www.w3.org/2000/svg" viewBox="0 0 2550 3300" width="2550" height="3300">
  <defs>
    <style>
      text { font-family: 'Helvetica Neue', Helvetica, Arial, sans-serif; fill: #ffffff; }
      .title { font-size: 56px; font-weight: 700; letter-spacing: 3px; }
      .subtitle { font-size: 24px; fill: #999999; letter-spacing: 2px; font-weight: 300; }
      .section-title { font-size: 32px; font-weight: 700; fill: #007AFF; letter-spacing: 1px; }
      .section-num { font-size: 28px; font-weight: 300; fill: #007AFF; letter-spacing: 2px; }
      .body { font-size: 18px; fill: #999999; }
      .body-white { font-size: 18px; fill: #ffffff; }
      .body-bold { font-size: 18px; fill: #ffffff; font-weight: 600; }
      .small { font-size: 15px; fill: #999999; }
      .small-white { font-size: 15px; fill: #ffffff; }
      .checkbox { font-size: 16px; fill: #999999; }
      .metric-value { font-size: 36px; font-weight: 700; fill: #ffffff; }
      .metric-label { font-size: 14px; fill: #999999; letter-spacing: 1px; text-transform: uppercase; }
      .hub-label { font-size: 20px; font-weight: 600; fill: #ffffff; }
      .footer { font-size: 16px; fill: #999999; letter-spacing: 3px; }
    </style>
  </defs>

  <rect width="2550" height="3300" fill="#000000"/>
  <rect x="40" y="40" width="2470" height="3220" fill="none" stroke="#333333" stroke-width="1"/>

  <!-- Header -->
  <text x="1275" y="130" text-anchor="middle" class="title">PODCAST BUSINESS</text>
  <text x="1275" y="185" text-anchor="middle" class="title">BLUEPRINT</text>
  <line x1="400" y1="210" x2="2150" y2="210" stroke="#007AFF" stroke-width="2"/>
  <text x="1275" y="250" text-anchor="middle" class="subtitle">LAUNCH, GROW, AND MONETIZE A PODCAST FROM ZERO</text>

  <!-- SECTION 1: NICHE/FORMAT (Hub-Spoke) -->
  <text x="100" y="330" class="section-num">01</text>
  <text x="160" y="330" class="section-title">NICHE AND FORMAT</text>
  <line x1="100" y1="345" x2="1200" y2="345" stroke="#007AFF" stroke-width="1"/>

  <circle cx="640" cy="530" r="70" fill="none" stroke="#007AFF" stroke-width="2"/>
  <text x="640" y="524" text-anchor="middle" class="hub-label">PODCAST</text>
  <text x="640" y="548" text-anchor="middle" class="hub-label">FORMAT</text>

  <line x1="570" y1="510" x2="220" y2="410" stroke="#333333" stroke-width="1"/>
  <circle cx="220" cy="410" r="5" fill="#007AFF"/>
  <rect x="100" y="385" width="240" height="55" rx="4" fill="none" stroke="#ffffff" stroke-width="1"/>
  <text x="220" y="418" text-anchor="middle" class="body-bold">Solo Commentary</text>

  <line x1="575" y1="480" x2="220" y2="500" stroke="#333333" stroke-width="1"/>
  <circle cx="220" cy="500" r="5" fill="#007AFF"/>
  <rect x="100" y="475" width="240" height="55" rx="4" fill="none" stroke="#ffffff" stroke-width="1"/>
  <text x="220" y="508" text-anchor="middle" class="body-bold">Interview Style</text>

  <line x1="580" y1="590" x2="220" y2="600" stroke="#333333" stroke-width="1"/>
  <circle cx="220" cy="600" r="5" fill="#007AFF"/>
  <rect x="100" y="575" width="240" height="55" rx="4" fill="none" stroke="#ffffff" stroke-width="1"/>
  <text x="220" y="608" text-anchor="middle" class="body-bold">Co-Host Debate</text>

  <line x1="710" y1="510" x2="1060" y2="410" stroke="#333333" stroke-width="1"/>
  <circle cx="1060" cy="410" r="5" fill="#007AFF"/>
  <rect x="940" y="385" width="240" height="55" rx="4" fill="none" stroke="#ffffff" stroke-width="1"/>
  <text x="1060" y="418" text-anchor="middle" class="body-bold">Narrative Story</text>

  <line x1="710" y1="540" x2="1060" y2="500" stroke="#333333" stroke-width="1"/>
  <circle cx="1060" cy="500" r="5" fill="#007AFF"/>
  <rect x="940" y="475" width="240" height="55" rx="4" fill="none" stroke="#ffffff" stroke-width="1"/>
  <text x="1060" y="508" text-anchor="middle" class="body-bold">Roundtable Panel</text>

  <line x1="700" y1="590" x2="1060" y2="600" stroke="#333333" stroke-width="1"/>
  <circle cx="1060" cy="600" r="5" fill="#007AFF"/>
  <rect x="940" y="575" width="240" height="55" rx="4" fill="none" stroke="#ffffff" stroke-width="1"/>
  <text x="1060" y="608" text-anchor="middle" class="body-bold">Hybrid Mix</text>

  <!-- Niche checklist -->
  <rect x="100" y="660" width="16" height="16" rx="2" fill="none" stroke="#999999" stroke-width="1"/>
  <text x="130" y="674" class="checkbox">Pick a niche you can talk about for 200+ episodes</text>
  <rect x="100" y="690" width="16" height="16" rx="2" fill="none" stroke="#999999" stroke-width="1"/>
  <text x="130" y="704" class="checkbox">Define your unique angle (not just "another business podcast")</text>
  <rect x="100" y="720" width="16" height="16" rx="2" fill="none" stroke="#999999" stroke-width="1"/>
  <text x="130" y="734" class="checkbox">Choose episode length: 15-30 min (short) or 45-90 min (deep)</text>

  <!-- SECTION 2: EQUIPMENT -->
  <text x="1350" y="330" class="section-num">02</text>
  <text x="1410" y="330" class="section-title">EQUIPMENT</text>
  <line x1="1350" y1="345" x2="2450" y2="345" stroke="#007AFF" stroke-width="1"/>

  <!-- Equipment table -->
  <rect x="1350" y="370" width="1100" height="45" rx="0" fill="#111111"/>
  <text x="1550" y="398" text-anchor="middle" class="body-bold">ITEM</text>
  <text x="1900" y="398" text-anchor="middle" class="body-bold">BUDGET PICK</text>
  <text x="2250" y="398" text-anchor="middle" class="body-bold">PRO PICK</text>

  <line x1="1350" y1="415" x2="2450" y2="415" stroke="#333333" stroke-width="0.5"/>
  <text x="1550" y="445" text-anchor="middle" class="body">Microphone</text>
  <text x="1900" y="445" text-anchor="middle" class="body">Samson Q2U ($70)</text>
  <text x="2250" y="445" text-anchor="middle" class="body">Shure SM7B ($400)</text>

  <line x1="1350" y1="460" x2="2450" y2="460" stroke="#222222" stroke-width="0.5"/>
  <text x="1550" y="490" text-anchor="middle" class="body">Interface</text>
  <text x="1900" y="490" text-anchor="middle" class="body">USB direct ($0)</text>
  <text x="2250" y="490" text-anchor="middle" class="body">Focusrite 2i2 ($170)</text>

  <line x1="1350" y1="505" x2="2450" y2="505" stroke="#222222" stroke-width="0.5"/>
  <text x="1550" y="535" text-anchor="middle" class="body">Headphones</text>
  <text x="1900" y="535" text-anchor="middle" class="body">ATH-M20x ($50)</text>
  <text x="2250" y="535" text-anchor="middle" class="body">ATH-M50x ($150)</text>

  <line x1="1350" y1="550" x2="2450" y2="550" stroke="#222222" stroke-width="0.5"/>
  <text x="1550" y="580" text-anchor="middle" class="body">Recording SW</text>
  <text x="1900" y="580" text-anchor="middle" class="body">Audacity (free)</text>
  <text x="2250" y="580" text-anchor="middle" class="body">Logic Pro ($200)</text>

  <line x1="1350" y1="595" x2="2450" y2="595" stroke="#222222" stroke-width="0.5"/>
  <text x="1550" y="625" text-anchor="middle" class="body">Remote Recording</text>
  <text x="1900" y="625" text-anchor="middle" class="body">Riverside.fm ($15/mo)</text>
  <text x="2250" y="625" text-anchor="middle" class="body">SquadCast ($20/mo)</text>

  <line x1="1350" y1="640" x2="2450" y2="640" stroke="#222222" stroke-width="0.5"/>
  <text x="1550" y="670" text-anchor="middle" class="body">Acoustic Treatment</text>
  <text x="1900" y="670" text-anchor="middle" class="body">Blankets + closet</text>
  <text x="2250" y="670" text-anchor="middle" class="body">Foam panels ($100)</text>

  <rect x="1350" y="700" width="540" height="45" rx="4" fill="#111111"/>
  <text x="1620" y="728" text-anchor="middle" class="body-bold">Budget Setup: ~$120</text>
  <rect x="1910" y="700" width="540" height="45" rx="4" fill="#111111"/>
  <text x="2180" y="728" text-anchor="middle" class="body-bold">Pro Setup: ~$1,100</text>

  <!-- SECTION 3: RECORDING/EDITING -->
  <text x="100" y="830" class="section-num">03</text>
  <text x="160" y="830" class="section-title">RECORDING AND EDITING</text>
  <line x1="100" y1="845" x2="2450" y2="845" stroke="#007AFF" stroke-width="1"/>

  <!-- Workflow flowchart -->
  <rect x="100" y="880" width="280" height="80" rx="4" fill="none" stroke="#007AFF" stroke-width="1.5"/>
  <text x="240" y="915" text-anchor="middle" class="body-bold">Outline</text>
  <text x="240" y="940" text-anchor="middle" class="small">Key points, not script</text>

  <line x1="380" y1="920" x2="440" y2="920" stroke="#333333" stroke-width="1"/>
  <polygon points="435,916 435,924 443,920" fill="#333333"/>

  <rect x="445" y="880" width="280" height="80" rx="4" fill="none" stroke="#ffffff" stroke-width="1"/>
  <text x="585" y="915" text-anchor="middle" class="body-bold">Record</text>
  <text x="585" y="940" text-anchor="middle" class="small">Batch 2-4 episodes</text>

  <line x1="725" y1="920" x2="785" y2="920" stroke="#333333" stroke-width="1"/>
  <polygon points="780,916 780,924 788,920" fill="#333333"/>

  <rect x="790" y="880" width="280" height="80" rx="4" fill="none" stroke="#ffffff" stroke-width="1"/>
  <text x="930" y="915" text-anchor="middle" class="body-bold">Edit</text>
  <text x="930" y="940" text-anchor="middle" class="small">Descript or outsource</text>

  <line x1="1070" y1="920" x2="1130" y2="920" stroke="#333333" stroke-width="1"/>
  <polygon points="1125,916 1125,924 1133,920" fill="#333333"/>

  <rect x="1135" y="880" width="280" height="80" rx="4" fill="none" stroke="#ffffff" stroke-width="1"/>
  <text x="1275" y="915" text-anchor="middle" class="body-bold">Mix + Master</text>
  <text x="1275" y="940" text-anchor="middle" class="small">Levels, EQ, compress</text>

  <line x1="1415" y1="920" x2="1475" y2="920" stroke="#333333" stroke-width="1"/>
  <polygon points="1470,916 1470,924 1478,920" fill="#333333"/>

  <rect x="1480" y="880" width="280" height="80" rx="4" fill="none" stroke="#ffffff" stroke-width="1"/>
  <text x="1620" y="915" text-anchor="middle" class="body-bold">Show Notes</text>
  <text x="1620" y="940" text-anchor="middle" class="small">SEO + timestamps</text>

  <line x1="1760" y1="920" x2="1820" y2="920" stroke="#333333" stroke-width="1"/>
  <polygon points="1815,916 1815,924 1823,920" fill="#333333"/>

  <rect x="1825" y="880" width="280" height="80" rx="4" fill="none" stroke="#007AFF" stroke-width="1.5"/>
  <text x="1965" y="915" text-anchor="middle" class="body-bold">Publish</text>
  <text x="1965" y="940" text-anchor="middle" class="small">Schedule + promote</text>

  <!-- SECTION 4: DISTRIBUTION -->
  <text x="100" y="1040" class="section-num">04</text>
  <text x="160" y="1040" class="section-title">DISTRIBUTION</text>
  <line x1="100" y1="1055" x2="1200" y2="1055" stroke="#007AFF" stroke-width="1"/>

  <rect x="100" y="1080" width="350" height="50" rx="4" fill="#111111"/>
  <text x="275" y="1112" text-anchor="middle" class="body-bold">Apple Podcasts</text>

  <rect x="480" y="1080" width="350" height="50" rx="4" fill="#111111"/>
  <text x="655" y="1112" text-anchor="middle" class="body-bold">Spotify</text>

  <rect x="860" y="1080" width="350" height="50" rx="4" fill="#111111"/>
  <text x="1035" y="1112" text-anchor="middle" class="body-bold">YouTube (video)</text>

  <rect x="100" y="1150" width="350" height="50" rx="4" fill="#111111"/>
  <text x="275" y="1182" text-anchor="middle" class="body-bold">Google Podcasts</text>

  <rect x="480" y="1150" width="350" height="50" rx="4" fill="#111111"/>
  <text x="655" y="1182" text-anchor="middle" class="body-bold">Amazon Music</text>

  <rect x="860" y="1150" width="350" height="50" rx="4" fill="#111111"/>
  <text x="1035" y="1182" text-anchor="middle" class="body-bold">RSS Feed</text>

  <text x="100" y="1250" class="body-bold">Hosting Platform</text>
  <rect x="100" y="1270" width="16" height="16" rx="2" fill="none" stroke="#999999" stroke-width="1"/>
  <text x="130" y="1284" class="checkbox">Buzzsprout (easiest, free tier)</text>
  <rect x="100" y="1300" width="16" height="16" rx="2" fill="none" stroke="#999999" stroke-width="1"/>
  <text x="130" y="1314" class="checkbox">Libsyn (industry standard, $5/mo)</text>
  <rect x="100" y="1330" width="16" height="16" rx="2" fill="none" stroke="#999999" stroke-width="1"/>
  <text x="130" y="1344" class="checkbox">Anchor/Spotify for Podcasters (free)</text>

  <!-- SECTION 5: MONETIZATION -->
  <text x="1350" y="1040" class="section-num">05</text>
  <text x="1410" y="1040" class="section-title">MONETIZATION</text>
  <line x1="1350" y1="1055" x2="2450" y2="1055" stroke="#007AFF" stroke-width="1"/>

  <rect x="1350" y="1080" width="1100" height="55" rx="4" fill="none" stroke="#007AFF" stroke-width="1.5"/>
  <text x="1600" y="1113" text-anchor="middle" class="body-bold">Sponsorships</text>
  <text x="2000" y="1113" class="small">$18-50 CPM, need 1K+ downloads</text>

  <rect x="1350" y="1155" width="1100" height="55" rx="4" fill="none" stroke="#ffffff" stroke-width="1"/>
  <text x="1600" y="1188" text-anchor="middle" class="body-bold">Affiliate Marketing</text>
  <text x="2000" y="1188" class="small">Promote tools you use, 10-30% commission</text>

  <rect x="1350" y="1230" width="1100" height="55" rx="4" fill="none" stroke="#ffffff" stroke-width="1"/>
  <text x="1600" y="1263" text-anchor="middle" class="body-bold">Digital Products</text>
  <text x="2000" y="1263" class="small">Courses, templates, ebooks from content</text>

  <rect x="1350" y="1305" width="1100" height="55" rx="4" fill="none" stroke="#ffffff" stroke-width="1"/>
  <text x="1600" y="1338" text-anchor="middle" class="body-bold">Consulting / Coaching</text>
  <text x="2000" y="1338" class="small">Podcast as lead gen for services</text>

  <rect x="1350" y="1380" width="1100" height="55" rx="4" fill="none" stroke="#ffffff" stroke-width="1"/>
  <text x="1600" y="1413" text-anchor="middle" class="body-bold">Premium Content</text>
  <text x="2000" y="1413" class="small">Patreon, Apple Subscriptions, $5-20/mo</text>

  <rect x="1350" y="1455" width="1100" height="55" rx="4" fill="none" stroke="#ffffff" stroke-width="1"/>
  <text x="1600" y="1488" text-anchor="middle" class="body-bold">Live Events</text>
  <text x="2000" y="1488" class="small">Meetups, workshops, conferences</text>

  <!-- SECTION 6: GROWTH -->
  <text x="100" y="1430" class="section-num">06</text>
  <text x="160" y="1430" class="section-title">GROWTH STRATEGY</text>
  <line x1="100" y1="1445" x2="1200" y2="1445" stroke="#007AFF" stroke-width="1"/>

  <rect x="100" y="1470" width="16" height="16" rx="2" fill="none" stroke="#999999" stroke-width="1"/>
  <text x="130" y="1484" class="checkbox">Repurpose every episode into 5-10 clips</text>
  <rect x="100" y="1500" width="16" height="16" rx="2" fill="none" stroke="#999999" stroke-width="1"/>
  <text x="130" y="1514" class="checkbox">Guest swap with similar-sized podcasts</text>
  <rect x="100" y="1530" width="16" height="16" rx="2" fill="none" stroke="#999999" stroke-width="1"/>
  <text x="130" y="1544" class="checkbox">Post clips on TikTok, Reels, Shorts daily</text>
  <rect x="100" y="1560" width="16" height="16" rx="2" fill="none" stroke="#999999" stroke-width="1"/>
  <text x="130" y="1574" class="checkbox">Email newsletter with episode summaries</text>
  <rect x="100" y="1590" width="16" height="16" rx="2" fill="none" stroke="#999999" stroke-width="1"/>
  <text x="130" y="1604" class="checkbox">SEO-optimized show notes and blog posts</text>
  <rect x="100" y="1620" width="16" height="16" rx="2" fill="none" stroke="#999999" stroke-width="1"/>
  <text x="130" y="1634" class="checkbox">Ask for ratings and reviews every episode</text>
  <rect x="100" y="1650" width="16" height="16" rx="2" fill="none" stroke="#999999" stroke-width="1"/>
  <text x="130" y="1664" class="checkbox">Consistency: same day, same time, every week</text>

  <!-- SECTION 7: SPONSORSHIPS -->
  <text x="100" y="1750" class="section-num">07</text>
  <text x="160" y="1750" class="section-title">SPONSORSHIP FRAMEWORK</text>
  <line x1="100" y1="1765" x2="2450" y2="1765" stroke="#007AFF" stroke-width="1"/>

  <!-- Sponsorship table -->
  <rect x="100" y="1790" width="2350" height="45" rx="0" fill="#111111"/>
  <text x="300" y="1818" text-anchor="middle" class="body-bold">DOWNLOADS/EP</text>
  <text x="700" y="1818" text-anchor="middle" class="body-bold">TIER</text>
  <text x="1100" y="1818" text-anchor="middle" class="body-bold">CPM RATE</text>
  <text x="1500" y="1818" text-anchor="middle" class="body-bold">PER EPISODE</text>
  <text x="1900" y="1818" text-anchor="middle" class="body-bold">PER MONTH (4 EPS)</text>
  <text x="2300" y="1818" text-anchor="middle" class="body-bold">APPROACH</text>

  <line x1="100" y1="1835" x2="2450" y2="1835" stroke="#333333" stroke-width="0.5"/>
  <text x="300" y="1865" text-anchor="middle" class="body">500-1,000</text>
  <text x="700" y="1865" text-anchor="middle" class="body">Micro</text>
  <text x="1100" y="1865" text-anchor="middle" class="body">$15-25</text>
  <text x="1500" y="1865" text-anchor="middle" class="body">$15-25</text>
  <text x="1900" y="1865" text-anchor="middle" class="body">$60-100</text>
  <text x="2300" y="1865" text-anchor="middle" class="small">Direct outreach</text>

  <line x1="100" y1="1880" x2="2450" y2="1880" stroke="#222222" stroke-width="0.5"/>
  <text x="300" y="1910" text-anchor="middle" class="body">1K-5K</text>
  <text x="700" y="1910" text-anchor="middle" class="body">Small</text>
  <text x="1100" y="1910" text-anchor="middle" class="body">$20-35</text>
  <text x="1500" y="1910" text-anchor="middle" class="body">$50-175</text>
  <text x="1900" y="1910" text-anchor="middle" class="body">$200-700</text>
  <text x="2300" y="1910" text-anchor="middle" class="small">Networks</text>

  <line x1="100" y1="1925" x2="2450" y2="1925" stroke="#222222" stroke-width="0.5"/>
  <text x="300" y="1955" text-anchor="middle" class="body">5K-25K</text>
  <text x="700" y="1955" text-anchor="middle" class="body">Medium</text>
  <text x="1100" y="1955" text-anchor="middle" class="body">$25-50</text>
  <text x="1500" y="1955" text-anchor="middle" class="body">$125-1,250</text>
  <text x="1900" y="1955" text-anchor="middle" class="body">$500-5,000</text>
  <text x="2300" y="1955" text-anchor="middle" class="small">Agency reps</text>

  <line x1="100" y1="1970" x2="2450" y2="1970" stroke="#222222" stroke-width="0.5"/>
  <text x="300" y="2000" text-anchor="middle" class="body">25K+</text>
  <text x="700" y="2000" text-anchor="middle" class="body">Large</text>
  <text x="1100" y="2000" text-anchor="middle" class="body">$30-50+</text>
  <text x="1500" y="2000" text-anchor="middle" class="body">$750-1,250+</text>
  <text x="1900" y="2000" text-anchor="middle" class="body">$3,000-5,000+</text>
  <text x="2300" y="2000" text-anchor="middle" class="small">Brands come to you</text>

  <!-- Revenue Tracker -->
  <text x="100" y="2080" class="section-num">REVENUE TRACKER</text>
  <line x1="100" y1="2095" x2="2450" y2="2095" stroke="#007AFF" stroke-width="1"/>

  <rect x="100" y="2120" width="380" height="100" rx="4" fill="#111111"/>
  <text x="290" y="2170" text-anchor="middle" class="metric-value">$____</text>
  <text x="290" y="2200" text-anchor="middle" class="metric-label">MONTHLY REVENUE</text>

  <rect x="510" y="2120" width="380" height="100" rx="4" fill="#111111"/>
  <text x="700" y="2170" text-anchor="middle" class="metric-value">____</text>
  <text x="700" y="2200" text-anchor="middle" class="metric-label">DOWNLOADS PER EP</text>

  <rect x="920" y="2120" width="380" height="100" rx="4" fill="#111111"/>
  <text x="1110" y="2170" text-anchor="middle" class="metric-value">____</text>
  <text x="1110" y="2200" text-anchor="middle" class="metric-label">TOTAL EPISODES</text>

  <rect x="1330" y="2120" width="380" height="100" rx="4" fill="#111111"/>
  <text x="1520" y="2170" text-anchor="middle" class="metric-value">____</text>
  <text x="1520" y="2200" text-anchor="middle" class="metric-label">SUBSCRIBERS</text>

  <rect x="1740" y="2120" width="380" height="100" rx="4" fill="#111111"/>
  <text x="1930" y="2170" text-anchor="middle" class="metric-value">____</text>
  <text x="1930" y="2200" text-anchor="middle" class="metric-label">SPONSORS</text>

  <!-- Footer -->
  <line x1="100" y1="3200" x2="2450" y2="3200" stroke="#333333" stroke-width="0.5"/>
  <text x="1275" y="3240" text-anchor="middle" class="footer">behike.co</text>
</svg>