<?xml version="1.0" encoding="UTF-8"?>
<svg xmlns="http://www.w3.org/2000/svg" viewBox="0 0 2550 3300" width="2550" height="3300">
  <defs>
    <style>
      text { font-family: 'Helvetica Neue', Helvetica, Arial, sans-serif; fill: #ffffff; }
      .title { font-size: 56px; font-weight: 700; letter-spacing: 3px; }
      .subtitle { font-size: 24px; fill: #999999; letter-spacing: 2px; font-weight: 300; }
      .section-title { font-size: 32px; font-weight: 700; fill: #007AFF; letter-spacing: 1px; }
      .section-num { font-size: 28px; font-weight: 300; fill: #007AFF; letter-spacing: 2px; }
      .body { font-size: 18px; fill: #999999; }
      .body-white { font-size: 18px; fill: #ffffff; }
      .body-bold { font-size: 18px; fill: #ffffff; font-weight: 600; }
      .small { font-size: 15px; fill: #999999; }
      .small-white { font-size: 15px; fill: #ffffff; }
      .checkbox { font-size: 16px; fill: #999999; }
      .metric-value { font-size: 36px; font-weight: 700; fill: #ffffff; }
      .metric-label { font-size: 14px; fill: #999999; letter-spacing: 1px; text-transform: uppercase; }
      .hub-label { font-size: 20px; font-weight: 600; fill: #ffffff; }
      .footer { font-size: 16px; fill: #999999; letter-spacing: 3px; }
    </style>
  </defs>

  <rect width="2550" height="3300" fill="#000000"/>
  <rect x="40" y="40" width="2470" height="3220" fill="none" stroke="#333333" stroke-width="1"/>

  <!-- Header -->
  <text x="1275" y="130" text-anchor="middle" class="title">CRYPTO INVESTMENT</text>
  <text x="1275" y="185" text-anchor="middle" class="title">BLUEPRINT</text>
  <line x1="400" y1="210" x2="2150" y2="210" stroke="#007AFF" stroke-width="2"/>
  <text x="1275" y="250" text-anchor="middle" class="subtitle">SYSTEMATIC APPROACH TO CRYPTOCURRENCY INVESTING</text>

  <!-- SECTION 1: RESEARCH FRAMEWORK (Hub-Spoke) -->
  <text x="100" y="330" class="section-num">01</text>
  <text x="160" y="330" class="section-title">RESEARCH FRAMEWORK</text>
  <line x1="100" y1="345" x2="1200" y2="345" stroke="#007AFF" stroke-width="1"/>

  <circle cx="640" cy="530" r="70" fill="none" stroke="#007AFF" stroke-width="2"/>
  <text x="640" y="524" text-anchor="middle" class="hub-label">DUE</text>
  <text x="640" y="548" text-anchor="middle" class="hub-label">DILIGENCE</text>

  <line x1="570" y1="505" x2="220" y2="400" stroke="#333333" stroke-width="1"/>
  <circle cx="220" cy="400" r="5" fill="#007AFF"/>
  <rect x="100" y="375" width="240" height="55" rx="4" fill="none" stroke="#ffffff" stroke-width="1"/>
  <text x="220" y="408" text-anchor="middle" class="body-bold">Team / Founders</text>

  <line x1="575" y1="475" x2="220" y2="490" stroke="#333333" stroke-width="1"/>
  <circle cx="220" cy="490" r="5" fill="#007AFF"/>
  <rect x="100" y="465" width="240" height="55" rx="4" fill="none" stroke="#ffffff" stroke-width="1"/>
  <text x="220" y="498" text-anchor="middle" class="body-bold">Tokenomics</text>

  <line x1="575" y1="560" x2="220" y2="580" stroke="#333333" stroke-width="1"/>
  <circle cx="220" cy="580" r="5" fill="#007AFF"/>
  <rect x="100" y="555" width="240" height="55" rx="4" fill="none" stroke="#ffffff" stroke-width="1"/>
  <text x="220" y="588" text-anchor="middle" class="body-bold">Technology / Code</text>

  <line x1="580" y1="600" x2="220" y2="670" stroke="#333333" stroke-width="1"/>
  <circle cx="220" cy="670" r="5" fill="#007AFF"/>
  <rect x="100" y="645" width="240" height="55" rx="4" fill="none" stroke="#ffffff" stroke-width="1"/>
  <text x="220" y="678" text-anchor="middle" class="body-bold">Community</text>

  <line x1="710" y1="505" x2="1060" y2="400" stroke="#333333" stroke-width="1"/>
  <circle cx="1060" cy="400" r="5" fill="#007AFF"/>
  <rect x="940" y="375" width="240" height="55" rx="4" fill="none" stroke="#ffffff" stroke-width="1"/>
  <text x="1060" y="408" text-anchor="middle" class="body-bold">Use Case / Utility</text>

  <line x1="710" y1="540" x2="1060" y2="490" stroke="#333333" stroke-width="1"/>
  <circle cx="1060" cy="490" r="5" fill="#007AFF"/>
  <rect x="940" y="465" width="240" height="55" rx="4" fill="none" stroke="#ffffff" stroke-width="1"/>
  <text x="1060" y="498" text-anchor="middle" class="body-bold">Market Cap / TVL</text>

  <line x1="710" y1="560" x2="1060" y2="580" stroke="#333333" stroke-width="1"/>
  <circle cx="1060" cy="580" r="5" fill="#007AFF"/>
  <rect x="940" y="555" width="240" height="55" rx="4" fill="none" stroke="#ffffff" stroke-width="1"/>
  <text x="1060" y="588" text-anchor="middle" class="body-bold">Competitors</text>

  <line x1="700" y1="590" x2="1060" y2="670" stroke="#333333" stroke-width="1"/>
  <circle cx="1060" cy="670" r="5" fill="#007AFF"/>
  <rect x="940" y="645" width="240" height="55" rx="4" fill="none" stroke="#ffffff" stroke-width="1"/>
  <text x="1060" y="678" text-anchor="middle" class="body-bold">Audit / Security</text>

  <!-- Research checklist -->
  <rect x="100" y="730" width="16" height="16" rx="2" fill="none" stroke="#999999" stroke-width="1"/>
  <text x="130" y="744" class="checkbox">Read the whitepaper (or summary)</text>
  <rect x="100" y="760" width="16" height="16" rx="2" fill="none" stroke="#999999" stroke-width="1"/>
  <text x="130" y="774" class="checkbox">Check CoinGecko / CoinMarketCap fundamentals</text>
  <rect x="100" y="790" width="16" height="16" rx="2" fill="none" stroke="#999999" stroke-width="1"/>
  <text x="130" y="804" class="checkbox">Review GitHub activity (is it actively developed?)</text>

  <!-- SECTION 2: PORTFOLIO ALLOCATION -->
  <text x="1350" y="330" class="section-num">02</text>
  <text x="1410" y="330" class="section-title">PORTFOLIO ALLOCATION</text>
  <line x1="1350" y1="345" x2="2450" y2="345" stroke="#007AFF" stroke-width="1"/>

  <!-- Allocation bars -->
  <text x="1350" y="395" class="body-bold">Core Holdings (50-60%)</text>
  <rect x="1350" y="405" width="1100" height="18" rx="9" fill="#222222"/>
  <rect x="1350" y="405" width="660" height="18" rx="9" fill="#007AFF"/>
  <text x="1370" y="419" class="small-white">BTC + ETH</text>

  <text x="1350" y="455" class="body-bold">Growth (20-30%)</text>
  <rect x="1350" y="465" width="1100" height="18" rx="9" fill="#222222"/>
  <rect x="1350" y="465" width="330" height="18" rx="9" fill="#007AFF" opacity="0.7"/>
  <text x="1370" y="479" class="small-white">L1s, L2s, DeFi blue chips</text>

  <text x="1350" y="515" class="body-bold">Speculative (10-15%)</text>
  <rect x="1350" y="525" width="1100" height="18" rx="9" fill="#222222"/>
  <rect x="1350" y="525" width="165" height="18" rx="9" fill="#007AFF" opacity="0.5"/>
  <text x="1370" y="539" class="small-white">Small caps, new narratives</text>

  <text x="1350" y="575" class="body-bold">Stablecoins / Cash (5-10%)</text>
  <rect x="1350" y="585" width="1100" height="18" rx="9" fill="#222222"/>
  <rect x="1350" y="585" width="110" height="18" rx="9" fill="#007AFF" opacity="0.3"/>
  <text x="1370" y="599" class="small-white">USDC, dry powder</text>

  <!-- Allocation table -->
  <rect x="1350" y="640" width="1100" height="40" rx="0" fill="#111111"/>
  <text x="1500" y="666" text-anchor="middle" class="body-bold">ASSET</text>
  <text x="1750" y="666" text-anchor="middle" class="body-bold">TARGET %</text>
  <text x="1950" y="666" text-anchor="middle" class="body-bold">ACTUAL %</text>
  <text x="2200" y="666" text-anchor="middle" class="body-bold">VALUE</text>

  <line x1="1350" y1="680" x2="2450" y2="680" stroke="#333333" stroke-width="0.5"/>
  <text x="1500" y="708" text-anchor="middle" class="body">Bitcoin (BTC)</text>
  <text x="1750" y="708" text-anchor="middle" class="body">30-40%</text>
  <text x="1950" y="708" text-anchor="middle" class="body">____%</text>
  <text x="2200" y="708" text-anchor="middle" class="body">$_____</text>

  <line x1="1350" y1="723" x2="2450" y2="723" stroke="#222222" stroke-width="0.5"/>
  <text x="1500" y="751" text-anchor="middle" class="body">Ethereum (ETH)</text>
  <text x="1750" y="751" text-anchor="middle" class="body">20-30%</text>
  <text x="1950" y="751" text-anchor="middle" class="body">____%</text>
  <text x="2200" y="751" text-anchor="middle" class="body">$_____</text>

  <line x1="1350" y1="766" x2="2450" y2="766" stroke="#222222" stroke-width="0.5"/>
  <text x="1500" y="794" text-anchor="middle" class="body">Altcoins</text>
  <text x="1750" y="794" text-anchor="middle" class="body">20-30%</text>
  <text x="1950" y="794" text-anchor="middle" class="body">____%</text>
  <text x="2200" y="794" text-anchor="middle" class="body">$_____</text>

  <line x1="1350" y1="809" x2="2450" y2="809" stroke="#222222" stroke-width="0.5"/>
  <text x="1500" y="837" text-anchor="middle" class="body">Stablecoins</text>
  <text x="1750" y="837" text-anchor="middle" class="body">5-10%</text>
  <text x="1950" y="837" text-anchor="middle" class="body">____%</text>
  <text x="2200" y="837" text-anchor="middle" class="body">$_____</text>

  <!-- SECTION 3: RISK MANAGEMENT -->
  <text x="100" y="900" class="section-num">03</text>
  <text x="160" y="900" class="section-title">RISK MANAGEMENT</text>
  <line x1="100" y1="915" x2="2450" y2="915" stroke="#007AFF" stroke-width="1"/>

  <!-- Risk rules -->
  <rect x="100" y="940" width="1100" height="55" rx="4" fill="none" stroke="#007AFF" stroke-width="1.5"/>
  <text x="200" y="973" class="body-bold">Rule 1:</text>
  <text x="320" y="973" class="body">Never invest more than you can afford to lose completely</text>

  <rect x="100" y="1015" width="1100" height="55" rx="4" fill="none" stroke="#ffffff" stroke-width="1"/>
  <text x="200" y="1048" class="body-bold">Rule 2:</text>
  <text x="320" y="1048" class="body">Dollar-cost average (DCA) into positions over weeks/months</text>

  <rect x="100" y="1090" width="1100" height="55" rx="4" fill="none" stroke="#ffffff" stroke-width="1"/>
  <text x="200" y="1123" class="body-bold">Rule 3:</text>
  <text x="320" y="1123" class="body">Set stop-losses at 15-25% below entry for speculative plays</text>

  <rect x="100" y="1165" width="1100" height="55" rx="4" fill="none" stroke="#ffffff" stroke-width="1"/>
  <text x="200" y="1198" class="body-bold">Rule 4:</text>
  <text x="320" y="1198" class="body">Take profits at predetermined targets (2x, 3x, 5x)</text>

  <rect x="100" y="1240" width="1100" height="55" rx="4" fill="none" stroke="#ffffff" stroke-width="1"/>
  <text x="200" y="1273" class="body-bold">Rule 5:</text>
  <text x="320" y="1273" class="body">No single altcoin should be more than 10% of portfolio</text>

  <rect x="100" y="1315" width="1100" height="55" rx="4" fill="none" stroke="#ffffff" stroke-width="1"/>
  <text x="200" y="1348" class="body-bold">Rule 6:</text>
  <text x="320" y="1348" class="body">Rebalance quarterly or after 20%+ deviation from targets</text>

  <!-- Profit-taking strategy -->
  <rect x="1350" y="940" width="1100" height="430" rx="4" fill="#111111"/>
  <text x="1900" y="980" text-anchor="middle" class="section-title">PROFIT-TAKING LADDER</text>
  <line x1="1380" y1="995" x2="2420" y2="995" stroke="#007AFF" stroke-width="0.5"/>

  <text x="1400" y="1035" class="body-bold">At 2x:</text>
  <text x="1520" y="1035" class="body">Sell 25% (recover initial investment)</text>

  <text x="1400" y="1075" class="body-bold">At 3x:</text>
  <text x="1520" y="1075" class="body">Sell another 25% (pure profit from here)</text>

  <text x="1400" y="1115" class="body-bold">At 5x:</text>
  <text x="1520" y="1115" class="body">Sell another 25% (lock in gains)</text>

  <text x="1400" y="1155" class="body-bold">At 10x:</text>
  <text x="1520" y="1155" class="body">Sell remaining or hold with trailing stop</text>

  <text x="1400" y="1215" class="body-bold">Reinvestment:</text>
  <text x="1400" y="1245" class="body">50% profits to stablecoins</text>
  <text x="1400" y="1275" class="body">30% profits to BTC/ETH</text>
  <text x="1400" y="1305" class="body">20% profits to next opportunity</text>
  <text x="1400" y="1345" class="small">Always keep tax obligations in mind</text>

  <!-- SECTION 4: DEFI STRATEGIES -->
  <text x="100" y="1450" class="section-num">04</text>
  <text x="160" y="1450" class="section-title">DEFI STRATEGIES</text>
  <line x1="100" y1="1465" x2="1200" y2="1465" stroke="#007AFF" stroke-width="1"/>

  <rect x="100" y="1490" width="1100" height="55" rx="4" fill="none" stroke="#007AFF" stroke-width="1.5"/>
  <text x="300" y="1523" text-anchor="middle" class="body-bold">Staking</text>
  <text x="700" y="1523" class="small">Lock tokens for network validation. 3-15% APY. Low risk.</text>

  <rect x="100" y="1565" width="1100" height="55" rx="4" fill="none" stroke="#ffffff" stroke-width="1"/>
  <text x="300" y="1598" text-anchor="middle" class="body-bold">Lending</text>
  <text x="700" y="1598" class="small">Lend assets on Aave/Compound. 2-8% APY. Medium risk.</text>

  <rect x="100" y="1640" width="1100" height="55" rx="4" fill="none" stroke="#ffffff" stroke-width="1"/>
  <text x="300" y="1673" text-anchor="middle" class="body-bold">Liquidity Pools</text>
  <text x="700" y="1673" class="small">Provide liquidity for DEXs. 5-50%+ APY. Higher risk (IL).</text>

  <rect x="100" y="1715" width="1100" height="55" rx="4" fill="none" stroke="#ffffff" stroke-width="1"/>
  <text x="300" y="1748" text-anchor="middle" class="body-bold">Yield Farming</text>
  <text x="700" y="1748" class="small">Stack yields across protocols. 10-100%+ APY. High risk.</text>

  <!-- SECTION 5: TAX CONSIDERATIONS -->
  <text x="1350" y="1450" class="section-num">05</text>
  <text x="1410" y="1450" class="section-title">TAX CONSIDERATIONS</text>
  <line x1="1350" y1="1465" x2="2450" y2="1465" stroke="#007AFF" stroke-width="1"/>

  <rect x="1350" y="1490" width="16" height="16" rx="2" fill="none" stroke="#999999" stroke-width="1"/>
  <text x="1380" y="1504" class="checkbox">Track every trade with CoinTracker or Koinly</text>
  <rect x="1350" y="1520" width="16" height="16" rx="2" fill="none" stroke="#999999" stroke-width="1"/>
  <text x="1380" y="1534" class="checkbox">Short-term gains taxed as income (&lt;1 year hold)</text>
  <rect x="1350" y="1550" width="16" height="16" rx="2" fill="none" stroke="#999999" stroke-width="1"/>
  <text x="1380" y="1564" class="checkbox">Long-term gains lower rate (1+ year hold)</text>
  <rect x="1350" y="1580" width="16" height="16" rx="2" fill="none" stroke="#999999" stroke-width="1"/>
  <text x="1380" y="1594" class="checkbox">Tax-loss harvesting: sell losers to offset gains</text>
  <rect x="1350" y="1610" width="16" height="16" rx="2" fill="none" stroke="#999999" stroke-width="1"/>
  <text x="1380" y="1624" class="checkbox">Set aside 25-35% of realized gains for taxes</text>
  <rect x="1350" y="1640" width="16" height="16" rx="2" fill="none" stroke="#999999" stroke-width="1"/>
  <text x="1380" y="1654" class="checkbox">Consult a crypto-savvy CPA</text>
  <rect x="1350" y="1670" width="16" height="16" rx="2" fill="none" stroke="#999999" stroke-width="1"/>
  <text x="1380" y="1684" class="checkbox">Know your jurisdiction's tax rules and benefits</text>
  <rect x="1350" y="1700" width="16" height="16" rx="2" fill="none" stroke="#999999" stroke-width="1"/>
  <text x="1380" y="1714" class="checkbox">Keep records for 7+ years</text>

  <!-- SECTION 6: SECURITY -->
  <text x="100" y="1850" class="section-num">06</text>
  <text x="160" y="1850" class="section-title">SECURITY CHECKLIST</text>
  <line x1="100" y1="1865" x2="1200" y2="1865" stroke="#007AFF" stroke-width="1"/>

  <rect x="100" y="1890" width="16" height="16" rx="2" fill="none" stroke="#999999" stroke-width="1"/>
  <text x="130" y="1904" class="checkbox">Hardware wallet for holdings over $1K (Ledger / Trezor)</text>
  <rect x="100" y="1920" width="16" height="16" rx="2" fill="none" stroke="#999999" stroke-width="1"/>
  <text x="130" y="1934" class="checkbox">Unique email for crypto exchanges only</text>
  <rect x="100" y="1950" width="16" height="16" rx="2" fill="none" stroke="#999999" stroke-width="1"/>
  <text x="130" y="1964" class="checkbox">2FA on everything (authenticator app, not SMS)</text>
  <rect x="100" y="1980" width="16" height="16" rx="2" fill="none" stroke="#999999" stroke-width="1"/>
  <text x="130" y="1994" class="checkbox">Seed phrase stored offline in 2+ locations</text>
  <rect x="100" y="2010" width="16" height="16" rx="2" fill="none" stroke="#999999" stroke-width="1"/>
  <text x="130" y="2024" class="checkbox">Never share seed phrase or private keys</text>
  <rect x="100" y="2040" width="16" height="16" rx="2" fill="none" stroke="#999999" stroke-width="1"/>
  <text x="130" y="2054" class="checkbox">Verify URLs before connecting wallet</text>
  <rect x="100" y="2070" width="16" height="16" rx="2" fill="none" stroke="#999999" stroke-width="1"/>
  <text x="130" y="2084" class="checkbox">Use separate wallet for DeFi interactions</text>
  <rect x="100" y="2100" width="16" height="16" rx="2" fill="none" stroke="#999999" stroke-width="1"/>
  <text x="130" y="2114" class="checkbox">Revoke unused token approvals regularly</text>

  <!-- SECTION 7: EXIT STRATEGY -->
  <text x="1350" y="1850" class="section-num">07</text>
  <text x="1410" y="1850" class="section-title">EXIT STRATEGY</text>
  <line x1="1350" y1="1865" x2="2450" y2="1865" stroke="#007AFF" stroke-width="1"/>

  <!-- Exit timeline -->
  <line x1="1500" y1="1910" x2="1500" y2="2160" stroke="#333333" stroke-width="2"/>

  <circle cx="1500" cy="1930" r="8" fill="#007AFF"/>
  <text x="1530" y="1925" class="body-bold">Bull Market Top Signals</text>
  <text x="1530" y="1950" class="small">Extreme greed index, mainstream media hype, taxi driver test</text>

  <circle cx="1500" cy="2000" r="8" fill="#007AFF"/>
  <text x="1530" y="1995" class="body-bold">Gradual Exit (DCA Out)</text>
  <text x="1530" y="2020" class="small">Sell 10-20% monthly during euphoria phase</text>

  <circle cx="1500" cy="2070" r="8" fill="#007AFF"/>
  <text x="1530" y="2065" class="body-bold">Profit Deployment</text>
  <text x="1530" y="2090" class="small">Real estate, index funds, business investment, stablecoins</text>

  <circle cx="1500" cy="2140" r="8" fill="#007AFF"/>
  <text x="1530" y="2135" class="body-bold">Bear Market Strategy</text>
  <text x="1530" y="2160" class="small">DCA back in during fear. Accumulate fundamentally strong assets.</text>

  <!-- Revenue Tracker -->
  <text x="100" y="2200" class="section-num">PORTFOLIO TRACKER</text>
  <line x1="100" y1="2215" x2="2450" y2="2215" stroke="#007AFF" stroke-width="1"/>

  <rect x="100" y="2240" width="380" height="100" rx="4" fill="#111111"/>
  <text x="290" y="2290" text-anchor="middle" class="metric-value">$____</text>
  <text x="290" y="2320" text-anchor="middle" class="metric-label">TOTAL PORTFOLIO VALUE</text>

  <rect x="510" y="2240" width="380" height="100" rx="4" fill="#111111"/>
  <text x="700" y="2290" text-anchor="middle" class="metric-value">$____</text>
  <text x="700" y="2320" text-anchor="middle" class="metric-label">TOTAL INVESTED</text>

  <rect x="920" y="2240" width="380" height="100" rx="4" fill="#111111"/>
  <text x="1110" y="2290" text-anchor="middle" class="metric-value">____%</text>
  <text x="1110" y="2320" text-anchor="middle" class="metric-label">TOTAL ROI</text>

  <rect x="1330" y="2240" width="380" height="100" rx="4" fill="#111111"/>
  <text x="1520" y="2290" text-anchor="middle" class="metric-value">$____</text>
  <text x="1520" y="2320" text-anchor="middle" class="metric-label">REALIZED GAINS</text>

  <rect x="1740" y="2240" width="380" height="100" rx="4" fill="#111111"/>
  <text x="1930" y="2290" text-anchor="middle" class="metric-value">$____</text>
  <text x="1930" y="2320" text-anchor="middle" class="metric-label">DEFI YIELD / MO</text>

  <rect x="2150" y="2240" width="280" height="100" rx="4" fill="#111111"/>
  <text x="2290" y="2290" text-anchor="middle" class="metric-value">____</text>
  <text x="2290" y="2320" text-anchor="middle" class="metric-label">POSITIONS</text>

  <!-- Monthly tracker -->
  <rect x="100" y="2380" width="2350" height="40" rx="0" fill="#111111"/>
  <text x="220" y="2406" text-anchor="middle" class="body-bold">MONTH</text>
  <text x="500" y="2406" text-anchor="middle" class="body-bold">PORTFOLIO</text>
  <text x="780" y="2406" text-anchor="middle" class="body-bold">INVESTED</text>
  <text x="1060" y="2406" text-anchor="middle" class="body-bold">P/L</text>
  <text x="1340" y="2406" text-anchor="middle" class="body-bold">BTC %</text>
  <text x="1620" y="2406" text-anchor="middle" class="body-bold">ETH %</text>
  <text x="1900" y="2406" text-anchor="middle" class="body-bold">ALTS %</text>
  <text x="2180" y="2406" text-anchor="middle" class="body-bold">STABLE %</text>

  <line x1="100" y1="2420" x2="2450" y2="2420" stroke="#333333" stroke-width="0.5"/>
  <text x="220" y="2448" text-anchor="middle" class="body">Month 1</text>
  <text x="500" y="2448" text-anchor="middle" class="body">$_____</text>
  <text x="780" y="2448" text-anchor="middle" class="body">$_____</text>
  <text x="1060" y="2448" text-anchor="middle" class="body">$_____</text>
  <text x="1340" y="2448" text-anchor="middle" class="body">____%</text>
  <text x="1620" y="2448" text-anchor="middle" class="body">____%</text>
  <text x="1900" y="2448" text-anchor="middle" class="body">____%</text>
  <text x="2180" y="2448" text-anchor="middle" class="body">____%</text>

  <line x1="100" y1="2465" x2="2450" y2="2465" stroke="#222222" stroke-width="0.5"/>
  <text x="220" y="2493" text-anchor="middle" class="body">Month 2</text>
  <text x="500" y="2493" text-anchor="middle" class="body">$_____</text>
  <text x="780" y="2493" text-anchor="middle" class="body">$_____</text>
  <text x="1060" y="2493" text-anchor="middle" class="body">$_____</text>
  <text x="1340" y="2493" text-anchor="middle" class="body">____%</text>
  <text x="1620" y="2493" text-anchor="middle" class="body">____%</text>
  <text x="1900" y="2493" text-anchor="middle" class="body">____%</text>
  <text x="2180" y="2493" text-anchor="middle" class="body">____%</text>

  <line x1="100" y1="2510" x2="2450" y2="2510" stroke="#222222" stroke-width="0.5"/>
  <text x="220" y="2538" text-anchor="middle" class="body">Month 3</text>
  <text x="500" y="2538" text-anchor="middle" class="body">$_____</text>
  <text x="780" y="2538" text-anchor="middle" class="body">$_____</text>
  <text x="1060" y="2538" text-anchor="middle" class="body">$_____</text>
  <text x="1340" y="2538" text-anchor="middle" class="body">____%</text>
  <text x="1620" y="2538" text-anchor="middle" class="body">____%</text>
  <text x="1900" y="2538" text-anchor="middle" class="body">____%</text>
  <text x="2180" y="2538" text-anchor="middle" class="body">____%</text>

  <!-- Footer -->
  <line x1="100" y1="3200" x2="2450" y2="3200" stroke="#333333" stroke-width="0.5"/>
  <text x="1275" y="3240" text-anchor="middle" class="footer">behike.co</text>
</svg>