<?xml version="1.0" encoding="UTF-8"?>
<svg xmlns="http://www.w3.org/2000/svg" viewBox="0 0 2400 1800" width="2400" height="1800">
  <defs>
    <style>
      text { font-family: 'Helvetica Neue', Helvetica, Arial, sans-serif; fill: #fff; }
      .title { font-size: 28px; font-weight: bold; letter-spacing: 4px; }
      .subtitle { font-size: 14px; fill: #999; letter-spacing: 2px; }
      .section-title { font-size: 16px; font-weight: bold; letter-spacing: 1px; }
      .body { font-size: 12px; fill: #999; }
      .body-white { font-size: 12px; fill: #fff; }
      .small { font-size: 10px; fill: #999; }
      .checkbox { font-size: 11px; fill: #999; }
      .table-head { font-size: 11px; font-weight: bold; fill: #fff; }
      .table-cell { font-size: 10px; fill: #999; }
      .hub-label { font-size: 18px; font-weight: bold; letter-spacing: 2px; }
      .price { font-size: 12px; fill: #999; letter-spacing: 1px; }
      .ladder-label { font-size: 11px; font-weight: bold; }
      .accent { font-size: 14px; font-weight: bold; }
    </style>
  </defs>

  <!-- Background -->
  <rect width="2400" height="1800" fill="#000"/>

  <!-- Border -->
  <rect x="30" y="30" width="2340" height="1740" fill="none" stroke="#333" stroke-width="1"/>
  <rect x="35" y="35" width="2330" height="1730" fill="none" stroke="#222" stroke-width="0.5"/>

  <!-- Header -->
  <text x="1200" y="80" text-anchor="middle" class="title">CONTENT CREATOR BLUEPRINT</text>
  <line x1="400" y1="95" x2="2000" y2="95" stroke="#333" stroke-width="0.5"/>
  <text x="1200" y="115" text-anchor="middle" class="subtitle">BUILD AN AUDIENCE. MONETIZE YOUR KNOWLEDGE. OWN YOUR INCOME.</text>

  <!-- ============================================ -->
  <!-- Central Hub: YOUR BRAND -->
  <!-- ============================================ -->

  <circle cx="1200" cy="420" r="80" fill="none" stroke="#fff" stroke-width="1.5"/>
  <circle cx="1200" cy="420" r="75" fill="none" stroke="#333" stroke-width="0.5"/>
  <text x="1200" y="412" text-anchor="middle" class="hub-label">YOUR</text>
  <text x="1200" y="434" text-anchor="middle" class="hub-label">BRAND</text>
  <text x="1200" y="455" text-anchor="middle" class="small">( center )</text>

  <!-- ============================================ -->
  <!-- SECTION 1: Niche Selection (top-left) -->
  <!-- ============================================ -->

  <!-- Connector -->
  <path d="M 1125,370 C 950,300 700,250 530,220" fill="none" stroke="#999" stroke-width="1" stroke-dasharray="4,4"/>
  <circle cx="530" cy="220" r="3" fill="#999"/>

  <rect x="80" y="150" width="480" height="220" rx="3" fill="none" stroke="#fff" stroke-width="1"/>
  <text x="320" y="180" text-anchor="middle" class="section-title">01 / NICHE SELECTION</text>
  <line x1="100" y1="192" x2="540" y2="192" stroke="#333" stroke-width="0.5"/>

  <text x="100" y="215" class="body">Primary Niche:</text>
  <rect x="260" y="202" width="280" height="18" rx="2" fill="none" stroke="#333" stroke-width="0.5"/>

  <text x="100" y="240" class="body">Sub-Niche:</text>
  <rect x="260" y="227" width="280" height="18" rx="2" fill="none" stroke="#333" stroke-width="0.5"/>

  <text x="100" y="268" class="body">Target Audience:</text>
  <rect x="100" y="278" width="440" height="30" rx="2" fill="none" stroke="#333" stroke-width="0.5"/>

  <text x="100" y="328" class="body">Validation:</text>
  <text x="100" y="348" class="checkbox">[ ] Demand exists (search volume)    [ ] Competition is beatable</text>
  <text x="100" y="365" class="checkbox">[ ] You have expertise/passion       [ ] Monetizable</text>

  <!-- ============================================ -->
  <!-- SECTION 2: Platform Strategy (top-right) -->
  <!-- ============================================ -->

  <!-- Connector -->
  <path d="M 1275,370 C 1450,300 1700,250 1870,220" fill="none" stroke="#999" stroke-width="1" stroke-dasharray="4,4"/>
  <circle cx="1870" cy="220" r="3" fill="#999"/>

  <rect x="1560" y="150" width="520" height="220" rx="3" fill="none" stroke="#fff" stroke-width="1"/>
  <text x="1820" y="180" text-anchor="middle" class="section-title">02 / PLATFORM STRATEGY</text>
  <line x1="1580" y1="192" x2="2060" y2="192" stroke="#333" stroke-width="0.5"/>

  <!-- Three platform tiers -->
  <rect x="1580" y="210" width="150" height="70" rx="3" fill="none" stroke="#fff" stroke-width="1.5"/>
  <text x="1655" y="235" text-anchor="middle" class="body-white">PRIMARY</text>
  <text x="1655" y="255" text-anchor="middle" class="small">Main content home</text>
  <rect x="1590" y="262" width="130" height="14" rx="2" fill="none" stroke="#333" stroke-width="0.5"/>

  <rect x="1750" y="210" width="150" height="70" rx="3" fill="none" stroke="#999" stroke-width="1"/>
  <text x="1825" y="235" text-anchor="middle" class="body-white">SECONDARY</text>
  <text x="1825" y="255" text-anchor="middle" class="small">Repurpose + reach</text>
  <rect x="1760" y="262" width="130" height="14" rx="2" fill="none" stroke="#333" stroke-width="0.5"/>

  <rect x="1920" y="210" width="150" height="70" rx="3" fill="none" stroke="#999" stroke-width="1"/>
  <text x="1995" y="235" text-anchor="middle" class="body-white">COMMUNITY</text>
  <text x="1995" y="255" text-anchor="middle" class="small">Deep engagement</text>
  <rect x="1930" y="262" width="130" height="14" rx="2" fill="none" stroke="#333" stroke-width="0.5"/>

  <!-- Flow arrows between platforms -->
  <path d="M 1730,245 L 1750,245" fill="none" stroke="#999" stroke-width="0.5"/>
  <path d="M 1900,245 L 1920,245" fill="none" stroke="#999" stroke-width="0.5"/>

  <text x="1580" y="310" class="body">Platform Options:</text>
  <text x="1580" y="330" class="checkbox">[ ] YouTube   [ ] Twitter/X   [ ] Instagram   [ ] TikTok</text>
  <text x="1580" y="350" class="checkbox">[ ] Podcast   [ ] Newsletter  [ ] Blog        [ ] Discord</text>

  <!-- ============================================ -->
  <!-- SECTION 3: Content Calendar (left) -->
  <!-- ============================================ -->

  <!-- Connector -->
  <path d="M 1120,420 C 900,420 700,430 560,440" fill="none" stroke="#999" stroke-width="1" stroke-dasharray="4,4"/>
  <circle cx="560" cy="440" r="3" fill="#999"/>

  <rect x="80" y="410" width="480" height="280" rx="3" fill="none" stroke="#fff" stroke-width="1"/>
  <text x="320" y="440" text-anchor="middle" class="section-title">03 / CONTENT CALENDAR</text>
  <line x1="100" y1="452" x2="540" y2="452" stroke="#333" stroke-width="0.5"/>

  <text x="100" y="475" class="body">Publishing Cadence:</text>
  <text x="100" y="495" class="checkbox">[ ] Daily    [ ] 3x/week    [ ] Weekly    [ ] Bi-weekly</text>

  <text x="100" y="525" class="body-white">WEEKLY CONTENT MAP</text>
  <text x="100" y="545" class="body">MON:</text>
  <rect x="160" y="532" width="380" height="16" rx="2" fill="none" stroke="#333" stroke-width="0.5"/>
  <text x="100" y="565" class="body">TUE:</text>
  <rect x="160" y="552" width="380" height="16" rx="2" fill="none" stroke="#333" stroke-width="0.5"/>
  <text x="100" y="585" class="body">WED:</text>
  <rect x="160" y="572" width="380" height="16" rx="2" fill="none" stroke="#333" stroke-width="0.5"/>
  <text x="100" y="605" class="body">THU:</text>
  <rect x="160" y="592" width="380" height="16" rx="2" fill="none" stroke="#333" stroke-width="0.5"/>
  <text x="100" y="625" class="body">FRI:</text>
  <rect x="160" y="612" width="380" height="16" rx="2" fill="none" stroke="#333" stroke-width="0.5"/>

  <line x1="100" y1="638" x2="540" y2="638" stroke="#333" stroke-width="0.5"/>

  <text x="100" y="658" class="body">Content Pillars (3-5 topics):</text>
  <text x="100" y="675" class="checkbox">[ ] ________________  [ ] ________________  [ ] ________________</text>

  <!-- ============================================ -->
  <!-- SECTION 4: Monetization Ladder (right) -->
  <!-- ============================================ -->

  <!-- Connector -->
  <path d="M 1280,420 C 1500,420 1700,440 1840,450" fill="none" stroke="#999" stroke-width="1" stroke-dasharray="4,4"/>
  <circle cx="1840" cy="450" r="3" fill="#999"/>

  <rect x="1560" y="410" width="520" height="280" rx="3" fill="none" stroke="#fff" stroke-width="1"/>
  <text x="1820" y="440" text-anchor="middle" class="section-title">04 / MONETIZATION LADDER</text>
  <line x1="1580" y1="452" x2="2060" y2="452" stroke="#333" stroke-width="0.5"/>

  <!-- Ladder visualization (bottom to top) -->
  <rect x="1600" y="620" width="440" height="40" rx="3" fill="none" stroke="#999" stroke-width="1"/>
  <text x="1620" y="645" class="ladder-label">LEVEL 1: AD REVENUE</text>
  <text x="1920" y="645" class="small">$_______/mo</text>

  <path d="M 1820,620 C 1820,610 1820,605 1820,600" fill="none" stroke="#999" stroke-width="0.5"/>

  <rect x="1620" y="565" width="420" height="40" rx="3" fill="none" stroke="#999" stroke-width="1"/>
  <text x="1640" y="590" class="ladder-label">LEVEL 2: SPONSORSHIPS</text>
  <text x="1920" y="590" class="small">$_______/mo</text>

  <path d="M 1820,565 C 1820,555 1820,550 1820,545" fill="none" stroke="#999" stroke-width="0.5"/>

  <rect x="1640" y="510" width="400" height="40" rx="3" fill="none" stroke="#fff" stroke-width="1"/>
  <text x="1660" y="535" class="ladder-label">LEVEL 3: DIGITAL PRODUCTS</text>
  <text x="1920" y="535" class="small">$_______/mo</text>

  <path d="M 1820,510 C 1820,500 1820,495 1820,490" fill="none" stroke="#999" stroke-width="0.5"/>

  <rect x="1660" y="460" width="380" height="40" rx="3" fill="none" stroke="#fff" stroke-width="1.5"/>
  <text x="1680" y="485" class="ladder-label">LEVEL 4: COACHING / SERVICES</text>
  <text x="1920" y="485" class="small">$_______/mo</text>

  <!-- Arrow showing progression -->
  <line x1="1580" y1="670" x2="1580" y2="460" stroke="#333" stroke-width="0.5"/>
  <polygon points="1577,463 1580,455 1583,463" fill="#333"/>
  <text x="1585" y="680" class="small" transform="rotate(-90, 1585, 680)">INCREASING VALUE</text>

  <!-- ============================================ -->
  <!-- SECTION 5: Audience Growth (bottom-left) -->
  <!-- ============================================ -->

  <!-- Connector -->
  <path d="M 1150,495 C 1050,600 800,680 600,720" fill="none" stroke="#999" stroke-width="1" stroke-dasharray="4,4"/>
  <circle cx="600" cy="720" r="3" fill="#999"/>

  <rect x="80" y="730" width="520" height="260" rx="3" fill="none" stroke="#fff" stroke-width="1"/>
  <text x="340" y="760" text-anchor="middle" class="section-title">05 / AUDIENCE GROWTH</text>
  <line x1="100" y1="772" x2="580" y2="772" stroke="#333" stroke-width="0.5"/>

  <!-- Growth funnel -->
  <polygon points="200,790 480,790 440,815 240,815" fill="none" stroke="#fff" stroke-width="1"/>
  <text x="340" y="808" text-anchor="middle" class="small">DISCOVER (SEO, Algo, Collabs)</text>

  <polygon points="240,820 440,820 420,845 260,845" fill="none" stroke="#fff" stroke-width="1"/>
  <text x="340" y="838" text-anchor="middle" class="small">FOLLOW (Hook, Value, Consistency)</text>

  <polygon points="260,850 420,850 400,875 280,875" fill="none" stroke="#fff" stroke-width="1"/>
  <text x="340" y="868" text-anchor="middle" class="small">ENGAGE (Comment, Share, DM)</text>

  <polygon points="280,880 400,880 385,905 295,905" fill="none" stroke="#fff" stroke-width="1"/>
  <text x="340" y="898" text-anchor="middle" class="small">CONVERT (Buy, Join, Subscribe)</text>

  <text x="100" y="935" class="body">Growth Milestones:</text>
  <text x="100" y="955" class="checkbox">[ ] 100 followers         Date: ________</text>
  <text x="100" y="972" class="checkbox">[ ] 1,000 followers       Date: ________</text>

  <!-- ============================================ -->
  <!-- SECTION 6: Tech Stack (bottom-center-left) -->
  <!-- ============================================ -->

  <!-- Connector -->
  <path d="M 1200,500 C 1200,580 1000,650 900,720" fill="none" stroke="#999" stroke-width="1" stroke-dasharray="4,4"/>
  <circle cx="900" cy="720" r="3" fill="#999"/>

  <rect x="640" y="730" width="380" height="260" rx="3" fill="none" stroke="#fff" stroke-width="1"/>
  <text x="830" y="760" text-anchor="middle" class="section-title">06 / TECH STACK</text>
  <line x1="660" y1="772" x2="1000" y2="772" stroke="#333" stroke-width="0.5"/>

  <text x="660" y="795" class="body">Camera/Recording:</text>
  <rect x="660" y="802" width="340" height="16" rx="2" fill="none" stroke="#333" stroke-width="0.5"/>

  <text x="660" y="835" class="body">Editing Software:</text>
  <rect x="660" y="842" width="340" height="16" rx="2" fill="none" stroke="#333" stroke-width="0.5"/>

  <text x="660" y="875" class="body">Design Tool:</text>
  <rect x="660" y="882" width="340" height="16" rx="2" fill="none" stroke="#333" stroke-width="0.5"/>

  <text x="660" y="915" class="body">Email Platform:</text>
  <rect x="660" y="922" width="340" height="16" rx="2" fill="none" stroke="#333" stroke-width="0.5"/>

  <text x="660" y="955" class="body">Analytics:</text>
  <rect x="660" y="962" width="340" height="16" rx="2" fill="none" stroke="#333" stroke-width="0.5"/>

  <!-- ============================================ -->
  <!-- SECTION 7: Revenue Streams (bottom-center-right) -->
  <!-- ============================================ -->

  <!-- Connector -->
  <path d="M 1250,495 C 1350,600 1400,650 1400,720" fill="none" stroke="#999" stroke-width="1" stroke-dasharray="4,4"/>
  <circle cx="1400" cy="720" r="3" fill="#999"/>

  <rect x="1060" y="730" width="460" height="260" rx="3" fill="none" stroke="#fff" stroke-width="1"/>
  <text x="1290" y="760" text-anchor="middle" class="section-title">07 / REVENUE STREAMS</text>
  <line x1="1080" y1="772" x2="1500" y2="772" stroke="#333" stroke-width="0.5"/>

  <text x="1080" y="795" class="checkbox">[ ] Ad Revenue (YT/Blog)         $________/mo</text>
  <text x="1080" y="817" class="checkbox">[ ] Sponsorships / Brand Deals   $________/mo</text>
  <text x="1080" y="839" class="checkbox">[ ] Digital Products (ebooks)     $________/mo</text>
  <text x="1080" y="861" class="checkbox">[ ] Online Course                 $________/mo</text>
  <text x="1080" y="883" class="checkbox">[ ] Coaching / Consulting         $________/mo</text>
  <text x="1080" y="905" class="checkbox">[ ] Membership / Community        $________/mo</text>
  <text x="1080" y="927" class="checkbox">[ ] Affiliate Marketing           $________/mo</text>
  <text x="1080" y="949" class="checkbox">[ ] Merch / Physical Products     $________/mo</text>

  <line x1="1080" y1="960" x2="1500" y2="960" stroke="#fff" stroke-width="0.5"/>
  <text x="1080" y="978" class="body-white">TOTAL TARGET:</text>
  <text x="1310" y="978" class="body">$____________/mo</text>

  <!-- ============================================ -->
  <!-- SECTION 8: Daily Schedule (bottom-right) -->
  <!-- ============================================ -->

  <!-- Connector -->
  <path d="M 1260,490 C 1450,600 1700,680 1800,720" fill="none" stroke="#999" stroke-width="1" stroke-dasharray="4,4"/>
  <circle cx="1800" cy="720" r="3" fill="#999"/>

  <rect x="1560" y="730" width="520" height="260" rx="3" fill="none" stroke="#fff" stroke-width="1"/>
  <text x="1820" y="760" text-anchor="middle" class="section-title">08 / DAILY SCHEDULE</text>
  <line x1="1580" y1="772" x2="2060" y2="772" stroke="#333" stroke-width="0.5"/>

  <text x="1580" y="795" class="body-white">MORNING BLOCK</text>
  <text x="1580" y="815" class="checkbox">[ ] Research + ideation               (30 min)</text>
  <text x="1580" y="835" class="checkbox">[ ] Script / outline                   (60 min)</text>

  <text x="1580" y="860" class="body-white">MIDDAY BLOCK</text>
  <text x="1580" y="880" class="checkbox">[ ] Record / create content            (90 min)</text>
  <text x="1580" y="900" class="checkbox">[ ] Edit + produce                     (60 min)</text>

  <text x="1580" y="925" class="body-white">AFTERNOON BLOCK</text>
  <text x="1580" y="945" class="checkbox">[ ] Engage community (comments, DMs)   (30 min)</text>
  <text x="1580" y="965" class="checkbox">[ ] Schedule + repurpose content        (30 min)</text>
  <text x="1580" y="985" class="checkbox">[ ] Analytics review                    (15 min)</text>

  <!-- ============================================ -->
  <!-- REVENUE TRACKER TABLE -->
  <!-- ============================================ -->

  <rect x="80" y="1040" width="2240" height="210" rx="3" fill="none" stroke="#fff" stroke-width="1"/>
  <text x="1200" y="1070" text-anchor="middle" class="section-title">REVENUE TRACKER</text>
  <line x1="100" y1="1082" x2="2300" y2="1082" stroke="#333" stroke-width="0.5"/>

  <!-- Headers -->
  <text x="130" y="1105" class="table-head">METRIC</text>
  <text x="340" y="1105" text-anchor="middle" class="table-head">M1</text>
  <text x="520" y="1105" text-anchor="middle" class="table-head">M2</text>
  <text x="700" y="1105" text-anchor="middle" class="table-head">M3</text>
  <text x="880" y="1105" text-anchor="middle" class="table-head">M4</text>
  <text x="1060" y="1105" text-anchor="middle" class="table-head">M5</text>
  <text x="1240" y="1105" text-anchor="middle" class="table-head">M6</text>
  <text x="1420" y="1105" text-anchor="middle" class="table-head">M7</text>
  <text x="1600" y="1105" text-anchor="middle" class="table-head">M8</text>
  <text x="1780" y="1105" text-anchor="middle" class="table-head">M9</text>
  <text x="1960" y="1105" text-anchor="middle" class="table-head">M10</text>
  <text x="2140" y="1105" text-anchor="middle" class="table-head">M11</text>

  <line x1="100" y1="1112" x2="2300" y2="1112" stroke="#333" stroke-width="0.5"/>

  <!-- Row: Followers -->
  <text x="130" y="1132" class="table-cell">Followers</text>
  <text x="340" y="1132" text-anchor="middle" class="table-cell">______</text>
  <text x="520" y="1132" text-anchor="middle" class="table-cell">______</text>
  <text x="700" y="1132" text-anchor="middle" class="table-cell">______</text>
  <text x="880" y="1132" text-anchor="middle" class="table-cell">______</text>
  <text x="1060" y="1132" text-anchor="middle" class="table-cell">______</text>
  <text x="1240" y="1132" text-anchor="middle" class="table-cell">______</text>
  <text x="1420" y="1132" text-anchor="middle" class="table-cell">______</text>
  <text x="1600" y="1132" text-anchor="middle" class="table-cell">______</text>
  <text x="1780" y="1132" text-anchor="middle" class="table-cell">______</text>
  <text x="1960" y="1132" text-anchor="middle" class="table-cell">______</text>
  <text x="2140" y="1132" text-anchor="middle" class="table-cell">______</text>

  <line x1="100" y1="1140" x2="2300" y2="1140" stroke="#222" stroke-width="0.5"/>

  <!-- Row: Email Subs -->
  <text x="130" y="1160" class="table-cell">Email Subs</text>
  <text x="340" y="1160" text-anchor="middle" class="table-cell">______</text>
  <text x="520" y="1160" text-anchor="middle" class="table-cell">______</text>
  <text x="700" y="1160" text-anchor="middle" class="table-cell">______</text>
  <text x="880" y="1160" text-anchor="middle" class="table-cell">______</text>
  <text x="1060" y="1160" text-anchor="middle" class="table-cell">______</text>
  <text x="1240" y="1160" text-anchor="middle" class="table-cell">______</text>
  <text x="1420" y="1160" text-anchor="middle" class="table-cell">______</text>
  <text x="1600" y="1160" text-anchor="middle" class="table-cell">______</text>
  <text x="1780" y="1160" text-anchor="middle" class="table-cell">______</text>
  <text x="1960" y="1160" text-anchor="middle" class="table-cell">______</text>
  <text x="2140" y="1160" text-anchor="middle" class="table-cell">______</text>

  <line x1="100" y1="1168" x2="2300" y2="1168" stroke="#222" stroke-width="0.5"/>

  <!-- Row: Content Published -->
  <text x="130" y="1188" class="table-cell">Posts Published</text>
  <text x="340" y="1188" text-anchor="middle" class="table-cell">______</text>
  <text x="520" y="1188" text-anchor="middle" class="table-cell">______</text>
  <text x="700" y="1188" text-anchor="middle" class="table-cell">______</text>
  <text x="880" y="1188" text-anchor="middle" class="table-cell">______</text>
  <text x="1060" y="1188" text-anchor="middle" class="table-cell">______</text>
  <text x="1240" y="1188" text-anchor="middle" class="table-cell">______</text>
  <text x="1420" y="1188" text-anchor="middle" class="table-cell">______</text>
  <text x="1600" y="1188" text-anchor="middle" class="table-cell">______</text>
  <text x="1780" y="1188" text-anchor="middle" class="table-cell">______</text>
  <text x="1960" y="1188" text-anchor="middle" class="table-cell">______</text>
  <text x="2140" y="1188" text-anchor="middle" class="table-cell">______</text>

  <line x1="100" y1="1196" x2="2300" y2="1196" stroke="#222" stroke-width="0.5"/>

  <!-- Row: Revenue -->
  <text x="130" y="1216" class="body-white">Revenue</text>
  <text x="340" y="1216" text-anchor="middle" class="table-cell">$_____</text>
  <text x="520" y="1216" text-anchor="middle" class="table-cell">$_____</text>
  <text x="700" y="1216" text-anchor="middle" class="table-cell">$_____</text>
  <text x="880" y="1216" text-anchor="middle" class="table-cell">$_____</text>
  <text x="1060" y="1216" text-anchor="middle" class="table-cell">$_____</text>
  <text x="1240" y="1216" text-anchor="middle" class="table-cell">$_____</text>
  <text x="1420" y="1216" text-anchor="middle" class="table-cell">$_____</text>
  <text x="1600" y="1216" text-anchor="middle" class="table-cell">$_____</text>
  <text x="1780" y="1216" text-anchor="middle" class="table-cell">$_____</text>
  <text x="1960" y="1216" text-anchor="middle" class="table-cell">$_____</text>
  <text x="2140" y="1216" text-anchor="middle" class="table-cell">$_____</text>

  <line x1="100" y1="1224" x2="2300" y2="1224" stroke="#fff" stroke-width="0.5"/>

  <!-- Row: Expenses -->
  <text x="130" y="1244" class="table-cell">Expenses</text>
  <text x="340" y="1244" text-anchor="middle" class="table-cell">$_____</text>
  <text x="520" y="1244" text-anchor="middle" class="table-cell">$_____</text>
  <text x="700" y="1244" text-anchor="middle" class="table-cell">$_____</text>
  <text x="880" y="1244" text-anchor="middle" class="table-cell">$_____</text>
  <text x="1060" y="1244" text-anchor="middle" class="table-cell">$_____</text>
  <text x="1240" y="1244" text-anchor="middle" class="table-cell">$_____</text>
  <text x="1420" y="1244" text-anchor="middle" class="table-cell">$_____</text>
  <text x="1600" y="1244" text-anchor="middle" class="table-cell">$_____</text>
  <text x="1780" y="1244" text-anchor="middle" class="table-cell">$_____</text>
  <text x="1960" y="1244" text-anchor="middle" class="table-cell">$_____</text>
  <text x="2140" y="1244" text-anchor="middle" class="table-cell">$_____</text>

  <!-- ============================================ -->
  <!-- FOOTER KPIs -->
  <!-- ============================================ -->

  <line x1="80" y1="1290" x2="2320" y2="1290" stroke="#333" stroke-width="0.5"/>

  <rect x="80" y="1310" width="340" height="80" rx="3" fill="none" stroke="#333" stroke-width="1"/>
  <text x="250" y="1340" text-anchor="middle" class="body-white">FOLLOWER GOAL (12 MO)</text>
  <text x="250" y="1370" text-anchor="middle" class="subtitle">_______________</text>

  <rect x="470" y="1310" width="340" height="80" rx="3" fill="none" stroke="#333" stroke-width="1"/>
  <text x="640" y="1340" text-anchor="middle" class="body-white">EMAIL LIST GOAL</text>
  <text x="640" y="1370" text-anchor="middle" class="subtitle">_______________</text>

  <rect x="860" y="1310" width="340" height="80" rx="3" fill="none" stroke="#333" stroke-width="1"/>
  <text x="1030" y="1340" text-anchor="middle" class="body-white">FIRST PRODUCT LAUNCH</text>
  <text x="1030" y="1370" text-anchor="middle" class="subtitle">Date: _________</text>

  <rect x="1250" y="1310" width="340" height="80" rx="3" fill="none" stroke="#333" stroke-width="1"/>
  <text x="1420" y="1340" text-anchor="middle" class="body-white">12-MO REVENUE GOAL</text>
  <text x="1420" y="1370" text-anchor="middle" class="subtitle">$______________</text>

  <rect x="1640" y="1310" width="340" height="80" rx="3" fill="none" stroke="#333" stroke-width="1"/>
  <text x="1810" y="1340" text-anchor="middle" class="body-white">CONTENT CONSISTENCY</text>
  <text x="1810" y="1370" text-anchor="middle" class="subtitle">_____ posts/week</text>

  <rect x="2030" y="1310" width="290" height="80" rx="3" fill="none" stroke="#333" stroke-width="1"/>
  <text x="2175" y="1340" text-anchor="middle" class="body-white">ENGAGEMENT RATE</text>
  <text x="2175" y="1370" text-anchor="middle" class="subtitle">_________%</text>

  <!-- Content Strategy Note -->
  <rect x="80" y="1420" width="2240" height="80" rx="3" fill="none" stroke="#333" stroke-width="0.5"/>
  <text x="1200" y="1445" text-anchor="middle" class="body-white">CONTENT FORMULA</text>
  <line x1="100" y1="1455" x2="2300" y2="1455" stroke="#222" stroke-width="0.5"/>

  <!-- Formula flow -->
  <rect x="150" y="1462" width="180" height="28" rx="3" fill="none" stroke="#999" stroke-width="0.5"/>
  <text x="240" y="1481" text-anchor="middle" class="small">HOOK (3 sec)</text>

  <path d="M 330,1476 C 360,1476 380,1476 410,1476" fill="none" stroke="#999" stroke-width="0.5"/>
  <polygon points="408,1473 415,1476 408,1479" fill="#999"/>

  <rect x="420" y="1462" width="180" height="28" rx="3" fill="none" stroke="#999" stroke-width="0.5"/>
  <text x="510" y="1481" text-anchor="middle" class="small">PROBLEM (10 sec)</text>

  <path d="M 600,1476 C 630,1476 650,1476 680,1476" fill="none" stroke="#999" stroke-width="0.5"/>
  <polygon points="678,1473 685,1476 678,1479" fill="#999"/>

  <rect x="690" y="1462" width="180" height="28" rx="3" fill="none" stroke="#999" stroke-width="0.5"/>
  <text x="780" y="1481" text-anchor="middle" class="small">VALUE (60-80%)</text>

  <path d="M 870,1476 C 900,1476 920,1476 950,1476" fill="none" stroke="#999" stroke-width="0.5"/>
  <polygon points="948,1473 955,1476 948,1479" fill="#999"/>

  <rect x="960" y="1462" width="180" height="28" rx="3" fill="none" stroke="#999" stroke-width="0.5"/>
  <text x="1050" y="1481" text-anchor="middle" class="small">PROOF (story/data)</text>

  <path d="M 1140,1476 C 1170,1476 1190,1476 1220,1476" fill="none" stroke="#999" stroke-width="0.5"/>
  <polygon points="1218,1473 1225,1476 1218,1479" fill="#999"/>

  <rect x="1230" y="1462" width="180" height="28" rx="3" fill="none" stroke="#fff" stroke-width="1"/>
  <text x="1320" y="1481" text-anchor="middle" class="small">CTA (subscribe/buy)</text>

  <!-- Notes area -->
  <text x="1500" y="1481" class="small">50% educational / 30% entertaining / 20% promotional</text>

  <!-- Brand -->
  <text x="1200" y="1550" text-anchor="middle" class="small">BUSINESS BLUEPRINT PACK</text>
  <text x="1200" y="1570" text-anchor="middle" class="price">behike.co</text>

  <!-- Corner marks -->
  <line x1="50" y1="50" x2="70" y2="50" stroke="#333" stroke-width="0.5"/>
  <line x1="50" y1="50" x2="50" y2="70" stroke="#333" stroke-width="0.5"/>
  <line x1="2350" y1="50" x2="2330" y2="50" stroke="#333" stroke-width="0.5"/>
  <line x1="2350" y1="50" x2="2350" y2="70" stroke="#333" stroke-width="0.5"/>
  <line x1="50" y1="1750" x2="70" y2="1750" stroke="#333" stroke-width="0.5"/>
  <line x1="50" y1="1750" x2="50" y2="1730" stroke="#333" stroke-width="0.5"/>
  <line x1="2350" y1="1750" x2="2330" y2="1750" stroke="#333" stroke-width="0.5"/>
  <line x1="2350" y1="1750" x2="2350" y2="1730" stroke="#333" stroke-width="0.5"/>

</svg>