<?xml version="1.0" encoding="UTF-8"?>
<svg xmlns="http://www.w3.org/2000/svg" viewBox="0 0 2550 3300" width="2550" height="3300">
  <defs>
    <style>
      text { font-family: 'Helvetica Neue', Helvetica, Arial, sans-serif; fill: #ffffff; }
      .title { font-size: 56px; font-weight: 700; letter-spacing: 3px; }
      .subtitle { font-size: 24px; fill: #999999; letter-spacing: 2px; font-weight: 300; }
      .section-title { font-size: 32px; font-weight: 700; fill: #007AFF; letter-spacing: 1px; }
      .section-num { font-size: 28px; font-weight: 300; fill: #007AFF; letter-spacing: 2px; }
      .body { font-size: 18px; fill: #999999; }
      .body-white { font-size: 18px; fill: #ffffff; }
      .body-bold { font-size: 18px; fill: #ffffff; font-weight: 600; }
      .small { font-size: 15px; fill: #999999; }
      .small-white { font-size: 15px; fill: #ffffff; }
      .checkbox { font-size: 16px; fill: #999999; }
      .metric-value { font-size: 36px; font-weight: 700; fill: #ffffff; }
      .metric-label { font-size: 14px; fill: #999999; letter-spacing: 1px; text-transform: uppercase; }
      .hub-label { font-size: 20px; font-weight: 600; fill: #ffffff; }
      .tier-title { font-size: 22px; font-weight: 700; fill: #007AFF; }
      .price { font-size: 28px; font-weight: 700; fill: #ffffff; }
      .footer { font-size: 16px; fill: #999999; letter-spacing: 3px; }
    </style>
  </defs>

  <rect width="2550" height="3300" fill="#000000"/>
  <rect x="40" y="40" width="2470" height="3220" fill="none" stroke="#333333" stroke-width="1"/>

  <!-- Header -->
  <text x="1275" y="130" text-anchor="middle" class="title">CONSULTING BUSINESS</text>
  <text x="1275" y="185" text-anchor="middle" class="title">BLUEPRINT</text>
  <line x1="400" y1="210" x2="2150" y2="210" stroke="#007AFF" stroke-width="2"/>
  <text x="1275" y="250" text-anchor="middle" class="subtitle">MONETIZE YOUR EXPERTISE WITH HIGH-VALUE CONSULTING</text>

  <!-- SECTION 1: EXPERTISE POSITIONING (Hub-Spoke) -->
  <text x="100" y="330" class="section-num">01</text>
  <text x="160" y="330" class="section-title">EXPERTISE POSITIONING</text>
  <line x1="100" y1="345" x2="1200" y2="345" stroke="#007AFF" stroke-width="1"/>

  <circle cx="640" cy="530" r="70" fill="none" stroke="#007AFF" stroke-width="2"/>
  <text x="640" y="524" text-anchor="middle" class="hub-label">YOUR</text>
  <text x="640" y="548" text-anchor="middle" class="hub-label">EXPERTISE</text>

  <line x1="570" y1="510" x2="220" y2="410" stroke="#333333" stroke-width="1"/>
  <circle cx="220" cy="410" r="5" fill="#007AFF"/>
  <rect x="100" y="385" width="240" height="55" rx="4" fill="none" stroke="#ffffff" stroke-width="1"/>
  <text x="220" y="418" text-anchor="middle" class="body-bold">Industry Experience</text>

  <line x1="575" y1="480" x2="220" y2="500" stroke="#333333" stroke-width="1"/>
  <circle cx="220" cy="500" r="5" fill="#007AFF"/>
  <rect x="100" y="475" width="240" height="55" rx="4" fill="none" stroke="#ffffff" stroke-width="1"/>
  <text x="220" y="508" text-anchor="middle" class="body-bold">Unique Framework</text>

  <line x1="580" y1="590" x2="220" y2="600" stroke="#333333" stroke-width="1"/>
  <circle cx="220" cy="600" r="5" fill="#007AFF"/>
  <rect x="100" y="575" width="240" height="55" rx="4" fill="none" stroke="#ffffff" stroke-width="1"/>
  <text x="220" y="608" text-anchor="middle" class="body-bold">Case Studies</text>

  <line x1="710" y1="510" x2="1060" y2="410" stroke="#333333" stroke-width="1"/>
  <circle cx="1060" cy="410" r="5" fill="#007AFF"/>
  <rect x="940" y="385" width="240" height="55" rx="4" fill="none" stroke="#ffffff" stroke-width="1"/>
  <text x="1060" y="418" text-anchor="middle" class="body-bold">Content Authority</text>

  <line x1="710" y1="540" x2="1060" y2="500" stroke="#333333" stroke-width="1"/>
  <circle cx="1060" cy="500" r="5" fill="#007AFF"/>
  <rect x="940" y="475" width="240" height="55" rx="4" fill="none" stroke="#ffffff" stroke-width="1"/>
  <text x="1060" y="508" text-anchor="middle" class="body-bold">Certifications</text>

  <line x1="700" y1="590" x2="1060" y2="600" stroke="#333333" stroke-width="1"/>
  <circle cx="1060" cy="600" r="5" fill="#007AFF"/>
  <rect x="940" y="575" width="240" height="55" rx="4" fill="none" stroke="#ffffff" stroke-width="1"/>
  <text x="1060" y="608" text-anchor="middle" class="body-bold">Speaking / Media</text>

  <!-- Positioning checklist -->
  <rect x="100" y="660" width="16" height="16" rx="2" fill="none" stroke="#999999" stroke-width="1"/>
  <text x="130" y="674" class="checkbox">Define your specific niche (not "business consultant")</text>
  <rect x="100" y="690" width="16" height="16" rx="2" fill="none" stroke="#999999" stroke-width="1"/>
  <text x="130" y="704" class="checkbox">Document your proprietary process/framework</text>
  <rect x="100" y="720" width="16" height="16" rx="2" fill="none" stroke="#999999" stroke-width="1"/>
  <text x="130" y="734" class="checkbox">Build 3 detailed case studies with results</text>

  <!-- SECTION 2: OFFER DESIGN -->
  <text x="1350" y="330" class="section-num">02</text>
  <text x="1410" y="330" class="section-title">OFFER DESIGN</text>
  <line x1="1350" y1="345" x2="2450" y2="345" stroke="#007AFF" stroke-width="1"/>

  <rect x="1350" y="370" width="340" height="280" rx="6" fill="none" stroke="#ffffff" stroke-width="1"/>
  <text x="1520" y="405" text-anchor="middle" class="tier-title">STRATEGY</text>
  <text x="1520" y="440" text-anchor="middle" class="price">$500</text>
  <line x1="1380" y1="455" x2="1660" y2="455" stroke="#333333" stroke-width="0.5"/>
  <text x="1395" y="485" class="small">90-min strategy session</text>
  <text x="1395" y="510" class="small">Recorded + action plan</text>
  <text x="1395" y="535" class="small">Follow-up email</text>
  <text x="1395" y="560" class="small">Resource recommendations</text>
  <rect x="1395" y="610" width="200" height="25" rx="4" fill="#007AFF" opacity="0.15"/>
  <text x="1495" y="628" text-anchor="middle" class="small-white">ENTRY POINT</text>

  <rect x="1720" y="370" width="340" height="280" rx="6" fill="none" stroke="#007AFF" stroke-width="2"/>
  <text x="1890" y="405" text-anchor="middle" class="tier-title">IMPLEMENTATION</text>
  <text x="1890" y="440" text-anchor="middle" class="price">$3,000/mo</text>
  <line x1="1750" y1="455" x2="2030" y2="455" stroke="#333333" stroke-width="0.5"/>
  <text x="1765" y="485" class="small">Weekly 1:1 calls</text>
  <text x="1765" y="510" class="small">Custom strategy + execution</text>
  <text x="1765" y="535" class="small">Slack/Voxer access</text>
  <text x="1765" y="560" class="small">Accountability tracking</text>
  <rect x="1765" y="610" width="200" height="25" rx="4" fill="#007AFF" opacity="0.3"/>
  <text x="1865" y="628" text-anchor="middle" class="small-white">CORE OFFER</text>

  <rect x="2090" y="370" width="340" height="280" rx="6" fill="none" stroke="#ffffff" stroke-width="1"/>
  <text x="2260" y="405" text-anchor="middle" class="tier-title">VIP DAY</text>
  <text x="2260" y="440" text-anchor="middle" class="price">$5,000</text>
  <line x1="2120" y1="455" x2="2400" y2="455" stroke="#333333" stroke-width="0.5"/>
  <text x="2135" y="485" class="small">Full day intensive</text>
  <text x="2135" y="510" class="small">Complete system build</text>
  <text x="2135" y="535" class="small">SOPs + documentation</text>
  <text x="2135" y="560" class="small">30 days support after</text>
  <rect x="2135" y="610" width="200" height="25" rx="4" fill="#007AFF" opacity="0.15"/>
  <text x="2235" y="628" text-anchor="middle" class="small-white">HIGH TICKET</text>

  <!-- SECTION 3: LEAD GENERATION -->
  <text x="100" y="830" class="section-num">03</text>
  <text x="160" y="830" class="section-title">LEAD GENERATION</text>
  <line x1="100" y1="845" x2="2450" y2="845" stroke="#007AFF" stroke-width="1"/>

  <!-- Funnel -->
  <polygon points="400,880 2150,880 1950,950 600,950" fill="none" stroke="#007AFF" stroke-width="1.5"/>
  <text x="1275" y="925" text-anchor="middle" class="body-bold">ATTRACT: LinkedIn, podcast, speaking, content</text>

  <polygon points="600,960 1950,960 1800,1030 750,1030" fill="none" stroke="#ffffff" stroke-width="1"/>
  <text x="1275" y="1005" text-anchor="middle" class="body-bold">NURTURE: Email sequence, free resources, DMs</text>

  <polygon points="750,1040 1800,1040 1680,1110 870,1110" fill="none" stroke="#ffffff" stroke-width="1"/>
  <text x="1275" y="1085" text-anchor="middle" class="body-bold">CONVERT: Discovery call, proposal, contract</text>

  <polygon points="870,1120 1680,1120 1580,1190 970,1190" fill="none" stroke="#007AFF" stroke-width="1.5"/>
  <text x="1275" y="1165" text-anchor="middle" class="body-bold">RETAIN: Results, referrals, testimonials</text>

  <!-- SECTION 4: SALES PROCESS -->
  <text x="100" y="1260" class="section-num">04</text>
  <text x="160" y="1260" class="section-title">SALES PROCESS</text>
  <line x1="100" y1="1275" x2="2450" y2="1275" stroke="#007AFF" stroke-width="1"/>

  <rect x="100" y="1310" width="340" height="80" rx="4" fill="none" stroke="#007AFF" stroke-width="1.5"/>
  <text x="270" y="1345" text-anchor="middle" class="body-bold">Lead Inquiry</text>
  <text x="270" y="1370" text-anchor="middle" class="small">Application form</text>

  <line x1="440" y1="1350" x2="510" y2="1350" stroke="#333333" stroke-width="1"/>
  <polygon points="505,1346 505,1354 513,1350" fill="#333333"/>

  <rect x="515" y="1310" width="340" height="80" rx="4" fill="none" stroke="#ffffff" stroke-width="1"/>
  <text x="685" y="1345" text-anchor="middle" class="body-bold">Pre-Qualify</text>
  <text x="685" y="1370" text-anchor="middle" class="small">Budget + timeline fit</text>

  <line x1="855" y1="1350" x2="925" y2="1350" stroke="#333333" stroke-width="1"/>
  <polygon points="920,1346 920,1354 928,1350" fill="#333333"/>

  <rect x="930" y="1310" width="340" height="80" rx="4" fill="none" stroke="#ffffff" stroke-width="1"/>
  <text x="1100" y="1345" text-anchor="middle" class="body-bold">Discovery Call</text>
  <text x="1100" y="1370" text-anchor="middle" class="small">45 min deep dive</text>

  <line x1="1270" y1="1350" x2="1340" y2="1350" stroke="#333333" stroke-width="1"/>
  <polygon points="1335,1346 1335,1354 1343,1350" fill="#333333"/>

  <rect x="1345" y="1310" width="340" height="80" rx="4" fill="none" stroke="#ffffff" stroke-width="1"/>
  <text x="1515" y="1345" text-anchor="middle" class="body-bold">Proposal</text>
  <text x="1515" y="1370" text-anchor="middle" class="small">Custom scope + price</text>

  <line x1="1685" y1="1350" x2="1755" y2="1350" stroke="#333333" stroke-width="1"/>
  <polygon points="1750,1346 1750,1354 1758,1350" fill="#333333"/>

  <rect x="1760" y="1310" width="340" height="80" rx="4" fill="none" stroke="#ffffff" stroke-width="1"/>
  <text x="1930" y="1345" text-anchor="middle" class="body-bold">Close</text>
  <text x="1930" y="1370" text-anchor="middle" class="small">Contract + deposit</text>

  <line x1="2100" y1="1350" x2="2170" y2="1350" stroke="#333333" stroke-width="1"/>
  <polygon points="2165,1346 2165,1354 2173,1350" fill="#333333"/>

  <rect x="2175" y="1310" width="260" height="80" rx="4" fill="none" stroke="#007AFF" stroke-width="1.5"/>
  <text x="2305" y="1345" text-anchor="middle" class="body-bold">Onboard</text>
  <text x="2305" y="1370" text-anchor="middle" class="small">Kickoff call</text>

  <!-- SECTION 5: DELIVERY -->
  <text x="100" y="1460" class="section-num">05</text>
  <text x="160" y="1460" class="section-title">DELIVERY FRAMEWORK</text>
  <line x1="100" y1="1475" x2="1200" y2="1475" stroke="#007AFF" stroke-width="1"/>

  <rect x="100" y="1500" width="16" height="16" rx="2" fill="none" stroke="#999999" stroke-width="1"/>
  <text x="130" y="1514" class="checkbox">Week 1: Deep audit of current state</text>
  <rect x="100" y="1530" width="16" height="16" rx="2" fill="none" stroke="#999999" stroke-width="1"/>
  <text x="130" y="1544" class="checkbox">Week 2: Strategy document + roadmap</text>
  <rect x="100" y="1560" width="16" height="16" rx="2" fill="none" stroke="#999999" stroke-width="1"/>
  <text x="130" y="1574" class="checkbox">Week 3-4: Implementation support</text>
  <rect x="100" y="1590" width="16" height="16" rx="2" fill="none" stroke="#999999" stroke-width="1"/>
  <text x="130" y="1604" class="checkbox">Monthly: Review calls + adjust</text>
  <rect x="100" y="1620" width="16" height="16" rx="2" fill="none" stroke="#999999" stroke-width="1"/>
  <text x="130" y="1634" class="checkbox">Quarterly: ROI report + renewal discussion</text>
  <rect x="100" y="1650" width="16" height="16" rx="2" fill="none" stroke="#999999" stroke-width="1"/>
  <text x="130" y="1664" class="checkbox">Always: Documented SOPs for client</text>

  <!-- SECTION 6: TESTIMONIALS -->
  <text x="1350" y="1460" class="section-num">06</text>
  <text x="1410" y="1460" class="section-title">TESTIMONIAL SYSTEM</text>
  <line x1="1350" y1="1475" x2="2450" y2="1475" stroke="#007AFF" stroke-width="1"/>

  <rect x="1350" y="1500" width="16" height="16" rx="2" fill="none" stroke="#999999" stroke-width="1"/>
  <text x="1380" y="1514" class="checkbox">Ask at peak of results (not end of contract)</text>
  <rect x="1350" y="1530" width="16" height="16" rx="2" fill="none" stroke="#999999" stroke-width="1"/>
  <text x="1380" y="1544" class="checkbox">Provide specific questions (not "can you write a review?")</text>
  <rect x="1350" y="1560" width="16" height="16" rx="2" fill="none" stroke="#999999" stroke-width="1"/>
  <text x="1380" y="1574" class="checkbox">Video testimonials (highest conversion)</text>
  <rect x="1350" y="1590" width="16" height="16" rx="2" fill="none" stroke="#999999" stroke-width="1"/>
  <text x="1380" y="1604" class="checkbox">Include specific numbers and outcomes</text>
  <rect x="1350" y="1620" width="16" height="16" rx="2" fill="none" stroke="#999999" stroke-width="1"/>
  <text x="1380" y="1634" class="checkbox">Feature on website, LinkedIn, proposals</text>
  <rect x="1350" y="1650" width="16" height="16" rx="2" fill="none" stroke="#999999" stroke-width="1"/>
  <text x="1380" y="1664" class="checkbox">Create case study from every engagement</text>

  <!-- SECTION 7: SCALING -->
  <text x="100" y="1760" class="section-num">07</text>
  <text x="160" y="1760" class="section-title">SCALING STRATEGY</text>
  <line x1="100" y1="1775" x2="2450" y2="1775" stroke="#007AFF" stroke-width="1"/>

  <!-- Growth timeline -->
  <line x1="200" y1="1860" x2="2350" y2="1860" stroke="#333333" stroke-width="2"/>

  <circle cx="500" cy="1860" r="10" fill="#007AFF"/>
  <text x="500" y="1835" text-anchor="middle" class="body-bold">$0-$5K/MO</text>
  <rect x="360" y="1890" width="280" height="80" rx="4" fill="none" stroke="#ffffff" stroke-width="1"/>
  <text x="500" y="1920" text-anchor="middle" class="body-white">Solo Consultant</text>
  <text x="500" y="1945" text-anchor="middle" class="small">1:1 only, build reputation</text>

  <circle cx="1050" cy="1860" r="10" fill="#007AFF"/>
  <text x="1050" y="1835" text-anchor="middle" class="body-bold">$5K-$15K/MO</text>
  <rect x="910" y="1890" width="280" height="80" rx="4" fill="none" stroke="#ffffff" stroke-width="1"/>
  <text x="1050" y="1920" text-anchor="middle" class="body-white">Group Programs</text>
  <text x="1050" y="1945" text-anchor="middle" class="small">Leverage your time</text>

  <circle cx="1600" cy="1860" r="10" fill="#007AFF"/>
  <text x="1600" y="1835" text-anchor="middle" class="body-bold">$15K-$50K/MO</text>
  <rect x="1460" y="1890" width="280" height="80" rx="4" fill="none" stroke="#ffffff" stroke-width="1"/>
  <text x="1600" y="1920" text-anchor="middle" class="body-white">Digital Products</text>
  <text x="1600" y="1945" text-anchor="middle" class="small">Courses, templates</text>

  <circle cx="2100" cy="1860" r="10" fill="#007AFF"/>
  <text x="2100" y="1835" text-anchor="middle" class="body-bold">$50K+/MO</text>
  <rect x="1960" y="1890" width="280" height="80" rx="4" fill="none" stroke="#ffffff" stroke-width="1"/>
  <text x="2100" y="1920" text-anchor="middle" class="body-white">Consulting Firm</text>
  <text x="2100" y="1945" text-anchor="middle" class="small">Team + systems</text>

  <!-- Revenue Tracker -->
  <text x="100" y="2050" class="section-num">REVENUE TRACKER</text>
  <line x1="100" y1="2065" x2="2450" y2="2065" stroke="#007AFF" stroke-width="1"/>

  <rect x="100" y="2090" width="380" height="100" rx="4" fill="#111111"/>
  <text x="290" y="2140" text-anchor="middle" class="metric-value">$____</text>
  <text x="290" y="2170" text-anchor="middle" class="metric-label">MONTHLY REVENUE</text>

  <rect x="510" y="2090" width="380" height="100" rx="4" fill="#111111"/>
  <text x="700" y="2140" text-anchor="middle" class="metric-value">____</text>
  <text x="700" y="2170" text-anchor="middle" class="metric-label">ACTIVE CLIENTS</text>

  <rect x="920" y="2090" width="380" height="100" rx="4" fill="#111111"/>
  <text x="1110" y="2140" text-anchor="middle" class="metric-value">$____</text>
  <text x="1110" y="2170" text-anchor="middle" class="metric-label">AVG DEAL SIZE</text>

  <rect x="1330" y="2090" width="380" height="100" rx="4" fill="#111111"/>
  <text x="1520" y="2140" text-anchor="middle" class="metric-value">____%</text>
  <text x="1520" y="2170" text-anchor="middle" class="metric-label">CLOSE RATE</text>

  <rect x="1740" y="2090" width="380" height="100" rx="4" fill="#111111"/>
  <text x="1930" y="2140" text-anchor="middle" class="metric-value">____</text>
  <text x="1930" y="2170" text-anchor="middle" class="metric-label">REFERRALS</text>

  <!-- Footer -->
  <line x1="100" y1="3200" x2="2450" y2="3200" stroke="#333333" stroke-width="0.5"/>
  <text x="1275" y="3240" text-anchor="middle" class="footer">behike.co</text>
</svg>