<?xml version="1.0" encoding="UTF-8"?>
<svg xmlns="http://www.w3.org/2000/svg" viewBox="0 0 2400 1800" width="2400" height="1800">
  <defs>
    <style>
      text { font-family: 'Helvetica Neue', Helvetica, Arial, sans-serif; fill: #fff; }
      .title { font-size: 28px; font-weight: bold; letter-spacing: 4px; }
      .subtitle { font-size: 14px; fill: #999; letter-spacing: 2px; }
      .section-title { font-size: 16px; font-weight: bold; letter-spacing: 1px; }
      .body { font-size: 12px; fill: #999; }
      .body-white { font-size: 12px; fill: #fff; }
      .small { font-size: 10px; fill: #999; }
      .checkbox { font-size: 11px; fill: #999; }
      .table-head { font-size: 11px; font-weight: bold; fill: #fff; }
      .table-cell { font-size: 10px; fill: #999; }
      .formula { font-size: 11px; fill: #fff; letter-spacing: 1px; }
      .highlight { font-size: 13px; fill: #fff; font-weight: bold; }
      .num { font-size: 20px; fill: #fff; font-weight: bold; letter-spacing: 2px; }
    </style>
  </defs>

  <!-- Background -->
  <rect width="2400" height="1800" fill="#000"/>

  <!-- Border -->
  <rect x="30" y="30" width="2340" height="1740" fill="none" stroke="#333" stroke-width="1"/>
  <rect x="35" y="35" width="2330" height="1730" fill="none" stroke="#222" stroke-width="0.5"/>

  <!-- Header -->
  <text x="1200" y="75" text-anchor="middle" class="title">EBAY DROPSHIPPING BLUEPRINT</text>
  <line x1="400" y1="90" x2="2000" y2="90" stroke="#333" stroke-width="0.5"/>
  <text x="1200" y="112" text-anchor="middle" class="subtitle">FROM ZERO TO CONSISTENT SALES</text>

  <!-- ============================================ -->
  <!-- SECTION 1: ACCOUNT SETUP (top-left) -->
  <!-- ============================================ -->

  <rect x="60" y="140" width="700" height="340" rx="3" fill="none" stroke="#fff" stroke-width="1"/>
  <text x="410" y="170" text-anchor="middle" class="section-title">01 / ACCOUNT SETUP</text>
  <line x1="80" y1="182" x2="740" y2="182" stroke="#333" stroke-width="0.5"/>

  <!-- Tree structure -->
  <text x="100" y="210" class="body-white">eBay Account</text>
  <line x1="100" y1="218" x2="100" y2="240" stroke="#999" stroke-width="1"/>
  <line x1="100" y1="240" x2="130" y2="240" stroke="#999" stroke-width="1"/>
  <text x="140" y="244" class="body">Seller Hub (analytics + listing tools)</text>

  <line x1="100" y1="240" x2="100" y2="268" stroke="#999" stroke-width="1"/>
  <line x1="100" y1="268" x2="130" y2="268" stroke="#999" stroke-width="1"/>
  <text x="140" y="272" class="body">Managed Payments (direct deposit)</text>

  <line x1="100" y1="268" x2="100" y2="296" stroke="#999" stroke-width="1"/>
  <line x1="100" y1="296" x2="130" y2="296" stroke="#999" stroke-width="1"/>
  <text x="140" y="300" class="body">Business Policies:</text>
  <line x1="330" y1="304" x2="330" y2="324" stroke="#999" stroke-width="0.5"/>
  <line x1="330" y1="324" x2="350" y2="324" stroke="#999" stroke-width="0.5"/>
  <text x="360" y="328" class="small">Shipping / Returns / Payment</text>

  <line x1="100" y1="296" x2="100" y2="356" stroke="#999" stroke-width="1"/>
  <line x1="100" y1="356" x2="130" y2="356" stroke="#999" stroke-width="1"/>
  <text x="140" y="360" class="body">Store Subscription Tiers:</text>

  <!-- Tier boxes -->
  <rect x="100" y="374" width="170" height="42" rx="2" fill="none" stroke="#333" stroke-width="1"/>
  <text x="185" y="392" text-anchor="middle" class="small">STARTER</text>
  <text x="185" y="408" text-anchor="middle" class="body-white">$4.95/mo</text>

  <rect x="285" y="374" width="170" height="42" rx="2" fill="none" stroke="#333" stroke-width="1"/>
  <text x="370" y="392" text-anchor="middle" class="small">BASIC</text>
  <text x="370" y="408" text-anchor="middle" class="body-white">$21.95/mo</text>

  <rect x="470" y="374" width="170" height="42" rx="2" fill="none" stroke="#333" stroke-width="1"/>
  <text x="555" y="392" text-anchor="middle" class="small">PREMIUM</text>
  <text x="555" y="408" text-anchor="middle" class="body-white">$59.95/mo</text>

  <!-- Checkboxes -->
  <text x="100" y="450" class="checkbox">[ ] Account created    [ ] Policies set    [ ] Store subscribed</text>
  <text x="100" y="468" class="checkbox">[ ] Tax settings configured    [ ] Return address verified</text>

  <!-- ============================================ -->
  <!-- SECTION 2: PRODUCT RESEARCH (top-right) -->
  <!-- ============================================ -->

  <rect x="800" y="140" width="780" height="340" rx="3" fill="none" stroke="#fff" stroke-width="1"/>
  <text x="1190" y="170" text-anchor="middle" class="section-title">02 / PRODUCT RESEARCH</text>
  <line x1="820" y1="182" x2="1560" y2="182" stroke="#333" stroke-width="0.5"/>

  <!-- Flow arrows -->
  <rect x="830" y="198" width="140" height="30" rx="2" fill="none" stroke="#fff" stroke-width="1"/>
  <text x="900" y="218" text-anchor="middle" class="body-white">Find Suppliers</text>

  <line x1="970" y1="213" x2="1005" y2="213" stroke="#999" stroke-width="1"/>
  <polygon points="1005,209 1015,213 1005,217" fill="#999"/>

  <rect x="1015" y="198" width="150" height="30" rx="2" fill="none" stroke="#fff" stroke-width="1"/>
  <text x="1090" y="218" text-anchor="middle" class="body-white">Compare Prices</text>

  <line x1="1165" y1="213" x2="1200" y2="213" stroke="#999" stroke-width="1"/>
  <polygon points="1200,209 1210,213 1200,217" fill="#999"/>

  <rect x="1210" y="198" width="155" height="30" rx="2" fill="none" stroke="#fff" stroke-width="1"/>
  <text x="1287" y="218" text-anchor="middle" class="body-white">Calc Margins</text>

  <line x1="1365" y1="213" x2="1400" y2="213" stroke="#999" stroke-width="1"/>
  <polygon points="1400,209 1410,213 1400,217" fill="#999"/>

  <rect x="1410" y="198" width="100" height="30" rx="2" fill="none" stroke="#fff" stroke-width="1"/>
  <text x="1460" y="218" text-anchor="middle" class="body-white">LIST</text>

  <!-- Supplier Sources -->
  <text x="830" y="260" class="body-white">Supplier Sources:</text>
  <text x="830" y="280" class="checkbox">[ ] AliExpress       [ ] Amazon        [ ] Walmart</text>
  <text x="830" y="298" class="checkbox">[ ] Wholesale dirs   [ ] CJ Dropshipping</text>

  <!-- Research Tools -->
  <text x="830" y="326" class="body-white">Research Tools:</text>
  <text x="830" y="346" class="checkbox">[ ] Terapeak (built into eBay)</text>
  <text x="830" y="364" class="checkbox">[ ] ZikAnalytics      [ ] Google Trends</text>
  <text x="830" y="382" class="checkbox">[ ] Watchcount.com    [ ] eBay Sold listings</text>

  <!-- Margin Formula Box -->
  <rect x="830" y="398" width="720" height="55" rx="2" fill="none" stroke="#fff" stroke-width="1"/>
  <text x="850" y="418" class="small">MARGIN FORMULA</text>
  <text x="850" y="440" class="formula">Sell Price - (Cost + eBay Fees 12.9% + Shipping) = Profit</text>
  <text x="1360" y="440" class="small">Target: 20-30%</text>

  <!-- ============================================ -->
  <!-- SECTION 3: LISTING OPTIMIZATION (middle-left) -->
  <!-- ============================================ -->

  <rect x="60" y="500" width="700" height="290" rx="3" fill="none" stroke="#fff" stroke-width="1"/>
  <text x="410" y="530" text-anchor="middle" class="section-title">03 / LISTING OPTIMIZATION</text>
  <line x1="80" y1="542" x2="740" y2="542" stroke="#333" stroke-width="0.5"/>

  <text x="100" y="566" class="checkbox">[ ] Title: 80 chars max, keywords first, no fluff</text>
  <text x="100" y="588" class="checkbox">[ ] 12 photos minimum (white bg, lifestyle, detail)</text>
  <text x="100" y="610" class="checkbox">[ ] Item specifics filled completely (100%)</text>
  <text x="100" y="632" class="checkbox">[ ] Description: benefits > features, mobile-friendly</text>
  <text x="100" y="654" class="checkbox">[ ] Competitive pricing (check sold comps first)</text>
  <text x="100" y="676" class="checkbox">[ ] Free shipping (bake cost into price)</text>
  <text x="100" y="698" class="checkbox">[ ] Best Offer enabled (set auto-accept threshold)</text>
  <text x="100" y="720" class="checkbox">[ ] Promoted Listings at 2-5% ad rate</text>

  <rect x="100" y="740" width="620" height="30" rx="2" fill="none" stroke="#333" stroke-width="0.5"/>
  <text x="110" y="760" class="small">TIP: Copy top seller format. Reverse-engineer what ranks on page 1.</text>

  <!-- ============================================ -->
  <!-- SECTION 4: AUTOMATION PIPELINE (middle-center) -->
  <!-- ============================================ -->

  <rect x="800" y="500" width="780" height="290" rx="3" fill="none" stroke="#fff" stroke-width="1"/>
  <text x="1190" y="530" text-anchor="middle" class="section-title">04 / AUTOMATION PIPELINE</text>
  <line x1="820" y1="542" x2="1560" y2="542" stroke="#333" stroke-width="0.5"/>

  <!-- Pipeline flow - row 1 -->
  <rect x="830" y="558" width="120" height="36" rx="2" fill="none" stroke="#fff" stroke-width="1"/>
  <text x="890" y="580" text-anchor="middle" class="small">PRODUCT FOUND</text>

  <line x1="950" y1="576" x2="980" y2="576" stroke="#999" stroke-width="1"/>
  <polygon points="980,572 990,576 980,580" fill="#999"/>

  <rect x="990" y="558" width="100" height="36" rx="2" fill="none" stroke="#fff" stroke-width="1"/>
  <text x="1040" y="580" text-anchor="middle" class="small">AUTO-LIST</text>

  <line x1="1090" y1="576" x2="1120" y2="576" stroke="#999" stroke-width="1"/>
  <polygon points="1120,572 1130,576 1120,580" fill="#999"/>

  <rect x="1130" y="558" width="130" height="36" rx="2" fill="none" stroke="#fff" stroke-width="1"/>
  <text x="1195" y="580" text-anchor="middle" class="small">ORDER RECEIVED</text>

  <line x1="1260" y1="576" x2="1290" y2="576" stroke="#999" stroke-width="1"/>
  <polygon points="1290,572 1300,576 1290,580" fill="#999"/>

  <rect x="1300" y="558" width="130" height="36" rx="2" fill="none" stroke="#fff" stroke-width="1"/>
  <text x="1365" y="580" text-anchor="middle" class="small">AUTO-PURCHASE</text>

  <!-- Pipeline flow - row 2 (continues right to left) -->
  <line x1="1365" y1="594" x2="1365" y2="620" stroke="#999" stroke-width="1"/>
  <polygon points="1361,620 1365,630 1369,620" fill="#999"/>

  <rect x="1300" y="630" width="130" height="36" rx="2" fill="none" stroke="#fff" stroke-width="1"/>
  <text x="1365" y="652" text-anchor="middle" class="small">TRACK SHIPMENT</text>

  <line x1="1300" y1="648" x2="1270" y2="648" stroke="#999" stroke-width="1"/>
  <polygon points="1270,644 1260,648 1270,652" fill="#999"/>

  <rect x="1130" y="630" width="130" height="36" rx="2" fill="none" stroke="#fff" stroke-width="1"/>
  <text x="1195" y="652" text-anchor="middle" class="small">DELIVER</text>

  <line x1="1130" y1="648" x2="1100" y2="648" stroke="#999" stroke-width="1"/>
  <polygon points="1100,644 1090,648 1100,652" fill="#999"/>

  <rect x="960" y="630" width="130" height="36" rx="2" fill="none" stroke="#fff" stroke-width="1"/>
  <text x="1025" y="652" text-anchor="middle" class="small">GET FEEDBACK</text>

  <!-- Automation Tools -->
  <text x="830" y="700" class="body-white">Automation Tools:</text>
  <rect x="830" y="710" width="110" height="24" rx="2" fill="none" stroke="#333" stroke-width="1"/>
  <text x="885" y="727" text-anchor="middle" class="small">AutoDS</text>

  <rect x="955" y="710" width="110" height="24" rx="2" fill="none" stroke="#333" stroke-width="1"/>
  <text x="1010" y="727" text-anchor="middle" class="small">DSM Tool</text>

  <rect x="1080" y="710" width="130" height="24" rx="2" fill="none" stroke="#333" stroke-width="1"/>
  <text x="1145" y="727" text-anchor="middle" class="small">Custom Scripts</text>

  <rect x="1225" y="710" width="110" height="24" rx="2" fill="none" stroke="#333" stroke-width="1"/>
  <text x="1280" y="727" text-anchor="middle" class="small">Hustle Got Real</text>

  <text x="830" y="760" class="checkbox">[ ] Tool selected    [ ] Supplier linked    [ ] Rules configured</text>

  <!-- ============================================ -->
  <!-- SECTION 5: PRICING STRATEGY (right column) -->
  <!-- ============================================ -->

  <rect x="1620" y="140" width="720" height="340" rx="3" fill="none" stroke="#fff" stroke-width="1"/>
  <text x="1980" y="170" text-anchor="middle" class="section-title">05 / PRICING STRATEGY</text>
  <line x1="1640" y1="182" x2="2320" y2="182" stroke="#333" stroke-width="0.5"/>

  <!-- Formula boxes -->
  <rect x="1650" y="198" width="320" height="34" rx="2" fill="none" stroke="#333" stroke-width="1"/>
  <text x="1660" y="220" class="formula">Target Margin: 20-30%</text>

  <rect x="1985" y="198" width="320" height="34" rx="2" fill="none" stroke="#333" stroke-width="1"/>
  <text x="1995" y="220" class="formula">eBay Final Value: ~12.9% + $0.30</text>

  <rect x="1650" y="245" width="320" height="34" rx="2" fill="none" stroke="#333" stroke-width="1"/>
  <text x="1660" y="267" class="formula">Payment Processing: ~2.9% + $0.30</text>

  <rect x="1985" y="245" width="320" height="34" rx="2" fill="none" stroke="#333" stroke-width="1"/>
  <text x="1995" y="267" class="formula">Returns Budget: 5% of revenue</text>

  <!-- Breakeven calculator -->
  <text x="1650" y="310" class="body-white">Breakeven Calculator:</text>
  <rect x="1650" y="320" width="660" height="90" rx="2" fill="none" stroke="#fff" stroke-width="1"/>

  <text x="1670" y="345" class="body">Product Cost:    $________</text>
  <text x="1670" y="365" class="body">Shipping Cost:   $________</text>
  <text x="1670" y="385" class="body">eBay Fees (15%): $________</text>

  <line x1="1960" y1="325" x2="1960" y2="405" stroke="#333" stroke-width="0.5"/>

  <text x="1980" y="345" class="body">Total Cost:      $________</text>
  <text x="1980" y="365" class="body">Min Sell Price:  $________</text>
  <text x="1980" y="385" class="body-white">Target Price:    $________ (at 25%)</text>

  <!-- Pricing tips -->
  <text x="1650" y="434" class="checkbox">[ ] Underprice competitors by 5-10% at launch</text>
  <text x="1650" y="454" class="checkbox">[ ] Use .99 or .95 pricing psychology</text>
  <text x="1650" y="474" class="checkbox">[ ] Set auto-repricer rules if using tools</text>

  <!-- ============================================ -->
  <!-- SECTION 6: SCALING (bottom-left) -->
  <!-- ============================================ -->

  <rect x="60" y="810" width="700" height="290" rx="3" fill="none" stroke="#fff" stroke-width="1"/>
  <text x="410" y="840" text-anchor="middle" class="section-title">06 / SCALING PATH</text>
  <line x1="80" y1="852" x2="740" y2="852" stroke="#333" stroke-width="0.5"/>

  <!-- Growth milestones -->
  <rect x="100" y="868" width="100" height="50" rx="2" fill="none" stroke="#333" stroke-width="1"/>
  <text x="150" y="889" text-anchor="middle" class="num">10</text>
  <text x="150" y="908" text-anchor="middle" class="small">listings/day</text>

  <line x1="200" y1="893" x2="240" y2="893" stroke="#999" stroke-width="1"/>
  <polygon points="240,889 250,893 240,897" fill="#999"/>

  <rect x="250" y="868" width="100" height="50" rx="2" fill="none" stroke="#fff" stroke-width="1"/>
  <text x="300" y="889" text-anchor="middle" class="num">100</text>
  <text x="300" y="908" text-anchor="middle" class="small">active</text>

  <line x1="350" y1="893" x2="390" y2="893" stroke="#999" stroke-width="1"/>
  <polygon points="390,889 400,893 390,897" fill="#999"/>

  <rect x="400" y="868" width="100" height="50" rx="2" fill="none" stroke="#fff" stroke-width="1"/>
  <text x="450" y="889" text-anchor="middle" class="num">500</text>
  <text x="450" y="908" text-anchor="middle" class="small">active</text>

  <line x1="500" y1="893" x2="540" y2="893" stroke="#999" stroke-width="1"/>
  <polygon points="540,889 550,893 540,897" fill="#999"/>

  <rect x="550" y="868" width="110" height="50" rx="2" fill="none" stroke="#fff" stroke-width="1.5"/>
  <text x="605" y="889" text-anchor="middle" class="num">1000+</text>
  <text x="605" y="908" text-anchor="middle" class="small">active</text>

  <!-- Revenue estimates -->
  <text x="100" y="948" class="body-white">Revenue Estimates (at 25% margin):</text>
  <text x="100" y="970" class="body">100 active listings  ~  $500-1,000/mo profit</text>
  <text x="100" y="990" class="body">500 active listings  ~  $2,500-5,000/mo profit</text>
  <text x="100" y="1010" class="body">1000 active listings ~  $5,000-10,000/mo profit</text>

  <text x="100" y="1040" class="checkbox">[ ] Hire VA at 500+ listings    [ ] Multi-account at 1000+</text>
  <text x="100" y="1060" class="checkbox">[ ] Systematize before scaling  [ ] Document all SOPs</text>

  <!-- ============================================ -->
  <!-- SECTION 7: RISK MANAGEMENT (bottom-center) -->
  <!-- ============================================ -->

  <rect x="800" y="810" width="500" height="290" rx="3" fill="none" stroke="#fff" stroke-width="1"/>
  <text x="1050" y="840" text-anchor="middle" class="section-title">07 / RISK MANAGEMENT</text>
  <line x1="820" y1="852" x2="1280" y2="852" stroke="#333" stroke-width="0.5"/>

  <text x="830" y="876" class="body-white">Account Health Metrics:</text>

  <!-- Metric bars -->
  <text x="830" y="900" class="body">Defect Rate</text>
  <rect x="970" y="888" width="200" height="16" rx="2" fill="none" stroke="#333" stroke-width="0.5"/>
  <rect x="970" y="888" width="180" height="16" rx="2" fill="none" stroke="#fff" stroke-width="0.5"/>
  <text x="1185" y="900" class="small">&lt; 2%</text>

  <text x="830" y="924" class="body">Late Shipment</text>
  <rect x="970" y="912" width="200" height="16" rx="2" fill="none" stroke="#333" stroke-width="0.5"/>
  <rect x="970" y="912" width="180" height="16" rx="2" fill="none" stroke="#fff" stroke-width="0.5"/>
  <text x="1185" y="924" class="small">&lt; 3%</text>

  <text x="830" y="948" class="body">Cases Closed</text>
  <rect x="970" y="936" width="200" height="16" rx="2" fill="none" stroke="#333" stroke-width="0.5"/>
  <rect x="970" y="936" width="180" height="16" rx="2" fill="none" stroke="#fff" stroke-width="0.5"/>
  <text x="1185" y="948" class="small">&lt; 0.3%</text>

  <!-- VeRO and IP -->
  <text x="830" y="980" class="body-white">VeRO / IP Awareness:</text>
  <text x="830" y="1000" class="checkbox">[ ] Check VeRO list before listing brands</text>
  <text x="830" y="1018" class="checkbox">[ ] No trademarked images from suppliers</text>
  <text x="830" y="1036" class="checkbox">[ ] Use generic photos when possible</text>
  <text x="830" y="1054" class="checkbox">[ ] Monitor eBay messages daily for DMCA</text>
  <text x="830" y="1072" class="checkbox">[ ] Remove flagged listings within 24hrs</text>

  <!-- ============================================ -->
  <!-- SECTION 8: DAILY/WEEKLY SCHEDULE (bottom-right) -->
  <!-- ============================================ -->

  <rect x="1340" y="810" width="1000" height="290" rx="3" fill="none" stroke="#fff" stroke-width="1"/>
  <text x="1840" y="840" text-anchor="middle" class="section-title">08 / DAILY + WEEKLY SCHEDULE</text>
  <line x1="1360" y1="852" x2="2320" y2="852" stroke="#333" stroke-width="0.5"/>

  <!-- Daily column -->
  <text x="1370" y="876" class="body-white">DAILY TASKS:</text>
  <line x1="1370" y1="884" x2="1800" y2="884" stroke="#333" stroke-width="0.5"/>

  <text x="1370" y="904" class="checkbox">[ ] Check + process all new orders</text>
  <text x="1370" y="924" class="checkbox">[ ] Purchase from supplier + upload tracking</text>
  <text x="1370" y="944" class="checkbox">[ ] List 10 new items minimum</text>
  <text x="1370" y="964" class="checkbox">[ ] Respond to buyer messages (&lt;24hr)</text>
  <text x="1370" y="984" class="checkbox">[ ] Handle returns/cases immediately</text>
  <text x="1370" y="1004" class="checkbox">[ ] Check account health dashboard</text>

  <!-- Weekly column -->
  <text x="1840" y="876" class="body-white">WEEKLY TASKS:</text>
  <line x1="1840" y1="884" x2="2300" y2="884" stroke="#333" stroke-width="0.5"/>

  <text x="1840" y="904" class="checkbox">[ ] Reprice underperforming listings</text>
  <text x="1840" y="924" class="checkbox">[ ] Competitor analysis (top sellers)</text>
  <text x="1840" y="944" class="checkbox">[ ] Review supplier pricing changes</text>
  <text x="1840" y="964" class="checkbox">[ ] Accounting + profit tracking</text>
  <text x="1840" y="984" class="checkbox">[ ] Remove stale listings (30+ days)</text>
  <text x="1840" y="1004" class="checkbox">[ ] Research 5 new product niches</text>

  <!-- Time blocks -->
  <rect x="1370" y="1024" width="930" height="50" rx="2" fill="none" stroke="#333" stroke-width="0.5"/>
  <text x="1390" y="1044" class="small">SUGGESTED BLOCKS:  Morning = Orders + Messages  |  Midday = Listing + Research  |  Evening = Sourcing + Analysis</text>
  <text x="1390" y="1062" class="small">TIME INVESTMENT:  Weeks 1-4: 3-4 hrs/day  |  Month 2+: 1-2 hrs/day (automated)</text>

  <!-- ============================================ -->
  <!-- BEZIER CONNECTORS between sections -->
  <!-- ============================================ -->

  <!-- Section 1 to Section 2 -->
  <path d="M 760,300 C 790,300 800,280 830,260" fill="none" stroke="#999" stroke-width="1" stroke-dasharray="4,4"/>
  <circle cx="830" cy="260" r="2.5" fill="#999"/>

  <!-- Section 2 to Section 5 -->
  <path d="M 1560,350 C 1590,350 1610,340 1620,330" fill="none" stroke="#999" stroke-width="1" stroke-dasharray="4,4"/>
  <circle cx="1620" cy="330" r="2.5" fill="#999"/>

  <!-- Section 1 to Section 3 -->
  <path d="M 410,480 C 410,490 410,495 410,500" fill="none" stroke="#999" stroke-width="1" stroke-dasharray="4,4"/>
  <circle cx="410" cy="500" r="2.5" fill="#999"/>

  <!-- Section 2 to Section 4 -->
  <path d="M 1190,480 C 1190,490 1190,495 1190,500" fill="none" stroke="#999" stroke-width="1" stroke-dasharray="4,4"/>
  <circle cx="1190" cy="500" r="2.5" fill="#999"/>

  <!-- Section 3 to Section 6 -->
  <path d="M 410,790 C 410,800 410,805 410,810" fill="none" stroke="#999" stroke-width="1" stroke-dasharray="4,4"/>
  <circle cx="410" cy="810" r="2.5" fill="#999"/>

  <!-- Section 4 to Section 7 -->
  <path d="M 1050,790 C 1050,800 1050,805 1050,810" fill="none" stroke="#999" stroke-width="1" stroke-dasharray="4,4"/>
  <circle cx="1050" cy="810" r="2.5" fill="#999"/>

  <!-- Section 5 to Section 8 -->
  <path d="M 1980,480 C 1980,600 1840,750 1840,810" fill="none" stroke="#999" stroke-width="1" stroke-dasharray="4,4"/>
  <circle cx="1840" cy="810" r="2.5" fill="#999"/>

  <!-- Section 4 to Section 8 -->
  <path d="M 1340,760 C 1500,790 1600,800 1700,810" fill="none" stroke="#999" stroke-width="1" stroke-dasharray="4,4"/>
  <circle cx="1700" cy="810" r="2.5" fill="#999"/>

  <!-- ============================================ -->
  <!-- REVENUE TRACKER TABLE (bottom) -->
  <!-- ============================================ -->

  <rect x="60" y="1120" width="2280" height="200" rx="3" fill="none" stroke="#fff" stroke-width="1"/>
  <text x="1200" y="1150" text-anchor="middle" class="section-title">REVENUE TRACKER</text>
  <line x1="80" y1="1162" x2="2320" y2="1162" stroke="#333" stroke-width="0.5"/>

  <!-- Table headers -->
  <text x="120" y="1185" class="table-head">MONTH</text>
  <text x="300" y="1185" class="table-head">LISTINGS</text>
  <text x="480" y="1185" class="table-head">REVENUE</text>
  <text x="660" y="1185" class="table-head">COST</text>
  <text x="840" y="1185" class="table-head">FEES</text>
  <text x="1020" y="1185" class="table-head">SHIPPING</text>
  <text x="1200" y="1185" class="table-head">RETURNS</text>
  <text x="1380" y="1185" class="table-head">PROFIT</text>
  <text x="1560" y="1185" class="table-head">MARGIN %</text>
  <text x="1740" y="1185" class="table-head">BEST SELLER</text>
  <text x="2020" y="1185" class="table-head">NOTES</text>

  <line x1="80" y1="1192" x2="2320" y2="1192" stroke="#333" stroke-width="0.5"/>

  <!-- Table rows -->
  <text x="120" y="1212" class="table-cell">Month 1</text>
  <text x="300" y="1212" class="table-cell">________</text>
  <text x="480" y="1212" class="table-cell">$________</text>
  <text x="660" y="1212" class="table-cell">$________</text>
  <text x="840" y="1212" class="table-cell">$________</text>
  <text x="1020" y="1212" class="table-cell">$________</text>
  <text x="1200" y="1212" class="table-cell">$________</text>
  <text x="1380" y="1212" class="table-cell">$________</text>
  <text x="1560" y="1212" class="table-cell">_______%</text>
  <text x="1740" y="1212" class="table-cell">________________</text>
  <text x="2020" y="1212" class="table-cell">________________</text>

  <line x1="80" y1="1222" x2="2320" y2="1222" stroke="#333" stroke-width="0.3"/>

  <text x="120" y="1240" class="table-cell">Month 2</text>
  <text x="300" y="1240" class="table-cell">________</text>
  <text x="480" y="1240" class="table-cell">$________</text>
  <text x="660" y="1240" class="table-cell">$________</text>
  <text x="840" y="1240" class="table-cell">$________</text>
  <text x="1020" y="1240" class="table-cell">$________</text>
  <text x="1200" y="1240" class="table-cell">$________</text>
  <text x="1380" y="1240" class="table-cell">$________</text>
  <text x="1560" y="1240" class="table-cell">_______%</text>
  <text x="1740" y="1240" class="table-cell">________________</text>
  <text x="2020" y="1240" class="table-cell">________________</text>

  <line x1="80" y1="1250" x2="2320" y2="1250" stroke="#333" stroke-width="0.3"/>

  <text x="120" y="1268" class="table-cell">Month 3</text>
  <text x="300" y="1268" class="table-cell">________</text>
  <text x="480" y="1268" class="table-cell">$________</text>
  <text x="660" y="1268" class="table-cell">$________</text>
  <text x="840" y="1268" class="table-cell">$________</text>
  <text x="1020" y="1268" class="table-cell">$________</text>
  <text x="1200" y="1268" class="table-cell">$________</text>
  <text x="1380" y="1268" class="table-cell">$________</text>
  <text x="1560" y="1268" class="table-cell">_______%</text>
  <text x="1740" y="1268" class="table-cell">________________</text>
  <text x="2020" y="1268" class="table-cell">________________</text>

  <line x1="80" y1="1278" x2="2320" y2="1278" stroke="#333" stroke-width="0.3"/>

  <text x="120" y="1296" class="table-cell">Month 6</text>
  <text x="300" y="1296" class="table-cell">________</text>
  <text x="480" y="1296" class="table-cell">$________</text>
  <text x="660" y="1296" class="table-cell">$________</text>
  <text x="840" y="1296" class="table-cell">$________</text>
  <text x="1020" y="1296" class="table-cell">$________</text>
  <text x="1200" y="1296" class="table-cell">$________</text>
  <text x="1380" y="1296" class="table-cell">$________</text>
  <text x="1560" y="1296" class="table-cell">_______%</text>
  <text x="1740" y="1296" class="table-cell">________________</text>
  <text x="2020" y="1296" class="table-cell">________________</text>

  <!-- ============================================ -->
  <!-- FOOTER -->
  <!-- ============================================ -->

  <line x1="80" y1="1340" x2="2320" y2="1340" stroke="#333" stroke-width="0.5"/>

  <!-- Quick reference footer -->
  <rect x="60" y="1360" width="740" height="140" rx="3" fill="none" stroke="#333" stroke-width="0.5"/>
  <text x="430" y="1385" text-anchor="middle" class="body-white">QUICK REFERENCE: KEY METRICS</text>
  <text x="100" y="1410" class="small">Good sell-through rate: 15-25%</text>
  <text x="100" y="1428" class="small">Average days to sell: 7-21 days</text>
  <text x="100" y="1446" class="small">eBay search algorithm: Cassini</text>
  <text x="100" y="1464" class="small">Top Rated Seller: 100+ items/yr, 98%+ feedback</text>
  <text x="100" y="1482" class="small">PowerSeller: $1K+/mo or 100+ items/mo</text>

  <rect x="840" y="1360" width="740" height="140" rx="3" fill="none" stroke="#333" stroke-width="0.5"/>
  <text x="1210" y="1385" text-anchor="middle" class="body-white">SUPPLIER RED FLAGS</text>
  <text x="880" y="1410" class="small">Shipping time > 14 days (customer complaints)</text>
  <text x="880" y="1428" class="small">No tracking number provided</text>
  <text x="880" y="1446" class="small">Inconsistent product quality / photos</text>
  <text x="880" y="1464" class="small">No return policy or communication</text>
  <text x="880" y="1482" class="small">Price fluctuations > 15% without notice</text>

  <rect x="1620" y="1360" width="720" height="140" rx="3" fill="none" stroke="#333" stroke-width="0.5"/>
  <text x="1980" y="1385" text-anchor="middle" class="body-white">COMMON MISTAKES TO AVOID</text>
  <text x="1660" y="1410" class="small">Listing restricted/VeRO brands</text>
  <text x="1660" y="1428" class="small">Not factoring ALL fees into pricing</text>
  <text x="1660" y="1446" class="small">Scaling before systems are solid</text>
  <text x="1660" y="1464" class="small">Ignoring customer messages > 24hrs</text>
  <text x="1660" y="1482" class="small">No backup supplier for top sellers</text>

  <!-- Bottom border accent -->
  <line x1="60" y1="1520" x2="2340" y2="1520" stroke="#333" stroke-width="0.5"/>
  <text x="1200" y="1545" text-anchor="middle" class="small">EBAY DROPSHIPPING BLUEPRINT  /  PRINT. FILL IN. EXECUTE.  /  behike.co</text>

</svg>