<?xml version="1.0" encoding="UTF-8"?>
<svg xmlns="http://www.w3.org/2000/svg" viewBox="0 0 2550 3300" width="2550" height="3300">
  <defs>
    <style>
      text { font-family: 'Helvetica Neue', Helvetica, Arial, sans-serif; fill: #fff; }
      .title { font-size: 56px; font-weight: 300; letter-spacing: 6px; }
      .subtitle { font-size: 20px; fill: #999; letter-spacing: 3px; font-weight: 300; }
      .section-title { font-size: 32px; font-weight: 500; letter-spacing: 1px; }
      .body { font-size: 18px; fill: #999; font-weight: 400; }
      .body-white { font-size: 18px; fill: #fff; font-weight: 400; }
      .label { font-size: 14px; fill: #999; letter-spacing: 1px; text-transform: uppercase; font-weight: 500; }
      .checkbox { font-size: 18px; fill: #999; font-weight: 300; }
      .table-head { font-size: 16px; font-weight: 600; fill: #fff; }
      .table-cell { font-size: 15px; fill: #999; font-weight: 300; }
      .hub-label { font-size: 28px; font-weight: 600; letter-spacing: 3px; }
      .hub-sub { font-size: 14px; fill: #999; letter-spacing: 2px; font-weight: 300; }
      .kpi-value { font-size: 22px; fill: #999; font-weight: 300; letter-spacing: 1px; }
      .kpi-label { font-size: 16px; fill: #fff; font-weight: 500; }
      .brand { font-size: 16px; fill: #666; letter-spacing: 4px; font-weight: 300; }
      .accent-text { fill: #007AFF; font-size: 14px; font-weight: 600; letter-spacing: 1px; }
      .tier-label { font-size: 20px; font-weight: 500; }
      .stage-label { font-size: 24px; font-weight: 600; letter-spacing: 2px; }
    </style>
  </defs>

  <!-- Background -->
  <rect width="2550" height="3300" fill="#000"/>
  <rect x="60" y="60" width="2430" height="3180" fill="none" stroke="#222" stroke-width="1"/>

  <!-- Header -->
  <text x="1275" y="160" text-anchor="middle" class="title">FREELANCER TO AGENCY</text>
  <rect x="475" y="180" width="1600" height="3" rx="1.5" fill="#007AFF" opacity="0.6"/>
  <text x="1275" y="220" text-anchor="middle" class="subtitle">FROM SOLO OPERATOR TO SCALABLE BUSINESS</text>

  <!-- Evolution spine -->
  <rect x="200" y="280" width="280" height="80" rx="40" fill="none" stroke="#007AFF" stroke-width="2"/>
  <text x="340" y="328" text-anchor="middle" class="stage-label">FREELANCER</text>

  <line x1="480" y1="320" x2="620" y2="320" stroke="#007AFF" stroke-width="1.5"/>
  <polygon points="617,316 627,320 617,324" fill="#007AFF"/>
  <text x="550" y="306" text-anchor="middle" class="label">systemize</text>

  <rect x="630" y="280" width="280" height="80" rx="40" fill="none" stroke="#fff" stroke-width="1.5"/>
  <text x="770" y="328" text-anchor="middle" class="stage-label">STUDIO</text>

  <line x1="910" y1="320" x2="1050" y2="320" stroke="#007AFF" stroke-width="1.5"/>
  <polygon points="1047,316 1057,320 1047,324" fill="#007AFF"/>
  <text x="980" y="306" text-anchor="middle" class="label">scale</text>

  <rect x="1060" y="280" width="280" height="80" rx="40" fill="none" stroke="#fff" stroke-width="1.5"/>
  <text x="1200" y="328" text-anchor="middle" class="stage-label">AGENCY</text>

  <text x="1440" y="325" class="body">Current Stage</text>
  <rect x="1620" y="300" width="300" height="32" rx="6" fill="none" stroke="#333" stroke-width="0.5"/>

  <!-- ============================================ -->
  <!-- SECTION 1: Service Definition (left) -->
  <!-- ============================================ -->
  <path d="M 340,360 C 340,400 340,420 340,440" fill="none" stroke="#555" stroke-width="1" stroke-dasharray="6,4"/>

  <rect x="100" y="440" width="680" height="380" rx="6" fill="none" stroke="#fff" stroke-width="1"/>
  <text x="440" y="490" text-anchor="middle" class="section-title">01  Service Definition</text>
  <rect x="200" y="505" width="480" height="2" rx="1" fill="#007AFF" opacity="0.5"/>

  <text x="130" y="545" class="body">Core Service</text>
  <rect x="330" y="526" width="420" height="28" rx="4" fill="none" stroke="#333" stroke-width="0.5"/>

  <text x="130" y="590" class="body">Niche / Industry</text>
  <rect x="370" y="571" width="380" height="28" rx="4" fill="none" stroke="#333" stroke-width="0.5"/>

  <text x="130" y="635" class="body">Unique Value Proposition</text>
  <rect x="130" y="650" width="620" height="50" rx="4" fill="none" stroke="#333" stroke-width="0.5"/>

  <text x="130" y="730" class="body">Deliverables</text>
  <text x="130" y="765" class="checkbox">[ ] ________________________     [ ] ________________________</text>
  <text x="130" y="798" class="checkbox">[ ] ________________________     [ ] ________________________</text>

  <!-- ============================================ -->
  <!-- SECTION 2: Pricing Tiers (center) -->
  <!-- ============================================ -->
  <path d="M 770,360 C 770,400 770,420 770,440" fill="none" stroke="#555" stroke-width="1" stroke-dasharray="6,4"/>

  <rect x="830" y="440" width="680" height="380" rx="6" fill="none" stroke="#fff" stroke-width="1"/>
  <text x="1170" y="490" text-anchor="middle" class="section-title">02  Pricing Tiers</text>
  <rect x="970" y="505" width="400" height="2" rx="1" fill="#007AFF" opacity="0.5"/>

  <!-- Three pricing tiers -->
  <rect x="860" y="530" width="200" height="100" rx="8" fill="none" stroke="#007AFF" stroke-width="1.5"/>
  <text x="960" y="565" text-anchor="middle" class="tier-label">BASIC</text>
  <text x="960" y="590" text-anchor="middle" class="body">$________</text>
  <rect x="880" y="600" width="160" height="20" rx="4" fill="none" stroke="#333" stroke-width="0.5"/>

  <rect x="1080" y="530" width="200" height="100" rx="8" fill="none" stroke="#007AFF" stroke-width="1.5"/>
  <text x="1180" y="565" text-anchor="middle" class="tier-label">STANDARD</text>
  <text x="1180" y="590" text-anchor="middle" class="body">$________</text>
  <rect x="1100" y="600" width="160" height="20" rx="4" fill="none" stroke="#333" stroke-width="0.5"/>

  <rect x="1300" y="530" width="200" height="100" rx="8" fill="none" stroke="#fff" stroke-width="1.5"/>
  <text x="1400" y="565" text-anchor="middle" class="tier-label">PREMIUM</text>
  <text x="1400" y="590" text-anchor="middle" class="body">$________</text>
  <rect x="1320" y="600" width="160" height="20" rx="4" fill="none" stroke="#333" stroke-width="0.5"/>

  <text x="860" y="665" class="body">Hourly Rate</text>
  <rect x="1020" y="646" width="180" height="28" rx="4" fill="none" stroke="#333" stroke-width="0.5"/>

  <text x="860" y="710" class="body">Retainer Offer</text>
  <rect x="1060" y="691" width="420" height="28" rx="4" fill="none" stroke="#333" stroke-width="0.5"/>

  <text x="860" y="755" class="body">Value-Based Pricing</text>
  <text x="1170" y="755" class="checkbox">[ ] Active     [ ] Planning</text>

  <text x="860" y="795" class="body">Pricing Review</text>
  <text x="1100" y="795" class="checkbox">[ ] Quarterly     [ ] Bi-annual</text>

  <!-- ============================================ -->
  <!-- SECTION 3: Client Acquisition (right) -->
  <!-- ============================================ -->
  <path d="M 1200,360 C 1200,400 1200,420 1200,440" fill="none" stroke="#555" stroke-width="1" stroke-dasharray="6,4"/>

  <rect x="1560" y="440" width="680" height="380" rx="6" fill="none" stroke="#fff" stroke-width="1"/>
  <text x="1900" y="490" text-anchor="middle" class="section-title">03  Client Acquisition</text>
  <rect x="1700" y="505" width="400" height="2" rx="1" fill="#007AFF" opacity="0.5"/>

  <text x="1590" y="545" class="accent-text">INBOUND CHANNELS</text>
  <text x="1590" y="580" class="checkbox">[ ] Portfolio / website          [ ] SEO / blog content</text>
  <text x="1590" y="615" class="checkbox">[ ] Social media presence        [ ] Referral program</text>
  <text x="1590" y="650" class="checkbox">[ ] Content marketing            [ ] Email list</text>

  <text x="1590" y="695" class="accent-text">OUTBOUND CHANNELS</text>
  <text x="1590" y="730" class="checkbox">[ ] Cold email / DM              [ ] Upwork / Fiverr</text>
  <text x="1590" y="765" class="checkbox">[ ] LinkedIn outreach            [ ] Networking / events</text>

  <text x="1590" y="805" class="body">Monthly Client Target</text>
  <rect x="1870" y="786" width="200" height="28" rx="4" fill="none" stroke="#333" stroke-width="0.5"/>

  <!-- ============================================ -->
  <!-- SECTION 4: Client Management (mid-left) -->
  <!-- ============================================ -->
  <rect x="100" y="890" width="680" height="360" rx="6" fill="none" stroke="#fff" stroke-width="1"/>
  <text x="440" y="940" text-anchor="middle" class="section-title">04  Client Management</text>
  <rect x="200" y="955" width="480" height="2" rx="1" fill="#007AFF" opacity="0.5"/>

  <text x="130" y="995" class="body">CRM / Project Tool</text>
  <rect x="380" y="976" width="370" height="28" rx="4" fill="none" stroke="#333" stroke-width="0.5"/>

  <text x="130" y="1040" class="body">Client Onboarding Checklist</text>
  <text x="130" y="1075" class="checkbox">[ ] Contract signed        [ ] Invoice sent       [ ] Kickoff call</text>
  <text x="130" y="1110" class="checkbox">[ ] Brief received         [ ] Access granted      [ ] Timeline set</text>

  <text x="130" y="1155" class="body">Communication</text>
  <text x="130" y="1190" class="checkbox">[ ] Weekly updates     [ ] Slack / email     [ ] Loom videos</text>

  <!-- ============================================ -->
  <!-- SECTION 5: Scaling Plan (mid-right) -->
  <!-- ============================================ -->
  <rect x="830" y="890" width="680" height="360" rx="6" fill="none" stroke="#fff" stroke-width="1"/>
  <text x="1170" y="940" text-anchor="middle" class="section-title">05  Scaling Plan</text>
  <rect x="970" y="955" width="400" height="2" rx="1" fill="#007AFF" opacity="0.5"/>

  <text x="860" y="995" class="accent-text">WHEN TO SCALE</text>
  <text x="860" y="1030" class="checkbox">[ ] Booked 3+ months out</text>
  <text x="860" y="1065" class="checkbox">[ ] Turning away clients</text>
  <text x="860" y="1100" class="checkbox">[ ] Revenue above $______/mo</text>

  <text x="860" y="1145" class="accent-text">HOW TO SCALE</text>
  <text x="860" y="1180" class="checkbox">[ ] Hire subcontractors           [ ] Build SOPs</text>
  <text x="860" y="1215" class="checkbox">[ ] Productize services           [ ] Raise prices</text>

  <!-- ============================================ -->
  <!-- SECTION 6: Legal + Finance (far-right) -->
  <!-- ============================================ -->
  <rect x="1560" y="890" width="680" height="360" rx="6" fill="none" stroke="#fff" stroke-width="1"/>
  <text x="1900" y="940" text-anchor="middle" class="section-title">06  Legal + Finance</text>
  <rect x="1700" y="955" width="400" height="2" rx="1" fill="#007AFF" opacity="0.5"/>

  <text x="1590" y="995" class="body">Business Entity</text>
  <text x="1590" y="1030" class="checkbox">[ ] Sole Prop     [ ] LLC     [ ] S-Corp     [ ] Other</text>

  <text x="1590" y="1075" class="body">Contract Template</text>
  <text x="1900" y="1075" class="checkbox">[ ] Yes     [ ] No</text>

  <text x="1590" y="1115" class="body">Invoicing Tool</text>
  <rect x="1800" y="1096" width="410" height="28" rx="4" fill="none" stroke="#333" stroke-width="0.5"/>

  <text x="1590" y="1160" class="body">Tax Setup</text>
  <text x="1590" y="1195" class="checkbox">[ ] Quarterly estimated     [ ] Accountant     [ ] Self-filed</text>

  <!-- ============================================ -->
  <!-- SECTION 7: Daily + Weekly Schedule -->
  <!-- ============================================ -->
  <rect x="100" y="1320" width="1150" height="380" rx="6" fill="none" stroke="#fff" stroke-width="1"/>
  <text x="675" y="1370" text-anchor="middle" class="section-title">07  Daily + Weekly Schedule</text>
  <rect x="325" y="1385" width="700" height="2" rx="1" fill="#007AFF" opacity="0.5"/>

  <text x="140" y="1430" class="accent-text">DAILY</text>
  <text x="140" y="1468" class="checkbox">[ ] Client work / deep focus block                  (3-4 hr)</text>
  <text x="140" y="1503" class="checkbox">[ ] Admin, emails, invoicing                         (30 min)</text>
  <text x="140" y="1538" class="checkbox">[ ] Business development / outreach                  (45 min)</text>
  <text x="140" y="1573" class="checkbox">[ ] Content / personal brand                         (30 min)</text>

  <line x1="120" y1="1595" x2="1220" y2="1595" stroke="#333" stroke-width="0.5"/>

  <text x="140" y="1630" class="accent-text">WEEKLY</text>
  <text x="140" y="1665" class="checkbox">[ ] Pipeline review + follow-ups                     (Mon)</text>
  <text x="140" y="1695" class="checkbox">[ ] Financial review + invoicing                     (Fri)</text>

  <!-- ============================================ -->
  <!-- SECTION 8: Portfolio + Positioning -->
  <!-- ============================================ -->
  <rect x="1300" y="1320" width="1150" height="380" rx="6" fill="none" stroke="#fff" stroke-width="1"/>
  <text x="1875" y="1370" text-anchor="middle" class="section-title">08  Portfolio + Positioning</text>
  <rect x="1575" y="1385" width="600" height="2" rx="1" fill="#007AFF" opacity="0.5"/>

  <text x="1340" y="1430" class="body">Portfolio URL</text>
  <rect x="1540" y="1411" width="480" height="28" rx="4" fill="none" stroke="#333" stroke-width="0.5"/>

  <text x="1340" y="1480" class="body">Case Studies</text>
  <text x="1340" y="1515" class="checkbox">[ ] ________________________     Results: ____________</text>
  <text x="1340" y="1548" class="checkbox">[ ] ________________________     Results: ____________</text>
  <text x="1340" y="1581" class="checkbox">[ ] ________________________     Results: ____________</text>

  <text x="1340" y="1625" class="body">Testimonials Collected</text>
  <text x="1640" y="1625" class="checkbox">[ ] 0-2     [ ] 3-5     [ ] 6-10     [ ] 10+</text>

  <text x="1340" y="1670" class="body">Positioning Statement</text>
  <rect x="1340" y="1683" width="680" height="40" rx="4" fill="none" stroke="#333" stroke-width="0.5"/>

  <!-- ============================================ -->
  <!-- REVENUE TRACKER TABLE -->
  <!-- ============================================ -->
  <rect x="100" y="1770" width="2350" height="380" rx="6" fill="none" stroke="#fff" stroke-width="1"/>
  <text x="1275" y="1820" text-anchor="middle" class="section-title">Revenue Tracker</text>
  <rect x="875" y="1835" width="800" height="2" rx="1" fill="#007AFF" opacity="0.5"/>

  <text x="170" y="1875" class="table-head">METRIC</text>
  <text x="460" y="1875" text-anchor="middle" class="table-head">M1</text>
  <text x="620" y="1875" text-anchor="middle" class="table-head">M2</text>
  <text x="780" y="1875" text-anchor="middle" class="table-head">M3</text>
  <text x="940" y="1875" text-anchor="middle" class="table-head">M4</text>
  <text x="1100" y="1875" text-anchor="middle" class="table-head">M5</text>
  <text x="1260" y="1875" text-anchor="middle" class="table-head">M6</text>
  <text x="1420" y="1875" text-anchor="middle" class="table-head">M7</text>
  <text x="1580" y="1875" text-anchor="middle" class="table-head">M8</text>
  <text x="1740" y="1875" text-anchor="middle" class="table-head">M9</text>
  <text x="1900" y="1875" text-anchor="middle" class="table-head">M10</text>
  <text x="2060" y="1875" text-anchor="middle" class="table-head">M11</text>
  <text x="2220" y="1875" text-anchor="middle" class="table-head">M12</text>
  <line x1="130" y1="1888" x2="2420" y2="1888" stroke="#333" stroke-width="0.5"/>

  <text x="170" y="1920" class="table-cell">Revenue</text>
  <text x="460" y="1920" text-anchor="middle" class="table-cell">$_______</text>
  <text x="620" y="1920" text-anchor="middle" class="table-cell">$_______</text>
  <text x="780" y="1920" text-anchor="middle" class="table-cell">$_______</text>
  <text x="940" y="1920" text-anchor="middle" class="table-cell">$_______</text>
  <text x="1100" y="1920" text-anchor="middle" class="table-cell">$_______</text>
  <text x="1260" y="1920" text-anchor="middle" class="table-cell">$_______</text>
  <text x="1420" y="1920" text-anchor="middle" class="table-cell">$_______</text>
  <text x="1580" y="1920" text-anchor="middle" class="table-cell">$_______</text>
  <text x="1740" y="1920" text-anchor="middle" class="table-cell">$_______</text>
  <text x="1900" y="1920" text-anchor="middle" class="table-cell">$_______</text>
  <text x="2060" y="1920" text-anchor="middle" class="table-cell">$_______</text>
  <text x="2220" y="1920" text-anchor="middle" class="table-cell">$_______</text>
  <line x1="130" y1="1935" x2="2420" y2="1935" stroke="#222" stroke-width="0.5"/>

  <text x="170" y="1965" class="table-cell">Expenses</text>
  <text x="460" y="1965" text-anchor="middle" class="table-cell">$_______</text>
  <text x="620" y="1965" text-anchor="middle" class="table-cell">$_______</text>
  <text x="780" y="1965" text-anchor="middle" class="table-cell">$_______</text>
  <text x="940" y="1965" text-anchor="middle" class="table-cell">$_______</text>
  <text x="1100" y="1965" text-anchor="middle" class="table-cell">$_______</text>
  <text x="1260" y="1965" text-anchor="middle" class="table-cell">$_______</text>
  <text x="1420" y="1965" text-anchor="middle" class="table-cell">$_______</text>
  <text x="1580" y="1965" text-anchor="middle" class="table-cell">$_______</text>
  <text x="1740" y="1965" text-anchor="middle" class="table-cell">$_______</text>
  <text x="1900" y="1965" text-anchor="middle" class="table-cell">$_______</text>
  <text x="2060" y="1965" text-anchor="middle" class="table-cell">$_______</text>
  <text x="2220" y="1965" text-anchor="middle" class="table-cell">$_______</text>
  <line x1="130" y1="1980" x2="2420" y2="1980" stroke="#fff" stroke-width="0.5"/>

  <text x="170" y="2010" class="body-white">NET PROFIT</text>
  <text x="460" y="2010" text-anchor="middle" class="table-cell">$_______</text>
  <text x="620" y="2010" text-anchor="middle" class="table-cell">$_______</text>
  <text x="780" y="2010" text-anchor="middle" class="table-cell">$_______</text>
  <text x="940" y="2010" text-anchor="middle" class="table-cell">$_______</text>
  <text x="1100" y="2010" text-anchor="middle" class="table-cell">$_______</text>
  <text x="1260" y="2010" text-anchor="middle" class="table-cell">$_______</text>
  <text x="1420" y="2010" text-anchor="middle" class="table-cell">$_______</text>
  <text x="1580" y="2010" text-anchor="middle" class="table-cell">$_______</text>
  <text x="1740" y="2010" text-anchor="middle" class="table-cell">$_______</text>
  <text x="1900" y="2010" text-anchor="middle" class="table-cell">$_______</text>
  <text x="2060" y="2010" text-anchor="middle" class="table-cell">$_______</text>
  <text x="2220" y="2010" text-anchor="middle" class="table-cell">$_______</text>
  <line x1="130" y1="2025" x2="2420" y2="2025" stroke="#222" stroke-width="0.5"/>

  <text x="170" y="2055" class="table-cell">Active Clients</text>
  <text x="460" y="2055" text-anchor="middle" class="table-cell">________</text>
  <text x="620" y="2055" text-anchor="middle" class="table-cell">________</text>
  <text x="780" y="2055" text-anchor="middle" class="table-cell">________</text>
  <text x="940" y="2055" text-anchor="middle" class="table-cell">________</text>
  <text x="1100" y="2055" text-anchor="middle" class="table-cell">________</text>
  <text x="1260" y="2055" text-anchor="middle" class="table-cell">________</text>
  <text x="1420" y="2055" text-anchor="middle" class="table-cell">________</text>
  <text x="1580" y="2055" text-anchor="middle" class="table-cell">________</text>
  <text x="1740" y="2055" text-anchor="middle" class="table-cell">________</text>
  <text x="1900" y="2055" text-anchor="middle" class="table-cell">________</text>
  <text x="2060" y="2055" text-anchor="middle" class="table-cell">________</text>
  <text x="2220" y="2055" text-anchor="middle" class="table-cell">________</text>
  <line x1="130" y1="2070" x2="2420" y2="2070" stroke="#222" stroke-width="0.5"/>

  <text x="170" y="2100" class="table-cell">New Leads</text>
  <text x="460" y="2100" text-anchor="middle" class="table-cell">________</text>
  <text x="620" y="2100" text-anchor="middle" class="table-cell">________</text>
  <text x="780" y="2100" text-anchor="middle" class="table-cell">________</text>
  <text x="940" y="2100" text-anchor="middle" class="table-cell">________</text>
  <text x="1100" y="2100" text-anchor="middle" class="table-cell">________</text>
  <text x="1260" y="2100" text-anchor="middle" class="table-cell">________</text>
  <text x="1420" y="2100" text-anchor="middle" class="table-cell">________</text>
  <text x="1580" y="2100" text-anchor="middle" class="table-cell">________</text>
  <text x="1740" y="2100" text-anchor="middle" class="table-cell">________</text>
  <text x="1900" y="2100" text-anchor="middle" class="table-cell">________</text>
  <text x="2060" y="2100" text-anchor="middle" class="table-cell">________</text>
  <text x="2220" y="2100" text-anchor="middle" class="table-cell">________</text>

  <!-- ============================================ -->
  <!-- KPI FOOTER -->
  <!-- ============================================ -->
  <line x1="100" y1="2220" x2="2450" y2="2220" stroke="#333" stroke-width="0.5"/>

  <rect x="100" y="2260" width="380" height="120" rx="8" fill="none" stroke="#333" stroke-width="1"/>
  <text x="290" y="2310" text-anchor="middle" class="kpi-label">HOURLY RATE</text>
  <text x="290" y="2350" text-anchor="middle" class="kpi-value">$_____ / hr</text>

  <rect x="530" y="2260" width="380" height="120" rx="8" fill="none" stroke="#333" stroke-width="1"/>
  <text x="720" y="2310" text-anchor="middle" class="kpi-label">MONTHLY TARGET</text>
  <text x="720" y="2350" text-anchor="middle" class="kpi-value">$_______________</text>

  <rect x="960" y="2260" width="380" height="120" rx="8" fill="none" stroke="#333" stroke-width="1"/>
  <text x="1150" y="2310" text-anchor="middle" class="kpi-label">CLIENT CAPACITY</text>
  <text x="1150" y="2350" text-anchor="middle" class="kpi-value">_____ clients</text>

  <rect x="1390" y="2260" width="380" height="120" rx="8" fill="none" stroke="#333" stroke-width="1"/>
  <text x="1580" y="2310" text-anchor="middle" class="kpi-label">AVG PROJECT VALUE</text>
  <text x="1580" y="2350" text-anchor="middle" class="kpi-value">$_______________</text>

  <rect x="1820" y="2260" width="380" height="120" rx="8" fill="none" stroke="#333" stroke-width="1"/>
  <text x="2010" y="2310" text-anchor="middle" class="kpi-label">12-MO REVENUE GOAL</text>
  <text x="2010" y="2350" text-anchor="middle" class="kpi-value">$_______________</text>

  <!-- Notes section -->
  <rect x="100" y="2440" width="2350" height="350" rx="6" fill="none" stroke="#333" stroke-width="1"/>
  <text x="1275" y="2490" text-anchor="middle" class="section-title">Notes</text>
  <rect x="975" y="2505" width="600" height="2" rx="1" fill="#007AFF" opacity="0.3"/>
  <line x1="150" y1="2540" x2="2400" y2="2540" stroke="#222" stroke-width="0.5"/>
  <line x1="150" y1="2580" x2="2400" y2="2580" stroke="#222" stroke-width="0.5"/>
  <line x1="150" y1="2620" x2="2400" y2="2620" stroke="#222" stroke-width="0.5"/>
  <line x1="150" y1="2660" x2="2400" y2="2660" stroke="#222" stroke-width="0.5"/>
  <line x1="150" y1="2700" x2="2400" y2="2700" stroke="#222" stroke-width="0.5"/>
  <line x1="150" y1="2740" x2="2400" y2="2740" stroke="#222" stroke-width="0.5"/>

  <!-- Growth milestones -->
  <rect x="100" y="2850" width="2350" height="250" rx="6" fill="none" stroke="#fff" stroke-width="1"/>
  <text x="1275" y="2900" text-anchor="middle" class="section-title">Growth Milestones</text>
  <rect x="875" y="2915" width="800" height="2" rx="1" fill="#007AFF" opacity="0.5"/>

  <text x="150" y="2960" class="checkbox">[ ] First paying client                   Date: _______________</text>
  <text x="150" y="2995" class="checkbox">[ ] First $1K month                       Date: _______________</text>
  <text x="150" y="3030" class="checkbox">[ ] First $5K month                       Date: _______________</text>
  <text x="150" y="3065" class="checkbox">[ ] First subcontractor hired             Date: _______________</text>

  <text x="1275" y="2960" class="checkbox">[ ] First retainer client                 Date: _______________</text>
  <text x="1275" y="2995" class="checkbox">[ ] First $10K month                      Date: _______________</text>
  <text x="1275" y="3030" class="checkbox">[ ] First agency client                   Date: _______________</text>
  <text x="1275" y="3065" class="checkbox">[ ] $100K annual revenue                  Date: _______________</text>

  <!-- Brand footer -->
  <text x="1275" y="3180" text-anchor="middle" class="brand">BUSINESS BLUEPRINT PACK</text>
  <text x="1275" y="3210" text-anchor="middle" class="label">behike.co</text>

  <!-- Corner marks -->
  <line x1="80" y1="80" x2="105" y2="80" stroke="#333" stroke-width="0.5"/>
  <line x1="80" y1="80" x2="80" y2="105" stroke="#333" stroke-width="0.5"/>
  <line x1="2470" y1="80" x2="2445" y2="80" stroke="#333" stroke-width="0.5"/>
  <line x1="2470" y1="80" x2="2470" y2="105" stroke="#333" stroke-width="0.5"/>
  <line x1="80" y1="3220" x2="105" y2="3220" stroke="#333" stroke-width="0.5"/>
  <line x1="80" y1="3220" x2="80" y2="3195" stroke="#333" stroke-width="0.5"/>
  <line x1="2470" y1="3220" x2="2445" y2="3220" stroke="#333" stroke-width="0.5"/>
  <line x1="2470" y1="3220" x2="2470" y2="3195" stroke="#333" stroke-width="0.5"/>

</svg>