<?xml version="1.0" encoding="UTF-8"?>
<svg xmlns="http://www.w3.org/2000/svg" viewBox="0 0 2400 1800" width="2400" height="1800">
  <defs>
    <style>
      text { font-family: 'Helvetica Neue', Helvetica, Arial, sans-serif; fill: #fff; }
      .title { font-size: 28px; font-weight: bold; letter-spacing: 4px; }
      .subtitle { font-size: 14px; fill: #999; letter-spacing: 2px; }
      .section-title { font-size: 16px; font-weight: bold; letter-spacing: 1px; }
      .body { font-size: 12px; fill: #999; }
      .body-white { font-size: 12px; fill: #fff; }
      .small { font-size: 10px; fill: #999; }
      .checkbox { font-size: 11px; fill: #999; }
      .table-head { font-size: 11px; font-weight: bold; fill: #fff; }
      .table-cell { font-size: 10px; fill: #999; }
      .hub-label { font-size: 18px; font-weight: bold; letter-spacing: 2px; }
      .tier-label { font-size: 14px; font-weight: bold; }
      .accent { font-size: 20px; font-weight: bold; }
      .metric-value { font-size: 22px; font-weight: bold; }
      .metric-label { font-size: 10px; fill: #999; letter-spacing: 1px; }
    </style>
  </defs>

  <!-- Background -->
  <rect width="2400" height="1800" fill="#000"/>

  <!-- Border -->
  <rect x="30" y="30" width="2340" height="1740" fill="none" stroke="#333" stroke-width="1"/>
  <rect x="35" y="35" width="2330" height="1730" fill="none" stroke="#222" stroke-width="0.5"/>

  <!-- Header -->
  <text x="1200" y="80" text-anchor="middle" class="title">YOUTUBE CHANNEL BLUEPRINT</text>
  <line x1="400" y1="95" x2="2000" y2="95" stroke="#333" stroke-width="0.5"/>
  <text x="1200" y="115" text-anchor="middle" class="subtitle">FROM ZERO TO MONETIZED CHANNEL</text>

  <!-- ============================================ -->
  <!-- SECTION 1: Niche Selection (top-left) -->
  <!-- ============================================ -->

  <rect x="60" y="140" width="460" height="300" rx="3" fill="none" stroke="#fff" stroke-width="1"/>
  <text x="290" y="170" text-anchor="middle" class="section-title">01 / NICHE SELECTION</text>
  <line x1="80" y1="182" x2="500" y2="182" stroke="#333" stroke-width="0.5"/>

  <text x="80" y="208" class="body">Broad Niche:</text>
  <rect x="220" y="195" width="280" height="18" rx="2" fill="none" stroke="#333" stroke-width="0.5"/>

  <text x="80" y="238" class="body">Sub-niche:</text>
  <rect x="220" y="225" width="280" height="18" rx="2" fill="none" stroke="#333" stroke-width="0.5"/>

  <text x="80" y="268" class="body">Target Viewer:</text>
  <rect x="220" y="255" width="280" height="18" rx="2" fill="none" stroke="#333" stroke-width="0.5"/>

  <text x="80" y="298" class="body">Validation Checks:</text>
  <text x="80" y="318" class="checkbox">[ ] 3+ channels with 100K+ subs in niche</text>
  <text x="80" y="336" class="checkbox">[ ] Videos getting 10K+ views consistently</text>
  <text x="80" y="354" class="checkbox">[ ] Can make 50+ unique video ideas</text>
  <text x="80" y="372" class="checkbox">[ ] Monetization paths exist (not just ads)</text>
  <text x="80" y="390" class="checkbox">[ ] You can commit to 1 year of this topic</text>

  <text x="80" y="418" class="body">Competitor Channels:</text>
  <text x="80" y="432" class="small">1. ___________________  2. ___________________  3. ___________________</text>

  <!-- ============================================ -->
  <!-- SECTION 2: Channel Setup (top-center) -->
  <!-- ============================================ -->

  <rect x="540" y="140" width="460" height="300" rx="3" fill="none" stroke="#fff" stroke-width="1"/>
  <text x="770" y="170" text-anchor="middle" class="section-title">02 / CHANNEL SETUP</text>
  <line x1="560" y1="182" x2="980" y2="182" stroke="#333" stroke-width="0.5"/>

  <text x="560" y="208" class="body">Channel Name:</text>
  <rect x="560" y="215" width="420" height="18" rx="2" fill="none" stroke="#333" stroke-width="0.5"/>

  <text x="560" y="252" class="body">Tagline (1 line):</text>
  <rect x="560" y="259" width="420" height="18" rx="2" fill="none" stroke="#333" stroke-width="0.5"/>

  <text x="560" y="295" class="body">Branding Checklist:</text>
  <text x="560" y="315" class="checkbox">[ ] Profile picture (800x800)</text>
  <text x="560" y="333" class="checkbox">[ ] Banner (2560x1440)</text>
  <text x="560" y="351" class="checkbox">[ ] Channel description + keywords</text>
  <text x="560" y="369" class="checkbox">[ ] Channel trailer recorded</text>
  <text x="560" y="387" class="checkbox">[ ] Links (website, socials)</text>
  <text x="560" y="405" class="checkbox">[ ] Default upload settings</text>
  <text x="560" y="423" class="checkbox">[ ] Watermark added</text>

  <!-- ============================================ -->
  <!-- SECTION 3: Content Strategy - Hub Spoke (top-right) -->
  <!-- ============================================ -->

  <rect x="1020" y="140" width="640" height="300" rx="3" fill="none" stroke="#fff" stroke-width="1"/>
  <text x="1340" y="170" text-anchor="middle" class="section-title">03 / CONTENT STRATEGY (PILLAR-CLUSTER)</text>
  <line x1="1040" y1="182" x2="1640" y2="182" stroke="#333" stroke-width="0.5"/>

  <!-- Pillar hub -->
  <circle cx="1340" cy="300" r="50" fill="none" stroke="#fff" stroke-width="1.5"/>
  <text x="1340" y="296" text-anchor="middle" class="body-white">PILLAR</text>
  <text x="1340" y="310" text-anchor="middle" class="body-white">TOPIC</text>

  <!-- Cluster 1 -->
  <path d="M 1290,300 C 1200,280 1130,240 1090,220" fill="none" stroke="#999" stroke-width="1"/>
  <circle cx="1090" cy="220" r="30" fill="none" stroke="#999" stroke-width="1"/>
  <text x="1090" y="224" text-anchor="middle" class="small">Cluster 1</text>

  <!-- Cluster 2 -->
  <path d="M 1310,255 C 1270,210 1210,200 1170,200" fill="none" stroke="#999" stroke-width="1"/>
  <circle cx="1170" cy="330" r="30" fill="none" stroke="#999" stroke-width="1"/>
  <text x="1170" y="334" text-anchor="middle" class="small">Cluster 2</text>
  <path d="M 1290,315 C 1240,325 1210,330 1200,330" fill="none" stroke="#999" stroke-width="1"/>

  <!-- Cluster 3 -->
  <path d="M 1340,350 C 1340,380 1340,400 1340,410" fill="none" stroke="#999" stroke-width="1"/>
  <circle cx="1340" cy="410" r="25" fill="none" stroke="#999" stroke-width="1"/>
  <text x="1340" y="414" text-anchor="middle" class="small">Cluster 3</text>

  <!-- Cluster 4 -->
  <path d="M 1390,300 C 1480,280 1530,240 1560,220" fill="none" stroke="#999" stroke-width="1"/>
  <circle cx="1560" cy="220" r="30" fill="none" stroke="#999" stroke-width="1"/>
  <text x="1560" y="224" text-anchor="middle" class="small">Cluster 4</text>

  <!-- Cluster 5 -->
  <path d="M 1390,315 C 1440,325 1470,330 1500,330" fill="none" stroke="#999" stroke-width="1"/>
  <circle cx="1500" cy="330" r="30" fill="none" stroke="#999" stroke-width="1"/>
  <text x="1500" y="334" text-anchor="middle" class="small">Cluster 5</text>

  <!-- Content types -->
  <text x="1040" y="395" class="body">Video Types:</text>
  <text x="1040" y="412" class="checkbox">[ ] Tutorials    [ ] Lists    [ ] Reviews    [ ] Vlogs    [ ] Shorts</text>

  <!-- ============================================ -->
  <!-- SECTION 4: Production Pipeline (full-width center) -->
  <!-- ============================================ -->

  <rect x="60" y="460" width="1600" height="200" rx="3" fill="none" stroke="#fff" stroke-width="1"/>
  <text x="860" y="490" text-anchor="middle" class="section-title">04 / PRODUCTION PIPELINE</text>
  <line x1="80" y1="502" x2="1640" y2="502" stroke="#333" stroke-width="0.5"/>

  <!-- Pipeline stages -->
  <rect x="90" y="520" width="170" height="70" rx="3" fill="none" stroke="#fff" stroke-width="1"/>
  <text x="175" y="545" text-anchor="middle" class="body-white">RESEARCH</text>
  <text x="175" y="562" text-anchor="middle" class="small">Topic + outline</text>
  <text x="175" y="578" text-anchor="middle" class="small">Time: ____ hrs</text>

  <path d="M 260,555 C 280,555 290,555 310,555" fill="none" stroke="#999" stroke-width="1"/>
  <polygon points="308,552 315,555 308,558" fill="#999"/>

  <rect x="320" y="520" width="170" height="70" rx="3" fill="none" stroke="#fff" stroke-width="1"/>
  <text x="405" y="545" text-anchor="middle" class="body-white">SCRIPT</text>
  <text x="405" y="562" text-anchor="middle" class="small">Hook + body + CTA</text>
  <text x="405" y="578" text-anchor="middle" class="small">Time: ____ hrs</text>

  <path d="M 490,555 C 510,555 520,555 540,555" fill="none" stroke="#999" stroke-width="1"/>
  <polygon points="538,552 545,555 538,558" fill="#999"/>

  <rect x="550" y="520" width="170" height="70" rx="3" fill="none" stroke="#fff" stroke-width="1"/>
  <text x="635" y="545" text-anchor="middle" class="body-white">RECORD</text>
  <text x="635" y="562" text-anchor="middle" class="small">Camera + screen</text>
  <text x="635" y="578" text-anchor="middle" class="small">Time: ____ hrs</text>

  <path d="M 720,555 C 740,555 750,555 770,555" fill="none" stroke="#999" stroke-width="1"/>
  <polygon points="768,552 775,555 768,558" fill="#999"/>

  <rect x="780" y="520" width="170" height="70" rx="3" fill="none" stroke="#fff" stroke-width="1"/>
  <text x="865" y="545" text-anchor="middle" class="body-white">EDIT</text>
  <text x="865" y="562" text-anchor="middle" class="small">Cut + effects + music</text>
  <text x="865" y="578" text-anchor="middle" class="small">Time: ____ hrs</text>

  <path d="M 950,555 C 970,555 980,555 1000,555" fill="none" stroke="#999" stroke-width="1"/>
  <polygon points="998,552 1005,555 998,558" fill="#999"/>

  <rect x="1010" y="520" width="170" height="70" rx="3" fill="none" stroke="#fff" stroke-width="1"/>
  <text x="1095" y="545" text-anchor="middle" class="body-white">THUMBNAIL</text>
  <text x="1095" y="562" text-anchor="middle" class="small">3 options, A/B test</text>
  <text x="1095" y="578" text-anchor="middle" class="small">Time: ____ hrs</text>

  <path d="M 1180,555 C 1200,555 1210,555 1230,555" fill="none" stroke="#999" stroke-width="1"/>
  <polygon points="1228,552 1235,555 1228,558" fill="#999"/>

  <rect x="1240" y="520" width="170" height="70" rx="3" fill="none" stroke="#fff" stroke-width="1.5"/>
  <text x="1325" y="545" text-anchor="middle" class="body-white">PUBLISH</text>
  <text x="1325" y="562" text-anchor="middle" class="small">Optimize + schedule</text>
  <text x="1325" y="578" text-anchor="middle" class="small">Best day: _______</text>

  <!-- Total time -->
  <text x="1450" y="540" class="body">Total per video:</text>
  <text x="1450" y="560" class="accent">____ hrs</text>
  <text x="1450" y="580" class="body">Videos/week: ____</text>
  <text x="1450" y="600" class="body">Batch size: ____</text>

  <!-- Upload schedule -->
  <text x="90" y="630" class="body">Upload Schedule:</text>
  <text x="90" y="648" class="table-head">MON       TUE       WED       THU       FRI       SAT       SUN</text>
  <text x="90" y="663" class="table-cell">[ ]       [ ]       [ ]       [ ]       [ ]       [ ]       [ ]</text>

  <!-- ============================================ -->
  <!-- SECTION 5: SEO (bottom-left) -->
  <!-- ============================================ -->

  <rect x="60" y="680" width="540" height="280" rx="3" fill="none" stroke="#fff" stroke-width="1"/>
  <text x="330" y="710" text-anchor="middle" class="section-title">05 / YOUTUBE SEO</text>
  <line x1="80" y1="722" x2="580" y2="722" stroke="#333" stroke-width="0.5"/>

  <text x="80" y="745" class="body">Title Formula:</text>
  <text x="80" y="762" class="small">[Number] + [Keyword] + [Benefit] + [Timeframe]</text>
  <rect x="80" y="770" width="500" height="18" rx="2" fill="none" stroke="#333" stroke-width="0.5"/>

  <text x="80" y="808" class="body">Description Template (first 150 chars matter):</text>
  <rect x="80" y="815" width="500" height="40" rx="2" fill="none" stroke="#333" stroke-width="0.5"/>

  <text x="80" y="878" class="body">Tags (15-20):</text>
  <rect x="80" y="885" width="500" height="25" rx="2" fill="none" stroke="#333" stroke-width="0.5"/>

  <text x="80" y="930" class="body">Chapters:</text>
  <text x="80" y="948" class="small">0:00 ___________    __:__ ___________    __:__ ___________    __:__ ___________</text>

  <!-- ============================================ -->
  <!-- SECTION 6: Monetization (bottom-center) -->
  <!-- ============================================ -->

  <rect x="620" y="680" width="540" height="280" rx="3" fill="none" stroke="#fff" stroke-width="1"/>
  <text x="890" y="710" text-anchor="middle" class="section-title">06 / MONETIZATION</text>
  <line x1="640" y1="722" x2="1140" y2="722" stroke="#333" stroke-width="0.5"/>

  <!-- Revenue streams as stacked bars -->
  <text x="640" y="745" class="body-white">AD REVENUE</text>
  <rect x="780" y="733" width="360" height="16" rx="2" fill="none" stroke="#999" stroke-width="1"/>
  <text x="1150" y="745" class="small">$____/mo</text>

  <text x="640" y="775" class="body-white">SPONSORS</text>
  <rect x="780" y="763" width="280" height="16" rx="2" fill="none" stroke="#fff" stroke-width="1"/>
  <text x="1070" y="775" class="small">$____/mo</text>

  <text x="640" y="805" class="body-white">PRODUCTS</text>
  <rect x="780" y="793" width="200" height="16" rx="2" fill="none" stroke="#999" stroke-width="1"/>
  <text x="990" y="805" class="small">$____/mo</text>

  <text x="640" y="835" class="body-white">MEMBERSHIPS</text>
  <rect x="780" y="823" width="150" height="16" rx="2" fill="none" stroke="#fff" stroke-width="1"/>
  <text x="940" y="835" class="small">$____/mo</text>

  <text x="640" y="865" class="body-white">AFFILIATE</text>
  <rect x="780" y="853" width="120" height="16" rx="2" fill="none" stroke="#999" stroke-width="1"/>
  <text x="910" y="865" class="small">$____/mo</text>

  <line x1="640" y1="885" x2="1140" y2="885" stroke="#333" stroke-width="0.5"/>
  <text x="640" y="905" class="body">Total Monthly Revenue Target:</text>
  <text x="920" y="905" class="accent">$________</text>
  <text x="640" y="930" class="body">CPM Target: $____</text>
  <text x="840" y="930" class="body">RPM Target: $____</text>
  <text x="640" y="948" class="body">Sponsor Rate (per video): $____</text>

  <!-- ============================================ -->
  <!-- SECTION 7: Growth Metrics (bottom-right) -->
  <!-- ============================================ -->

  <rect x="1180" y="680" width="480" height="280" rx="3" fill="none" stroke="#fff" stroke-width="1"/>
  <text x="1420" y="710" text-anchor="middle" class="section-title">07 / GROWTH METRICS</text>
  <line x1="1200" y1="722" x2="1640" y2="722" stroke="#333" stroke-width="0.5"/>

  <!-- Metric tracker table -->
  <text x="1200" y="745" class="table-head">Milestone     Subs       Views/mo    Revenue</text>
  <line x1="1200" y1="750" x2="1640" y2="750" stroke="#333" stroke-width="0.5"/>
  <text x="1200" y="768" class="table-cell">Month 1       ____       ____        $____</text>
  <text x="1200" y="786" class="table-cell">Month 3       ____       ____        $____</text>
  <text x="1200" y="804" class="table-cell">Month 6       ____       ____        $____</text>
  <text x="1200" y="822" class="table-cell">Month 12      ____       ____        $____</text>
  <text x="1200" y="840" class="table-cell">Year 2        ____       ____        $____</text>

  <line x1="1200" y1="855" x2="1640" y2="855" stroke="#333" stroke-width="0.5"/>

  <text x="1200" y="878" class="body">Key KPIs:</text>
  <text x="1200" y="898" class="checkbox">[ ] CTR &gt; 5%</text>
  <text x="1400" y="898" class="checkbox">[ ] AVD &gt; 50%</text>
  <text x="1200" y="916" class="checkbox">[ ] Sub conversion &gt; 2%</text>
  <text x="1400" y="916" class="checkbox">[ ] Impressions growing</text>
  <text x="1200" y="934" class="checkbox">[ ] Returning viewers &gt; 30%</text>
  <text x="1400" y="934" class="checkbox">[ ] Revenue/1K views</text>

  <!-- ============================================ -->
  <!-- SECTION 8: Upload Schedule (far right) -->
  <!-- ============================================ -->

  <rect x="1680" y="140" width="300" height="300" rx="3" fill="none" stroke="#fff" stroke-width="1"/>
  <text x="1830" y="170" text-anchor="middle" class="section-title">UPLOAD CALENDAR</text>
  <line x1="1700" y1="182" x2="1960" y2="182" stroke="#333" stroke-width="0.5"/>

  <text x="1700" y="208" class="body">This Week:</text>
  <text x="1700" y="228" class="checkbox">[ ] ________________________</text>
  <text x="1700" y="248" class="checkbox">[ ] ________________________</text>
  <text x="1700" y="268" class="checkbox">[ ] ________________________</text>

  <text x="1700" y="298" class="body">Next Week:</text>
  <text x="1700" y="318" class="checkbox">[ ] ________________________</text>
  <text x="1700" y="338" class="checkbox">[ ] ________________________</text>
  <text x="1700" y="358" class="checkbox">[ ] ________________________</text>

  <text x="1700" y="388" class="body">Backlog:</text>
  <text x="1700" y="408" class="checkbox">[ ] ________________________</text>
  <text x="1700" y="428" class="checkbox">[ ] ________________________</text>

  <!-- Equipment list -->
  <rect x="1680" y="460" width="300" height="200" rx="3" fill="none" stroke="#fff" stroke-width="1"/>
  <text x="1830" y="490" text-anchor="middle" class="section-title">EQUIPMENT</text>
  <line x1="1700" y1="502" x2="1960" y2="502" stroke="#333" stroke-width="0.5"/>

  <text x="1700" y="525" class="body">Camera:</text>
  <rect x="1700" y="532" width="260" height="18" rx="2" fill="none" stroke="#333" stroke-width="0.5"/>
  <text x="1700" y="565" class="body">Mic:</text>
  <rect x="1700" y="572" width="260" height="18" rx="2" fill="none" stroke="#333" stroke-width="0.5"/>
  <text x="1700" y="605" class="body">Lighting:</text>
  <rect x="1700" y="612" width="260" height="18" rx="2" fill="none" stroke="#333" stroke-width="0.5"/>
  <text x="1700" y="645" class="body">Editor:</text>
  <rect x="1700" y="652" width="260" height="18" rx="2" fill="none" stroke="#333" stroke-width="0.5"/>

  <!-- Monetization milestones -->
  <rect x="1680" y="680" width="300" height="280" rx="3" fill="none" stroke="#fff" stroke-width="1"/>
  <text x="1830" y="710" text-anchor="middle" class="section-title">MILESTONES</text>
  <line x1="1700" y1="722" x2="1960" y2="722" stroke="#333" stroke-width="0.5"/>

  <text x="1700" y="745" class="checkbox">[ ] 100 subscribers</text>
  <text x="1700" y="765" class="checkbox">[ ] 1,000 subscribers</text>
  <text x="1700" y="785" class="checkbox">[ ] 4,000 watch hours</text>
  <text x="1700" y="805" class="checkbox">[ ] Monetization enabled</text>
  <text x="1700" y="825" class="checkbox">[ ] First $100 month</text>
  <text x="1700" y="845" class="checkbox">[ ] First sponsor deal</text>
  <text x="1700" y="865" class="checkbox">[ ] 10,000 subscribers</text>
  <text x="1700" y="885" class="checkbox">[ ] First product launch</text>
  <text x="1700" y="905" class="checkbox">[ ] 100,000 subscribers</text>
  <text x="1700" y="925" class="checkbox">[ ] $1,000/mo revenue</text>
  <text x="1700" y="945" class="checkbox">[ ] $5,000/mo revenue</text>

  <!-- Footer -->
  <line x1="80" y1="980" x2="2320" y2="980" stroke="#333" stroke-width="0.5"/>
  <text x="80" y="1000" class="small">Channel: ___________________    Niche: ___________________    Launch Date: __________    Status: [ ] Setup  [ ] Posting  [ ] Monetized  [ ] Scaling</text>
  <text x="1200" y="1025" text-anchor="middle" class="small">YOUTUBE CHANNEL BLUEPRINT  /  PRINT. FILL IN. EXECUTE.  /  behike.co</text>

</svg>