<?xml version="1.0" encoding="UTF-8"?>
<svg xmlns="http://www.w3.org/2000/svg" viewBox="0 0 2550 3300" width="2550" height="3300">
  <defs>
    <style>
      text { font-family: 'Helvetica Neue', Helvetica, Arial, sans-serif; fill: #fff; }
      .title { font-size: 56px; font-weight: bold; letter-spacing: 6px; }
      .subtitle { font-size: 24px; fill: #999; letter-spacing: 3px; }
      .section-title { font-size: 32px; font-weight: bold; letter-spacing: 2px; fill: #007AFF; }
      .body { font-size: 18px; fill: #999; }
      .body-white { font-size: 18px; fill: #fff; }
      .small { font-size: 15px; fill: #999; }
      .checkbox { font-size: 17px; fill: #999; }
      .table-head { font-size: 16px; font-weight: bold; fill: #fff; }
      .table-cell { font-size: 15px; fill: #999; }
      .hub-label { font-size: 28px; font-weight: bold; letter-spacing: 3px; }
      .tier-label { font-size: 22px; font-weight: bold; }
      .price { font-size: 18px; fill: #999; letter-spacing: 2px; }
      .accent { font-size: 30px; font-weight: bold; fill: #007AFF; }
      .funnel-text { font-size: 16px; fill: #fff; }
    </style>
  </defs>

  <!-- Background -->
  <rect width="2550" height="3300" fill="#000"/>

  <!-- Border -->
  <rect x="40" y="40" width="2470" height="3220" fill="none" stroke="#333" stroke-width="1"/>
  <rect x="45" y="45" width="2460" height="3210" fill="none" stroke="#222" stroke-width="0.5"/>

  <!-- Header -->
  <text x="1275" y="120" text-anchor="middle" class="title">DE FREELANCER A AGENCIA</text>
  <line x1="300" y1="145" x2="2250" y2="145" stroke="#007AFF" stroke-width="2"/>
  <text x="1275" y="185" text-anchor="middle" class="subtitle">DE OPERADOR SOLO A NEGOCIO ESCALABLE</text>

  <!-- ============================================ -->
  <!-- Central spine: 3 evolution nodes -->
  <!-- ============================================ -->

  <!-- Node 1: Freelancer -->
  <rect x="200" y="240" width="300" height="80" rx="40" fill="none" stroke="#007AFF" stroke-width="2"/>
  <text x="350" y="290" text-anchor="middle" class="hub-label">FREELANCER</text>

  <!-- Arrow 1 to 2 -->
  <path d="M 500,280 C 700,280 800,280 950,280" fill="none" stroke="#999" stroke-width="1.5"/>
  <polygon points="945,275 958,280 945,285" fill="#999"/>
  <text x="730" y="265" text-anchor="middle" class="small">sistematizar</text>

  <!-- Node 2: Estudio -->
  <rect x="960" y="240" width="300" height="80" rx="40" fill="none" stroke="#007AFF" stroke-width="2"/>
  <text x="1110" y="290" text-anchor="middle" class="hub-label">ESTUDIO</text>

  <!-- Arrow 2 to 3 -->
  <path d="M 1260,280 C 1460,280 1560,280 1710,280" fill="none" stroke="#999" stroke-width="1.5"/>
  <polygon points="1705,275 1718,280 1705,285" fill="#999"/>
  <text x="1490" y="265" text-anchor="middle" class="small">escalar</text>

  <!-- Node 3: Agencia -->
  <rect x="1720" y="240" width="300" height="80" rx="40" fill="none" stroke="#007AFF" stroke-width="2"/>
  <text x="1870" y="290" text-anchor="middle" class="hub-label">AGENCIA</text>

  <!-- Current stage indicator -->
  <text x="2080" y="285" class="body">Etapa Actual:</text>
  <rect x="2250" y="265" width="200" height="28" rx="3" fill="none" stroke="#333" stroke-width="0.5"/>

  <!-- ============================================ -->
  <!-- SECTION 1: Definici&#243;n de Servicio -->
  <!-- ============================================ -->

  <path d="M 350,320 C 350,370 350,390 350,420" fill="none" stroke="#999" stroke-width="1" stroke-dasharray="5,5"/>
  <circle cx="350" cy="420" r="4" fill="#007AFF"/>

  <rect x="80" y="420" width="620" height="380" rx="4" fill="none" stroke="#fff" stroke-width="1"/>
  <text x="390" y="465" text-anchor="middle" class="section-title">01 / DEFINICI&#211;N DE SERVICIO</text>
  <line x1="110" y1="482" x2="670" y2="482" stroke="#333" stroke-width="0.5"/>

  <text x="110" y="520" class="body">Servicio Principal:</text>
  <rect x="330" y="503" width="340" height="24" rx="3" fill="none" stroke="#333" stroke-width="0.5"/>

  <text x="110" y="560" class="body">Nicho/Industria:</text>
  <rect x="320" y="543" width="350" height="24" rx="3" fill="none" stroke="#333" stroke-width="0.5"/>

  <text x="110" y="600" class="body">Propuesta de Valor &#218;nica:</text>
  <rect x="110" y="615" width="560" height="50" rx="3" fill="none" stroke="#333" stroke-width="0.5"/>

  <text x="110" y="695" class="body">Entregables:</text>
  <text x="110" y="725" class="checkbox">[ ] ________________________    [ ] ________________________</text>
  <text x="110" y="755" class="checkbox">[ ] ________________________    [ ] ________________________</text>
  <text x="110" y="785" class="checkbox">[ ] ________________________    [ ] ________________________</text>

  <!-- ============================================ -->
  <!-- SECTION 2: Niveles de Precio -->
  <!-- ============================================ -->

  <path d="M 1110,320 C 1110,380 1110,400 1110,440" fill="none" stroke="#999" stroke-width="1" stroke-dasharray="5,5"/>
  <circle cx="1110" cy="440" r="4" fill="#007AFF"/>

  <rect x="750" y="420" width="720" height="380" rx="4" fill="none" stroke="#fff" stroke-width="1"/>
  <text x="1110" y="465" text-anchor="middle" class="section-title">02 / NIVELES DE PRECIO</text>
  <line x1="780" y1="482" x2="1440" y2="482" stroke="#333" stroke-width="0.5"/>

  <!-- Tier 1: B&#225;sico -->
  <rect x="790" y="510" width="190" height="180" rx="4" fill="none" stroke="#999" stroke-width="1"/>
  <text x="885" y="545" text-anchor="middle" class="tier-label">B&#193;SICO</text>
  <text x="885" y="585" text-anchor="middle" class="accent">$500</text>
  <line x1="810" y1="600" x2="960" y2="600" stroke="#333" stroke-width="0.5"/>
  <text x="810" y="625" class="small">Alcance:</text>
  <text x="810" y="648" class="small">_______________</text>
  <text x="810" y="672" class="small">Tiempo:</text>
  <text x="810" y="695" class="small">_______________</text>

  <!-- Tier 2: Crecimiento -->
  <rect x="1010" y="510" width="190" height="180" rx="4" fill="none" stroke="#fff" stroke-width="2"/>
  <text x="1105" y="545" text-anchor="middle" class="tier-label">CRECIMIENTO</text>
  <text x="1105" y="585" text-anchor="middle" class="accent">$2,000</text>
  <line x1="1030" y1="600" x2="1180" y2="600" stroke="#333" stroke-width="0.5"/>
  <text x="1030" y="625" class="small">Alcance:</text>
  <text x="1030" y="648" class="small">_______________</text>
  <text x="1030" y="672" class="small">Tiempo:</text>
  <text x="1030" y="695" class="small">_______________</text>

  <!-- Tier 3: Premium -->
  <rect x="1230" y="510" width="190" height="180" rx="4" fill="none" stroke="#999" stroke-width="1"/>
  <text x="1325" y="545" text-anchor="middle" class="tier-label">PREMIUM</text>
  <text x="1325" y="585" text-anchor="middle" class="accent">$5,000</text>
  <line x1="1250" y1="600" x2="1400" y2="600" stroke="#333" stroke-width="0.5"/>
  <text x="1250" y="625" class="small">Alcance:</text>
  <text x="1250" y="648" class="small">_______________</text>
  <text x="1250" y="672" class="small">Tiempo:</text>
  <text x="1250" y="695" class="small">_______________</text>

  <text x="790" y="730" class="body">Opci&#243;n de Retainer:</text>
  <rect x="1020" y="713" width="420" height="24" rx="3" fill="none" stroke="#333" stroke-width="0.5"/>
  <text x="790" y="770" class="body">Custom/Empresarial:</text>
  <rect x="1030" y="753" width="410" height="24" rx="3" fill="none" stroke="#333" stroke-width="0.5"/>

  <!-- ============================================ -->
  <!-- SECTION 3: Adquisici&#243;n de Clientes -->
  <!-- ============================================ -->

  <path d="M 1870,320 C 1870,380 1950,420 2000,440" fill="none" stroke="#999" stroke-width="1" stroke-dasharray="5,5"/>
  <circle cx="2000" cy="440" r="4" fill="#007AFF"/>

  <rect x="1520" y="420" width="950" height="380" rx="4" fill="none" stroke="#fff" stroke-width="1"/>
  <text x="1995" y="465" text-anchor="middle" class="section-title">03 / ADQUISICI&#211;N DE CLIENTES</text>
  <line x1="1550" y1="482" x2="2440" y2="482" stroke="#333" stroke-width="0.5"/>

  <!-- Three acquisition channels -->
  <rect x="1560" y="510" width="220" height="65" rx="4" fill="none" stroke="#fff" stroke-width="1"/>
  <text x="1670" y="540" text-anchor="middle" class="body-white">CONTACTO EN FRIO</text>
  <text x="1670" y="560" text-anchor="middle" class="small">_____ / semana</text>

  <rect x="1810" y="510" width="220" height="65" rx="4" fill="none" stroke="#fff" stroke-width="1"/>
  <text x="1920" y="540" text-anchor="middle" class="body-white">REFERIDOS</text>
  <text x="1920" y="560" text-anchor="middle" class="small">_____ / mes</text>

  <rect x="2060" y="510" width="220" height="65" rx="4" fill="none" stroke="#fff" stroke-width="1"/>
  <text x="2170" y="540" text-anchor="middle" class="body-white">CONTENIDO</text>
  <text x="2170" y="560" text-anchor="middle" class="small">_____ / semana</text>

  <!-- Converge arrows -->
  <path d="M 1670,575 C 1670,600 1920,620 1920,630" fill="none" stroke="#999" stroke-width="0.5"/>
  <path d="M 1920,575 C 1920,600 1920,615 1920,630" fill="none" stroke="#999" stroke-width="0.5"/>
  <path d="M 2170,575 C 2170,600 1920,620 1920,630" fill="none" stroke="#999" stroke-width="0.5"/>

  <!-- Funnel -->
  <polygon points="1800,630 2040,630 2010,665 1830,665" fill="none" stroke="#007AFF" stroke-width="1"/>
  <text x="1920" y="655" text-anchor="middle" class="funnel-text">LEADS</text>

  <polygon points="1830,672 2010,672 1990,705 1850,705" fill="none" stroke="#007AFF" stroke-width="1"/>
  <text x="1920" y="695" text-anchor="middle" class="funnel-text">CALIFICADOS</text>

  <polygon points="1850,712 1990,712 1975,745 1865,745" fill="none" stroke="#007AFF" stroke-width="1"/>
  <text x="1920" y="735" text-anchor="middle" class="funnel-text">CERRADOS</text>

  <text x="1560" y="780" class="body">Meta de Cierre:</text>
  <rect x="1760" y="763" width="130" height="24" rx="3" fill="none" stroke="#333" stroke-width="0.5"/>
  <text x="1920" y="780" class="body">Meta Pipeline:</text>
  <rect x="2100" y="763" width="130" height="24" rx="3" fill="none" stroke="#333" stroke-width="0.5"/>

  <!-- ============================================ -->
  <!-- SECTION 4: Proceso de Entrega -->
  <!-- ============================================ -->

  <rect x="80" y="860" width="1190" height="380" rx="4" fill="none" stroke="#fff" stroke-width="1"/>
  <text x="675" y="905" text-anchor="middle" class="section-title">04 / PROCESO DE ENTREGA</text>
  <line x1="110" y1="922" x2="1240" y2="922" stroke="#333" stroke-width="0.5"/>

  <!-- Process flow -->
  <rect x="120" y="950" width="180" height="60" rx="4" fill="none" stroke="#007AFF" stroke-width="1.5"/>
  <text x="210" y="985" text-anchor="middle" class="body-white">ONBOARDING</text>

  <path d="M 300,980 L 370,980" fill="none" stroke="#999" stroke-width="1"/>
  <polygon points="365,976 378,980 365,984" fill="#999"/>

  <rect x="380" y="950" width="180" height="60" rx="4" fill="none" stroke="#007AFF" stroke-width="1.5"/>
  <text x="470" y="985" text-anchor="middle" class="body-white">EJECUCION</text>

  <path d="M 560,980 L 630,980" fill="none" stroke="#999" stroke-width="1"/>
  <polygon points="625,976 638,980 625,984" fill="#999"/>

  <rect x="640" y="950" width="180" height="60" rx="4" fill="none" stroke="#007AFF" stroke-width="1.5"/>
  <text x="730" y="985" text-anchor="middle" class="body-white">REVISION</text>

  <path d="M 820,980 L 890,980" fill="none" stroke="#999" stroke-width="1"/>
  <polygon points="885,976 898,980 885,984" fill="#999"/>

  <rect x="900" y="950" width="180" height="60" rx="4" fill="none" stroke="#007AFF" stroke-width="1.5"/>
  <text x="990" y="985" text-anchor="middle" class="body-white">ENTREGA</text>

  <text x="120" y="1060" class="body">Checklist de Onboarding:</text>
  <text x="120" y="1090" class="checkbox">[ ] Contrato firmado    [ ] Brief completado    [ ] Accesos recibidos</text>
  <text x="120" y="1120" class="checkbox">[ ] Pago inicial        [ ] Timeline acordado   [ ] Canal de comunicaci&#243;n</text>

  <text x="120" y="1160" class="body">Herramientas de Entrega:</text>
  <text x="120" y="1190" class="checkbox">[ ] ___________________    [ ] ___________________    [ ] ___________________</text>

  <!-- ============================================ -->
  <!-- SECTION 5: Stack Tecnologico -->
  <!-- ============================================ -->

  <rect x="1320" y="860" width="600" height="380" rx="4" fill="none" stroke="#fff" stroke-width="1"/>
  <text x="1620" y="905" text-anchor="middle" class="section-title">05 / STACK TECNOLOGICO</text>
  <line x1="1350" y1="922" x2="1890" y2="922" stroke="#333" stroke-width="0.5"/>

  <text x="1360" y="960" class="body">CRM:</text>
  <rect x="1360" y="972" width="520" height="24" rx="3" fill="none" stroke="#333" stroke-width="0.5"/>

  <text x="1360" y="1020" class="body">Gesti&#243;n de Proyectos:</text>
  <rect x="1360" y="1032" width="520" height="24" rx="3" fill="none" stroke="#333" stroke-width="0.5"/>

  <text x="1360" y="1080" class="body">Facturaci&#243;n:</text>
  <rect x="1360" y="1092" width="520" height="24" rx="3" fill="none" stroke="#333" stroke-width="0.5"/>

  <text x="1360" y="1140" class="body">Comunicaci&#243;n:</text>
  <rect x="1360" y="1152" width="520" height="24" rx="3" fill="none" stroke="#333" stroke-width="0.5"/>

  <text x="1360" y="1200" class="body">Automatizaci&#243;n:</text>
  <rect x="1360" y="1212" width="520" height="24" rx="3" fill="none" stroke="#333" stroke-width="0.5"/>

  <!-- ============================================ -->
  <!-- SECTION 6: Escalamiento -->
  <!-- ============================================ -->

  <rect x="1970" y="860" width="500" height="380" rx="4" fill="none" stroke="#fff" stroke-width="1"/>
  <text x="2220" y="905" text-anchor="middle" class="section-title">06 / ESCALAMIENTO</text>
  <line x1="2000" y1="922" x2="2440" y2="922" stroke="#333" stroke-width="0.5"/>

  <text x="2010" y="960" class="body-white">Cuando Contratar:</text>
  <text x="2010" y="990" class="checkbox">[ ] Constantemente rechazando trabajo</text>
  <text x="2010" y="1020" class="checkbox">[ ] Tareas repetitivas consumen tu tiempo</text>
  <text x="2010" y="1050" class="checkbox">[ ] Ingresos estables 3+ meses</text>

  <text x="2010" y="1090" class="body-white">Primeras Contrataciones:</text>
  <text x="2010" y="1120" class="checkbox">[ ] Asistente virtual</text>
  <text x="2010" y="1150" class="checkbox">[ ] Especialista (produccion)</text>
  <text x="2010" y="1180" class="checkbox">[ ] Gerente de proyectos</text>

  <text x="2010" y="1220" class="body">Modelo de Pago:</text>
  <text x="2180" y="1220" class="checkbox">[ ] Por proyecto    [ ] Mensual</text>

  <!-- ============================================ -->
  <!-- SECTION 7: Metas de Ingreso -->
  <!-- ============================================ -->

  <rect x="80" y="1300" width="2390" height="340" rx="4" fill="none" stroke="#fff" stroke-width="1"/>
  <text x="1275" y="1345" text-anchor="middle" class="section-title">07 / METAS DE INGRESO</text>
  <line x1="110" y1="1362" x2="2440" y2="1362" stroke="#007AFF" stroke-width="1"/>

  <!-- Revenue milestone boxes -->
  <rect x="130" y="1390" width="420" height="100" rx="4" fill="none" stroke="#333" stroke-width="1"/>
  <text x="340" y="1425" text-anchor="middle" class="body-white">FASE FREELANCER</text>
  <text x="340" y="1455" text-anchor="middle" class="small">Meta: $3K-$5K/mes</text>
  <text x="340" y="1475" text-anchor="middle" class="small">Clientes: 3-5 activos</text>

  <path d="M 550,1440 L 620,1440" fill="none" stroke="#999" stroke-width="1"/>
  <polygon points="615,1436 628,1440 615,1444" fill="#999"/>

  <rect x="630" y="1390" width="420" height="100" rx="4" fill="none" stroke="#333" stroke-width="1"/>
  <text x="840" y="1425" text-anchor="middle" class="body-white">FASE ESTUDIO</text>
  <text x="840" y="1455" text-anchor="middle" class="small">Meta: $8K-$15K/mes</text>
  <text x="840" y="1475" text-anchor="middle" class="small">Equipo: 2-3 personas</text>

  <path d="M 1050,1440 L 1120,1440" fill="none" stroke="#999" stroke-width="1"/>
  <polygon points="1115,1436 1128,1440 1115,1444" fill="#999"/>

  <rect x="1130" y="1390" width="420" height="100" rx="4" fill="none" stroke="#fff" stroke-width="1.5"/>
  <text x="1340" y="1425" text-anchor="middle" class="body-white">FASE AGENCIA</text>
  <text x="1340" y="1455" text-anchor="middle" class="small">Meta: $25K-$50K/mes</text>
  <text x="1340" y="1475" text-anchor="middle" class="small">Equipo: 5-10 personas</text>

  <!-- Revenue tracker rows -->
  <text x="130" y="1530" class="table-head">M&#201;TRICA</text>
  <text x="500" y="1530" text-anchor="middle" class="table-head">MES 1</text>
  <text x="700" y="1530" text-anchor="middle" class="table-head">MES 2</text>
  <text x="900" y="1530" text-anchor="middle" class="table-head">MES 3</text>
  <text x="1100" y="1530" text-anchor="middle" class="table-head">MES 4</text>
  <text x="1300" y="1530" text-anchor="middle" class="table-head">MES 5</text>
  <text x="1500" y="1530" text-anchor="middle" class="table-head">MES 6</text>
  <text x="1700" y="1530" text-anchor="middle" class="table-head">MES 7</text>
  <text x="1900" y="1530" text-anchor="middle" class="table-head">MES 8</text>
  <text x="2100" y="1530" text-anchor="middle" class="table-head">MES 9</text>
  <text x="2300" y="1530" text-anchor="middle" class="table-head">MES 10</text>
  <line x1="110" y1="1543" x2="2440" y2="1543" stroke="#333" stroke-width="0.5"/>

  <text x="130" y="1570" class="table-cell">Clientes</text>
  <text x="500" y="1570" text-anchor="middle" class="table-cell">________</text>
  <text x="700" y="1570" text-anchor="middle" class="table-cell">________</text>
  <text x="900" y="1570" text-anchor="middle" class="table-cell">________</text>
  <text x="1100" y="1570" text-anchor="middle" class="table-cell">________</text>
  <text x="1300" y="1570" text-anchor="middle" class="table-cell">________</text>
  <text x="1500" y="1570" text-anchor="middle" class="table-cell">________</text>
  <text x="1700" y="1570" text-anchor="middle" class="table-cell">________</text>
  <text x="1900" y="1570" text-anchor="middle" class="table-cell">________</text>
  <text x="2100" y="1570" text-anchor="middle" class="table-cell">________</text>
  <text x="2300" y="1570" text-anchor="middle" class="table-cell">________</text>
  <line x1="110" y1="1580" x2="2440" y2="1580" stroke="#222" stroke-width="0.5"/>

  <text x="130" y="1605" class="table-cell">Ingresos</text>
  <text x="500" y="1605" text-anchor="middle" class="table-cell">$_______</text>
  <text x="700" y="1605" text-anchor="middle" class="table-cell">$_______</text>
  <text x="900" y="1605" text-anchor="middle" class="table-cell">$_______</text>
  <text x="1100" y="1605" text-anchor="middle" class="table-cell">$_______</text>
  <text x="1300" y="1605" text-anchor="middle" class="table-cell">$_______</text>
  <text x="1500" y="1605" text-anchor="middle" class="table-cell">$_______</text>
  <text x="1700" y="1605" text-anchor="middle" class="table-cell">$_______</text>
  <text x="1900" y="1605" text-anchor="middle" class="table-cell">$_______</text>
  <text x="2100" y="1605" text-anchor="middle" class="table-cell">$_______</text>
  <text x="2300" y="1605" text-anchor="middle" class="table-cell">$_______</text>
  <line x1="110" y1="1615" x2="2440" y2="1615" stroke="#fff" stroke-width="0.5"/>

  <text x="130" y="1640" class="body-white">GANANCIA</text>
  <text x="500" y="1640" text-anchor="middle" class="table-cell">$_______</text>
  <text x="700" y="1640" text-anchor="middle" class="table-cell">$_______</text>
  <text x="900" y="1640" text-anchor="middle" class="table-cell">$_______</text>
  <text x="1100" y="1640" text-anchor="middle" class="table-cell">$_______</text>
  <text x="1300" y="1640" text-anchor="middle" class="table-cell">$_______</text>
  <text x="1500" y="1640" text-anchor="middle" class="table-cell">$_______</text>
  <text x="1700" y="1640" text-anchor="middle" class="table-cell">$_______</text>
  <text x="1900" y="1640" text-anchor="middle" class="table-cell">$_______</text>
  <text x="2100" y="1640" text-anchor="middle" class="table-cell">$_______</text>
  <text x="2300" y="1640" text-anchor="middle" class="table-cell">$_______</text>

  <!-- ============================================ -->
  <!-- SECTION 8: Horario Semanal -->
  <!-- ============================================ -->

  <rect x="80" y="1700" width="1190" height="340" rx="4" fill="none" stroke="#fff" stroke-width="1"/>
  <text x="675" y="1745" text-anchor="middle" class="section-title">08 / HORARIO SEMANAL</text>
  <line x1="110" y1="1762" x2="1240" y2="1762" stroke="#333" stroke-width="0.5"/>

  <text x="130" y="1795" class="body-white">LUNES - Prospeccion</text>
  <text x="130" y="1820" class="checkbox">[ ] Outreach en frio (10 contactos)    [ ] Seguimiento a leads</text>

  <text x="130" y="1855" class="body-white">MARTES/MIERCOLES - Trabajo de Clientes</text>
  <text x="130" y="1880" class="checkbox">[ ] Bloques de trabajo profundo    [ ] Llamadas de revision</text>

  <text x="130" y="1915" class="body-white">JUEVES - Contenido + Marketing</text>
  <text x="130" y="1940" class="checkbox">[ ] Crear contenido    [ ] Publicar en redes    [ ] Networking</text>

  <text x="130" y="1975" class="body-white">VIERNES - Admin + Crecimiento</text>
  <text x="130" y="2000" class="checkbox">[ ] Facturaci&#243;n    [ ] M&#233;tricas    [ ] Planificaci&#243;n semanal</text>

  <!-- ============================================ -->
  <!-- SECTION 9: Portafolio + Testimonios -->
  <!-- ============================================ -->

  <rect x="1320" y="1700" width="1150" height="340" rx="4" fill="none" stroke="#fff" stroke-width="1"/>
  <text x="1895" y="1745" text-anchor="middle" class="section-title">09 / PORTAFOLIO + TESTIMONIOS</text>
  <line x1="1350" y1="1762" x2="2440" y2="1762" stroke="#333" stroke-width="0.5"/>

  <text x="1360" y="1800" class="body">Proyectos Destacados:</text>
  <rect x="1360" y="1815" width="500" height="24" rx="3" fill="none" stroke="#333" stroke-width="0.5"/>
  <rect x="1360" y="1850" width="500" height="24" rx="3" fill="none" stroke="#333" stroke-width="0.5"/>
  <rect x="1360" y="1885" width="500" height="24" rx="3" fill="none" stroke="#333" stroke-width="0.5"/>

  <text x="1360" y="1935" class="body">Testimonios Clave:</text>
  <rect x="1360" y="1950" width="1080" height="30" rx="3" fill="none" stroke="#333" stroke-width="0.5"/>
  <rect x="1360" y="1990" width="1080" height="30" rx="3" fill="none" stroke="#333" stroke-width="0.5"/>

  <text x="1900" y="1800" class="body">Caso de Estudio:</text>
  <text x="1900" y="1830" class="checkbox">[ ] Antes/Despues</text>
  <text x="1900" y="1855" class="checkbox">[ ] Resultados con n&#250;meros</text>
  <text x="1900" y="1880" class="checkbox">[ ] Testimonio del cliente</text>

  <!-- ============================================ -->
  <!-- KPI BOXES -->
  <!-- ============================================ -->

  <line x1="80" y1="2100" x2="2470" y2="2100" stroke="#333" stroke-width="0.5"/>

  <rect x="80" y="2130" width="460" height="120" rx="4" fill="none" stroke="#333" stroke-width="1"/>
  <text x="310" y="2175" text-anchor="middle" class="body-white">TARIFA POR HORA</text>
  <text x="310" y="2215" text-anchor="middle" class="subtitle">$_______________</text>

  <rect x="590" y="2130" width="460" height="120" rx="4" fill="none" stroke="#333" stroke-width="1"/>
  <text x="820" y="2175" text-anchor="middle" class="body-white">VALOR PROMEDIO POR CLIENTE</text>
  <text x="820" y="2215" text-anchor="middle" class="subtitle">$_______________</text>

  <rect x="1100" y="2130" width="460" height="120" rx="4" fill="none" stroke="#333" stroke-width="1"/>
  <text x="1330" y="2175" text-anchor="middle" class="body-white">META MENSUAL</text>
  <text x="1330" y="2215" text-anchor="middle" class="subtitle">$_______________</text>

  <rect x="1610" y="2130" width="460" height="120" rx="4" fill="none" stroke="#333" stroke-width="1"/>
  <text x="1840" y="2175" text-anchor="middle" class="body-white">CLIENTES ACTIVOS</text>
  <text x="1840" y="2215" text-anchor="middle" class="subtitle">_______________</text>

  <rect x="2120" y="2130" width="350" height="120" rx="4" fill="none" stroke="#333" stroke-width="1"/>
  <text x="2295" y="2175" text-anchor="middle" class="body-white">TASA DE CIERRE</text>
  <text x="2295" y="2215" text-anchor="middle" class="subtitle">__________%</text>

  <!-- ============================================ -->
  <!-- FOOTER -->
  <!-- ============================================ -->

  <line x1="80" y1="3200" x2="2470" y2="3200" stroke="#007AFF" stroke-width="1"/>
  <text x="1275" y="3240" text-anchor="middle" class="small">BLUEPRINT DE NEGOCIO</text>
  <text x="1275" y="3265" text-anchor="middle" class="price">behike.co | Hecho en Puerto Rico</text>

  <!-- Corner marks -->
  <line x1="60" y1="60" x2="90" y2="60" stroke="#007AFF" stroke-width="0.5"/>
  <line x1="60" y1="60" x2="60" y2="90" stroke="#007AFF" stroke-width="0.5"/>
  <line x1="2490" y1="60" x2="2460" y2="60" stroke="#007AFF" stroke-width="0.5"/>
  <line x1="2490" y1="60" x2="2490" y2="90" stroke="#007AFF" stroke-width="0.5"/>
  <line x1="60" y1="3240" x2="90" y2="3240" stroke="#007AFF" stroke-width="0.5"/>
  <line x1="60" y1="3240" x2="60" y2="3210" stroke="#007AFF" stroke-width="0.5"/>
  <line x1="2490" y1="3240" x2="2460" y2="3240" stroke="#007AFF" stroke-width="0.5"/>
  <line x1="2490" y1="3240" x2="2490" y2="3210" stroke="#007AFF" stroke-width="0.5"/>

</svg>