<?xml version="1.0" encoding="UTF-8"?>
<svg xmlns="http://www.w3.org/2000/svg" viewBox="0 0 2400 1800" width="2400" height="1800">
  <defs>
    <style>
      text { font-family: 'Helvetica Neue', Helvetica, Arial, sans-serif; fill: #fff; }
      .title { font-size: 28px; font-weight: bold; letter-spacing: 4px; }
      .subtitle { font-size: 14px; fill: #999; letter-spacing: 2px; }
      .section-title { font-size: 16px; font-weight: bold; letter-spacing: 1px; }
      .body { font-size: 12px; fill: #999; }
      .body-white { font-size: 12px; fill: #fff; }
      .small { font-size: 10px; fill: #999; }
      .checkbox { font-size: 11px; fill: #999; }
      .table-head { font-size: 11px; font-weight: bold; fill: #fff; }
      .table-cell { font-size: 10px; fill: #999; }
      .hub-label { font-size: 18px; font-weight: bold; letter-spacing: 2px; }
      .tier-label { font-size: 14px; font-weight: bold; }
      .price { font-size: 12px; fill: #999; letter-spacing: 1px; }
      .accent { font-size: 20px; font-weight: bold; }
    </style>
  </defs>

  <!-- Background -->
  <rect width="2400" height="1800" fill="#000"/>

  <!-- Border -->
  <rect x="30" y="30" width="2340" height="1740" fill="none" stroke="#333" stroke-width="1"/>
  <rect x="35" y="35" width="2330" height="1730" fill="none" stroke="#222" stroke-width="0.5"/>

  <!-- Header -->
  <text x="1200" y="80" text-anchor="middle" class="title">FREELANCER TO AGENCY BLUEPRINT</text>
  <line x1="400" y1="95" x2="2000" y2="95" stroke="#333" stroke-width="0.5"/>
  <text x="1200" y="115" text-anchor="middle" class="subtitle">FROM SOLO OPERATOR TO SCALABLE BUSINESS</text>

  <!-- ============================================ -->
  <!-- Central spine: 3 evolution nodes -->
  <!-- ============================================ -->

  <!-- Node 1: Freelancer -->
  <rect x="200" y="160" width="200" height="60" rx="30" fill="none" stroke="#fff" stroke-width="1.5"/>
  <text x="300" y="195" text-anchor="middle" class="hub-label">FREELANCER</text>

  <!-- Arrow 1 to 2 -->
  <path d="M 400,190 C 550,190 650,190 750,190" fill="none" stroke="#999" stroke-width="1"/>
  <polygon points="748,186 758,190 748,194" fill="#999"/>
  <text x="580" y="180" text-anchor="middle" class="small">systemize</text>

  <!-- Node 2: Studio -->
  <rect x="760" y="160" width="200" height="60" rx="30" fill="none" stroke="#fff" stroke-width="1.5"/>
  <text x="860" y="195" text-anchor="middle" class="hub-label">STUDIO</text>

  <!-- Arrow 2 to 3 -->
  <path d="M 960,190 C 1110,190 1210,190 1310,190" fill="none" stroke="#999" stroke-width="1"/>
  <polygon points="1308,186 1318,190 1308,194" fill="#999"/>
  <text x="1140" y="180" text-anchor="middle" class="small">scale</text>

  <!-- Node 3: Agency -->
  <rect x="1320" y="160" width="200" height="60" rx="30" fill="none" stroke="#fff" stroke-width="1.5"/>
  <text x="1420" y="195" text-anchor="middle" class="hub-label">AGENCY</text>

  <!-- Current stage indicator -->
  <text x="1600" y="195" class="body">Current Stage:</text>
  <rect x="1750" y="178" width="200" height="22" rx="2" fill="none" stroke="#333" stroke-width="0.5"/>

  <!-- ============================================ -->
  <!-- SECTION 1: Service Definition (left col) -->
  <!-- ============================================ -->

  <!-- Connector from Freelancer node down -->
  <path d="M 300,220 C 300,250 300,260 300,280" fill="none" stroke="#999" stroke-width="1" stroke-dasharray="4,4"/>
  <circle cx="300" cy="280" r="3" fill="#999"/>

  <rect x="80" y="280" width="500" height="260" rx="3" fill="none" stroke="#fff" stroke-width="1"/>
  <text x="330" y="310" text-anchor="middle" class="section-title">01 / SERVICE DEFINITION</text>
  <line x1="100" y1="322" x2="560" y2="322" stroke="#333" stroke-width="0.5"/>

  <text x="100" y="345" class="body">Core Service:</text>
  <rect x="250" y="332" width="310" height="18" rx="2" fill="none" stroke="#333" stroke-width="0.5"/>

  <text x="100" y="370" class="body">Niche/Industry:</text>
  <rect x="270" y="357" width="290" height="18" rx="2" fill="none" stroke="#333" stroke-width="0.5"/>

  <text x="100" y="395" class="body">Unique Value Prop:</text>
  <rect x="100" y="405" width="460" height="35" rx="2" fill="none" stroke="#333" stroke-width="0.5"/>

  <text x="100" y="460" class="body">Deliverables:</text>
  <text x="100" y="478" class="checkbox">[ ] ________________________    [ ] ________________________</text>
  <text x="100" y="496" class="checkbox">[ ] ________________________    [ ] ________________________</text>
  <text x="100" y="514" class="checkbox">[ ] ________________________    [ ] ________________________</text>

  <!-- ============================================ -->
  <!-- SECTION 2: Pricing Tiers (center) -->
  <!-- ============================================ -->

  <!-- Connector from Studio node down -->
  <path d="M 860,220 C 860,270 860,280 860,310" fill="none" stroke="#999" stroke-width="1" stroke-dasharray="4,4"/>
  <circle cx="860" cy="310" r="3" fill="#999"/>

  <rect x="620" y="280" width="480" height="260" rx="3" fill="none" stroke="#fff" stroke-width="1"/>
  <text x="860" y="310" text-anchor="middle" class="section-title">02 / PRICING TIERS</text>
  <line x1="640" y1="322" x2="1080" y2="322" stroke="#333" stroke-width="0.5"/>

  <!-- Tier 1 -->
  <rect x="640" y="340" width="130" height="120" rx="3" fill="none" stroke="#999" stroke-width="1"/>
  <text x="705" y="365" text-anchor="middle" class="tier-label">STARTER</text>
  <text x="705" y="390" text-anchor="middle" class="accent">$500</text>
  <line x1="660" y1="400" x2="750" y2="400" stroke="#333" stroke-width="0.5"/>
  <text x="650" y="418" class="small">Scope:</text>
  <text x="650" y="432" class="small">___________</text>
  <text x="650" y="446" class="small">Timeline:</text>
  <text x="650" y="460" class="small">___________</text>

  <!-- Tier 2 -->
  <rect x="790" y="340" width="130" height="120" rx="3" fill="none" stroke="#fff" stroke-width="1.5"/>
  <text x="855" y="365" text-anchor="middle" class="tier-label">GROWTH</text>
  <text x="855" y="390" text-anchor="middle" class="accent">$2,000</text>
  <line x1="810" y1="400" x2="900" y2="400" stroke="#333" stroke-width="0.5"/>
  <text x="800" y="418" class="small">Scope:</text>
  <text x="800" y="432" class="small">___________</text>
  <text x="800" y="446" class="small">Timeline:</text>
  <text x="800" y="460" class="small">___________</text>

  <!-- Tier 3 -->
  <rect x="940" y="340" width="130" height="120" rx="3" fill="none" stroke="#999" stroke-width="1"/>
  <text x="1005" y="365" text-anchor="middle" class="tier-label">PREMIUM</text>
  <text x="1005" y="390" text-anchor="middle" class="accent">$5,000</text>
  <line x1="960" y1="400" x2="1050" y2="400" stroke="#333" stroke-width="0.5"/>
  <text x="950" y="418" class="small">Scope:</text>
  <text x="950" y="432" class="small">___________</text>
  <text x="950" y="446" class="small">Timeline:</text>
  <text x="950" y="460" class="small">___________</text>

  <text x="640" y="490" class="body">Retainer Option:</text>
  <rect x="810" y="477" width="270" height="18" rx="2" fill="none" stroke="#333" stroke-width="0.5"/>
  <text x="640" y="520" class="body">Custom/Enterprise:</text>
  <rect x="830" y="507" width="250" height="18" rx="2" fill="none" stroke="#333" stroke-width="0.5"/>

  <!-- ============================================ -->
  <!-- SECTION 3: Client Acquisition (right) -->
  <!-- ============================================ -->

  <!-- Connector from Agency node down -->
  <path d="M 1420,220 C 1420,250 1600,280 1700,300" fill="none" stroke="#999" stroke-width="1" stroke-dasharray="4,4"/>
  <circle cx="1700" cy="300" r="3" fill="#999"/>

  <rect x="1140" y="280" width="520" height="260" rx="3" fill="none" stroke="#fff" stroke-width="1"/>
  <text x="1400" y="310" text-anchor="middle" class="section-title">03 / CLIENT ACQUISITION</text>
  <line x1="1160" y1="322" x2="1640" y2="322" stroke="#333" stroke-width="0.5"/>

  <!-- Three acquisition channels as connected nodes -->
  <rect x="1160" y="340" width="140" height="45" rx="3" fill="none" stroke="#fff" stroke-width="1"/>
  <text x="1230" y="360" text-anchor="middle" class="body-white">COLD OUTREACH</text>
  <text x="1230" y="375" text-anchor="middle" class="small">_____ / week</text>

  <rect x="1320" y="340" width="140" height="45" rx="3" fill="none" stroke="#fff" stroke-width="1"/>
  <text x="1390" y="360" text-anchor="middle" class="body-white">REFERRALS</text>
  <text x="1390" y="375" text-anchor="middle" class="small">_____ / month</text>

  <rect x="1480" y="340" width="140" height="45" rx="3" fill="none" stroke="#fff" stroke-width="1"/>
  <text x="1550" y="360" text-anchor="middle" class="body-white">CONTENT</text>
  <text x="1550" y="375" text-anchor="middle" class="small">_____ / week</text>

  <!-- Converge arrows -->
  <path d="M 1230,385 C 1230,405 1390,415 1390,420" fill="none" stroke="#999" stroke-width="0.5"/>
  <path d="M 1390,385 C 1390,395 1390,405 1390,420" fill="none" stroke="#999" stroke-width="0.5"/>
  <path d="M 1550,385 C 1550,405 1390,415 1390,420" fill="none" stroke="#999" stroke-width="0.5"/>

  <!-- Funnel -->
  <polygon points="1300,420 1480,420 1460,445 1320,445" fill="none" stroke="#fff" stroke-width="1"/>
  <text x="1390" y="438" text-anchor="middle" class="small">LEADS</text>

  <polygon points="1320,450 1460,450 1445,475 1335,475" fill="none" stroke="#fff" stroke-width="1"/>
  <text x="1390" y="468" text-anchor="middle" class="small">QUALIFIED</text>

  <polygon points="1335,480 1445,480 1430,505 1350,505" fill="none" stroke="#fff" stroke-width="1"/>
  <text x="1390" y="498" text-anchor="middle" class="small">CLOSED</text>

  <text x="1160" y="530" class="body">Close Rate Target:</text>
  <rect x="1350" y="517" width="100" height="18" rx="2" fill="none" stroke="#333" stroke-width="0.5"/>
  <text x="1470" y="530" class="body">Pipeline Goal:</text>
  <rect x="1580" y="517" width="80" height="18" rx="2" fill="none" stroke="#333" stroke-width="0.5"/>

  <!-- ============================================ -->
  <!-- SECTION 4: Tech Stack (far right) -->
  <!-- ============================================ -->

  <rect x="1700" y="280" width="260" height="260" rx="3" fill="none" stroke="#fff" stroke-width="1"/>
  <text x="1830" y="310" text-anchor="middle" class="section-title">04 / TECH STACK</text>
  <line x1="1720" y1="322" x2="1940" y2="322" stroke="#333" stroke-width="0.5"/>

  <text x="1720" y="345" class="body">CRM:</text>
  <rect x="1720" y="352" width="220" height="18" rx="2" fill="none" stroke="#333" stroke-width="0.5"/>

  <text x="1720" y="385" class="body">Project Mgmt:</text>
  <rect x="1720" y="392" width="220" height="18" rx="2" fill="none" stroke="#333" stroke-width="0.5"/>

  <text x="1720" y="425" class="body">Invoicing:</text>
  <rect x="1720" y="432" width="220" height="18" rx="2" fill="none" stroke="#333" stroke-width="0.5"/>

  <text x="1720" y="465" class="body">Communication:</text>
  <rect x="1720" y="472" width="220" height="18" rx="2" fill="none" stroke="#333" stroke-width="0.5"/>

  <text x="1720" y="505" class="body">Automation:</text>
  <rect x="1720" y="512" width="220" height="18" rx="2" fill="none" stroke="#333" stroke-width="0.5"/>

  <!-- ============================================ -->
  <!-- SECTION 5: Delivery Process (center-left) -->
  <!-- ============================================ -->

  <rect x="80" y="580" width="700" height="200" rx="3" fill="none" stroke="#fff" stroke-width="1"/>
  <text x="430" y="610" text-anchor="middle" class="section-title">05 / DELIVERY PROCESS</text>
  <line x1="100" y1="622" x2="760" y2="622" stroke="#333" stroke-width="0.5"/>

  <!-- Process flow -->
  <rect x="100" y="640" width="100" height="40" rx="3" fill="none" stroke="#fff" stroke-width="1"/>
  <text x="150" y="658" text-anchor="middle" class="small">DISCOVERY</text>
  <text x="150" y="672" text-anchor="middle" class="small">CALL</text>

  <path d="M 200,660 C 220,660 230,660 240,660" fill="none" stroke="#999" stroke-width="1"/>
  <polygon points="238,657 245,660 238,663" fill="#999"/>

  <rect x="250" y="640" width="100" height="40" rx="3" fill="none" stroke="#fff" stroke-width="1"/>
  <text x="300" y="658" text-anchor="middle" class="small">PROPOSAL</text>
  <text x="300" y="672" text-anchor="middle" class="small">+ CONTRACT</text>

  <path d="M 350,660 C 370,660 380,660 390,660" fill="none" stroke="#999" stroke-width="1"/>
  <polygon points="388,657 395,660 388,663" fill="#999"/>

  <rect x="400" y="640" width="100" height="40" rx="3" fill="none" stroke="#fff" stroke-width="1"/>
  <text x="450" y="658" text-anchor="middle" class="small">ONBOARD</text>
  <text x="450" y="672" text-anchor="middle" class="small">+ KICKOFF</text>

  <path d="M 500,660 C 520,660 530,660 540,660" fill="none" stroke="#999" stroke-width="1"/>
  <polygon points="538,657 545,660 538,663" fill="#999"/>

  <rect x="550" y="640" width="100" height="40" rx="3" fill="none" stroke="#fff" stroke-width="1"/>
  <text x="600" y="658" text-anchor="middle" class="small">EXECUTE</text>
  <text x="600" y="672" text-anchor="middle" class="small">+ DELIVER</text>

  <path d="M 650,660 C 670,660 680,660 690,660" fill="none" stroke="#999" stroke-width="1"/>
  <polygon points="688,657 695,660 688,663" fill="#999"/>

  <rect x="700" y="640" width="60" height="40" rx="3" fill="none" stroke="#fff" stroke-width="1"/>
  <text x="730" y="665" text-anchor="middle" class="small">REVIEW</text>

  <!-- Feedback loop -->
  <path d="M 730,680 C 730,710 450,720 150,710 C 130,708 120,700 120,690" fill="none" stroke="#999" stroke-width="0.5" stroke-dasharray="3,3"/>
  <polygon points="117,693 120,685 123,693" fill="#999"/>
  <text x="430" y="730" text-anchor="middle" class="small">FEEDBACK LOOP + UPSELL</text>

  <text x="100" y="760" class="body">Avg Project Duration:</text>
  <rect x="310" y="747" width="150" height="18" rx="2" fill="none" stroke="#333" stroke-width="0.5"/>
  <text x="490" y="760" class="body">Revisions Included:</text>
  <rect x="680" y="747" width="80" height="18" rx="2" fill="none" stroke="#333" stroke-width="0.5"/>

  <!-- ============================================ -->
  <!-- SECTION 6: Scaling (center-right) -->
  <!-- ============================================ -->

  <rect x="820" y="580" width="520" height="200" rx="3" fill="none" stroke="#fff" stroke-width="1"/>
  <text x="1080" y="610" text-anchor="middle" class="section-title">06 / SCALING: HIRE, AUTOMATE, SYSTEMIZE</text>
  <line x1="840" y1="622" x2="1320" y2="622" stroke="#333" stroke-width="0.5"/>

  <!-- Three pillars -->
  <rect x="850" y="640" width="140" height="80" rx="3" fill="none" stroke="#fff" stroke-width="1"/>
  <text x="920" y="660" text-anchor="middle" class="body-white">HIRE</text>
  <line x1="870" y1="668" x2="970" y2="668" stroke="#333" stroke-width="0.5"/>
  <text x="860" y="685" class="checkbox">[ ] VA</text>
  <text x="860" y="700" class="checkbox">[ ] Subcontractor</text>
  <text x="860" y="715" class="checkbox">[ ] Full-time</text>

  <rect x="1010" y="640" width="140" height="80" rx="3" fill="none" stroke="#fff" stroke-width="1"/>
  <text x="1080" y="660" text-anchor="middle" class="body-white">AUTOMATE</text>
  <line x1="1030" y1="668" x2="1130" y2="668" stroke="#333" stroke-width="0.5"/>
  <text x="1020" y="685" class="checkbox">[ ] Invoicing</text>
  <text x="1020" y="700" class="checkbox">[ ] Onboarding</text>
  <text x="1020" y="715" class="checkbox">[ ] Reporting</text>

  <rect x="1170" y="640" width="140" height="80" rx="3" fill="none" stroke="#fff" stroke-width="1"/>
  <text x="1240" y="660" text-anchor="middle" class="body-white">SYSTEMIZE</text>
  <line x1="1190" y1="668" x2="1290" y2="668" stroke="#333" stroke-width="0.5"/>
  <text x="1180" y="685" class="checkbox">[ ] SOPs</text>
  <text x="1180" y="700" class="checkbox">[ ] Templates</text>
  <text x="1180" y="715" class="checkbox">[ ] Playbooks</text>

  <text x="840" y="755" class="body">First Hire Role:</text>
  <rect x="1000" y="742" width="320" height="18" rx="2" fill="none" stroke="#333" stroke-width="0.5"/>

  <!-- ============================================ -->
  <!-- SECTION 7: Revenue Targets (right) -->
  <!-- ============================================ -->

  <rect x="1380" y="580" width="580" height="200" rx="3" fill="none" stroke="#fff" stroke-width="1"/>
  <text x="1670" y="610" text-anchor="middle" class="section-title">07 / REVENUE TARGETS</text>
  <line x1="1400" y1="622" x2="1940" y2="622" stroke="#333" stroke-width="0.5"/>

  <!-- Milestone ladder -->
  <text x="1400" y="650" class="checkbox">[ ] $1,000/mo   _____ clients x $_____ avg</text>
  <text x="1400" y="672" class="checkbox">[ ] $3,000/mo   _____ clients x $_____ avg</text>
  <text x="1400" y="694" class="checkbox">[ ] $5,000/mo   _____ clients x $_____ avg</text>
  <text x="1400" y="716" class="checkbox">[ ] $10,000/mo  _____ clients x $_____ avg</text>
  <text x="1400" y="738" class="checkbox">[ ] $25,000/mo  _____ clients x $_____ avg</text>
  <text x="1400" y="760" class="checkbox">[ ] $50,000/mo  _____ clients x $_____ avg</text>

  <!-- Visual ladder on right side -->
  <line x1="1870" y1="760" x2="1870" y2="640" stroke="#333" stroke-width="0.5"/>
  <line x1="1865" y1="760" x2="1875" y2="760" stroke="#999" stroke-width="0.5"/>
  <line x1="1865" y1="738" x2="1875" y2="738" stroke="#999" stroke-width="0.5"/>
  <line x1="1865" y1="716" x2="1875" y2="716" stroke="#999" stroke-width="0.5"/>
  <line x1="1865" y1="694" x2="1875" y2="694" stroke="#999" stroke-width="0.5"/>
  <line x1="1865" y1="672" x2="1875" y2="672" stroke="#999" stroke-width="0.5"/>
  <line x1="1865" y1="650" x2="1875" y2="650" stroke="#999" stroke-width="0.5"/>
  <text x="1885" y="764" class="small">$1K</text>
  <text x="1885" y="654" class="small">$50K</text>

  <!-- ============================================ -->
  <!-- SECTION 8: Weekly Cadence (bottom-left) -->
  <!-- ============================================ -->

  <rect x="80" y="820" width="520" height="260" rx="3" fill="none" stroke="#fff" stroke-width="1"/>
  <text x="340" y="850" text-anchor="middle" class="section-title">08 / WEEKLY CADENCE</text>
  <line x1="100" y1="862" x2="580" y2="862" stroke="#333" stroke-width="0.5"/>

  <text x="100" y="885" class="body-white">MON</text>
  <text x="180" y="885" class="checkbox">[ ] Plan week  [ ] Review pipeline  [ ] Outreach</text>

  <text x="100" y="907" class="body-white">TUE</text>
  <text x="180" y="907" class="checkbox">[ ] Client delivery  [ ] Deep work block</text>

  <text x="100" y="929" class="body-white">WED</text>
  <text x="180" y="929" class="checkbox">[ ] Client calls  [ ] Proposals  [ ] Follow-ups</text>

  <text x="100" y="951" class="body-white">THU</text>
  <text x="180" y="951" class="checkbox">[ ] Client delivery  [ ] Content creation</text>

  <text x="100" y="973" class="body-white">FRI</text>
  <text x="180" y="973" class="checkbox">[ ] Admin  [ ] Invoicing  [ ] Week review</text>

  <line x1="100" y1="985" x2="580" y2="985" stroke="#333" stroke-width="0.5"/>

  <text x="100" y="1005" class="body">Client Work Hours:</text>
  <rect x="290" y="992" width="100" height="18" rx="2" fill="none" stroke="#333" stroke-width="0.5"/>
  <text x="100" y="1030" class="body">Biz Dev Hours:</text>
  <rect x="290" y="1017" width="100" height="18" rx="2" fill="none" stroke="#333" stroke-width="0.5"/>
  <text x="100" y="1055" class="body">Admin Hours:</text>
  <rect x="290" y="1042" width="100" height="18" rx="2" fill="none" stroke="#333" stroke-width="0.5"/>

  <!-- ============================================ -->
  <!-- CLIENT TRACKER (bottom center) -->
  <!-- ============================================ -->

  <rect x="640" y="820" width="720" height="260" rx="3" fill="none" stroke="#fff" stroke-width="1"/>
  <text x="1000" y="850" text-anchor="middle" class="section-title">CLIENT TRACKER</text>
  <line x1="660" y1="862" x2="1340" y2="862" stroke="#333" stroke-width="0.5"/>

  <!-- Table -->
  <text x="670" y="882" class="table-head">CLIENT</text>
  <text x="850" y="882" class="table-head">SERVICE</text>
  <text x="1000" y="882" class="table-head">VALUE</text>
  <text x="1120" y="882" class="table-head">STATUS</text>
  <text x="1260" y="882" class="table-head">NEXT</text>
  <line x1="660" y1="890" x2="1340" y2="890" stroke="#333" stroke-width="0.5"/>

  <text x="670" y="910" class="table-cell">_______________</text>
  <text x="850" y="910" class="table-cell">___________</text>
  <text x="1000" y="910" class="table-cell">$________</text>
  <text x="1120" y="910" class="table-cell">__________</text>
  <text x="1260" y="910" class="table-cell">________</text>

  <text x="670" y="932" class="table-cell">_______________</text>
  <text x="850" y="932" class="table-cell">___________</text>
  <text x="1000" y="932" class="table-cell">$________</text>
  <text x="1120" y="932" class="table-cell">__________</text>
  <text x="1260" y="932" class="table-cell">________</text>

  <text x="670" y="954" class="table-cell">_______________</text>
  <text x="850" y="954" class="table-cell">___________</text>
  <text x="1000" y="954" class="table-cell">$________</text>
  <text x="1120" y="954" class="table-cell">__________</text>
  <text x="1260" y="954" class="table-cell">________</text>

  <text x="670" y="976" class="table-cell">_______________</text>
  <text x="850" y="976" class="table-cell">___________</text>
  <text x="1000" y="976" class="table-cell">$________</text>
  <text x="1120" y="976" class="table-cell">__________</text>
  <text x="1260" y="976" class="table-cell">________</text>

  <text x="670" y="998" class="table-cell">_______________</text>
  <text x="850" y="998" class="table-cell">___________</text>
  <text x="1000" y="998" class="table-cell">$________</text>
  <text x="1120" y="998" class="table-cell">__________</text>
  <text x="1260" y="998" class="table-cell">________</text>

  <text x="670" y="1020" class="table-cell">_______________</text>
  <text x="850" y="1020" class="table-cell">___________</text>
  <text x="1000" y="1020" class="table-cell">$________</text>
  <text x="1120" y="1020" class="table-cell">__________</text>
  <text x="1260" y="1020" class="table-cell">________</text>

  <line x1="660" y1="1030" x2="1340" y2="1030" stroke="#fff" stroke-width="0.5"/>
  <text x="900" y="1050" class="body-white">TOTAL PIPELINE:</text>
  <text x="1060" y="1050" class="table-cell">$________________</text>

  <!-- ============================================ -->
  <!-- PORTFOLIO / SOCIAL PROOF (bottom right) -->
  <!-- ============================================ -->

  <rect x="1400" y="820" width="560" height="260" rx="3" fill="none" stroke="#fff" stroke-width="1"/>
  <text x="1680" y="850" text-anchor="middle" class="section-title">PORTFOLIO + SOCIAL PROOF</text>
  <line x1="1420" y1="862" x2="1940" y2="862" stroke="#333" stroke-width="0.5"/>

  <text x="1420" y="885" class="body">Case Studies Built:</text>
  <text x="1420" y="905" class="checkbox">[ ] ________________________________</text>
  <text x="1420" y="925" class="checkbox">[ ] ________________________________</text>
  <text x="1420" y="945" class="checkbox">[ ] ________________________________</text>

  <text x="1420" y="975" class="body">Testimonials Collected:</text>
  <rect x="1630" y="962" width="80" height="18" rx="2" fill="none" stroke="#333" stroke-width="0.5"/>
  <text x="1730" y="975" class="body">/ 10 goal</text>

  <text x="1420" y="1005" class="body">Portfolio Site:</text>
  <rect x="1560" y="992" width="380" height="18" rx="2" fill="none" stroke="#333" stroke-width="0.5"/>

  <text x="1420" y="1035" class="body">LinkedIn Optimized:</text>
  <text x="1610" y="1035" class="checkbox">[ ] Yes    [ ] In Progress</text>

  <text x="1420" y="1060" class="body">Referral Program:</text>
  <text x="1610" y="1060" class="checkbox">[ ] Active    [ ] Building</text>

  <!-- ============================================ -->
  <!-- REVENUE TRACKER TABLE -->
  <!-- ============================================ -->

  <rect x="80" y="1120" width="1880" height="200" rx="3" fill="none" stroke="#fff" stroke-width="1"/>
  <text x="1020" y="1150" text-anchor="middle" class="section-title">REVENUE TRACKER</text>
  <line x1="100" y1="1162" x2="1940" y2="1162" stroke="#333" stroke-width="0.5"/>

  <!-- Table headers -->
  <text x="130" y="1185" class="table-head">METRIC</text>
  <text x="330" y="1185" text-anchor="middle" class="table-head">M1</text>
  <text x="470" y="1185" text-anchor="middle" class="table-head">M2</text>
  <text x="610" y="1185" text-anchor="middle" class="table-head">M3</text>
  <text x="750" y="1185" text-anchor="middle" class="table-head">M4</text>
  <text x="890" y="1185" text-anchor="middle" class="table-head">M5</text>
  <text x="1030" y="1185" text-anchor="middle" class="table-head">M6</text>
  <text x="1170" y="1185" text-anchor="middle" class="table-head">M7</text>
  <text x="1310" y="1185" text-anchor="middle" class="table-head">M8</text>
  <text x="1450" y="1185" text-anchor="middle" class="table-head">M9</text>
  <text x="1590" y="1185" text-anchor="middle" class="table-head">M10</text>
  <text x="1730" y="1185" text-anchor="middle" class="table-head">M11</text>
  <text x="1870" y="1185" text-anchor="middle" class="table-head">M12</text>

  <line x1="100" y1="1192" x2="1940" y2="1192" stroke="#333" stroke-width="0.5"/>

  <!-- Row: Revenue -->
  <text x="130" y="1212" class="table-cell">Revenue</text>
  <text x="330" y="1212" text-anchor="middle" class="table-cell">$______</text>
  <text x="470" y="1212" text-anchor="middle" class="table-cell">$______</text>
  <text x="610" y="1212" text-anchor="middle" class="table-cell">$______</text>
  <text x="750" y="1212" text-anchor="middle" class="table-cell">$______</text>
  <text x="890" y="1212" text-anchor="middle" class="table-cell">$______</text>
  <text x="1030" y="1212" text-anchor="middle" class="table-cell">$______</text>
  <text x="1170" y="1212" text-anchor="middle" class="table-cell">$______</text>
  <text x="1310" y="1212" text-anchor="middle" class="table-cell">$______</text>
  <text x="1450" y="1212" text-anchor="middle" class="table-cell">$______</text>
  <text x="1590" y="1212" text-anchor="middle" class="table-cell">$______</text>
  <text x="1730" y="1212" text-anchor="middle" class="table-cell">$______</text>
  <text x="1870" y="1212" text-anchor="middle" class="table-cell">$______</text>

  <line x1="100" y1="1220" x2="1940" y2="1220" stroke="#222" stroke-width="0.5"/>

  <!-- Row: Clients -->
  <text x="130" y="1240" class="table-cell">Clients</text>
  <text x="330" y="1240" text-anchor="middle" class="table-cell">______</text>
  <text x="470" y="1240" text-anchor="middle" class="table-cell">______</text>
  <text x="610" y="1240" text-anchor="middle" class="table-cell">______</text>
  <text x="750" y="1240" text-anchor="middle" class="table-cell">______</text>
  <text x="890" y="1240" text-anchor="middle" class="table-cell">______</text>
  <text x="1030" y="1240" text-anchor="middle" class="table-cell">______</text>
  <text x="1170" y="1240" text-anchor="middle" class="table-cell">______</text>
  <text x="1310" y="1240" text-anchor="middle" class="table-cell">______</text>
  <text x="1450" y="1240" text-anchor="middle" class="table-cell">______</text>
  <text x="1590" y="1240" text-anchor="middle" class="table-cell">______</text>
  <text x="1730" y="1240" text-anchor="middle" class="table-cell">______</text>
  <text x="1870" y="1240" text-anchor="middle" class="table-cell">______</text>

  <line x1="100" y1="1248" x2="1940" y2="1248" stroke="#222" stroke-width="0.5"/>

  <!-- Row: Expenses -->
  <text x="130" y="1268" class="table-cell">Expenses</text>
  <text x="330" y="1268" text-anchor="middle" class="table-cell">$______</text>
  <text x="470" y="1268" text-anchor="middle" class="table-cell">$______</text>
  <text x="610" y="1268" text-anchor="middle" class="table-cell">$______</text>
  <text x="750" y="1268" text-anchor="middle" class="table-cell">$______</text>
  <text x="890" y="1268" text-anchor="middle" class="table-cell">$______</text>
  <text x="1030" y="1268" text-anchor="middle" class="table-cell">$______</text>
  <text x="1170" y="1268" text-anchor="middle" class="table-cell">$______</text>
  <text x="1310" y="1268" text-anchor="middle" class="table-cell">$______</text>
  <text x="1450" y="1268" text-anchor="middle" class="table-cell">$______</text>
  <text x="1590" y="1268" text-anchor="middle" class="table-cell">$______</text>
  <text x="1730" y="1268" text-anchor="middle" class="table-cell">$______</text>
  <text x="1870" y="1268" text-anchor="middle" class="table-cell">$______</text>

  <line x1="100" y1="1276" x2="1940" y2="1276" stroke="#fff" stroke-width="0.5"/>

  <!-- Row: Net -->
  <text x="130" y="1296" class="body-white">NET PROFIT</text>
  <text x="330" y="1296" text-anchor="middle" class="table-cell">$______</text>
  <text x="470" y="1296" text-anchor="middle" class="table-cell">$______</text>
  <text x="610" y="1296" text-anchor="middle" class="table-cell">$______</text>
  <text x="750" y="1296" text-anchor="middle" class="table-cell">$______</text>
  <text x="890" y="1296" text-anchor="middle" class="table-cell">$______</text>
  <text x="1030" y="1296" text-anchor="middle" class="table-cell">$______</text>
  <text x="1170" y="1296" text-anchor="middle" class="table-cell">$______</text>
  <text x="1310" y="1296" text-anchor="middle" class="table-cell">$______</text>
  <text x="1450" y="1296" text-anchor="middle" class="table-cell">$______</text>
  <text x="1590" y="1296" text-anchor="middle" class="table-cell">$______</text>
  <text x="1730" y="1296" text-anchor="middle" class="table-cell">$______</text>
  <text x="1870" y="1296" text-anchor="middle" class="table-cell">$______</text>

  <!-- ============================================ -->
  <!-- FOOTER KPIs -->
  <!-- ============================================ -->

  <line x1="80" y1="1360" x2="1960" y2="1360" stroke="#333" stroke-width="0.5"/>

  <rect x="80" y="1380" width="300" height="70" rx="3" fill="none" stroke="#333" stroke-width="1"/>
  <text x="230" y="1405" text-anchor="middle" class="body-white">HOURLY RATE</text>
  <text x="230" y="1430" text-anchor="middle" class="subtitle">$________/hr</text>

  <rect x="420" y="1380" width="300" height="70" rx="3" fill="none" stroke="#333" stroke-width="1"/>
  <text x="570" y="1405" text-anchor="middle" class="body-white">AVG PROJECT VALUE</text>
  <text x="570" y="1430" text-anchor="middle" class="subtitle">$____________</text>

  <rect x="760" y="1380" width="300" height="70" rx="3" fill="none" stroke="#333" stroke-width="1"/>
  <text x="910" y="1405" text-anchor="middle" class="body-white">CLIENT LIFETIME VALUE</text>
  <text x="910" y="1430" text-anchor="middle" class="subtitle">$____________</text>

  <rect x="1100" y="1380" width="300" height="70" rx="3" fill="none" stroke="#333" stroke-width="1"/>
  <text x="1250" y="1405" text-anchor="middle" class="body-white">CLOSE RATE</text>
  <text x="1250" y="1430" text-anchor="middle" class="subtitle">________%</text>

  <rect x="1440" y="1380" width="300" height="70" rx="3" fill="none" stroke="#333" stroke-width="1"/>
  <text x="1590" y="1405" text-anchor="middle" class="body-white">12-MO REVENUE GOAL</text>
  <text x="1590" y="1430" text-anchor="middle" class="subtitle">$____________</text>

  <!-- Brand -->
  <text x="1020" y="1510" text-anchor="middle" class="small">BUSINESS BLUEPRINT PACK</text>
  <text x="1020" y="1530" text-anchor="middle" class="price">behike.co</text>

  <!-- Corner marks -->
  <line x1="50" y1="50" x2="70" y2="50" stroke="#333" stroke-width="0.5"/>
  <line x1="50" y1="50" x2="50" y2="70" stroke="#333" stroke-width="0.5"/>
  <line x1="2350" y1="50" x2="2330" y2="50" stroke="#333" stroke-width="0.5"/>
  <line x1="2350" y1="50" x2="2350" y2="70" stroke="#333" stroke-width="0.5"/>
  <line x1="50" y1="1750" x2="70" y2="1750" stroke="#333" stroke-width="0.5"/>
  <line x1="50" y1="1750" x2="50" y2="1730" stroke="#333" stroke-width="0.5"/>
  <line x1="2350" y1="1750" x2="2330" y2="1750" stroke="#333" stroke-width="0.5"/>
  <line x1="2350" y1="1750" x2="2350" y2="1730" stroke="#333" stroke-width="0.5"/>

</svg>