<?xml version="1.0" encoding="UTF-8"?>
<svg xmlns="http://www.w3.org/2000/svg" viewBox="0 0 2400 1800" width="2400" height="1800">
  <defs>
    <style>
      text { font-family: 'Helvetica Neue', Helvetica, Arial, sans-serif; fill: #fff; }
      .title { font-size: 28px; font-weight: bold; letter-spacing: 4px; }
      .subtitle { font-size: 14px; fill: #999; letter-spacing: 2px; }
      .section-title { font-size: 16px; font-weight: bold; letter-spacing: 1px; }
      .body { font-size: 12px; fill: #999; }
      .body-white { font-size: 12px; fill: #fff; }
      .small { font-size: 10px; fill: #999; }
      .checkbox { font-size: 11px; fill: #999; }
      .table-head { font-size: 11px; font-weight: bold; fill: #fff; }
      .table-cell { font-size: 10px; fill: #999; }
      .hub-label { font-size: 18px; font-weight: bold; letter-spacing: 2px; }
      .tier-label { font-size: 14px; font-weight: bold; }
      .accent { font-size: 20px; font-weight: bold; }
      .metric-value { font-size: 22px; font-weight: bold; }
      .metric-label { font-size: 10px; fill: #999; letter-spacing: 1px; }
    </style>
  </defs>

  <!-- Background -->
  <rect width="2400" height="1800" fill="#000"/>

  <!-- Border -->
  <rect x="30" y="30" width="2340" height="1740" fill="none" stroke="#333" stroke-width="1"/>
  <rect x="35" y="35" width="2330" height="1730" fill="none" stroke="#222" stroke-width="0.5"/>

  <!-- Header -->
  <text x="1200" y="80" text-anchor="middle" class="title">AI AUTOMATION AGENCY BLUEPRINT</text>
  <line x1="400" y1="95" x2="2000" y2="95" stroke="#333" stroke-width="0.5"/>
  <text x="1200" y="115" text-anchor="middle" class="subtitle">BUILD, DEPLOY, AND SCALE AI SOLUTIONS FOR BUSINESSES</text>

  <!-- ============================================ -->
  <!-- SECTION 1: Service Menu Hub-Spoke (top-left) -->
  <!-- ============================================ -->

  <rect x="60" y="140" width="580" height="320" rx="3" fill="none" stroke="#fff" stroke-width="1"/>
  <text x="350" y="170" text-anchor="middle" class="section-title">01 / SERVICE MENU</text>
  <line x1="80" y1="182" x2="620" y2="182" stroke="#333" stroke-width="0.5"/>

  <!-- Central hub -->
  <circle cx="350" cy="310" r="45" fill="none" stroke="#fff" stroke-width="1.5"/>
  <text x="350" y="306" text-anchor="middle" class="body-white">AI</text>
  <text x="350" y="320" text-anchor="middle" class="body-white">SERVICES</text>

  <!-- Spoke: Chatbots -->
  <path d="M 305,310 C 220,310 160,270 120,250" fill="none" stroke="#999" stroke-width="1"/>
  <circle cx="120" cy="250" r="4" fill="#fff"/>
  <rect x="80" y="210" width="140" height="50" rx="3" fill="none" stroke="#fff" stroke-width="1"/>
  <text x="150" y="230" text-anchor="middle" class="body-white">CHATBOTS</text>
  <text x="150" y="247" text-anchor="middle" class="small">$500-$2,000</text>

  <!-- Spoke: Workflows -->
  <path d="M 320,270 C 280,220 250,210 230,200" fill="none" stroke="#999" stroke-width="1"/>
  <circle cx="230" cy="200" r="4" fill="#fff"/>
  <rect x="230" y="195" width="140" height="30" rx="3" fill="none" stroke="#fff" stroke-width="1"/>
  <text x="300" y="215" text-anchor="middle" class="body-white">WORKFLOWS</text>

  <!-- Spoke: AI Agents -->
  <path d="M 380,270 C 420,220 450,210 470,200" fill="none" stroke="#999" stroke-width="1"/>
  <circle cx="470" cy="200" r="4" fill="#fff"/>
  <rect x="420" y="195" width="140" height="30" rx="3" fill="none" stroke="#fff" stroke-width="1"/>
  <text x="490" y="215" text-anchor="middle" class="body-white">AI AGENTS</text>

  <!-- Spoke: Data Pipelines -->
  <path d="M 395,310 C 480,310 540,270 580,250" fill="none" stroke="#999" stroke-width="1"/>
  <circle cx="580" cy="250" r="4" fill="#fff"/>
  <rect x="480" y="210" width="150" height="50" rx="3" fill="none" stroke="#fff" stroke-width="1"/>
  <text x="555" y="230" text-anchor="middle" class="body-white">DATA PIPELINES</text>
  <text x="555" y="247" text-anchor="middle" class="small">$1,000-$5,000</text>

  <!-- Spoke: Voice AI -->
  <path d="M 320,350 C 260,400 200,420 160,430" fill="none" stroke="#999" stroke-width="1"/>
  <circle cx="160" cy="430" r="4" fill="#fff"/>
  <rect x="80" y="410" width="140" height="40" rx="3" fill="none" stroke="#fff" stroke-width="1"/>
  <text x="150" y="435" text-anchor="middle" class="body-white">VOICE AI</text>

  <!-- Spoke: Content AI -->
  <path d="M 380,350 C 440,400 500,420 540,430" fill="none" stroke="#999" stroke-width="1"/>
  <circle cx="540" cy="430" r="4" fill="#fff"/>
  <rect x="470" y="410" width="150" height="40" rx="3" fill="none" stroke="#fff" stroke-width="1"/>
  <text x="545" y="435" text-anchor="middle" class="body-white">CONTENT AI</text>

  <!-- ============================================ -->
  <!-- SECTION 2: Pricing (top-center) -->
  <!-- ============================================ -->

  <rect x="660" y="140" width="480" height="320" rx="3" fill="none" stroke="#fff" stroke-width="1"/>
  <text x="900" y="170" text-anchor="middle" class="section-title">02 / PRICING STRUCTURE</text>
  <line x1="680" y1="182" x2="1120" y2="182" stroke="#333" stroke-width="0.5"/>

  <!-- Pricing tiers -->
  <rect x="680" y="200" width="140" height="100" rx="3" fill="none" stroke="#999" stroke-width="1"/>
  <text x="750" y="225" text-anchor="middle" class="tier-label">AUDIT</text>
  <text x="750" y="248" text-anchor="middle" class="accent">FREE</text>
  <line x1="700" y1="258" x2="800" y2="258" stroke="#333" stroke-width="0.5"/>
  <text x="690" y="275" class="small">60-min call</text>
  <text x="690" y="290" class="small">Process review</text>

  <path d="M 820,250 C 835,250 845,250 855,250" fill="none" stroke="#999" stroke-width="1"/>
  <polygon points="853,247 860,250 853,253" fill="#999"/>

  <rect x="860" y="200" width="140" height="100" rx="3" fill="none" stroke="#fff" stroke-width="1.5"/>
  <text x="930" y="225" text-anchor="middle" class="tier-label">SETUP</text>
  <text x="930" y="248" text-anchor="middle" class="accent">$500-$2K</text>
  <line x1="880" y1="258" x2="980" y2="258" stroke="#333" stroke-width="0.5"/>
  <text x="870" y="275" class="small">Build + deploy</text>
  <text x="870" y="290" class="small">30-day support</text>

  <path d="M 1000,250 C 1015,250 1025,250 1035,250" fill="none" stroke="#999" stroke-width="1"/>
  <polygon points="1033,247 1040,250 1033,253" fill="#999"/>

  <rect x="1040" y="200" width="80" height="100" rx="3" fill="none" stroke="#fff" stroke-width="1"/>
  <text x="1080" y="220" text-anchor="middle" class="small">RETAINER</text>
  <text x="1080" y="248" text-anchor="middle" class="body-white">$1K-$5K</text>
  <text x="1080" y="262" text-anchor="middle" class="small">/month</text>
  <text x="1050" y="285" class="small">Ongoing</text>

  <!-- Revenue model -->
  <line x1="680" y1="315" x2="1120" y2="315" stroke="#333" stroke-width="0.5"/>
  <text x="680" y="338" class="body">Revenue Mix Target:</text>
  <text x="680" y="358" class="small">Setup projects:  ____%   ($________/mo)</text>
  <text x="680" y="375" class="small">Monthly retainers: ____%  ($________/mo)</text>

  <text x="680" y="400" class="body">Average deal size: $____</text>
  <text x="680" y="418" class="body">Close rate: ____%</text>
  <text x="680" y="436" class="body">Sales cycle: ____ days</text>
  <text x="680" y="454" class="body">Retainer LTV (avg months): ____</text>

  <!-- ============================================ -->
  <!-- SECTION 3: Client Finding (top-right) -->
  <!-- ============================================ -->

  <rect x="1160" y="140" width="480" height="320" rx="3" fill="none" stroke="#fff" stroke-width="1"/>
  <text x="1400" y="170" text-anchor="middle" class="section-title">03 / CLIENT ACQUISITION</text>
  <line x1="1180" y1="182" x2="1620" y2="182" stroke="#333" stroke-width="0.5"/>

  <!-- Acquisition funnel -->
  <polygon points="1250,210 1550,210 1520,245 1280,245" fill="none" stroke="#fff" stroke-width="1"/>
  <text x="1400" y="233" text-anchor="middle" class="body-white">AWARENESS</text>

  <polygon points="1280,255 1520,255 1500,290 1300,290" fill="none" stroke="#fff" stroke-width="1"/>
  <text x="1400" y="278" text-anchor="middle" class="body-white">INTEREST</text>

  <polygon points="1300,300 1500,300 1485,335 1315,335" fill="none" stroke="#fff" stroke-width="1"/>
  <text x="1400" y="323" text-anchor="middle" class="body-white">AUDIT CALL</text>

  <polygon points="1315,345 1485,345 1470,380 1330,380" fill="none" stroke="#fff" stroke-width="1"/>
  <text x="1400" y="368" text-anchor="middle" class="body-white">PROPOSAL</text>

  <polygon points="1330,390 1470,390 1460,425 1340,425" fill="none" stroke="#fff" stroke-width="1"/>
  <text x="1400" y="413" text-anchor="middle" class="body-white">CLOSED</text>

  <!-- Channel labels -->
  <text x="1180" y="225" class="small">LinkedIn</text>
  <text x="1180" y="240" class="small">Local biz</text>
  <text x="1560" y="225" class="small">Referrals</text>
  <text x="1560" y="240" class="small">Content</text>

  <text x="1180" y="448" class="body">Monthly targets:</text>
  <text x="1180" y="435" class="small"></text>
  <text x="1340" y="448" class="small">Leads: ____  Calls: ____  Closed: ____</text>

  <!-- ============================================ -->
  <!-- SECTION 4: Delivery Process (top far-right) -->
  <!-- ============================================ -->

  <rect x="1660" y="140" width="320" height="320" rx="3" fill="none" stroke="#fff" stroke-width="1"/>
  <text x="1820" y="170" text-anchor="middle" class="section-title">04 / DELIVERY</text>
  <line x1="1680" y1="182" x2="1960" y2="182" stroke="#333" stroke-width="0.5"/>

  <!-- Vertical process flow -->
  <rect x="1700" y="200" width="240" height="30" rx="3" fill="none" stroke="#fff" stroke-width="1"/>
  <text x="1820" y="220" text-anchor="middle" class="body-white">1. AUDIT (free, 60 min)</text>

  <path d="M 1820,230 L 1820,245" fill="none" stroke="#999" stroke-width="1"/>
  <polygon points="1817,243 1820,250 1823,243" fill="#999"/>

  <rect x="1700" y="250" width="240" height="30" rx="3" fill="none" stroke="#fff" stroke-width="1"/>
  <text x="1820" y="270" text-anchor="middle" class="body-white">2. PROPOSAL + SCOPE</text>

  <path d="M 1820,280 L 1820,295" fill="none" stroke="#999" stroke-width="1"/>
  <polygon points="1817,293 1820,300 1823,293" fill="#999"/>

  <rect x="1700" y="300" width="240" height="30" rx="3" fill="none" stroke="#fff" stroke-width="1.5"/>
  <text x="1820" y="320" text-anchor="middle" class="body-white">3. BUILD + TEST</text>

  <path d="M 1820,330 L 1820,345" fill="none" stroke="#999" stroke-width="1"/>
  <polygon points="1817,343 1820,350 1823,343" fill="#999"/>

  <rect x="1700" y="350" width="240" height="30" rx="3" fill="none" stroke="#fff" stroke-width="1"/>
  <text x="1820" y="370" text-anchor="middle" class="body-white">4. DEPLOY + TRAIN</text>

  <path d="M 1820,380 L 1820,395" fill="none" stroke="#999" stroke-width="1"/>
  <polygon points="1817,393 1820,400 1823,393" fill="#999"/>

  <rect x="1700" y="400" width="240" height="30" rx="3" fill="none" stroke="#fff" stroke-width="1"/>
  <text x="1820" y="420" text-anchor="middle" class="body-white">5. SUPPORT + RETAINER</text>

  <text x="1700" y="450" class="small">Avg build time: ____ days</text>

  <!-- ============================================ -->
  <!-- SECTION 5: Tech Stack (bottom-left) -->
  <!-- ============================================ -->

  <rect x="60" y="480" width="400" height="300" rx="3" fill="none" stroke="#fff" stroke-width="1"/>
  <text x="260" y="510" text-anchor="middle" class="section-title">05 / TECH STACK</text>
  <line x1="80" y1="522" x2="440" y2="522" stroke="#333" stroke-width="0.5"/>

  <text x="80" y="545" class="body-white">No-Code / Low-Code:</text>
  <text x="80" y="565" class="checkbox">[ ] n8n</text>
  <text x="200" y="565" class="checkbox">[ ] Make</text>
  <text x="300" y="565" class="checkbox">[ ] Zapier</text>
  <text x="80" y="583" class="checkbox">[ ] Voiceflow</text>
  <text x="200" y="583" class="checkbox">[ ] Botpress</text>

  <text x="80" y="612" class="body-white">Custom / Code:</text>
  <text x="80" y="632" class="checkbox">[ ] Python</text>
  <text x="200" y="632" class="checkbox">[ ] LangChain</text>
  <text x="320" y="632" class="checkbox">[ ] OpenAI API</text>
  <text x="80" y="650" class="checkbox">[ ] Anthropic</text>
  <text x="200" y="650" class="checkbox">[ ] Supabase</text>
  <text x="320" y="650" class="checkbox">[ ] Pinecone</text>

  <text x="80" y="679" class="body-white">Deployment:</text>
  <text x="80" y="699" class="checkbox">[ ] Railway</text>
  <text x="200" y="699" class="checkbox">[ ] Vercel</text>
  <text x="300" y="699" class="checkbox">[ ] AWS</text>
  <text x="80" y="717" class="checkbox">[ ] Docker</text>
  <text x="200" y="717" class="checkbox">[ ] GitHub</text>

  <text x="80" y="750" class="body">Primary stack: __________________________</text>
  <text x="80" y="770" class="body">Backup/alt:   __________________________</text>

  <!-- ============================================ -->
  <!-- SECTION 6: Case Study Template (bottom-center-left) -->
  <!-- ============================================ -->

  <rect x="480" y="480" width="420" height="300" rx="3" fill="none" stroke="#fff" stroke-width="1"/>
  <text x="690" y="510" text-anchor="middle" class="section-title">06 / CASE STUDY TEMPLATE</text>
  <line x1="500" y1="522" x2="880" y2="522" stroke="#333" stroke-width="0.5"/>

  <rect x="500" y="540" width="380" height="220" rx="3" fill="none" stroke="#333" stroke-width="0.5"/>

  <text x="520" y="562" class="body-white">CLIENT:</text>
  <rect x="610" y="549" width="250" height="18" rx="2" fill="none" stroke="#333" stroke-width="0.5"/>

  <text x="520" y="588" class="body-white">PROBLEM:</text>
  <rect x="520" y="595" width="340" height="25" rx="2" fill="none" stroke="#333" stroke-width="0.5"/>

  <text x="520" y="638" class="body-white">SOLUTION:</text>
  <rect x="520" y="645" width="340" height="25" rx="2" fill="none" stroke="#333" stroke-width="0.5"/>

  <text x="520" y="688" class="body-white">RESULTS:</text>
  <text x="520" y="705" class="small">Time saved: ____ hrs/week</text>
  <text x="520" y="720" class="small">Cost saved: $____/month</text>
  <text x="520" y="735" class="small">Revenue impact: $____</text>
  <text x="520" y="750" class="small">ROI: ____x</text>

  <!-- ============================================ -->
  <!-- SECTION 7: Scaling Path (bottom-center-right) -->
  <!-- ============================================ -->

  <rect x="920" y="480" width="440" height="300" rx="3" fill="none" stroke="#fff" stroke-width="1"/>
  <text x="1140" y="510" text-anchor="middle" class="section-title">07 / SCALING PATH</text>
  <line x1="940" y1="522" x2="1340" y2="522" stroke="#333" stroke-width="0.5"/>

  <!-- Milestone boxes -->
  <rect x="940" y="540" width="180" height="65" rx="3" fill="none" stroke="#999" stroke-width="1"/>
  <text x="1030" y="560" text-anchor="middle" class="tier-label">$0-$5K/mo</text>
  <text x="950" y="580" class="small">Solo, 2-3 clients</text>
  <text x="950" y="595" class="small">Free audits to close</text>

  <path d="M 1120,572 L 1140,572" fill="none" stroke="#999" stroke-width="1"/>
  <polygon points="1138,569 1145,572 1138,575" fill="#999"/>

  <rect x="1150" y="540" width="190" height="65" rx="3" fill="none" stroke="#fff" stroke-width="1"/>
  <text x="1245" y="560" text-anchor="middle" class="tier-label">$5K-$15K/mo</text>
  <text x="1160" y="580" class="small">Hire VA + contractor</text>
  <text x="1160" y="595" class="small">Templates + SOPs</text>

  <path d="M 1030,605 L 1030,625" fill="none" stroke="#999" stroke-width="1"/>
  <polygon points="1027,623 1030,630 1033,623" fill="#999"/>

  <rect x="940" y="630" width="180" height="65" rx="3" fill="none" stroke="#fff" stroke-width="1.5"/>
  <text x="1030" y="650" text-anchor="middle" class="tier-label">$15K-$30K/mo</text>
  <text x="950" y="670" class="small">Small team (3-5)</text>
  <text x="950" y="685" class="small">Productized services</text>

  <path d="M 1120,662 L 1140,662" fill="none" stroke="#999" stroke-width="1"/>
  <polygon points="1138,659 1145,662 1138,665" fill="#999"/>

  <rect x="1150" y="630" width="190" height="65" rx="3" fill="none" stroke="#fff" stroke-width="1"/>
  <text x="1245" y="650" text-anchor="middle" class="tier-label">$30K+/mo</text>
  <text x="1160" y="670" class="small">Full agency, brand</text>
  <text x="1160" y="685" class="small">Enterprise clients</text>

  <text x="940" y="720" class="body">Current stage: [ ] Solo  [ ] Growing  [ ] Team  [ ] Agency</text>
  <text x="940" y="740" class="body">Next hire: _________________________</text>
  <text x="940" y="758" class="body">Biggest bottleneck: ________________</text>

  <!-- ============================================ -->
  <!-- SECTION 8: Monthly Retainer Calculator (far right) -->
  <!-- ============================================ -->

  <rect x="1380" y="480" width="600" height="300" rx="3" fill="none" stroke="#fff" stroke-width="1"/>
  <text x="1680" y="510" text-anchor="middle" class="section-title">08 / MONTHLY RETAINER CALCULATOR</text>
  <line x1="1400" y1="522" x2="1960" y2="522" stroke="#333" stroke-width="0.5"/>

  <text x="1400" y="548" class="table-head">Client        Service          Setup     Retainer    Status</text>
  <line x1="1400" y1="553" x2="1960" y2="553" stroke="#333" stroke-width="0.5"/>
  <text x="1400" y="570" class="table-cell">__________    ______________   $____     $____/mo    [ ] Active</text>
  <text x="1400" y="588" class="table-cell">__________    ______________   $____     $____/mo    [ ] Active</text>
  <text x="1400" y="606" class="table-cell">__________    ______________   $____     $____/mo    [ ] Active</text>
  <text x="1400" y="624" class="table-cell">__________    ______________   $____     $____/mo    [ ] Active</text>
  <text x="1400" y="642" class="table-cell">__________    ______________   $____     $____/mo    [ ] Active</text>
  <text x="1400" y="660" class="table-cell">__________    ______________   $____     $____/mo    [ ] Active</text>
  <text x="1400" y="678" class="table-cell">__________    ______________   $____     $____/mo    [ ] Active</text>
  <text x="1400" y="696" class="table-cell">__________    ______________   $____     $____/mo    [ ] Active</text>

  <line x1="1400" y1="710" x2="1960" y2="710" stroke="#333" stroke-width="0.5"/>

  <text x="1400" y="733" class="body">Total Active Retainers: ____</text>
  <text x="1400" y="753" class="body">Monthly Recurring Revenue:</text>
  <text x="1400" y="773" class="accent">$________/mo</text>

  <text x="1700" y="733" class="body">Avg Retainer Value: $____</text>
  <text x="1700" y="753" class="body">Avg Client Tenure: ____ mo</text>
  <text x="1700" y="773" class="body">Capacity Left: ____ slots</text>

  <!-- Footer -->
  <line x1="80" y1="800" x2="2320" y2="800" stroke="#333" stroke-width="0.5"/>
  <text x="80" y="820" class="small">Agency: ___________________    Focus: ___________________    Start Date: __________    Status: [ ] Solo  [ ] First Clients  [ ] Team  [ ] Agency</text>
  <text x="1200" y="840" text-anchor="middle" class="small">behike.co</text>

</svg>