<?xml version="1.0" encoding="UTF-8"?>
<svg xmlns="http://www.w3.org/2000/svg" viewBox="0 0 2400 1800" width="2400" height="1800">
  <defs>
    <style>
      text { font-family: 'Helvetica Neue', Helvetica, Arial, sans-serif; fill: #fff; }
      .title { font-size: 28px; font-weight: bold; letter-spacing: 4px; }
      .subtitle { font-size: 14px; fill: #999; letter-spacing: 2px; }
      .section-title { font-size: 16px; font-weight: bold; letter-spacing: 1px; }
      .body { font-size: 12px; fill: #999; }
      .body-white { font-size: 12px; fill: #fff; }
      .small { font-size: 10px; fill: #999; }
      .checkbox { font-size: 11px; fill: #999; }
      .table-head { font-size: 11px; font-weight: bold; fill: #fff; }
      .table-cell { font-size: 10px; fill: #999; }
      .hub-label { font-size: 18px; font-weight: bold; letter-spacing: 2px; }
      .tier-label { font-size: 14px; font-weight: bold; }
      .accent { font-size: 20px; font-weight: bold; }
      .metric-value { font-size: 22px; font-weight: bold; }
      .metric-label { font-size: 10px; fill: #999; letter-spacing: 1px; }
    </style>
  </defs>

  <!-- Background -->
  <rect width="2400" height="1800" fill="#000"/>

  <!-- Border -->
  <rect x="30" y="30" width="2340" height="1740" fill="none" stroke="#333" stroke-width="1"/>
  <rect x="35" y="35" width="2330" height="1730" fill="none" stroke="#222" stroke-width="0.5"/>

  <!-- Header -->
  <text x="1200" y="80" text-anchor="middle" class="title">NEWSLETTER BUSINESS BLUEPRINT</text>
  <line x1="400" y1="95" x2="2000" y2="95" stroke="#333" stroke-width="0.5"/>
  <text x="1200" y="115" text-anchor="middle" class="subtitle">BUILD A MEDIA BUSINESS IN YOUR INBOX</text>

  <!-- ============================================ -->
  <!-- SECTION 1: Niche + Positioning (top-left) -->
  <!-- ============================================ -->

  <rect x="60" y="140" width="500" height="280" rx="3" fill="none" stroke="#fff" stroke-width="1"/>
  <text x="310" y="170" text-anchor="middle" class="section-title">01 / NICHE + POSITIONING</text>
  <line x1="80" y1="182" x2="540" y2="182" stroke="#333" stroke-width="0.5"/>

  <text x="80" y="208" class="body">Topic:</text>
  <rect x="160" y="195" width="380" height="18" rx="2" fill="none" stroke="#333" stroke-width="0.5"/>

  <text x="80" y="238" class="body">One-line pitch:</text>
  <rect x="80" y="248" width="460" height="18" rx="2" fill="none" stroke="#333" stroke-width="0.5"/>

  <text x="80" y="285" class="body">Target Reader:</text>
  <rect x="240" y="272" width="300" height="18" rx="2" fill="none" stroke="#333" stroke-width="0.5"/>

  <text x="80" y="315" class="body">Reader gets:</text>
  <text x="80" y="335" class="checkbox">[ ] ________________________________</text>
  <text x="80" y="355" class="checkbox">[ ] ________________________________</text>
  <text x="80" y="375" class="checkbox">[ ] ________________________________</text>

  <text x="80" y="402" class="body">Competitors:</text>
  <text x="80" y="418" class="small">1. _______________  2. _______________  3. _______________</text>

  <!-- ============================================ -->
  <!-- SECTION 2: Platform (top-center-left) -->
  <!-- ============================================ -->

  <rect x="580" y="140" width="340" height="280" rx="3" fill="none" stroke="#fff" stroke-width="1"/>
  <text x="750" y="170" text-anchor="middle" class="section-title">02 / PLATFORM</text>
  <line x1="600" y1="182" x2="900" y2="182" stroke="#333" stroke-width="0.5"/>

  <!-- Platform comparison -->
  <text x="600" y="208" class="table-head">Platform       Cost     Best For</text>
  <line x1="600" y1="213" x2="900" y2="213" stroke="#333" stroke-width="0.5"/>
  <text x="600" y="230" class="table-cell">Beehiiv        Free+    Growth tools</text>
  <text x="600" y="248" class="table-cell">ConvertKit     $29+     Creators</text>
  <text x="600" y="266" class="table-cell">Substack       Free     Writers</text>
  <text x="600" y="284" class="table-cell">Ghost          $9+      Full control</text>
  <text x="600" y="302" class="table-cell">Buttondown     $9+      Simplicity</text>

  <line x1="600" y1="315" x2="900" y2="315" stroke="#333" stroke-width="0.5"/>
  <text x="600" y="338" class="body">Chosen Platform:</text>
  <rect x="600" y="345" width="280" height="18" rx="2" fill="none" stroke="#333" stroke-width="0.5"/>

  <text x="600" y="382" class="body">Setup Checklist:</text>
  <text x="600" y="400" class="checkbox">[ ] Domain connected</text>
  <text x="600" y="418" class="checkbox">[ ] Welcome email written</text>

  <!-- ============================================ -->
  <!-- SECTION 3: List Building Hub-Spoke (top-right) -->
  <!-- ============================================ -->

  <rect x="940" y="140" width="640" height="280" rx="3" fill="none" stroke="#fff" stroke-width="1"/>
  <text x="1260" y="170" text-anchor="middle" class="section-title">03 / LIST BUILDING</text>
  <line x1="960" y1="182" x2="1560" y2="182" stroke="#333" stroke-width="0.5"/>

  <!-- Central hub -->
  <circle cx="1260" cy="300" r="40" fill="none" stroke="#fff" stroke-width="1.5"/>
  <text x="1260" y="296" text-anchor="middle" class="body-white">EMAIL</text>
  <text x="1260" y="310" text-anchor="middle" class="body-white">LIST</text>

  <!-- Spoke: Lead Magnets -->
  <path d="M 1220,300 C 1120,300 1060,260 1010,240" fill="none" stroke="#999" stroke-width="1"/>
  <circle cx="1010" cy="240" r="4" fill="#fff"/>
  <rect x="960" y="200" width="140" height="50" rx="3" fill="none" stroke="#fff" stroke-width="1"/>
  <text x="1030" y="220" text-anchor="middle" class="body-white">LEAD MAGNETS</text>
  <text x="1030" y="237" text-anchor="middle" class="small">PDF, checklist, tool</text>

  <!-- Spoke: Cross-promos -->
  <path d="M 1260,260 C 1260,230 1260,215 1260,205" fill="none" stroke="#999" stroke-width="1"/>
  <circle cx="1260" cy="205" r="4" fill="#fff"/>
  <rect x="1190" y="195" width="140" height="30" rx="3" fill="none" stroke="#fff" stroke-width="1"/>
  <text x="1260" y="215" text-anchor="middle" class="body-white">CROSS-PROMOS</text>

  <!-- Spoke: Social -->
  <path d="M 1300,300 C 1400,300 1460,260 1510,240" fill="none" stroke="#999" stroke-width="1"/>
  <circle cx="1510" cy="240" r="4" fill="#fff"/>
  <rect x="1440" y="200" width="130" height="50" rx="3" fill="none" stroke="#fff" stroke-width="1"/>
  <text x="1505" y="220" text-anchor="middle" class="body-white">SOCIAL</text>
  <text x="1505" y="237" text-anchor="middle" class="small">Twitter, LinkedIn</text>

  <!-- Spoke: SEO -->
  <path d="M 1230,335 C 1160,380 1080,390 1020,395" fill="none" stroke="#999" stroke-width="1"/>
  <circle cx="1020" cy="395" r="4" fill="#fff"/>
  <rect x="960" y="370" width="120" height="40" rx="3" fill="none" stroke="#fff" stroke-width="1"/>
  <text x="1020" y="395" text-anchor="middle" class="body-white">SEO / BLOG</text>

  <!-- Spoke: Paid Ads -->
  <path d="M 1290,335 C 1360,380 1440,390 1500,395" fill="none" stroke="#999" stroke-width="1"/>
  <circle cx="1500" cy="395" r="4" fill="#fff"/>
  <rect x="1440" y="370" width="120" height="40" rx="3" fill="none" stroke="#fff" stroke-width="1"/>
  <text x="1500" y="395" text-anchor="middle" class="body-white">PAID ADS</text>

  <!-- Growth targets -->
  <text x="1260" y="355" text-anchor="middle" class="small">Target: ____ subs/week</text>

  <!-- ============================================ -->
  <!-- SECTION 4: Content Format (center-left) -->
  <!-- ============================================ -->

  <rect x="60" y="440" width="600" height="300" rx="3" fill="none" stroke="#fff" stroke-width="1"/>
  <text x="360" y="470" text-anchor="middle" class="section-title">04 / WEEKLY CONTENT FORMAT</text>
  <line x1="80" y1="482" x2="640" y2="482" stroke="#333" stroke-width="0.5"/>

  <!-- Newsletter structure template -->
  <rect x="80" y="500" width="560" height="220" rx="3" fill="none" stroke="#333" stroke-width="0.5"/>

  <text x="100" y="522" class="body-white">SUBJECT LINE: [Hook] + [Curiosity gap]</text>
  <line x1="100" y1="530" x2="620" y2="530" stroke="#333" stroke-width="0.5"/>

  <text x="100" y="548" class="body">1. Opening Hook (2-3 lines)</text>
  <rect x="100" y="555" width="520" height="20" rx="2" fill="none" stroke="#333" stroke-width="0.5"/>

  <text x="100" y="590" class="body">2. Main Content (300-500 words)</text>
  <rect x="100" y="597" width="520" height="30" rx="2" fill="none" stroke="#333" stroke-width="0.5"/>

  <text x="100" y="645" class="body">3. Actionable Takeaway</text>
  <rect x="100" y="652" width="520" height="18" rx="2" fill="none" stroke="#333" stroke-width="0.5"/>

  <text x="100" y="685" class="body">4. CTA / Plug</text>
  <rect x="100" y="692" width="520" height="18" rx="2" fill="none" stroke="#333" stroke-width="0.5"/>

  <text x="360" y="730" text-anchor="middle" class="small">Send Day: ___________    Send Time: ___________    Word Count Target: ____</text>

  <!-- ============================================ -->
  <!-- SECTION 5: Monetization Funnel (center-right) -->
  <!-- ============================================ -->

  <rect x="680" y="440" width="560" height="300" rx="3" fill="none" stroke="#fff" stroke-width="1"/>
  <text x="960" y="470" text-anchor="middle" class="section-title">05 / MONETIZATION</text>
  <line x1="700" y1="482" x2="1220" y2="482" stroke="#333" stroke-width="0.5"/>

  <!-- Revenue streams funnel -->
  <polygon points="800,510 1120,510 1080,545 840,545" fill="none" stroke="#fff" stroke-width="1"/>
  <text x="960" y="533" text-anchor="middle" class="body-white">SPONSORS</text>

  <polygon points="840,555 1080,555 1050,590 870,590" fill="none" stroke="#fff" stroke-width="1"/>
  <text x="960" y="578" text-anchor="middle" class="body-white">PAID TIER</text>

  <polygon points="870,600 1050,600 1030,635 890,635" fill="none" stroke="#fff" stroke-width="1"/>
  <text x="960" y="622" text-anchor="middle" class="body-white">AFFILIATE</text>

  <polygon points="890,645 1030,645 1015,680 905,680" fill="none" stroke="#fff" stroke-width="1"/>
  <text x="960" y="668" text-anchor="middle" class="body-white">PRODUCTS</text>

  <!-- Revenue details -->
  <text x="700" y="520" class="small">$____/mo</text>
  <text x="700" y="565" class="small">$____/mo</text>
  <text x="700" y="610" class="small">$____/mo</text>
  <text x="700" y="655" class="small">$____/mo</text>

  <line x1="700" y1="700" x2="1220" y2="700" stroke="#333" stroke-width="0.5"/>
  <text x="700" y="720" class="body">Sponsor rate (per send): $____</text>
  <text x="700" y="738" class="body">Paid tier price: $____/mo or $____/yr</text>

  <!-- ============================================ -->
  <!-- SECTION 6: Growth (center-right extended) -->
  <!-- ============================================ -->

  <rect x="1260" y="440" width="360" height="300" rx="3" fill="none" stroke="#fff" stroke-width="1"/>
  <text x="1440" y="470" text-anchor="middle" class="section-title">06 / GROWTH ENGINE</text>
  <line x1="1280" y1="482" x2="1600" y2="482" stroke="#333" stroke-width="0.5"/>

  <text x="1280" y="508" class="body-white">Referral Program:</text>
  <text x="1280" y="528" class="small">1 referral = _______________</text>
  <text x="1280" y="545" class="small">3 referrals = _______________</text>
  <text x="1280" y="562" class="small">5 referrals = _______________</text>
  <text x="1280" y="579" class="small">10 referrals = _______________</text>

  <line x1="1280" y1="595" x2="1600" y2="595" stroke="#333" stroke-width="0.5"/>

  <text x="1280" y="615" class="body-white">Paid Growth:</text>
  <text x="1280" y="635" class="body">Budget/mo: $____</text>
  <text x="1280" y="655" class="body">Cost per sub: $____</text>
  <text x="1280" y="675" class="body">Channels:</text>
  <text x="1280" y="695" class="checkbox">[ ] SparkLoop</text>
  <text x="1280" y="713" class="checkbox">[ ] Facebook Ads</text>
  <text x="1280" y="731" class="checkbox">[ ] Twitter Ads</text>

  <!-- ============================================ -->
  <!-- SECTION 7: Metrics (far right) -->
  <!-- ============================================ -->

  <rect x="1640" y="140" width="340" height="280" rx="3" fill="none" stroke="#fff" stroke-width="1"/>
  <text x="1810" y="170" text-anchor="middle" class="section-title">CORE METRICS</text>
  <line x1="1660" y1="182" x2="1960" y2="182" stroke="#333" stroke-width="0.5"/>

  <!-- Metric cards -->
  <rect x="1660" y="200" width="140" height="60" rx="3" fill="none" stroke="#fff" stroke-width="1"/>
  <text x="1730" y="225" text-anchor="middle" class="metric-value">____%</text>
  <text x="1730" y="250" text-anchor="middle" class="metric-label">OPEN RATE</text>

  <rect x="1820" y="200" width="140" height="60" rx="3" fill="none" stroke="#fff" stroke-width="1"/>
  <text x="1890" y="225" text-anchor="middle" class="metric-value">____%</text>
  <text x="1890" y="250" text-anchor="middle" class="metric-label">CLICK RATE</text>

  <rect x="1660" y="280" width="140" height="60" rx="3" fill="none" stroke="#fff" stroke-width="1"/>
  <text x="1730" y="305" text-anchor="middle" class="metric-value">____</text>
  <text x="1730" y="330" text-anchor="middle" class="metric-label">SUBSCRIBERS</text>

  <rect x="1820" y="280" width="140" height="60" rx="3" fill="none" stroke="#fff" stroke-width="1"/>
  <text x="1890" y="305" text-anchor="middle" class="metric-value">____%</text>
  <text x="1890" y="330" text-anchor="middle" class="metric-label">GROWTH/WK</text>

  <text x="1660" y="370" class="body">Benchmarks:</text>
  <text x="1660" y="388" class="small">Open: 40%+  Click: 3%+  Unsub: &lt;0.5%</text>
  <text x="1660" y="405" class="small">Growth: 5-10% week over week</text>

  <!-- ============================================ -->
  <!-- SECTION 8: Revenue Targets (far right bottom) -->
  <!-- ============================================ -->

  <rect x="1640" y="440" width="340" height="300" rx="3" fill="none" stroke="#fff" stroke-width="1"/>
  <text x="1810" y="470" text-anchor="middle" class="section-title">REVENUE TARGETS</text>
  <line x1="1660" y1="482" x2="1960" y2="482" stroke="#333" stroke-width="0.5"/>

  <text x="1660" y="508" class="table-head">Subs      Sponsors   Paid     Total</text>
  <line x1="1660" y1="513" x2="1960" y2="513" stroke="#333" stroke-width="0.5"/>
  <text x="1660" y="530" class="table-cell">500       $0         $0       $0</text>
  <text x="1660" y="548" class="table-cell">1,000     $____      $____    $____</text>
  <text x="1660" y="566" class="table-cell">2,500     $____      $____    $____</text>
  <text x="1660" y="584" class="table-cell">5,000     $____      $____    $____</text>
  <text x="1660" y="602" class="table-cell">10,000    $____      $____    $____</text>
  <text x="1660" y="620" class="table-cell">25,000    $____      $____    $____</text>
  <text x="1660" y="638" class="table-cell">50,000    $____      $____    $____</text>

  <line x1="1660" y1="650" x2="1960" y2="650" stroke="#333" stroke-width="0.5"/>
  <text x="1660" y="672" class="body">Revenue per sub: $____</text>
  <text x="1660" y="695" class="body">Break-even subs: ____</text>
  <text x="1660" y="718" class="body">Full-time subs: ____</text>

  <!-- Footer -->
  <line x1="80" y1="760" x2="2320" y2="760" stroke="#333" stroke-width="0.5"/>
  <text x="80" y="780" class="small">Newsletter: ___________________    Platform: ___________________    Launch Date: __________    Status: [ ] Building  [ ] Growing  [ ] Monetized  [ ] Scaling</text>
  <text x="1200" y="800" text-anchor="middle" class="small">behike.co</text>

</svg>