<?xml version="1.0" encoding="UTF-8"?>
<svg xmlns="http://www.w3.org/2000/svg" viewBox="0 0 2400 1800" width="2400" height="1800">
<style>
  text { font-family: 'Helvetica Neue', Helvetica, Arial, sans-serif; fill: #ffffff; }
  .title { font-size: 42px; font-weight: bold; letter-spacing: 4px; }
  .subtitle { font-size: 14px; fill: #999999; }
  .section-title { font-size: 16px; font-weight: bold; letter-spacing: 2px; }
  .item { font-size: 11px; fill: #cccccc; }
  .checkbox { font-size: 11px; fill: #666666; }
  rect.section { fill: none; stroke: #ffffff; stroke-width: 1; }
  rect.bg { fill: #000000; }
  line.connector { stroke: #333333; stroke-width: 0.5; stroke-dasharray: 4,4; }
  .tracker-header { font-size: 10px; fill: #666666; font-weight: bold; }
  .tracker-cell { font-size: 9px; fill: #444444; }
</style>
<rect class="bg" width="2400" height="1800"/>

<!-- Title -->
<text class="title" x="1200" y="70" text-anchor="middle">PODCAST BUSINESS</text>
<text class="subtitle" x="1200" y="95" text-anchor="middle">BUSINESS BLUEPRINT</text>
<line x1="400" y1="110" x2="2000" y2="110" stroke="#333" stroke-width="0.5"/>


<!-- Section 1: GETTING STARTED -->
<rect class="section" x="80" y="180" width="520" height="380" rx="2"/>
<text class="section-title" x="95" y="205">GETTING STARTED</text>
<line x1="95" y1="212" x2="585" y2="212" stroke="#333" stroke-width="0.5"/>

<text class="checkbox" x="95" y="230">[ ]</text>
<text class="item" x="120" y="230">Define your niche</text>
<text class="checkbox" x="95" y="252">[ ]</text>
<text class="item" x="120" y="252">Set up accounts</text>
<text class="checkbox" x="95" y="274">[ ]</text>
<text class="item" x="120" y="274">Initial investment</text>
<text class="checkbox" x="95" y="296">[ ]</text>
<text class="item" x="120" y="296">Legal requirements</text>

<!-- Section 2: PRODUCT/SERVICE -->
<rect class="section" x="680" y="180" width="520" height="380" rx="2"/>
<text class="section-title" x="695" y="205">PRODUCT/SERVICE</text>
<line x1="695" y1="212" x2="1185" y2="212" stroke="#333" stroke-width="0.5"/>

<text class="checkbox" x="695" y="230">[ ]</text>
<text class="item" x="720" y="230">Core offering</text>
<text class="checkbox" x="695" y="252">[ ]</text>
<text class="item" x="720" y="252">Pricing strategy</text>
<text class="checkbox" x="695" y="274">[ ]</text>
<text class="item" x="720" y="274">Unique value prop</text>
<text class="checkbox" x="695" y="296">[ ]</text>
<text class="item" x="720" y="296">Quality standards</text>

<!-- Section 3: MARKETING -->
<rect class="section" x="1280" y="180" width="520" height="380" rx="2"/>
<text class="section-title" x="1295" y="205">MARKETING</text>
<line x1="1295" y1="212" x2="1785" y2="212" stroke="#333" stroke-width="0.5"/>

<text class="checkbox" x="1295" y="230">[ ]</text>
<text class="item" x="1320" y="230">Social media</text>
<text class="checkbox" x="1295" y="252">[ ]</text>
<text class="item" x="1320" y="252">Content strategy</text>
<text class="checkbox" x="1295" y="274">[ ]</text>
<text class="item" x="1320" y="274">Paid ads</text>
<text class="checkbox" x="1295" y="296">[ ]</text>
<text class="item" x="1320" y="296">Referrals</text>
<text class="checkbox" x="1295" y="318">[ ]</text>
<text class="item" x="1320" y="318">SEO</text>

<!-- Section 4: OPERATIONS -->
<rect class="section" x="1880" y="180" width="520" height="380" rx="2"/>
<text class="section-title" x="1895" y="205">OPERATIONS</text>
<line x1="1895" y1="212" x2="2385" y2="212" stroke="#333" stroke-width="0.5"/>

<text class="checkbox" x="1895" y="230">[ ]</text>
<text class="item" x="1920" y="230">Daily workflow</text>
<text class="checkbox" x="1895" y="252">[ ]</text>
<text class="item" x="1920" y="252">Tools needed</text>
<text class="checkbox" x="1895" y="274">[ ]</text>
<text class="item" x="1920" y="274">Automation</text>
<text class="checkbox" x="1895" y="296">[ ]</text>
<text class="item" x="1920" y="296">Quality control</text>

<!-- Section 5: FINANCES -->
<rect class="section" x="80" y="700" width="520" height="380" rx="2"/>
<text class="section-title" x="95" y="725">FINANCES</text>
<line x1="95" y1="732" x2="585" y2="732" stroke="#333" stroke-width="0.5"/>

<text class="checkbox" x="95" y="750">[ ]</text>
<text class="item" x="120" y="750">Startup costs</text>
<text class="checkbox" x="95" y="772">[ ]</text>
<text class="item" x="120" y="772">Revenue streams</text>
<text class="checkbox" x="95" y="794">[ ]</text>
<text class="item" x="120" y="794">Break-even point</text>
<text class="checkbox" x="95" y="816">[ ]</text>
<text class="item" x="120" y="816">Profit margins</text>

<!-- Section 6: GROWTH -->
<rect class="section" x="680" y="700" width="520" height="380" rx="2"/>
<text class="section-title" x="695" y="725">GROWTH</text>
<line x1="695" y1="732" x2="1185" y2="732" stroke="#333" stroke-width="0.5"/>

<text class="checkbox" x="695" y="750">[ ]</text>
<text class="item" x="720" y="750">Scaling strategy</text>
<text class="checkbox" x="695" y="772">[ ]</text>
<text class="item" x="720" y="772">Hiring plan</text>
<text class="checkbox" x="695" y="794">[ ]</text>
<text class="item" x="720" y="794">Partnerships</text>
<text class="checkbox" x="695" y="816">[ ]</text>
<text class="item" x="720" y="816">New markets</text>

<!-- Section 7: METRICS -->
<rect class="section" x="1280" y="700" width="520" height="380" rx="2"/>
<text class="section-title" x="1295" y="725">METRICS</text>
<line x1="1295" y1="732" x2="1785" y2="732" stroke="#333" stroke-width="0.5"/>

<text class="checkbox" x="1295" y="750">[ ]</text>
<text class="item" x="1320" y="750">KPIs to track</text>
<text class="checkbox" x="1295" y="772">[ ]</text>
<text class="item" x="1320" y="772">Monthly goals</text>
<text class="checkbox" x="1295" y="794">[ ]</text>
<text class="item" x="1320" y="794">Quarterly review</text>
<text class="checkbox" x="1295" y="816">[ ]</text>
<text class="item" x="1320" y="816">Annual targets</text>

<!-- Section 8: SCHEDULE -->
<rect class="section" x="1880" y="700" width="520" height="380" rx="2"/>
<text class="section-title" x="1895" y="725">SCHEDULE</text>
<line x1="1895" y1="732" x2="2385" y2="732" stroke="#333" stroke-width="0.5"/>

<text class="checkbox" x="1895" y="750">[ ]</text>
<text class="item" x="1920" y="750">Daily tasks</text>
<text class="checkbox" x="1895" y="772">[ ]</text>
<text class="item" x="1920" y="772">Weekly reviews</text>
<text class="checkbox" x="1895" y="794">[ ]</text>
<text class="item" x="1920" y="794">Monthly planning</text>
<text class="checkbox" x="1895" y="816">[ ]</text>
<text class="item" x="1920" y="816">Quarterly strategy</text>
<line class="connector" x1="600" y1="370" x2="680" y2="370"/>
<line class="connector" x1="1200" y1="370" x2="1280" y2="370"/>
<line class="connector" x1="1800" y1="370" x2="1880" y2="370"/>
<line class="connector" x1="600" y1="890" x2="680" y2="890"/>
<line class="connector" x1="1200" y1="890" x2="1280" y2="890"/>
<line class="connector" x1="1800" y1="890" x2="1880" y2="890"/>
<line class="connector" x1="340" y1="560" x2="340" y2="700"/>
<line class="connector" x1="940" y1="560" x2="940" y2="700"/>
<line class="connector" x1="1540" y1="560" x2="1540" y2="700"/>
<line class="connector" x1="2140" y1="560" x2="2140" y2="700"/>

<!-- Revenue Tracker -->
<text class="section-title" x="80" y="1160">REVENUE TRACKER</text>
<line x1="80" y1="1168" x2="2320" y2="1168" stroke="#333" stroke-width="0.5"/>

<text class="tracker-header" x="200" y="1190">JAN</text>
<text class="tracker-cell" x="200" y="1210">$_____</text>
<text class="tracker-header" x="375" y="1190">FEB</text>
<text class="tracker-cell" x="375" y="1210">$_____</text>
<text class="tracker-header" x="550" y="1190">MAR</text>
<text class="tracker-cell" x="550" y="1210">$_____</text>
<text class="tracker-header" x="725" y="1190">APR</text>
<text class="tracker-cell" x="725" y="1210">$_____</text>
<text class="tracker-header" x="900" y="1190">MAY</text>
<text class="tracker-cell" x="900" y="1210">$_____</text>
<text class="tracker-header" x="1075" y="1190">JUN</text>
<text class="tracker-cell" x="1075" y="1210">$_____</text>
<text class="tracker-header" x="1250" y="1190">JUL</text>
<text class="tracker-cell" x="1250" y="1210">$_____</text>
<text class="tracker-header" x="1425" y="1190">AUG</text>
<text class="tracker-cell" x="1425" y="1210">$_____</text>
<text class="tracker-header" x="1600" y="1190">SEP</text>
<text class="tracker-cell" x="1600" y="1210">$_____</text>
<text class="tracker-header" x="1775" y="1190">OCT</text>
<text class="tracker-cell" x="1775" y="1210">$_____</text>
<text class="tracker-header" x="1950" y="1190">NOV</text>
<text class="tracker-cell" x="1950" y="1210">$_____</text>
<text class="tracker-header" x="2125" y="1190">DEC</text>
<text class="tracker-cell" x="2125" y="1210">$_____</text>

<text class="subtitle" x="2300" y="1760" text-anchor="end">[ ] Not started   [x] Done</text>
<text class="subtitle" x="2300" y="1780" text-anchor="end">behike.co</text>

</svg>