<?xml version="1.0" encoding="UTF-8"?>
<svg xmlns="http://www.w3.org/2000/svg" viewBox="0 0 2550 3300" width="2550" height="3300">
  <defs>
    <style>
      text { font-family: 'Helvetica Neue', Helvetica, Arial, sans-serif; fill: #ffffff; }
      .title { font-size: 56px; font-weight: 700; letter-spacing: 3px; }
      .subtitle { font-size: 24px; fill: #999999; letter-spacing: 2px; font-weight: 300; }
      .section-title { font-size: 32px; font-weight: 700; fill: #007AFF; letter-spacing: 1px; }
      .section-num { font-size: 28px; font-weight: 300; fill: #007AFF; letter-spacing: 2px; }
      .body { font-size: 18px; fill: #999999; }
      .body-white { font-size: 18px; fill: #ffffff; }
      .body-bold { font-size: 18px; fill: #ffffff; font-weight: 600; }
      .small { font-size: 15px; fill: #999999; }
      .small-white { font-size: 15px; fill: #ffffff; }
      .checkbox { font-size: 16px; fill: #999999; }
      .metric-value { font-size: 36px; font-weight: 700; fill: #ffffff; }
      .metric-label { font-size: 14px; fill: #999999; letter-spacing: 1px; text-transform: uppercase; }
      .hub-label { font-size: 20px; font-weight: 600; fill: #ffffff; }
      .footer { font-size: 16px; fill: #999999; letter-spacing: 3px; }
    </style>
  </defs>

  <rect width="2550" height="3300" fill="#000000"/>
  <rect x="40" y="40" width="2470" height="3220" fill="none" stroke="#333333" stroke-width="1"/>

  <!-- Header -->
  <text x="1275" y="130" text-anchor="middle" class="title">DROPSHIPPING</text>
  <text x="1275" y="185" text-anchor="middle" class="title">BLUEPRINT</text>
  <line x1="400" y1="210" x2="2150" y2="210" stroke="#007AFF" stroke-width="2"/>
  <text x="1275" y="250" text-anchor="middle" class="subtitle">ZERO INVENTORY E-COMMERCE FROM PRODUCT TO SCALE</text>

  <!-- ===================== -->
  <!-- SECTION 1: SUPPLIER RESEARCH (Hub-Spoke) -->
  <!-- ===================== -->
  <text x="100" y="330" class="section-num">01</text>
  <text x="160" y="330" class="section-title">SUPPLIER RESEARCH</text>
  <line x1="100" y1="345" x2="1200" y2="345" stroke="#007AFF" stroke-width="1"/>

  <circle cx="640" cy="530" r="70" fill="none" stroke="#007AFF" stroke-width="2"/>
  <text x="640" y="524" text-anchor="middle" class="hub-label">SUPPLIER</text>
  <text x="640" y="548" text-anchor="middle" class="hub-label">SOURCES</text>

  <line x1="570" y1="510" x2="220" y2="420" stroke="#333333" stroke-width="1"/>
  <circle cx="220" cy="420" r="5" fill="#007AFF"/>
  <rect x="100" y="390" width="240" height="65" rx="4" fill="none" stroke="#ffffff" stroke-width="1"/>
  <text x="220" y="418" text-anchor="middle" class="body-bold">AliExpress</text>
  <text x="220" y="440" text-anchor="middle" class="small">Low MOQ, wide catalog</text>

  <line x1="575" y1="480" x2="220" y2="520" stroke="#333333" stroke-width="1"/>
  <circle cx="220" cy="520" r="5" fill="#007AFF"/>
  <rect x="100" y="495" width="240" height="65" rx="4" fill="none" stroke="#ffffff" stroke-width="1"/>
  <text x="220" y="523" text-anchor="middle" class="body-bold">CJ Dropshipping</text>
  <text x="220" y="545" text-anchor="middle" class="small">Faster US shipping</text>

  <line x1="580" y1="590" x2="220" y2="630" stroke="#333333" stroke-width="1"/>
  <circle cx="220" cy="630" r="5" fill="#007AFF"/>
  <rect x="100" y="605" width="240" height="65" rx="4" fill="none" stroke="#ffffff" stroke-width="1"/>
  <text x="220" y="633" text-anchor="middle" class="body-bold">1688 / Alibaba</text>
  <text x="220" y="655" text-anchor="middle" class="small">Bulk pricing, agents</text>

  <line x1="710" y1="510" x2="1060" y2="420" stroke="#333333" stroke-width="1"/>
  <circle cx="1060" cy="420" r="5" fill="#007AFF"/>
  <rect x="940" y="390" width="240" height="65" rx="4" fill="none" stroke="#ffffff" stroke-width="1"/>
  <text x="1060" y="418" text-anchor="middle" class="body-bold">US Suppliers</text>
  <text x="1060" y="440" text-anchor="middle" class="small">2-5 day delivery</text>

  <line x1="710" y1="550" x2="1060" y2="530" stroke="#333333" stroke-width="1"/>
  <circle cx="1060" cy="530" r="5" fill="#007AFF"/>
  <rect x="940" y="505" width="240" height="65" rx="4" fill="none" stroke="#ffffff" stroke-width="1"/>
  <text x="1060" y="533" text-anchor="middle" class="body-bold">Print on Demand</text>
  <text x="1060" y="555" text-anchor="middle" class="small">Custom branding</text>

  <line x1="700" y1="590" x2="1060" y2="640" stroke="#333333" stroke-width="1"/>
  <circle cx="1060" cy="640" r="5" fill="#007AFF"/>
  <rect x="940" y="615" width="240" height="65" rx="4" fill="none" stroke="#ffffff" stroke-width="1"/>
  <text x="1060" y="643" text-anchor="middle" class="body-bold">Wholesale</text>
  <text x="1060" y="665" text-anchor="middle" class="small">Higher margins</text>

  <!-- ===================== -->
  <!-- SECTION 2: PLATFORM SELECTION -->
  <!-- ===================== -->
  <text x="1350" y="330" class="section-num">02</text>
  <text x="1410" y="330" class="section-title">PLATFORM SELECTION</text>
  <line x1="1350" y1="345" x2="2450" y2="345" stroke="#007AFF" stroke-width="1"/>

  <rect x="1350" y="380" width="1100" height="55" rx="4" fill="none" stroke="#007AFF" stroke-width="1.5"/>
  <text x="1560" y="413" text-anchor="middle" class="body-bold">Shopify</text>
  <text x="1900" y="413" class="small">Best for beginners, app ecosystem, $39/mo</text>

  <rect x="1350" y="455" width="1100" height="55" rx="4" fill="none" stroke="#ffffff" stroke-width="1"/>
  <text x="1560" y="488" text-anchor="middle" class="body-bold">eBay</text>
  <text x="1900" y="488" class="small">Built-in traffic, lower startup cost, fees per sale</text>

  <rect x="1350" y="530" width="1100" height="55" rx="4" fill="none" stroke="#ffffff" stroke-width="1"/>
  <text x="1560" y="563" text-anchor="middle" class="body-bold">Amazon FBA</text>
  <text x="1900" y="563" class="small">Massive traffic, strict rules, higher fees</text>

  <rect x="1350" y="605" width="1100" height="55" rx="4" fill="none" stroke="#ffffff" stroke-width="1"/>
  <text x="1560" y="638" text-anchor="middle" class="body-bold">TikTok Shop</text>
  <text x="1900" y="638" class="small">Viral potential, younger audience, growing fast</text>

  <rect x="1350" y="680" width="1100" height="55" rx="4" fill="none" stroke="#ffffff" stroke-width="1"/>
  <text x="1560" y="713" text-anchor="middle" class="body-bold">WooCommerce</text>
  <text x="1900" y="713" class="small">Full control, self-hosted, WordPress based</text>

  <!-- ===================== -->
  <!-- SECTION 3: PRODUCT TESTING -->
  <!-- ===================== -->
  <text x="100" y="770" class="section-num">03</text>
  <text x="160" y="770" class="section-title">PRODUCT TESTING FRAMEWORK</text>
  <line x1="100" y1="785" x2="2450" y2="785" stroke="#007AFF" stroke-width="1"/>

  <!-- Testing flowchart -->
  <rect x="100" y="820" width="280" height="90" rx="4" fill="none" stroke="#007AFF" stroke-width="1.5"/>
  <text x="240" y="855" text-anchor="middle" class="body-bold">Research</text>
  <text x="240" y="880" text-anchor="middle" class="small">TikTok, Google Trends</text>
  <text x="240" y="898" text-anchor="middle" class="small">competitor analysis</text>

  <line x1="380" y1="865" x2="440" y2="865" stroke="#333333" stroke-width="1"/>
  <polygon points="435,861 435,869 443,865" fill="#333333"/>

  <rect x="445" y="820" width="280" height="90" rx="4" fill="none" stroke="#ffffff" stroke-width="1"/>
  <text x="585" y="855" text-anchor="middle" class="body-bold">Validate</text>
  <text x="585" y="880" text-anchor="middle" class="small">Check margins (3x+)</text>
  <text x="585" y="898" text-anchor="middle" class="small">shipping time, demand</text>

  <line x1="725" y1="865" x2="785" y2="865" stroke="#333333" stroke-width="1"/>
  <polygon points="780,861 780,869 788,865" fill="#333333"/>

  <rect x="790" y="820" width="280" height="90" rx="4" fill="none" stroke="#ffffff" stroke-width="1"/>
  <text x="930" y="855" text-anchor="middle" class="body-bold">List + Test</text>
  <text x="930" y="880" text-anchor="middle" class="small">$50-100 ad budget</text>
  <text x="930" y="898" text-anchor="middle" class="small">3-5 day test window</text>

  <line x1="1070" y1="865" x2="1130" y2="865" stroke="#333333" stroke-width="1"/>
  <polygon points="1125,861 1125,869 1133,865" fill="#333333"/>

  <rect x="1135" y="820" width="280" height="90" rx="4" fill="none" stroke="#ffffff" stroke-width="1"/>
  <text x="1275" y="855" text-anchor="middle" class="body-bold">Analyze</text>
  <text x="1275" y="880" text-anchor="middle" class="small">CPA, ROAS, CTR</text>
  <text x="1275" y="898" text-anchor="middle" class="small">kill or scale</text>

  <line x1="1415" y1="865" x2="1475" y2="865" stroke="#333333" stroke-width="1"/>
  <polygon points="1470,861 1470,869 1478,865" fill="#333333"/>

  <rect x="1480" y="820" width="280" height="90" rx="4" fill="none" stroke="#007AFF" stroke-width="1.5"/>
  <text x="1620" y="855" text-anchor="middle" class="body-bold">Scale</text>
  <text x="1620" y="880" text-anchor="middle" class="small">Increase budget 20%/day</text>
  <text x="1620" y="898" text-anchor="middle" class="small">duplicate winning ads</text>

  <!-- Product criteria checklist -->
  <text x="100" y="980" class="body-bold">Winning Product Criteria</text>
  <rect x="100" y="1000" width="16" height="16" rx="2" fill="none" stroke="#999999" stroke-width="1"/>
  <text x="130" y="1014" class="checkbox">Solves a problem or triggers impulse buy</text>
  <rect x="100" y="1030" width="16" height="16" rx="2" fill="none" stroke="#999999" stroke-width="1"/>
  <text x="130" y="1044" class="checkbox">3x markup minimum ($10 cost, $30+ sell)</text>
  <rect x="100" y="1060" width="16" height="16" rx="2" fill="none" stroke="#999999" stroke-width="1"/>
  <text x="130" y="1074" class="checkbox">Lightweight, shippable, low return rate</text>
  <rect x="100" y="1090" width="16" height="16" rx="2" fill="none" stroke="#999999" stroke-width="1"/>
  <text x="130" y="1104" class="checkbox">Not easily found in local stores</text>
  <rect x="100" y="1120" width="16" height="16" rx="2" fill="none" stroke="#999999" stroke-width="1"/>
  <text x="130" y="1134" class="checkbox">Strong visual / video appeal</text>
  <rect x="100" y="1150" width="16" height="16" rx="2" fill="none" stroke="#999999" stroke-width="1"/>
  <text x="130" y="1164" class="checkbox">Not saturated (check ad spy tools)</text>

  <!-- ===================== -->
  <!-- SECTION 4: AD STRATEGY -->
  <!-- ===================== -->
  <text x="1350" y="980" class="section-num">04</text>
  <text x="1410" y="980" class="section-title">AD STRATEGY</text>
  <line x1="1350" y1="995" x2="2450" y2="995" stroke="#007AFF" stroke-width="1"/>

  <!-- Ad platforms -->
  <rect x="1350" y="1020" width="530" height="65" rx="4" fill="none" stroke="#007AFF" stroke-width="1.5"/>
  <text x="1615" y="1050" text-anchor="middle" class="body-bold">Facebook / Instagram Ads</text>
  <text x="1615" y="1072" text-anchor="middle" class="small">CBO campaigns, lookalike audiences, retargeting</text>

  <rect x="1350" y="1105" width="530" height="65" rx="4" fill="none" stroke="#ffffff" stroke-width="1"/>
  <text x="1615" y="1135" text-anchor="middle" class="body-bold">TikTok Ads</text>
  <text x="1615" y="1157" text-anchor="middle" class="small">Spark ads, UGC creatives, viral potential</text>

  <rect x="1350" y="1190" width="530" height="65" rx="4" fill="none" stroke="#ffffff" stroke-width="1"/>
  <text x="1615" y="1220" text-anchor="middle" class="body-bold">Google Shopping</text>
  <text x="1615" y="1242" text-anchor="middle" class="small">High intent buyers, PMAX campaigns</text>

  <rect x="1910" y="1020" width="540" height="235" rx="4" fill="#111111"/>
  <text x="2180" y="1060" text-anchor="middle" class="body-bold">Ad Budget Scaling</text>
  <line x1="1930" y1="1075" x2="2430" y2="1075" stroke="#333333" stroke-width="0.5"/>
  <text x="1940" y="1105" class="small">Day 1-3: $20/day test</text>
  <text x="1940" y="1130" class="small">Day 4-7: Kill losers</text>
  <text x="1940" y="1155" class="small">Day 8-14: Scale winners 20%</text>
  <text x="1940" y="1180" class="small">Day 15-30: $100+/day</text>
  <text x="1940" y="1205" class="small">Day 30+: Duplicate + expand</text>
  <text x="1940" y="1230" class="small">Target: 2x+ ROAS</text>

  <!-- ===================== -->
  <!-- SECTION 5: FULFILLMENT -->
  <!-- ===================== -->
  <text x="100" y="1300" class="section-num">05</text>
  <text x="160" y="1300" class="section-title">FULFILLMENT</text>
  <line x1="100" y1="1315" x2="1200" y2="1315" stroke="#007AFF" stroke-width="1"/>

  <rect x="100" y="1340" width="300" height="85" rx="4" fill="none" stroke="#007AFF" stroke-width="1.5"/>
  <text x="250" y="1375" text-anchor="middle" class="body-bold">Order Received</text>
  <text x="250" y="1400" text-anchor="middle" class="small">Auto-sync from store</text>

  <line x1="400" y1="1382" x2="450" y2="1382" stroke="#333333" stroke-width="1"/>
  <polygon points="445,1378 445,1386 453,1382" fill="#333333"/>

  <rect x="455" y="1340" width="300" height="85" rx="4" fill="none" stroke="#ffffff" stroke-width="1"/>
  <text x="605" y="1375" text-anchor="middle" class="body-bold">Forward to Supplier</text>
  <text x="605" y="1400" text-anchor="middle" class="small">AutoDS / DSers</text>

  <line x1="755" y1="1382" x2="805" y2="1382" stroke="#333333" stroke-width="1"/>
  <polygon points="800,1378 800,1386 808,1382" fill="#333333"/>

  <rect x="810" y="1340" width="300" height="85" rx="4" fill="none" stroke="#ffffff" stroke-width="1"/>
  <text x="960" y="1375" text-anchor="middle" class="body-bold">Track Shipping</text>
  <text x="960" y="1400" text-anchor="middle" class="small">17Track / AfterShip</text>

  <!-- ===================== -->
  <!-- SECTION 6: CUSTOMER SERVICE -->
  <!-- ===================== -->
  <text x="1350" y="1300" class="section-num">06</text>
  <text x="1410" y="1300" class="section-title">CUSTOMER SERVICE</text>
  <line x1="1350" y1="1315" x2="2450" y2="1315" stroke="#007AFF" stroke-width="1"/>

  <rect x="1350" y="1340" width="16" height="16" rx="2" fill="none" stroke="#999999" stroke-width="1"/>
  <text x="1380" y="1354" class="checkbox">Respond within 24 hours</text>
  <rect x="1350" y="1370" width="16" height="16" rx="2" fill="none" stroke="#999999" stroke-width="1"/>
  <text x="1380" y="1384" class="checkbox">Pre-written response templates</text>
  <rect x="1350" y="1400" width="16" height="16" rx="2" fill="none" stroke="#999999" stroke-width="1"/>
  <text x="1380" y="1414" class="checkbox">Refund policy clearly posted</text>
  <rect x="1350" y="1430" width="16" height="16" rx="2" fill="none" stroke="#999999" stroke-width="1"/>
  <text x="1380" y="1444" class="checkbox">Partial refund before full (save margin)</text>
  <rect x="1350" y="1460" width="16" height="16" rx="2" fill="none" stroke="#999999" stroke-width="1"/>
  <text x="1380" y="1474" class="checkbox">Track customer satisfaction score</text>
  <rect x="1350" y="1490" width="16" height="16" rx="2" fill="none" stroke="#999999" stroke-width="1"/>
  <text x="1380" y="1504" class="checkbox">Automate with Tidio / Gorgias</text>

  <!-- ===================== -->
  <!-- SECTION 7: SCALING PLAYBOOK -->
  <!-- ===================== -->
  <text x="100" y="1540" class="section-num">07</text>
  <text x="160" y="1540" class="section-title">SCALING PLAYBOOK</text>
  <line x1="100" y1="1555" x2="2450" y2="1555" stroke="#007AFF" stroke-width="1"/>

  <!-- Scaling timeline -->
  <line x1="200" y1="1640" x2="2350" y2="1640" stroke="#333333" stroke-width="2"/>

  <circle cx="400" cy="1640" r="10" fill="#007AFF"/>
  <text x="400" y="1615" text-anchor="middle" class="body-bold">MONTH 1-2</text>
  <rect x="270" y="1670" width="260" height="90" rx="4" fill="none" stroke="#ffffff" stroke-width="1"/>
  <text x="400" y="1700" text-anchor="middle" class="body-white">Product Testing</text>
  <text x="400" y="1725" text-anchor="middle" class="small">Test 10-20 products</text>
  <text x="400" y="1745" text-anchor="middle" class="small">Find 1-2 winners</text>

  <circle cx="950" cy="1640" r="10" fill="#007AFF"/>
  <text x="950" y="1615" text-anchor="middle" class="body-bold">MONTH 3-4</text>
  <rect x="820" y="1670" width="260" height="90" rx="4" fill="none" stroke="#ffffff" stroke-width="1"/>
  <text x="950" y="1700" text-anchor="middle" class="body-white">Scale Winners</text>
  <text x="950" y="1725" text-anchor="middle" class="small">$100+/day ad spend</text>
  <text x="950" y="1745" text-anchor="middle" class="small">Optimize funnels</text>

  <circle cx="1500" cy="1640" r="10" fill="#007AFF"/>
  <text x="1500" y="1615" text-anchor="middle" class="body-bold">MONTH 5-6</text>
  <rect x="1370" y="1670" width="260" height="90" rx="4" fill="none" stroke="#ffffff" stroke-width="1"/>
  <text x="1500" y="1700" text-anchor="middle" class="body-white">Brand Building</text>
  <text x="1500" y="1725" text-anchor="middle" class="small">Custom packaging</text>
  <text x="1500" y="1745" text-anchor="middle" class="small">Private label</text>

  <circle cx="2050" cy="1640" r="10" fill="#007AFF"/>
  <text x="2050" y="1615" text-anchor="middle" class="body-bold">MONTH 7-12</text>
  <rect x="1920" y="1670" width="260" height="90" rx="4" fill="none" stroke="#ffffff" stroke-width="1"/>
  <text x="2050" y="1700" text-anchor="middle" class="body-white">Multi-Channel</text>
  <text x="2050" y="1725" text-anchor="middle" class="small">Expand platforms</text>
  <text x="2050" y="1745" text-anchor="middle" class="small">Hire VA team</text>

  <!-- Revenue Tracker -->
  <text x="100" y="1850" class="section-num">REVENUE TRACKER</text>
  <line x1="100" y1="1865" x2="2450" y2="1865" stroke="#007AFF" stroke-width="1"/>

  <rect x="100" y="1900" width="380" height="100" rx="4" fill="#111111"/>
  <text x="290" y="1950" text-anchor="middle" class="metric-value">$____</text>
  <text x="290" y="1980" text-anchor="middle" class="metric-label">MONTHLY REVENUE</text>

  <rect x="510" y="1900" width="380" height="100" rx="4" fill="#111111"/>
  <text x="700" y="1950" text-anchor="middle" class="metric-value">$____</text>
  <text x="700" y="1980" text-anchor="middle" class="metric-label">MONTHLY PROFIT</text>

  <rect x="920" y="1900" width="380" height="100" rx="4" fill="#111111"/>
  <text x="1110" y="1950" text-anchor="middle" class="metric-value">____%</text>
  <text x="1110" y="1980" text-anchor="middle" class="metric-label">PROFIT MARGIN</text>

  <rect x="1330" y="1900" width="380" height="100" rx="4" fill="#111111"/>
  <text x="1520" y="1950" text-anchor="middle" class="metric-value">____</text>
  <text x="1520" y="1980" text-anchor="middle" class="metric-label">ORDERS THIS MONTH</text>

  <rect x="1740" y="1900" width="380" height="100" rx="4" fill="#111111"/>
  <text x="1930" y="1950" text-anchor="middle" class="metric-value">$____</text>
  <text x="1930" y="1980" text-anchor="middle" class="metric-label">AD SPEND</text>

  <rect x="2150" y="1900" width="280" height="100" rx="4" fill="#111111"/>
  <text x="2290" y="1950" text-anchor="middle" class="metric-value">____x</text>
  <text x="2290" y="1980" text-anchor="middle" class="metric-label">ROAS</text>

  <!-- Monthly tracker -->
  <rect x="100" y="2040" width="2350" height="40" rx="0" fill="#111111"/>
  <text x="220" y="2066" text-anchor="middle" class="body-bold">MONTH</text>
  <text x="480" y="2066" text-anchor="middle" class="body-bold">REVENUE</text>
  <text x="740" y="2066" text-anchor="middle" class="body-bold">AD SPEND</text>
  <text x="1000" y="2066" text-anchor="middle" class="body-bold">COGS</text>
  <text x="1260" y="2066" text-anchor="middle" class="body-bold">PROFIT</text>
  <text x="1520" y="2066" text-anchor="middle" class="body-bold">ORDERS</text>
  <text x="1780" y="2066" text-anchor="middle" class="body-bold">AOV</text>
  <text x="2040" y="2066" text-anchor="middle" class="body-bold">ROAS</text>
  <text x="2320" y="2066" text-anchor="middle" class="body-bold">NOTES</text>

  <line x1="100" y1="2080" x2="2450" y2="2080" stroke="#333333" stroke-width="0.5"/>
  <text x="220" y="2108" text-anchor="middle" class="body">Month 1</text>
  <text x="480" y="2108" text-anchor="middle" class="body">$_____</text>
  <text x="740" y="2108" text-anchor="middle" class="body">$_____</text>
  <text x="1000" y="2108" text-anchor="middle" class="body">$_____</text>
  <text x="1260" y="2108" text-anchor="middle" class="body">$_____</text>
  <text x="1520" y="2108" text-anchor="middle" class="body">____</text>
  <text x="1780" y="2108" text-anchor="middle" class="body">$____</text>
  <text x="2040" y="2108" text-anchor="middle" class="body">____x</text>

  <line x1="100" y1="2125" x2="2450" y2="2125" stroke="#222222" stroke-width="0.5"/>
  <text x="220" y="2153" text-anchor="middle" class="body">Month 2</text>
  <text x="480" y="2153" text-anchor="middle" class="body">$_____</text>
  <text x="740" y="2153" text-anchor="middle" class="body">$_____</text>
  <text x="1000" y="2153" text-anchor="middle" class="body">$_____</text>
  <text x="1260" y="2153" text-anchor="middle" class="body">$_____</text>
  <text x="1520" y="2153" text-anchor="middle" class="body">____</text>
  <text x="1780" y="2153" text-anchor="middle" class="body">$____</text>
  <text x="2040" y="2153" text-anchor="middle" class="body">____x</text>

  <line x1="100" y1="2170" x2="2450" y2="2170" stroke="#222222" stroke-width="0.5"/>
  <text x="220" y="2198" text-anchor="middle" class="body">Month 3</text>
  <text x="480" y="2198" text-anchor="middle" class="body">$_____</text>
  <text x="740" y="2198" text-anchor="middle" class="body">$_____</text>
  <text x="1000" y="2198" text-anchor="middle" class="body">$_____</text>
  <text x="1260" y="2198" text-anchor="middle" class="body">$_____</text>
  <text x="1520" y="2198" text-anchor="middle" class="body">____</text>
  <text x="1780" y="2198" text-anchor="middle" class="body">$____</text>
  <text x="2040" y="2198" text-anchor="middle" class="body">____x</text>

  <!-- Footer -->
  <line x1="100" y1="3200" x2="2450" y2="3200" stroke="#333333" stroke-width="0.5"/>
  <text x="1275" y="3240" text-anchor="middle" class="footer">behike.co</text>
</svg>