<?xml version="1.0" encoding="UTF-8"?>
<svg xmlns="http://www.w3.org/2000/svg" viewBox="0 0 2400 1800" width="2400" height="1800">
  <defs>
    <style>
      text { font-family: 'Helvetica Neue', Helvetica, Arial, sans-serif; fill: #fff; }
      .title { font-size: 32px; font-weight: bold; letter-spacing: 4px; }
      .subtitle { font-size: 18px; fill: #999; letter-spacing: 2px; }
      .section-title { font-size: 20px; font-weight: bold; letter-spacing: 2px; }
      .label { font-size: 14px; }
      .label-sm { font-size: 12px; fill: #999; }
      .label-xs { font-size: 11px; fill: #999; }
      .node-text { font-size: 13px; }
      .highlight { fill: #fff; }
      .dim { fill: #999; }
      .check { font-size: 13px; fill: #999; }
    </style>
  </defs>

  <!-- BACKGROUND -->
  <rect width="2400" height="1800" fill="#000"/>

  <!-- BORDER -->
  <rect x="20" y="20" width="2360" height="1760" fill="none" stroke="#333" stroke-width="1"/>
  <rect x="25" y="25" width="2350" height="1750" fill="none" stroke="#222" stroke-width="0.5"/>

  <!-- ============================================ -->
  <!-- TITLE -->
  <!-- ============================================ -->
  <text x="1200" y="75" text-anchor="middle" class="title">FACEBOOK MARKETPLACE BLUEPRINT</text>
  <line x1="400" y1="90" x2="2000" y2="90" stroke="#333" stroke-width="0.5"/>
  <text x="1200" y="115" text-anchor="middle" class="subtitle">Local selling at scale</text>
  <line x1="500" y1="130" x2="1900" y2="130" stroke="#222" stroke-width="0.5"/>

  <!-- ============================================ -->
  <!-- SECTION 1: ACCOUNT SETUP (top-left) -->
  <!-- ============================================ -->
  <rect x="50" y="160" width="740" height="440" fill="none" stroke="#333" stroke-width="1" rx="3"/>
  <text x="70" y="190" class="section-title">01 / ACCOUNT SETUP</text>
  <line x1="70" y1="200" x2="770" y2="200" stroke="#444" stroke-width="0.5"/>

  <!-- Tree root -->
  <rect x="100" y="225" width="200" height="32" fill="none" stroke="#fff" stroke-width="1.5" rx="2"/>
  <text x="200" y="246" text-anchor="middle" class="node-text">FB ACCOUNT</text>

  <!-- Branches -->
  <line x1="200" y1="257" x2="200" y2="275" stroke="#666" stroke-width="1"/>
  <line x1="120" y1="275" x2="450" y2="275" stroke="#666" stroke-width="1"/>

  <!-- Branch 1: Marketplace Access -->
  <line x1="140" y1="275" x2="140" y2="295" stroke="#666" stroke-width="1"/>
  <rect x="70" y="295" width="180" height="28" fill="none" stroke="#999" stroke-width="1" rx="2"/>
  <text x="160" y="314" text-anchor="middle" class="label-sm">Marketplace Access</text>

  <!-- Branch 2: Business Page -->
  <line x1="260" y1="275" x2="260" y2="295" stroke="#666" stroke-width="1"/>
  <rect x="185" y="295" width="180" height="28" fill="none" stroke="#999" stroke-width="1" rx="2"/>
  <text x="275" y="314" text-anchor="middle" class="label-sm">Business Page (opt)</text>

  <!-- Branch 3: Payment Setup -->
  <line x1="380" y1="275" x2="380" y2="295" stroke="#666" stroke-width="1"/>
  <rect x="310" y="295" width="160" height="28" fill="none" stroke="#999" stroke-width="1" rx="2"/>
  <text x="390" y="314" text-anchor="middle" class="label-sm">Payment Setup</text>

  <!-- Branch 4: Shipping Labels -->
  <line x1="450" y1="275" x2="530" y2="295" stroke="#666" stroke-width="1"/>
  <rect x="470" y="295" width="180" height="28" fill="none" stroke="#999" stroke-width="1" rx="2"/>
  <text x="560" y="314" text-anchor="middle" class="label-sm">Shipping Labels</text>

  <!-- Account Warming Section -->
  <line x1="100" y1="345" x2="740" y2="345" stroke="#222" stroke-width="0.5" stroke-dasharray="4,4"/>
  <text x="100" y="375" class="label" fill="#fff">ACCOUNT WARMING</text>
  <text x="100" y="395" class="label-sm">Post personal items first</text>
  <text x="100" y="415" class="label-sm">Build trust score with buyers</text>
  <text x="100" y="435" class="label-sm">Complete profile, add photo</text>
  <text x="100" y="455" class="label-sm">Get positive ratings early</text>

  <!-- Multiple Accounts -->
  <line x1="420" y1="355" x2="420" y2="470" stroke="#222" stroke-width="0.5"/>
  <text x="440" y="375" class="label" fill="#fff">MULTI-ACCOUNT (careful)</text>
  <text x="440" y="395" class="label-sm">Different devices per account</text>
  <text x="440" y="415" class="label-sm">Different IP addresses</text>
  <text x="440" y="435" class="label-sm">Unique phone numbers</text>
  <text x="440" y="455" class="label-sm">Never cross-link accounts</text>

  <!-- Warning box -->
  <rect x="100" y="475" width="620" height="30" fill="none" stroke="#666" stroke-width="1" rx="2"/>
  <text x="410" y="495" text-anchor="middle" class="label-sm" fill="#999">NEW ACCOUNTS: 5 listings/day first week. 10/day second week. Scale from there.</text>

  <!-- Bezier from Section 1 to Section 3 -->
  <path d="M 420 600 C 420 640, 420 640, 420 660" stroke="#333" stroke-width="0.5" fill="none"/>

  <!-- ============================================ -->
  <!-- SECTION 2: PRODUCT SOURCING (top-right) -->
  <!-- ============================================ -->
  <rect x="830" y="160" width="740" height="440" fill="none" stroke="#333" stroke-width="1" rx="3"/>
  <text x="850" y="190" class="section-title">02 / PRODUCT SOURCING</text>
  <line x1="850" y1="200" x2="1550" y2="200" stroke="#444" stroke-width="0.5"/>

  <!-- Hub center -->
  <circle cx="1200" cy="350" r="45" fill="none" stroke="#fff" stroke-width="1.5"/>
  <text x="1200" y="346" text-anchor="middle" class="label" fill="#fff">SOURCE</text>
  <text x="1200" y="362" text-anchor="middle" class="label-xs">PRODUCTS</text>

  <!-- Spoke 1: Amazon -->
  <line x1="1200" y1="305" x2="1200" y2="240" stroke="#666" stroke-width="1"/>
  <rect x="1135" y="220" width="130" height="26" fill="none" stroke="#999" stroke-width="1" rx="2"/>
  <text x="1200" y="238" text-anchor="middle" class="label-sm">Amazon</text>
  <text x="1200" y="215" text-anchor="middle" class="label-xs">retail arbitrage</text>

  <!-- Spoke 2: Walmart -->
  <line x1="1155" y1="320" x2="1020" y2="260" stroke="#666" stroke-width="1"/>
  <rect x="930" y="240" width="130" height="26" fill="none" stroke="#999" stroke-width="1" rx="2"/>
  <text x="995" y="258" text-anchor="middle" class="label-sm">Walmart</text>
  <text x="995" y="232" text-anchor="middle" class="label-xs">clearance + online</text>

  <!-- Spoke 3: AliExpress -->
  <line x1="1155" y1="375" x2="1020" y2="420" stroke="#666" stroke-width="1"/>
  <rect x="900" y="410" width="150" height="26" fill="none" stroke="#999" stroke-width="1" rx="2"/>
  <text x="975" y="428" text-anchor="middle" class="label-sm">AliExpress</text>
  <text x="975" y="450" text-anchor="middle" class="label-xs">longer ship times</text>

  <!-- Spoke 4: Wholesale -->
  <line x1="1245" y1="320" x2="1380" y2="260" stroke="#666" stroke-width="1"/>
  <rect x="1330" y="240" width="170" height="26" fill="none" stroke="#999" stroke-width="1" rx="2"/>
  <text x="1415" y="258" text-anchor="middle" class="label-sm">Wholesale Suppliers</text>

  <!-- Spoke 5: Thrift stores -->
  <line x1="1245" y1="375" x2="1380" y2="420" stroke="#666" stroke-width="1"/>
  <rect x="1320" y="410" width="200" height="26" fill="none" stroke="#999" stroke-width="1" rx="2"/>
  <text x="1420" y="428" text-anchor="middle" class="label-sm">Thrift / Garage Sales</text>
  <text x="1420" y="450" text-anchor="middle" class="label-xs">local flip, highest margin</text>

  <!-- Spoke 6: Liquidation -->
  <line x1="1200" y1="395" x2="1200" y2="480" stroke="#666" stroke-width="1"/>
  <rect x="1120" y="480" width="160" height="26" fill="none" stroke="#999" stroke-width="1" rx="2"/>
  <text x="1200" y="498" text-anchor="middle" class="label-sm">Liquidation Pallets</text>

  <!-- Margin target -->
  <rect x="880" y="535" width="650" height="40" fill="none" stroke="#fff" stroke-width="1" rx="2"/>
  <text x="1205" y="560" text-anchor="middle" class="label" fill="#fff">MARGIN TARGET: 30-50% (higher than eBay due to local demand)</text>

  <!-- ============================================ -->
  <!-- SECTION 3: LISTING STRATEGY (middle-left) -->
  <!-- ============================================ -->
  <rect x="50" y="630" width="740" height="420" fill="none" stroke="#333" stroke-width="1" rx="3"/>
  <text x="70" y="660" class="section-title">03 / LISTING STRATEGY</text>
  <line x1="70" y1="670" x2="770" y2="670" stroke="#444" stroke-width="0.5"/>

  <text x="85" y="695" class="label" fill="#fff">Key differences from eBay:</text>

  <!-- Checklist items -->
  <rect x="85" y="712" width="14" height="14" fill="none" stroke="#666" stroke-width="1" rx="1"/>
  <text x="110" y="724" class="check">Title: short, keyword-rich, local language</text>

  <rect x="85" y="740" width="14" height="14" fill="none" stroke="#666" stroke-width="1" rx="1"/>
  <text x="110" y="752" class="check">Photos: lifestyle &gt; studio (FB is casual)</text>

  <rect x="85" y="768" width="14" height="14" fill="none" stroke="#666" stroke-width="1" rx="1"/>
  <text x="110" y="780" class="check">Price: slightly below retail, room to negotiate</text>

  <rect x="85" y="796" width="14" height="14" fill="none" stroke="#666" stroke-width="1" rx="1"/>
  <text x="110" y="808" class="check">Category selection matters for algorithm</text>

  <rect x="85" y="824" width="14" height="14" fill="none" stroke="#666" stroke-width="1" rx="1"/>
  <text x="110" y="836" class="check">Renew listings every 7 days (boost visibility)</text>

  <rect x="85" y="852" width="14" height="14" fill="none" stroke="#666" stroke-width="1" rx="1"/>
  <text x="110" y="864" class="check">Post in local buy/sell groups (multiplier)</text>

  <!-- Listing formula box -->
  <rect x="85" y="890" width="660" height="60" fill="none" stroke="#666" stroke-width="1" rx="2"/>
  <text x="105" y="912" class="label-sm">LISTING FORMULA:</text>
  <text x="105" y="932" class="label-xs">[Product] + [Condition] + [Size/Color] | Price firm/OBO | [City] pickup or shipped</text>

  <!-- Renewal cycle diagram -->
  <text x="85" y="980" class="label-sm">RENEWAL CYCLE:</text>
  <rect x="230" y="965" width="60" height="22" fill="none" stroke="#999" stroke-width="1" rx="2"/>
  <text x="260" y="980" text-anchor="middle" class="label-xs">Day 1</text>
  <line x1="290" y1="976" x2="320" y2="976" stroke="#666" stroke-width="1"/>
  <text x="305" y="970" class="label-xs">&gt;</text>
  <rect x="320" y="965" width="80" height="22" fill="none" stroke="#999" stroke-width="1" rx="2"/>
  <text x="360" y="980" text-anchor="middle" class="label-xs">Day 7</text>
  <line x1="400" y1="976" x2="430" y2="976" stroke="#666" stroke-width="1"/>
  <text x="415" y="970" class="label-xs">&gt;</text>
  <rect x="430" y="965" width="80" height="22" fill="none" stroke="#666" stroke-width="1" rx="2"/>
  <text x="470" y="980" text-anchor="middle" class="label-xs">Renew</text>
  <line x1="510" y1="976" x2="540" y2="976" stroke="#666" stroke-width="1"/>
  <text x="525" y="970" class="label-xs">&gt;</text>
  <rect x="540" y="965" width="80" height="22" fill="none" stroke="#999" stroke-width="1" rx="2"/>
  <text x="580" y="980" text-anchor="middle" class="label-xs">Repeat</text>

  <!-- ============================================ -->
  <!-- SECTION 4: FULFILLMENT (middle-center) -->
  <!-- ============================================ -->
  <rect x="830" y="630" width="740" height="420" fill="none" stroke="#333" stroke-width="1" rx="3"/>
  <text x="850" y="660" class="section-title">04 / FULFILLMENT</text>
  <line x1="850" y1="670" x2="1550" y2="670" stroke="#444" stroke-width="0.5"/>

  <!-- Decision diamond -->
  <polygon points="1200,700 1280,745 1200,790 1120,745" fill="none" stroke="#fff" stroke-width="1.5"/>
  <text x="1200" y="740" text-anchor="middle" class="label-xs" fill="#fff">Item &gt; $50</text>
  <text x="1200" y="755" text-anchor="middle" class="label-xs" fill="#fff">+ shippable?</text>

  <!-- YES path - right -->
  <line x1="1280" y1="745" x2="1380" y2="745" stroke="#fff" stroke-width="1"/>
  <text x="1330" y="738" class="label-xs" fill="#fff">YES</text>

  <!-- Path B: Shipped -->
  <rect x="1380" y="725" width="160" height="40" fill="none" stroke="#fff" stroke-width="1.5" rx="2"/>
  <text x="1460" y="750" text-anchor="middle" class="label" fill="#fff">PATH B: SHIP</text>

  <text x="1380" y="790" class="label-sm">FB shipping labels</text>
  <text x="1380" y="810" class="label-sm">Tracked delivery</text>
  <text x="1380" y="830" class="label-sm">Buyer protection</text>
  <text x="1380" y="850" class="label-sm">3-5 day delivery</text>
  <text x="1380" y="870" class="label-sm">Packaging matters</text>

  <!-- NO path - left -->
  <line x1="1120" y1="745" x2="1020" y2="745" stroke="#fff" stroke-width="1"/>
  <text x="1060" y="738" class="label-xs" fill="#fff">NO</text>

  <!-- Path A: Local -->
  <rect x="860" y="725" width="160" height="40" fill="none" stroke="#fff" stroke-width="1.5" rx="2"/>
  <text x="940" y="750" text-anchor="middle" class="label" fill="#fff">PATH A: LOCAL</text>

  <text x="860" y="790" class="label-sm">No shipping cost</text>
  <text x="860" y="810" class="label-sm">Instant cash</text>
  <text x="860" y="830" class="label-sm">Meet at safe location</text>
  <text x="860" y="850" class="label-sm">Police station lots</text>
  <text x="860" y="870" class="label-sm">Daytime meets only</text>

  <!-- Pro tip -->
  <rect x="880" y="900" width="640" height="45" fill="none" stroke="#666" stroke-width="1" rx="2"/>
  <text x="900" y="918" class="label-sm">PRO TIP: Start local-only. Add shipping after 20+ sales and</text>
  <text x="900" y="935" class="label-sm">positive reviews. Reduces risk and builds reputation faster.</text>

  <!-- Bezier connector from Section 2 to Section 4 -->
  <path d="M 1200 600 C 1200 615, 1200 620, 1200 630" stroke="#333" stroke-width="0.5" fill="none"/>

  <!-- ============================================ -->
  <!-- SECTION 5: SCALING TACTICS (top-right area, shifted) -->
  <!-- ============================================ -->
  <rect x="1610" y="160" width="740" height="440" fill="none" stroke="#333" stroke-width="1" rx="3"/>
  <text x="1630" y="190" class="section-title">05 / SCALING TACTICS</text>
  <line x1="1630" y1="200" x2="2330" y2="200" stroke="#444" stroke-width="0.5"/>

  <!-- Scaling items with small node indicators -->
  <circle cx="1650" cy="230" r="4" fill="#fff"/>
  <text x="1670" y="235" class="label">Cross-post to multiple zip codes</text>
  <text x="1690" y="253" class="label-xs">Use different pickup locations to reach more buyers</text>

  <circle cx="1650" cy="278" r="4" fill="#fff"/>
  <text x="1670" y="283" class="label">Join 20+ buy/sell groups</text>
  <text x="1690" y="301" class="label-xs">Local, niche, and category-specific groups</text>

  <circle cx="1650" cy="326" r="4" fill="#fff"/>
  <text x="1670" y="331" class="label">Repost every 5-7 days</text>
  <text x="1690" y="349" class="label-xs">Delete and relist for fresh algorithm boost</text>

  <circle cx="1650" cy="374" r="4" fill="#fff"/>
  <text x="1670" y="379" class="label">Seasonal trending</text>
  <text x="1690" y="397" class="label-xs">Holidays, back to school, summer, tax refund season</text>

  <circle cx="1650" cy="422" r="4" fill="#fff"/>
  <text x="1670" y="427" class="label">Bundle deals</text>
  <text x="1690" y="445" class="label-xs">"Buy 2, get 10% off" - increases average order value</text>

  <circle cx="1650" cy="470" r="4" fill="#fff"/>
  <text x="1670" y="475" class="label">"ISO" posts to find demand</text>
  <text x="1690" y="493" class="label-xs">In Search Of posts reveal what buyers want</text>

  <!-- Growth curve -->
  <text x="1650" y="530" class="label-sm">GROWTH TRAJECTORY:</text>
  <path d="M 1650 570 Q 1750 568, 1850 555 Q 1950 540, 2050 510 Q 2150 480, 2300 440" stroke="#fff" stroke-width="1" fill="none"/>
  <text x="1660" y="585" class="label-xs">Week 1</text>
  <text x="1850" y="550" class="label-xs">Month 1</text>
  <text x="2100" y="500" class="label-xs">Month 3</text>
  <line x1="1650" y1="575" x2="1650" y2="440" stroke="#333" stroke-width="0.5"/>
  <line x1="1650" y1="575" x2="2320" y2="575" stroke="#333" stroke-width="0.5"/>

  <!-- ============================================ -->
  <!-- SECTION 6: AVOIDING BANS (bottom-left) -->
  <!-- ============================================ -->
  <rect x="50" y="1080" width="740" height="440" fill="none" stroke="#333" stroke-width="1" rx="3"/>
  <text x="70" y="1110" class="section-title">06 / AVOIDING BANS</text>
  <line x1="70" y1="1120" x2="770" y2="1120" stroke="#444" stroke-width="0.5"/>

  <text x="85" y="1148" class="label" fill="#fff">CRITICAL RULES:</text>

  <!-- Checkboxes -->
  <rect x="85" y="1165" width="14" height="14" fill="none" stroke="#fff" stroke-width="1" rx="1"/>
  <text x="110" y="1177" class="check">No brand names in titles</text>
  <text x="130" y="1197" class="label-xs">Use generic descriptions: "wireless earbuds" not "AirPods"</text>

  <rect x="85" y="1212" width="14" height="14" fill="none" stroke="#fff" stroke-width="1" rx="1"/>
  <text x="110" y="1224" class="check">No stock photos</text>
  <text x="130" y="1244" class="label-xs">Take your own or use supplier lifestyle images</text>

  <rect x="85" y="1259" width="14" height="14" fill="none" stroke="#fff" stroke-width="1" rx="1"/>
  <text x="110" y="1271" class="check">Don't list prohibited items</text>
  <text x="130" y="1291" class="label-xs">No weapons, supplements, alcohol, tobacco, animals</text>

  <rect x="85" y="1306" width="14" height="14" fill="none" stroke="#fff" stroke-width="1" rx="1"/>
  <text x="110" y="1318" class="check">Warm up new accounts slowly</text>
  <text x="130" y="1338" class="label-xs">5 items/day first week, scale gradually</text>

  <rect x="85" y="1353" width="14" height="14" fill="none" stroke="#fff" stroke-width="1" rx="1"/>
  <text x="110" y="1365" class="check">No automation bots on FB</text>
  <text x="130" y="1385" class="label-xs">Manual listing only. FB detects bots aggressively.</text>

  <rect x="85" y="1400" width="14" height="14" fill="none" stroke="#fff" stroke-width="1" rx="1"/>
  <text x="110" y="1412" class="check">Respond within 1 hour</text>
  <text x="130" y="1432" class="label-xs">Response time affects ranking and badge status</text>

  <!-- Ban recovery -->
  <rect x="85" y="1455" width="660" height="45" fill="none" stroke="#666" stroke-width="1" rx="2"/>
  <text x="105" y="1475" class="label-sm">IF BANNED: Appeal immediately. Create new account on different</text>
  <text x="105" y="1492" class="label-sm">device/IP. Never reuse same photos or descriptions.</text>

  <!-- ============================================ -->
  <!-- SECTION 7: MONEY FLOW (bottom-center) -->
  <!-- ============================================ -->
  <rect x="830" y="1080" width="740" height="440" fill="none" stroke="#333" stroke-width="1" rx="3"/>
  <text x="850" y="1110" class="section-title">07 / MONEY FLOW</text>
  <line x1="850" y1="1120" x2="1550" y2="1120" stroke="#444" stroke-width="0.5"/>

  <!-- Payment funnel -->
  <rect x="900" y="1145" width="140" height="35" fill="none" stroke="#fff" stroke-width="1.5" rx="2"/>
  <text x="970" y="1168" text-anchor="middle" class="label" fill="#fff">SALE</text>

  <path d="M 1040 1162 C 1060 1162, 1070 1162, 1090 1162" stroke="#fff" stroke-width="1" fill="none"/>
  <polygon points="1088,1157 1098,1162 1088,1167" fill="#fff"/>

  <rect x="1100" y="1140" width="220" height="45" fill="none" stroke="#999" stroke-width="1" rx="2"/>
  <text x="1210" y="1160" text-anchor="middle" class="label-sm">FB PAYMENT HOLD</text>
  <text x="1210" y="1177" text-anchor="middle" class="label-xs">5-20 days (new sellers)</text>

  <path d="M 1320 1162 C 1340 1162, 1350 1162, 1370 1162" stroke="#fff" stroke-width="1" fill="none"/>
  <polygon points="1368,1157 1378,1162 1368,1167" fill="#fff"/>

  <rect x="1380" y="1145" width="160" height="35" fill="none" stroke="#fff" stroke-width="1.5" rx="2"/>
  <text x="1460" y="1168" text-anchor="middle" class="label" fill="#fff">BANK ACCOUNT</text>

  <!-- Cash flow split -->
  <text x="900" y="1220" class="label" fill="#fff">CASH FLOW MANAGEMENT:</text>

  <!-- Reinvest bar -->
  <rect x="900" y="1240" width="462" height="30" fill="none" stroke="#fff" stroke-width="1" rx="2"/>
  <text x="1131" y="1260" text-anchor="middle" class="label-sm" fill="#fff">REINVEST 70%</text>
  <rect x="900" y="1240" width="462" height="30" fill="#111" stroke="#fff" stroke-width="1" rx="2"/>
  <text x="1131" y="1260" text-anchor="middle" class="label-sm" fill="#fff">REINVEST 70%</text>

  <!-- Profit bar -->
  <rect x="1370" y="1240" width="198" height="30" fill="none" stroke="#999" stroke-width="1" rx="2"/>
  <text x="1469" y="1260" text-anchor="middle" class="label-sm">PROFIT 30%</text>

  <!-- Tax tracking -->
  <text x="900" y="1305" class="label" fill="#fff">TAX TRACKING:</text>
  <text x="900" y="1325" class="label-sm">1099-K threshold: $600+ in annual sales</text>
  <text x="900" y="1345" class="label-sm">Track all expenses as deductions</text>
  <text x="900" y="1365" class="label-sm">Mileage for local pickups/sourcing</text>
  <text x="900" y="1385" class="label-sm">Home office deduction if applicable</text>

  <!-- Revenue tracker table -->
  <text x="900" y="1420" class="label" fill="#fff">REVENUE TRACKER:</text>

  <!-- Table header -->
  <line x1="900" y1="1430" x2="1540" y2="1430" stroke="#666" stroke-width="1"/>
  <text x="920" y="1448" class="label-xs">WEEK</text>
  <text x="1020" y="1448" class="label-xs">LISTED</text>
  <text x="1120" y="1448" class="label-xs">SOLD</text>
  <text x="1220" y="1448" class="label-xs">REVENUE</text>
  <text x="1340" y="1448" class="label-xs">PROFIT</text>
  <text x="1450" y="1448" class="label-xs">MARGIN</text>
  <line x1="900" y1="1455" x2="1540" y2="1455" stroke="#444" stroke-width="0.5"/>

  <!-- Table rows -->
  <text x="920" y="1472" class="label-xs">1</text>
  <text x="1020" y="1472" class="label-xs">___</text>
  <text x="1120" y="1472" class="label-xs">___</text>
  <text x="1220" y="1472" class="label-xs">$___</text>
  <text x="1340" y="1472" class="label-xs">$___</text>
  <text x="1450" y="1472" class="label-xs">___%</text>

  <text x="920" y="1490" class="label-xs">2</text>
  <text x="1020" y="1490" class="label-xs">___</text>
  <text x="1120" y="1490" class="label-xs">___</text>
  <text x="1220" y="1490" class="label-xs">$___</text>
  <text x="1340" y="1490" class="label-xs">$___</text>
  <text x="1450" y="1490" class="label-xs">___%</text>

  <text x="920" y="1508" class="label-xs">3</text>
  <text x="1020" y="1508" class="label-xs">___</text>
  <text x="1120" y="1508" class="label-xs">___</text>
  <text x="1220" y="1508" class="label-xs">$___</text>
  <text x="1340" y="1508" class="label-xs">$___</text>
  <text x="1450" y="1508" class="label-xs">___%</text>

  <line x1="900" y1="1515" x2="1540" y2="1515" stroke="#444" stroke-width="0.5"/>

  <!-- ============================================ -->
  <!-- SECTION 8: DAILY SCHEDULE (middle-right, shifted to bottom-right) -->
  <!-- ============================================ -->
  <rect x="1610" y="630" width="740" height="420" fill="none" stroke="#333" stroke-width="1" rx="3"/>
  <text x="1630" y="660" class="section-title">08 / DAILY SCHEDULE</text>
  <line x1="1630" y1="670" x2="2330" y2="670" stroke="#444" stroke-width="0.5"/>

  <!-- MORNING -->
  <rect x="1640" y="690" width="100" height="28" fill="none" stroke="#fff" stroke-width="1.5" rx="2"/>
  <text x="1690" y="709" text-anchor="middle" class="label" fill="#fff">AM</text>
  <line x1="1740" y1="704" x2="1780" y2="704" stroke="#666" stroke-width="1"/>

  <rect x="1780" y="685" width="14" height="14" fill="none" stroke="#666" stroke-width="1" rx="1"/>
  <text x="1805" y="697" class="check">Check messages + inquiries</text>

  <rect x="1780" y="710" width="14" height="14" fill="none" stroke="#666" stroke-width="1" rx="1"/>
  <text x="1805" y="722" class="check">Process pending orders</text>

  <rect x="1780" y="735" width="14" height="14" fill="none" stroke="#666" stroke-width="1" rx="1"/>
  <text x="1805" y="747" class="check">Source 5 new items</text>

  <!-- AFTERNOON -->
  <rect x="1640" y="780" width="100" height="28" fill="none" stroke="#fff" stroke-width="1.5" rx="2"/>
  <text x="1690" y="799" text-anchor="middle" class="label" fill="#fff">PM</text>
  <line x1="1740" y1="794" x2="1780" y2="794" stroke="#666" stroke-width="1"/>

  <rect x="1780" y="775" width="14" height="14" fill="none" stroke="#666" stroke-width="1" rx="1"/>
  <text x="1805" y="787" class="check">List 10 new items</text>

  <rect x="1780" y="800" width="14" height="14" fill="none" stroke="#666" stroke-width="1" rx="1"/>
  <text x="1805" y="812" class="check">Renew old listings (7+ days)</text>

  <rect x="1780" y="825" width="14" height="14" fill="none" stroke="#666" stroke-width="1" rx="1"/>
  <text x="1805" y="837" class="check">Post in buy/sell groups</text>

  <rect x="1780" y="850" width="14" height="14" fill="none" stroke="#666" stroke-width="1" rx="1"/>
  <text x="1805" y="862" class="check">Check competitor prices</text>

  <!-- EVENING -->
  <rect x="1640" y="895" width="100" height="28" fill="none" stroke="#fff" stroke-width="1.5" rx="2"/>
  <text x="1690" y="914" text-anchor="middle" class="label" fill="#fff">EVE</text>
  <line x1="1740" y1="909" x2="1780" y2="909" stroke="#666" stroke-width="1"/>

  <rect x="1780" y="890" width="14" height="14" fill="none" stroke="#666" stroke-width="1" rx="1"/>
  <text x="1805" y="902" class="check">Respond to late inquiries</text>

  <rect x="1780" y="915" width="14" height="14" fill="none" stroke="#666" stroke-width="1" rx="1"/>
  <text x="1805" y="927" class="check">Schedule next day posts</text>

  <rect x="1780" y="940" width="14" height="14" fill="none" stroke="#666" stroke-width="1" rx="1"/>
  <text x="1805" y="952" class="check">Review day's metrics</text>

  <!-- Daily target box -->
  <rect x="1640" y="975" width="680" height="50" fill="none" stroke="#fff" stroke-width="1" rx="2"/>
  <text x="1980" y="998" text-anchor="middle" class="label" fill="#fff">DAILY TARGET: 10 new listings, 5 renewed, 100% message response</text>
  <text x="1980" y="1015" text-anchor="middle" class="label-xs">Consistency beats intensity. Show up every day.</text>

  <!-- ============================================ -->
  <!-- BOTTOM-RIGHT: QUICK REFERENCE -->
  <!-- ============================================ -->
  <rect x="1610" y="1080" width="740" height="440" fill="none" stroke="#333" stroke-width="1" rx="3"/>
  <text x="1630" y="1110" class="section-title">QUICK REFERENCE</text>
  <line x1="1630" y1="1120" x2="2330" y2="1120" stroke="#444" stroke-width="0.5"/>

  <!-- Winning categories -->
  <text x="1640" y="1150" class="label" fill="#fff">TOP CATEGORIES ON FB MARKETPLACE:</text>

  <text x="1660" y="1175" class="label-sm">01. Electronics (phones, tablets, laptops)</text>
  <text x="1660" y="1195" class="label-sm">02. Furniture (local pickup = no shipping)</text>
  <text x="1660" y="1215" class="label-sm">03. Baby / kids items (always in demand)</text>
  <text x="1660" y="1235" class="label-sm">04. Home decor (seasonal spikes)</text>
  <text x="1660" y="1255" class="label-sm">05. Tools / outdoor equipment</text>
  <text x="1660" y="1275" class="label-sm">06. Clothing (branded, seasonal)</text>
  <text x="1660" y="1295" class="label-sm">07. Automotive parts / accessories</text>
  <text x="1660" y="1315" class="label-sm">08. Sports / fitness equipment</text>

  <!-- Response templates -->
  <text x="1640" y="1355" class="label" fill="#fff">MESSAGE TEMPLATES:</text>
  <rect x="1640" y="1368" width="680" height="28" fill="none" stroke="#444" stroke-width="0.5" rx="2"/>
  <text x="1660" y="1387" class="label-xs">"Hi! Yes, still available. When works best for pickup?"</text>
  <rect x="1640" y="1400" width="680" height="28" fill="none" stroke="#444" stroke-width="0.5" rx="2"/>
  <text x="1660" y="1419" class="label-xs">"I can do [price] if you can pick up today."</text>
  <rect x="1640" y="1432" width="680" height="28" fill="none" stroke="#444" stroke-width="0.5" rx="2"/>
  <text x="1660" y="1451" class="label-xs">"Shipped items include tracking. I'll send it within 24hrs."</text>

  <!-- Key metrics -->
  <text x="1640" y="1490" class="label" fill="#fff">KEY METRICS TO TRACK:</text>
  <text x="1660" y="1510" class="label-sm">Views per listing  |  Messages received  |  Sell-through rate</text>

  <!-- ============================================ -->
  <!-- GLOBAL CONNECTORS (Bezier curves) -->
  <!-- ============================================ -->

  <!-- Section 1 to Section 6 -->
  <path d="M 420 600 C 420 840, 420 840, 420 1080" stroke="#222" stroke-width="0.5" fill="none" stroke-dasharray="6,4"/>

  <!-- Section 2 to Section 5 -->
  <path d="M 1550 380 C 1580 380, 1590 380, 1610 380" stroke="#222" stroke-width="0.5" fill="none" stroke-dasharray="6,4"/>

  <!-- Section 4 to Section 7 -->
  <path d="M 1200 1050 C 1200 1060, 1200 1070, 1200 1080" stroke="#222" stroke-width="0.5" fill="none" stroke-dasharray="6,4"/>

  <!-- Section 5 to Section 8 -->
  <path d="M 1980 600 C 1980 610, 1980 620, 1980 630" stroke="#222" stroke-width="0.5" fill="none" stroke-dasharray="6,4"/>

  <!-- ============================================ -->
  <!-- FOOTER -->
  <!-- ============================================ -->
  <line x1="50" y1="1550" x2="2350" y2="1550" stroke="#222" stroke-width="0.5"/>
  <text x="1200" y="1575" text-anchor="middle" class="label-xs">FACEBOOK MARKETPLACE DROPSHIPPING BLUEPRINT  |  behike.co</text>
  <text x="1200" y="1595" text-anchor="middle" class="label-xs">Start local. Scale shipped. Reinvest profits. Stay consistent.</text>

  <!-- Corner marks -->
  <line x1="40" y1="40" x2="60" y2="40" stroke="#444" stroke-width="1"/>
  <line x1="40" y1="40" x2="40" y2="60" stroke="#444" stroke-width="1"/>
  <line x1="2340" y1="40" x2="2360" y2="40" stroke="#444" stroke-width="1"/>
  <line x1="2360" y1="40" x2="2360" y2="60" stroke="#444" stroke-width="1"/>
  <line x1="40" y1="1760" x2="60" y2="1760" stroke="#444" stroke-width="1"/>
  <line x1="40" y1="1740" x2="40" y2="1760" stroke="#444" stroke-width="1"/>
  <line x1="2340" y1="1760" x2="2360" y2="1760" stroke="#444" stroke-width="1"/>
  <line x1="2360" y1="1740" x2="2360" y2="1760" stroke="#444" stroke-width="1"/>

</svg>