<?xml version="1.0" encoding="UTF-8"?>
<svg xmlns="http://www.w3.org/2000/svg" viewBox="0 0 2550 3300" width="2550" height="3300">
  <defs>
    <style>
      text {
        font-family: 'Helvetica Neue', 'Helvetica', 'Arial', sans-serif;
        fill: #FFFFFF;
      }
      .hero {
        font-size: 54px;
        font-weight: 700;
        letter-spacing: 12px;
        text-transform: uppercase;
      }
      .hero-sub {
        font-size: 22px;
        font-weight: 300;
        fill: #C9A84C;
        letter-spacing: 6px;
        text-transform: uppercase;
      }
      .section-title {
        font-size: 28px;
        font-weight: 700;
        letter-spacing: 6px;
        text-transform: uppercase;
        fill: #C9A84C;
      }
      .week-label {
        font-size: 16px;
        font-weight: 300;
        letter-spacing: 4px;
        text-transform: uppercase;
        fill: #888888;
      }
      .checklist {
        font-size: 18px;
        font-weight: 400;
        fill: #CCCCCC;
      }
      .checklist-bold {
        font-size: 18px;
        font-weight: 600;
        fill: #FFFFFF;
      }
      .body {
        font-size: 16px;
        font-weight: 400;
        fill: #CCCCCC;
      }
      .body-small {
        font-size: 14px;
        font-weight: 300;
        fill: #999999;
      }
      .label {
        font-size: 12px;
        font-weight: 500;
        letter-spacing: 3px;
        text-transform: uppercase;
        fill: #888888;
      }
      .teaser-title {
        font-size: 22px;
        font-weight: 700;
        letter-spacing: 4px;
        text-transform: uppercase;
        fill: #C9A84C;
      }
      .teaser-item {
        font-size: 15px;
        font-weight: 400;
        fill: #666666;
      }
      .teaser-item-unlocked {
        font-size: 15px;
        font-weight: 500;
        fill: #C9A84C;
      }
      .tracker-header {
        font-size: 14px;
        font-weight: 600;
        letter-spacing: 2px;
        text-transform: uppercase;
        fill: #C9A84C;
      }
      .tracker-label {
        font-size: 13px;
        font-weight: 400;
        fill: #999999;
      }
      .tracker-value {
        font-size: 20px;
        font-weight: 700;
        fill: #FFFFFF;
      }
      .footer {
        font-size: 14px;
        font-weight: 400;
        fill: #666666;
        letter-spacing: 2px;
      }
      .footer-bold {
        font-size: 14px;
        font-weight: 600;
        fill: #C9A84C;
        letter-spacing: 2px;
      }
      .cta {
        font-size: 18px;
        font-weight: 700;
        fill: #000000;
        letter-spacing: 3px;
        text-transform: uppercase;
      }
      .box {
        stroke: #333333;
        stroke-width: 1;
        fill: none;
      }
      .box-gold {
        stroke: #C9A84C;
        stroke-width: 1.5;
        fill: none;
      }
      .box-filled {
        fill: #111111;
        stroke: #333333;
        stroke-width: 1;
      }
      .line-thin {
        stroke: #333333;
        stroke-width: 1;
        fill: none;
      }
      .line-gold {
        stroke: #C9A84C;
        stroke-width: 1;
        fill: none;
      }
      .line-dashed {
        stroke: #444444;
        stroke-width: 1;
        fill: none;
        stroke-dasharray: 6 4;
      }
      .checkbox-box {
        stroke: #555555;
        stroke-width: 1.5;
        fill: none;
        rx: 2;
        ry: 2;
      }
    </style>
  </defs>

  <!-- Background -->
  <rect width="2550" height="3300" fill="#000000"/>

  <!-- Subtle grid pattern -->
  <g opacity="0.03">
    <line x1="0" y1="0" x2="0" y2="3300" stroke="#FFFFFF" stroke-width="1" id="vgrid"/>
    <!-- Vertical grid lines every 50px -->
    <line x1="150" y1="0" x2="150" y2="3300" stroke="#FFFFFF" stroke-width="0.5"/>
    <line x1="300" y1="0" x2="300" y2="3300" stroke="#FFFFFF" stroke-width="0.5"/>
    <line x1="450" y1="0" x2="450" y2="3300" stroke="#FFFFFF" stroke-width="0.5"/>
    <line x1="600" y1="0" x2="600" y2="3300" stroke="#FFFFFF" stroke-width="0.5"/>
    <line x1="750" y1="0" x2="750" y2="3300" stroke="#FFFFFF" stroke-width="0.5"/>
    <line x1="900" y1="0" x2="900" y2="3300" stroke="#FFFFFF" stroke-width="0.5"/>
    <line x1="1050" y1="0" x2="1050" y2="3300" stroke="#FFFFFF" stroke-width="0.5"/>
    <line x1="1200" y1="0" x2="1200" y2="3300" stroke="#FFFFFF" stroke-width="0.5"/>
    <line x1="1350" y1="0" x2="1350" y2="3300" stroke="#FFFFFF" stroke-width="0.5"/>
    <line x1="1500" y1="0" x2="1500" y2="3300" stroke="#FFFFFF" stroke-width="0.5"/>
    <line x1="1650" y1="0" x2="1650" y2="3300" stroke="#FFFFFF" stroke-width="0.5"/>
    <line x1="1800" y1="0" x2="1800" y2="3300" stroke="#FFFFFF" stroke-width="0.5"/>
    <line x1="1950" y1="0" x2="1950" y2="3300" stroke="#FFFFFF" stroke-width="0.5"/>
    <line x1="2100" y1="0" x2="2100" y2="3300" stroke="#FFFFFF" stroke-width="0.5"/>
    <line x1="2250" y1="0" x2="2250" y2="3300" stroke="#FFFFFF" stroke-width="0.5"/>
    <line x1="2400" y1="0" x2="2400" y2="3300" stroke="#FFFFFF" stroke-width="0.5"/>
    <!-- Horizontal grid lines every 50px (sparse) -->
    <line x1="0" y1="150" x2="2550" y2="150" stroke="#FFFFFF" stroke-width="0.5"/>
    <line x1="0" y1="300" x2="2550" y2="300" stroke="#FFFFFF" stroke-width="0.5"/>
    <line x1="0" y1="450" x2="2550" y2="450" stroke="#FFFFFF" stroke-width="0.5"/>
    <line x1="0" y1="600" x2="2550" y2="600" stroke="#FFFFFF" stroke-width="0.5"/>
    <line x1="0" y1="750" x2="2550" y2="750" stroke="#FFFFFF" stroke-width="0.5"/>
    <line x1="0" y1="900" x2="2550" y2="900" stroke="#FFFFFF" stroke-width="0.5"/>
    <line x1="0" y1="1050" x2="2550" y2="1050" stroke="#FFFFFF" stroke-width="0.5"/>
    <line x1="0" y1="1200" x2="2550" y2="1200" stroke="#FFFFFF" stroke-width="0.5"/>
    <line x1="0" y1="1350" x2="2550" y2="1350" stroke="#FFFFFF" stroke-width="0.5"/>
    <line x1="0" y1="1500" x2="2550" y2="1500" stroke="#FFFFFF" stroke-width="0.5"/>
    <line x1="0" y1="1650" x2="2550" y2="1650" stroke="#FFFFFF" stroke-width="0.5"/>
    <line x1="0" y1="1800" x2="2550" y2="1800" stroke="#FFFFFF" stroke-width="0.5"/>
    <line x1="0" y1="1950" x2="2550" y2="1950" stroke="#FFFFFF" stroke-width="0.5"/>
    <line x1="0" y1="2100" x2="2550" y2="2100" stroke="#FFFFFF" stroke-width="0.5"/>
    <line x1="0" y1="2250" x2="2550" y2="2250" stroke="#FFFFFF" stroke-width="0.5"/>
    <line x1="0" y1="2400" x2="2550" y2="2400" stroke="#FFFFFF" stroke-width="0.5"/>
    <line x1="0" y1="2550" x2="2550" y2="2550" stroke="#FFFFFF" stroke-width="0.5"/>
    <line x1="0" y1="2700" x2="2550" y2="2700" stroke="#FFFFFF" stroke-width="0.5"/>
    <line x1="0" y1="2850" x2="2550" y2="2850" stroke="#FFFFFF" stroke-width="0.5"/>
    <line x1="0" y1="3000" x2="2550" y2="3000" stroke="#FFFFFF" stroke-width="0.5"/>
    <line x1="0" y1="3150" x2="2550" y2="3150" stroke="#FFFFFF" stroke-width="0.5"/>
  </g>

  <!-- ===== HEADER SECTION ===== -->

  <!-- Top border accent -->
  <rect x="0" y="0" width="2550" height="4" fill="#C9A84C"/>

  <!-- Brand mark top-left -->
  <text x="120" y="80" class="label" style="fill:#C9A84C; letter-spacing:5px;">BEHIKE.CO</text>

  <!-- FREE badge top-right -->
  <rect x="2120" y="50" width="120" height="36" rx="3" fill="#C9A84C"/>
  <text x="2180" y="74" class="cta" style="font-size:14px;" text-anchor="middle">FREE</text>

  <!-- Version label -->
  <text x="2100" y="74" class="body-small" text-anchor="end" style="fill:#666666;">STARTER EDITION</text>

  <!-- Main title block -->
  <line x1="120" y1="140" x2="2430" y2="140" class="line-gold"/>

  <text x="1275" y="210" class="hero" text-anchor="middle" style="font-size:48px; letter-spacing:16px;">THE SOLOPRENEUR</text>
  <text x="1275" y="275" class="hero" text-anchor="middle" style="font-size:48px; letter-spacing:16px;">STARTER BLUEPRINT</text>

  <line x1="500" y1="300" x2="2050" y2="300" class="line-gold" style="opacity:0.4;"/>

  <text x="1275" y="345" class="hero-sub" text-anchor="middle">YOUR FIRST 30 DAYS MAPPED OUT</text>

  <line x1="120" y1="380" x2="2430" y2="380" class="line-gold"/>

  <!-- Intro text -->
  <text x="1275" y="430" class="body" text-anchor="middle" style="fill:#999999;">This blueprint gives you the exact steps to go from zero to your first online sale in 30 days.</text>
  <text x="1275" y="455" class="body" text-anchor="middle" style="fill:#999999;">Follow each week sequentially. Check off each item before moving to the next.</text>


  <!-- ===== WEEK 1: FOUNDATION ===== -->

  <g transform="translate(120, 510)">
    <!-- Week container -->
    <rect x="0" y="0" width="1100" height="520" class="box" rx="4"/>
    <rect x="0" y="0" width="1100" height="50" fill="#111111" rx="4"/>
    <rect x="0" y="46" width="1100" height="4" fill="none"/>

    <!-- Week header -->
    <text x="25" y="33" class="week-label">DAYS 1-7</text>
    <text x="200" y="33" class="section-title" style="font-size:22px;">WEEK 1: FOUNDATION</text>

    <!-- Progress bar background -->
    <rect x="830" y="15" width="240" height="20" rx="10" fill="#1a1a1a" stroke="#333333" stroke-width="1"/>
    <rect x="830" y="15" width="0" height="20" rx="10" fill="#C9A84C" opacity="0.3"/>
    <text x="950" y="30" class="body-small" text-anchor="middle" style="font-size:11px; fill:#666;">0 / 4 COMPLETE</text>

    <!-- Checklist items -->
    <g transform="translate(40, 85)">
      <rect x="0" y="0" width="20" height="20" class="checkbox-box"/>
      <text x="35" y="16" class="checklist-bold">Define your niche</text>
      <text x="35" y="38" class="body-small">Pick ONE specific audience + problem you solve. Write it in one sentence.</text>
      <text x="35" y="58" class="body-small" style="fill:#C9A84C;">Example: "I help freelancers organize their finances with simple templates."</text>
    </g>

    <line x1="40" y1="160" x2="1060" y2="160" class="line-dashed"/>

    <g transform="translate(40, 180)">
      <rect x="0" y="0" width="20" height="20" class="checkbox-box"/>
      <text x="35" y="16" class="checklist-bold">Choose your brand name</text>
      <text x="35" y="38" class="body-small">Keep it short, memorable, and available as a .com or .co domain.</text>
      <text x="35" y="58" class="body-small" style="fill:#C9A84C;">Tool: namechk.com to check availability across platforms.</text>
    </g>

    <line x1="40" y1="255" x2="1060" y2="255" class="line-dashed"/>

    <g transform="translate(40, 275)">
      <rect x="0" y="0" width="20" height="20" class="checkbox-box"/>
      <text x="35" y="16" class="checklist-bold">Register your domain</text>
      <text x="35" y="38" class="body-small">Use Namecheap, Cloudflare, or Google Domains. Budget: $10-15/year.</text>
    </g>

    <line x1="40" y1="335" x2="1060" y2="335" class="line-dashed"/>

    <g transform="translate(40, 355)">
      <rect x="0" y="0" width="20" height="20" class="checkbox-box"/>
      <text x="35" y="16" class="checklist-bold">Set up social accounts</text>
      <text x="35" y="38" class="body-small">Create accounts on Instagram, Twitter/X, and TikTok with consistent branding.</text>
      <text x="35" y="58" class="body-small" style="fill:#C9A84C;">Same handle, same bio, same profile photo across all platforms.</text>
    </g>

    <!-- Week 1 outcome -->
    <rect x="40" y="435" width="1020" height="55" rx="4" fill="#0a0a0a" stroke="#C9A84C" stroke-width="0.5"/>
    <text x="60" y="460" class="label" style="fill:#C9A84C;">OUTCOME</text>
    <text x="200" y="460" class="body" style="fill:#CCCCCC;">You have a clear niche, a brand name, a domain, and consistent social presence.</text>
    <text x="60" y="480" class="body-small" style="fill:#C9A84C;">Total cost: $10-15 | Time investment: ~4 hours</text>
  </g>


  <!-- ===== WEEK 2: FIRST PRODUCT ===== -->

  <g transform="translate(1330, 510)">
    <!-- Week container -->
    <rect x="0" y="0" width="1100" height="520" class="box" rx="4"/>
    <rect x="0" y="0" width="1100" height="50" fill="#111111" rx="4"/>

    <!-- Week header -->
    <text x="25" y="33" class="week-label">DAYS 8-14</text>
    <text x="200" y="33" class="section-title" style="font-size:22px;">WEEK 2: FIRST PRODUCT</text>

    <rect x="830" y="15" width="240" height="20" rx="10" fill="#1a1a1a" stroke="#333333" stroke-width="1"/>
    <text x="950" y="30" class="body-small" text-anchor="middle" style="font-size:11px; fill:#666;">0 / 4 COMPLETE</text>

    <!-- Checklist items -->
    <g transform="translate(40, 85)">
      <rect x="0" y="0" width="20" height="20" class="checkbox-box"/>
      <text x="35" y="16" class="checklist-bold">Pick your product format</text>
      <text x="35" y="38" class="body-small">PDF guide, template pack, checklist, mini-course, or Notion template.</text>
      <text x="35" y="58" class="body-small" style="fill:#C9A84C;">Start with the easiest: a PDF or template. Ship fast, iterate later.</text>
    </g>

    <line x1="40" y1="160" x2="1060" y2="160" class="line-dashed"/>

    <g transform="translate(40, 180)">
      <rect x="0" y="0" width="20" height="20" class="checkbox-box"/>
      <text x="35" y="16" class="checklist-bold">Create your MVP product</text>
      <text x="35" y="38" class="body-small">Solve ONE specific problem. 5-15 pages max. Done beats perfect.</text>
      <text x="35" y="58" class="body-small" style="fill:#C9A84C;">Use Canva for design. AI for copy. Ship in 2-3 focused sessions.</text>
    </g>

    <line x1="40" y1="255" x2="1060" y2="255" class="line-dashed"/>

    <g transform="translate(40, 275)">
      <rect x="0" y="0" width="20" height="20" class="checkbox-box"/>
      <text x="35" y="16" class="checklist-bold">Set up Gumroad storefront</text>
      <text x="35" y="38" class="body-small">Create account, upload product, write description, set price ($0-29).</text>
    </g>

    <line x1="40" y1="335" x2="1060" y2="335" class="line-dashed"/>

    <g transform="translate(40, 355)">
      <rect x="0" y="0" width="20" height="20" class="checkbox-box"/>
      <text x="35" y="16" class="checklist-bold">Write a compelling listing</text>
      <text x="35" y="38" class="body-small">Hero image + 3 bullet benefits + social proof (even if it's your own results).</text>
      <text x="35" y="58" class="body-small" style="fill:#C9A84C;">Formula: Problem + Solution + Outcome + CTA. Keep it simple.</text>
    </g>

    <!-- Week 2 outcome -->
    <rect x="40" y="435" width="1020" height="55" rx="4" fill="#0a0a0a" stroke="#C9A84C" stroke-width="0.5"/>
    <text x="60" y="460" class="label" style="fill:#C9A84C;">OUTCOME</text>
    <text x="200" y="460" class="body" style="fill:#CCCCCC;">You have a live product on Gumroad ready for customers to purchase.</text>
    <text x="60" y="480" class="body-small" style="fill:#C9A84C;">Total cost: $0 (Gumroad is free) | Time investment: ~8 hours</text>
  </g>


  <!-- ===== WEEK 3: CONTENT ENGINE ===== -->

  <g transform="translate(120, 1080)">
    <!-- Week container -->
    <rect x="0" y="0" width="1100" height="520" class="box" rx="4"/>
    <rect x="0" y="0" width="1100" height="50" fill="#111111" rx="4"/>

    <!-- Week header -->
    <text x="25" y="33" class="week-label">DAYS 15-21</text>
    <text x="200" y="33" class="section-title" style="font-size:22px;">WEEK 3: CONTENT ENGINE</text>

    <rect x="830" y="15" width="240" height="20" rx="10" fill="#1a1a1a" stroke="#333333" stroke-width="1"/>
    <text x="950" y="30" class="body-small" text-anchor="middle" style="font-size:11px; fill:#666;">0 / 4 COMPLETE</text>

    <!-- Checklist items -->
    <g transform="translate(40, 85)">
      <rect x="0" y="0" width="20" height="20" class="checkbox-box"/>
      <text x="35" y="16" class="checklist-bold">Choose your primary platform</text>
      <text x="35" y="38" class="body-small">Pick ONE: Twitter/X for text, Instagram for visuals, TikTok for video.</text>
      <text x="35" y="58" class="body-small" style="fill:#C9A84C;">Go where your audience already hangs out. Don't spread thin.</text>
    </g>

    <line x1="40" y1="160" x2="1060" y2="160" class="line-dashed"/>

    <g transform="translate(40, 180)">
      <rect x="0" y="0" width="20" height="20" class="checkbox-box"/>
      <text x="35" y="16" class="checklist-bold">Create 7 pieces of content</text>
      <text x="35" y="38" class="body-small">Batch create in one sitting. Mix: 3 value posts, 2 personal stories, 2 product mentions.</text>
      <text x="35" y="58" class="body-small" style="fill:#C9A84C;">Content ratio: 70% value, 20% story, 10% promotion.</text>
    </g>

    <line x1="40" y1="255" x2="1060" y2="255" class="line-dashed"/>

    <g transform="translate(40, 275)">
      <rect x="0" y="0" width="20" height="20" class="checkbox-box"/>
      <text x="35" y="16" class="checklist-bold">Schedule your content</text>
      <text x="35" y="38" class="body-small">Use Buffer or Later (free tier). Post daily at consistent times.</text>
    </g>

    <line x1="40" y1="335" x2="1060" y2="335" class="line-dashed"/>

    <g transform="translate(40, 355)">
      <rect x="0" y="0" width="20" height="20" class="checkbox-box"/>
      <text x="35" y="16" class="checklist-bold">Engage with your community</text>
      <text x="35" y="38" class="body-small">Comment on 10 posts/day in your niche. Reply to every comment on your content.</text>
      <text x="35" y="58" class="body-small" style="fill:#C9A84C;">Engagement &gt; follower count. Build relationships, not vanity metrics.</text>
    </g>

    <!-- Week 3 outcome -->
    <rect x="40" y="435" width="1020" height="55" rx="4" fill="#0a0a0a" stroke="#C9A84C" stroke-width="0.5"/>
    <text x="60" y="460" class="label" style="fill:#C9A84C;">OUTCOME</text>
    <text x="200" y="460" class="body" style="fill:#CCCCCC;">You have a content system running and an audience starting to form.</text>
    <text x="60" y="480" class="body-small" style="fill:#C9A84C;">Total cost: $0 | Time investment: ~6 hours + 20 min/day</text>
  </g>


  <!-- ===== WEEK 4: FIRST SALES ===== -->

  <g transform="translate(1330, 1080)">
    <!-- Week container -->
    <rect x="0" y="0" width="1100" height="520" class="box" rx="4"/>
    <rect x="0" y="0" width="1100" height="50" fill="#111111" rx="4"/>

    <!-- Week header -->
    <text x="25" y="33" class="week-label">DAYS 22-30</text>
    <text x="200" y="33" class="section-title" style="font-size:22px;">WEEK 4: FIRST SALES</text>

    <rect x="830" y="15" width="240" height="20" rx="10" fill="#1a1a1a" stroke="#333333" stroke-width="1"/>
    <text x="950" y="30" class="body-small" text-anchor="middle" style="font-size:11px; fill:#666;">0 / 4 COMPLETE</text>

    <!-- Checklist items -->
    <g transform="translate(40, 85)">
      <rect x="0" y="0" width="20" height="20" class="checkbox-box"/>
      <text x="35" y="16" class="checklist-bold">Share your product publicly</text>
      <text x="35" y="38" class="body-small">Post on your platform, share in relevant communities, DM 10 people.</text>
      <text x="35" y="58" class="body-small" style="fill:#C9A84C;">Don't "launch." Just share naturally. "I made this, it might help you."</text>
    </g>

    <line x1="40" y1="160" x2="1060" y2="160" class="line-dashed"/>

    <g transform="translate(40, 180)">
      <rect x="0" y="0" width="20" height="20" class="checkbox-box"/>
      <text x="35" y="16" class="checklist-bold">Collect feedback from first users</text>
      <text x="35" y="38" class="body-small">Ask 3 questions: What did you like? What confused you? What's missing?</text>
      <text x="35" y="58" class="body-small" style="fill:#C9A84C;">Feedback is gold. Every response improves your next version.</text>
    </g>

    <line x1="40" y1="255" x2="1060" y2="255" class="line-dashed"/>

    <g transform="translate(40, 275)">
      <rect x="0" y="0" width="20" height="20" class="checkbox-box"/>
      <text x="35" y="16" class="checklist-bold">Iterate based on feedback</text>
      <text x="35" y="38" class="body-small">Update product, improve listing, adjust price if needed. Ship V2 fast.</text>
    </g>

    <line x1="40" y1="335" x2="1060" y2="335" class="line-dashed"/>

    <g transform="translate(40, 355)">
      <rect x="0" y="0" width="20" height="20" class="checkbox-box"/>
      <text x="35" y="16" class="checklist-bold">Set your Month 2 revenue goal</text>
      <text x="35" y="38" class="body-small">Based on Month 1 data, set a realistic but stretching target.</text>
      <text x="35" y="58" class="body-small" style="fill:#C9A84C;">$100/month is a real business. $0 to $1 is the hardest part. You did it.</text>
    </g>

    <!-- Week 4 outcome -->
    <rect x="40" y="435" width="1020" height="55" rx="4" fill="#0a0a0a" stroke="#C9A84C" stroke-width="0.5"/>
    <text x="60" y="460" class="label" style="fill:#C9A84C;">OUTCOME</text>
    <text x="200" y="460" class="body" style="fill:#CCCCCC;">You've made your first sale and have a clear path to scale.</text>
    <text x="60" y="480" class="body-small" style="fill:#C9A84C;">Total cost: $0 | Time investment: ~6 hours + ongoing engagement</text>
  </g>


  <!-- ===== REVENUE TRACKER (Month 1-3) ===== -->

  <g transform="translate(120, 1660)">
    <rect x="0" y="0" width="2310" height="260" class="box" rx="4"/>
    <rect x="0" y="0" width="2310" height="50" fill="#111111" rx="4"/>

    <text x="25" y="33" class="tracker-header" style="font-size:18px;">REVENUE TRACKER</text>
    <text x="340" y="33" class="body-small">Track your progress. Small numbers are real numbers.</text>

    <!-- Month headers -->
    <g transform="translate(40, 75)">
      <!-- Month 1 -->
      <rect x="0" y="0" width="720" height="155" fill="#0a0a0a" rx="4" stroke="#222222" stroke-width="1"/>
      <text x="20" y="30" class="label" style="fill:#C9A84C;">MONTH 1</text>
      <text x="20" y="55" class="tracker-label">Products sold:</text>
      <text x="250" y="55" class="tracker-value">____</text>
      <text x="20" y="80" class="tracker-label">Revenue:</text>
      <text x="250" y="80" class="tracker-value">$ ____</text>
      <text x="20" y="105" class="tracker-label">Followers gained:</text>
      <text x="250" y="105" class="tracker-value">____</text>
      <text x="20" y="130" class="tracker-label">Email subscribers:</text>
      <text x="250" y="130" class="tracker-value">____</text>
      <text x="380" y="30" class="body-small" style="fill:#C9A84C;">TARGET: $1+</text>
      <text x="380" y="55" class="body-small">Your only goal is to</text>
      <text x="380" y="75" class="body-small">make your first dollar.</text>
      <text x="380" y="95" class="body-small">Everything else is bonus.</text>
    </g>

    <g transform="translate(800, 75)">
      <!-- Month 2 -->
      <rect x="0" y="0" width="720" height="155" fill="#0a0a0a" rx="4" stroke="#222222" stroke-width="1"/>
      <text x="20" y="30" class="label" style="fill:#C9A84C;">MONTH 2</text>
      <text x="20" y="55" class="tracker-label">Products sold:</text>
      <text x="250" y="55" class="tracker-value">____</text>
      <text x="20" y="80" class="tracker-label">Revenue:</text>
      <text x="250" y="80" class="tracker-value">$ ____</text>
      <text x="20" y="105" class="tracker-label">Followers gained:</text>
      <text x="250" y="105" class="tracker-value">____</text>
      <text x="20" y="130" class="tracker-label">Email subscribers:</text>
      <text x="250" y="130" class="tracker-value">____</text>
      <text x="380" y="30" class="body-small" style="fill:#C9A84C;">TARGET: $100+</text>
      <text x="380" y="55" class="body-small">Optimize what's working.</text>
      <text x="380" y="75" class="body-small">Double down on the</text>
      <text x="380" y="95" class="body-small">channel that converts.</text>
    </g>

    <g transform="translate(1560, 75)">
      <!-- Month 3 -->
      <rect x="0" y="0" width="710" height="155" fill="#0a0a0a" rx="4" stroke="#222222" stroke-width="1"/>
      <text x="20" y="30" class="label" style="fill:#C9A84C;">MONTH 3</text>
      <text x="20" y="55" class="tracker-label">Products sold:</text>
      <text x="250" y="55" class="tracker-value">____</text>
      <text x="20" y="80" class="tracker-label">Revenue:</text>
      <text x="250" y="80" class="tracker-value">$ ____</text>
      <text x="20" y="105" class="tracker-label">Followers gained:</text>
      <text x="250" y="105" class="tracker-value">____</text>
      <text x="20" y="130" class="tracker-label">Email subscribers:</text>
      <text x="250" y="130" class="tracker-value">____</text>
      <text x="380" y="30" class="body-small" style="fill:#C9A84C;">TARGET: $500+</text>
      <text x="380" y="55" class="body-small">Add a second product.</text>
      <text x="380" y="75" class="body-small">Build an email list.</text>
      <text x="380" y="95" class="body-small">You're a real business now.</text>
    </g>

    <!-- Arrow connectors between months -->
    <text x="775" y="155" style="fill:#C9A84C; font-size:28px; font-family:'Helvetica Neue';">&#8594;</text>
    <text x="1535" y="155" style="fill:#C9A84C; font-size:28px; font-family:'Helvetica Neue';">&#8594;</text>
  </g>


  <!-- ===== WHAT'S IN THE FULL SYSTEM? TEASER BOX ===== -->

  <g transform="translate(120, 1980)">
    <rect x="0" y="0" width="1500" height="620" class="box-gold" rx="6"/>

    <!-- Teaser header -->
    <rect x="0" y="0" width="1500" height="60" fill="#111111" rx="6"/>
    <rect x="0" y="56" width="1500" height="4" fill="#C9A84C" opacity="0.3"/>
    <text x="40" y="40" class="teaser-title">WHAT'S IN THE FULL SYSTEM?</text>
    <text x="620" y="40" class="body-small" style="fill:#C9A84C;">THE SOLOPRENEUR OPERATING SYSTEM  |  $97</text>

    <!-- Module list with lock icons -->
    <g transform="translate(40, 90)">
      <!-- Module 1 - Unlocked (this blueprint) -->
      <text x="0" y="0" class="teaser-item-unlocked" style="font-size:18px;">&#10003;</text>
      <text x="30" y="0" class="teaser-item-unlocked">MODULE 1: Starter Blueprint (30-Day Launch Plan)</text>
      <text x="950" y="0" class="body-small" style="fill:#C9A84C;">YOU ARE HERE</text>

      <!-- Module 2-10 - Locked -->
      <text x="0" y="48" style="fill:#444444; font-size:18px;">&#128274;</text>
      <text x="30" y="48" class="teaser-item">MODULE 2: Product Creation Engine (Templates, Pricing, Packaging)</text>

      <text x="0" y="96" style="fill:#444444; font-size:18px;">&#128274;</text>
      <text x="30" y="96" class="teaser-item">MODULE 3: Content Operating System (90-Day Content Calendar)</text>

      <text x="0" y="144" style="fill:#444444; font-size:18px;">&#128274;</text>
      <text x="30" y="144" class="teaser-item">MODULE 4: Sales Funnel Blueprint (Landing Pages, Email Sequences)</text>

      <text x="0" y="192" style="fill:#444444; font-size:18px;">&#128274;</text>
      <text x="30" y="192" class="teaser-item">MODULE 5: Audience Growth Playbook (0 to 10K Followers)</text>

      <text x="0" y="240" style="fill:#444444; font-size:18px;">&#128274;</text>
      <text x="30" y="240" class="teaser-item">MODULE 6: Email List Mastery (Lead Magnets, Nurture Sequences)</text>

      <text x="0" y="288" style="fill:#444444; font-size:18px;">&#128274;</text>
      <text x="30" y="288" class="teaser-item">MODULE 7: AI Automation Stack (Tools, Workflows, Prompts)</text>

      <text x="0" y="336" style="fill:#444444; font-size:18px;">&#128274;</text>
      <text x="30" y="336" class="teaser-item">MODULE 8: Scaling to $5K/Month (Systems, Hiring, Delegation)</text>

      <text x="0" y="384" style="fill:#444444; font-size:18px;">&#128274;</text>
      <text x="30" y="384" class="teaser-item">MODULE 9: Brand Authority Blueprint (Positioning, PR, Collabs)</text>

      <text x="0" y="432" style="fill:#444444; font-size:18px;">&#128274;</text>
      <text x="30" y="432" class="teaser-item">MODULE 10: 12-Month Revenue Roadmap ($0 to $50K)</text>
    </g>

    <!-- CTA inside teaser -->
    <rect x="40" y="550" width="1420" height="45" rx="4" fill="#C9A84C"/>
    <text x="750" y="580" class="cta" text-anchor="middle" style="font-size:16px;">GET THE FULL 10-MODULE SYSTEM AT BEHIKE.CO/OS  &#8594;  $97</text>
  </g>


  <!-- ===== QR CODE PLACEHOLDER ===== -->

  <g transform="translate(1740, 1980)">
    <rect x="0" y="0" width="690" height="620" class="box" rx="6"/>

    <text x="345" y="50" class="label" text-anchor="middle" style="fill:#C9A84C; font-size:14px;">SCAN FOR FULL SYSTEM</text>

    <!-- QR code placeholder frame -->
    <rect x="145" y="80" width="400" height="400" fill="#111111" stroke="#333333" stroke-width="2" rx="8"/>

    <!-- QR pattern placeholder -->
    <g transform="translate(165, 100)">
      <!-- Corner markers -->
      <rect x="0" y="0" width="70" height="70" fill="#FFFFFF" rx="2"/>
      <rect x="10" y="10" width="50" height="50" fill="#000000" rx="2"/>
      <rect x="20" y="20" width="30" height="30" fill="#FFFFFF" rx="2"/>

      <rect x="290" y="0" width="70" height="70" fill="#FFFFFF" rx="2"/>
      <rect x="300" y="10" width="50" height="50" fill="#000000" rx="2"/>
      <rect x="310" y="20" width="30" height="30" fill="#FFFFFF" rx="2"/>

      <rect x="0" y="290" width="70" height="70" fill="#FFFFFF" rx="2"/>
      <rect x="10" y="300" width="50" height="50" fill="#000000" rx="2"/>
      <rect x="20" y="310" width="30" height="30" fill="#FFFFFF" rx="2"/>

      <!-- Center pattern -->
      <rect x="130" y="130" width="100" height="100" fill="none" stroke="#333333" stroke-width="1"/>
      <text x="180" y="180" text-anchor="middle" style="fill:#555555; font-size:11px; font-family:'Helvetica Neue';">QR CODE</text>
      <text x="180" y="198" text-anchor="middle" style="fill:#555555; font-size:11px; font-family:'Helvetica Neue';">GOES HERE</text>

      <!-- Scattered dots for QR texture -->
      <rect x="90" y="15" width="15" height="15" fill="#333333"/>
      <rect x="110" y="15" width="15" height="15" fill="#333333"/>
      <rect x="150" y="15" width="15" height="15" fill="#333333"/>
      <rect x="90" y="40" width="15" height="15" fill="#333333"/>
      <rect x="130" y="40" width="15" height="15" fill="#333333"/>
      <rect x="170" y="40" width="15" height="15" fill="#333333"/>
      <rect x="210" y="40" width="15" height="15" fill="#333333"/>
      <rect x="90" y="65" width="15" height="15" fill="#333333"/>
      <rect x="150" y="65" width="15" height="15" fill="#333333"/>
      <rect x="250" y="65" width="15" height="15" fill="#333333"/>
      <rect x="15" y="90" width="15" height="15" fill="#333333"/>
      <rect x="40" y="90" width="15" height="15" fill="#333333"/>
      <rect x="250" y="90" width="15" height="15" fill="#333333"/>
      <rect x="290" y="90" width="15" height="15" fill="#333333"/>
      <rect x="15" y="250" width="15" height="15" fill="#333333"/>
      <rect x="40" y="250" width="15" height="15" fill="#333333"/>
      <rect x="250" y="250" width="15" height="15" fill="#333333"/>
      <rect x="290" y="250" width="15" height="15" fill="#333333"/>
      <rect x="90" y="290" width="15" height="15" fill="#333333"/>
      <rect x="130" y="290" width="15" height="15" fill="#333333"/>
      <rect x="170" y="290" width="15" height="15" fill="#333333"/>
      <rect x="250" y="290" width="15" height="15" fill="#333333"/>
      <rect x="90" y="320" width="15" height="15" fill="#333333"/>
      <rect x="150" y="320" width="15" height="15" fill="#333333"/>
      <rect x="210" y="320" width="15" height="15" fill="#333333"/>
      <rect x="290" y="320" width="15" height="15" fill="#333333"/>
      <rect x="130" y="345" width="15" height="15" fill="#333333"/>
      <rect x="210" y="345" width="15" height="15" fill="#333333"/>
    </g>

    <text x="345" y="510" class="body" text-anchor="middle" style="fill:#CCCCCC; font-size:15px;">behike.co/os</text>

    <!-- Stats box -->
    <rect x="60" y="540" width="570" height="55" fill="#0a0a0a" rx="4" stroke="#222222" stroke-width="1"/>
    <text x="345" y="565" class="body-small" text-anchor="middle" style="fill:#888888;">10 MODULES  |  50+ TEMPLATES  |  12-MONTH ROADMAP</text>
    <text x="345" y="585" class="body-small" text-anchor="middle" style="fill:#C9A84C;">EVERYTHING YOU NEED TO HIT $50K/YEAR</text>
  </g>


  <!-- ===== 30-DAY TIMELINE VISUALIZATION ===== -->

  <g transform="translate(120, 2660)">
    <rect x="0" y="0" width="2310" height="200" class="box" rx="4"/>
    <rect x="0" y="0" width="2310" height="45" fill="#111111" rx="4"/>

    <text x="25" y="30" class="tracker-header" style="font-size:16px;">YOUR 30-DAY TIMELINE</text>

    <!-- Timeline bar -->
    <rect x="40" y="75" width="2230" height="6" rx="3" fill="#1a1a1a"/>

    <!-- Week markers -->
    <rect x="40" y="75" width="557" height="6" rx="3" fill="#C9A84C" opacity="0.2"/>
    <rect x="597" y="75" width="558" height="6" rx="3" fill="#C9A84C" opacity="0.15"/>
    <rect x="1155" y="75" width="558" height="6" rx="3" fill="#C9A84C" opacity="0.1"/>
    <rect x="1713" y="75" width="557" height="6" rx="3" fill="#C9A84C" opacity="0.05"/>

    <!-- Day markers -->
    <circle cx="40" cy="78" r="8" fill="#C9A84C"/>
    <text x="40" y="108" class="body-small" text-anchor="middle" style="fill:#C9A84C;">DAY 1</text>
    <text x="40" y="125" class="body-small" text-anchor="middle">Start</text>

    <circle cx="597" cy="78" r="8" fill="#C9A84C" opacity="0.7"/>
    <text x="597" y="108" class="body-small" text-anchor="middle" style="fill:#C9A84C;">DAY 7</text>
    <text x="597" y="125" class="body-small" text-anchor="middle">Foundation</text>
    <text x="597" y="142" class="body-small" text-anchor="middle">Complete</text>

    <circle cx="1155" cy="78" r="8" fill="#C9A84C" opacity="0.5"/>
    <text x="1155" y="108" class="body-small" text-anchor="middle" style="fill:#C9A84C;">DAY 14</text>
    <text x="1155" y="125" class="body-small" text-anchor="middle">Product</text>
    <text x="1155" y="142" class="body-small" text-anchor="middle">Live</text>

    <circle cx="1713" cy="78" r="8" fill="#C9A84C" opacity="0.3"/>
    <text x="1713" y="108" class="body-small" text-anchor="middle" style="fill:#C9A84C;">DAY 21</text>
    <text x="1713" y="125" class="body-small" text-anchor="middle">Content</text>
    <text x="1713" y="142" class="body-small" text-anchor="middle">Running</text>

    <circle cx="2270" cy="78" r="12" fill="#C9A84C"/>
    <text x="2270" y="82" text-anchor="middle" style="fill:#000000; font-size:10px; font-weight:700; font-family:'Helvetica Neue';">$</text>
    <text x="2270" y="108" class="body-small" text-anchor="middle" style="fill:#C9A84C;">DAY 30</text>
    <text x="2270" y="125" class="body-small" text-anchor="middle" style="fill:#FFFFFF;">FIRST</text>
    <text x="2270" y="142" class="body-small" text-anchor="middle" style="fill:#FFFFFF;">SALE</text>

    <!-- Total investment summary -->
    <text x="300" y="175" class="label" text-anchor="middle" style="fill:#888888;">TOTAL COST: $10-15</text>
    <text x="900" y="175" class="label" text-anchor="middle" style="fill:#888888;">TOTAL TIME: ~24 HOURS OVER 30 DAYS</text>
    <text x="1700" y="175" class="label" text-anchor="middle" style="fill:#C9A84C;">RESULT: LIVE PRODUCT + FIRST REVENUE</text>
  </g>


  <!-- ===== QUICK-START TIPS ===== -->

  <g transform="translate(120, 2920)">
    <rect x="0" y="0" width="2310" height="180" class="box" rx="4"/>
    <rect x="0" y="0" width="2310" height="45" fill="#111111" rx="4"/>

    <text x="25" y="30" class="tracker-header" style="font-size:16px;">RULES FOR THE FIRST 30 DAYS</text>

    <g transform="translate(40, 70)">
      <text x="0" y="0" class="body" style="fill:#C9A84C; font-size:22px;">01</text>
      <text x="50" y="0" class="body" style="fill:#FFFFFF;">Ship before you're ready.</text>
      <text x="50" y="22" class="body-small">Perfection kills momentum. A bad V1 beats a perfect V0.</text>
    </g>

    <g transform="translate(620, 70)">
      <text x="0" y="0" class="body" style="fill:#C9A84C; font-size:22px;">02</text>
      <text x="50" y="0" class="body" style="fill:#FFFFFF;">One platform, one product, one audience.</text>
      <text x="50" y="22" class="body-small">Focus is your only advantage against funded competitors.</text>
    </g>

    <g transform="translate(1300, 70)">
      <text x="0" y="0" class="body" style="fill:#C9A84C; font-size:22px;">03</text>
      <text x="50" y="0" class="body" style="fill:#FFFFFF;">Talk to people, not at them.</text>
      <text x="50" y="22" class="body-small">DMs, replies, and comments build trust faster than posts.</text>
    </g>

    <g transform="translate(1900, 70)">
      <text x="0" y="0" class="body" style="fill:#C9A84C; font-size:22px;">04</text>
      <text x="50" y="0" class="body" style="fill:#FFFFFF;">$1 &gt; $0.</text>
      <text x="50" y="22" class="body-small">Your first dollar proves the model.</text>
      <text x="50" y="42" class="body-small">Everything after is scaling.</text>
    </g>
  </g>


  <!-- ===== FOOTER ===== -->

  <rect x="0" y="3160" width="2550" height="1" fill="#222222"/>

  <text x="1275" y="3200" class="footer" text-anchor="middle">
    behike.co  |  This is 1 of 10 modules. Get the full system at behike.co/os
  </text>

  <text x="1275" y="3230" class="body-small" text-anchor="middle" style="fill:#444444;">
    THE SOLOPRENEUR OPERATING SYSTEM  |  10 MODULES  |  50+ TEMPLATES  |  12-MONTH ROADMAP  |  $97
  </text>

  <!-- Bottom border accent -->
  <rect x="0" y="3296" width="2550" height="4" fill="#C9A84C"/>

  <!-- Version / edition info -->
  <text x="120" y="3280" class="body-small" style="fill:#333333; font-size:11px;">v1.0 STARTER EDITION | FREE LEAD MAGNET</text>
  <text x="2430" y="3280" class="body-small" text-anchor="end" style="fill:#333333; font-size:11px;">BEHIKE.CO 2025</text>

</svg>