<?xml version="1.0" encoding="UTF-8"?>
<svg xmlns="http://www.w3.org/2000/svg" viewBox="0 0 2400 1800" width="2400" height="1800">
  <defs>
    <style>
      text { font-family: 'Helvetica Neue', Helvetica, Arial, sans-serif; fill: #fff; }
      .title { font-size: 28px; font-weight: bold; letter-spacing: 4px; }
      .subtitle { font-size: 14px; fill: #999; letter-spacing: 2px; }
      .section-title { font-size: 16px; font-weight: bold; letter-spacing: 1px; }
      .body { font-size: 12px; fill: #999; }
      .body-white { font-size: 12px; fill: #fff; }
      .small { font-size: 10px; fill: #999; }
      .checkbox { font-size: 11px; fill: #999; }
      .table-head { font-size: 11px; font-weight: bold; fill: #fff; }
      .table-cell { font-size: 10px; fill: #999; }
      .hub-label { font-size: 18px; font-weight: bold; letter-spacing: 2px; }
      .tier-label { font-size: 14px; font-weight: bold; }
      .accent { font-size: 20px; font-weight: bold; }
      .metric-value { font-size: 22px; font-weight: bold; }
      .metric-label { font-size: 10px; fill: #999; letter-spacing: 1px; }
    </style>
  </defs>

  <!-- Background -->
  <rect width="2400" height="1800" fill="#000"/>

  <!-- Border -->
  <rect x="30" y="30" width="2340" height="1740" fill="none" stroke="#333" stroke-width="1"/>
  <rect x="35" y="35" width="2330" height="1730" fill="none" stroke="#222" stroke-width="0.5"/>

  <!-- Header -->
  <text x="1200" y="80" text-anchor="middle" class="title">COACHING BUSINESS BLUEPRINT</text>
  <line x1="400" y1="95" x2="2000" y2="95" stroke="#333" stroke-width="0.5"/>
  <text x="1200" y="115" text-anchor="middle" class="subtitle">FROM EXPERTISE TO SCALABLE INCOME</text>

  <!-- ============================================ -->
  <!-- SECTION 1: Expertise Definition (top-left) -->
  <!-- ============================================ -->

  <rect x="60" y="140" width="500" height="300" rx="3" fill="none" stroke="#fff" stroke-width="1"/>
  <text x="310" y="170" text-anchor="middle" class="section-title">01 / EXPERTISE DEFINITION</text>
  <line x1="80" y1="182" x2="540" y2="182" stroke="#333" stroke-width="0.5"/>

  <text x="80" y="208" class="body">Your Expertise:</text>
  <rect x="80" y="218" width="460" height="18" rx="2" fill="none" stroke="#333" stroke-width="0.5"/>

  <text x="80" y="255" class="body">Who You Help:</text>
  <rect x="80" y="265" width="460" height="18" rx="2" fill="none" stroke="#333" stroke-width="0.5"/>

  <text x="80" y="302" class="body">Transformation Promise:</text>
  <text x="80" y="318" class="small">FROM: _______________________________</text>
  <text x="80" y="336" class="small">TO:   _______________________________</text>

  <text x="80" y="365" class="body">Credentials / Proof:</text>
  <text x="80" y="385" class="checkbox">[ ] ________________________________</text>
  <text x="80" y="403" class="checkbox">[ ] ________________________________</text>
  <text x="80" y="421" class="checkbox">[ ] ________________________________</text>

  <!-- ============================================ -->
  <!-- SECTION 2: Offer Structure (top-center) -->
  <!-- ============================================ -->

  <rect x="580" y="140" width="580" height="300" rx="3" fill="none" stroke="#fff" stroke-width="1"/>
  <text x="870" y="170" text-anchor="middle" class="section-title">02 / OFFER STRUCTURE</text>
  <line x1="600" y1="182" x2="1140" y2="182" stroke="#333" stroke-width="0.5"/>

  <!-- Offer tiers as connected boxes -->
  <rect x="600" y="200" width="130" height="100" rx="3" fill="none" stroke="#999" stroke-width="1"/>
  <text x="665" y="225" text-anchor="middle" class="tier-label">COMMUNITY</text>
  <text x="665" y="248" text-anchor="middle" class="accent">$__/mo</text>
  <line x1="620" y1="258" x2="710" y2="258" stroke="#333" stroke-width="0.5"/>
  <text x="610" y="275" class="small">Group access</text>
  <text x="610" y="290" class="small">Templates</text>

  <path d="M 730,250 L 750,250" fill="none" stroke="#999" stroke-width="1"/>
  <polygon points="748,247 755,250 748,253" fill="#999"/>

  <rect x="760" y="200" width="130" height="100" rx="3" fill="none" stroke="#fff" stroke-width="1"/>
  <text x="825" y="225" text-anchor="middle" class="tier-label">GROUP</text>
  <text x="825" y="248" text-anchor="middle" class="accent">$__/mo</text>
  <line x1="780" y1="258" x2="870" y2="258" stroke="#333" stroke-width="0.5"/>
  <text x="770" y="275" class="small">Weekly calls</text>
  <text x="770" y="290" class="small">Accountability</text>

  <path d="M 890,250 L 910,250" fill="none" stroke="#999" stroke-width="1"/>
  <polygon points="908,247 915,250 908,253" fill="#999"/>

  <rect x="920" y="200" width="130" height="100" rx="3" fill="none" stroke="#fff" stroke-width="1.5"/>
  <text x="985" y="225" text-anchor="middle" class="tier-label">1:1</text>
  <text x="985" y="248" text-anchor="middle" class="accent">$___/mo</text>
  <line x1="940" y1="258" x2="1030" y2="258" stroke="#333" stroke-width="0.5"/>
  <text x="930" y="275" class="small">Private calls</text>
  <text x="930" y="290" class="small">Custom plan</text>

  <!-- Course add-on -->
  <rect x="600" y="320" width="540" height="55" rx="3" fill="none" stroke="#999" stroke-width="1"/>
  <text x="870" y="345" text-anchor="middle" class="body-white">COURSE (SELF-PACED)</text>
  <text x="870" y="365" text-anchor="middle" class="small">Modules: ____    Price: $____    Included in: [ ] Group  [ ] 1:1</text>

  <text x="600" y="410" class="body">Capacity: 1:1 = ____ clients    Group = ____ members    Community = unlimited</text>
  <text x="600" y="430" class="body">Session length: ____ min    Frequency: ____________</text>

  <!-- ============================================ -->
  <!-- SECTION 3: Pricing Ladder (top-right) -->
  <!-- ============================================ -->

  <rect x="1180" y="140" width="480" height="300" rx="3" fill="none" stroke="#fff" stroke-width="1"/>
  <text x="1420" y="170" text-anchor="middle" class="section-title">03 / PRICING LADDER</text>
  <line x1="1200" y1="182" x2="1640" y2="182" stroke="#333" stroke-width="0.5"/>

  <!-- Ascending price ladder visualization -->
  <rect x="1210" y="370" width="80" height="40" rx="2" fill="none" stroke="#999" stroke-width="1"/>
  <text x="1250" y="395" text-anchor="middle" class="small">$97</text>

  <path d="M 1290,380 L 1320,350" fill="none" stroke="#999" stroke-width="1"/>

  <rect x="1320" y="320" width="80" height="50" rx="2" fill="none" stroke="#fff" stroke-width="1"/>
  <text x="1360" y="350" text-anchor="middle" class="small">$497</text>

  <path d="M 1400,330 L 1430,290" fill="none" stroke="#999" stroke-width="1"/>

  <rect x="1430" y="260" width="80" height="60" rx="2" fill="none" stroke="#fff" stroke-width="1.5"/>
  <text x="1470" y="295" text-anchor="middle" class="small">$2,000</text>

  <path d="M 1510,270 L 1540,230" fill="none" stroke="#999" stroke-width="1"/>

  <rect x="1540" y="200" width="80" height="70" rx="2" fill="none" stroke="#fff" stroke-width="1"/>
  <text x="1580" y="240" text-anchor="middle" class="small">$5,000</text>

  <!-- Labels -->
  <text x="1250" y="422" text-anchor="middle" class="small">Ebook/Mini</text>
  <text x="1360" y="382" text-anchor="middle" class="small">Course</text>
  <text x="1470" y="332" text-anchor="middle" class="small">Group 3mo</text>
  <text x="1580" y="282" text-anchor="middle" class="small">1:1 3mo</text>

  <text x="1200" y="210" class="body">Annual Revenue Model:</text>
  <text x="1200" y="230" class="small">____ x $97  = $________</text>
  <text x="1200" y="248" class="small">____ x $497 = $________</text>

  <!-- ============================================ -->
  <!-- SECTION 4: Client Acquisition Hub-Spoke (far right) -->
  <!-- ============================================ -->

  <rect x="1680" y="140" width="300" height="300" rx="3" fill="none" stroke="#fff" stroke-width="1"/>
  <text x="1830" y="170" text-anchor="middle" class="section-title">04 / CLIENT FINDING</text>
  <line x1="1700" y1="182" x2="1960" y2="182" stroke="#333" stroke-width="0.5"/>

  <!-- Hub -->
  <circle cx="1830" cy="300" r="35" fill="none" stroke="#fff" stroke-width="1.5"/>
  <text x="1830" y="296" text-anchor="middle" class="small">CLIENTS</text>
  <text x="1830" y="308" text-anchor="middle" class="small">PIPELINE</text>

  <!-- Spokes -->
  <path d="M 1830,265 C 1830,240 1830,220 1830,210" fill="none" stroke="#999" stroke-width="1"/>
  <text x="1830" y="205" text-anchor="middle" class="body-white">Content</text>

  <path d="M 1795,290 C 1750,280 1720,260 1710,250" fill="none" stroke="#999" stroke-width="1"/>
  <text x="1710" y="242" text-anchor="middle" class="body-white">Referrals</text>

  <path d="M 1865,290 C 1910,280 1940,260 1950,250" fill="none" stroke="#999" stroke-width="1"/>
  <text x="1950" y="242" text-anchor="middle" class="body-white">Webinars</text>

  <path d="M 1800,325 C 1760,360 1730,380 1720,390" fill="none" stroke="#999" stroke-width="1"/>
  <text x="1720" y="405" text-anchor="middle" class="body-white">Podcast</text>

  <path d="M 1860,325 C 1900,360 1930,380 1940,390" fill="none" stroke="#999" stroke-width="1"/>
  <text x="1940" y="405" text-anchor="middle" class="body-white">LinkedIn</text>

  <text x="1700" y="430" class="small">Leads/mo target: ____</text>

  <!-- ============================================ -->
  <!-- SECTION 5: Delivery System (bottom-left) -->
  <!-- ============================================ -->

  <rect x="60" y="460" width="540" height="280" rx="3" fill="none" stroke="#fff" stroke-width="1"/>
  <text x="330" y="490" text-anchor="middle" class="section-title">05 / DELIVERY SYSTEM</text>
  <line x1="80" y1="502" x2="580" y2="502" stroke="#333" stroke-width="0.5"/>

  <text x="80" y="525" class="body">Onboarding Process:</text>
  <text x="80" y="545" class="checkbox">[ ] Welcome email + intake form</text>
  <text x="80" y="563" class="checkbox">[ ] Kickoff call (goals, timeline)</text>
  <text x="80" y="581" class="checkbox">[ ] Add to community/group</text>
  <text x="80" y="599" class="checkbox">[ ] Send resources + roadmap</text>

  <text x="80" y="628" class="body">Session Structure:</text>
  <text x="80" y="648" class="small">0-5 min:   Check-in / wins</text>
  <text x="80" y="665" class="small">5-15 min:  Review homework</text>
  <text x="80" y="682" class="small">15-40 min: Core coaching</text>
  <text x="80" y="699" class="small">40-45 min: Action items</text>

  <text x="80" y="725" class="body">Tools:</text>
  <text x="80" y="730" class="small"></text>
  <text x="140" y="725" class="body">Zoom / Calendly / Notion / Stripe / Circle</text>

  <!-- ============================================ -->
  <!-- SECTION 6: Testimonial Machine (bottom-center-left) -->
  <!-- ============================================ -->

  <rect x="620" y="460" width="400" height="280" rx="3" fill="none" stroke="#fff" stroke-width="1"/>
  <text x="820" y="490" text-anchor="middle" class="section-title">06 / TESTIMONIAL MACHINE</text>
  <line x1="640" y1="502" x2="1000" y2="502" stroke="#333" stroke-width="0.5"/>

  <!-- Testimonial pipeline -->
  <text x="640" y="525" class="body">Collection Triggers:</text>
  <text x="640" y="545" class="checkbox">[ ] After first win (week 2-3)</text>
  <text x="640" y="563" class="checkbox">[ ] Mid-program milestone</text>
  <text x="640" y="581" class="checkbox">[ ] Program completion</text>
  <text x="640" y="599" class="checkbox">[ ] 90-day follow-up</text>

  <text x="640" y="628" class="body">Testimonial Template:</text>
  <text x="640" y="648" class="small">"Before working with [you], I was...</text>
  <text x="640" y="665" class="small"> After [timeframe], I now...</text>
  <text x="640" y="682" class="small"> The biggest change was..."</text>

  <text x="640" y="710" class="body">Goal: ____ testimonials / quarter</text>
  <text x="640" y="730" class="body">Formats:</text>
  <text x="640" y="730" class="small"></text>
  <text x="730" y="730" class="checkbox">[ ] Written  [ ] Video  [ ] Screenshot</text>

  <!-- ============================================ -->
  <!-- SECTION 7: Scaling Path (bottom-center-right) -->
  <!-- ============================================ -->

  <rect x="1040" y="460" width="520" height="280" rx="3" fill="none" stroke="#fff" stroke-width="1"/>
  <text x="1300" y="490" text-anchor="middle" class="section-title">07 / SCALING PATH</text>
  <line x1="1060" y1="502" x2="1540" y2="502" stroke="#333" stroke-width="0.5"/>

  <!-- Scaling stages -->
  <rect x="1060" y="520" width="140" height="70" rx="3" fill="none" stroke="#999" stroke-width="1"/>
  <text x="1130" y="545" text-anchor="middle" class="body-white">SOLO</text>
  <text x="1130" y="562" text-anchor="middle" class="small">1:1 clients</text>
  <text x="1130" y="578" text-anchor="middle" class="small">$____/mo</text>

  <path d="M 1200,555 C 1220,555 1230,555 1240,555" fill="none" stroke="#999" stroke-width="1"/>
  <polygon points="1238,552 1245,555 1238,558" fill="#999"/>

  <rect x="1250" y="520" width="140" height="70" rx="3" fill="none" stroke="#fff" stroke-width="1"/>
  <text x="1320" y="545" text-anchor="middle" class="body-white">LEVERAGE</text>
  <text x="1320" y="562" text-anchor="middle" class="small">Group + course</text>
  <text x="1320" y="578" text-anchor="middle" class="small">$____/mo</text>

  <path d="M 1390,555 C 1410,555 1420,555 1430,555" fill="none" stroke="#999" stroke-width="1"/>
  <polygon points="1428,552 1435,555 1428,558" fill="#999"/>

  <rect x="1440" y="520" width="100" height="70" rx="3" fill="none" stroke="#fff" stroke-width="1.5"/>
  <text x="1490" y="545" text-anchor="middle" class="body-white">SCALE</text>
  <text x="1490" y="562" text-anchor="middle" class="small">Team + brand</text>
  <text x="1490" y="578" text-anchor="middle" class="small">$____/mo</text>

  <text x="1060" y="620" class="body">Scaling Checklist:</text>
  <text x="1060" y="640" class="checkbox">[ ] Hire associate coaches</text>
  <text x="1060" y="658" class="checkbox">[ ] Create certification program</text>
  <text x="1060" y="676" class="checkbox">[ ] Build self-paced course</text>
  <text x="1060" y="694" class="checkbox">[ ] Launch membership community</text>
  <text x="1060" y="712" class="checkbox">[ ] Write book / keynote</text>
  <text x="1060" y="730" class="checkbox">[ ] License your framework</text>

  <!-- ============================================ -->
  <!-- SECTION 8: Weekly Schedule (far right) -->
  <!-- ============================================ -->

  <rect x="1580" y="460" width="400" height="280" rx="3" fill="none" stroke="#fff" stroke-width="1"/>
  <text x="1780" y="490" text-anchor="middle" class="section-title">08 / WEEKLY SCHEDULE</text>
  <line x1="1600" y1="502" x2="1960" y2="502" stroke="#333" stroke-width="0.5"/>

  <text x="1600" y="525" class="table-head">Day          Activity                  Hours</text>
  <line x1="1600" y1="530" x2="1960" y2="530" stroke="#333" stroke-width="0.5"/>
  <text x="1600" y="548" class="table-cell">Monday       Content creation           ____</text>
  <text x="1600" y="566" class="table-cell">Tuesday      1:1 calls                  ____</text>
  <text x="1600" y="584" class="table-cell">Wednesday    Group coaching              ____</text>
  <text x="1600" y="602" class="table-cell">Thursday     1:1 calls                  ____</text>
  <text x="1600" y="620" class="table-cell">Friday       Admin + outreach            ____</text>
  <text x="1600" y="638" class="table-cell">Saturday     Course/content batch        ____</text>
  <text x="1600" y="656" class="table-cell">Sunday       Rest                       ----</text>

  <line x1="1600" y1="668" x2="1960" y2="668" stroke="#333" stroke-width="0.5"/>
  <text x="1600" y="688" class="body">Max client hours/week: ____</text>
  <text x="1600" y="708" class="body">Content hours/week: ____</text>
  <text x="1600" y="728" class="body">Total work hours/week: ____</text>

  <!-- ============================================ -->
  <!-- Revenue Calculator (full bottom) -->
  <!-- ============================================ -->

  <rect x="60" y="760" width="1920" height="160" rx="3" fill="none" stroke="#fff" stroke-width="1"/>
  <text x="1020" y="790" text-anchor="middle" class="section-title">REVENUE CALCULATOR</text>
  <line x1="80" y1="802" x2="1960" y2="802" stroke="#333" stroke-width="0.5"/>

  <text x="80" y="828" class="table-head">Offer             Price      Clients    Frequency     Monthly       Annual</text>
  <line x1="80" y1="835" x2="1960" y2="835" stroke="#333" stroke-width="0.5"/>
  <text x="80" y="855" class="table-cell">1:1 Coaching      $____      ____       /month        $________     $________</text>
  <text x="80" y="875" class="table-cell">Group Program     $____      ____       /month        $________     $________</text>
  <text x="80" y="895" class="table-cell">Course            $____      ____       /month        $________     $________</text>
  <text x="80" y="915" class="table-cell">Community         $____      ____       /month        $________     $________</text>

  <line x1="1400" y1="810" x2="1400" y2="915" stroke="#333" stroke-width="0.5"/>
  <text x="1420" y="835" class="body">TOTAL MONTHLY:</text>
  <text x="1420" y="860" class="accent">$________</text>
  <text x="1420" y="888" class="body">TOTAL ANNUAL:</text>
  <text x="1420" y="913" class="accent">$________</text>

  <!-- Footer -->
  <line x1="80" y1="935" x2="2320" y2="935" stroke="#333" stroke-width="0.5"/>
  <text x="80" y="955" class="small">Coach: ___________________    Niche: ___________________    Start Date: __________    Status: [ ] Planning  [ ] First Clients  [ ] Full  [ ] Scaling</text>
  <text x="1200" y="975" text-anchor="middle" class="small">behike.co</text>

</svg>