<?xml version="1.0" encoding="UTF-8"?>
<svg xmlns="http://www.w3.org/2000/svg" viewBox="0 0 2550 3300" width="2550" height="3300">
  <defs>
    <style>
      text { font-family: 'Helvetica Neue', Helvetica, Arial, sans-serif; fill: #ffffff; }
      .title { font-size: 56px; font-weight: 700; letter-spacing: 3px; }
      .subtitle { font-size: 24px; fill: #999999; letter-spacing: 2px; font-weight: 300; }
      .section-title { font-size: 32px; font-weight: 700; fill: #007AFF; letter-spacing: 1px; }
      .section-num { font-size: 28px; font-weight: 300; fill: #007AFF; letter-spacing: 2px; }
      .body { font-size: 18px; fill: #999999; }
      .body-white { font-size: 18px; fill: #ffffff; }
      .body-bold { font-size: 18px; fill: #ffffff; font-weight: 600; }
      .small { font-size: 15px; fill: #999999; }
      .small-white { font-size: 15px; fill: #ffffff; }
      .checkbox { font-size: 16px; fill: #999999; }
      .metric-value { font-size: 36px; font-weight: 700; fill: #ffffff; }
      .metric-label { font-size: 14px; fill: #999999; letter-spacing: 1px; text-transform: uppercase; }
      .hub-label { font-size: 20px; font-weight: 600; fill: #ffffff; }
      .tier-title { font-size: 22px; font-weight: 700; fill: #007AFF; }
      .price { font-size: 28px; font-weight: 700; fill: #ffffff; }
      .footer { font-size: 16px; fill: #999999; letter-spacing: 3px; }
    </style>
  </defs>

  <rect width="2550" height="3300" fill="#000000"/>
  <rect x="40" y="40" width="2470" height="3220" fill="none" stroke="#333333" stroke-width="1"/>

  <!-- Header -->
  <text x="1275" y="130" text-anchor="middle" class="title">AI AUTOMATION AGENCY</text>
  <text x="1275" y="185" text-anchor="middle" class="title">BLUEPRINT</text>
  <line x1="400" y1="210" x2="2150" y2="210" stroke="#007AFF" stroke-width="2"/>
  <text x="1275" y="250" text-anchor="middle" class="subtitle">SELL AI WORKFLOWS, CHATBOTS, AND AGENTS TO BUSINESSES</text>

  <!-- ===================== -->
  <!-- SECTION 1: SERVICE MENU (Hub-Spoke) -->
  <!-- ===================== -->
  <text x="100" y="330" class="section-num">01</text>
  <text x="160" y="330" class="section-title">SERVICE MENU</text>
  <line x1="100" y1="345" x2="1200" y2="345" stroke="#007AFF" stroke-width="1"/>

  <circle cx="640" cy="540" r="75" fill="none" stroke="#007AFF" stroke-width="2"/>
  <text x="640" y="534" text-anchor="middle" class="hub-label">AI</text>
  <text x="640" y="558" text-anchor="middle" class="hub-label">SERVICES</text>

  <!-- Spoke: Chatbots -->
  <line x1="565" y1="520" x2="200" y2="420" stroke="#333333" stroke-width="1"/>
  <circle cx="200" cy="420" r="5" fill="#007AFF"/>
  <rect x="100" y="385" width="220" height="70" rx="4" fill="none" stroke="#ffffff" stroke-width="1"/>
  <text x="210" y="415" text-anchor="middle" class="body-bold">AI Chatbots</text>
  <text x="210" y="440" text-anchor="middle" class="small">$500 - $2,000</text>

  <!-- Spoke: Workflows -->
  <line x1="575" y1="490" x2="250" y2="540" stroke="#333333" stroke-width="1"/>
  <circle cx="250" cy="540" r="5" fill="#007AFF"/>
  <rect x="100" y="510" width="220" height="70" rx="4" fill="none" stroke="#ffffff" stroke-width="1"/>
  <text x="210" y="540" text-anchor="middle" class="body-bold">n8n Workflows</text>
  <text x="210" y="565" text-anchor="middle" class="small">$1,000 - $5,000</text>

  <!-- Spoke: Agents -->
  <line x1="580" y1="600" x2="250" y2="660" stroke="#333333" stroke-width="1"/>
  <circle cx="250" cy="660" r="5" fill="#007AFF"/>
  <rect x="100" y="630" width="220" height="70" rx="4" fill="none" stroke="#ffffff" stroke-width="1"/>
  <text x="210" y="660" text-anchor="middle" class="body-bold">AI Agents</text>
  <text x="210" y="685" text-anchor="middle" class="small">$2,000 - $10,000</text>

  <!-- Spoke: Data Pipelines -->
  <line x1="715" y1="520" x2="1060" y2="420" stroke="#333333" stroke-width="1"/>
  <circle cx="1060" cy="420" r="5" fill="#007AFF"/>
  <rect x="940" y="385" width="240" height="70" rx="4" fill="none" stroke="#ffffff" stroke-width="1"/>
  <text x="1060" y="415" text-anchor="middle" class="body-bold">Data Pipelines</text>
  <text x="1060" y="440" text-anchor="middle" class="small">$1,500 - $8,000</text>

  <!-- Spoke: Voice AI -->
  <line x1="715" y1="550" x2="1060" y2="540" stroke="#333333" stroke-width="1"/>
  <circle cx="1060" cy="540" r="5" fill="#007AFF"/>
  <rect x="940" y="510" width="240" height="70" rx="4" fill="none" stroke="#ffffff" stroke-width="1"/>
  <text x="1060" y="540" text-anchor="middle" class="body-bold">Voice AI</text>
  <text x="1060" y="565" text-anchor="middle" class="small">$1,000 - $5,000</text>

  <!-- Spoke: Content AI -->
  <line x1="700" y1="600" x2="1060" y2="660" stroke="#333333" stroke-width="1"/>
  <circle cx="1060" cy="660" r="5" fill="#007AFF"/>
  <rect x="940" y="630" width="240" height="70" rx="4" fill="none" stroke="#ffffff" stroke-width="1"/>
  <text x="1060" y="660" text-anchor="middle" class="body-bold">Content Automation</text>
  <text x="1060" y="685" text-anchor="middle" class="small">$800 - $3,000</text>

  <!-- ===================== -->
  <!-- SECTION 2: PRICING TIERS -->
  <!-- ===================== -->
  <text x="1350" y="330" class="section-num">02</text>
  <text x="1410" y="330" class="section-title">PRICING TIERS</text>
  <line x1="1350" y1="345" x2="2450" y2="345" stroke="#007AFF" stroke-width="1"/>

  <!-- Starter Tier -->
  <rect x="1350" y="370" width="340" height="340" rx="6" fill="none" stroke="#ffffff" stroke-width="1"/>
  <text x="1520" y="410" text-anchor="middle" class="tier-title">STARTER</text>
  <text x="1520" y="450" text-anchor="middle" class="price">$500/mo</text>
  <line x1="1380" y1="465" x2="1660" y2="465" stroke="#333333" stroke-width="0.5"/>
  <text x="1400" y="498" class="small">1 chatbot deployment</text>
  <text x="1400" y="523" class="small">Basic n8n workflow</text>
  <text x="1400" y="548" class="small">Email support</text>
  <text x="1400" y="573" class="small">Monthly check-in</text>
  <text x="1400" y="598" class="small">1 revision per month</text>
  <rect x="1400" y="660" width="200" height="35" rx="4" fill="#007AFF" opacity="0.2"/>
  <text x="1500" y="683" text-anchor="middle" class="small-white">BEST FOR: Solopreneurs</text>

  <!-- Growth Tier -->
  <rect x="1720" y="370" width="340" height="340" rx="6" fill="none" stroke="#007AFF" stroke-width="2"/>
  <text x="1890" y="410" text-anchor="middle" class="tier-title">GROWTH</text>
  <text x="1890" y="450" text-anchor="middle" class="price">$2,000/mo</text>
  <line x1="1750" y1="465" x2="2030" y2="465" stroke="#333333" stroke-width="0.5"/>
  <text x="1770" y="498" class="small">3 automations</text>
  <text x="1770" y="523" class="small">AI agent deployment</text>
  <text x="1770" y="548" class="small">Priority support</text>
  <text x="1770" y="573" class="small">Weekly check-ins</text>
  <text x="1770" y="598" class="small">Unlimited revisions</text>
  <rect x="1770" y="660" width="200" height="35" rx="4" fill="#007AFF" opacity="0.3"/>
  <text x="1870" y="683" text-anchor="middle" class="small-white">MOST POPULAR</text>

  <!-- Enterprise Tier (below) -->
  <rect x="1350" y="730" width="710" height="70" rx="6" fill="none" stroke="#ffffff" stroke-width="1"/>
  <text x="1520" y="772" text-anchor="middle" class="tier-title">ENTERPRISE</text>
  <text x="1800" y="772" text-anchor="middle" class="price">$5,000+/mo</text>
  <text x="2000" y="772" class="small">Custom scope, dedicated support, SLA</text>

  <!-- ===================== -->
  <!-- SECTION 3: CLIENT ACQUISITION -->
  <!-- ===================== -->
  <text x="100" y="860" class="section-num">03</text>
  <text x="160" y="860" class="section-title">CLIENT ACQUISITION FUNNEL</text>
  <line x1="100" y1="875" x2="2450" y2="875" stroke="#007AFF" stroke-width="1"/>

  <!-- Funnel visualization -->
  <polygon points="400,920 2150,920 1950,1000 600,1000" fill="none" stroke="#007AFF" stroke-width="1.5"/>
  <text x="1275" y="970" text-anchor="middle" class="body-bold">AWARENESS: Social media, content, cold outreach</text>

  <polygon points="600,1010 1950,1010 1800,1090 750,1090" fill="none" stroke="#ffffff" stroke-width="1"/>
  <text x="1275" y="1060" text-anchor="middle" class="body-bold">INTEREST: Free audit, case studies, demos</text>

  <polygon points="750,1100 1800,1100 1680,1180 870,1180" fill="none" stroke="#ffffff" stroke-width="1"/>
  <text x="1275" y="1150" text-anchor="middle" class="body-bold">DECISION: Proposal, ROI projection, trial</text>

  <polygon points="870,1190 1680,1190 1580,1260 970,1260" fill="none" stroke="#007AFF" stroke-width="1.5"/>
  <text x="1275" y="1235" text-anchor="middle" class="body-bold">CLOSE: Contract, onboarding, payment</text>

  <!-- Acquisition channels checklist -->
  <text x="100" y="1330" class="body-bold">Lead Generation Channels</text>
  <rect x="100" y="1350" width="16" height="16" rx="2" fill="none" stroke="#999999" stroke-width="1"/>
  <text x="130" y="1364" class="checkbox">LinkedIn outreach (DMs + content)</text>
  <rect x="100" y="1380" width="16" height="16" rx="2" fill="none" stroke="#999999" stroke-width="1"/>
  <text x="130" y="1394" class="checkbox">YouTube tutorials / demos</text>
  <rect x="100" y="1410" width="16" height="16" rx="2" fill="none" stroke="#999999" stroke-width="1"/>
  <text x="130" y="1424" class="checkbox">Cold email campaigns</text>
  <rect x="100" y="1440" width="16" height="16" rx="2" fill="none" stroke="#999999" stroke-width="1"/>
  <text x="130" y="1454" class="checkbox">Referral partnerships</text>
  <rect x="100" y="1470" width="16" height="16" rx="2" fill="none" stroke="#999999" stroke-width="1"/>
  <text x="130" y="1484" class="checkbox">Local business networking</text>
  <rect x="100" y="1500" width="16" height="16" rx="2" fill="none" stroke="#999999" stroke-width="1"/>
  <text x="130" y="1514" class="checkbox">Free community / Discord</text>

  <!-- Conversion metrics -->
  <rect x="1350" y="1310" width="340" height="100" rx="4" fill="#111111"/>
  <text x="1520" y="1360" text-anchor="middle" class="metric-value">____%</text>
  <text x="1520" y="1390" text-anchor="middle" class="metric-label">LEAD TO CALL RATE</text>

  <rect x="1720" y="1310" width="340" height="100" rx="4" fill="#111111"/>
  <text x="1890" y="1360" text-anchor="middle" class="metric-value">____%</text>
  <text x="1890" y="1390" text-anchor="middle" class="metric-label">CALL TO CLOSE RATE</text>

  <rect x="1350" y="1430" width="340" height="100" rx="4" fill="#111111"/>
  <text x="1520" y="1480" text-anchor="middle" class="metric-value">$____</text>
  <text x="1520" y="1510" text-anchor="middle" class="metric-label">COST PER ACQUISITION</text>

  <rect x="1720" y="1430" width="340" height="100" rx="4" fill="#111111"/>
  <text x="1890" y="1480" text-anchor="middle" class="metric-value">$____</text>
  <text x="1890" y="1510" text-anchor="middle" class="metric-label">AVG CLIENT LTV</text>

  <!-- ===================== -->
  <!-- SECTION 4: DELIVERY PROCESS -->
  <!-- ===================== -->
  <text x="100" y="1610" class="section-num">04</text>
  <text x="160" y="1610" class="section-title">DELIVERY PROCESS</text>
  <line x1="100" y1="1625" x2="2450" y2="1625" stroke="#007AFF" stroke-width="1"/>

  <!-- Delivery flowchart -->
  <rect x="100" y="1660" width="320" height="80" rx="4" fill="none" stroke="#007AFF" stroke-width="1.5"/>
  <text x="260" y="1695" text-anchor="middle" class="body-bold">Discovery Call</text>
  <text x="260" y="1720" text-anchor="middle" class="small">Map pain points</text>

  <line x1="420" y1="1700" x2="490" y2="1700" stroke="#333333" stroke-width="1"/>
  <polygon points="485,1696 485,1704 493,1700" fill="#333333"/>

  <rect x="495" y="1660" width="320" height="80" rx="4" fill="none" stroke="#ffffff" stroke-width="1"/>
  <text x="655" y="1695" text-anchor="middle" class="body-bold">Audit + Proposal</text>
  <text x="655" y="1720" text-anchor="middle" class="small">Free process audit</text>

  <line x1="815" y1="1700" x2="885" y2="1700" stroke="#333333" stroke-width="1"/>
  <polygon points="880,1696 880,1704 888,1700" fill="#333333"/>

  <rect x="890" y="1660" width="320" height="80" rx="4" fill="none" stroke="#ffffff" stroke-width="1"/>
  <text x="1050" y="1695" text-anchor="middle" class="body-bold">Build + Test</text>
  <text x="1050" y="1720" text-anchor="middle" class="small">2-4 week sprint</text>

  <line x1="1210" y1="1700" x2="1280" y2="1700" stroke="#333333" stroke-width="1"/>
  <polygon points="1275,1696 1275,1704 1283,1700" fill="#333333"/>

  <rect x="1285" y="1660" width="320" height="80" rx="4" fill="none" stroke="#ffffff" stroke-width="1"/>
  <text x="1445" y="1695" text-anchor="middle" class="body-bold">Deploy + Train</text>
  <text x="1445" y="1720" text-anchor="middle" class="small">Client handoff</text>

  <line x1="1605" y1="1700" x2="1675" y2="1700" stroke="#333333" stroke-width="1"/>
  <polygon points="1670,1696 1670,1704 1678,1700" fill="#333333"/>

  <rect x="1680" y="1660" width="320" height="80" rx="4" fill="none" stroke="#ffffff" stroke-width="1"/>
  <text x="1840" y="1695" text-anchor="middle" class="body-bold">Optimize</text>
  <text x="1840" y="1720" text-anchor="middle" class="small">30-day review</text>

  <line x1="2000" y1="1700" x2="2070" y2="1700" stroke="#333333" stroke-width="1"/>
  <polygon points="2065,1696 2065,1704 2073,1700" fill="#333333"/>

  <rect x="2075" y="1660" width="320" height="80" rx="4" fill="none" stroke="#007AFF" stroke-width="1.5"/>
  <text x="2235" y="1695" text-anchor="middle" class="body-bold">Retainer</text>
  <text x="2235" y="1720" text-anchor="middle" class="small">Ongoing support</text>

  <!-- ===================== -->
  <!-- SECTION 5: TECH STACK -->
  <!-- ===================== -->
  <text x="100" y="1820" class="section-num">05</text>
  <text x="160" y="1820" class="section-title">TECH STACK</text>
  <line x1="100" y1="1835" x2="1200" y2="1835" stroke="#007AFF" stroke-width="1"/>

  <!-- Tech stack grid -->
  <rect x="100" y="1860" width="350" height="55" rx="4" fill="#111111"/>
  <text x="275" y="1895" text-anchor="middle" class="body-bold">n8n / Make / Zapier</text>

  <rect x="480" y="1860" width="350" height="55" rx="4" fill="#111111"/>
  <text x="655" y="1895" text-anchor="middle" class="body-bold">OpenAI / Claude / Gemini</text>

  <rect x="860" y="1860" width="350" height="55" rx="4" fill="#111111"/>
  <text x="1035" y="1895" text-anchor="middle" class="body-bold">Voiceflow / Botpress</text>

  <rect x="100" y="1935" width="350" height="55" rx="4" fill="#111111"/>
  <text x="275" y="1970" text-anchor="middle" class="body-bold">Supabase / Airtable</text>

  <rect x="480" y="1935" width="350" height="55" rx="4" fill="#111111"/>
  <text x="655" y="1970" text-anchor="middle" class="body-bold">Python / Node.js</text>

  <rect x="860" y="1935" width="350" height="55" rx="4" fill="#111111"/>
  <text x="1035" y="1970" text-anchor="middle" class="body-bold">Playwright / Selenium</text>

  <rect x="100" y="2010" width="350" height="55" rx="4" fill="#111111"/>
  <text x="275" y="2045" text-anchor="middle" class="body-bold">Vercel / Railway</text>

  <rect x="480" y="2010" width="350" height="55" rx="4" fill="#111111"/>
  <text x="655" y="2045" text-anchor="middle" class="body-bold">Stripe / LemonSqueezy</text>

  <rect x="860" y="2010" width="350" height="55" rx="4" fill="#111111"/>
  <text x="1035" y="2045" text-anchor="middle" class="body-bold">GitHub / Docker</text>

  <!-- ===================== -->
  <!-- SECTION 6: SCALING -->
  <!-- ===================== -->
  <text x="1350" y="1820" class="section-num">06</text>
  <text x="1410" y="1820" class="section-title">SCALING STRATEGY</text>
  <line x1="1350" y1="1835" x2="2450" y2="1835" stroke="#007AFF" stroke-width="1"/>

  <!-- Scaling phases -->
  <line x1="1500" y1="1880" x2="1500" y2="2250" stroke="#333333" stroke-width="2"/>

  <circle cx="1500" cy="1900" r="8" fill="#007AFF"/>
  <text x="1530" y="1895" class="body-bold">Phase 1: Solo Operator</text>
  <text x="1530" y="1920" class="small">$0-$5K/mo. You do everything.</text>

  <circle cx="1500" cy="1980" r="8" fill="#007AFF"/>
  <text x="1530" y="1975" class="body-bold">Phase 2: First Hire</text>
  <text x="1530" y="2000" class="small">$5K-$15K/mo. VA or junior dev.</text>

  <circle cx="1500" cy="2060" r="8" fill="#007AFF"/>
  <text x="1530" y="2055" class="body-bold">Phase 3: Small Team</text>
  <text x="1530" y="2080" class="small">$15K-$50K/mo. 3-5 people.</text>

  <circle cx="1500" cy="2140" r="8" fill="#007AFF"/>
  <text x="1530" y="2135" class="body-bold">Phase 4: Agency</text>
  <text x="1530" y="2160" class="small">$50K+/mo. Productized services.</text>

  <circle cx="1500" cy="2220" r="8" fill="#007AFF"/>
  <text x="1530" y="2215" class="body-bold">Phase 5: SaaS Pivot</text>
  <text x="1530" y="2240" class="small">$100K+/mo. Recurring product.</text>

  <!-- Progress bars for scaling -->
  <text x="1350" y="2310" class="body-bold">Growth Metrics</text>

  <text x="1350" y="2345" class="small">Revenue</text>
  <rect x="1500" y="2333" width="600" height="14" rx="7" fill="#222222"/>
  <rect x="1500" y="2333" width="0" height="14" rx="7" fill="#007AFF"/>
  <text x="2120" y="2346" class="small-white">$____/mo</text>

  <text x="1350" y="2380" class="small">Clients</text>
  <rect x="1500" y="2368" width="600" height="14" rx="7" fill="#222222"/>
  <rect x="1500" y="2368" width="0" height="14" rx="7" fill="#007AFF"/>
  <text x="2120" y="2381" class="small-white">____</text>

  <text x="1350" y="2415" class="small">MRR</text>
  <rect x="1500" y="2403" width="600" height="14" rx="7" fill="#222222"/>
  <rect x="1500" y="2403" width="0" height="14" rx="7" fill="#007AFF"/>
  <text x="2120" y="2416" class="small-white">$____</text>

  <text x="1350" y="2450" class="small">Churn</text>
  <rect x="1500" y="2438" width="600" height="14" rx="7" fill="#222222"/>
  <rect x="1500" y="2438" width="0" height="14" rx="7" fill="#007AFF"/>
  <text x="2120" y="2451" class="small-white">____%</text>

  <!-- Revenue Tracker -->
  <text x="100" y="2150" class="section-num">REVENUE TRACKER</text>
  <line x1="100" y1="2165" x2="1200" y2="2165" stroke="#007AFF" stroke-width="1"/>

  <rect x="100" y="2190" width="530" height="100" rx="4" fill="#111111"/>
  <text x="365" y="2240" text-anchor="middle" class="metric-value">$____</text>
  <text x="365" y="2270" text-anchor="middle" class="metric-label">MONTHLY RECURRING REVENUE</text>

  <rect x="660" y="2190" width="530" height="100" rx="4" fill="#111111"/>
  <text x="925" y="2240" text-anchor="middle" class="metric-value">$____</text>
  <text x="925" y="2270" text-anchor="middle" class="metric-label">ONE-TIME PROJECT REVENUE</text>

  <!-- Monthly tracker -->
  <rect x="100" y="2320" width="1100" height="40" rx="0" fill="#111111"/>
  <text x="200" y="2346" text-anchor="middle" class="body-bold">MONTH</text>
  <text x="400" y="2346" text-anchor="middle" class="body-bold">CLIENTS</text>
  <text x="600" y="2346" text-anchor="middle" class="body-bold">MRR</text>
  <text x="800" y="2346" text-anchor="middle" class="body-bold">PROJECTS</text>
  <text x="1050" y="2346" text-anchor="middle" class="body-bold">TOTAL REV</text>

  <line x1="100" y1="2360" x2="1200" y2="2360" stroke="#333333" stroke-width="0.5"/>
  <text x="200" y="2388" text-anchor="middle" class="body">Month 1</text>
  <text x="400" y="2388" text-anchor="middle" class="body">____</text>
  <text x="600" y="2388" text-anchor="middle" class="body">$____</text>
  <text x="800" y="2388" text-anchor="middle" class="body">____</text>
  <text x="1050" y="2388" text-anchor="middle" class="body">$____</text>

  <line x1="100" y1="2405" x2="1200" y2="2405" stroke="#222222" stroke-width="0.5"/>
  <text x="200" y="2433" text-anchor="middle" class="body">Month 2</text>
  <text x="400" y="2433" text-anchor="middle" class="body">____</text>
  <text x="600" y="2433" text-anchor="middle" class="body">$____</text>
  <text x="800" y="2433" text-anchor="middle" class="body">____</text>
  <text x="1050" y="2433" text-anchor="middle" class="body">$____</text>

  <line x1="100" y1="2450" x2="1200" y2="2450" stroke="#222222" stroke-width="0.5"/>
  <text x="200" y="2478" text-anchor="middle" class="body">Month 3</text>
  <text x="400" y="2478" text-anchor="middle" class="body">____</text>
  <text x="600" y="2478" text-anchor="middle" class="body">$____</text>
  <text x="800" y="2478" text-anchor="middle" class="body">____</text>
  <text x="1050" y="2478" text-anchor="middle" class="body">$____</text>

  <!-- Footer -->
  <line x1="100" y1="3200" x2="2450" y2="3200" stroke="#333333" stroke-width="0.5"/>
  <text x="1275" y="3240" text-anchor="middle" class="footer">behike.co</text>
</svg>