<?xml version="1.0" encoding="UTF-8"?>
<svg xmlns="http://www.w3.org/2000/svg" viewBox="0 0 2550 3300" width="2550" height="3300">
  <defs>
    <style>
      text { font-family: 'Helvetica Neue', Helvetica, Arial, sans-serif; fill: #fff; }
      .title { font-size: 56px; font-weight: 300; letter-spacing: 6px; }
      .subtitle { font-size: 20px; fill: #999; letter-spacing: 3px; font-weight: 300; }
      .section-title { font-size: 32px; font-weight: 500; letter-spacing: 1px; }
      .body { font-size: 18px; fill: #999; font-weight: 400; }
      .body-white { font-size: 18px; fill: #fff; font-weight: 400; }
      .label { font-size: 14px; fill: #999; letter-spacing: 1px; text-transform: uppercase; font-weight: 500; }
      .checkbox { font-size: 18px; fill: #999; font-weight: 300; }
      .table-head { font-size: 16px; font-weight: 600; fill: #fff; }
      .table-cell { font-size: 15px; fill: #999; font-weight: 300; }
      .hub-label { font-size: 28px; font-weight: 600; letter-spacing: 3px; }
      .hub-sub { font-size: 14px; fill: #999; letter-spacing: 2px; font-weight: 300; }
      .kpi-value { font-size: 22px; fill: #999; font-weight: 300; letter-spacing: 1px; }
      .kpi-label { font-size: 16px; fill: #fff; font-weight: 500; }
      .brand { font-size: 16px; fill: #666; letter-spacing: 4px; font-weight: 300; }
      .accent-text { fill: #007AFF; font-size: 14px; font-weight: 600; letter-spacing: 1px; }
      .tier-label { font-size: 20px; font-weight: 500; }
    </style>
  </defs>

  <!-- Background -->
  <rect width="2550" height="3300" fill="#000"/>
  <rect x="60" y="60" width="2430" height="3180" fill="none" stroke="#222" stroke-width="1"/>

  <!-- Header -->
  <text x="1275" y="160" text-anchor="middle" class="title">CONTENT CREATOR BLUEPRINT</text>
  <rect x="475" y="180" width="1600" height="3" rx="1.5" fill="#007AFF" opacity="0.6"/>
  <text x="1275" y="220" text-anchor="middle" class="subtitle">BUILD AN AUDIENCE. MONETIZE YOUR KNOWLEDGE. OWN YOUR INCOME.</text>

  <!-- Central Hub -->
  <circle cx="1275" cy="520" r="110" fill="none" stroke="#fff" stroke-width="2"/>
  <circle cx="1275" cy="520" r="105" fill="none" stroke="#222" stroke-width="0.5"/>
  <text x="1275" y="510" text-anchor="middle" class="hub-label">YOUR</text>
  <text x="1275" y="545" text-anchor="middle" class="hub-label">BRAND</text>
  <text x="1275" y="572" text-anchor="middle" class="hub-sub">( center )</text>

  <!-- ============================================ -->
  <!-- SECTION 1: Niche Selection (top-left) -->
  <!-- ============================================ -->
  <path d="M 1170,430 C 950,350 700,300 540,280" fill="none" stroke="#555" stroke-width="1" stroke-dasharray="6,4"/>
  <circle cx="540" cy="280" r="4" fill="#555"/>

  <rect x="100" y="270" width="640" height="360" rx="6" fill="none" stroke="#fff" stroke-width="1"/>
  <text x="420" y="320" text-anchor="middle" class="section-title">01  Niche Selection</text>
  <rect x="200" y="335" width="440" height="2" rx="1" fill="#007AFF" opacity="0.5"/>

  <text x="130" y="375" class="body">Primary Niche</text>
  <rect x="340" y="356" width="370" height="28" rx="4" fill="none" stroke="#333" stroke-width="0.5"/>

  <text x="130" y="420" class="body">Sub-Niche</text>
  <rect x="340" y="401" width="370" height="28" rx="4" fill="none" stroke="#333" stroke-width="0.5"/>

  <text x="130" y="465" class="body">Target Audience</text>
  <rect x="130" y="478" width="580" height="40" rx="4" fill="none" stroke="#333" stroke-width="0.5"/>

  <text x="130" y="548" class="body">Validation</text>
  <text x="130" y="580" class="checkbox">[ ] Demand exists (search volume)     [ ] Competition is beatable</text>
  <text x="130" y="612" class="checkbox">[ ] You have expertise/passion        [ ] Monetizable</text>

  <!-- ============================================ -->
  <!-- SECTION 2: Platform Strategy (top-right) -->
  <!-- ============================================ -->
  <path d="M 1380,430 C 1600,350 1850,300 2010,280" fill="none" stroke="#555" stroke-width="1" stroke-dasharray="6,4"/>
  <circle cx="2010" cy="280" r="4" fill="#555"/>

  <rect x="1810" y="270" width="640" height="360" rx="6" fill="none" stroke="#fff" stroke-width="1"/>
  <text x="2130" y="320" text-anchor="middle" class="section-title">02  Platform Strategy</text>
  <rect x="1930" y="335" width="400" height="2" rx="1" fill="#007AFF" opacity="0.5"/>

  <!-- Three platform tiers -->
  <rect x="1840" y="365" width="190" height="90" rx="8" fill="none" stroke="#007AFF" stroke-width="1.5"/>
  <text x="1935" y="400" text-anchor="middle" class="body-white">PRIMARY</text>
  <text x="1935" y="425" text-anchor="middle" class="body">Main content home</text>
  <rect x="1860" y="435" width="150" height="18" rx="4" fill="none" stroke="#333" stroke-width="0.5"/>

  <rect x="2055" y="365" width="190" height="90" rx="8" fill="none" stroke="#fff" stroke-width="1"/>
  <text x="2150" y="400" text-anchor="middle" class="body-white">SECONDARY</text>
  <text x="2150" y="425" text-anchor="middle" class="body">Repurpose + reach</text>
  <rect x="2075" y="435" width="150" height="18" rx="4" fill="none" stroke="#333" stroke-width="0.5"/>

  <rect x="2270" y="365" width="160" height="90" rx="8" fill="none" stroke="#fff" stroke-width="1"/>
  <text x="2350" y="400" text-anchor="middle" class="body-white">COMMUNITY</text>
  <text x="2350" y="425" text-anchor="middle" class="body">Deep engagement</text>
  <rect x="2290" y="435" width="120" height="18" rx="4" fill="none" stroke="#333" stroke-width="0.5"/>

  <!-- Flow arrows -->
  <line x1="2030" y1="410" x2="2055" y2="410" stroke="#007AFF" stroke-width="1"/>
  <line x1="2245" y1="410" x2="2270" y2="410" stroke="#007AFF" stroke-width="1"/>

  <text x="1840" y="500" class="body">Posting Schedule</text>
  <text x="1840" y="535" class="checkbox">[ ] Daily     [ ] 3x/week     [ ] Weekly     [ ] Bi-weekly</text>

  <text x="1840" y="575" class="body">Content Pillar Topics</text>
  <rect x="1840" y="588" width="580" height="28" rx="4" fill="none" stroke="#333" stroke-width="0.5"/>

  <!-- ============================================ -->
  <!-- SECTION 3: Content System (mid-left) -->
  <!-- ============================================ -->
  <rect x="100" y="700" width="640" height="420" rx="6" fill="none" stroke="#fff" stroke-width="1"/>
  <text x="420" y="750" text-anchor="middle" class="section-title">03  Content System</text>
  <rect x="200" y="765" width="440" height="2" rx="1" fill="#007AFF" opacity="0.5"/>

  <text x="130" y="805" class="accent-text">CONTENT TYPES</text>
  <text x="130" y="840" class="checkbox">[ ] Long-form video     [ ] Short-form / Reels     [ ] Blog / Articles</text>
  <text x="130" y="875" class="checkbox">[ ] Podcast / Audio     [ ] Carousel / Graphics    [ ] Newsletter</text>

  <text x="130" y="920" class="accent-text">WORKFLOW</text>
  <!-- Flow diagram -->
  <rect x="130" y="940" width="110" height="40" rx="6" fill="none" stroke="#999" stroke-width="0.5"/>
  <text x="185" y="965" text-anchor="middle" class="label">IDEATE</text>
  <line x1="240" y1="960" x2="270" y2="960" stroke="#007AFF" stroke-width="1"/>
  <polygon points="267,956 277,960 267,964" fill="#007AFF"/>
  <rect x="280" y="940" width="110" height="40" rx="6" fill="none" stroke="#999" stroke-width="0.5"/>
  <text x="335" y="965" text-anchor="middle" class="label">CREATE</text>
  <line x1="390" y1="960" x2="420" y2="960" stroke="#007AFF" stroke-width="1"/>
  <polygon points="417,956 427,960 417,964" fill="#007AFF"/>
  <rect x="430" y="940" width="110" height="40" rx="6" fill="none" stroke="#999" stroke-width="0.5"/>
  <text x="485" y="965" text-anchor="middle" class="label">PUBLISH</text>
  <line x1="540" y1="960" x2="570" y2="960" stroke="#007AFF" stroke-width="1"/>
  <polygon points="567,956 577,960 567,964" fill="#007AFF"/>
  <rect x="580" y="940" width="130" height="40" rx="6" fill="none" stroke="#999" stroke-width="0.5"/>
  <text x="645" y="965" text-anchor="middle" class="label">REPURPOSE</text>

  <text x="130" y="1020" class="body">Tools Used</text>
  <rect x="130" y="1033" width="580" height="28" rx="4" fill="none" stroke="#333" stroke-width="0.5"/>

  <text x="130" y="1090" class="body">Batch Day(s)</text>
  <rect x="320" y="1071" width="390" height="28" rx="4" fill="none" stroke="#333" stroke-width="0.5"/>

  <!-- ============================================ -->
  <!-- SECTION 4: Audience Growth (mid-right) -->
  <!-- ============================================ -->
  <rect x="1810" y="700" width="640" height="420" rx="6" fill="none" stroke="#fff" stroke-width="1"/>
  <text x="2130" y="750" text-anchor="middle" class="section-title">04  Audience Growth</text>
  <rect x="1930" y="765" width="400" height="2" rx="1" fill="#007AFF" opacity="0.5"/>

  <text x="1840" y="805" class="accent-text">GROWTH LEVERS</text>
  <text x="1840" y="840" class="checkbox">[ ] SEO / Search optimization</text>
  <text x="1840" y="875" class="checkbox">[ ] Collaborations / Guest features</text>
  <text x="1840" y="910" class="checkbox">[ ] Paid ads (boosted posts / campaigns)</text>
  <text x="1840" y="945" class="checkbox">[ ] Community engagement</text>
  <text x="1840" y="980" class="checkbox">[ ] Viral / trend-based content</text>
  <text x="1840" y="1015" class="checkbox">[ ] Email list building</text>

  <text x="1840" y="1060" class="body">Email List Provider</text>
  <rect x="2100" y="1041" width="320" height="28" rx="4" fill="none" stroke="#333" stroke-width="0.5"/>

  <text x="1840" y="1100" class="body">Lead Magnet</text>
  <rect x="2010" y="1081" width="410" height="28" rx="4" fill="none" stroke="#333" stroke-width="0.5"/>

  <!-- ============================================ -->
  <!-- SECTION 5: Monetization Ladder (center) -->
  <!-- ============================================ -->
  <rect x="100" y="1190" width="2350" height="360" rx="6" fill="none" stroke="#fff" stroke-width="1"/>
  <text x="1275" y="1240" text-anchor="middle" class="section-title">05  Monetization Ladder</text>
  <rect x="875" y="1255" width="800" height="2" rx="1" fill="#007AFF" opacity="0.5"/>

  <!-- Ladder tiers -->
  <rect x="150" y="1290" width="400" height="110" rx="8" fill="none" stroke="#007AFF" stroke-width="1.5"/>
  <text x="350" y="1325" text-anchor="middle" class="tier-label">TIER 1: FREE</text>
  <text x="350" y="1355" text-anchor="middle" class="body">Lead magnets, free content</text>
  <rect x="180" y="1370" width="340" height="22" rx="4" fill="none" stroke="#333" stroke-width="0.5"/>

  <line x1="550" y1="1345" x2="610" y2="1345" stroke="#007AFF" stroke-width="1.5"/>
  <polygon points="607,1341 617,1345 607,1349" fill="#007AFF"/>

  <rect x="620" y="1290" width="400" height="110" rx="8" fill="none" stroke="#007AFF" stroke-width="1.5"/>
  <text x="820" y="1325" text-anchor="middle" class="tier-label">TIER 2: LOW ($)</text>
  <text x="820" y="1355" text-anchor="middle" class="body">Ebooks, templates, guides</text>
  <rect x="650" y="1370" width="340" height="22" rx="4" fill="none" stroke="#333" stroke-width="0.5"/>

  <line x1="1020" y1="1345" x2="1080" y2="1345" stroke="#007AFF" stroke-width="1.5"/>
  <polygon points="1077,1341 1087,1345 1077,1349" fill="#007AFF"/>

  <rect x="1090" y="1290" width="400" height="110" rx="8" fill="none" stroke="#007AFF" stroke-width="1.5"/>
  <text x="1290" y="1325" text-anchor="middle" class="tier-label">TIER 3: MID ($$)</text>
  <text x="1290" y="1355" text-anchor="middle" class="body">Courses, memberships</text>
  <rect x="1120" y="1370" width="340" height="22" rx="4" fill="none" stroke="#333" stroke-width="0.5"/>

  <line x1="1490" y1="1345" x2="1550" y2="1345" stroke="#007AFF" stroke-width="1.5"/>
  <polygon points="1547,1341 1557,1345 1547,1349" fill="#007AFF"/>

  <rect x="1560" y="1290" width="400" height="110" rx="8" fill="none" stroke="#fff" stroke-width="1.5"/>
  <text x="1760" y="1325" text-anchor="middle" class="tier-label">TIER 4: HIGH ($$$)</text>
  <text x="1760" y="1355" text-anchor="middle" class="body">Coaching, services, agency</text>
  <rect x="1590" y="1370" width="340" height="22" rx="4" fill="none" stroke="#333" stroke-width="0.5"/>

  <!-- Revenue estimates -->
  <text x="150" y="1440" class="checkbox">[ ] Tier 1 active     [ ] Tier 2 active     [ ] Tier 3 active     [ ] Tier 4 active</text>
  <text x="150" y="1480" class="body">Target Monthly Revenue</text>
  <rect x="460" y="1461" width="300" height="28" rx="4" fill="none" stroke="#333" stroke-width="0.5"/>
  <text x="820" y="1480" class="body">Current Monthly Revenue</text>
  <rect x="1130" y="1461" width="300" height="28" rx="4" fill="none" stroke="#333" stroke-width="0.5"/>

  <!-- ============================================ -->
  <!-- SECTION 6: Daily + Weekly Schedule -->
  <!-- ============================================ -->
  <rect x="100" y="1620" width="1150" height="380" rx="6" fill="none" stroke="#fff" stroke-width="1"/>
  <text x="675" y="1670" text-anchor="middle" class="section-title">06  Daily + Weekly Schedule</text>
  <rect x="325" y="1685" width="700" height="2" rx="1" fill="#007AFF" opacity="0.5"/>

  <text x="140" y="1730" class="accent-text">DAILY</text>
  <text x="140" y="1768" class="checkbox">[ ] Engage with community / comments               (30 min)</text>
  <text x="140" y="1803" class="checkbox">[ ] Create or edit content                          (90 min)</text>
  <text x="140" y="1838" class="checkbox">[ ] Post / schedule content                         (15 min)</text>
  <text x="140" y="1873" class="checkbox">[ ] Respond to DMs / emails                         (20 min)</text>

  <line x1="120" y1="1895" x2="1220" y2="1895" stroke="#333" stroke-width="0.5"/>

  <text x="140" y="1930" class="accent-text">WEEKLY</text>
  <text x="140" y="1965" class="checkbox">[ ] Batch content creation day                      (___day)</text>
  <text x="140" y="1995" class="checkbox">[ ] Analytics review + plan next week                (___day)</text>

  <!-- ============================================ -->
  <!-- SECTION 7: Brand Identity -->
  <!-- ============================================ -->
  <rect x="1300" y="1620" width="1150" height="380" rx="6" fill="none" stroke="#fff" stroke-width="1"/>
  <text x="1875" y="1670" text-anchor="middle" class="section-title">07  Brand Identity</text>
  <rect x="1575" y="1685" width="600" height="2" rx="1" fill="#007AFF" opacity="0.5"/>

  <text x="1340" y="1730" class="body">Brand Name</text>
  <rect x="1540" y="1711" width="480" height="28" rx="4" fill="none" stroke="#333" stroke-width="0.5"/>

  <text x="1340" y="1775" class="body">Tagline</text>
  <rect x="1540" y="1756" width="480" height="28" rx="4" fill="none" stroke="#333" stroke-width="0.5"/>

  <text x="1340" y="1820" class="body">Voice / Tone</text>
  <text x="1340" y="1855" class="checkbox">[ ] Professional     [ ] Casual     [ ] Educational     [ ] Inspirational</text>

  <text x="1340" y="1900" class="body">Visual Style</text>
  <text x="1340" y="1935" class="checkbox">[ ] Minimalist     [ ] Bold     [ ] Dark     [ ] Colorful     [ ] Neutral</text>

  <text x="1340" y="1975" class="body">Colors / Fonts</text>
  <rect x="1340" y="1988" width="680" height="28" rx="4" fill="none" stroke="#333" stroke-width="0.5"/>

  <!-- ============================================ -->
  <!-- GROWTH TRACKER TABLE -->
  <!-- ============================================ -->
  <rect x="100" y="2070" width="2350" height="380" rx="6" fill="none" stroke="#fff" stroke-width="1"/>
  <text x="1275" y="2120" text-anchor="middle" class="section-title">Growth Tracker</text>
  <rect x="875" y="2135" width="800" height="2" rx="1" fill="#007AFF" opacity="0.5"/>

  <text x="170" y="2175" class="table-head">METRIC</text>
  <text x="460" y="2175" text-anchor="middle" class="table-head">M1</text>
  <text x="620" y="2175" text-anchor="middle" class="table-head">M2</text>
  <text x="780" y="2175" text-anchor="middle" class="table-head">M3</text>
  <text x="940" y="2175" text-anchor="middle" class="table-head">M4</text>
  <text x="1100" y="2175" text-anchor="middle" class="table-head">M5</text>
  <text x="1260" y="2175" text-anchor="middle" class="table-head">M6</text>
  <text x="1420" y="2175" text-anchor="middle" class="table-head">M7</text>
  <text x="1580" y="2175" text-anchor="middle" class="table-head">M8</text>
  <text x="1740" y="2175" text-anchor="middle" class="table-head">M9</text>
  <text x="1900" y="2175" text-anchor="middle" class="table-head">M10</text>
  <text x="2060" y="2175" text-anchor="middle" class="table-head">M11</text>
  <text x="2220" y="2175" text-anchor="middle" class="table-head">M12</text>
  <line x1="130" y1="2188" x2="2420" y2="2188" stroke="#333" stroke-width="0.5"/>

  <text x="170" y="2225" class="table-cell">Followers</text>
  <text x="460" y="2225" text-anchor="middle" class="table-cell">________</text>
  <text x="620" y="2225" text-anchor="middle" class="table-cell">________</text>
  <text x="780" y="2225" text-anchor="middle" class="table-cell">________</text>
  <text x="940" y="2225" text-anchor="middle" class="table-cell">________</text>
  <text x="1100" y="2225" text-anchor="middle" class="table-cell">________</text>
  <text x="1260" y="2225" text-anchor="middle" class="table-cell">________</text>
  <text x="1420" y="2225" text-anchor="middle" class="table-cell">________</text>
  <text x="1580" y="2225" text-anchor="middle" class="table-cell">________</text>
  <text x="1740" y="2225" text-anchor="middle" class="table-cell">________</text>
  <text x="1900" y="2225" text-anchor="middle" class="table-cell">________</text>
  <text x="2060" y="2225" text-anchor="middle" class="table-cell">________</text>
  <text x="2220" y="2225" text-anchor="middle" class="table-cell">________</text>
  <line x1="130" y1="2240" x2="2420" y2="2240" stroke="#222" stroke-width="0.5"/>

  <text x="170" y="2275" class="table-cell">Email Subs</text>
  <text x="460" y="2275" text-anchor="middle" class="table-cell">________</text>
  <text x="620" y="2275" text-anchor="middle" class="table-cell">________</text>
  <text x="780" y="2275" text-anchor="middle" class="table-cell">________</text>
  <text x="940" y="2275" text-anchor="middle" class="table-cell">________</text>
  <text x="1100" y="2275" text-anchor="middle" class="table-cell">________</text>
  <text x="1260" y="2275" text-anchor="middle" class="table-cell">________</text>
  <text x="1420" y="2275" text-anchor="middle" class="table-cell">________</text>
  <text x="1580" y="2275" text-anchor="middle" class="table-cell">________</text>
  <text x="1740" y="2275" text-anchor="middle" class="table-cell">________</text>
  <text x="1900" y="2275" text-anchor="middle" class="table-cell">________</text>
  <text x="2060" y="2275" text-anchor="middle" class="table-cell">________</text>
  <text x="2220" y="2275" text-anchor="middle" class="table-cell">________</text>
  <line x1="130" y1="2290" x2="2420" y2="2290" stroke="#222" stroke-width="0.5"/>

  <text x="170" y="2325" class="table-cell">Revenue</text>
  <text x="460" y="2325" text-anchor="middle" class="table-cell">$_______</text>
  <text x="620" y="2325" text-anchor="middle" class="table-cell">$_______</text>
  <text x="780" y="2325" text-anchor="middle" class="table-cell">$_______</text>
  <text x="940" y="2325" text-anchor="middle" class="table-cell">$_______</text>
  <text x="1100" y="2325" text-anchor="middle" class="table-cell">$_______</text>
  <text x="1260" y="2325" text-anchor="middle" class="table-cell">$_______</text>
  <text x="1420" y="2325" text-anchor="middle" class="table-cell">$_______</text>
  <text x="1580" y="2325" text-anchor="middle" class="table-cell">$_______</text>
  <text x="1740" y="2325" text-anchor="middle" class="table-cell">$_______</text>
  <text x="1900" y="2325" text-anchor="middle" class="table-cell">$_______</text>
  <text x="2060" y="2325" text-anchor="middle" class="table-cell">$_______</text>
  <text x="2220" y="2325" text-anchor="middle" class="table-cell">$_______</text>
  <line x1="130" y1="2340" x2="2420" y2="2340" stroke="#fff" stroke-width="0.5"/>

  <text x="170" y="2375" class="table-cell">Engagement %</text>
  <text x="460" y="2375" text-anchor="middle" class="table-cell">______%</text>
  <text x="620" y="2375" text-anchor="middle" class="table-cell">______%</text>
  <text x="780" y="2375" text-anchor="middle" class="table-cell">______%</text>
  <text x="940" y="2375" text-anchor="middle" class="table-cell">______%</text>
  <text x="1100" y="2375" text-anchor="middle" class="table-cell">______%</text>
  <text x="1260" y="2375" text-anchor="middle" class="table-cell">______%</text>
  <text x="1420" y="2375" text-anchor="middle" class="table-cell">______%</text>
  <text x="1580" y="2375" text-anchor="middle" class="table-cell">______%</text>
  <text x="1740" y="2375" text-anchor="middle" class="table-cell">______%</text>
  <text x="1900" y="2375" text-anchor="middle" class="table-cell">______%</text>
  <text x="2060" y="2375" text-anchor="middle" class="table-cell">______%</text>
  <text x="2220" y="2375" text-anchor="middle" class="table-cell">______%</text>

  <!-- ============================================ -->
  <!-- KPI FOOTER -->
  <!-- ============================================ -->
  <line x1="100" y1="2520" x2="2450" y2="2520" stroke="#333" stroke-width="0.5"/>

  <rect x="100" y="2560" width="380" height="120" rx="8" fill="none" stroke="#333" stroke-width="1"/>
  <text x="290" y="2610" text-anchor="middle" class="kpi-label">STARTUP COST</text>
  <text x="290" y="2650" text-anchor="middle" class="kpi-value">$_______________</text>

  <rect x="530" y="2560" width="380" height="120" rx="8" fill="none" stroke="#333" stroke-width="1"/>
  <text x="720" y="2610" text-anchor="middle" class="kpi-label">FIRST $1K TARGET</text>
  <text x="720" y="2650" text-anchor="middle" class="kpi-value">Month ____</text>

  <rect x="960" y="2560" width="380" height="120" rx="8" fill="none" stroke="#333" stroke-width="1"/>
  <text x="1150" y="2610" text-anchor="middle" class="kpi-label">12-MO FOLLOWER GOAL</text>
  <text x="1150" y="2650" text-anchor="middle" class="kpi-value">_______________</text>

  <rect x="1390" y="2560" width="380" height="120" rx="8" fill="none" stroke="#333" stroke-width="1"/>
  <text x="1580" y="2610" text-anchor="middle" class="kpi-label">EMAIL LIST GOAL</text>
  <text x="1580" y="2650" text-anchor="middle" class="kpi-value">_______________</text>

  <rect x="1820" y="2560" width="380" height="120" rx="8" fill="none" stroke="#333" stroke-width="1"/>
  <text x="2010" y="2610" text-anchor="middle" class="kpi-label">12-MO REVENUE GOAL</text>
  <text x="2010" y="2650" text-anchor="middle" class="kpi-value">$_______________</text>

  <!-- Notes section -->
  <rect x="100" y="2740" width="2350" height="350" rx="6" fill="none" stroke="#333" stroke-width="1"/>
  <text x="1275" y="2790" text-anchor="middle" class="section-title">Notes</text>
  <rect x="975" y="2805" width="600" height="2" rx="1" fill="#007AFF" opacity="0.3"/>
  <line x1="150" y1="2840" x2="2400" y2="2840" stroke="#222" stroke-width="0.5"/>
  <line x1="150" y1="2880" x2="2400" y2="2880" stroke="#222" stroke-width="0.5"/>
  <line x1="150" y1="2920" x2="2400" y2="2920" stroke="#222" stroke-width="0.5"/>
  <line x1="150" y1="2960" x2="2400" y2="2960" stroke="#222" stroke-width="0.5"/>
  <line x1="150" y1="3000" x2="2400" y2="3000" stroke="#222" stroke-width="0.5"/>
  <line x1="150" y1="3040" x2="2400" y2="3040" stroke="#222" stroke-width="0.5"/>

  <!-- Brand footer -->
  <text x="1275" y="3180" text-anchor="middle" class="brand">BUSINESS BLUEPRINT PACK</text>
  <text x="1275" y="3210" text-anchor="middle" class="label">behike.co</text>

  <!-- Corner marks -->
  <line x1="80" y1="80" x2="105" y2="80" stroke="#333" stroke-width="0.5"/>
  <line x1="80" y1="80" x2="80" y2="105" stroke="#333" stroke-width="0.5"/>
  <line x1="2470" y1="80" x2="2445" y2="80" stroke="#333" stroke-width="0.5"/>
  <line x1="2470" y1="80" x2="2470" y2="105" stroke="#333" stroke-width="0.5"/>
  <line x1="80" y1="3220" x2="105" y2="3220" stroke="#333" stroke-width="0.5"/>
  <line x1="80" y1="3220" x2="80" y2="3195" stroke="#333" stroke-width="0.5"/>
  <line x1="2470" y1="3220" x2="2445" y2="3220" stroke="#333" stroke-width="0.5"/>
  <line x1="2470" y1="3220" x2="2470" y2="3195" stroke="#333" stroke-width="0.5"/>

</svg>