<?xml version="1.0" encoding="UTF-8"?>
<svg xmlns="http://www.w3.org/2000/svg" viewBox="0 0 2550 3300" width="2550" height="3300">
  <defs>
    <style>
      text { font-family: 'Helvetica Neue', Helvetica, Arial, sans-serif; fill: #fff; }
      .title { font-size: 56px; font-weight: bold; letter-spacing: 6px; }
      .subtitle { font-size: 24px; fill: #999; letter-spacing: 3px; }
      .section-title { font-size: 32px; font-weight: bold; letter-spacing: 2px; fill: #007AFF; }
      .body { font-size: 18px; fill: #999; }
      .body-white { font-size: 18px; fill: #fff; }
      .small { font-size: 15px; fill: #999; }
      .checkbox { font-size: 17px; fill: #999; }
      .table-head { font-size: 16px; font-weight: bold; fill: #fff; }
      .table-cell { font-size: 15px; fill: #999; }
      .hub-label { font-size: 28px; font-weight: bold; letter-spacing: 3px; }
      .price { font-size: 18px; fill: #999; letter-spacing: 2px; }
      .accent { fill: #007AFF; }
      .funnel-text { font-size: 16px; fill: #fff; }
    </style>
  </defs>

  <!-- Background -->
  <rect width="2550" height="3300" fill="#000"/>

  <!-- Border -->
  <rect x="40" y="40" width="2470" height="3220" fill="none" stroke="#333" stroke-width="1"/>
  <rect x="45" y="45" width="2460" height="3210" fill="none" stroke="#222" stroke-width="0.5"/>

  <!-- Header -->
  <text x="1275" y="120" text-anchor="middle" class="title">BLUEPRINT DE E-COMMERCE</text>
  <line x1="300" y1="145" x2="2250" y2="145" stroke="#007AFF" stroke-width="2"/>
  <text x="1275" y="185" text-anchor="middle" class="subtitle">TU SISTEMA OPERATIVO COMPLETO EN UN SOLO CANVAS</text>

  <!-- Central Hub -->
  <circle cx="1275" cy="520" r="120" fill="none" stroke="#007AFF" stroke-width="2"/>
  <circle cx="1275" cy="520" r="114" fill="none" stroke="#333" stroke-width="0.5"/>
  <text x="1275" y="508" text-anchor="middle" class="hub-label">TU</text>
  <text x="1275" y="540" text-anchor="middle" class="hub-label">TIENDA</text>
  <text x="1275" y="572" text-anchor="middle" class="small">( centro )</text>

  <!-- ============================================ -->
  <!-- SECTION 1: Fuentes de Productos (top-left) -->
  <!-- ============================================ -->

  <path d="M 1160,430 C 950,350 700,300 550,260" fill="none" stroke="#999" stroke-width="1" stroke-dasharray="5,5"/>
  <circle cx="550" cy="260" r="4" fill="#007AFF"/>

  <rect x="80" y="220" width="620" height="340" rx="4" fill="none" stroke="#fff" stroke-width="1"/>
  <text x="390" y="265" text-anchor="middle" class="section-title">01 / FUENTES DE PRODUCTOS</text>
  <line x1="110" y1="282" x2="670" y2="282" stroke="#333" stroke-width="0.5"/>

  <text x="110" y="315" class="body">Tipo de Suplidor:</text>
  <rect x="310" y="298" width="350" height="24" rx="3" fill="none" stroke="#333" stroke-width="0.5"/>

  <text x="110" y="355" class="checkbox">[ ] Mayorista    [ ] Dropship    [ ] Marca Propia</text>
  <text x="110" y="385" class="checkbox">[ ] Arbitraje    [ ] Liquidaci&#243;n    [ ] Thrift</text>

  <text x="110" y="420" class="body">Suplidor Principal:</text>
  <rect x="340" y="403" width="330" height="24" rx="3" fill="none" stroke="#333" stroke-width="0.5"/>

  <text x="110" y="460" class="body">Suplidor de Respaldo:</text>
  <rect x="360" y="443" width="310" height="24" rx="3" fill="none" stroke="#333" stroke-width="0.5"/>

  <text x="110" y="500" class="body">Criterios del Producto:</text>
  <text x="110" y="530" class="checkbox">[ ] Margen 30%+    [ ] Peso max 2lbs    [ ] Sin restricciones</text>

  <!-- ============================================ -->
  <!-- SECTION 2: Configuraci&#243;n de Tienda (top-right) -->
  <!-- ============================================ -->

  <path d="M 1390,430 C 1600,350 1800,300 2000,260" fill="none" stroke="#999" stroke-width="1" stroke-dasharray="5,5"/>
  <circle cx="2000" cy="260" r="4" fill="#007AFF"/>

  <rect x="1850" y="220" width="620" height="340" rx="4" fill="none" stroke="#fff" stroke-width="1"/>
  <text x="2160" y="265" text-anchor="middle" class="section-title">02 / CONFIGURACI&#211;N DE TIENDA</text>
  <line x1="1880" y1="282" x2="2440" y2="282" stroke="#333" stroke-width="0.5"/>

  <text x="1880" y="315" class="body">Plataforma:</text>
  <text x="1880" y="345" class="checkbox">[ ] Shopify    [ ] WooCommerce    [ ] eBay</text>
  <text x="1880" y="375" class="checkbox">[ ] Amazon     [ ] Etsy           [ ] Otra</text>

  <text x="1880" y="410" class="body">Nombre de Tienda:</text>
  <rect x="2120" y="393" width="340" height="24" rx="3" fill="none" stroke="#333" stroke-width="0.5"/>

  <text x="1880" y="450" class="body">Dominio:</text>
  <rect x="2020" y="433" width="440" height="24" rx="3" fill="none" stroke="#333" stroke-width="0.5"/>

  <text x="1880" y="490" class="body">Checklist de Setup:</text>
  <text x="1880" y="520" class="checkbox">[ ] Tema    [ ] Pagos    [ ] Envios    [ ] Legal</text>

  <!-- ============================================ -->
  <!-- SECTION 3: Canales de Marketing (left) -->
  <!-- ============================================ -->

  <path d="M 1155,520 C 900,520 700,530 560,540" fill="none" stroke="#999" stroke-width="1" stroke-dasharray="5,5"/>
  <circle cx="560" cy="540" r="4" fill="#007AFF"/>

  <rect x="80" y="610" width="560" height="380" rx="4" fill="none" stroke="#fff" stroke-width="1"/>
  <text x="360" y="655" text-anchor="middle" class="section-title">03 / CANALES DE MARKETING</text>
  <line x1="110" y1="672" x2="610" y2="672" stroke="#333" stroke-width="0.5"/>

  <!-- Funnel shape -->
  <polygon points="220,700 500,700 460,740 260,740" fill="none" stroke="#007AFF" stroke-width="1"/>
  <text x="360" y="726" text-anchor="middle" class="funnel-text">DESCUBRIMIENTO</text>

  <polygon points="260,750 460,750 430,790 290,790" fill="none" stroke="#007AFF" stroke-width="1"/>
  <text x="360" y="776" text-anchor="middle" class="funnel-text">CONSIDERACI&#211;N</text>

  <polygon points="290,800 430,800 410,840 310,840" fill="none" stroke="#007AFF" stroke-width="1"/>
  <text x="360" y="826" text-anchor="middle" class="funnel-text">CONVERSI&#211;N</text>

  <polygon points="310,850 410,850 400,890 320,890" fill="none" stroke="#007AFF" stroke-width="1"/>
  <text x="360" y="876" text-anchor="middle" class="funnel-text">RETENCI&#211;N</text>

  <text x="110" y="935" class="checkbox">[ ] SEO        [ ] Ads Pagados   [ ] Email</text>
  <text x="110" y="965" class="checkbox">[ ] Redes      [ ] Influencers   [ ] Contenido</text>

  <!-- ============================================ -->
  <!-- SECTION 4: Cumplimiento (right) -->
  <!-- ============================================ -->

  <path d="M 1395,520 C 1650,520 1900,530 2050,540" fill="none" stroke="#999" stroke-width="1" stroke-dasharray="5,5"/>
  <circle cx="2050" cy="540" r="4" fill="#007AFF"/>

  <rect x="1850" y="610" width="620" height="380" rx="4" fill="none" stroke="#fff" stroke-width="1"/>
  <text x="2160" y="655" text-anchor="middle" class="section-title">04 / CUMPLIMIENTO</text>
  <line x1="1880" y1="672" x2="2440" y2="672" stroke="#333" stroke-width="0.5"/>

  <text x="1880" y="705" class="body">M&#233;todo:</text>
  <text x="1880" y="735" class="checkbox">[ ] Tu mismo    [ ] 3PL    [ ] Dropship</text>

  <text x="1880" y="770" class="body">Proveedor de Envios:</text>
  <rect x="2140" y="753" width="320" height="24" rx="3" fill="none" stroke="#333" stroke-width="0.5"/>

  <text x="1880" y="810" class="body">Tiempo Promedio de Envio:</text>
  <rect x="2230" y="793" width="230" height="24" rx="3" fill="none" stroke="#333" stroke-width="0.5"/>

  <text x="1880" y="850" class="body">Empaque:</text>
  <rect x="2020" y="833" width="440" height="24" rx="3" fill="none" stroke="#333" stroke-width="0.5"/>

  <text x="1880" y="890" class="body">Flujo del Proceso:</text>
  <!-- Mini flow diagram -->
  <rect x="1880" y="905" width="110" height="34" rx="3" fill="none" stroke="#999" stroke-width="0.5"/>
  <text x="1935" y="927" text-anchor="middle" class="small">ORDEN</text>
  <text x="1998" y="923" class="small">&#8594;</text>
  <rect x="2020" y="905" width="110" height="34" rx="3" fill="none" stroke="#999" stroke-width="0.5"/>
  <text x="2075" y="927" text-anchor="middle" class="small">EMPACAR</text>
  <text x="2138" y="923" class="small">&#8594;</text>
  <rect x="2160" y="905" width="110" height="34" rx="3" fill="none" stroke="#999" stroke-width="0.5"/>
  <text x="2215" y="927" text-anchor="middle" class="small">ENVIAR</text>
  <text x="2278" y="923" class="small">&#8594;</text>
  <rect x="2300" y="905" width="130" height="34" rx="3" fill="none" stroke="#999" stroke-width="0.5"/>
  <text x="2365" y="927" text-anchor="middle" class="small">CONFIRMAR</text>

  <!-- ============================================ -->
  <!-- SECTION 5: Servicio al Cliente (bottom-left) -->
  <!-- ============================================ -->

  <path d="M 1200,640 C 1050,780 800,880 650,920" fill="none" stroke="#999" stroke-width="1" stroke-dasharray="5,5"/>
  <circle cx="650" cy="920" r="4" fill="#007AFF"/>

  <rect x="80" y="1050" width="620" height="310" rx="4" fill="none" stroke="#fff" stroke-width="1"/>
  <text x="390" y="1095" text-anchor="middle" class="section-title">05 / SERVICIO AL CLIENTE</text>
  <line x1="110" y1="1112" x2="670" y2="1112" stroke="#333" stroke-width="0.5"/>

  <text x="110" y="1145" class="body">Canales de Soporte:</text>
  <text x="110" y="1175" class="checkbox">[ ] Email    [ ] Chat en Vivo    [ ] Tel&#233;fono    [ ] Redes</text>

  <text x="110" y="1215" class="body">Meta de Tiempo de Respuesta:</text>
  <rect x="420" y="1198" width="260" height="24" rx="3" fill="none" stroke="#333" stroke-width="0.5"/>

  <text x="110" y="1255" class="body">Pol&#237;tica de Devoluci&#243;n:</text>
  <rect x="370" y="1238" width="310" height="24" rx="3" fill="none" stroke="#333" stroke-width="0.5"/>

  <text x="110" y="1295" class="body">FAQ Creado:</text>
  <text x="300" y="1295" class="checkbox">[ ] Si    [ ] En Progreso</text>

  <text x="110" y="1335" class="body">Estrategia de Reviews:</text>
  <text x="110" y="1340" class="checkbox">  </text>
  <text x="370" y="1335" class="checkbox">[ ] Auto-email    [ ] Tarjeta    [ ] Seguimiento</text>

  <!-- ============================================ -->
  <!-- SECTION 6: Flujos de Ingreso (bottom-right) -->
  <!-- ============================================ -->

  <path d="M 1350,640 C 1500,780 1750,880 1900,920" fill="none" stroke="#999" stroke-width="1" stroke-dasharray="5,5"/>
  <circle cx="1900" cy="920" r="4" fill="#007AFF"/>

  <rect x="1850" y="1050" width="620" height="310" rx="4" fill="none" stroke="#fff" stroke-width="1"/>
  <text x="2160" y="1095" text-anchor="middle" class="section-title">06 / FLUJOS DE INGRESO</text>
  <line x1="1880" y1="1112" x2="2440" y2="1112" stroke="#333" stroke-width="0.5"/>

  <text x="1880" y="1145" class="body">Ingreso Principal:</text>
  <rect x="2100" y="1128" width="360" height="24" rx="3" fill="none" stroke="#333" stroke-width="0.5"/>

  <text x="1880" y="1185" class="checkbox">[ ] Venta de Productos     Est: $______/mes</text>
  <text x="1880" y="1215" class="checkbox">[ ] Caja de Suscripci&#243;n    Est: $______/mes</text>
  <text x="1880" y="1245" class="checkbox">[ ] Productos Digitales    Est: $______/mes</text>
  <text x="1880" y="1275" class="checkbox">[ ] Ingreso por Afiliados  Est: $______/mes</text>
  <text x="1880" y="1305" class="checkbox">[ ] Mayorista/B2B          Est: $______/mes</text>
  <text x="1880" y="1335" class="body">________________________________</text>

  <!-- ============================================ -->
  <!-- SECTION 7: Estrategia de Crecimiento -->
  <!-- ============================================ -->

  <rect x="80" y="1420" width="1100" height="360" rx="4" fill="none" stroke="#fff" stroke-width="1"/>
  <text x="630" y="1465" text-anchor="middle" class="section-title">07 / ESTRATEGIA DE CRECIMIENTO</text>
  <line x1="110" y1="1482" x2="1150" y2="1482" stroke="#333" stroke-width="0.5"/>

  <!-- Growth phases -->
  <rect x="130" y="1510" width="200" height="70" rx="4" fill="none" stroke="#007AFF" stroke-width="1.5"/>
  <text x="230" y="1540" text-anchor="middle" class="body-white">FASE 1</text>
  <text x="230" y="1565" text-anchor="middle" class="small">Validar</text>

  <path d="M 330,1545 L 400,1545" fill="none" stroke="#999" stroke-width="1"/>
  <polygon points="395,1541 405,1545 395,1549" fill="#999"/>

  <rect x="410" y="1510" width="200" height="70" rx="4" fill="none" stroke="#007AFF" stroke-width="1.5"/>
  <text x="510" y="1540" text-anchor="middle" class="body-white">FASE 2</text>
  <text x="510" y="1565" text-anchor="middle" class="small">Optimizar</text>

  <path d="M 610,1545 L 680,1545" fill="none" stroke="#999" stroke-width="1"/>
  <polygon points="675,1541 685,1545 675,1549" fill="#999"/>

  <rect x="690" y="1510" width="200" height="70" rx="4" fill="none" stroke="#007AFF" stroke-width="1.5"/>
  <text x="790" y="1540" text-anchor="middle" class="body-white">FASE 3</text>
  <text x="790" y="1565" text-anchor="middle" class="small">Escalar</text>

  <text x="130" y="1625" class="checkbox">[ ] Primeras 10 ventas         Meta: ___________</text>
  <text x="130" y="1655" class="checkbox">[ ] Primeras 100 ventas        Meta: ___________</text>
  <text x="130" y="1685" class="checkbox">[ ] $1K/mes en ingresos        Meta: ___________</text>
  <text x="130" y="1715" class="checkbox">[ ] $5K/mes en ingresos        Meta: ___________</text>
  <text x="130" y="1745" class="checkbox">[ ] $10K/mes en ingresos       Meta: ___________</text>

  <!-- ============================================ -->
  <!-- SECTION 8: Horario Diario/Semanal -->
  <!-- ============================================ -->

  <rect x="1230" y="1420" width="1240" height="360" rx="4" fill="none" stroke="#fff" stroke-width="1"/>
  <text x="1850" y="1465" text-anchor="middle" class="section-title">08 / HORARIO DIARIO + SEMANAL</text>
  <line x1="1260" y1="1482" x2="2440" y2="1482" stroke="#333" stroke-width="0.5"/>

  <text x="1280" y="1515" class="body-white">DIARIO</text>
  <text x="1280" y="1545" class="checkbox">[ ] Revisar ordenes + enviar             (30 min)</text>
  <text x="1280" y="1575" class="checkbox">[ ] Bandeja de servicio al cliente        (30 min)</text>
  <text x="1280" y="1605" class="checkbox">[ ] Redes sociales / marketing           (45 min)</text>
  <text x="1280" y="1635" class="checkbox">[ ] Investigaci&#243;n de productos           (30 min)</text>

  <line x1="1260" y1="1655" x2="2440" y2="1655" stroke="#333" stroke-width="0.5"/>

  <text x="1280" y="1685" class="body-white">SEMANAL</text>
  <text x="1280" y="1715" class="checkbox">[ ] Revisar metricas + KPIs              (Lun)</text>
  <text x="1280" y="1745" class="checkbox">[ ] Restock / contactar suplidores       (Mar)</text>

  <line x1="1850" y1="1670" x2="1850" y2="1755" stroke="#333" stroke-width="0.5"/>
  <text x="1880" y="1715" class="checkbox">[ ] Creaci&#243;n de contenido    (Mie)</text>
  <text x="1880" y="1745" class="checkbox">[ ] Revisi&#243;n financiera      (Vie)</text>

  <!-- ============================================ -->
  <!-- REVENUE TRACKER TABLE -->
  <!-- ============================================ -->

  <rect x="80" y="1840" width="2390" height="340" rx="4" fill="none" stroke="#fff" stroke-width="1"/>
  <text x="1275" y="1885" text-anchor="middle" class="section-title">SEGUIMIENTO DE INGRESOS</text>
  <line x1="110" y1="1905" x2="2440" y2="1905" stroke="#007AFF" stroke-width="1"/>

  <!-- Table headers -->
  <text x="140" y="1935" class="table-head">M&#201;TRICA</text>
  <text x="420" y="1935" text-anchor="middle" class="table-head">MES 1</text>
  <text x="600" y="1935" text-anchor="middle" class="table-head">MES 2</text>
  <text x="780" y="1935" text-anchor="middle" class="table-head">MES 3</text>
  <text x="960" y="1935" text-anchor="middle" class="table-head">MES 4</text>
  <text x="1140" y="1935" text-anchor="middle" class="table-head">MES 5</text>
  <text x="1320" y="1935" text-anchor="middle" class="table-head">MES 6</text>
  <text x="1500" y="1935" text-anchor="middle" class="table-head">MES 7</text>
  <text x="1680" y="1935" text-anchor="middle" class="table-head">MES 8</text>
  <text x="1860" y="1935" text-anchor="middle" class="table-head">MES 9</text>
  <text x="2040" y="1935" text-anchor="middle" class="table-head">MES 10</text>
  <text x="2220" y="1935" text-anchor="middle" class="table-head">MES 11</text>
  <text x="2380" y="1935" text-anchor="middle" class="table-head">MES 12</text>

  <line x1="110" y1="1948" x2="2440" y2="1948" stroke="#333" stroke-width="0.5"/>

  <!-- Row 1: Ingresos -->
  <text x="140" y="1975" class="table-cell">Ingresos</text>
  <text x="420" y="1975" text-anchor="middle" class="table-cell">$_______</text>
  <text x="600" y="1975" text-anchor="middle" class="table-cell">$_______</text>
  <text x="780" y="1975" text-anchor="middle" class="table-cell">$_______</text>
  <text x="960" y="1975" text-anchor="middle" class="table-cell">$_______</text>
  <text x="1140" y="1975" text-anchor="middle" class="table-cell">$_______</text>
  <text x="1320" y="1975" text-anchor="middle" class="table-cell">$_______</text>
  <text x="1500" y="1975" text-anchor="middle" class="table-cell">$_______</text>
  <text x="1680" y="1975" text-anchor="middle" class="table-cell">$_______</text>
  <text x="1860" y="1975" text-anchor="middle" class="table-cell">$_______</text>
  <text x="2040" y="1975" text-anchor="middle" class="table-cell">$_______</text>
  <text x="2220" y="1975" text-anchor="middle" class="table-cell">$_______</text>
  <text x="2380" y="1975" text-anchor="middle" class="table-cell">$_______</text>
  <line x1="110" y1="1985" x2="2440" y2="1985" stroke="#222" stroke-width="0.5"/>

  <!-- Row 2: Costo -->
  <text x="140" y="2012" class="table-cell">Costo (COGS)</text>
  <text x="420" y="2012" text-anchor="middle" class="table-cell">$_______</text>
  <text x="600" y="2012" text-anchor="middle" class="table-cell">$_______</text>
  <text x="780" y="2012" text-anchor="middle" class="table-cell">$_______</text>
  <text x="960" y="2012" text-anchor="middle" class="table-cell">$_______</text>
  <text x="1140" y="2012" text-anchor="middle" class="table-cell">$_______</text>
  <text x="1320" y="2012" text-anchor="middle" class="table-cell">$_______</text>
  <text x="1500" y="2012" text-anchor="middle" class="table-cell">$_______</text>
  <text x="1680" y="2012" text-anchor="middle" class="table-cell">$_______</text>
  <text x="1860" y="2012" text-anchor="middle" class="table-cell">$_______</text>
  <text x="2040" y="2012" text-anchor="middle" class="table-cell">$_______</text>
  <text x="2220" y="2012" text-anchor="middle" class="table-cell">$_______</text>
  <text x="2380" y="2012" text-anchor="middle" class="table-cell">$_______</text>
  <line x1="110" y1="2022" x2="2440" y2="2022" stroke="#222" stroke-width="0.5"/>

  <!-- Row 3: Publicidad -->
  <text x="140" y="2049" class="table-cell">Publicidad</text>
  <text x="420" y="2049" text-anchor="middle" class="table-cell">$_______</text>
  <text x="600" y="2049" text-anchor="middle" class="table-cell">$_______</text>
  <text x="780" y="2049" text-anchor="middle" class="table-cell">$_______</text>
  <text x="960" y="2049" text-anchor="middle" class="table-cell">$_______</text>
  <text x="1140" y="2049" text-anchor="middle" class="table-cell">$_______</text>
  <text x="1320" y="2049" text-anchor="middle" class="table-cell">$_______</text>
  <text x="1500" y="2049" text-anchor="middle" class="table-cell">$_______</text>
  <text x="1680" y="2049" text-anchor="middle" class="table-cell">$_______</text>
  <text x="1860" y="2049" text-anchor="middle" class="table-cell">$_______</text>
  <text x="2040" y="2049" text-anchor="middle" class="table-cell">$_______</text>
  <text x="2220" y="2049" text-anchor="middle" class="table-cell">$_______</text>
  <text x="2380" y="2049" text-anchor="middle" class="table-cell">$_______</text>
  <line x1="110" y1="2059" x2="2440" y2="2059" stroke="#222" stroke-width="0.5"/>

  <!-- Row 4: Ganancia Neta -->
  <text x="140" y="2086" class="body-white">GANANCIA NETA</text>
  <text x="420" y="2086" text-anchor="middle" class="table-cell">$_______</text>
  <text x="600" y="2086" text-anchor="middle" class="table-cell">$_______</text>
  <text x="780" y="2086" text-anchor="middle" class="table-cell">$_______</text>
  <text x="960" y="2086" text-anchor="middle" class="table-cell">$_______</text>
  <text x="1140" y="2086" text-anchor="middle" class="table-cell">$_______</text>
  <text x="1320" y="2086" text-anchor="middle" class="table-cell">$_______</text>
  <text x="1500" y="2086" text-anchor="middle" class="table-cell">$_______</text>
  <text x="1680" y="2086" text-anchor="middle" class="table-cell">$_______</text>
  <text x="1860" y="2086" text-anchor="middle" class="table-cell">$_______</text>
  <text x="2040" y="2086" text-anchor="middle" class="table-cell">$_______</text>
  <text x="2220" y="2086" text-anchor="middle" class="table-cell">$_______</text>
  <text x="2380" y="2086" text-anchor="middle" class="table-cell">$_______</text>
  <line x1="110" y1="2096" x2="2440" y2="2096" stroke="#fff" stroke-width="0.5"/>

  <!-- Row 5: Ordenes -->
  <text x="140" y="2123" class="table-cell">Ordenes</text>
  <text x="420" y="2123" text-anchor="middle" class="table-cell">________</text>
  <text x="600" y="2123" text-anchor="middle" class="table-cell">________</text>
  <text x="780" y="2123" text-anchor="middle" class="table-cell">________</text>
  <text x="960" y="2123" text-anchor="middle" class="table-cell">________</text>
  <text x="1140" y="2123" text-anchor="middle" class="table-cell">________</text>
  <text x="1320" y="2123" text-anchor="middle" class="table-cell">________</text>
  <text x="1500" y="2123" text-anchor="middle" class="table-cell">________</text>
  <text x="1680" y="2123" text-anchor="middle" class="table-cell">________</text>
  <text x="1860" y="2123" text-anchor="middle" class="table-cell">________</text>
  <text x="2040" y="2123" text-anchor="middle" class="table-cell">________</text>
  <text x="2220" y="2123" text-anchor="middle" class="table-cell">________</text>
  <text x="2380" y="2123" text-anchor="middle" class="table-cell">________</text>

  <!-- ============================================ -->
  <!-- KPI BOXES -->
  <!-- ============================================ -->
  <line x1="80" y1="2230" x2="2470" y2="2230" stroke="#333" stroke-width="0.5"/>

  <rect x="80" y="2260" width="380" height="120" rx="4" fill="none" stroke="#333" stroke-width="1"/>
  <text x="270" y="2305" text-anchor="middle" class="body-white">COSTO INICIAL</text>
  <text x="270" y="2345" text-anchor="middle" class="subtitle">$_______________</text>

  <rect x="510" y="2260" width="380" height="120" rx="4" fill="none" stroke="#333" stroke-width="1"/>
  <text x="700" y="2305" text-anchor="middle" class="body-white">META DE EQUILIBRIO</text>
  <text x="700" y="2345" text-anchor="middle" class="subtitle">Mes ____</text>

  <rect x="940" y="2260" width="380" height="120" rx="4" fill="none" stroke="#333" stroke-width="1"/>
  <text x="1130" y="2305" text-anchor="middle" class="body-white">META 12 MESES</text>
  <text x="1130" y="2345" text-anchor="middle" class="subtitle">$_______________</text>

  <rect x="1370" y="2260" width="380" height="120" rx="4" fill="none" stroke="#333" stroke-width="1"/>
  <text x="1560" y="2305" text-anchor="middle" class="body-white">ORDEN PROMEDIO</text>
  <text x="1560" y="2345" text-anchor="middle" class="subtitle">$_______________</text>

  <rect x="1800" y="2260" width="380" height="120" rx="4" fill="none" stroke="#333" stroke-width="1"/>
  <text x="1990" y="2305" text-anchor="middle" class="body-white">MARGEN OBJETIVO</text>
  <text x="1990" y="2345" text-anchor="middle" class="subtitle">__________%</text>

  <!-- ============================================ -->
  <!-- FOOTER -->
  <!-- ============================================ -->

  <line x1="80" y1="3200" x2="2470" y2="3200" stroke="#007AFF" stroke-width="1"/>
  <text x="1275" y="3240" text-anchor="middle" class="small">BLUEPRINT DE NEGOCIO</text>
  <text x="1275" y="3265" text-anchor="middle" class="price">behike.co | Hecho en Puerto Rico</text>

  <!-- Corner marks -->
  <line x1="60" y1="60" x2="90" y2="60" stroke="#007AFF" stroke-width="0.5"/>
  <line x1="60" y1="60" x2="60" y2="90" stroke="#007AFF" stroke-width="0.5"/>
  <line x1="2490" y1="60" x2="2460" y2="60" stroke="#007AFF" stroke-width="0.5"/>
  <line x1="2490" y1="60" x2="2490" y2="90" stroke="#007AFF" stroke-width="0.5"/>
  <line x1="60" y1="3240" x2="90" y2="3240" stroke="#007AFF" stroke-width="0.5"/>
  <line x1="60" y1="3240" x2="60" y2="3210" stroke="#007AFF" stroke-width="0.5"/>
  <line x1="2490" y1="3240" x2="2460" y2="3240" stroke="#007AFF" stroke-width="0.5"/>
  <line x1="2490" y1="3240" x2="2490" y2="3210" stroke="#007AFF" stroke-width="0.5"/>

</svg>