<?xml version="1.0" encoding="UTF-8"?>
<svg xmlns="http://www.w3.org/2000/svg" viewBox="0 0 2400 1800" width="2400" height="1800">
  <defs>
    <style>
      text { font-family: 'Helvetica Neue', Helvetica, Arial, sans-serif; fill: #fff; }
      .title { font-size: 28px; font-weight: bold; letter-spacing: 4px; }
      .subtitle { font-size: 14px; fill: #999; letter-spacing: 2px; }
      .section-title { font-size: 16px; font-weight: bold; letter-spacing: 1px; }
      .body { font-size: 12px; fill: #999; }
      .body-white { font-size: 12px; fill: #fff; }
      .small { font-size: 10px; fill: #999; }
      .checkbox { font-size: 11px; fill: #999; }
      .table-head { font-size: 11px; font-weight: bold; fill: #fff; }
      .table-cell { font-size: 10px; fill: #999; }
      .hub-label { font-size: 18px; font-weight: bold; letter-spacing: 2px; }
      .price { font-size: 12px; fill: #999; letter-spacing: 1px; }
    </style>
  </defs>

  <!-- Background -->
  <rect width="2400" height="1800" fill="#000"/>

  <!-- Border -->
  <rect x="30" y="30" width="2340" height="1740" fill="none" stroke="#333" stroke-width="1"/>
  <rect x="35" y="35" width="2330" height="1730" fill="none" stroke="#222" stroke-width="0.5"/>

  <!-- Header -->
  <text x="1200" y="80" text-anchor="middle" class="title">E-COMMERCE BUSINESS BLUEPRINT</text>
  <line x1="400" y1="95" x2="2000" y2="95" stroke="#333" stroke-width="0.5"/>
  <text x="1200" y="115" text-anchor="middle" class="subtitle">YOUR COMPLETE OPERATING SYSTEM ON ONE CANVAS</text>

  <!-- Central Hub -->
  <circle cx="1200" cy="500" r="90" fill="none" stroke="#fff" stroke-width="1.5"/>
  <circle cx="1200" cy="500" r="85" fill="none" stroke="#333" stroke-width="0.5"/>
  <text x="1200" y="490" text-anchor="middle" class="hub-label">YOUR</text>
  <text x="1200" y="512" text-anchor="middle" class="hub-label">STORE</text>
  <text x="1200" y="535" text-anchor="middle" class="small">( hub )</text>

  <!-- ============================================ -->
  <!-- SECTION 1: Product Sourcing (top-left) -->
  <!-- ============================================ -->

  <!-- Connector: hub to product sourcing -->
  <path d="M 1115,445 C 950,380 750,320 620,240" fill="none" stroke="#999" stroke-width="1" stroke-dasharray="4,4"/>
  <circle cx="620" cy="240" r="3" fill="#999"/>

  <rect x="80" y="150" width="520" height="220" rx="3" fill="none" stroke="#fff" stroke-width="1"/>
  <text x="340" y="180" text-anchor="middle" class="section-title">01 / PRODUCT SOURCING</text>
  <line x1="100" y1="192" x2="580" y2="192" stroke="#333" stroke-width="0.5"/>

  <text x="110" y="215" class="body">Supplier Type:</text>
  <rect x="260" y="202" width="320" height="18" rx="2" fill="none" stroke="#333" stroke-width="0.5"/>
  <text x="270" y="215" class="small">_________________________________</text>

  <text x="110" y="240" class="checkbox">[ ] Wholesale    [ ] Dropship    [ ] Private Label</text>
  <text x="110" y="260" class="checkbox">[ ] Retail Arbitrage    [ ] Thrift/Liquidation</text>

  <text x="110" y="285" class="body">Primary Supplier:</text>
  <rect x="280" y="272" width="300" height="18" rx="2" fill="none" stroke="#333" stroke-width="0.5"/>

  <text x="110" y="310" class="body">Backup Supplier:</text>
  <rect x="280" y="297" width="300" height="18" rx="2" fill="none" stroke="#333" stroke-width="0.5"/>

  <text x="110" y="335" class="body">Product Criteria:</text>
  <text x="110" y="352" class="checkbox">[ ] Margin 30%+    [ ] Weight 2lbs max  [ ] No restrictions</text>

  <!-- ============================================ -->
  <!-- SECTION 2: Store Setup (top-right) -->
  <!-- ============================================ -->

  <!-- Connector: hub to store setup -->
  <path d="M 1285,445 C 1450,380 1650,320 1780,240" fill="none" stroke="#999" stroke-width="1" stroke-dasharray="4,4"/>
  <circle cx="1780" cy="240" r="3" fill="#999"/>

  <rect x="1620" y="150" width="520" height="220" rx="3" fill="none" stroke="#fff" stroke-width="1"/>
  <text x="1880" y="180" text-anchor="middle" class="section-title">02 / STORE SETUP</text>
  <line x1="1640" y1="192" x2="2120" y2="192" stroke="#333" stroke-width="0.5"/>

  <text x="1640" y="215" class="body">Platform:</text>
  <text x="1640" y="235" class="checkbox">[ ] Shopify    [ ] WooCommerce    [ ] eBay</text>
  <text x="1640" y="255" class="checkbox">[ ] Amazon     [ ] Etsy           [ ] Other</text>

  <text x="1640" y="280" class="body">Store Name:</text>
  <rect x="1790" y="267" width="330" height="18" rx="2" fill="none" stroke="#333" stroke-width="0.5"/>

  <text x="1640" y="305" class="body">Domain:</text>
  <rect x="1790" y="292" width="330" height="18" rx="2" fill="none" stroke="#333" stroke-width="0.5"/>

  <text x="1640" y="330" class="body">Setup Checklist:</text>
  <text x="1640" y="350" class="checkbox">[ ] Theme    [ ] Payments    [ ] Shipping    [ ] Legal</text>

  <!-- ============================================ -->
  <!-- SECTION 3: Marketing Channels (left) -->
  <!-- ============================================ -->

  <!-- Connector: hub to marketing -->
  <path d="M 1110,500 C 900,500 700,480 550,470" fill="none" stroke="#999" stroke-width="1" stroke-dasharray="4,4"/>
  <circle cx="550" cy="470" r="3" fill="#999"/>

  <rect x="80" y="420" width="460" height="250" rx="3" fill="none" stroke="#fff" stroke-width="1"/>
  <text x="310" y="450" text-anchor="middle" class="section-title">03 / MARKETING CHANNELS</text>
  <line x1="100" y1="462" x2="520" y2="462" stroke="#333" stroke-width="0.5"/>

  <!-- Funnel shape -->
  <polygon points="200,480 420,480 390,510 230,510" fill="none" stroke="#fff" stroke-width="1"/>
  <text x="310" y="500" text-anchor="middle" class="small">AWARENESS</text>

  <polygon points="230,515 390,515 370,545 250,545" fill="none" stroke="#fff" stroke-width="1"/>
  <text x="310" y="535" text-anchor="middle" class="small">CONSIDERATION</text>

  <polygon points="250,550 370,550 350,580 270,580" fill="none" stroke="#fff" stroke-width="1"/>
  <text x="310" y="570" text-anchor="middle" class="small">CONVERSION</text>

  <polygon points="270,585 350,585 340,615 280,615" fill="none" stroke="#fff" stroke-width="1"/>
  <text x="310" y="605" text-anchor="middle" class="small">RETENTION</text>

  <text x="100" y="645" class="checkbox">[ ] SEO        [ ] Paid Ads     [ ] Email</text>
  <text x="100" y="660" class="checkbox">[ ] Social     [ ] Influencer   [ ] Content</text>

  <!-- ============================================ -->
  <!-- SECTION 4: Fulfillment (right) -->
  <!-- ============================================ -->

  <!-- Connector: hub to fulfillment -->
  <path d="M 1290,500 C 1500,500 1700,490 1850,480" fill="none" stroke="#999" stroke-width="1" stroke-dasharray="4,4"/>
  <circle cx="1850" cy="480" r="3" fill="#999"/>

  <rect x="1860" y="420" width="460" height="250" rx="3" fill="none" stroke="#fff" stroke-width="1"/>
  <text x="2090" y="450" text-anchor="middle" class="section-title">04 / FULFILLMENT</text>
  <line x1="1880" y1="462" x2="2300" y2="462" stroke="#333" stroke-width="0.5"/>

  <text x="1880" y="485" class="body">Method:</text>
  <text x="1880" y="505" class="checkbox">[ ] Self-fulfill    [ ] 3PL    [ ] Dropship</text>

  <text x="1880" y="530" class="body">Shipping Provider:</text>
  <rect x="2060" y="517" width="250" height="18" rx="2" fill="none" stroke="#333" stroke-width="0.5"/>

  <text x="1880" y="555" class="body">Avg Ship Time:</text>
  <rect x="2060" y="542" width="250" height="18" rx="2" fill="none" stroke="#333" stroke-width="0.5"/>

  <text x="1880" y="580" class="body">Packaging:</text>
  <rect x="2060" y="567" width="250" height="18" rx="2" fill="none" stroke="#333" stroke-width="0.5"/>

  <text x="1880" y="610" class="body">Process Flow:</text>
  <!-- Mini flow diagram -->
  <rect x="1880" y="620" width="80" height="24" rx="2" fill="none" stroke="#999" stroke-width="0.5"/>
  <text x="1920" y="636" text-anchor="middle" class="small">ORDER</text>
  <line x1="1960" y1="632" x2="1985" y2="632" stroke="#999" stroke-width="0.5"/>
  <text x="1975" y="628" class="small">></text>
  <rect x="1990" y="620" width="80" height="24" rx="2" fill="none" stroke="#999" stroke-width="0.5"/>
  <text x="2030" y="636" text-anchor="middle" class="small">PICK</text>
  <line x1="2070" y1="632" x2="2095" y2="632" stroke="#999" stroke-width="0.5"/>
  <text x="2085" y="628" class="small">></text>
  <rect x="2100" y="620" width="80" height="24" rx="2" fill="none" stroke="#999" stroke-width="0.5"/>
  <text x="2140" y="636" text-anchor="middle" class="small">PACK</text>
  <line x1="2180" y1="632" x2="2205" y2="632" stroke="#999" stroke-width="0.5"/>
  <text x="2195" y="628" class="small">></text>
  <rect x="2210" y="620" width="80" height="24" rx="2" fill="none" stroke="#999" stroke-width="0.5"/>
  <text x="2250" y="636" text-anchor="middle" class="small">SHIP</text>

  <!-- ============================================ -->
  <!-- SECTION 5: Customer Service (bottom-left) -->
  <!-- ============================================ -->

  <!-- Connector: hub to customer service -->
  <path d="M 1140,580 C 1000,680 750,740 600,760" fill="none" stroke="#999" stroke-width="1" stroke-dasharray="4,4"/>
  <circle cx="600" cy="760" r="3" fill="#999"/>

  <rect x="80" y="720" width="520" height="200" rx="3" fill="none" stroke="#fff" stroke-width="1"/>
  <text x="340" y="750" text-anchor="middle" class="section-title">05 / CUSTOMER SERVICE</text>
  <line x1="100" y1="762" x2="580" y2="762" stroke="#333" stroke-width="0.5"/>

  <text x="100" y="785" class="body">Support Channels:</text>
  <text x="100" y="805" class="checkbox">[ ] Email    [ ] Live Chat    [ ] Phone    [ ] Social</text>

  <text x="100" y="830" class="body">Response Time Target:</text>
  <rect x="310" y="817" width="270" height="18" rx="2" fill="none" stroke="#333" stroke-width="0.5"/>

  <text x="100" y="855" class="body">Return Policy:</text>
  <rect x="260" y="842" width="320" height="18" rx="2" fill="none" stroke="#333" stroke-width="0.5"/>

  <text x="100" y="880" class="body">FAQ Created:</text>
  <text x="260" y="880" class="checkbox">[ ] Yes    [ ] In Progress</text>

  <text x="100" y="905" class="body">Review Strategy:</text>
  <text x="260" y="905" class="checkbox">[ ] Auto-email    [ ] Insert card    [ ] Follow-up</text>

  <!-- ============================================ -->
  <!-- SECTION 6: Revenue Streams (bottom-right) -->
  <!-- ============================================ -->

  <!-- Connector: hub to revenue -->
  <path d="M 1260,580 C 1400,680 1650,740 1800,760" fill="none" stroke="#999" stroke-width="1" stroke-dasharray="4,4"/>
  <circle cx="1800" cy="760" r="3" fill="#999"/>

  <rect x="1620" y="720" width="520" height="200" rx="3" fill="none" stroke="#fff" stroke-width="1"/>
  <text x="1880" y="750" text-anchor="middle" class="section-title">06 / REVENUE STREAMS</text>
  <line x1="1640" y1="762" x2="2120" y2="762" stroke="#333" stroke-width="0.5"/>

  <text x="1640" y="785" class="body">Primary Revenue:</text>
  <rect x="1830" y="772" width="290" height="18" rx="2" fill="none" stroke="#333" stroke-width="0.5"/>

  <text x="1640" y="815" class="checkbox">[ ] Product Sales       Est: $______/mo</text>
  <text x="1640" y="835" class="checkbox">[ ] Subscription Box    Est: $______/mo</text>
  <text x="1640" y="855" class="checkbox">[ ] Digital Products    Est: $______/mo</text>
  <text x="1640" y="875" class="checkbox">[ ] Affiliate Income    Est: $______/mo</text>
  <text x="1640" y="895" class="checkbox">[ ] Wholesale/B2B       Est: $______/mo</text>

  <text x="1640" y="910" class="body">________________________________</text>

  <!-- ============================================ -->
  <!-- SECTION 7: Growth Strategy (bottom-center-left) -->
  <!-- ============================================ -->

  <!-- Connector: hub to growth -->
  <path d="M 1160,585 C 1100,700 900,900 780,960" fill="none" stroke="#999" stroke-width="1" stroke-dasharray="4,4"/>
  <circle cx="780" cy="960" r="3" fill="#999"/>

  <rect x="80" y="970" width="700" height="220" rx="3" fill="none" stroke="#fff" stroke-width="1"/>
  <text x="430" y="1000" text-anchor="middle" class="section-title">07 / GROWTH STRATEGY</text>
  <line x1="100" y1="1012" x2="760" y2="1012" stroke="#333" stroke-width="0.5"/>

  <!-- Growth phases as connected nodes -->
  <rect x="110" y="1030" width="130" height="50" rx="3" fill="none" stroke="#fff" stroke-width="1"/>
  <text x="175" y="1052" text-anchor="middle" class="body-white">PHASE 1</text>
  <text x="175" y="1068" text-anchor="middle" class="small">Validate</text>

  <path d="M 240,1055 C 270,1055 280,1055 300,1055" fill="none" stroke="#999" stroke-width="1"/>
  <polygon points="298,1052 305,1055 298,1058" fill="#999"/>

  <rect x="310" y="1030" width="130" height="50" rx="3" fill="none" stroke="#fff" stroke-width="1"/>
  <text x="375" y="1052" text-anchor="middle" class="body-white">PHASE 2</text>
  <text x="375" y="1068" text-anchor="middle" class="small">Optimize</text>

  <path d="M 440,1055 C 470,1055 480,1055 500,1055" fill="none" stroke="#999" stroke-width="1"/>
  <polygon points="498,1052 505,1055 498,1058" fill="#999"/>

  <rect x="510" y="1030" width="130" height="50" rx="3" fill="none" stroke="#fff" stroke-width="1"/>
  <text x="575" y="1052" text-anchor="middle" class="body-white">PHASE 3</text>
  <text x="575" y="1068" text-anchor="middle" class="small">Scale</text>

  <text x="110" y="1110" class="checkbox">[ ] First 10 sales          Target: ___________</text>
  <text x="110" y="1130" class="checkbox">[ ] First 100 sales         Target: ___________</text>
  <text x="110" y="1150" class="checkbox">[ ] $1K/mo revenue          Target: ___________</text>
  <text x="110" y="1170" class="checkbox">[ ] $5K/mo revenue          Target: ___________</text>
  <text x="110" y="1190" class="checkbox">[ ] $10K/mo revenue         Target: ___________</text>

  <!-- ============================================ -->
  <!-- SECTION 8: Daily/Weekly Schedule (bottom-center-right) -->
  <!-- ============================================ -->

  <!-- Connector: hub to schedule -->
  <path d="M 1240,585 C 1300,700 1500,900 1620,960" fill="none" stroke="#999" stroke-width="1" stroke-dasharray="4,4"/>
  <circle cx="1620" cy="960" r="3" fill="#999"/>

  <rect x="820" y="970" width="700" height="220" rx="3" fill="none" stroke="#fff" stroke-width="1"/>
  <text x="1170" y="1000" text-anchor="middle" class="section-title">08 / DAILY + WEEKLY SCHEDULE</text>
  <line x1="840" y1="1012" x2="1500" y2="1012" stroke="#333" stroke-width="0.5"/>

  <text x="850" y="1035" class="body-white">DAILY</text>
  <text x="850" y="1055" class="checkbox">[ ] Check orders + fulfill          (30 min)</text>
  <text x="850" y="1075" class="checkbox">[ ] Customer service inbox           (30 min)</text>
  <text x="850" y="1095" class="checkbox">[ ] Social media / marketing         (45 min)</text>
  <text x="850" y="1115" class="checkbox">[ ] Product research / sourcing      (30 min)</text>

  <line x1="840" y1="1125" x2="1500" y2="1125" stroke="#333" stroke-width="0.5"/>

  <text x="850" y="1145" class="body-white">WEEKLY</text>
  <text x="850" y="1165" class="checkbox">[ ] Review analytics + KPIs          (Mon)</text>
  <text x="850" y="1185" class="checkbox">[ ] Restock / supplier contact        (Tue)</text>

  <!-- Vertical divider -->
  <line x1="1200" y1="1135" x2="1200" y2="1185" stroke="#333" stroke-width="0.5"/>
  <text x="1220" y="1165" class="checkbox">[ ] Content creation       (Wed)</text>
  <text x="1220" y="1185" class="checkbox">[ ] Financial review       (Fri)</text>

  <!-- ============================================ -->
  <!-- REVENUE TRACKER TABLE -->
  <!-- ============================================ -->

  <rect x="80" y="1240" width="2240" height="200" rx="3" fill="none" stroke="#fff" stroke-width="1"/>
  <text x="1200" y="1270" text-anchor="middle" class="section-title">REVENUE TRACKER</text>
  <line x1="100" y1="1282" x2="2300" y2="1282" stroke="#333" stroke-width="0.5"/>

  <!-- Table headers -->
  <text x="130" y="1305" class="table-head">METRIC</text>
  <text x="380" y="1305" text-anchor="middle" class="table-head">MONTH 1</text>
  <text x="560" y="1305" text-anchor="middle" class="table-head">MONTH 2</text>
  <text x="740" y="1305" text-anchor="middle" class="table-head">MONTH 3</text>
  <text x="920" y="1305" text-anchor="middle" class="table-head">MONTH 4</text>
  <text x="1100" y="1305" text-anchor="middle" class="table-head">MONTH 5</text>
  <text x="1280" y="1305" text-anchor="middle" class="table-head">MONTH 6</text>
  <text x="1460" y="1305" text-anchor="middle" class="table-head">MONTH 7</text>
  <text x="1640" y="1305" text-anchor="middle" class="table-head">MONTH 8</text>
  <text x="1820" y="1305" text-anchor="middle" class="table-head">MONTH 9</text>
  <text x="2000" y="1305" text-anchor="middle" class="table-head">MONTH 10</text>
  <text x="2180" y="1305" text-anchor="middle" class="table-head">MONTH 11</text>

  <line x1="100" y1="1312" x2="2300" y2="1312" stroke="#333" stroke-width="0.5"/>

  <!-- Row 1: Revenue -->
  <text x="130" y="1332" class="table-cell">Revenue</text>
  <text x="380" y="1332" text-anchor="middle" class="table-cell">$_______</text>
  <text x="560" y="1332" text-anchor="middle" class="table-cell">$_______</text>
  <text x="740" y="1332" text-anchor="middle" class="table-cell">$_______</text>
  <text x="920" y="1332" text-anchor="middle" class="table-cell">$_______</text>
  <text x="1100" y="1332" text-anchor="middle" class="table-cell">$_______</text>
  <text x="1280" y="1332" text-anchor="middle" class="table-cell">$_______</text>
  <text x="1460" y="1332" text-anchor="middle" class="table-cell">$_______</text>
  <text x="1640" y="1332" text-anchor="middle" class="table-cell">$_______</text>
  <text x="1820" y="1332" text-anchor="middle" class="table-cell">$_______</text>
  <text x="2000" y="1332" text-anchor="middle" class="table-cell">$_______</text>
  <text x="2180" y="1332" text-anchor="middle" class="table-cell">$_______</text>

  <line x1="100" y1="1340" x2="2300" y2="1340" stroke="#222" stroke-width="0.5"/>

  <!-- Row 2: COGS -->
  <text x="130" y="1358" class="table-cell">COGS</text>
  <text x="380" y="1358" text-anchor="middle" class="table-cell">$_______</text>
  <text x="560" y="1358" text-anchor="middle" class="table-cell">$_______</text>
  <text x="740" y="1358" text-anchor="middle" class="table-cell">$_______</text>
  <text x="920" y="1358" text-anchor="middle" class="table-cell">$_______</text>
  <text x="1100" y="1358" text-anchor="middle" class="table-cell">$_______</text>
  <text x="1280" y="1358" text-anchor="middle" class="table-cell">$_______</text>
  <text x="1460" y="1358" text-anchor="middle" class="table-cell">$_______</text>
  <text x="1640" y="1358" text-anchor="middle" class="table-cell">$_______</text>
  <text x="1820" y="1358" text-anchor="middle" class="table-cell">$_______</text>
  <text x="2000" y="1358" text-anchor="middle" class="table-cell">$_______</text>
  <text x="2180" y="1358" text-anchor="middle" class="table-cell">$_______</text>

  <line x1="100" y1="1366" x2="2300" y2="1366" stroke="#222" stroke-width="0.5"/>

  <!-- Row 3: Ad Spend -->
  <text x="130" y="1384" class="table-cell">Ad Spend</text>
  <text x="380" y="1384" text-anchor="middle" class="table-cell">$_______</text>
  <text x="560" y="1384" text-anchor="middle" class="table-cell">$_______</text>
  <text x="740" y="1384" text-anchor="middle" class="table-cell">$_______</text>
  <text x="920" y="1384" text-anchor="middle" class="table-cell">$_______</text>
  <text x="1100" y="1384" text-anchor="middle" class="table-cell">$_______</text>
  <text x="1280" y="1384" text-anchor="middle" class="table-cell">$_______</text>
  <text x="1460" y="1384" text-anchor="middle" class="table-cell">$_______</text>
  <text x="1640" y="1384" text-anchor="middle" class="table-cell">$_______</text>
  <text x="1820" y="1384" text-anchor="middle" class="table-cell">$_______</text>
  <text x="2000" y="1384" text-anchor="middle" class="table-cell">$_______</text>
  <text x="2180" y="1384" text-anchor="middle" class="table-cell">$_______</text>

  <line x1="100" y1="1392" x2="2300" y2="1392" stroke="#222" stroke-width="0.5"/>

  <!-- Row 4: Net Profit -->
  <text x="130" y="1410" class="body-white">NET PROFIT</text>
  <text x="380" y="1410" text-anchor="middle" class="table-cell">$_______</text>
  <text x="560" y="1410" text-anchor="middle" class="table-cell">$_______</text>
  <text x="740" y="1410" text-anchor="middle" class="table-cell">$_______</text>
  <text x="920" y="1410" text-anchor="middle" class="table-cell">$_______</text>
  <text x="1100" y="1410" text-anchor="middle" class="table-cell">$_______</text>
  <text x="1280" y="1410" text-anchor="middle" class="table-cell">$_______</text>
  <text x="1460" y="1410" text-anchor="middle" class="table-cell">$_______</text>
  <text x="1640" y="1410" text-anchor="middle" class="table-cell">$_______</text>
  <text x="1820" y="1410" text-anchor="middle" class="table-cell">$_______</text>
  <text x="2000" y="1410" text-anchor="middle" class="table-cell">$_______</text>
  <text x="2180" y="1410" text-anchor="middle" class="table-cell">$_______</text>

  <line x1="100" y1="1418" x2="2300" y2="1418" stroke="#fff" stroke-width="0.5"/>

  <!-- Row 5: Orders -->
  <text x="130" y="1436" class="table-cell">Orders</text>
  <text x="380" y="1436" text-anchor="middle" class="table-cell">________</text>
  <text x="560" y="1436" text-anchor="middle" class="table-cell">________</text>
  <text x="740" y="1436" text-anchor="middle" class="table-cell">________</text>
  <text x="920" y="1436" text-anchor="middle" class="table-cell">________</text>
  <text x="1100" y="1436" text-anchor="middle" class="table-cell">________</text>
  <text x="1280" y="1436" text-anchor="middle" class="table-cell">________</text>
  <text x="1460" y="1436" text-anchor="middle" class="table-cell">________</text>
  <text x="1640" y="1436" text-anchor="middle" class="table-cell">________</text>
  <text x="1820" y="1436" text-anchor="middle" class="table-cell">________</text>
  <text x="2000" y="1436" text-anchor="middle" class="table-cell">________</text>
  <text x="2180" y="1436" text-anchor="middle" class="table-cell">________</text>

  <!-- ============================================ -->
  <!-- FOOTER -->
  <!-- ============================================ -->
  <line x1="80" y1="1480" x2="2320" y2="1480" stroke="#333" stroke-width="0.5"/>

  <!-- KPI boxes -->
  <rect x="80" y="1500" width="350" height="80" rx="3" fill="none" stroke="#333" stroke-width="1"/>
  <text x="255" y="1525" text-anchor="middle" class="body-white">STARTUP COST</text>
  <text x="255" y="1555" text-anchor="middle" class="subtitle">$_______________</text>

  <rect x="480" y="1500" width="350" height="80" rx="3" fill="none" stroke="#333" stroke-width="1"/>
  <text x="655" y="1525" text-anchor="middle" class="body-white">BREAKEVEN TARGET</text>
  <text x="655" y="1555" text-anchor="middle" class="subtitle">Month ____</text>

  <rect x="880" y="1500" width="350" height="80" rx="3" fill="none" stroke="#333" stroke-width="1"/>
  <text x="1055" y="1525" text-anchor="middle" class="body-white">12-MO REVENUE GOAL</text>
  <text x="1055" y="1555" text-anchor="middle" class="subtitle">$_______________</text>

  <rect x="1280" y="1500" width="350" height="80" rx="3" fill="none" stroke="#333" stroke-width="1"/>
  <text x="1455" y="1525" text-anchor="middle" class="body-white">AVG ORDER VALUE</text>
  <text x="1455" y="1555" text-anchor="middle" class="subtitle">$_______________</text>

  <rect x="1680" y="1500" width="350" height="80" rx="3" fill="none" stroke="#333" stroke-width="1"/>
  <text x="1855" y="1525" text-anchor="middle" class="body-white">TARGET MARGIN</text>
  <text x="1855" y="1555" text-anchor="middle" class="subtitle">__________%</text>

  <!-- Tech stack mini-section -->
  <rect x="2080" y="1500" width="240" height="80" rx="3" fill="none" stroke="#333" stroke-width="1"/>
  <text x="2200" y="1525" text-anchor="middle" class="body-white">TECH STACK</text>
  <text x="2100" y="1545" class="small">___________________</text>
  <text x="2100" y="1560" class="small">___________________</text>
  <text x="2100" y="1575" class="small">___________________</text>

  <!-- Brand line -->
  <text x="1200" y="1630" text-anchor="middle" class="small">BUSINESS BLUEPRINT PACK</text>
  <text x="1200" y="1650" text-anchor="middle" class="price">behike.co</text>

  <!-- Corner marks -->
  <line x1="50" y1="50" x2="70" y2="50" stroke="#333" stroke-width="0.5"/>
  <line x1="50" y1="50" x2="50" y2="70" stroke="#333" stroke-width="0.5"/>
  <line x1="2350" y1="50" x2="2330" y2="50" stroke="#333" stroke-width="0.5"/>
  <line x1="2350" y1="50" x2="2350" y2="70" stroke="#333" stroke-width="0.5"/>
  <line x1="50" y1="1750" x2="70" y2="1750" stroke="#333" stroke-width="0.5"/>
  <line x1="50" y1="1750" x2="50" y2="1730" stroke="#333" stroke-width="0.5"/>
  <line x1="2350" y1="1750" x2="2330" y2="1750" stroke="#333" stroke-width="0.5"/>
  <line x1="2350" y1="1750" x2="2350" y2="1730" stroke="#333" stroke-width="0.5"/>

</svg>