<?xml version="1.0" encoding="UTF-8"?>
<svg xmlns="http://www.w3.org/2000/svg" viewBox="0 0 2550 3300" width="2550" height="3300">
  <defs>
    <style>
      text { font-family: 'Helvetica Neue', Helvetica, Arial, sans-serif; fill: #ffffff; }
      .title { font-size: 56px; font-weight: 700; letter-spacing: 3px; }
      .subtitle { font-size: 24px; fill: #999999; letter-spacing: 2px; font-weight: 300; }
      .section-title { font-size: 32px; font-weight: 700; fill: #007AFF; letter-spacing: 1px; }
      .section-num { font-size: 28px; font-weight: 300; fill: #007AFF; letter-spacing: 2px; }
      .body { font-size: 18px; fill: #999999; }
      .body-white { font-size: 18px; fill: #ffffff; }
      .body-bold { font-size: 18px; fill: #ffffff; font-weight: 600; }
      .small { font-size: 15px; fill: #999999; }
      .small-white { font-size: 15px; fill: #ffffff; }
      .checkbox { font-size: 16px; fill: #999999; }
      .metric-value { font-size: 36px; font-weight: 700; fill: #ffffff; }
      .metric-label { font-size: 14px; fill: #999999; letter-spacing: 1px; text-transform: uppercase; }
      .hub-label { font-size: 20px; font-weight: 600; fill: #ffffff; }
      .footer { font-size: 16px; fill: #999999; letter-spacing: 3px; }
    </style>
  </defs>

  <rect width="2550" height="3300" fill="#000000"/>
  <rect x="40" y="40" width="2470" height="3220" fill="none" stroke="#333333" stroke-width="1"/>

  <!-- Header -->
  <text x="1275" y="130" text-anchor="middle" class="title">ETSY DIGITAL PRODUCTS</text>
  <text x="1275" y="185" text-anchor="middle" class="title">BLUEPRINT</text>
  <line x1="400" y1="210" x2="2150" y2="210" stroke="#007AFF" stroke-width="2"/>
  <text x="1275" y="250" text-anchor="middle" class="subtitle">BUILD PASSIVE INCOME SELLING DIGITAL PRODUCTS ON ETSY</text>

  <!-- SECTION 1: NICHE RESEARCH (Hub-Spoke) -->
  <text x="100" y="330" class="section-num">01</text>
  <text x="160" y="330" class="section-title">NICHE RESEARCH</text>
  <line x1="100" y1="345" x2="1200" y2="345" stroke="#007AFF" stroke-width="1"/>

  <circle cx="640" cy="530" r="70" fill="none" stroke="#007AFF" stroke-width="2"/>
  <text x="640" y="524" text-anchor="middle" class="hub-label">DIGITAL</text>
  <text x="640" y="548" text-anchor="middle" class="hub-label">NICHES</text>

  <line x1="570" y1="510" x2="220" y2="400" stroke="#333333" stroke-width="1"/>
  <circle cx="220" cy="400" r="5" fill="#007AFF"/>
  <rect x="100" y="375" width="240" height="55" rx="4" fill="none" stroke="#ffffff" stroke-width="1"/>
  <text x="220" y="408" text-anchor="middle" class="body-bold">Planners</text>

  <line x1="575" y1="475" x2="220" y2="490" stroke="#333333" stroke-width="1"/>
  <circle cx="220" cy="490" r="5" fill="#007AFF"/>
  <rect x="100" y="465" width="240" height="55" rx="4" fill="none" stroke="#ffffff" stroke-width="1"/>
  <text x="220" y="498" text-anchor="middle" class="body-bold">Wall Art / Prints</text>

  <line x1="575" y1="560" x2="220" y2="580" stroke="#333333" stroke-width="1"/>
  <circle cx="220" cy="580" r="5" fill="#007AFF"/>
  <rect x="100" y="555" width="240" height="55" rx="4" fill="none" stroke="#ffffff" stroke-width="1"/>
  <text x="220" y="588" text-anchor="middle" class="body-bold">SVG Cut Files</text>

  <line x1="580" y1="600" x2="220" y2="670" stroke="#333333" stroke-width="1"/>
  <circle cx="220" cy="670" r="5" fill="#007AFF"/>
  <rect x="100" y="645" width="240" height="55" rx="4" fill="none" stroke="#ffffff" stroke-width="1"/>
  <text x="220" y="678" text-anchor="middle" class="body-bold">Templates</text>

  <line x1="710" y1="510" x2="1060" y2="400" stroke="#333333" stroke-width="1"/>
  <circle cx="1060" cy="400" r="5" fill="#007AFF"/>
  <rect x="940" y="375" width="240" height="55" rx="4" fill="none" stroke="#ffffff" stroke-width="1"/>
  <text x="1060" y="408" text-anchor="middle" class="body-bold">Spreadsheets</text>

  <line x1="710" y1="540" x2="1060" y2="490" stroke="#333333" stroke-width="1"/>
  <circle cx="1060" cy="490" r="5" fill="#007AFF"/>
  <rect x="940" y="465" width="240" height="55" rx="4" fill="none" stroke="#ffffff" stroke-width="1"/>
  <text x="1060" y="498" text-anchor="middle" class="body-bold">Social Media Kits</text>

  <line x1="710" y1="560" x2="1060" y2="580" stroke="#333333" stroke-width="1"/>
  <circle cx="1060" cy="580" r="5" fill="#007AFF"/>
  <rect x="940" y="555" width="240" height="55" rx="4" fill="none" stroke="#ffffff" stroke-width="1"/>
  <text x="1060" y="588" text-anchor="middle" class="body-bold">Notion Templates</text>

  <line x1="700" y1="590" x2="1060" y2="670" stroke="#333333" stroke-width="1"/>
  <circle cx="1060" cy="670" r="5" fill="#007AFF"/>
  <rect x="940" y="645" width="240" height="55" rx="4" fill="none" stroke="#ffffff" stroke-width="1"/>
  <text x="1060" y="678" text-anchor="middle" class="body-bold">Ebooks / Guides</text>

  <!-- SECTION 2: PRODUCT CREATION -->
  <text x="1350" y="330" class="section-num">02</text>
  <text x="1410" y="330" class="section-title">PRODUCT CREATION</text>
  <line x1="1350" y1="345" x2="2450" y2="345" stroke="#007AFF" stroke-width="1"/>

  <rect x="1350" y="380" width="1100" height="55" rx="4" fill="none" stroke="#007AFF" stroke-width="1.5"/>
  <text x="1560" y="413" text-anchor="middle" class="body-bold">Canva</text>
  <text x="1900" y="413" class="small">Planners, social kits, printables, presentations</text>

  <rect x="1350" y="455" width="1100" height="55" rx="4" fill="none" stroke="#ffffff" stroke-width="1"/>
  <text x="1560" y="488" text-anchor="middle" class="body-bold">Figma</text>
  <text x="1900" y="488" class="small">UI kits, mockups, professional templates</text>

  <rect x="1350" y="530" width="1100" height="55" rx="4" fill="none" stroke="#ffffff" stroke-width="1"/>
  <text x="1560" y="563" text-anchor="middle" class="body-bold">Google Sheets</text>
  <text x="1900" y="563" class="small">Budget trackers, dashboards, calculators</text>

  <rect x="1350" y="605" width="1100" height="55" rx="4" fill="none" stroke="#ffffff" stroke-width="1"/>
  <text x="1560" y="638" text-anchor="middle" class="body-bold">Notion</text>
  <text x="1900" y="638" class="small">Databases, life OS, project management</text>

  <rect x="1350" y="680" width="1100" height="55" rx="4" fill="none" stroke="#ffffff" stroke-width="1"/>
  <text x="1560" y="713" text-anchor="middle" class="body-bold">AI Tools</text>
  <text x="1900" y="713" class="small">Midjourney for art, ChatGPT for copy, Claude for content</text>

  <!-- SECTION 3: SEO OPTIMIZATION -->
  <text x="100" y="790" class="section-num">03</text>
  <text x="160" y="790" class="section-title">ETSY SEO OPTIMIZATION</text>
  <line x1="100" y1="805" x2="2450" y2="805" stroke="#007AFF" stroke-width="1"/>

  <!-- SEO elements -->
  <rect x="100" y="830" width="2350" height="45" rx="0" fill="#111111"/>
  <text x="300" y="858" text-anchor="middle" class="body-bold">ELEMENT</text>
  <text x="800" y="858" text-anchor="middle" class="body-bold">BEST PRACTICE</text>
  <text x="1500" y="858" text-anchor="middle" class="body-bold">CHARACTER LIMIT</text>
  <text x="2100" y="858" text-anchor="middle" class="body-bold">PRIORITY</text>

  <line x1="100" y1="875" x2="2450" y2="875" stroke="#333333" stroke-width="0.5"/>
  <text x="300" y="905" text-anchor="middle" class="body">Title</text>
  <text x="800" y="905" text-anchor="middle" class="body">Front-load keywords, natural language</text>
  <text x="1500" y="905" text-anchor="middle" class="body">140 characters</text>
  <text x="2100" y="905" text-anchor="middle" class="body-bold">Critical</text>

  <line x1="100" y1="920" x2="2450" y2="920" stroke="#222222" stroke-width="0.5"/>
  <text x="300" y="950" text-anchor="middle" class="body">Tags</text>
  <text x="800" y="950" text-anchor="middle" class="body">13 tags, long-tail keywords, no repeats</text>
  <text x="1500" y="950" text-anchor="middle" class="body">20 chars each</text>
  <text x="2100" y="950" text-anchor="middle" class="body-bold">Critical</text>

  <line x1="100" y1="965" x2="2450" y2="965" stroke="#222222" stroke-width="0.5"/>
  <text x="300" y="995" text-anchor="middle" class="body">Description</text>
  <text x="800" y="995" text-anchor="middle" class="body">Keywords in first paragraph, benefits-focused</text>
  <text x="1500" y="995" text-anchor="middle" class="body">Unlimited</text>
  <text x="2100" y="995" text-anchor="middle" class="body">High</text>

  <line x1="100" y1="1010" x2="2450" y2="1010" stroke="#222222" stroke-width="0.5"/>
  <text x="300" y="1040" text-anchor="middle" class="body">Images</text>
  <text x="800" y="1040" text-anchor="middle" class="body">10 mockups, lifestyle shots, feature callouts</text>
  <text x="1500" y="1040" text-anchor="middle" class="body">10 images max</text>
  <text x="2100" y="1040" text-anchor="middle" class="body">High</text>

  <line x1="100" y1="1055" x2="2450" y2="1055" stroke="#222222" stroke-width="0.5"/>
  <text x="300" y="1085" text-anchor="middle" class="body">Categories</text>
  <text x="800" y="1085" text-anchor="middle" class="body">Most specific subcategory available</text>
  <text x="1500" y="1085" text-anchor="middle" class="body">Etsy-defined</text>
  <text x="2100" y="1085" text-anchor="middle" class="body">Medium</text>

  <!-- SEO checklist -->
  <text x="100" y="1140" class="body-bold">SEO Research Tools</text>
  <rect x="100" y="1160" width="16" height="16" rx="2" fill="none" stroke="#999999" stroke-width="1"/>
  <text x="130" y="1174" class="checkbox">eRank (free tier) for keyword research</text>
  <rect x="100" y="1190" width="16" height="16" rx="2" fill="none" stroke="#999999" stroke-width="1"/>
  <text x="130" y="1204" class="checkbox">Marmalead for tag optimization</text>
  <rect x="100" y="1220" width="16" height="16" rx="2" fill="none" stroke="#999999" stroke-width="1"/>
  <text x="130" y="1234" class="checkbox">Etsy search bar autocomplete</text>
  <rect x="100" y="1250" width="16" height="16" rx="2" fill="none" stroke="#999999" stroke-width="1"/>
  <text x="130" y="1264" class="checkbox">Competitor listing analysis</text>

  <!-- SECTION 4: PRICING -->
  <text x="1350" y="1140" class="section-num">04</text>
  <text x="1410" y="1140" class="section-title">PRICING FRAMEWORK</text>
  <line x1="1350" y1="1155" x2="2450" y2="1155" stroke="#007AFF" stroke-width="1"/>

  <rect x="1350" y="1180" width="530" height="55" rx="4" fill="none" stroke="#007AFF" stroke-width="1.5"/>
  <text x="1615" y="1213" text-anchor="middle" class="body-bold">Low Ticket: $2-$7</text>

  <rect x="1350" y="1255" width="530" height="55" rx="4" fill="none" stroke="#ffffff" stroke-width="1"/>
  <text x="1615" y="1288" text-anchor="middle" class="body-bold">Mid Ticket: $8-$19</text>

  <rect x="1350" y="1330" width="530" height="55" rx="4" fill="none" stroke="#ffffff" stroke-width="1"/>
  <text x="1615" y="1363" text-anchor="middle" class="body-bold">High Ticket: $20-$49</text>

  <rect x="1350" y="1405" width="530" height="55" rx="4" fill="none" stroke="#ffffff" stroke-width="1"/>
  <text x="1615" y="1438" text-anchor="middle" class="body-bold">Premium Bundle: $50+</text>

  <rect x="1910" y="1180" width="540" height="280" rx="4" fill="#111111"/>
  <text x="2180" y="1220" text-anchor="middle" class="body-bold">Pricing Tips</text>
  <line x1="1930" y1="1235" x2="2430" y2="1235" stroke="#333333" stroke-width="0.5"/>
  <text x="1940" y="1265" class="small">Start low, raise with reviews</text>
  <text x="1940" y="1290" class="small">Bundle related items (3x value)</text>
  <text x="1940" y="1315" class="small">Etsy takes ~12% total fees</text>
  <text x="1940" y="1340" class="small">Free shipping for digital</text>
  <text x="1940" y="1365" class="small">Seasonal pricing bumps</text>
  <text x="1940" y="1390" class="small">$0.20 listing fee per 4 months</text>
  <text x="1940" y="1415" class="small">Compare top 10 competitor prices</text>

  <!-- SECTION 5: MARKETING -->
  <text x="100" y="1360" class="section-num">05</text>
  <text x="160" y="1360" class="section-title">MARKETING CHANNELS</text>
  <line x1="100" y1="1375" x2="1200" y2="1375" stroke="#007AFF" stroke-width="1"/>

  <rect x="100" y="1400" width="16" height="16" rx="2" fill="none" stroke="#999999" stroke-width="1"/>
  <text x="130" y="1414" class="checkbox">Pinterest (highest ROI for Etsy sellers)</text>
  <rect x="100" y="1430" width="16" height="16" rx="2" fill="none" stroke="#999999" stroke-width="1"/>
  <text x="130" y="1444" class="checkbox">Instagram Reels (product showcases)</text>
  <rect x="100" y="1460" width="16" height="16" rx="2" fill="none" stroke="#999999" stroke-width="1"/>
  <text x="130" y="1474" class="checkbox">TikTok (behind-the-scenes creation)</text>
  <rect x="100" y="1490" width="16" height="16" rx="2" fill="none" stroke="#999999" stroke-width="1"/>
  <text x="130" y="1504" class="checkbox">Etsy Ads ($1-5/day to start)</text>
  <rect x="100" y="1520" width="16" height="16" rx="2" fill="none" stroke="#999999" stroke-width="1"/>
  <text x="130" y="1534" class="checkbox">Email list (capture repeat buyers)</text>
  <rect x="100" y="1550" width="16" height="16" rx="2" fill="none" stroke="#999999" stroke-width="1"/>
  <text x="130" y="1564" class="checkbox">Etsy sales and coupons</text>

  <!-- SECTION 6: REVIEWS -->
  <text x="100" y="1630" class="section-num">06</text>
  <text x="160" y="1630" class="section-title">REVIEW STRATEGY</text>
  <line x1="100" y1="1645" x2="1200" y2="1645" stroke="#007AFF" stroke-width="1"/>

  <rect x="100" y="1670" width="16" height="16" rx="2" fill="none" stroke="#999999" stroke-width="1"/>
  <text x="130" y="1684" class="checkbox">Include thank-you note with download instructions</text>
  <rect x="100" y="1700" width="16" height="16" rx="2" fill="none" stroke="#999999" stroke-width="1"/>
  <text x="130" y="1714" class="checkbox">Follow up after 3 days asking for review</text>
  <rect x="100" y="1730" width="16" height="16" rx="2" fill="none" stroke="#999999" stroke-width="1"/>
  <text x="130" y="1744" class="checkbox">Respond to every review (positive and negative)</text>
  <rect x="100" y="1760" width="16" height="16" rx="2" fill="none" stroke="#999999" stroke-width="1"/>
  <text x="130" y="1774" class="checkbox">Offer free bonus for 5-star review</text>
  <rect x="100" y="1790" width="16" height="16" rx="2" fill="none" stroke="#999999" stroke-width="1"/>
  <text x="130" y="1804" class="checkbox">Target: 100+ reviews per listing</text>

  <!-- SECTION 7: SCALING -->
  <text x="1350" y="1530" class="section-num">07</text>
  <text x="1410" y="1530" class="section-title">SCALING TO $10K/MO</text>
  <line x1="1350" y1="1545" x2="2450" y2="1545" stroke="#007AFF" stroke-width="1"/>

  <line x1="1500" y1="1580" x2="1500" y2="1870" stroke="#333333" stroke-width="2"/>

  <circle cx="1500" cy="1600" r="8" fill="#007AFF"/>
  <text x="1530" y="1595" class="body-bold">Month 1-2: Launch 10 listings</text>
  <text x="1530" y="1620" class="small">Test niches. Optimize SEO. Target: $100/mo</text>

  <circle cx="1500" cy="1670" r="8" fill="#007AFF"/>
  <text x="1530" y="1665" class="body-bold">Month 3-4: Scale to 30 listings</text>
  <text x="1530" y="1690" class="small">Double down on winners. Target: $500/mo</text>

  <circle cx="1500" cy="1740" r="8" fill="#007AFF"/>
  <text x="1530" y="1735" class="body-bold">Month 5-8: 50+ listings, ads</text>
  <text x="1530" y="1760" class="small">Pinterest + Etsy Ads. Target: $2K/mo</text>

  <circle cx="1500" cy="1810" r="8" fill="#007AFF"/>
  <text x="1530" y="1805" class="body-bold">Month 9-12: 100+ listings</text>
  <text x="1530" y="1830" class="small">Outsource creation. Target: $5-10K/mo</text>

  <!-- Revenue Tracker -->
  <text x="100" y="1900" class="section-num">REVENUE TRACKER</text>
  <line x1="100" y1="1915" x2="2450" y2="1915" stroke="#007AFF" stroke-width="1"/>

  <rect x="100" y="1940" width="380" height="100" rx="4" fill="#111111"/>
  <text x="290" y="1990" text-anchor="middle" class="metric-value">$____</text>
  <text x="290" y="2020" text-anchor="middle" class="metric-label">MONTHLY REVENUE</text>

  <rect x="510" y="1940" width="380" height="100" rx="4" fill="#111111"/>
  <text x="700" y="1990" text-anchor="middle" class="metric-value">____</text>
  <text x="700" y="2020" text-anchor="middle" class="metric-label">ACTIVE LISTINGS</text>

  <rect x="920" y="1940" width="380" height="100" rx="4" fill="#111111"/>
  <text x="1110" y="1990" text-anchor="middle" class="metric-value">____</text>
  <text x="1110" y="2020" text-anchor="middle" class="metric-label">TOTAL ORDERS</text>

  <rect x="1330" y="1940" width="380" height="100" rx="4" fill="#111111"/>
  <text x="1520" y="1990" text-anchor="middle" class="metric-value">$____</text>
  <text x="1520" y="2020" text-anchor="middle" class="metric-label">AVG ORDER VALUE</text>

  <rect x="1740" y="1940" width="380" height="100" rx="4" fill="#111111"/>
  <text x="1930" y="1990" text-anchor="middle" class="metric-value">____%</text>
  <text x="1930" y="2020" text-anchor="middle" class="metric-label">CONVERSION RATE</text>

  <rect x="2150" y="1940" width="280" height="100" rx="4" fill="#111111"/>
  <text x="2290" y="1990" text-anchor="middle" class="metric-value">____</text>
  <text x="2290" y="2020" text-anchor="middle" class="metric-label">REVIEWS</text>

  <!-- Footer -->
  <line x1="100" y1="3200" x2="2450" y2="3200" stroke="#333333" stroke-width="0.5"/>
  <text x="1275" y="3240" text-anchor="middle" class="footer">behike.co</text>
</svg>