<?xml version="1.0" encoding="UTF-8"?>
<svg xmlns="http://www.w3.org/2000/svg" viewBox="0 0 2550 3300" width="2550" height="3300">
  <defs>
    <style>
      text { font-family: 'Helvetica Neue', Helvetica, Arial, sans-serif; fill: #fff; }
      .title { font-size: 56px; font-weight: 300; letter-spacing: 6px; }
      .subtitle { font-size: 20px; fill: #999; letter-spacing: 3px; font-weight: 300; }
      .section-title { font-size: 32px; font-weight: 500; letter-spacing: 1px; }
      .body { font-size: 18px; fill: #999; font-weight: 400; }
      .body-white { font-size: 18px; fill: #fff; font-weight: 400; }
      .label { font-size: 14px; fill: #999; letter-spacing: 1px; text-transform: uppercase; font-weight: 500; }
      .checkbox { font-size: 18px; fill: #999; font-weight: 300; }
      .table-head { font-size: 16px; font-weight: 600; fill: #fff; }
      .table-cell { font-size: 15px; fill: #999; font-weight: 300; }
      .hub-label { font-size: 28px; font-weight: 600; letter-spacing: 3px; }
      .hub-sub { font-size: 14px; fill: #999; letter-spacing: 2px; font-weight: 300; }
      .kpi-value { font-size: 22px; fill: #999; font-weight: 300; letter-spacing: 1px; }
      .kpi-label { font-size: 16px; fill: #fff; font-weight: 500; }
      .brand { font-size: 16px; fill: #666; letter-spacing: 4px; font-weight: 300; }
      .accent-text { fill: #FFD700; font-size: 14px; font-weight: 600; letter-spacing: 1px; }
      .cb-note { font-size: 12px; fill: #FFD700; font-weight: 400; letter-spacing: 1px; }
    </style>
  </defs>

  <!-- Background -->
  <rect width="2550" height="3300" fill="#000"/>
  <rect x="60" y="60" width="2430" height="3180" fill="none" stroke="#222" stroke-width="1"/>

  <!-- Colorblind accessibility note -->
  <text x="1275" y="90" text-anchor="middle" class="cb-note">HIGH CONTRAST / COLORBLIND-FRIENDLY VARIANT</text>

  <!-- Header -->
  <text x="1275" y="160" text-anchor="middle" class="title">E-COMMERCE BLUEPRINT</text>
  <rect x="475" y="180" width="1600" height="3" rx="1.5" fill="#FFD700" opacity="0.8"/>
  <text x="1275" y="220" text-anchor="middle" class="subtitle">YOUR COMPLETE OPERATING SYSTEM ON ONE PAGE</text>

  <!-- Central Hub - double border for shape emphasis -->
  <circle cx="1275" cy="540" r="120" fill="none" stroke="#fff" stroke-width="2.5"/>
  <circle cx="1275" cy="540" r="110" fill="none" stroke="#FFD700" stroke-width="1" stroke-dasharray="8,4"/>
  <text x="1275" y="530" text-anchor="middle" class="hub-label">YOUR</text>
  <text x="1275" y="565" text-anchor="middle" class="hub-label">STORE</text>
  <text x="1275" y="592" text-anchor="middle" class="hub-sub">( hub )</text>

  <!-- ============================================ -->
  <!-- SECTION 1: Product Sourcing (top-left) -->
  <!-- ============================================ -->
  <path d="M 1160,440 C 950,360 700,310 560,280" fill="none" stroke="#888" stroke-width="1.5" stroke-dasharray="6,4"/>
  <!-- Diamond connector instead of circle for shape distinction -->
  <polygon points="560,272 568,280 560,288 552,280" fill="#FFD700"/>

  <rect x="100" y="270" width="680" height="360" rx="6" fill="none" stroke="#fff" stroke-width="1.5"/>
  <!-- Section number indicator: filled square -->
  <rect x="120" y="298" width="24" height="24" rx="2" fill="#FFD700"/>
  <text x="132" y="318" text-anchor="middle" style="fill:#000;font-size:14px;font-weight:700;">1</text>
  <text x="440" y="320" text-anchor="middle" class="section-title">Product Sourcing</text>
  <rect x="200" y="335" width="480" height="3" rx="1.5" fill="#FFD700" opacity="0.7"/>

  <text x="130" y="375" class="body">Supplier Type</text>
  <rect x="340" y="356" width="410" height="28" rx="4" fill="none" stroke="#666" stroke-width="1"/>

  <text x="130" y="420" class="checkbox">[ ] Wholesale     [ ] Dropship     [ ] Private Label</text>
  <text x="130" y="452" class="checkbox">[ ] Retail Arbitrage     [ ] Thrift / Liquidation</text>

  <text x="130" y="495" class="body">Primary Supplier</text>
  <rect x="370" y="476" width="380" height="28" rx="4" fill="none" stroke="#666" stroke-width="1"/>

  <text x="130" y="535" class="body">Backup Supplier</text>
  <rect x="370" y="516" width="380" height="28" rx="4" fill="none" stroke="#666" stroke-width="1"/>

  <text x="130" y="575" class="body">Product Criteria</text>
  <text x="130" y="605" class="checkbox">[ ] Margin 30%+     [ ] Weight under 2lbs     [ ] No restrictions</text>

  <!-- ============================================ -->
  <!-- SECTION 2: Store Setup (top-right) -->
  <!-- ============================================ -->
  <path d="M 1390,440 C 1600,360 1850,310 1990,280" fill="none" stroke="#888" stroke-width="1.5" stroke-dasharray="6,4"/>
  <polygon points="1990,272 1998,280 1990,288 1982,280" fill="#FFD700"/>

  <rect x="1770" y="270" width="680" height="360" rx="6" fill="none" stroke="#fff" stroke-width="1.5"/>
  <rect x="1790" y="298" width="24" height="24" rx="2" fill="#FFD700"/>
  <text x="1802" y="318" text-anchor="middle" style="fill:#000;font-size:14px;font-weight:700;">2</text>
  <text x="2110" y="320" text-anchor="middle" class="section-title">Store Setup</text>
  <rect x="1870" y="335" width="480" height="3" rx="1.5" fill="#FFD700" opacity="0.7"/>

  <text x="1800" y="375" class="body">Platform</text>
  <text x="1800" y="410" class="checkbox">[ ] Shopify     [ ] WooCommerce     [ ] eBay</text>
  <text x="1800" y="442" class="checkbox">[ ] Amazon      [ ] Etsy            [ ] Other</text>

  <text x="1800" y="485" class="body">Store Name</text>
  <rect x="1970" y="466" width="450" height="28" rx="4" fill="none" stroke="#666" stroke-width="1"/>

  <text x="1800" y="525" class="body">Domain</text>
  <rect x="1970" y="506" width="450" height="28" rx="4" fill="none" stroke="#666" stroke-width="1"/>

  <text x="1800" y="575" class="body">Setup Checklist</text>
  <text x="1800" y="608" class="checkbox">[ ] Theme     [ ] Payments     [ ] Shipping     [ ] Legal</text>

  <!-- ============================================ -->
  <!-- SECTION 3: Marketing Channels (left) -->
  <!-- ============================================ -->
  <rect x="100" y="690" width="580" height="440" rx="6" fill="none" stroke="#fff" stroke-width="1.5"/>
  <rect x="120" y="718" width="24" height="24" rx="2" fill="#FFD700"/>
  <text x="132" y="738" text-anchor="middle" style="fill:#000;font-size:14px;font-weight:700;">3</text>
  <text x="390" y="740" text-anchor="middle" class="section-title">Marketing Channels</text>
  <rect x="190" y="755" width="400" height="3" rx="1.5" fill="#FFD700" opacity="0.7"/>

  <!-- Funnel with pattern fills for shape distinction -->
  <polygon points="240,790 540,790 510,835 270,835" fill="none" stroke="#fff" stroke-width="1.5"/>
  <text x="390" y="820" text-anchor="middle" class="label">AWARENESS</text>

  <polygon points="270,845 510,845 490,890 290,890" fill="none" stroke="#fff" stroke-width="1.5"/>
  <line x1="280" y1="855" x2="500" y2="855" stroke="#FFD700" stroke-width="0.5" opacity="0.3"/>
  <text x="390" y="875" text-anchor="middle" class="label">CONSIDERATION</text>

  <polygon points="290,900 490,900 470,945 310,945" fill="none" stroke="#fff" stroke-width="1.5"/>
  <line x1="300" y1="910" x2="480" y2="910" stroke="#FFD700" stroke-width="0.5" opacity="0.3"/>
  <line x1="300" y1="920" x2="480" y2="920" stroke="#FFD700" stroke-width="0.5" opacity="0.3"/>
  <text x="390" y="930" text-anchor="middle" class="label">CONVERSION</text>

  <polygon points="310,955 470,955 450,1000 330,1000" fill="none" stroke="#FFD700" stroke-width="2"/>
  <text x="390" y="985" text-anchor="middle" class="label">RETENTION</text>

  <text x="130" y="1050" class="checkbox">[ ] SEO          [ ] Paid Ads       [ ] Email</text>
  <text x="130" y="1085" class="checkbox">[ ] Social       [ ] Influencer     [ ] Content</text>

  <!-- ============================================ -->
  <!-- SECTION 4: Fulfillment (right) -->
  <!-- ============================================ -->
  <rect x="1770" y="690" width="680" height="440" rx="6" fill="none" stroke="#fff" stroke-width="1.5"/>
  <rect x="1790" y="718" width="24" height="24" rx="2" fill="#FFD700"/>
  <text x="1802" y="738" text-anchor="middle" style="fill:#000;font-size:14px;font-weight:700;">4</text>
  <text x="2110" y="740" text-anchor="middle" class="section-title">Fulfillment</text>
  <rect x="1910" y="755" width="400" height="3" rx="1.5" fill="#FFD700" opacity="0.7"/>

  <text x="1800" y="800" class="body">Method</text>
  <text x="1800" y="835" class="checkbox">[ ] Self-fulfill     [ ] 3PL     [ ] Dropship</text>

  <text x="1800" y="885" class="body">Shipping Provider</text>
  <rect x="2040" y="866" width="380" height="28" rx="4" fill="none" stroke="#666" stroke-width="1"/>

  <text x="1800" y="930" class="body">Avg Ship Time</text>
  <rect x="2040" y="911" width="380" height="28" rx="4" fill="none" stroke="#666" stroke-width="1"/>

  <text x="1800" y="975" class="body">Packaging</text>
  <rect x="2040" y="956" width="380" height="28" rx="4" fill="none" stroke="#666" stroke-width="1"/>

  <text x="1800" y="1025" class="body">Process Flow</text>
  <!-- Flow with triangle arrows (shape) and gold color -->
  <rect x="1800" y="1045" width="120" height="40" rx="6" fill="none" stroke="#fff" stroke-width="1"/>
  <text x="1860" y="1070" text-anchor="middle" class="label">ORDER</text>
  <polygon points="1928,1058 1948,1065 1928,1072" fill="#FFD700"/>
  <rect x="1965" y="1045" width="120" height="40" rx="6" fill="none" stroke="#fff" stroke-width="1"/>
  <text x="2025" y="1070" text-anchor="middle" class="label">PICK</text>
  <polygon points="2093,1058 2113,1065 2093,1072" fill="#FFD700"/>
  <rect x="2130" y="1045" width="120" height="40" rx="6" fill="none" stroke="#fff" stroke-width="1"/>
  <text x="2190" y="1070" text-anchor="middle" class="label">PACK</text>
  <polygon points="2258,1058 2278,1065 2258,1072" fill="#FFD700"/>
  <rect x="2295" y="1045" width="120" height="40" rx="6" fill="none" stroke="#00FF00" stroke-width="2"/>
  <text x="2355" y="1070" text-anchor="middle" style="fill:#00FF00;font-size:14px;font-weight:600;letter-spacing:1px;">SHIP</text>

  <!-- ============================================ -->
  <!-- SECTION 5: Customer Service (mid-left) -->
  <!-- ============================================ -->
  <rect x="100" y="1200" width="680" height="360" rx="6" fill="none" stroke="#fff" stroke-width="1.5"/>
  <rect x="120" y="1228" width="24" height="24" rx="2" fill="#FFD700"/>
  <text x="132" y="1248" text-anchor="middle" style="fill:#000;font-size:14px;font-weight:700;">5</text>
  <text x="440" y="1250" text-anchor="middle" class="section-title">Customer Service</text>
  <rect x="200" y="1265" width="480" height="3" rx="1.5" fill="#FFD700" opacity="0.7"/>

  <text x="130" y="1310" class="body">Support Channels</text>
  <text x="130" y="1345" class="checkbox">[ ] Email     [ ] Live Chat     [ ] Phone     [ ] Social</text>

  <text x="130" y="1395" class="body">Response Time Target</text>
  <rect x="410" y="1376" width="340" height="28" rx="4" fill="none" stroke="#666" stroke-width="1"/>

  <text x="130" y="1440" class="body">Return Policy</text>
  <rect x="350" y="1421" width="400" height="28" rx="4" fill="none" stroke="#666" stroke-width="1"/>

  <text x="130" y="1485" class="body">FAQ Created</text>
  <text x="350" y="1485" class="checkbox">[ ] Yes     [ ] In Progress</text>

  <text x="130" y="1530" class="body">Review Strategy</text>
  <text x="350" y="1530" class="checkbox">[ ] Auto-email     [ ] Insert card     [ ] Follow-up</text>

  <!-- ============================================ -->
  <!-- SECTION 6: Revenue Streams (mid-right) -->
  <!-- ============================================ -->
  <rect x="1770" y="1200" width="680" height="360" rx="6" fill="none" stroke="#fff" stroke-width="1.5"/>
  <rect x="1790" y="1228" width="24" height="24" rx="2" fill="#FFD700"/>
  <text x="1802" y="1248" text-anchor="middle" style="fill:#000;font-size:14px;font-weight:700;">6</text>
  <text x="2110" y="1250" text-anchor="middle" class="section-title">Revenue Streams</text>
  <rect x="1910" y="1265" width="400" height="3" rx="1.5" fill="#FFD700" opacity="0.7"/>

  <text x="1800" y="1310" class="body">Primary Revenue</text>
  <rect x="2020" y="1291" width="400" height="28" rx="4" fill="none" stroke="#666" stroke-width="1"/>

  <text x="1800" y="1360" class="checkbox">[ ] Product Sales            Est: $________/mo</text>
  <text x="1800" y="1395" class="checkbox">[ ] Subscription Box         Est: $________/mo</text>
  <text x="1800" y="1430" class="checkbox">[ ] Digital Products         Est: $________/mo</text>
  <text x="1800" y="1465" class="checkbox">[ ] Affiliate Income         Est: $________/mo</text>
  <text x="1800" y="1500" class="checkbox">[ ] Wholesale / B2B          Est: $________/mo</text>

  <!-- ============================================ -->
  <!-- SECTION 7: Growth Strategy (lower-left) -->
  <!-- ============================================ -->
  <rect x="100" y="1630" width="1150" height="380" rx="6" fill="none" stroke="#fff" stroke-width="1.5"/>
  <rect x="120" y="1658" width="24" height="24" rx="2" fill="#FFD700"/>
  <text x="132" y="1678" text-anchor="middle" style="fill:#000;font-size:14px;font-weight:700;">7</text>
  <text x="675" y="1680" text-anchor="middle" class="section-title">Growth Strategy</text>
  <rect x="325" y="1695" width="700" height="3" rx="1.5" fill="#FFD700" opacity="0.7"/>

  <!-- Growth phases with distinct shapes -->
  <!-- Phase 1: Circle shape -->
  <rect x="150" y="1730" width="220" height="80" rx="40" fill="none" stroke="#FFD700" stroke-width="2"/>
  <text x="260" y="1765" text-anchor="middle" class="body-white">PHASE 1</text>
  <text x="260" y="1790" text-anchor="middle" class="body">Validate</text>

  <!-- Arrow -->
  <polygon points="380,1762 400,1770 380,1778" fill="#FFD700"/>

  <!-- Phase 2: Square shape -->
  <rect x="420" y="1730" width="220" height="80" rx="4" fill="none" stroke="#FFD700" stroke-width="2"/>
  <text x="530" y="1765" text-anchor="middle" class="body-white">PHASE 2</text>
  <text x="530" y="1790" text-anchor="middle" class="body">Optimize</text>

  <!-- Arrow -->
  <polygon points="650,1762 670,1770 650,1778" fill="#FFD700"/>

  <!-- Phase 3: Diamond-ish / success shape with green -->
  <rect x="690" y="1730" width="220" height="80" rx="4" fill="none" stroke="#00FF00" stroke-width="2.5"/>
  <!-- Checkmark inside for success indicator -->
  <text x="800" y="1765" text-anchor="middle" class="body-white">PHASE 3</text>
  <text x="800" y="1790" text-anchor="middle" style="fill:#00FF00;font-size:18px;font-weight:400;">Scale</text>

  <text x="150" y="1855" class="checkbox">[ ] First 10 sales               Target: _______________</text>
  <text x="150" y="1890" class="checkbox">[ ] First 100 sales              Target: _______________</text>
  <text x="150" y="1925" class="checkbox">[ ] $1K/mo revenue               Target: _______________</text>
  <text x="150" y="1960" class="checkbox">[ ] $5K/mo revenue               Target: _______________</text>
  <text x="150" y="1995" class="checkbox">[ ] $10K/mo revenue              Target: _______________</text>

  <!-- ============================================ -->
  <!-- SECTION 8: Daily + Weekly Schedule (lower-right) -->
  <!-- ============================================ -->
  <rect x="1300" y="1630" width="1150" height="380" rx="6" fill="none" stroke="#fff" stroke-width="1.5"/>
  <rect x="1320" y="1658" width="24" height="24" rx="2" fill="#FFD700"/>
  <text x="1332" y="1678" text-anchor="middle" style="fill:#000;font-size:14px;font-weight:700;">8</text>
  <text x="1875" y="1680" text-anchor="middle" class="section-title">Daily + Weekly Schedule</text>
  <rect x="1575" y="1695" width="600" height="3" rx="1.5" fill="#FFD700" opacity="0.7"/>

  <text x="1340" y="1740" class="accent-text">DAILY</text>
  <text x="1340" y="1775" class="checkbox">[ ] Check orders + fulfill                       (30 min)</text>
  <text x="1340" y="1810" class="checkbox">[ ] Customer service inbox                        (30 min)</text>
  <text x="1340" y="1845" class="checkbox">[ ] Social media / marketing                     (45 min)</text>
  <text x="1340" y="1880" class="checkbox">[ ] Product research / sourcing                  (30 min)</text>

  <line x1="1320" y1="1900" x2="2420" y2="1900" stroke="#666" stroke-width="0.5"/>

  <text x="1340" y="1935" class="accent-text">WEEKLY</text>
  <text x="1340" y="1970" class="checkbox">[ ] Review analytics + KPIs                      (Mon)</text>
  <text x="1340" y="2000" class="checkbox">[ ] Restock / supplier contact                    (Tue)</text>

  <text x="1900" y="1970" class="checkbox">[ ] Content creation        (Wed)</text>
  <text x="1900" y="2000" class="checkbox">[ ] Financial review        (Fri)</text>

  <!-- ============================================ -->
  <!-- REVENUE TRACKER TABLE -->
  <!-- ============================================ -->
  <rect x="100" y="2080" width="2350" height="380" rx="6" fill="none" stroke="#fff" stroke-width="1.5"/>
  <text x="1275" y="2130" text-anchor="middle" class="section-title">Revenue Tracker</text>
  <rect x="875" y="2145" width="800" height="3" rx="1.5" fill="#FFD700" opacity="0.7"/>

  <text x="170" y="2185" class="table-head">METRIC</text>
  <text x="460" y="2185" text-anchor="middle" class="table-head">M1</text>
  <text x="620" y="2185" text-anchor="middle" class="table-head">M2</text>
  <text x="780" y="2185" text-anchor="middle" class="table-head">M3</text>
  <text x="940" y="2185" text-anchor="middle" class="table-head">M4</text>
  <text x="1100" y="2185" text-anchor="middle" class="table-head">M5</text>
  <text x="1260" y="2185" text-anchor="middle" class="table-head">M6</text>
  <text x="1420" y="2185" text-anchor="middle" class="table-head">M7</text>
  <text x="1580" y="2185" text-anchor="middle" class="table-head">M8</text>
  <text x="1740" y="2185" text-anchor="middle" class="table-head">M9</text>
  <text x="1900" y="2185" text-anchor="middle" class="table-head">M10</text>
  <text x="2060" y="2185" text-anchor="middle" class="table-head">M11</text>
  <text x="2220" y="2185" text-anchor="middle" class="table-head">M12</text>
  <line x1="130" y1="2198" x2="2420" y2="2198" stroke="#666" stroke-width="0.5"/>

  <text x="170" y="2235" class="table-cell">Revenue</text>
  <text x="460" y="2235" text-anchor="middle" class="table-cell">$_______</text>
  <text x="620" y="2235" text-anchor="middle" class="table-cell">$_______</text>
  <text x="780" y="2235" text-anchor="middle" class="table-cell">$_______</text>
  <text x="940" y="2235" text-anchor="middle" class="table-cell">$_______</text>
  <text x="1100" y="2235" text-anchor="middle" class="table-cell">$_______</text>
  <text x="1260" y="2235" text-anchor="middle" class="table-cell">$_______</text>
  <text x="1420" y="2235" text-anchor="middle" class="table-cell">$_______</text>
  <text x="1580" y="2235" text-anchor="middle" class="table-cell">$_______</text>
  <text x="1740" y="2235" text-anchor="middle" class="table-cell">$_______</text>
  <text x="1900" y="2235" text-anchor="middle" class="table-cell">$_______</text>
  <text x="2060" y="2235" text-anchor="middle" class="table-cell">$_______</text>
  <text x="2220" y="2235" text-anchor="middle" class="table-cell">$_______</text>
  <line x1="130" y1="2250" x2="2420" y2="2250" stroke="#444" stroke-width="0.5"/>

  <text x="170" y="2285" class="table-cell">COGS</text>
  <text x="460" y="2285" text-anchor="middle" class="table-cell">$_______</text>
  <text x="620" y="2285" text-anchor="middle" class="table-cell">$_______</text>
  <text x="780" y="2285" text-anchor="middle" class="table-cell">$_______</text>
  <text x="940" y="2285" text-anchor="middle" class="table-cell">$_______</text>
  <text x="1100" y="2285" text-anchor="middle" class="table-cell">$_______</text>
  <text x="1260" y="2285" text-anchor="middle" class="table-cell">$_______</text>
  <text x="1420" y="2285" text-anchor="middle" class="table-cell">$_______</text>
  <text x="1580" y="2285" text-anchor="middle" class="table-cell">$_______</text>
  <text x="1740" y="2285" text-anchor="middle" class="table-cell">$_______</text>
  <text x="1900" y="2285" text-anchor="middle" class="table-cell">$_______</text>
  <text x="2060" y="2285" text-anchor="middle" class="table-cell">$_______</text>
  <text x="2220" y="2285" text-anchor="middle" class="table-cell">$_______</text>
  <line x1="130" y1="2300" x2="2420" y2="2300" stroke="#444" stroke-width="0.5"/>

  <text x="170" y="2335" class="table-cell">Ad Spend</text>
  <text x="460" y="2335" text-anchor="middle" class="table-cell">$_______</text>
  <text x="620" y="2335" text-anchor="middle" class="table-cell">$_______</text>
  <text x="780" y="2335" text-anchor="middle" class="table-cell">$_______</text>
  <text x="940" y="2335" text-anchor="middle" class="table-cell">$_______</text>
  <text x="1100" y="2335" text-anchor="middle" class="table-cell">$_______</text>
  <text x="1260" y="2335" text-anchor="middle" class="table-cell">$_______</text>
  <text x="1420" y="2335" text-anchor="middle" class="table-cell">$_______</text>
  <text x="1580" y="2335" text-anchor="middle" class="table-cell">$_______</text>
  <text x="1740" y="2335" text-anchor="middle" class="table-cell">$_______</text>
  <text x="1900" y="2335" text-anchor="middle" class="table-cell">$_______</text>
  <text x="2060" y="2335" text-anchor="middle" class="table-cell">$_______</text>
  <text x="2220" y="2335" text-anchor="middle" class="table-cell">$_______</text>
  <line x1="130" y1="2350" x2="2420" y2="2350" stroke="#444" stroke-width="0.5"/>

  <text x="170" y="2385" class="body-white">NET PROFIT</text>
  <text x="460" y="2385" text-anchor="middle" class="table-cell">$_______</text>
  <text x="620" y="2385" text-anchor="middle" class="table-cell">$_______</text>
  <text x="780" y="2385" text-anchor="middle" class="table-cell">$_______</text>
  <text x="940" y="2385" text-anchor="middle" class="table-cell">$_______</text>
  <text x="1100" y="2385" text-anchor="middle" class="table-cell">$_______</text>
  <text x="1260" y="2385" text-anchor="middle" class="table-cell">$_______</text>
  <text x="1420" y="2385" text-anchor="middle" class="table-cell">$_______</text>
  <text x="1580" y="2385" text-anchor="middle" class="table-cell">$_______</text>
  <text x="1740" y="2385" text-anchor="middle" class="table-cell">$_______</text>
  <text x="1900" y="2385" text-anchor="middle" class="table-cell">$_______</text>
  <text x="2060" y="2385" text-anchor="middle" class="table-cell">$_______</text>
  <text x="2220" y="2385" text-anchor="middle" class="table-cell">$_______</text>
  <line x1="130" y1="2400" x2="2420" y2="2400" stroke="#fff" stroke-width="1"/>

  <text x="170" y="2435" class="table-cell">Orders</text>
  <text x="460" y="2435" text-anchor="middle" class="table-cell">________</text>
  <text x="620" y="2435" text-anchor="middle" class="table-cell">________</text>
  <text x="780" y="2435" text-anchor="middle" class="table-cell">________</text>
  <text x="940" y="2435" text-anchor="middle" class="table-cell">________</text>
  <text x="1100" y="2435" text-anchor="middle" class="table-cell">________</text>
  <text x="1260" y="2435" text-anchor="middle" class="table-cell">________</text>
  <text x="1420" y="2435" text-anchor="middle" class="table-cell">________</text>
  <text x="1580" y="2435" text-anchor="middle" class="table-cell">________</text>
  <text x="1740" y="2435" text-anchor="middle" class="table-cell">________</text>
  <text x="1900" y="2435" text-anchor="middle" class="table-cell">________</text>
  <text x="2060" y="2435" text-anchor="middle" class="table-cell">________</text>
  <text x="2220" y="2435" text-anchor="middle" class="table-cell">________</text>

  <!-- ============================================ -->
  <!-- KPI FOOTER -->
  <!-- ============================================ -->
  <line x1="100" y1="2530" x2="2450" y2="2530" stroke="#666" stroke-width="0.5"/>

  <rect x="100" y="2570" width="380" height="120" rx="8" fill="none" stroke="#666" stroke-width="1.5"/>
  <text x="290" y="2620" text-anchor="middle" class="kpi-label">STARTUP COST</text>
  <text x="290" y="2660" text-anchor="middle" class="kpi-value">$_______________</text>

  <rect x="530" y="2570" width="380" height="120" rx="8" fill="none" stroke="#666" stroke-width="1.5"/>
  <text x="720" y="2620" text-anchor="middle" class="kpi-label">BREAKEVEN TARGET</text>
  <text x="720" y="2660" text-anchor="middle" class="kpi-value">Month ____</text>

  <rect x="960" y="2570" width="380" height="120" rx="8" fill="none" stroke="#666" stroke-width="1.5"/>
  <text x="1150" y="2620" text-anchor="middle" class="kpi-label">12-MO REVENUE GOAL</text>
  <text x="1150" y="2660" text-anchor="middle" class="kpi-value">$_______________</text>

  <rect x="1390" y="2570" width="380" height="120" rx="8" fill="none" stroke="#666" stroke-width="1.5"/>
  <text x="1580" y="2620" text-anchor="middle" class="kpi-label">AVG ORDER VALUE</text>
  <text x="1580" y="2660" text-anchor="middle" class="kpi-value">$_______________</text>

  <rect x="1820" y="2570" width="380" height="120" rx="8" fill="none" stroke="#FFD700" stroke-width="2"/>
  <text x="2010" y="2620" text-anchor="middle" class="kpi-label">TARGET MARGIN</text>
  <text x="2010" y="2660" text-anchor="middle" class="kpi-value">__________%</text>

  <!-- Notes section -->
  <rect x="100" y="2750" width="2350" height="350" rx="6" fill="none" stroke="#666" stroke-width="1"/>
  <text x="1275" y="2800" text-anchor="middle" class="section-title">Notes</text>
  <rect x="975" y="2815" width="600" height="3" rx="1.5" fill="#FFD700" opacity="0.3"/>
  <line x1="150" y1="2850" x2="2400" y2="2850" stroke="#444" stroke-width="0.5"/>
  <line x1="150" y1="2890" x2="2400" y2="2890" stroke="#444" stroke-width="0.5"/>
  <line x1="150" y1="2930" x2="2400" y2="2930" stroke="#444" stroke-width="0.5"/>
  <line x1="150" y1="2970" x2="2400" y2="2970" stroke="#444" stroke-width="0.5"/>
  <line x1="150" y1="3010" x2="2400" y2="3010" stroke="#444" stroke-width="0.5"/>
  <line x1="150" y1="3050" x2="2400" y2="3050" stroke="#444" stroke-width="0.5"/>

  <!-- Brand footer -->
  <text x="1275" y="3180" text-anchor="middle" class="brand">BUSINESS BLUEPRINT PACK</text>
  <text x="1275" y="3210" text-anchor="middle" class="label">behike.co</text>

  <!-- Corner marks -->
  <line x1="80" y1="80" x2="105" y2="80" stroke="#666" stroke-width="0.5"/>
  <line x1="80" y1="80" x2="80" y2="105" stroke="#666" stroke-width="0.5"/>
  <line x1="2470" y1="80" x2="2445" y2="80" stroke="#666" stroke-width="0.5"/>
  <line x1="2470" y1="80" x2="2470" y2="105" stroke="#666" stroke-width="0.5"/>
  <line x1="80" y1="3220" x2="105" y2="3220" stroke="#666" stroke-width="0.5"/>
  <line x1="80" y1="3220" x2="80" y2="3195" stroke="#666" stroke-width="0.5"/>
  <line x1="2470" y1="3220" x2="2445" y2="3220" stroke="#666" stroke-width="0.5"/>
  <line x1="2470" y1="3220" x2="2470" y2="3195" stroke="#666" stroke-width="0.5"/>

</svg>