<?xml version="1.0" encoding="UTF-8"?>
<svg xmlns="http://www.w3.org/2000/svg" viewBox="0 0 2550 3300" width="2550" height="3300">
  <defs>
    <style>
      text { font-family: 'Helvetica Neue', Helvetica, Arial, sans-serif; fill: #ffffff; }
      .title { font-size: 56px; font-weight: 700; letter-spacing: 3px; }
      .subtitle { font-size: 24px; fill: #999999; letter-spacing: 2px; font-weight: 300; }
      .section-title { font-size: 32px; font-weight: 700; fill: #007AFF; letter-spacing: 1px; }
      .section-num { font-size: 28px; font-weight: 300; fill: #007AFF; letter-spacing: 2px; }
      .body { font-size: 18px; fill: #999999; }
      .body-white { font-size: 18px; fill: #ffffff; }
      .body-bold { font-size: 18px; fill: #ffffff; font-weight: 600; }
      .small { font-size: 15px; fill: #999999; }
      .small-white { font-size: 15px; fill: #ffffff; }
      .checkbox { font-size: 16px; fill: #999999; }
      .metric-value { font-size: 36px; font-weight: 700; fill: #ffffff; }
      .metric-label { font-size: 14px; fill: #999999; letter-spacing: 1px; text-transform: uppercase; }
      .hub-label { font-size: 20px; font-weight: 600; fill: #ffffff; }
      .footer { font-size: 16px; fill: #999999; letter-spacing: 3px; }
    </style>
  </defs>

  <!-- Background -->
  <rect width="2550" height="3300" fill="#000000"/>

  <!-- Border -->
  <rect x="40" y="40" width="2470" height="3220" fill="none" stroke="#333333" stroke-width="1"/>

  <!-- Header -->
  <text x="1275" y="130" text-anchor="middle" class="title">REAL ESTATE INVESTOR</text>
  <text x="1275" y="185" text-anchor="middle" class="title">BLUEPRINT</text>
  <line x1="400" y1="210" x2="2150" y2="210" stroke="#007AFF" stroke-width="2"/>
  <text x="1275" y="250" text-anchor="middle" class="subtitle">BUILD WEALTH THROUGH PROPERTY ACQUISITION AND MANAGEMENT</text>

  <!-- ===================== -->
  <!-- SECTION 1: DEAL FINDING (Hub-Spoke) -->
  <!-- ===================== -->
  <text x="100" y="330" class="section-num">01</text>
  <text x="160" y="330" class="section-title">DEAL FINDING</text>
  <line x1="100" y1="345" x2="1200" y2="345" stroke="#007AFF" stroke-width="1"/>

  <!-- Central hub -->
  <circle cx="640" cy="530" r="70" fill="none" stroke="#007AFF" stroke-width="2"/>
  <text x="640" y="524" text-anchor="middle" class="hub-label">DEAL</text>
  <text x="640" y="548" text-anchor="middle" class="hub-label">SOURCES</text>

  <!-- Spoke 1: MLS -->
  <line x1="570" y1="510" x2="200" y2="420" stroke="#333333" stroke-width="1"/>
  <circle cx="200" cy="420" r="5" fill="#007AFF"/>
  <rect x="100" y="390" width="200" height="60" rx="4" fill="none" stroke="#ffffff" stroke-width="1"/>
  <text x="200" y="418" text-anchor="middle" class="body-white">MLS Listings</text>
  <text x="200" y="438" text-anchor="middle" class="small">Traditional market</text>

  <!-- Spoke 2: Wholesalers -->
  <line x1="580" y1="480" x2="280" y2="520" stroke="#333333" stroke-width="1"/>
  <circle cx="280" cy="520" r="5" fill="#007AFF"/>
  <rect x="100" y="495" width="200" height="60" rx="4" fill="none" stroke="#ffffff" stroke-width="1"/>
  <text x="200" y="523" text-anchor="middle" class="body-white">Wholesalers</text>
  <text x="200" y="543" text-anchor="middle" class="small">Off-market deals</text>

  <!-- Spoke 3: Auctions -->
  <line x1="580" y1="560" x2="280" y2="630" stroke="#333333" stroke-width="1"/>
  <circle cx="280" cy="630" r="5" fill="#007AFF"/>
  <rect x="100" y="605" width="200" height="60" rx="4" fill="none" stroke="#ffffff" stroke-width="1"/>
  <text x="200" y="633" text-anchor="middle" class="body-white">Auctions</text>
  <text x="200" y="653" text-anchor="middle" class="small">Bank foreclosures</text>

  <!-- Spoke 4: Direct Mail -->
  <line x1="710" y1="510" x2="1040" y2="400" stroke="#333333" stroke-width="1"/>
  <circle cx="1040" cy="400" r="5" fill="#007AFF"/>
  <rect x="940" y="375" width="200" height="60" rx="4" fill="none" stroke="#ffffff" stroke-width="1"/>
  <text x="1040" y="403" text-anchor="middle" class="body-white">Direct Mail</text>
  <text x="1040" y="423" text-anchor="middle" class="small">Targeted campaigns</text>

  <!-- Spoke 5: Driving for Dollars -->
  <line x1="710" y1="550" x2="1040" y2="520" stroke="#333333" stroke-width="1"/>
  <circle cx="1040" cy="520" r="5" fill="#007AFF"/>
  <rect x="900" y="495" width="280" height="60" rx="4" fill="none" stroke="#ffffff" stroke-width="1"/>
  <text x="1040" y="523" text-anchor="middle" class="body-white">Driving for Dollars</text>
  <text x="1040" y="543" text-anchor="middle" class="small">Distressed properties</text>

  <!-- Spoke 6: Networking -->
  <line x1="700" y1="580" x2="1040" y2="640" stroke="#333333" stroke-width="1"/>
  <circle cx="1040" cy="640" r="5" fill="#007AFF"/>
  <rect x="940" y="615" width="200" height="60" rx="4" fill="none" stroke="#ffffff" stroke-width="1"/>
  <text x="1040" y="643" text-anchor="middle" class="body-white">Networking</text>
  <text x="1040" y="663" text-anchor="middle" class="small">REI meetups, agents</text>

  <!-- ===================== -->
  <!-- SECTION 2: FINANCING -->
  <!-- ===================== -->
  <text x="1350" y="330" class="section-num">02</text>
  <text x="1410" y="330" class="section-title">FINANCING</text>
  <line x1="1350" y1="345" x2="2450" y2="345" stroke="#007AFF" stroke-width="1"/>

  <!-- Financing flowchart -->
  <rect x="1400" y="380" width="320" height="55" rx="4" fill="none" stroke="#007AFF" stroke-width="1.5"/>
  <text x="1560" y="413" text-anchor="middle" class="body-bold">Conventional Mortgage</text>
  <text x="1800" y="413" class="small">20% down, 6-7% rate</text>

  <line x1="1560" y1="435" x2="1560" y2="465" stroke="#333333" stroke-width="1"/>
  <polygon points="1556,460 1564,460 1560,468" fill="#333333"/>

  <rect x="1400" y="470" width="320" height="55" rx="4" fill="none" stroke="#ffffff" stroke-width="1"/>
  <text x="1560" y="503" text-anchor="middle" class="body-bold">Hard Money Loans</text>
  <text x="1800" y="503" class="small">12-18% rate, fast close</text>

  <line x1="1560" y1="525" x2="1560" y2="555" stroke="#333333" stroke-width="1"/>
  <polygon points="1556,550 1564,550 1560,558" fill="#333333"/>

  <rect x="1400" y="560" width="320" height="55" rx="4" fill="none" stroke="#ffffff" stroke-width="1"/>
  <text x="1560" y="593" text-anchor="middle" class="body-bold">Private Money</text>
  <text x="1800" y="593" class="small">Flexible terms, trust</text>

  <line x1="1560" y1="615" x2="1560" y2="645" stroke="#333333" stroke-width="1"/>
  <polygon points="1556,640 1564,640 1560,648" fill="#333333"/>

  <rect x="1400" y="650" width="320" height="55" rx="4" fill="none" stroke="#ffffff" stroke-width="1"/>
  <text x="1560" y="683" text-anchor="middle" class="body-bold">Seller Financing</text>
  <text x="1800" y="683" class="small">Creative structuring</text>

  <!-- ===================== -->
  <!-- SECTION 3: PROPERTY ANALYSIS -->
  <!-- ===================== -->
  <text x="100" y="760" class="section-num">03</text>
  <text x="160" y="760" class="section-title">PROPERTY ANALYSIS</text>
  <line x1="100" y1="775" x2="2450" y2="775" stroke="#007AFF" stroke-width="1"/>

  <!-- Analysis table -->
  <rect x="100" y="800" width="2350" height="45" rx="0" fill="#111111"/>
  <text x="200" y="828" text-anchor="middle" class="body-bold">METRIC</text>
  <text x="600" y="828" text-anchor="middle" class="body-bold">TARGET</text>
  <text x="1000" y="828" text-anchor="middle" class="body-bold">FORMULA</text>
  <text x="1500" y="828" text-anchor="middle" class="body-bold">STATUS</text>
  <text x="2000" y="828" text-anchor="middle" class="body-bold">NOTES</text>

  <line x1="100" y1="845" x2="2450" y2="845" stroke="#333333" stroke-width="0.5"/>

  <text x="200" y="878" text-anchor="middle" class="body">Cap Rate</text>
  <text x="600" y="878" text-anchor="middle" class="body">8-12%</text>
  <text x="1000" y="878" text-anchor="middle" class="body">NOI / Purchase Price</text>
  <rect x="1440" y="860" width="120" height="24" rx="3" fill="none" stroke="#999999" stroke-width="0.5"/>
  <text x="2000" y="878" text-anchor="middle" class="small">Higher = better return</text>

  <line x1="100" y1="895" x2="2450" y2="895" stroke="#222222" stroke-width="0.5"/>

  <text x="200" y="928" text-anchor="middle" class="body">Cash-on-Cash</text>
  <text x="600" y="928" text-anchor="middle" class="body">10%+</text>
  <text x="1000" y="928" text-anchor="middle" class="body">Annual Cash Flow / Cash In</text>
  <rect x="1440" y="910" width="120" height="24" rx="3" fill="none" stroke="#999999" stroke-width="0.5"/>
  <text x="2000" y="928" text-anchor="middle" class="small">Actual return on money</text>

  <line x1="100" y1="945" x2="2450" y2="945" stroke="#222222" stroke-width="0.5"/>

  <text x="200" y="978" text-anchor="middle" class="body">70% Rule</text>
  <text x="600" y="978" text-anchor="middle" class="body">Max Offer</text>
  <text x="1000" y="978" text-anchor="middle" class="body">ARV x 0.7 - Repairs</text>
  <rect x="1440" y="960" width="120" height="24" rx="3" fill="none" stroke="#999999" stroke-width="0.5"/>
  <text x="2000" y="978" text-anchor="middle" class="small">Flip safety margin</text>

  <line x1="100" y1="995" x2="2450" y2="995" stroke="#222222" stroke-width="0.5"/>

  <text x="200" y="1028" text-anchor="middle" class="body">1% Rule</text>
  <text x="600" y="1028" text-anchor="middle" class="body">Monthly Rent</text>
  <text x="1000" y="1028" text-anchor="middle" class="body">Rent >= 1% of Price</text>
  <rect x="1440" y="1010" width="120" height="24" rx="3" fill="none" stroke="#999999" stroke-width="0.5"/>
  <text x="2000" y="1028" text-anchor="middle" class="small">Quick screen filter</text>

  <line x1="100" y1="1045" x2="2450" y2="1045" stroke="#222222" stroke-width="0.5"/>

  <text x="200" y="1078" text-anchor="middle" class="body">DSCR</text>
  <text x="600" y="1078" text-anchor="middle" class="body">1.25+</text>
  <text x="1000" y="1078" text-anchor="middle" class="body">NOI / Debt Service</text>
  <rect x="1440" y="1060" width="120" height="24" rx="3" fill="none" stroke="#999999" stroke-width="0.5"/>
  <text x="2000" y="1078" text-anchor="middle" class="small">Lender requirement</text>

  <!-- ===================== -->
  <!-- SECTION 4: RENOVATION -->
  <!-- ===================== -->
  <text x="100" y="1170" class="section-num">04</text>
  <text x="160" y="1170" class="section-title">RENOVATION PROCESS</text>
  <line x1="100" y1="1185" x2="1200" y2="1185" stroke="#007AFF" stroke-width="1"/>

  <!-- Renovation flowchart (horizontal) -->
  <rect x="100" y="1220" width="180" height="80" rx="4" fill="none" stroke="#007AFF" stroke-width="1.5"/>
  <text x="190" y="1255" text-anchor="middle" class="body-bold">Inspection</text>
  <text x="190" y="1278" text-anchor="middle" class="small">Scope of work</text>

  <line x1="280" y1="1260" x2="340" y2="1260" stroke="#333333" stroke-width="1"/>
  <polygon points="335,1256 335,1264 343,1260" fill="#333333"/>

  <rect x="345" y="1220" width="180" height="80" rx="4" fill="none" stroke="#ffffff" stroke-width="1"/>
  <text x="435" y="1255" text-anchor="middle" class="body-bold">Contractor</text>
  <text x="435" y="1278" text-anchor="middle" class="small">3 bids minimum</text>

  <line x1="525" y1="1260" x2="585" y2="1260" stroke="#333333" stroke-width="1"/>
  <polygon points="580,1256 580,1264 588,1260" fill="#333333"/>

  <rect x="590" y="1220" width="180" height="80" rx="4" fill="none" stroke="#ffffff" stroke-width="1"/>
  <text x="680" y="1255" text-anchor="middle" class="body-bold">Permits</text>
  <text x="680" y="1278" text-anchor="middle" class="small">City compliance</text>

  <line x1="770" y1="1260" x2="830" y2="1260" stroke="#333333" stroke-width="1"/>
  <polygon points="825,1256 825,1264 833,1260" fill="#333333"/>

  <rect x="835" y="1220" width="180" height="80" rx="4" fill="none" stroke="#ffffff" stroke-width="1"/>
  <text x="925" y="1255" text-anchor="middle" class="body-bold">Execution</text>
  <text x="925" y="1278" text-anchor="middle" class="small">Weekly walkthroughs</text>

  <line x1="1015" y1="1260" x2="1075" y2="1260" stroke="#333333" stroke-width="1"/>
  <polygon points="1070,1256 1070,1264 1078,1260" fill="#333333"/>

  <rect x="1080" y="1220" width="180" height="80" rx="4" fill="none" stroke="#007AFF" stroke-width="1.5"/>
  <text x="1170" y="1255" text-anchor="middle" class="body-bold">Final Walk</text>
  <text x="1170" y="1278" text-anchor="middle" class="small">Punch list review</text>

  <!-- Renovation budget checklist -->
  <text x="100" y="1370" class="body-bold">Budget Categories</text>
  <rect x="100" y="1390" width="16" height="16" rx="2" fill="none" stroke="#999999" stroke-width="1"/>
  <text x="130" y="1404" class="checkbox">Kitchen renovation ($8K-$25K)</text>
  <rect x="100" y="1420" width="16" height="16" rx="2" fill="none" stroke="#999999" stroke-width="1"/>
  <text x="130" y="1434" class="checkbox">Bathroom remodel ($5K-$15K)</text>
  <rect x="100" y="1450" width="16" height="16" rx="2" fill="none" stroke="#999999" stroke-width="1"/>
  <text x="130" y="1464" class="checkbox">Roof replacement ($6K-$12K)</text>
  <rect x="100" y="1480" width="16" height="16" rx="2" fill="none" stroke="#999999" stroke-width="1"/>
  <text x="130" y="1494" class="checkbox">HVAC system ($4K-$10K)</text>
  <rect x="100" y="1510" width="16" height="16" rx="2" fill="none" stroke="#999999" stroke-width="1"/>
  <text x="130" y="1524" class="checkbox">Flooring ($3K-$8K)</text>
  <rect x="100" y="1540" width="16" height="16" rx="2" fill="none" stroke="#999999" stroke-width="1"/>
  <text x="130" y="1554" class="checkbox">Paint interior/exterior ($2K-$5K)</text>
  <rect x="100" y="1570" width="16" height="16" rx="2" fill="none" stroke="#999999" stroke-width="1"/>
  <text x="130" y="1584" class="checkbox">Landscaping ($1K-$5K)</text>

  <!-- ===================== -->
  <!-- SECTION 5: TENANT MANAGEMENT -->
  <!-- ===================== -->
  <text x="1350" y="1170" class="section-num">05</text>
  <text x="1410" y="1170" class="section-title">TENANT MANAGEMENT</text>
  <line x1="1350" y1="1185" x2="2450" y2="1185" stroke="#007AFF" stroke-width="1"/>

  <!-- Tenant process -->
  <rect x="1350" y="1220" width="1100" height="50" rx="4" fill="#111111"/>
  <text x="1900" y="1252" text-anchor="middle" class="body-bold">SCREENING PIPELINE</text>

  <rect x="1350" y="1290" width="250" height="70" rx="4" fill="none" stroke="#ffffff" stroke-width="1"/>
  <text x="1475" y="1322" text-anchor="middle" class="body-white">Application</text>
  <text x="1475" y="1345" text-anchor="middle" class="small">Income + employment</text>

  <line x1="1600" y1="1325" x2="1650" y2="1325" stroke="#333333" stroke-width="1"/>
  <polygon points="1645,1321 1645,1329 1653,1325" fill="#333333"/>

  <rect x="1655" y="1290" width="250" height="70" rx="4" fill="none" stroke="#ffffff" stroke-width="1"/>
  <text x="1780" y="1322" text-anchor="middle" class="body-white">Background</text>
  <text x="1780" y="1345" text-anchor="middle" class="small">Credit + criminal</text>

  <line x1="1905" y1="1325" x2="1955" y2="1325" stroke="#333333" stroke-width="1"/>
  <polygon points="1950,1321 1950,1329 1958,1325" fill="#333333"/>

  <rect x="1960" y="1290" width="250" height="70" rx="4" fill="none" stroke="#007AFF" stroke-width="1.5"/>
  <text x="2085" y="1322" text-anchor="middle" class="body-white">Lease Signing</text>
  <text x="2085" y="1345" text-anchor="middle" class="small">12-month standard</text>

  <!-- Tenant checklist -->
  <text x="1350" y="1420" class="body-bold">Management Checklist</text>
  <rect x="1350" y="1440" width="16" height="16" rx="2" fill="none" stroke="#999999" stroke-width="1"/>
  <text x="1380" y="1454" class="checkbox">Collect 3x income verification</text>
  <rect x="1350" y="1470" width="16" height="16" rx="2" fill="none" stroke="#999999" stroke-width="1"/>
  <text x="1380" y="1484" class="checkbox">Set up online rent collection</text>
  <rect x="1350" y="1500" width="16" height="16" rx="2" fill="none" stroke="#999999" stroke-width="1"/>
  <text x="1380" y="1514" class="checkbox">Schedule quarterly inspections</text>
  <rect x="1350" y="1530" width="16" height="16" rx="2" fill="none" stroke="#999999" stroke-width="1"/>
  <text x="1380" y="1544" class="checkbox">Maintain emergency fund (6 months)</text>
  <rect x="1350" y="1560" width="16" height="16" rx="2" fill="none" stroke="#999999" stroke-width="1"/>
  <text x="1380" y="1574" class="checkbox">Document all communications</text>
  <rect x="1350" y="1590" width="16" height="16" rx="2" fill="none" stroke="#999999" stroke-width="1"/>
  <text x="1380" y="1604" class="checkbox">Know local landlord-tenant laws</text>

  <!-- ===================== -->
  <!-- SECTION 6: PORTFOLIO GROWTH -->
  <!-- ===================== -->
  <text x="100" y="1680" class="section-num">06</text>
  <text x="160" y="1680" class="section-title">PORTFOLIO GROWTH STRATEGY</text>
  <line x1="100" y1="1695" x2="2450" y2="1695" stroke="#007AFF" stroke-width="1"/>

  <!-- Growth timeline -->
  <line x1="200" y1="1780" x2="2350" y2="1780" stroke="#333333" stroke-width="2"/>

  <!-- Year 1 -->
  <circle cx="400" cy="1780" r="10" fill="#007AFF"/>
  <text x="400" y="1755" text-anchor="middle" class="body-bold">YEAR 1</text>
  <rect x="280" y="1810" width="240" height="90" rx="4" fill="none" stroke="#ffffff" stroke-width="1"/>
  <text x="400" y="1840" text-anchor="middle" class="body-white">1-2 Properties</text>
  <text x="400" y="1865" text-anchor="middle" class="small">House hack or BRRRR</text>
  <text x="400" y="1885" text-anchor="middle" class="small">Learn systems</text>

  <!-- Year 3 -->
  <circle cx="900" cy="1780" r="10" fill="#007AFF"/>
  <text x="900" y="1755" text-anchor="middle" class="body-bold">YEAR 3</text>
  <rect x="780" y="1810" width="240" height="90" rx="4" fill="none" stroke="#ffffff" stroke-width="1"/>
  <text x="900" y="1840" text-anchor="middle" class="body-white">5-10 Units</text>
  <text x="900" y="1865" text-anchor="middle" class="small">Refinance + repeat</text>
  <text x="900" y="1885" text-anchor="middle" class="small">Hire property manager</text>

  <!-- Year 5 -->
  <circle cx="1400" cy="1780" r="10" fill="#007AFF"/>
  <text x="1400" y="1755" text-anchor="middle" class="body-bold">YEAR 5</text>
  <rect x="1280" y="1810" width="240" height="90" rx="4" fill="none" stroke="#ffffff" stroke-width="1"/>
  <text x="1400" y="1840" text-anchor="middle" class="body-white">20-30 Units</text>
  <text x="1400" y="1865" text-anchor="middle" class="small">Multifamily pivot</text>
  <text x="1400" y="1885" text-anchor="middle" class="small">Syndication deals</text>

  <!-- Year 10 -->
  <circle cx="1900" cy="1780" r="10" fill="#007AFF"/>
  <text x="1900" y="1755" text-anchor="middle" class="body-bold">YEAR 10</text>
  <rect x="1780" y="1810" width="240" height="90" rx="4" fill="none" stroke="#ffffff" stroke-width="1"/>
  <text x="1900" y="1840" text-anchor="middle" class="body-white">50-100+ Units</text>
  <text x="1900" y="1865" text-anchor="middle" class="small">Full-time investor</text>
  <text x="1900" y="1885" text-anchor="middle" class="small">Financial freedom</text>

  <!-- BRRRR Strategy Box -->
  <rect x="100" y="1950" width="1100" height="320" rx="4" fill="none" stroke="#007AFF" stroke-width="1.5"/>
  <text x="650" y="1990" text-anchor="middle" class="section-title">BRRRR METHOD</text>
  <line x1="120" y1="2005" x2="1180" y2="2005" stroke="#007AFF" stroke-width="0.5"/>

  <text x="200" y="2050" class="body-bold">B</text>
  <text x="240" y="2050" class="body">Buy undervalued property</text>

  <text x="200" y="2090" class="body-bold">R</text>
  <text x="240" y="2090" class="body">Rehab to increase value</text>

  <text x="200" y="2130" class="body-bold">R</text>
  <text x="240" y="2130" class="body">Rent to qualified tenant</text>

  <text x="200" y="2170" class="body-bold">R</text>
  <text x="240" y="2170" class="body">Refinance at new appraised value</text>

  <text x="200" y="2210" class="body-bold">R</text>
  <text x="240" y="2210" class="body">Repeat with pulled-out capital</text>

  <!-- Progress bars for BRRRR -->
  <rect x="700" y="2035" width="360" height="12" rx="6" fill="#222222"/>
  <rect x="700" y="2035" width="360" height="12" rx="6" fill="#007AFF" opacity="0.8"/>
  <text x="1080" y="2046" class="small-white">100%</text>

  <rect x="700" y="2075" width="360" height="12" rx="6" fill="#222222"/>
  <rect x="700" y="2075" width="288" height="12" rx="6" fill="#007AFF" opacity="0.6"/>
  <text x="1080" y="2086" class="small-white">80%</text>

  <rect x="700" y="2115" width="360" height="12" rx="6" fill="#222222"/>
  <rect x="700" y="2115" width="216" height="12" rx="6" fill="#007AFF" opacity="0.5"/>
  <text x="1080" y="2126" class="small-white">60%</text>

  <rect x="700" y="2155" width="360" height="12" rx="6" fill="#222222"/>
  <rect x="700" y="2155" width="144" height="12" rx="6" fill="#007AFF" opacity="0.4"/>
  <text x="1080" y="2166" class="small-white">40%</text>

  <rect x="700" y="2195" width="360" height="12" rx="6" fill="#222222"/>
  <rect x="700" y="2195" width="72" height="12" rx="6" fill="#007AFF" opacity="0.3"/>
  <text x="1080" y="2206" class="small-white">20%</text>

  <!-- ===================== -->
  <!-- SECTION 7: REVENUE TRACKER -->
  <!-- ===================== -->
  <text x="1350" y="1960" class="section-num">07</text>
  <text x="1410" y="1960" class="section-title">REVENUE TRACKER</text>
  <line x1="1350" y1="1975" x2="2450" y2="1975" stroke="#007AFF" stroke-width="1"/>

  <!-- Metric boxes -->
  <rect x="1350" y="2010" width="340" height="100" rx="4" fill="#111111"/>
  <text x="1520" y="2060" text-anchor="middle" class="metric-value">$____</text>
  <text x="1520" y="2090" text-anchor="middle" class="metric-label">MONTHLY RENTAL INCOME</text>

  <rect x="1720" y="2010" width="340" height="100" rx="4" fill="#111111"/>
  <text x="1890" y="2060" text-anchor="middle" class="metric-value">$____</text>
  <text x="1890" y="2090" text-anchor="middle" class="metric-label">MONTHLY NET CASH FLOW</text>

  <rect x="1350" y="2130" width="340" height="100" rx="4" fill="#111111"/>
  <text x="1520" y="2180" text-anchor="middle" class="metric-value">____</text>
  <text x="1520" y="2210" text-anchor="middle" class="metric-label">TOTAL UNITS OWNED</text>

  <rect x="1720" y="2130" width="340" height="100" rx="4" fill="#111111"/>
  <text x="1890" y="2180" text-anchor="middle" class="metric-value">$____</text>
  <text x="1890" y="2210" text-anchor="middle" class="metric-label">TOTAL PORTFOLIO VALUE</text>

  <!-- Monthly tracker table -->
  <rect x="1350" y="2260" width="1100" height="40" rx="0" fill="#111111"/>
  <text x="1450" y="2286" text-anchor="middle" class="body-bold">MONTH</text>
  <text x="1600" y="2286" text-anchor="middle" class="body-bold">INCOME</text>
  <text x="1750" y="2286" text-anchor="middle" class="body-bold">EXPENSES</text>
  <text x="1920" y="2286" text-anchor="middle" class="body-bold">NET</text>
  <text x="2100" y="2286" text-anchor="middle" class="body-bold">VACANCY</text>
  <text x="2350" y="2286" text-anchor="middle" class="body-bold">NOTES</text>

  <line x1="1350" y1="2300" x2="2450" y2="2300" stroke="#333333" stroke-width="0.5"/>
  <text x="1450" y="2328" text-anchor="middle" class="body">Month 1</text>
  <text x="1600" y="2328" text-anchor="middle" class="body">$_____</text>
  <text x="1750" y="2328" text-anchor="middle" class="body">$_____</text>
  <text x="1920" y="2328" text-anchor="middle" class="body">$_____</text>
  <text x="2100" y="2328" text-anchor="middle" class="body">____%</text>

  <line x1="1350" y1="2345" x2="2450" y2="2345" stroke="#222222" stroke-width="0.5"/>
  <text x="1450" y="2373" text-anchor="middle" class="body">Month 2</text>
  <text x="1600" y="2373" text-anchor="middle" class="body">$_____</text>
  <text x="1750" y="2373" text-anchor="middle" class="body">$_____</text>
  <text x="1920" y="2373" text-anchor="middle" class="body">$_____</text>
  <text x="2100" y="2373" text-anchor="middle" class="body">____%</text>

  <line x1="1350" y1="2390" x2="2450" y2="2390" stroke="#222222" stroke-width="0.5"/>
  <text x="1450" y="2418" text-anchor="middle" class="body">Month 3</text>
  <text x="1600" y="2418" text-anchor="middle" class="body">$_____</text>
  <text x="1750" y="2418" text-anchor="middle" class="body">$_____</text>
  <text x="1920" y="2418" text-anchor="middle" class="body">$_____</text>
  <text x="2100" y="2418" text-anchor="middle" class="body">____%</text>

  <!-- Key metrics at bottom -->
  <text x="100" y="2350" class="section-num">KEY RATIOS</text>
  <line x1="100" y1="2365" x2="1200" y2="2365" stroke="#007AFF" stroke-width="1"/>

  <rect x="100" y="2390" width="260" height="80" rx="4" fill="#111111"/>
  <text x="230" y="2425" text-anchor="middle" class="body-bold">Cap Rate</text>
  <text x="230" y="2455" text-anchor="middle" class="metric-label">TARGET: 8-12%</text>

  <rect x="390" y="2390" width="260" height="80" rx="4" fill="#111111"/>
  <text x="520" y="2425" text-anchor="middle" class="body-bold">Cash-on-Cash</text>
  <text x="520" y="2455" text-anchor="middle" class="metric-label">TARGET: 10%+</text>

  <rect x="680" y="2390" width="260" height="80" rx="4" fill="#111111"/>
  <text x="810" y="2425" text-anchor="middle" class="body-bold">Vacancy Rate</text>
  <text x="810" y="2455" text-anchor="middle" class="metric-label">TARGET: &lt;5%</text>

  <rect x="970" y="2390" width="260" height="80" rx="4" fill="#111111"/>
  <text x="1100" y="2425" text-anchor="middle" class="body-bold">Expense Ratio</text>
  <text x="1100" y="2455" text-anchor="middle" class="metric-label">TARGET: 40-50%</text>

  <!-- Footer -->
  <line x1="100" y1="3200" x2="2450" y2="3200" stroke="#333333" stroke-width="0.5"/>
  <text x="1275" y="3240" text-anchor="middle" class="footer">behike.co</text>
</svg>