<?xml version="1.0" encoding="UTF-8"?>
<svg xmlns="http://www.w3.org/2000/svg" viewBox="0 0 2400 1800" width="2400" height="1800">
  <defs>
    <style>
      text { font-family: 'Helvetica Neue', Helvetica, Arial, sans-serif; fill: #fff; }
      .title { font-size: 28px; font-weight: bold; letter-spacing: 4px; }
      .subtitle { font-size: 14px; fill: #999; letter-spacing: 2px; }
      .section-title { font-size: 16px; font-weight: bold; letter-spacing: 1px; }
      .body { font-size: 12px; fill: #999; }
      .body-white { font-size: 12px; fill: #fff; }
      .small { font-size: 10px; fill: #999; }
      .checkbox { font-size: 11px; fill: #999; }
      .table-head { font-size: 11px; font-weight: bold; fill: #fff; }
      .table-cell { font-size: 10px; fill: #999; }
      .hub-label { font-size: 18px; font-weight: bold; letter-spacing: 2px; }
      .tier-label { font-size: 14px; font-weight: bold; }
      .price { font-size: 12px; fill: #999; letter-spacing: 1px; }
      .accent { font-size: 20px; font-weight: bold; }
      .metric-value { font-size: 22px; font-weight: bold; }
      .metric-label { font-size: 10px; fill: #999; letter-spacing: 1px; }
    </style>
  </defs>

  <!-- Background -->
  <rect width="2400" height="1800" fill="#000"/>

  <!-- Border -->
  <rect x="30" y="30" width="2340" height="1740" fill="none" stroke="#333" stroke-width="1"/>
  <rect x="35" y="35" width="2330" height="1730" fill="none" stroke="#222" stroke-width="0.5"/>

  <!-- Header -->
  <text x="1200" y="80" text-anchor="middle" class="title">MICRO-SAAS BLUEPRINT</text>
  <line x1="400" y1="95" x2="2000" y2="95" stroke="#333" stroke-width="0.5"/>
  <text x="1200" y="115" text-anchor="middle" class="subtitle">FROM IDEA TO $10K MRR</text>

  <!-- ============================================ -->
  <!-- SECTION 1: Problem / Solution Fit (top-left) -->
  <!-- ============================================ -->

  <rect x="60" y="140" width="540" height="280" rx="3" fill="none" stroke="#fff" stroke-width="1"/>
  <text x="330" y="170" text-anchor="middle" class="section-title">01 / PROBLEM-SOLUTION FIT</text>
  <line x1="80" y1="182" x2="580" y2="182" stroke="#333" stroke-width="0.5"/>

  <text x="80" y="208" class="body">Target User:</text>
  <rect x="210" y="195" width="370" height="18" rx="2" fill="none" stroke="#333" stroke-width="0.5"/>

  <text x="80" y="235" class="body">Pain Point:</text>
  <rect x="80" y="245" width="500" height="35" rx="2" fill="none" stroke="#333" stroke-width="0.5"/>

  <text x="80" y="300" class="body">Current Solution:</text>
  <rect x="250" y="287" width="330" height="18" rx="2" fill="none" stroke="#333" stroke-width="0.5"/>

  <text x="80" y="325" class="body">Your Solution (1 sentence):</text>
  <rect x="80" y="335" width="500" height="35" rx="2" fill="none" stroke="#333" stroke-width="0.5"/>

  <text x="80" y="395" class="body">Validation:</text>
  <text x="80" y="412" class="checkbox">[ ] Talked to 5+ potential users</text>
  <text x="350" y="412" class="checkbox">[ ] Found competitors (good sign)</text>

  <!-- ============================================ -->
  <!-- SECTION 2: MVP Build - 4 Week Sprint (top-center) -->
  <!-- ============================================ -->

  <rect x="620" y="140" width="560" height="280" rx="3" fill="none" stroke="#fff" stroke-width="1"/>
  <text x="900" y="170" text-anchor="middle" class="section-title">02 / MVP BUILD (4-WEEK SPRINT)</text>
  <line x1="640" y1="182" x2="1160" y2="182" stroke="#333" stroke-width="0.5"/>

  <!-- Week boxes connected by arrows -->
  <rect x="640" y="200" width="110" height="80" rx="3" fill="none" stroke="#fff" stroke-width="1"/>
  <text x="695" y="220" text-anchor="middle" class="body-white">WEEK 1</text>
  <text x="695" y="237" text-anchor="middle" class="small">Core Feature</text>
  <text x="650" y="255" class="checkbox">[ ] _________</text>
  <text x="650" y="270" class="checkbox">[ ] _________</text>

  <path d="M 750,240 L 770,240" fill="none" stroke="#999" stroke-width="1"/>
  <polygon points="768,237 775,240 768,243" fill="#999"/>

  <rect x="780" y="200" width="110" height="80" rx="3" fill="none" stroke="#fff" stroke-width="1"/>
  <text x="835" y="220" text-anchor="middle" class="body-white">WEEK 2</text>
  <text x="835" y="237" text-anchor="middle" class="small">Auth + DB</text>
  <text x="790" y="255" class="checkbox">[ ] _________</text>
  <text x="790" y="270" class="checkbox">[ ] _________</text>

  <path d="M 890,240 L 910,240" fill="none" stroke="#999" stroke-width="1"/>
  <polygon points="908,237 915,240 908,243" fill="#999"/>

  <rect x="920" y="200" width="110" height="80" rx="3" fill="none" stroke="#fff" stroke-width="1"/>
  <text x="975" y="220" text-anchor="middle" class="body-white">WEEK 3</text>
  <text x="975" y="237" text-anchor="middle" class="small">Payments</text>
  <text x="930" y="255" class="checkbox">[ ] _________</text>
  <text x="930" y="270" class="checkbox">[ ] _________</text>

  <path d="M 1030,240 L 1050,240" fill="none" stroke="#999" stroke-width="1"/>
  <polygon points="1048,237 1055,240 1048,243" fill="#999"/>

  <rect x="1060" y="200" width="110" height="80" rx="3" fill="none" stroke="#fff" stroke-width="1"/>
  <text x="1115" y="220" text-anchor="middle" class="body-white">WEEK 4</text>
  <text x="1115" y="237" text-anchor="middle" class="small">Launch</text>
  <text x="1070" y="255" class="checkbox">[ ] _________</text>
  <text x="1070" y="270" class="checkbox">[ ] _________</text>

  <!-- MVP Checklist -->
  <line x1="640" y1="295" x2="1160" y2="295" stroke="#333" stroke-width="0.5"/>
  <text x="640" y="315" class="body">Launch Checklist:</text>
  <text x="640" y="335" class="checkbox">[ ] Landing page live          [ ] Stripe connected</text>
  <text x="640" y="355" class="checkbox">[ ] Analytics installed         [ ] Error monitoring</text>
  <text x="640" y="375" class="checkbox">[ ] First 10 beta users        [ ] Feedback form</text>
  <text x="640" y="395" class="checkbox">[ ] Product Hunt draft         [ ] Social proof</text>

  <!-- ============================================ -->
  <!-- SECTION 3: Pricing (top-right) -->
  <!-- ============================================ -->

  <rect x="1200" y="140" width="520" height="280" rx="3" fill="none" stroke="#fff" stroke-width="1"/>
  <text x="1460" y="170" text-anchor="middle" class="section-title">03 / PRICING MODEL</text>
  <line x1="1220" y1="182" x2="1700" y2="182" stroke="#333" stroke-width="0.5"/>

  <!-- Three pricing tiers -->
  <rect x="1220" y="200" width="145" height="130" rx="3" fill="none" stroke="#999" stroke-width="1"/>
  <text x="1292" y="225" text-anchor="middle" class="tier-label">FREE</text>
  <text x="1292" y="248" text-anchor="middle" class="accent">$0</text>
  <line x1="1240" y1="258" x2="1345" y2="258" stroke="#333" stroke-width="0.5"/>
  <text x="1230" y="275" class="small">[ ] ___________</text>
  <text x="1230" y="290" class="small">[ ] ___________</text>
  <text x="1230" y="305" class="small">[ ] ___________</text>
  <text x="1292" y="325" text-anchor="middle" class="small">Limit: ____</text>

  <rect x="1385" y="200" width="145" height="130" rx="3" fill="none" stroke="#fff" stroke-width="1.5"/>
  <text x="1457" y="225" text-anchor="middle" class="tier-label">PRO</text>
  <text x="1457" y="248" text-anchor="middle" class="accent">$__/mo</text>
  <line x1="1405" y1="258" x2="1510" y2="258" stroke="#333" stroke-width="0.5"/>
  <text x="1395" y="275" class="small">[ ] ___________</text>
  <text x="1395" y="290" class="small">[ ] ___________</text>
  <text x="1395" y="305" class="small">[ ] ___________</text>
  <text x="1457" y="325" text-anchor="middle" class="small">Limit: ____</text>

  <rect x="1550" y="200" width="145" height="130" rx="3" fill="none" stroke="#fff" stroke-width="1"/>
  <text x="1622" y="225" text-anchor="middle" class="tier-label">TEAM</text>
  <text x="1622" y="248" text-anchor="middle" class="accent">$__/mo</text>
  <line x1="1570" y1="258" x2="1675" y2="258" stroke="#333" stroke-width="0.5"/>
  <text x="1560" y="275" class="small">[ ] ___________</text>
  <text x="1560" y="290" class="small">[ ] ___________</text>
  <text x="1560" y="305" class="small">[ ] ___________</text>
  <text x="1622" y="325" text-anchor="middle" class="small">Seats: ____</text>

  <!-- Pricing notes -->
  <text x="1220" y="355" class="body">Annual discount: ____%</text>
  <text x="1220" y="375" class="body">Free trial: ____ days</text>
  <text x="1450" y="355" class="body">Target conversion:</text>
  <text x="1450" y="375" class="body">Free to Pro: ____%</text>
  <text x="1450" y="395" class="body">Pro to Team: ____%</text>

  <!-- ============================================ -->
  <!-- SECTION 4: Customer Acquisition Hub-Spoke (center-left) -->
  <!-- ============================================ -->

  <rect x="60" y="440" width="700" height="340" rx="3" fill="none" stroke="#fff" stroke-width="1"/>
  <text x="410" y="470" text-anchor="middle" class="section-title">04 / CUSTOMER ACQUISITION</text>
  <line x1="80" y1="482" x2="740" y2="482" stroke="#333" stroke-width="0.5"/>

  <!-- Hub node -->
  <circle cx="410" cy="600" r="45" fill="none" stroke="#fff" stroke-width="1.5"/>
  <text x="410" y="596" text-anchor="middle" class="body-white">GROWTH</text>
  <text x="410" y="610" text-anchor="middle" class="body-white">ENGINE</text>

  <!-- Spoke 1: SEO -->
  <path d="M 365,600 C 280,600 200,540 170,520" fill="none" stroke="#999" stroke-width="1"/>
  <circle cx="170" cy="520" r="4" fill="#fff"/>
  <rect x="90" y="500" width="130" height="40" rx="3" fill="none" stroke="#fff" stroke-width="1"/>
  <text x="155" y="518" text-anchor="middle" class="body-white">SEO</text>
  <text x="155" y="533" text-anchor="middle" class="small">Blog + docs</text>

  <!-- Spoke 2: Content -->
  <path d="M 370,575 C 280,530 220,510 180,620" fill="none" stroke="#999" stroke-width="1"/>
  <circle cx="180" cy="620" r="4" fill="#fff"/>
  <rect x="90" y="600" width="130" height="40" rx="3" fill="none" stroke="#fff" stroke-width="1"/>
  <text x="155" y="618" text-anchor="middle" class="body-white">CONTENT</text>
  <text x="155" y="633" text-anchor="middle" class="small">Twitter + YT</text>

  <!-- Spoke 3: Cold Outreach -->
  <path d="M 380,640 C 320,700 250,720 180,720" fill="none" stroke="#999" stroke-width="1"/>
  <circle cx="180" cy="720" r="4" fill="#fff"/>
  <rect x="90" y="700" width="130" height="40" rx="3" fill="none" stroke="#fff" stroke-width="1"/>
  <text x="155" y="718" text-anchor="middle" class="body-white">COLD OUTREACH</text>
  <text x="155" y="733" text-anchor="middle" class="small">Email + DMs</text>

  <!-- Spoke 4: Product Hunt -->
  <path d="M 455,600 C 540,600 600,540 640,520" fill="none" stroke="#999" stroke-width="1"/>
  <circle cx="640" cy="520" r="4" fill="#fff"/>
  <rect x="580" y="500" width="150" height="40" rx="3" fill="none" stroke="#fff" stroke-width="1"/>
  <text x="655" y="518" text-anchor="middle" class="body-white">PRODUCT HUNT</text>
  <text x="655" y="533" text-anchor="middle" class="small">Launch day plan</text>

  <!-- Spoke 5: Referrals -->
  <path d="M 450,625 C 540,680 600,700 640,700" fill="none" stroke="#999" stroke-width="1"/>
  <circle cx="640" cy="700" r="4" fill="#fff"/>
  <rect x="580" y="680" width="150" height="40" rx="3" fill="none" stroke="#fff" stroke-width="1"/>
  <text x="655" y="698" text-anchor="middle" class="body-white">REFERRALS</text>
  <text x="655" y="713" text-anchor="middle" class="small">In-app program</text>

  <!-- ============================================ -->
  <!-- SECTION 5: Key Metrics (center-right) -->
  <!-- ============================================ -->

  <rect x="780" y="440" width="540" height="340" rx="3" fill="none" stroke="#fff" stroke-width="1"/>
  <text x="1050" y="470" text-anchor="middle" class="section-title">05 / KEY METRICS</text>
  <line x1="800" y1="482" x2="1300" y2="482" stroke="#333" stroke-width="0.5"/>

  <!-- Metric cards -->
  <rect x="810" y="500" width="120" height="80" rx="3" fill="none" stroke="#fff" stroke-width="1"/>
  <text x="870" y="530" text-anchor="middle" class="metric-value">$___</text>
  <text x="870" y="550" text-anchor="middle" class="metric-label">MRR</text>
  <text x="870" y="570" text-anchor="middle" class="small">Target: $____</text>

  <rect x="950" y="500" width="120" height="80" rx="3" fill="none" stroke="#fff" stroke-width="1"/>
  <text x="1010" y="530" text-anchor="middle" class="metric-value">___%</text>
  <text x="1010" y="550" text-anchor="middle" class="metric-label">CHURN</text>
  <text x="1010" y="570" text-anchor="middle" class="small">Goal: &lt;5%</text>

  <rect x="1090" y="500" width="120" height="80" rx="3" fill="none" stroke="#fff" stroke-width="1"/>
  <text x="1150" y="530" text-anchor="middle" class="metric-value">$___</text>
  <text x="1150" y="550" text-anchor="middle" class="metric-label">LTV</text>
  <text x="1150" y="570" text-anchor="middle" class="small">Target: $____</text>

  <rect x="810" y="600" width="120" height="80" rx="3" fill="none" stroke="#fff" stroke-width="1"/>
  <text x="870" y="630" text-anchor="middle" class="metric-value">$___</text>
  <text x="870" y="650" text-anchor="middle" class="metric-label">CAC</text>
  <text x="870" y="670" text-anchor="middle" class="small">Goal: &lt;$___</text>

  <rect x="950" y="600" width="120" height="80" rx="3" fill="none" stroke="#fff" stroke-width="1"/>
  <text x="1010" y="630" text-anchor="middle" class="metric-value">____</text>
  <text x="1010" y="650" text-anchor="middle" class="metric-label">USERS</text>
  <text x="1010" y="670" text-anchor="middle" class="small">Target: ____</text>

  <rect x="1090" y="600" width="120" height="80" rx="3" fill="none" stroke="#fff" stroke-width="1"/>
  <text x="1150" y="630" text-anchor="middle" class="metric-value">___x</text>
  <text x="1150" y="650" text-anchor="middle" class="metric-label">LTV:CAC</text>
  <text x="1150" y="670" text-anchor="middle" class="small">Goal: 3x+</text>

  <!-- Tracking table -->
  <text x="810" y="710" class="table-head">Month       MRR       Users     Churn     LTV:CAC</text>
  <line x1="810" y1="715" x2="1290" y2="715" stroke="#333" stroke-width="0.5"/>
  <text x="810" y="730" class="table-cell">Month 1     $____     ____      ____%     ___x</text>
  <text x="810" y="745" class="table-cell">Month 3     $____     ____      ____%     ___x</text>
  <text x="810" y="760" class="table-cell">Month 6     $____     ____      ____%     ___x</text>

  <!-- ============================================ -->
  <!-- SECTION 6: Tech Stack (far right) -->
  <!-- ============================================ -->

  <rect x="1340" y="440" width="340" height="340" rx="3" fill="none" stroke="#fff" stroke-width="1"/>
  <text x="1510" y="470" text-anchor="middle" class="section-title">06 / TECH STACK</text>
  <line x1="1360" y1="482" x2="1660" y2="482" stroke="#333" stroke-width="0.5"/>

  <text x="1360" y="505" class="body">Frontend:</text>
  <rect x="1360" y="512" width="300" height="18" rx="2" fill="none" stroke="#333" stroke-width="0.5"/>

  <text x="1360" y="548" class="body">Backend:</text>
  <rect x="1360" y="555" width="300" height="18" rx="2" fill="none" stroke="#333" stroke-width="0.5"/>

  <text x="1360" y="590" class="body">Database:</text>
  <rect x="1360" y="597" width="300" height="18" rx="2" fill="none" stroke="#333" stroke-width="0.5"/>

  <text x="1360" y="632" class="body">Auth:</text>
  <rect x="1360" y="639" width="300" height="18" rx="2" fill="none" stroke="#333" stroke-width="0.5"/>

  <text x="1360" y="672" class="body">Payments:</text>
  <rect x="1360" y="679" width="300" height="18" rx="2" fill="none" stroke="#333" stroke-width="0.5"/>

  <text x="1360" y="712" class="body">Hosting:</text>
  <rect x="1360" y="719" width="300" height="18" rx="2" fill="none" stroke="#333" stroke-width="0.5"/>

  <text x="1360" y="752" class="body">Analytics:</text>
  <rect x="1360" y="759" width="300" height="18" rx="2" fill="none" stroke="#333" stroke-width="0.5"/>

  <!-- ============================================ -->
  <!-- SECTION 7: Support System (far right) -->
  <!-- ============================================ -->

  <rect x="1700" y="440" width="280" height="340" rx="3" fill="none" stroke="#fff" stroke-width="1"/>
  <text x="1840" y="470" text-anchor="middle" class="section-title">07 / SUPPORT</text>
  <line x1="1720" y1="482" x2="1960" y2="482" stroke="#333" stroke-width="0.5"/>

  <text x="1720" y="508" class="body">Tier 1: Self-serve</text>
  <text x="1720" y="526" class="checkbox">[ ] Knowledge base</text>
  <text x="1720" y="543" class="checkbox">[ ] FAQ page</text>
  <text x="1720" y="560" class="checkbox">[ ] In-app tooltips</text>

  <text x="1720" y="588" class="body">Tier 2: Async</text>
  <text x="1720" y="606" class="checkbox">[ ] Email support</text>
  <text x="1720" y="623" class="checkbox">[ ] Discord/Slack</text>
  <text x="1720" y="640" class="checkbox">[ ] Bug tracker</text>

  <text x="1720" y="668" class="body">Tier 3: High-touch</text>
  <text x="1720" y="686" class="checkbox">[ ] Live chat (Pro+)</text>
  <text x="1720" y="703" class="checkbox">[ ] Onboarding calls</text>
  <text x="1720" y="720" class="checkbox">[ ] Dedicated CSM</text>

  <text x="1720" y="752" class="body">Response SLA:</text>
  <rect x="1720" y="758" width="240" height="18" rx="2" fill="none" stroke="#333" stroke-width="0.5"/>

  <!-- ============================================ -->
  <!-- SECTION 8: Growth Path (full bottom) -->
  <!-- ============================================ -->

  <rect x="60" y="800" width="1920" height="200" rx="3" fill="none" stroke="#fff" stroke-width="1"/>
  <text x="1020" y="830" text-anchor="middle" class="section-title">08 / GROWTH PATH</text>
  <line x1="80" y1="842" x2="1960" y2="842" stroke="#333" stroke-width="0.5"/>

  <!-- Growth milestones connected by bezier curves -->
  <rect x="120" y="870" width="160" height="100" rx="3" fill="none" stroke="#999" stroke-width="1"/>
  <text x="200" y="895" text-anchor="middle" class="tier-label">$0 MRR</text>
  <text x="200" y="915" text-anchor="middle" class="small">Pre-launch</text>
  <text x="130" y="935" class="checkbox">[ ] Validate idea</text>
  <text x="130" y="950" class="checkbox">[ ] Build MVP</text>
  <text x="130" y="965" class="checkbox">[ ] Get 10 users</text>

  <path d="M 280,920 C 350,920 380,920 420,920" fill="none" stroke="#999" stroke-width="1"/>
  <polygon points="418,917 425,920 418,923" fill="#999"/>
  <text x="350" y="910" text-anchor="middle" class="small">launch</text>

  <rect x="430" y="870" width="200" height="100" rx="3" fill="none" stroke="#fff" stroke-width="1.5"/>
  <text x="530" y="895" text-anchor="middle" class="tier-label">$1K MRR</text>
  <text x="530" y="915" text-anchor="middle" class="small">Product-Market Fit</text>
  <text x="440" y="935" class="checkbox">[ ] 20+ paying users</text>
  <text x="440" y="950" class="checkbox">[ ] &lt;5% monthly churn</text>
  <text x="440" y="965" class="checkbox">[ ] Organic referrals</text>

  <path d="M 630,920 C 700,920 730,920 770,920" fill="none" stroke="#999" stroke-width="1"/>
  <polygon points="768,917 775,920 768,923" fill="#999"/>
  <text x="700" y="910" text-anchor="middle" class="small">optimize</text>

  <rect x="780" y="870" width="200" height="100" rx="3" fill="none" stroke="#fff" stroke-width="1"/>
  <text x="880" y="895" text-anchor="middle" class="tier-label">$5K MRR</text>
  <text x="880" y="915" text-anchor="middle" class="small">Growth Phase</text>
  <text x="790" y="935" class="checkbox">[ ] Content engine</text>
  <text x="790" y="950" class="checkbox">[ ] SEO ranking</text>
  <text x="790" y="965" class="checkbox">[ ] Team plan live</text>

  <path d="M 980,920 C 1050,920 1080,920 1120,920" fill="none" stroke="#999" stroke-width="1"/>
  <polygon points="1118,917 1125,920 1118,923" fill="#999"/>
  <text x="1050" y="910" text-anchor="middle" class="small">scale</text>

  <rect x="1130" y="870" width="200" height="100" rx="3" fill="none" stroke="#fff" stroke-width="1"/>
  <text x="1230" y="895" text-anchor="middle" class="tier-label">$10K MRR</text>
  <text x="1230" y="915" text-anchor="middle" class="small">Scale Phase</text>
  <text x="1140" y="935" class="checkbox">[ ] Hire first dev</text>
  <text x="1140" y="950" class="checkbox">[ ] API/integrations</text>
  <text x="1140" y="965" class="checkbox">[ ] Enterprise tier</text>

  <!-- Revenue projection -->
  <rect x="1400" y="860" width="560" height="120" rx="3" fill="none" stroke="#333" stroke-width="0.5"/>
  <text x="1680" y="885" text-anchor="middle" class="body-white">REVENUE PROJECTION</text>
  <line x1="1420" y1="895" x2="1940" y2="895" stroke="#333" stroke-width="0.5"/>
  <text x="1420" y="915" class="table-head">Month     Users    Pro%     MRR      ARR</text>
  <line x1="1420" y1="920" x2="1940" y2="920" stroke="#333" stroke-width="0.5"/>
  <text x="1420" y="935" class="table-cell">3         ____     ____%    $____    $____</text>
  <text x="1420" y="950" class="table-cell">6         ____     ____%    $____    $____</text>
  <text x="1420" y="965" class="table-cell">12        ____     ____%    $____    $____</text>

  <!-- Footer -->
  <line x1="80" y1="1020" x2="2320" y2="1020" stroke="#333" stroke-width="0.5"/>
  <text x="80" y="1040" class="small">Product Name: ___________________    Domain: ___________________    Start Date: __________    Status: [ ] Idea  [ ] Building  [ ] Live  [ ] Growing</text>
  <text x="1200" y="1065" text-anchor="middle" class="small">MICRO-SAAS BLUEPRINT  /  PRINT. FILL IN. EXECUTE.  /  behike.co</text>

</svg>