<?xml version="1.0" encoding="UTF-8"?>
<svg xmlns="http://www.w3.org/2000/svg" viewBox="0 0 2400 1800" width="2400" height="1800">
  <style>
    text { font-family: 'Courier New', monospace; fill: #fff; }
    .title { font-size: 48px; font-weight: bold; letter-spacing: 16px; }
    .subtitle { font-size: 14px; fill: #999; letter-spacing: 2px; }
    .section-title { font-size: 18px; font-weight: bold; letter-spacing: 4px; }
    .section-sub { font-size: 12px; fill: #999; }
    .label { font-size: 13px; }
    .label-sm { font-size: 11px; fill: #999; }
    .label-xs { font-size: 10px; fill: #999; }
    .check { font-size: 12px; }
    .col-title { font-size: 13px; font-weight: bold; }
    .node-text { font-size: 12px; }
    .funnel-label { font-size: 13px; font-weight: bold; }
    .funnel-sub { font-size: 11px; fill: #999; }
    .legend { font-size: 11px; fill: #999; }
    rect.box { fill: none; stroke: #fff; stroke-width: 1; }
    rect.box-dash { fill: none; stroke: #999; stroke-width: 1; stroke-dasharray: 6,4; }
    line.connector { stroke: #fff; stroke-width: 1; opacity: 0.3; }
    path.curve { fill: none; stroke: #fff; stroke-width: 1; opacity: 0.25; }
    path.spoke { fill: none; stroke: #fff; stroke-width: 1; opacity: 0.6; }
    path.arrow { fill: none; stroke: #fff; stroke-width: 1.5; }
    path.branch { fill: none; stroke: #999; stroke-width: 1; }
    circle.node { fill: none; stroke: #fff; stroke-width: 1.5; }
    .dim { opacity: 0.4; }
  </style>

  <defs>
    <marker id="arrowhead" markerWidth="8" markerHeight="6" refX="8" refY="3" orient="auto">
      <path d="M0,0 L8,3 L0,6" fill="none" stroke="#fff" stroke-width="1"/>
    </marker>
    <marker id="arrowhead-dim" markerWidth="8" markerHeight="6" refX="8" refY="3" orient="auto">
      <path d="M0,0 L8,3 L0,6" fill="none" stroke="#fff" stroke-width="0.8" opacity="0.25"/>
    </marker>
  </defs>

  <!-- BACKGROUND -->
  <rect width="2400" height="1800" fill="#000"/>

  <!-- ============================================ -->
  <!-- TOP CENTER: HEADER                           -->
  <!-- ============================================ -->
  <text x="1200" y="60" text-anchor="middle" class="title">BEHIKE</text>
  <text x="1200" y="85" text-anchor="middle" class="subtitle">One-person AI business. Puerto Rico.</text>
  <line x1="400" y1="110" x2="2000" y2="110" stroke="#fff" stroke-width="0.5" opacity="0.2"/>

  <!-- ============================================ -->
  <!-- SECTION 1: FOUNDATIONS (x:50-500, y:160-480) -->
  <!-- ============================================ -->
  <text x="50" y="160" class="section-title">FOUNDATIONS</text>
  <text x="230" y="160" class="section-sub">Pre-launch checklist</text>

  <!-- Root node -->
  <rect x="200" y="195" width="140" height="32" rx="3" class="box"/>
  <text x="270" y="216" text-anchor="middle" class="node-text">Pre-Launch</text>

  <!-- Branch paths from root to 6 boxes -->
  <!-- Service -->
  <path d="M200,211 C150,211 110,211 90,250" class="branch"/>
  <rect x="50" y="250" width="180" height="32" rx="3" class="box"/>
  <text x="60" y="271" class="check">[ ] Service ($497-$4,997)</text>

  <!-- Name -->
  <path d="M200,220 C160,220 130,260 90,300" class="branch"/>
  <rect x="50" y="300" width="180" height="32" rx="3" class="box"/>
  <text x="60" y="321" class="check">[x] Name: Behike</text>

  <!-- Logo -->
  <path d="M270,227 C270,260 200,340 170,350" class="branch"/>
  <rect x="50" y="350" width="180" height="32" rx="3" class="box"/>
  <text x="60" y="371" class="check">[x] Logo: Done</text>

  <!-- Site -->
  <path d="M340,211 C380,211 390,240 400,250" class="branch"/>
  <rect x="280" y="250" width="200" height="32" rx="3" class="box"/>
  <text x="290" y="271" class="check">[ ] Site: behike.shop</text>

  <!-- LLC -->
  <path d="M340,220 C380,230 400,280 400,300" class="branch"/>
  <rect x="280" y="300" width="200" height="32" rx="3" class="box"/>
  <text x="290" y="321" class="check">[ ] LLC (~$150)</text>

  <!-- EIN -->
  <path d="M270,227 C300,270 350,340 380,350" class="branch"/>
  <rect x="280" y="350" width="200" height="32" rx="3" class="box"/>
  <text x="290" y="371" class="check">[ ] EIN (IRS.gov)</text>

  <!-- Status summary -->
  <text x="50" y="430" class="label-xs">2 of 6 complete</text>
  <rect x="50" y="440" width="430" height="3" rx="1" fill="#333"/>
  <rect x="50" y="440" width="143" height="3" rx="1" fill="#fff" opacity="0.4"/>

  <!-- ============================================ -->
  <!-- SECTION 2: PRODUCTS (x:700-2350, y:160-520) -->
  <!-- ============================================ -->
  <text x="700" y="160" class="section-title">PRODUCTS</text>
  <text x="860" y="160" class="section-sub">65 built. 0 listed.</text>

  <!-- Column 1: Guides -->
  <rect x="700" y="185" width="480" height="310" rx="4" fill="none" stroke="#333" stroke-width="0.5"/>
  <text x="720" y="210" class="col-title">Guides ($9.99 - $19.99)</text>
  <line x1="720" y1="220" x2="1160" y2="220" stroke="#333" stroke-width="0.5"/>
  <text x="720" y="245" class="check">[ ] AI Employee Guide</text>
  <text x="720" y="270" class="check">[ ] Behike Method v2</text>
  <text x="720" y="295" class="check">[ ] Solopreneur OS</text>
  <text x="720" y="320" class="check">[ ] AI Security Guide</text>
  <text x="720" y="345" class="check">[ ] Prompt Cheat Sheet</text>
  <text x="720" y="370" class="check">[ ] Claude Code Course</text>

  <!-- Column 2: Kits -->
  <rect x="1210" y="185" width="480" height="310" rx="4" fill="none" stroke="#333" stroke-width="0.5"/>
  <text x="1230" y="210" class="col-title">Kits ($19.99 - $29.99)</text>
  <line x1="1230" y1="220" x2="1670" y2="220" stroke="#333" stroke-width="0.5"/>
  <text x="1230" y="245" class="check">[ ] n8n Automation Pack</text>
  <text x="1230" y="270" class="check">[ ] Ghost Writer Kit</text>
  <text x="1230" y="295" class="check">[ ] AI Agent Installer</text>
  <text x="1230" y="320" class="check">[ ] Gumroad Starter Kit</text>

  <!-- Column 3: Free -->
  <rect x="1720" y="185" width="330" height="310" rx="4" fill="none" stroke="#333" stroke-width="0.5"/>
  <text x="1740" y="210" class="col-title">Free (Lead Magnets)</text>
  <line x1="1740" y1="220" x2="2030" y2="220" stroke="#333" stroke-width="0.5"/>
  <text x="1740" y="245" class="check">[ ] Zero Dollar AI Stack</text>
  <text x="1740" y="270" class="check">[ ] AI Safety Checklist</text>
  <text x="1740" y="295" class="check">[ ] 5 AI Tools Guide</text>

  <!-- Product count -->
  <text x="700" y="520" class="label-xs">13 flagships shown. 52 more in pipeline.</text>

  <!-- ============================================ -->
  <!-- SECTION 3: CONTENT (x:50-550, y:580-1050)   -->
  <!-- ============================================ -->
  <text x="50" y="580" class="section-title">CONTENT ENGINE</text>
  <text x="260" y="580" class="section-sub">Multi-platform distribution</text>

  <!-- Center circle -->
  <circle cx="300" cy="800" r="42" class="node"/>
  <text x="300" y="796" text-anchor="middle" class="node-text" font-size="11">CONTENT</text>
  <text x="300" y="812" text-anchor="middle" class="label-xs">HUB</text>

  <!-- Spokes: 8 channels radiating outward -->
  <!-- Instagram (top-right) -->
  <path d="M335,770 C380,740 430,680 480,650" class="spoke"/>
  <text x="490" y="650" class="label">Instagram</text>
  <text x="490" y="665" class="label-xs">2,000+ followers</text>

  <!-- YouTube (right) -->
  <path d="M342,800 C400,800 450,780 510,770" class="spoke"/>
  <text x="520" y="775" class="label">YouTube</text>
  <text x="520" y="790" class="label-xs">150+ subs</text>

  <!-- TikTok (bottom-right) -->
  <path d="M335,830 C380,860 430,900 480,920" class="spoke"/>
  <text x="490" y="920" class="label">TikTok</text>
  <text x="490" y="935" class="label-xs">175+ followers</text>

  <!-- X/Twitter (bottom) -->
  <path d="M300,842 C300,890 310,940 320,970" class="spoke"/>
  <text x="330" y="975" class="label">X / Twitter</text>
  <text x="330" y="990" class="label-xs">200+ followers</text>

  <!-- Newsletter (bottom-left) -->
  <path d="M265,830 C220,860 170,900 120,920" class="spoke"/>
  <text x="50" y="920" class="label">Newsletter</text>
  <text x="50" y="935" class="label-xs">335+ subs</text>

  <!-- LinkedIn (left) -->
  <path d="M258,800 C200,800 150,790 100,780" class="spoke"/>
  <text x="50" y="785" class="label">LinkedIn</text>
  <text x="50" y="800" class="label-xs">60+ connections</text>

  <!-- Pinterest (top-left) -->
  <path d="M265,770 C220,740 170,700 120,680" class="spoke"/>
  <text x="50" y="680" class="label">Pinterest</text>
  <text x="50" y="695" class="label-xs">60+ followers</text>

  <!-- Blog (top) -->
  <path d="M300,758 C300,720 290,670 280,640" class="spoke"/>
  <text x="220" y="635" class="label">Blog</text>
  <text x="220" y="650" class="label-xs">35+ posts</text>

  <!-- ============================================ -->
  <!-- SECTION 4: REVENUE (x:750-1450, y:580-1050) -->
  <!-- ============================================ -->
  <text x="750" y="580" class="section-title">REVENUE</text>
  <text x="890" y="580" class="section-sub">Target: $10K/month</text>

  <!-- Funnel trapezoid layers -->
  <!-- FREE (widest) -->
  <path d="M800,640 L1400,640 L1380,700 L820,700 Z" fill="none" stroke="#fff" stroke-width="1"/>
  <text x="1100" y="675" text-anchor="middle" class="funnel-label">FREE</text>
  <text x="1100" y="690" text-anchor="middle" class="funnel-sub">Lead magnets, social content</text>

  <!-- Connecting lines -->
  <line x1="1100" y1="700" x2="1100" y2="720" stroke="#fff" stroke-width="0.5" opacity="0.4"/>

  <!-- LOW TICKET -->
  <path d="M850,720 L1350,720 L1330,780 L870,780 Z" fill="none" stroke="#fff" stroke-width="1"/>
  <text x="1100" y="755" text-anchor="middle" class="funnel-label">LOW TICKET</text>
  <text x="1100" y="770" text-anchor="middle" class="funnel-sub">$4.99 - $29.99 guides + kits</text>

  <!-- Connecting lines -->
  <line x1="1100" y1="780" x2="1100" y2="800" stroke="#fff" stroke-width="0.5" opacity="0.4"/>

  <!-- HIGH TICKET -->
  <path d="M900,800 L1300,800 L1280,860 L920,860 Z" fill="none" stroke="#fff" stroke-width="1"/>
  <text x="1100" y="835" text-anchor="middle" class="funnel-label">HIGH TICKET</text>
  <text x="1100" y="850" text-anchor="middle" class="funnel-sub">$497 - $4,997 service</text>

  <!-- Connecting lines -->
  <line x1="1100" y1="860" x2="1100" y2="880" stroke="#fff" stroke-width="0.5" opacity="0.4"/>

  <!-- RECURRING -->
  <path d="M950,880 L1250,880 L1230,940 L970,940 Z" fill="none" stroke="#fff" stroke-width="1"/>
  <text x="1100" y="915" text-anchor="middle" class="funnel-label">RECURRING</text>
  <text x="1100" y="930" text-anchor="middle" class="funnel-sub">Subscriptions, retainers</text>

  <!-- Revenue targets -->
  <text x="750" y="990" class="label-xs">Monthly projection</text>
  <text x="750" y="1010" class="label-sm">Products: $2,000  |  Service: $5,000  |  Recurring: $3,000</text>

  <!-- ============================================ -->
  <!-- SECTION 5: BIOS (x:1550-2350, y:580-950)    -->
  <!-- ============================================ -->
  <text x="1550" y="580" class="section-title">INTELLIGENCE (BIOS)</text>
  <text x="1550" y="600" class="section-sub">Phases 1-7 complete</text>

  <!-- 4 boxes in a row connected by arrows -->
  <!-- PERCEIVE -->
  <rect x="1550" y="640" width="150" height="50" rx="3" class="box"/>
  <text x="1625" y="670" text-anchor="middle" class="node-text">PERCEIVE</text>
  <text x="1625" y="720" text-anchor="middle" class="label-xs">News, Reddit</text>
  <text x="1625" y="735" text-anchor="middle" class="label-xs">Trends, Feeds</text>

  <!-- Arrow PERCEIVE -> PROCESS -->
  <path d="M1700,665 L1730,665" class="arrow" marker-end="url(#arrowhead)"/>

  <!-- PROCESS -->
  <rect x="1740" y="640" width="150" height="50" rx="3" class="box"/>
  <text x="1815" y="670" text-anchor="middle" class="node-text">PROCESS</text>
  <text x="1815" y="720" text-anchor="middle" class="label-xs">Tag, Score</text>
  <text x="1815" y="735" text-anchor="middle" class="label-xs">Classify, Filter</text>

  <!-- Arrow PROCESS -> THINK -->
  <path d="M1890,665 L1920,665" class="arrow" marker-end="url(#arrowhead)"/>

  <!-- THINK -->
  <rect x="1930" y="640" width="150" height="50" rx="3" class="box"/>
  <text x="2005" y="670" text-anchor="middle" class="node-text">THINK</text>
  <text x="2005" y="720" text-anchor="middle" class="label-xs">Causal, Pattern</text>
  <text x="2005" y="735" text-anchor="middle" class="label-xs">Correlation</text>

  <!-- Arrow THINK -> DECIDE -->
  <path d="M2080,665 L2110,665" class="arrow" marker-end="url(#arrowhead)"/>

  <!-- DECIDE -->
  <rect x="2120" y="640" width="150" height="50" rx="3" class="box"/>
  <text x="2195" y="670" text-anchor="middle" class="node-text">DECIDE</text>
  <text x="2195" y="720" text-anchor="middle" class="label-xs">Actions, Alerts</text>
  <text x="2195" y="735" text-anchor="middle" class="label-xs">Execute, Log</text>

  <!-- Pipeline label -->
  <line x1="1550" y1="780" x2="2270" y2="780" stroke="#333" stroke-width="0.5"/>
  <text x="1550" y="810" class="label-sm">Data pipeline: scrape, classify, reason, act</text>
  <text x="1550" y="830" class="label-xs">Feeds into Content Engine and Revenue decisions</text>

  <!-- ============================================ -->
  <!-- SECTION 6: INFRASTRUCTURE (x:50-650, y:1200-1500) -->
  <!-- ============================================ -->
  <text x="50" y="1200" class="section-title">INFRASTRUCTURE</text>
  <text x="280" y="1200" class="section-sub">$0/month operating cost</text>

  <!-- CEIBA -->
  <rect x="50" y="1240" width="180" height="90" rx="3" class="box"/>
  <text x="140" y="1268" text-anchor="middle" class="node-text" font-weight="bold">CEIBA</text>
  <text x="140" y="1288" text-anchor="middle" class="label-xs">Mac M4 16GB</text>
  <text x="140" y="1303" text-anchor="middle" class="label-xs">Command Node</text>
  <text x="140" y="1318" text-anchor="middle" class="label-xs">.145</text>

  <!-- Dashed line CEIBA -> COBO -->
  <line x1="230" y1="1285" x2="280" y2="1285" stroke="#999" stroke-width="1" stroke-dasharray="6,4"/>

  <!-- COBO -->
  <rect x="280" y="1240" width="180" height="90" rx="3" class="box"/>
  <text x="370" y="1268" text-anchor="middle" class="node-text" font-weight="bold">COBO</text>
  <text x="370" y="1288" text-anchor="middle" class="label-xs">GTX 1080 Ti 11GB</text>
  <text x="370" y="1303" text-anchor="middle" class="label-xs">Compute Node</text>
  <text x="370" y="1318" text-anchor="middle" class="label-xs">.151</text>

  <!-- Dashed line COBO -> NABORIA -->
  <line x1="460" y1="1285" x2="510" y2="1285" stroke="#999" stroke-width="1" stroke-dasharray="6,4"/>

  <!-- NABORIA -->
  <rect x="510" y="1240" width="180" height="90" rx="3" class="box"/>
  <text x="600" y="1268" text-anchor="middle" class="node-text" font-weight="bold">NABORIA</text>
  <text x="600" y="1288" text-anchor="middle" class="label-xs">Always-on</text>
  <text x="600" y="1303" text-anchor="middle" class="label-xs">Processing Node</text>
  <text x="600" y="1318" text-anchor="middle" class="label-xs">.152</text>

  <!-- Network label -->
  <text x="50" y="1370" class="label-xs">Local mesh network. Zero cloud dependency.</text>

  <!-- ============================================ -->
  <!-- SECTION 7: FUNNEL (x:750-1450, y:1200-1650) -->
  <!-- ============================================ -->
  <text x="750" y="1200" class="section-title">SALES FUNNEL</text>
  <text x="950" y="1200" class="section-sub">Automated pipeline</text>

  <!-- TRAFFIC -->
  <rect x="900" y="1240" width="260" height="40" rx="3" class="box"/>
  <text x="1030" y="1265" text-anchor="middle" class="node-text">TRAFFIC</text>
  <text x="1030" y="1278" text-anchor="middle" class="label-xs">IG, YT, TikTok, X, SEO</text>

  <!-- Arrow down -->
  <path d="M1030,1280 L1030,1310" class="arrow" marker-end="url(#arrowhead)"/>

  <!-- LEAD MAGNET -->
  <rect x="900" y="1320" width="260" height="40" rx="3" class="box"/>
  <text x="1030" y="1345" text-anchor="middle" class="node-text">LEAD MAGNET</text>
  <text x="1030" y="1358" text-anchor="middle" class="label-xs">Free guide / checklist</text>

  <!-- Arrow down -->
  <path d="M1030,1360 L1030,1390" class="arrow" marker-end="url(#arrowhead)"/>

  <!-- EMAIL CAPTURE -->
  <rect x="900" y="1400" width="260" height="40" rx="3" class="box"/>
  <text x="1030" y="1425" text-anchor="middle" class="node-text">EMAIL CAPTURE</text>
  <text x="1030" y="1438" text-anchor="middle" class="label-xs">Gumroad / Beehiiv</text>

  <!-- Arrow down -->
  <path d="M1030,1440 L1030,1470" class="arrow" marker-end="url(#arrowhead)"/>

  <!-- WELCOME SEQUENCE -->
  <rect x="900" y="1480" width="260" height="40" rx="3" class="box"/>
  <text x="1030" y="1505" text-anchor="middle" class="node-text">WELCOME SEQUENCE</text>
  <text x="1030" y="1518" text-anchor="middle" class="label-xs">5-email nurture</text>

  <!-- Fork: two arrows diverging -->
  <path d="M960,1520 L880,1570" class="arrow" marker-end="url(#arrowhead)"/>
  <path d="M1100,1520 L1180,1570" class="arrow" marker-end="url(#arrowhead)"/>

  <!-- PRODUCT box -->
  <rect x="780" y="1580" width="200" height="50" rx="3" class="box"/>
  <text x="880" y="1605" text-anchor="middle" class="node-text">PRODUCT</text>
  <text x="880" y="1622" text-anchor="middle" class="label-xs">$4.99 - $29.99</text>

  <!-- SERVICE box -->
  <rect x="1080" y="1580" width="200" height="50" rx="3" class="box"/>
  <text x="1180" y="1605" text-anchor="middle" class="node-text">SERVICE</text>
  <text x="1180" y="1622" text-anchor="middle" class="label-xs">$497 - $4,997</text>

  <!-- ============================================ -->
  <!-- SECTION 8: SCHEDULE (x:1550-2350, y:1200-1500) -->
  <!-- ============================================ -->
  <text x="1550" y="1200" class="section-title">SCHEDULE</text>
  <text x="1720" y="1200" class="section-sub">Consistent output</text>

  <!-- DAILY box -->
  <rect x="1550" y="1240" width="350" height="110" rx="3" class="box"/>
  <text x="1725" y="1268" text-anchor="middle" class="node-text" font-weight="bold">DAILY</text>
  <line x1="1570" y1="1278" x2="1880" y2="1278" stroke="#333" stroke-width="0.5"/>
  <text x="1570" y="1300" class="label-sm">1 Instagram post/reel</text>
  <text x="1570" y="1320" class="label-sm">1 TikTok video</text>
  <text x="1570" y="1340" class="label-sm">1 X/Twitter post</text>

  <!-- WEEKLY box -->
  <rect x="1550" y="1380" width="350" height="110" rx="3" class="box"/>
  <text x="1725" y="1408" text-anchor="middle" class="node-text" font-weight="bold">WEEKLY</text>
  <line x1="1570" y1="1418" x2="1880" y2="1418" stroke="#333" stroke-width="0.5"/>
  <text x="1570" y="1440" class="label-sm">1 YouTube video</text>
  <text x="1570" y="1460" class="label-sm">1 Newsletter issue</text>
  <text x="1570" y="1480" class="label-sm">Analytics review</text>

  <!-- ============================================ -->
  <!-- CONNECTING CURVES between sections           -->
  <!-- ============================================ -->

  <!-- Foundations -> Products -->
  <path d="M500,300 C580,300 620,280 700,250" class="curve" marker-end="url(#arrowhead-dim)"/>

  <!-- Content -> Revenue -->
  <path d="M550,800 C620,800 680,750 750,720" class="curve" marker-end="url(#arrowhead-dim)"/>

  <!-- BIOS -> Content (with label "informs") -->
  <path d="M1550,750 C1200,900 800,850 550,830" class="curve" marker-end="url(#arrowhead-dim)"/>
  <text x="1050" y="870" class="label-xs" text-anchor="middle" opacity="0.5">informs</text>

  <!-- Revenue -> Funnel -->
  <path d="M1100,950 C1100,1050 1050,1100 1030,1230" class="curve" marker-end="url(#arrowhead-dim)"/>

  <!-- ============================================ -->
  <!-- LEGEND (bottom-right)                        -->
  <!-- ============================================ -->
  <text x="2100" y="1740" class="legend">[ ] Not started</text>
  <text x="2100" y="1758" class="legend">[x] Done</text>

  <!-- Footer -->
  <line x1="50" y1="1770" x2="2350" y2="1770" stroke="#fff" stroke-width="0.3" opacity="0.15"/>
  <text x="50" y="1790" class="label-xs" opacity="0.3">BEHIKE BUSINESS BLUEPRINT v1.0</text>
  <text x="2350" y="1790" text-anchor="end" class="label-xs" opacity="0.3">behike.shop</text>

</svg>