<?xml version="1.0" encoding="UTF-8"?>
<svg xmlns="http://www.w3.org/2000/svg" viewBox="0 0 2400 1800" width="2400" height="1800">
  <defs>
    <style>
      text {
        font-family: 'Courier New', 'Courier', monospace;
        fill: #FFFFFF;
      }
      .title {
        font-size: 14px;
        font-weight: bold;
        letter-spacing: 4px;
        text-transform: uppercase;
      }
      .section-title {
        font-size: 13px;
        font-weight: bold;
        letter-spacing: 3px;
      }
      .subtitle {
        font-size: 10px;
        fill: #CCCCCC;
        letter-spacing: 1px;
      }
      .body {
        font-size: 10px;
        fill: #FFFFFF;
      }
      .body-dim {
        font-size: 9px;
        fill: #CCCCCC;
      }
      .label {
        font-size: 8px;
        fill: #CCCCCC;
        letter-spacing: 1px;
      }
      .hero {
        font-size: 36px;
        font-weight: bold;
        letter-spacing: 16px;
      }
      .hero-sub {
        font-size: 11px;
        fill: #CCCCCC;
        letter-spacing: 2px;
      }
      .connector {
        stroke: #FFFFFF;
        stroke-width: 1;
        fill: none;
        opacity: 0.3;
      }
      .connector-label {
        font-size: 7px;
        fill: #CCCCCC;
        letter-spacing: 1px;
      }
      .line-thin {
        stroke: #FFFFFF;
        stroke-width: 1;
        fill: none;
      }
      .line-dashed {
        stroke: #FFFFFF;
        stroke-width: 1;
        fill: none;
        stroke-dasharray: 6 4;
      }
      .box {
        stroke: #FFFFFF;
        stroke-width: 1;
        fill: none;
      }
      .box-dim {
        stroke: #CCCCCC;
        stroke-width: 0.5;
        fill: none;
      }
      .funnel-line {
        stroke: #FFFFFF;
        stroke-width: 1.5;
        fill: none;
      }
      .col-title {
        font-size: 10px;
        font-weight: bold;
        letter-spacing: 2px;
      }
      .col-price {
        font-size: 8px;
        fill: #CCCCCC;
      }
      .checkbox {
        font-size: 9px;
        fill: #CCCCCC;
      }
    </style>
  </defs>

  <!-- BACKGROUND -->
  <rect width="2400" height="1800" fill="#000000"/>

  <!-- ============================================================ -->
  <!-- HERO: TOP CENTER -->
  <!-- ============================================================ -->
  <text x="1200" y="65" text-anchor="middle" class="hero">BEHIKE</text>
  <text x="1200" y="95" text-anchor="middle" class="hero-sub">One-person AI business.  Puerto Rico.  2026.</text>

  <!-- thin separator line -->
  <line x1="400" y1="120" x2="2000" y2="120" stroke="#FFFFFF" stroke-width="0.5" opacity="0.2"/>

  <!-- ============================================================ -->
  <!-- SECTION 1: FOUNDATIONS (top-left) -->
  <!-- ============================================================ -->
  <text x="120" y="195" class="section-title">FOUNDATIONS</text>

  <!-- Root node -->
  <rect x="210" y="230" width="130" height="32" class="box"/>
  <text x="275" y="251" text-anchor="middle" class="body">Pre-Launch</text>

  <!-- Vertical trunk from root -->
  <line x1="275" y1="262" x2="275" y2="290" class="line-thin"/>

  <!-- Horizontal branch line -->
  <line x1="115" y1="290" x2="435" y2="290" class="line-thin"/>

  <!-- 6 vertical drops -->
  <line x1="115" y1="290" x2="115" y2="310" class="line-thin"/>
  <line x1="179" y1="290" x2="179" y2="310" class="line-thin"/>
  <line x1="243" y1="290" x2="243" y2="310" class="line-thin"/>
  <line x1="307" y1="290" x2="307" y2="310" class="line-thin"/>
  <line x1="371" y1="290" x2="371" y2="310" class="line-thin"/>
  <line x1="435" y1="290" x2="435" y2="310" class="line-thin"/>

  <!-- Box 1: Service -->
  <rect x="72" y="310" width="86" height="50" class="box"/>
  <text x="115" y="332" text-anchor="middle" class="body">Service</text>
  <text x="115" y="350" text-anchor="middle" class="body-dim">$497-$4,997</text>

  <!-- Box 2: Name -->
  <rect x="140" y="310" width="78" height="50" class="box"/>
  <text x="179" y="332" text-anchor="middle" class="body">Name</text>
  <text x="179" y="350" text-anchor="middle" class="body-dim">Behike [x]</text>

  <!-- Box 3: Logo -->
  <rect x="204" y="310" width="78" height="50" class="box"/>
  <text x="243" y="332" text-anchor="middle" class="body">Logo</text>
  <text x="243" y="350" text-anchor="middle" class="body-dim">Done [x]</text>

  <!-- Box 4: Site -->
  <rect x="264" y="310" width="86" height="50" class="box"/>
  <text x="307" y="332" text-anchor="middle" class="body">Site</text>
  <text x="307" y="350" text-anchor="middle" class="body-dim">behike.shop</text>

  <!-- Box 5: LLC -->
  <rect x="332" y="310" width="78" height="50" class="box"/>
  <text x="371" y="332" text-anchor="middle" class="body">LLC</text>
  <text x="371" y="350" text-anchor="middle" class="body-dim">~$150 [ ]</text>

  <!-- Box 6: EIN -->
  <rect x="396" y="310" width="78" height="50" class="box"/>
  <text x="435" y="332" text-anchor="middle" class="body">EIN</text>
  <text x="435" y="350" text-anchor="middle" class="body-dim">IRS.gov [ ]</text>

  <!-- ============================================================ -->
  <!-- SECTION 2: PRODUCTS (top-right) -->
  <!-- ============================================================ -->
  <text x="1440" y="195" class="section-title">PRODUCTS</text>
  <text x="1440" y="215" class="subtitle">65 built.  0 listed.</text>

  <!-- Column 1: Guides -->
  <text x="1440" y="255" class="col-title">Guides</text>
  <text x="1440" y="270" class="col-price">$9.99 - $19.99</text>

  <text x="1440" y="295" class="checkbox">[ ]  AI Automation Guide</text>
  <text x="1440" y="313" class="checkbox">[ ]  Prompt Engineering 101</text>
  <text x="1440" y="331" class="checkbox">[ ]  Side Hustle Playbook</text>
  <text x="1440" y="349" class="checkbox">[ ]  Content Machine Guide</text>
  <text x="1440" y="367" class="checkbox">[ ]  No-Code AI Tools</text>
  <text x="1440" y="385" class="checkbox">[ ]  Freelancer OS</text>

  <!-- Column 2: Kits -->
  <text x="1740" y="255" class="col-title">Kits</text>
  <text x="1740" y="270" class="col-price">$19.99 - $29.99</text>

  <text x="1740" y="295" class="checkbox">[ ]  Creator Starter Kit</text>
  <text x="1740" y="313" class="checkbox">[ ]  AI Business Bundle</text>
  <text x="1740" y="331" class="checkbox">[ ]  Social Media Kit</text>
  <text x="1740" y="349" class="checkbox">[ ]  Email Funnel Kit</text>

  <!-- Column 3: Free Lead Magnets -->
  <text x="2040" y="255" class="col-title">Free Leads</text>
  <text x="2040" y="270" class="col-price">Lead Magnets</text>

  <text x="2040" y="295" class="checkbox">[ ]  AI Tools Checklist</text>
  <text x="2040" y="313" class="checkbox">[ ]  5-Day Email Course</text>
  <text x="2040" y="331" class="checkbox">[ ]  Prompt Template Pack</text>

  <!-- Column borders -->
  <line x1="1420" y1="240" x2="1420" y2="400" stroke="#FFFFFF" stroke-width="0.5" opacity="0.15"/>
  <line x1="1720" y1="240" x2="1720" y2="400" stroke="#FFFFFF" stroke-width="0.5" opacity="0.15"/>
  <line x1="2020" y1="240" x2="2020" y2="400" stroke="#FFFFFF" stroke-width="0.5" opacity="0.15"/>
  <line x1="2300" y1="240" x2="2300" y2="400" stroke="#FFFFFF" stroke-width="0.5" opacity="0.15"/>
  <!-- Bottom border -->
  <line x1="1420" y1="400" x2="2300" y2="400" stroke="#FFFFFF" stroke-width="0.5" opacity="0.15"/>

  <!-- ============================================================ -->
  <!-- SECTION 3: CONTENT ENGINE (middle-left) -->
  <!-- ============================================================ -->
  <text x="120" y="500" class="section-title">CONTENT ENGINE</text>

  <!-- Center hub circle -->
  <circle cx="320" cy="690" r="42" stroke="#FFFFFF" stroke-width="1.5" fill="none"/>
  <text x="320" y="686" text-anchor="middle" class="body" font-size="10" letter-spacing="2">CONTENT</text>
  <text x="320" y="700" text-anchor="middle" class="body-dim" font-size="8">HUB</text>

  <!-- Spoke 1: Instagram (top) -->
  <path d="M 320 648 C 320 600, 320 560, 320 540" class="line-thin"/>
  <rect x="265" y="515" width="110" height="28" class="box-dim"/>
  <text x="320" y="534" text-anchor="middle" class="body">Instagram</text>
  <text x="320" y="510" text-anchor="middle" class="body-dim">2000+ posts</text>

  <!-- Spoke 2: YouTube (top-right) -->
  <path d="M 355 658 C 400 620, 460 570, 500 555" class="line-thin"/>
  <rect x="500" y="540" width="110" height="28" class="box-dim"/>
  <text x="555" y="559" text-anchor="middle" class="body">YouTube</text>
  <text x="555" y="535" text-anchor="middle" class="body-dim">150+ scripts</text>

  <!-- Spoke 3: TikTok (right) -->
  <path d="M 362 690 C 410 690, 470 680, 510 675" class="line-thin"/>
  <rect x="510" y="662" width="110" height="28" class="box-dim"/>
  <text x="565" y="681" text-anchor="middle" class="body">TikTok</text>
  <text x="565" y="655" text-anchor="middle" class="body-dim">175+ batches</text>

  <!-- Spoke 4: X/Twitter (bottom-right) -->
  <path d="M 355 722 C 400 760, 460 790, 500 800" class="line-thin"/>
  <rect x="500" y="788" width="110" height="28" class="box-dim"/>
  <text x="555" y="807" text-anchor="middle" class="body">X / Twitter</text>
  <text x="555" y="825" text-anchor="middle" class="body-dim">200+ threads</text>

  <!-- Spoke 5: Newsletter (bottom) -->
  <path d="M 320 732 C 320 780, 320 830, 320 845" class="line-thin"/>
  <rect x="265" y="845" width="110" height="28" class="box-dim"/>
  <text x="320" y="864" text-anchor="middle" class="body">Newsletter</text>
  <text x="320" y="883" text-anchor="middle" class="body-dim">335+ issues</text>

  <!-- Spoke 6: LinkedIn (bottom-left) -->
  <path d="M 285 722 C 240 760, 180 790, 140 800" class="line-thin"/>
  <rect x="80" y="788" width="110" height="28" class="box-dim"/>
  <text x="135" y="807" text-anchor="middle" class="body">LinkedIn</text>
  <text x="135" y="825" text-anchor="middle" class="body-dim">60+ batches</text>

  <!-- Spoke 7: Pinterest (left) -->
  <path d="M 278 690 C 230 690, 170 685, 130 682" class="line-thin"/>
  <rect x="20" y="668" width="110" height="28" class="box-dim"/>
  <text x="75" y="687" text-anchor="middle" class="body">Pinterest</text>
  <text x="75" y="660" text-anchor="middle" class="body-dim">60+ batches</text>

  <!-- Spoke 8: Blog (top-left) -->
  <path d="M 285 658 C 240 620, 180 570, 140 555" class="line-thin"/>
  <rect x="80" y="540" width="110" height="28" class="box-dim"/>
  <text x="135" y="559" text-anchor="middle" class="body">Blog</text>
  <text x="135" y="535" text-anchor="middle" class="body-dim">35+ posts</text>

  <!-- ============================================================ -->
  <!-- SECTION 4: REVENUE (middle-center) -->
  <!-- ============================================================ -->
  <text x="1050" y="500" class="section-title">REVENUE</text>
  <text x="1050" y="520" class="subtitle">Target: $10K / month</text>

  <!-- Funnel shape (trapezoids getting narrower) -->
  <!-- Level 1: FREE (widest) -->
  <path d="M 900 570 L 1300 570 L 1280 620 L 920 620 Z" class="funnel-line"/>
  <text x="1100" y="600" text-anchor="middle" class="body">FREE</text>
  <text x="1100" y="614" text-anchor="middle" class="body-dim">lead magnets</text>

  <!-- Level 2: LOW TICKET -->
  <path d="M 920 630 L 1280 630 L 1260 680 L 940 680 Z" class="funnel-line"/>
  <text x="1100" y="660" text-anchor="middle" class="body">LOW TICKET</text>
  <text x="1100" y="674" text-anchor="middle" class="body-dim">$4.99 - $29.99</text>

  <!-- Level 3: HIGH TICKET -->
  <path d="M 940 690 L 1260 690 L 1240 740 L 960 740 Z" class="funnel-line"/>
  <text x="1100" y="720" text-anchor="middle" class="body">HIGH TICKET</text>
  <text x="1100" y="734" text-anchor="middle" class="body-dim">$497 - $4,997</text>

  <!-- Level 4: RECURRING (narrowest) -->
  <path d="M 960 750 L 1240 750 L 1220 800 L 980 800 Z" class="funnel-line"/>
  <text x="1100" y="780" text-anchor="middle" class="body">RECURRING</text>
  <text x="1100" y="794" text-anchor="middle" class="body-dim">affiliates + sponsors</text>

  <!-- Connecting tapered lines between funnel levels -->
  <line x1="920" y1="620" x2="920" y2="630" stroke="#FFFFFF" stroke-width="0.5" opacity="0.4"/>
  <line x1="1280" y1="620" x2="1280" y2="630" stroke="#FFFFFF" stroke-width="0.5" opacity="0.4"/>
  <line x1="940" y1="680" x2="940" y2="690" stroke="#FFFFFF" stroke-width="0.5" opacity="0.4"/>
  <line x1="1260" y1="680" x2="1260" y2="690" stroke="#FFFFFF" stroke-width="0.5" opacity="0.4"/>
  <line x1="960" y1="740" x2="960" y2="750" stroke="#FFFFFF" stroke-width="0.5" opacity="0.4"/>
  <line x1="1240" y1="740" x2="1240" y2="750" stroke="#FFFFFF" stroke-width="0.5" opacity="0.4"/>

  <!-- ============================================================ -->
  <!-- SECTION 5: BIOS (middle-right) -->
  <!-- ============================================================ -->
  <text x="1620" y="500" class="section-title">INTELLIGENCE (BIOS)</text>
  <text x="1620" y="520" class="subtitle">Phases 1-7 complete</text>

  <!-- Flow boxes -->
  <rect x="1620" y="550" width="120" height="36" class="box"/>
  <text x="1680" y="573" text-anchor="middle" class="body">PERCEIVE</text>

  <rect x="1780" y="550" width="120" height="36" class="box"/>
  <text x="1840" y="573" text-anchor="middle" class="body">PROCESS</text>

  <rect x="1940" y="550" width="110" height="36" class="box"/>
  <text x="1995" y="573" text-anchor="middle" class="body">THINK</text>

  <rect x="2090" y="550" width="110" height="36" class="box"/>
  <text x="2145" y="573" text-anchor="middle" class="body">DECIDE</text>

  <!-- Arrows between boxes -->
  <path d="M 1740 568 C 1755 568, 1765 568, 1780 568" class="line-thin" marker-end="url(#arrow)"/>
  <path d="M 1900 568 C 1915 568, 1925 568, 1940 568" class="line-thin" marker-end="url(#arrow)"/>
  <path d="M 2050 568 C 2065 568, 2075 568, 2090 568" class="line-thin" marker-end="url(#arrow)"/>

  <!-- Arrow marker -->
  <defs>
    <marker id="arrow" markerWidth="8" markerHeight="6" refX="8" refY="3" orient="auto">
      <path d="M 0 0 L 8 3 L 0 6" fill="none" stroke="#FFFFFF" stroke-width="1"/>
    </marker>
    <marker id="arrow-dim" markerWidth="8" markerHeight="6" refX="8" refY="3" orient="auto">
      <path d="M 0 0 L 8 3 L 0 6" fill="none" stroke="#CCCCCC" stroke-width="0.5"/>
    </marker>
  </defs>

  <!-- Sub-labels below each box -->
  <text x="1680" y="602" text-anchor="middle" class="label">News, Reddit, Poly</text>
  <text x="1840" y="602" text-anchor="middle" class="label">Tag, Score, Sent</text>
  <text x="1995" y="602" text-anchor="middle" class="label">Causal, Patterns</text>
  <text x="2145" y="602" text-anchor="middle" class="label">Actions, Alerts</text>

  <!-- ============================================================ -->
  <!-- SECTION 6: INFRASTRUCTURE (bottom-left) -->
  <!-- ============================================================ -->
  <text x="120" y="1070" class="section-title">INFRASTRUCTURE</text>
  <text x="120" y="1090" class="subtitle">$0 / month</text>

  <!-- CEIBA box -->
  <rect x="80" y="1115" width="180" height="65" class="box"/>
  <text x="170" y="1138" text-anchor="middle" class="body" font-weight="bold">CEIBA</text>
  <text x="170" y="1155" text-anchor="middle" class="body-dim">Mac M4, Command</text>
  <text x="170" y="1170" text-anchor="middle" class="label">192.168.0.145</text>

  <!-- COBO box -->
  <rect x="320" y="1115" width="180" height="65" class="box"/>
  <text x="410" y="1138" text-anchor="middle" class="body" font-weight="bold">COBO</text>
  <text x="410" y="1155" text-anchor="middle" class="body-dim">GTX 1080Ti, Compute</text>
  <text x="410" y="1170" text-anchor="middle" class="label">192.168.0.151</text>

  <!-- NABORIA box -->
  <rect x="560" y="1115" width="180" height="65" class="box"/>
  <text x="650" y="1138" text-anchor="middle" class="body" font-weight="bold">NABORIA</text>
  <text x="650" y="1155" text-anchor="middle" class="body-dim">Always-on, Processing</text>
  <text x="650" y="1170" text-anchor="middle" class="label">192.168.0.152</text>

  <!-- Dashed lines between them -->
  <line x1="260" y1="1148" x2="320" y2="1148" class="line-dashed"/>
  <text x="290" y="1142" text-anchor="middle" class="label">Syncthing</text>

  <line x1="500" y1="1148" x2="560" y2="1148" class="line-dashed"/>
  <text x="530" y="1142" text-anchor="middle" class="label">Syncthing</text>

  <!-- ============================================================ -->
  <!-- SECTION 7: SALES FUNNEL (bottom-center) -->
  <!-- ============================================================ -->
  <text x="1050" y="1070" class="section-title">SALES FUNNEL</text>

  <!-- TRAFFIC -->
  <rect x="1020" y="1100" width="200" height="32" class="box"/>
  <text x="1120" y="1121" text-anchor="middle" class="body">TRAFFIC</text>
  <text x="1120" y="1148" text-anchor="middle" class="body-dim">IG, TikTok, YT, Ads</text>

  <!-- Arrow down -->
  <line x1="1120" y1="1132" x2="1120" y2="1160" class="line-thin"/>

  <!-- LEAD MAGNET -->
  <rect x="1020" y="1160" width="200" height="32" class="box"/>
  <text x="1120" y="1181" text-anchor="middle" class="body">LEAD MAGNET</text>
  <text x="1120" y="1208" text-anchor="middle" class="body-dim">Free PDF</text>

  <!-- Arrow down -->
  <line x1="1120" y1="1192" x2="1120" y2="1220" class="line-thin"/>

  <!-- EMAIL CAPTURE -->
  <rect x="1020" y="1220" width="200" height="32" class="box"/>
  <text x="1120" y="1241" text-anchor="middle" class="body">EMAIL CAPTURE</text>

  <!-- Arrow down -->
  <line x1="1120" y1="1252" x2="1120" y2="1280" class="line-thin"/>

  <!-- WELCOME SEQUENCE -->
  <rect x="1020" y="1280" width="200" height="32" class="box"/>
  <text x="1120" y="1301" text-anchor="middle" class="body">WELCOME SEQUENCE</text>
  <text x="1120" y="1328" text-anchor="middle" class="body-dim">5 emails</text>

  <!-- Split into two branches -->
  <line x1="1120" y1="1312" x2="1120" y2="1340" class="line-thin"/>
  <line x1="1120" y1="1340" x2="1020" y2="1340" class="line-thin"/>
  <line x1="1120" y1="1340" x2="1220" y2="1340" class="line-thin"/>
  <line x1="1020" y1="1340" x2="1020" y2="1365" class="line-thin"/>
  <line x1="1220" y1="1340" x2="1220" y2="1365" class="line-thin"/>

  <!-- PRODUCT branch -->
  <rect x="945" y="1365" width="150" height="32" class="box"/>
  <text x="1020" y="1386" text-anchor="middle" class="body">PRODUCT</text>
  <text x="1020" y="1412" text-anchor="middle" class="body-dim">$4.99 - $29.99</text>

  <!-- SERVICE branch -->
  <rect x="1145" y="1365" width="150" height="32" class="box"/>
  <text x="1220" y="1386" text-anchor="middle" class="body">SERVICE</text>
  <text x="1220" y="1412" text-anchor="middle" class="body-dim">$497 - $4,997</text>

  <!-- ============================================================ -->
  <!-- SECTION 8: SCHEDULE (bottom-right) -->
  <!-- ============================================================ -->
  <text x="1620" y="1070" class="section-title">SCHEDULE</text>

  <!-- DAILY box -->
  <rect x="1620" y="1100" width="300" height="85" class="box"/>
  <text x="1770" y="1125" text-anchor="middle" class="body" font-weight="bold">DAILY</text>
  <line x1="1640" y1="1133" x2="1900" y2="1133" stroke="#FFFFFF" stroke-width="0.3" opacity="0.3"/>
  <text x="1650" y="1152" class="body-dim">1 Instagram post</text>
  <text x="1650" y="1167" class="body-dim">1 TikTok</text>
  <text x="1650" y="1182" class="body-dim">1 X post</text>

  <!-- WEEKLY box -->
  <rect x="1620" y="1205" width="300" height="85" class="box"/>
  <text x="1770" y="1230" text-anchor="middle" class="body" font-weight="bold">WEEKLY</text>
  <line x1="1640" y1="1238" x2="1900" y2="1238" stroke="#FFFFFF" stroke-width="0.3" opacity="0.3"/>
  <text x="1650" y="1257" class="body-dim">1 YouTube video</text>
  <text x="1650" y="1272" class="body-dim">1 Newsletter</text>
  <text x="1650" y="1287" class="body-dim">Review analytics</text>

  <!-- ============================================================ -->
  <!-- INTER-SECTION CONNECTORS (bezier curves) -->
  <!-- ============================================================ -->

  <!-- Foundations -> Products (horizontal, top area) -->
  <path d="M 480 340 C 700 340, 1000 300, 1420 280" class="connector"/>

  <!-- Products -> Revenue (down-left) -->
  <path d="M 1440 400 C 1350 450, 1250 500, 1200 570" class="connector"/>

  <!-- Content -> Revenue (right) -->
  <path d="M 620 690 C 720 690, 800 650, 900 620" class="connector"/>

  <!-- Revenue -> Funnel (down) -->
  <path d="M 1100 800 C 1100 880, 1120 1000, 1120 1100" class="connector"/>

  <!-- BIOS -> Content (left, with label) -->
  <path d="M 1620 580 C 1400 620, 900 640, 620 670" class="connector"/>
  <text x="1100" y="625" text-anchor="middle" class="connector-label">informs</text>

  <!-- Content -> Funnel Traffic (down) -->
  <path d="M 380 860 C 500 960, 800 1050, 1020 1110" class="connector"/>

  <!-- ============================================================ -->
  <!-- LEGEND (bottom-right corner) -->
  <!-- ============================================================ -->
  <text x="2100" y="1680" class="label">LEGEND</text>
  <line x1="2100" y1="1686" x2="2200" y2="1686" stroke="#FFFFFF" stroke-width="0.3" opacity="0.3"/>
  <text x="2100" y="1703" class="body-dim">[ ]  Not started</text>
  <text x="2100" y="1718" class="body-dim">[/]  In progress</text>
  <text x="2100" y="1733" class="body-dim">[x]  Done</text>

  <!-- ============================================================ -->
  <!-- FOOTER -->
  <!-- ============================================================ -->
  <text x="1200" y="1780" text-anchor="middle" class="label">BEHIKE  /  BLUEPRINT  /  2026</text>

</svg>