<svg xmlns="http://www.w3.org/2000/svg" viewBox="0 0 2550 3300" width="2550" height="3300">
  <defs>
    <style>
      text { font-family: 'Courier New', Courier, monospace; }
      .title-main { font-size: 96px; font-weight: 700; fill: #ffffff; letter-spacing: 16px; }
      .title-sub { font-size: 26px; font-weight: 400; fill: #777777; letter-spacing: 6px; }
      .section-title { font-size: 30px; font-weight: 700; fill: #ffffff; letter-spacing: 5px; }
      .section-time { font-size: 20px; font-weight: 400; fill: #555555; letter-spacing: 2px; }
      .task { font-size: 20px; font-weight: 400; fill: #cccccc; }
      .task-time { font-size: 16px; font-weight: 400; fill: #555555; }
      .gate { font-size: 17px; font-weight: 700; fill: #ffffff; letter-spacing: 2px; }
      .escape { font-size: 16px; font-weight: 400; fill: #444444; font-style: italic; }
      .diamond { font-size: 20px; fill: #ffffff; }
      .branch-label { font-size: 18px; font-weight: 600; fill: #888888; letter-spacing: 3px; }
      .footer { font-size: 22px; font-weight: 400; fill: #555555; letter-spacing: 3px; }
      .footer-bold { font-size: 24px; font-weight: 700; fill: #888888; letter-spacing: 3px; }
      .table-header { font-size: 17px; font-weight: 700; fill: #777777; letter-spacing: 2px; }
      .table-cell { font-size: 17px; font-weight: 400; fill: #444444; }
      .table-line { stroke: #222222; stroke-width: 1; }
      .connector { stroke: #ffffff; stroke-width: 1; fill: none; opacity: 0.12; stroke-dasharray: 6,5; }
      .section-line { stroke: #ffffff; stroke-width: 0.5; fill: none; opacity: 0.2; }
      .gate-line { stroke: #ffffff; stroke-width: 1; fill: none; opacity: 0.06; stroke-dasharray: 2,5; }
      .section-num { font-size: 13px; font-weight: 700; fill: #333333; letter-spacing: 4px; }
      .checkbox { stroke: #444444; stroke-width: 1.5; fill: none; }
    </style>

    <pattern id="grid" width="60" height="60" patternUnits="userSpaceOnUse">
      <path d="M 60 0 L 0 0 0 60" fill="none" stroke="#0a0a0a" stroke-width="0.5"/>
    </pattern>

    <radialGradient id="glow" cx="50%" cy="6%" r="45%">
      <stop offset="0%" stop-color="#ffffff" stop-opacity="0.025"/>
      <stop offset="100%" stop-color="#000000" stop-opacity="0"/>
    </radialGradient>
  </defs>

  <!-- BACKGROUND -->
  <rect width="2550" height="3300" fill="#000000"/>
  <rect width="2550" height="3300" fill="url(#grid)"/>
  <rect width="2550" height="3300" fill="url(#glow)"/>

  <!-- ==================== TITLE ==================== -->
  <g transform="translate(1275, 140)">
    <line x1="-300" y1="0" x2="300" y2="0" stroke="#333333" stroke-width="0.5"/>
    <text text-anchor="middle" y="90" class="title-main">MONEY SPRINT</text>
    <text text-anchor="middle" y="135" class="title-sub">From zero to first sale. One page. One day.</text>
    <line x1="-300" y1="165" x2="300" y2="165" stroke="#333333" stroke-width="0.5"/>
  </g>

  <!-- ==================== TREE DIAGRAM ==================== -->
  <g transform="translate(1275, 400)">
    <!-- Root node -->
    <rect x="-100" y="-20" width="200" height="40" rx="3" stroke="#555555" stroke-width="1" fill="#080808"/>
    <text text-anchor="middle" y="8" class="branch-label">FIRST SALE</text>

    <!-- Branches -->
    <path d="M -50,20 C -50,70 -580,60 -580,100" class="connector"/>
    <path d="M -25,20 C -25,70 -290,60 -290,100" class="connector"/>
    <path d="M 0,20 C 0,70 0,65 0,100" class="connector"/>
    <path d="M 25,20 C 25,70 290,60 290,100" class="connector"/>
    <path d="M 50,20 C 50,70 580,60 580,100" class="connector"/>

    <!-- Branch dots -->
    <circle cx="-580" cy="100" r="4" fill="#333333"/>
    <circle cx="-290" cy="100" r="4" fill="#333333"/>
    <circle cx="0" cy="100" r="4" fill="#333333"/>
    <circle cx="290" cy="100" r="4" fill="#333333"/>
    <circle cx="580" cy="100" r="4" fill="#333333"/>

    <!-- Branch labels -->
    <text x="-580" y="130" text-anchor="middle" class="branch-label">GUMROAD</text>
    <text x="-290" y="130" text-anchor="middle" class="branch-label">INSTAGRAM</text>
    <text x="0" y="130" text-anchor="middle" class="branch-label">BEEHIIV</text>
    <text x="290" y="130" text-anchor="middle" class="branch-label">DOMAIN</text>
    <text x="580" y="130" text-anchor="middle" class="branch-label">PRODUCTS</text>
  </g>

  <!-- Connector from tree to sections -->
  <path d="M 1275,550 C 1275,580 1275,590 1275,610" class="connector"/>

  <!-- ==================== SECTION 1: ACCOUNTS ==================== -->
  <g transform="translate(180, 640)">
    <text class="section-num">SECTION 01</text>
    <text y="35" class="section-title">ACCOUNTS</text>
    <text x="310" y="35" class="section-time">(15 min total)</text>
    <line x1="0" y1="50" x2="620" y2="50" class="section-line"/>

    <g transform="translate(0, 85)">
      <rect x="0" y="-15" width="17" height="17" rx="2" class="checkbox"/>
      <text x="30" class="task">Create Gumroad account (username: behike)</text>
      <text x="600" class="task-time">(3 min)</text>
    </g>
    <g transform="translate(0, 120)">
      <rect x="0" y="-15" width="17" height="17" rx="2" class="checkbox"/>
      <text x="30" class="task">Create Instagram @behikeai</text>
      <text x="600" class="task-time">(3 min)</text>
    </g>
    <g transform="translate(0, 155)">
      <rect x="0" y="-15" width="17" height="17" rx="2" class="checkbox"/>
      <text x="30" class="task">Create Beehiiv newsletter "Behike"</text>
      <text x="600" class="task-time">(3 min)</text>
    </g>
    <g transform="translate(0, 190)">
      <rect x="0" y="-15" width="17" height="17" rx="2" class="checkbox"/>
      <text x="30" class="task">Create TikTok @behikeai</text>
      <text x="600" class="task-time">(3 min)</text>
    </g>
    <g transform="translate(0, 225)">
      <rect x="0" y="-15" width="17" height="17" rx="2" class="checkbox"/>
      <text x="30" class="task">Create YouTube channel "Behike"</text>
      <text x="600" class="task-time">(3 min)</text>
    </g>

    <line x1="0" y1="258" x2="680" y2="258" class="gate-line"/>
    <text y="283" class="gate">GATE: All 5 accounts created? Next section.</text>
    <text y="310" class="escape">If stuck: Just do Gumroad. That's the only one that makes money today.</text>
  </g>

  <!-- ==================== SECTION 2: DOMAIN ==================== -->
  <g transform="translate(180, 1000)">
    <text class="section-num">SECTION 02</text>
    <text y="35" class="section-title">DOMAIN</text>
    <text x="310" y="35" class="section-time">(5 min total)</text>
    <line x1="0" y1="50" x2="620" y2="50" class="section-line"/>

    <g transform="translate(0, 85)">
      <rect x="0" y="-15" width="17" height="17" rx="2" class="checkbox"/>
      <text x="30" class="task">Search behike.co on Namecheap</text>
      <text x="600" class="task-time">(1 min)</text>
    </g>
    <g transform="translate(0, 120)">
      <rect x="0" y="-15" width="17" height="17" rx="2" class="checkbox"/>
      <text x="30" class="task">Buy it if available, or try behike.store</text>
      <text x="600" class="task-time">(2 min)</text>
    </g>
    <g transform="translate(0, 155)">
      <rect x="0" y="-15" width="17" height="17" rx="2" class="checkbox"/>
      <text x="30" class="task">Point DNS later - skip for now</text>
      <text x="600" class="task-time">(0 min)</text>
    </g>

    <line x1="0" y1="185" x2="680" y2="185" class="gate-line"/>
    <text y="210" class="gate">GATE: Domain bought or skipped? Next section.</text>
    <text y="237" class="escape">If stuck: Skip this entirely. Gumroad doesn't need a domain.</text>
  </g>

  <!-- ==================== SECTION 3: FLAGSHIP PRODUCT ==================== -->
  <g transform="translate(180, 1290)">
    <text class="section-num">SECTION 03</text>
    <text y="35" class="section-title">LIST FLAGSHIP PRODUCT</text>
    <text x="560" y="35" class="section-time">(10 min total)</text>
    <line x1="0" y1="50" x2="720" y2="50" class="section-line"/>

    <g transform="translate(0, 85)">
      <rect x="0" y="-15" width="17" height="17" rx="2" class="checkbox"/>
      <text x="30" class="task">Open Gumroad dashboard</text>
      <text x="600" class="task-time">(1 min)</text>
    </g>
    <g transform="translate(0, 120)">
      <rect x="0" y="-15" width="17" height="17" rx="2" class="checkbox"/>
      <text x="30" class="task">Create product: "Behike Operating System"</text>
      <text x="600" class="task-time">(2 min)</text>
    </g>
    <g transform="translate(0, 155)">
      <rect x="0" y="-15" width="17" height="17" rx="2" class="checkbox"/>
      <text x="30" class="task">Price: $97</text>
      <text x="600" class="task-time">(0 min)</text>
    </g>
    <g transform="translate(0, 190)">
      <rect x="0" y="-15" width="17" height="17" rx="2" class="checkbox"/>
      <text x="30" class="task">Upload: behike-operating-system.svg + PDF</text>
      <text x="600" class="task-time">(2 min)</text>
    </g>
    <g transform="translate(0, 225)">
      <rect x="0" y="-15" width="17" height="17" rx="2" class="checkbox"/>
      <text x="30" class="task">Paste description from QUICK_LIST_ORDER.md</text>
      <text x="600" class="task-time">(3 min)</text>
    </g>
    <g transform="translate(0, 260)">
      <rect x="0" y="-15" width="17" height="17" rx="2" class="checkbox"/>
      <text x="30" class="task">Set as featured product</text>
      <text x="600" class="task-time">(1 min)</text>
    </g>
    <g transform="translate(0, 295)">
      <rect x="0" y="-15" width="17" height="17" rx="2" class="checkbox"/>
      <text x="30" class="task">Publish</text>
      <text x="600" class="task-time">(1 min)</text>
    </g>

    <text y="340" class="diamond">&#9670;  Your first product is LIVE</text>
    <text y="370" class="escape">If stuck: Copy the first 3 lines of the description. That's enough.</text>
  </g>

  <!-- ==================== SECTION 4: FREE LEAD MAGNET ==================== -->
  <g transform="translate(1350, 640)">
    <text class="section-num">SECTION 04</text>
    <text y="35" class="section-title">LIST FREE LEAD MAGNET</text>
    <text x="560" y="35" class="section-time">(5 min total)</text>
    <line x1="0" y1="50" x2="720" y2="50" class="section-line"/>

    <g transform="translate(0, 85)">
      <rect x="0" y="-15" width="17" height="17" rx="2" class="checkbox"/>
      <text x="30" class="task">Create: "Solopreneur Starter Blueprint"</text>
      <text x="700" class="task-time">(1 min)</text>
    </g>
    <g transform="translate(0, 120)">
      <rect x="0" y="-15" width="17" height="17" rx="2" class="checkbox"/>
      <text x="30" class="task">Price: $0 (free, requires email)</text>
      <text x="700" class="task-time">(0 min)</text>
    </g>
    <g transform="translate(0, 155)">
      <rect x="0" y="-15" width="17" height="17" rx="2" class="checkbox"/>
      <text x="30" class="task">Upload: solopreneur-starter-FREE.svg + PDF</text>
      <text x="700" class="task-time">(2 min)</text>
    </g>
    <g transform="translate(0, 190)">
      <rect x="0" y="-15" width="17" height="17" rx="2" class="checkbox"/>
      <text x="30" class="task">Paste description</text>
      <text x="700" class="task-time">(1 min)</text>
    </g>
    <g transform="translate(0, 225)">
      <rect x="0" y="-15" width="17" height="17" rx="2" class="checkbox"/>
      <text x="30" class="task">Publish</text>
      <text x="700" class="task-time">(1 min)</text>
    </g>

    <text y="275" class="diamond">&#9670;  Your funnel entry point is live</text>
  </g>

  <!-- ==================== SECTION 5: LIST 4 MORE PRODUCTS ==================== -->
  <g transform="translate(1350, 980)">
    <text class="section-num">SECTION 05</text>
    <text y="35" class="section-title">LIST 4 MORE PRODUCTS</text>
    <text x="560" y="35" class="section-time">(20 min total)</text>
    <line x1="0" y1="50" x2="720" y2="50" class="section-line"/>

    <g transform="translate(0, 85)">
      <rect x="0" y="-15" width="17" height="17" rx="2" class="checkbox"/>
      <text x="30" class="task">E-Commerce Blueprint v2 - $19.99</text>
      <text x="700" class="task-time">(5 min)</text>
    </g>
    <g transform="translate(0, 120)">
      <rect x="0" y="-15" width="17" height="17" rx="2" class="checkbox"/>
      <text x="30" class="task">Freelancer Blueprint v2 - $19.99</text>
      <text x="700" class="task-time">(5 min)</text>
    </g>
    <g transform="translate(0, 155)">
      <rect x="0" y="-15" width="17" height="17" rx="2" class="checkbox"/>
      <text x="30" class="task">Content Creator Blueprint v2 - $19.99</text>
      <text x="700" class="task-time">(5 min)</text>
    </g>
    <g transform="translate(0, 190)">
      <rect x="0" y="-15" width="17" height="17" rx="2" class="checkbox"/>
      <text x="30" class="task">Crypto Investor Blueprint - $19.99</text>
      <text x="700" class="task-time">(5 min)</text>
    </g>

    <line x1="0" y1="225" x2="760" y2="225" class="gate-line"/>
    <text y="252" class="escape">If stuck: Just list 1. One is enough to validate.</text>
  </g>

  <!-- ==================== SECTION 6: INSTAGRAM FIRST POST ==================== -->
  <g transform="translate(1350, 1290)">
    <text class="section-num">SECTION 06</text>
    <text y="35" class="section-title">INSTAGRAM FIRST POST</text>
    <text x="560" y="35" class="section-time">(10 min total)</text>
    <line x1="0" y1="50" x2="720" y2="50" class="section-line"/>

    <g transform="translate(0, 85)">
      <rect x="0" y="-15" width="17" height="17" rx="2" class="checkbox"/>
      <text x="30" class="task">Set profile pic (logo or dark minimal)</text>
      <text x="700" class="task-time">(2 min)</text>
    </g>
    <g transform="translate(0, 120)">
      <rect x="0" y="-15" width="17" height="17" rx="2" class="checkbox"/>
      <text x="30" class="task">Bio: "Systems for builders. Made in PR."</text>
      <text x="700" class="task-time">(2 min)</text>
    </g>
    <g transform="translate(0, 155)">
      <rect x="0" y="-15" width="17" height="17" rx="2" class="checkbox"/>
      <text x="30" class="task">Add Gumroad link to bio</text>
      <text x="700" class="task-time">(1 min)</text>
    </g>
    <g transform="translate(0, 190)">
      <rect x="0" y="-15" width="17" height="17" rx="2" class="checkbox"/>
      <text x="30" class="task">Post first image (blueprint on dark bg)</text>
      <text x="700" class="task-time">(3 min)</text>
    </g>
    <g transform="translate(0, 225)">
      <rect x="0" y="-15" width="17" height="17" rx="2" class="checkbox"/>
      <text x="30" class="task">Caption from instagram-ready/post-01.md</text>
      <text x="700" class="task-time">(2 min)</text>
    </g>

    <text y="275" class="diamond">&#9670;  You are now publicly live</text>
  </g>

  <!-- ==================== SECTION 7: TRADEMARK ==================== -->
  <g transform="translate(1350, 1640)">
    <text class="section-num">SECTION 07</text>
    <text y="35" class="section-title">TRADEMARK</text>
    <text x="310" y="35" class="section-time">(10 min total)</text>
    <line x1="0" y1="50" x2="620" y2="50" class="section-line"/>

    <g transform="translate(0, 85)">
      <rect x="0" y="-15" width="17" height="17" rx="2" class="checkbox"/>
      <text x="30" class="task">Go to USPTO.gov</text>
      <text x="530" class="task-time">(1 min)</text>
    </g>
    <g transform="translate(0, 120)">
      <rect x="0" y="-15" width="17" height="17" rx="2" class="checkbox"/>
      <text x="30" class="task">Search "BEHIKE" in TESS database</text>
      <text x="530" class="task-time">(3 min)</text>
    </g>
    <g transform="translate(0, 155)">
      <rect x="0" y="-15" width="17" height="17" rx="2" class="checkbox"/>
      <text x="30" class="task">If clear: bookmark TEAS Plus page</text>
      <text x="530" class="task-time">(2 min)</text>
    </g>
    <g transform="translate(0, 190)">
      <rect x="0" y="-15" width="17" height="17" rx="2" class="checkbox"/>
      <text x="30" class="task">File when ready ($250)</text>
      <text x="530" class="task-time">(4 min)</text>
    </g>

    <line x1="0" y1="225" x2="680" y2="225" class="gate-line"/>
    <text y="252" class="escape">If stuck: Just search. Filing can wait a week.</text>
  </g>

  <!-- ==================== VERTICAL CONNECTORS left column ==================== -->
  <path d="M 380,965 L 380,1000" class="connector"/>
  <path d="M 380,1255 L 380,1290" class="connector"/>

  <!-- ==================== VERTICAL CONNECTORS right column ==================== -->
  <path d="M 1600,940 L 1600,980" class="connector"/>
  <path d="M 1600,1255 L 1600,1290" class="connector"/>
  <path d="M 1600,1600 L 1600,1640" class="connector"/>

  <!-- ==================== CROSS CONNECTOR ==================== -->
  <path d="M 880,700 C 1050,700 1180,700 1350,700" class="connector"/>

  <!-- ==================== REVENUE TRACKER ==================== -->
  <g transform="translate(180, 1720)">
    <text class="section-num">TRACKING</text>
    <text y="35" class="section-title">REVENUE TRACKER</text>
    <line x1="0" y1="50" x2="1000" y2="50" class="section-line"/>

    <!-- Table header -->
    <text x="30" y="85" class="table-header">DAY</text>
    <text x="160" y="85" class="table-header">PRODUCTS LISTED</text>
    <text x="460" y="85" class="table-header">VIEWS</text>
    <text x="620" y="85" class="table-header">SALES</text>
    <text x="780" y="85" class="table-header">REVENUE</text>
    <line x1="0" y1="97" x2="950" y2="97" class="table-line"/>

    <text x="38" y="125" class="table-cell">1</text>
    <text x="160" y="125" class="table-cell">________</text>
    <text x="460" y="125" class="table-cell">________</text>
    <text x="620" y="125" class="table-cell">________</text>
    <text x="780" y="125" class="table-cell">$_______</text>
    <line x1="0" y1="135" x2="950" y2="135" stroke="#111111" stroke-width="0.5"/>

    <text x="38" y="160" class="table-cell">2</text>
    <text x="160" y="160" class="table-cell">________</text>
    <text x="460" y="160" class="table-cell">________</text>
    <text x="620" y="160" class="table-cell">________</text>
    <text x="780" y="160" class="table-cell">$_______</text>
    <line x1="0" y1="170" x2="950" y2="170" stroke="#111111" stroke-width="0.5"/>

    <text x="38" y="195" class="table-cell">3</text>
    <text x="160" y="195" class="table-cell">________</text>
    <text x="460" y="195" class="table-cell">________</text>
    <text x="620" y="195" class="table-cell">________</text>
    <text x="780" y="195" class="table-cell">$_______</text>
    <line x1="0" y1="205" x2="950" y2="205" stroke="#111111" stroke-width="0.5"/>

    <text x="38" y="230" class="table-cell">4</text>
    <text x="160" y="230" class="table-cell">________</text>
    <text x="460" y="230" class="table-cell">________</text>
    <text x="620" y="230" class="table-cell">________</text>
    <text x="780" y="230" class="table-cell">$_______</text>
    <line x1="0" y1="240" x2="950" y2="240" stroke="#111111" stroke-width="0.5"/>

    <text x="38" y="265" class="table-cell">5</text>
    <text x="160" y="265" class="table-cell">________</text>
    <text x="460" y="265" class="table-cell">________</text>
    <text x="620" y="265" class="table-cell">________</text>
    <text x="780" y="265" class="table-cell">$_______</text>
    <line x1="0" y1="275" x2="950" y2="275" stroke="#111111" stroke-width="0.5"/>

    <text x="38" y="300" class="table-cell">6</text>
    <text x="160" y="300" class="table-cell">________</text>
    <text x="460" y="300" class="table-cell">________</text>
    <text x="620" y="300" class="table-cell">________</text>
    <text x="780" y="300" class="table-cell">$_______</text>
    <line x1="0" y1="310" x2="950" y2="310" stroke="#111111" stroke-width="0.5"/>

    <text x="38" y="335" class="table-cell">7</text>
    <text x="160" y="335" class="table-cell">________</text>
    <text x="460" y="335" class="table-cell">________</text>
    <text x="620" y="335" class="table-cell">________</text>
    <text x="780" y="335" class="table-cell">$_______</text>
    <line x1="0" y1="345" x2="950" y2="345" stroke="#111111" stroke-width="0.5"/>
  </g>

  <!-- ==================== FOOTER ==================== -->
  <g transform="translate(1275, 2170)">
    <line x1="-800" y1="0" x2="800" y2="0" stroke="#1a1a1a" stroke-width="0.5"/>

    <text text-anchor="middle" y="55" class="footer-bold">Total sprint time: ~75 minutes</text>

    <text text-anchor="middle" y="100" class="footer">You don't need everything perfect.</text>
    <text text-anchor="middle" y="130" class="footer">You need ONE product live.</text>

    <line x1="-130" y1="160" x2="130" y2="160" stroke="#222222" stroke-width="0.5"/>
    <text text-anchor="middle" y="195" class="footer">behike.co  |  Built in Puerto Rico</text>
  </g>

</svg>